<?xml version="1.0" encoding="UTF-8" standalone="no"?>
<!DOCTYPE svg PUBLIC "-//W3C//DTD SVG 1.1//EN"
 "http://www.w3.org/Graphics/SVG/1.1/DTD/svg11.dtd">
<!-- Generated by graphviz version 2.28.0 (20121019.2215)
 -->
<!-- Title: _anonymous_0 Pages: 1 -->
<svg width="1076pt" height="494pt"
 viewBox="0.00 0.00 1076.45 494.00" xmlns="http://www.w3.org/2000/svg" xmlns:xlink="http://www.w3.org/1999/xlink">
<g id="graph1" class="graph" transform="scale(1 1) rotate(0) translate(4 490)">
<title>_anonymous_0</title>
<polygon fill="white" stroke="white" points="-4,5 -4,-490 1073.45,-490 1073.45,5 -4,5"/>
<!-- A2 -->
<g id="node1" class="node"><title>A2</title>
<ellipse fill="none" stroke="black" cx="99" cy="-378" rx="27" ry="18"/>
<text text-anchor="middle" x="99" y="-372.4" font-family="Times,serif" font-size="14.00">A2</text>
</g>
<!-- C#3 -->
<g id="node2" class="node"><title>C#3</title>
<ellipse fill="none" stroke="black" cx="61" cy="-288" rx="27.2698" ry="18"/>
<text text-anchor="middle" x="61" y="-282.4" font-family="Times,serif" font-size="14.00">C#3</text>
</g>
<!-- A2&#45;&#45;C#3 -->
<g id="edge2" class="edge"><title>A2&#45;&#45;C#3</title>
<path fill="none" stroke="black" d="M91.852,-360.45C86.333,-347.66 78.59,-329.74 72.243,-315.04"/>
<polygon fill="black" stroke="black" points="75.2925,-313.273 68.115,-305.48 68.866,-316.048 75.2925,-313.273"/>
<text text-anchor="middle" x="103.25" y="-327.4" font-family="Times,serif" font-size="14.00">0.0182</text>
</g>
<!-- E2 -->
<g id="node4" class="node"><title>E2</title>
<ellipse fill="none" stroke="black" cx="61" cy="-198" rx="27" ry="18"/>
<text text-anchor="middle" x="61" y="-192.4" font-family="Times,serif" font-size="14.00">E2</text>
</g>
<!-- C#3&#45;&#45;E2 -->
<g id="edge4" class="edge"><title>C#3&#45;&#45;E2</title>
<path fill="none" stroke="black" d="M61,-269.61C61,-257.24 61,-240.37 61,-226.22"/>
<polygon fill="black" stroke="black" points="64.5001,-226.05 61,-216.05 57.5001,-226.05 64.5001,-226.05"/>
<text text-anchor="middle" x="80.25" y="-237.4" font-family="Times,serif" font-size="14.00">0.0182</text>
</g>
<!-- B2 -->
<g id="node6" class="node"><title>B2</title>
<ellipse fill="none" stroke="black" cx="61" cy="-108" rx="27" ry="18"/>
<text text-anchor="middle" x="61" y="-102.4" font-family="Times,serif" font-size="14.00">B2</text>
</g>
<!-- E2&#45;&#45;B2 -->
<g id="edge6" class="edge"><title>E2&#45;&#45;B2</title>
<path fill="none" stroke="black" d="M61,-179.61C61,-167.24 61,-150.37 61,-136.22"/>
<polygon fill="black" stroke="black" points="64.5001,-136.05 61,-126.05 57.5001,-136.05 64.5001,-136.05"/>
<text text-anchor="middle" x="80.25" y="-147.4" font-family="Times,serif" font-size="14.00">0.0182</text>
</g>
<!-- F4 -->
<g id="node27" class="node"><title>F4</title>
<ellipse fill="none" stroke="black" cx="61" cy="-18" rx="27" ry="18"/>
<text text-anchor="middle" x="61" y="-12.4" font-family="Times,serif" font-size="14.00">F4</text>
</g>
<!-- B2&#45;&#45;F4 -->
<g id="edge24" class="edge"><title>B2&#45;&#45;F4</title>
<path fill="none" stroke="black" d="M61,-89.614C61,-77.24 61,-60.369 61,-46.22"/>
<polygon fill="black" stroke="black" points="64.5001,-46.05 61,-36.05 57.5001,-46.05 64.5001,-46.05"/>
<text text-anchor="middle" x="80.25" y="-57.4" font-family="Times,serif" font-size="14.00">0.0364</text>
</g>
<!-- A4 -->
<g id="node8" class="node"><title>A4</title>
<ellipse fill="none" stroke="black" cx="27" cy="-378" rx="27" ry="18"/>
<text text-anchor="middle" x="27" y="-372.4" font-family="Times,serif" font-size="14.00">A4</text>
</g>
<!-- A4&#45;&#45;C#3 -->
<g id="edge8" class="edge"><title>A4&#45;&#45;C#3</title>
<path fill="none" stroke="black" d="M26.791,-359.69C27.221,-349.04 28.802,-335.3 33.5,-324 35.284,-319.71 37.746,-315.5 40.471,-311.58"/>
<polygon fill="black" stroke="black" points="43.3524,-313.575 46.691,-303.52 37.8107,-309.298 43.3524,-313.575"/>
<text text-anchor="middle" x="53.25" y="-327.4" font-family="Times,serif" font-size="14.00">0.0364</text>
</g>
<!-- B&#45;2 -->
<g id="node10" class="node"><title>B&#45;2</title>
<ellipse fill="none" stroke="black" cx="201" cy="-378" rx="27" ry="18"/>
<text text-anchor="middle" x="201" y="-372.4" font-family="Times,serif" font-size="14.00">B&#45;2</text>
</g>
<!-- E&#45;3 -->
<g id="node11" class="node"><title>E&#45;3</title>
<ellipse fill="none" stroke="black" cx="201" cy="-288" rx="27" ry="18"/>
<text text-anchor="middle" x="201" y="-282.4" font-family="Times,serif" font-size="14.00">E&#45;3</text>
</g>
<!-- B&#45;2&#45;&#45;E&#45;3 -->
<g id="edge10" class="edge"><title>B&#45;2&#45;&#45;E&#45;3</title>
<path fill="none" stroke="black" d="M201,-359.61C201,-347.24 201,-330.37 201,-316.22"/>
<polygon fill="black" stroke="black" points="204.5,-316.05 201,-306.05 197.5,-316.05 204.5,-316.05"/>
<text text-anchor="middle" x="220.25" y="-327.4" font-family="Times,serif" font-size="14.00">0.0364</text>
</g>
<!-- E&#45;5 -->
<g id="node13" class="node"><title>E&#45;5</title>
<ellipse fill="none" stroke="black" cx="201" cy="-198" rx="27" ry="18"/>
<text text-anchor="middle" x="201" y="-192.4" font-family="Times,serif" font-size="14.00">E&#45;5</text>
</g>
<!-- E&#45;3&#45;&#45;E&#45;5 -->
<g id="edge12" class="edge"><title>E&#45;3&#45;&#45;E&#45;5</title>
<path fill="none" stroke="black" d="M201,-269.61C201,-257.24 201,-240.37 201,-226.22"/>
<polygon fill="black" stroke="black" points="204.5,-226.05 201,-216.05 197.5,-226.05 204.5,-226.05"/>
<text text-anchor="middle" x="220.25" y="-237.4" font-family="Times,serif" font-size="14.00">0.0364</text>
</g>
<!-- B&#45;3 -->
<g id="node15" class="node"><title>B&#45;3</title>
<ellipse fill="none" stroke="black" cx="346" cy="-468" rx="27" ry="18"/>
<text text-anchor="middle" x="346" y="-462.4" font-family="Times,serif" font-size="14.00">B&#45;3</text>
</g>
<!-- G#4 -->
<g id="node16" class="node"><title>G#4</title>
<ellipse fill="none" stroke="black" cx="305" cy="-378" rx="27.8358" ry="18"/>
<text text-anchor="middle" x="305" y="-372.4" font-family="Times,serif" font-size="14.00">G#4</text>
</g>
<!-- B&#45;3&#45;&#45;G#4 -->
<g id="edge14" class="edge"><title>B&#45;3&#45;&#45;G#4</title>
<path fill="none" stroke="black" d="M331.6,-452.37C326.48,-446.46 321.1,-439.31 317.5,-432 313.58,-424.04 310.86,-414.79 308.98,-406.27"/>
<polygon fill="black" stroke="black" points="312.404,-405.54 307.08,-396.38 305.53,-406.861 312.404,-405.54"/>
<text text-anchor="middle" x="337.25" y="-417.4" font-family="Times,serif" font-size="14.00">0.0364</text>
</g>
<!-- F3 -->
<g id="node18" class="node"><title>F3</title>
<ellipse fill="none" stroke="black" cx="378" cy="-378" rx="27" ry="18"/>
<text text-anchor="middle" x="378" y="-372.4" font-family="Times,serif" font-size="14.00">F3</text>
</g>
<!-- B&#45;3&#45;&#45;F3 -->
<g id="edge16" class="edge"><title>B&#45;3&#45;&#45;F3</title>
<path fill="none" stroke="black" d="M352.02,-450.45C356.64,-437.75 363.1,-419.96 368.43,-405.32"/>
<polygon fill="black" stroke="black" points="371.771,-406.374 371.9,-395.78 365.193,-403.981 371.771,-406.374"/>
<text text-anchor="middle" x="384.25" y="-417.4" font-family="Times,serif" font-size="14.00">0.0364</text>
</g>
<!-- A3 -->
<g id="node20" class="node"><title>A3</title>
<ellipse fill="none" stroke="black" cx="352" cy="-288" rx="27" ry="18"/>
<text text-anchor="middle" x="352" y="-282.4" font-family="Times,serif" font-size="14.00">A3</text>
</g>
<!-- F3&#45;&#45;A3 -->
<g id="edge18" class="edge"><title>F3&#45;&#45;A3</title>
<path fill="none" stroke="black" d="M364.65,-362.04C360.25,-356.2 355.88,-349.18 353.5,-342 350.82,-333.89 349.88,-324.69 349.78,-316.26"/>
<polygon fill="black" stroke="black" points="353.282,-316.223 350.03,-306.14 346.284,-316.05 353.282,-316.223"/>
<text text-anchor="middle" x="373.25" y="-327.4" font-family="Times,serif" font-size="14.00">0.0364</text>
</g>
<!-- D3 -->
<g id="node22" class="node"><title>D3</title>
<ellipse fill="none" stroke="black" cx="509" cy="-288" rx="27" ry="18"/>
<text text-anchor="middle" x="509" y="-282.4" font-family="Times,serif" font-size="14.00">D3</text>
</g>
<!-- F3&#45;&#45;D3 -->
<g id="edge20" class="edge"><title>F3&#45;&#45;D3</title>
<path fill="none" stroke="black" d="M390.73,-362.08C401.11,-350.59 416.6,-334.88 432.5,-324 445.92,-314.82 462.13,-307 476.17,-301.1"/>
<polygon fill="black" stroke="black" points="477.525,-304.328 485.48,-297.33 474.897,-297.839 477.525,-304.328"/>
<text text-anchor="middle" x="452.25" y="-327.4" font-family="Times,serif" font-size="14.00">0.0364</text>
</g>
<!-- B&#45;4 -->
<g id="node24" class="node"><title>B&#45;4</title>
<ellipse fill="none" stroke="black" cx="689" cy="-468" rx="27" ry="18"/>
<text text-anchor="middle" x="689" y="-462.4" font-family="Times,serif" font-size="14.00">B&#45;4</text>
</g>
<!-- B4 -->
<g id="node25" class="node"><title>B4</title>
<ellipse fill="none" stroke="black" cx="689" cy="-378" rx="27" ry="18"/>
<text text-anchor="middle" x="689" y="-372.4" font-family="Times,serif" font-size="14.00">B4</text>
</g>
<!-- B&#45;4&#45;&#45;B4 -->
<g id="edge22" class="edge"><title>B&#45;4&#45;&#45;B4</title>
<path fill="none" stroke="black" d="M689,-449.61C689,-437.24 689,-420.37 689,-406.22"/>
<polygon fill="black" stroke="black" points="692.5,-406.05 689,-396.05 685.5,-406.05 692.5,-406.05"/>
<text text-anchor="middle" x="708.25" y="-417.4" font-family="Times,serif" font-size="14.00">0.0364</text>
</g>
<!-- B3 -->
<g id="node29" class="node"><title>B3</title>
<ellipse fill="none" stroke="black" cx="27" cy="-468" rx="27" ry="18"/>
<text text-anchor="middle" x="27" y="-462.4" font-family="Times,serif" font-size="14.00">B3</text>
</g>
<!-- B3&#45;&#45;A2 -->
<g id="edge26" class="edge"><title>B3&#45;&#45;A2</title>
<path fill="none" stroke="black" d="M34.324,-450.23C39.577,-439.27 47.33,-425 56.5,-414 61.188,-408.38 66.875,-402.98 72.544,-398.19"/>
<polygon fill="black" stroke="black" points="75.1097,-400.619 80.718,-391.63 70.7283,-395.159 75.1097,-400.619"/>
<text text-anchor="middle" x="76.25" y="-417.4" font-family="Times,serif" font-size="14.00">0.0364</text>
</g>
<!-- C#5 -->
<g id="node31" class="node"><title>C#5</title>
<ellipse fill="none" stroke="black" cx="761" cy="-468" rx="27.2698" ry="18"/>
<text text-anchor="middle" x="761" y="-462.4" font-family="Times,serif" font-size="14.00">C#5</text>
</g>
<!-- D5 -->
<g id="node32" class="node"><title>D5</title>
<ellipse fill="none" stroke="black" cx="761" cy="-378" rx="27" ry="18"/>
<text text-anchor="middle" x="761" y="-372.4" font-family="Times,serif" font-size="14.00">D5</text>
</g>
<!-- C#5&#45;&#45;D5 -->
<g id="edge28" class="edge"><title>C#5&#45;&#45;D5</title>
<path fill="none" stroke="black" d="M761,-449.61C761,-437.24 761,-420.37 761,-406.22"/>
<polygon fill="black" stroke="black" points="764.5,-406.05 761,-396.05 757.5,-406.05 764.5,-406.05"/>
<text text-anchor="middle" x="780.25" y="-417.4" font-family="Times,serif" font-size="14.00">0.0364</text>
</g>
<!-- C3 -->
<g id="node34" class="node"><title>C3</title>
<ellipse fill="none" stroke="black" cx="921" cy="-288" rx="27" ry="18"/>
<text text-anchor="middle" x="921" y="-282.4" font-family="Times,serif" font-size="14.00">C3</text>
</g>
<!-- E&#45;4 -->
<g id="node35" class="node"><title>E&#45;4</title>
<ellipse fill="none" stroke="black" cx="812" cy="-198" rx="27" ry="18"/>
<text text-anchor="middle" x="812" y="-192.4" font-family="Times,serif" font-size="14.00">E&#45;4</text>
</g>
<!-- C3&#45;&#45;E&#45;4 -->
<g id="edge30" class="edge"><title>C3&#45;&#45;E&#45;4</title>
<path fill="none" stroke="black" d="M896.87,-279.81C880.95,-274.17 860.37,-265.06 845.5,-252 836.91,-244.46 829.73,-234.19 824.25,-224.69"/>
<polygon fill="black" stroke="black" points="827.173,-222.735 819.35,-215.59 821.009,-226.054 827.173,-222.735"/>
<text text-anchor="middle" x="865.25" y="-237.4" font-family="Times,serif" font-size="14.00">0.0364</text>
</g>
<!-- E3 -->
<g id="node37" class="node"><title>E3</title>
<ellipse fill="none" stroke="black" cx="884" cy="-198" rx="27" ry="18"/>
<text text-anchor="middle" x="884" y="-192.4" font-family="Times,serif" font-size="14.00">E3</text>
</g>
<!-- C3&#45;&#45;E3 -->
<g id="edge32" class="edge"><title>C3&#45;&#45;E3</title>
<path fill="none" stroke="black" d="M906.31,-272.5C901.16,-266.61 895.83,-259.44 892.5,-252 888.96,-244.11 886.87,-234.97 885.65,-226.53"/>
<polygon fill="black" stroke="black" points="889.102,-225.908 884.51,-216.36 882.146,-226.688 889.102,-225.908"/>
<text text-anchor="middle" x="912.25" y="-237.4" font-family="Times,serif" font-size="14.00">0.0364</text>
</g>
<!-- G#3 -->
<g id="node39" class="node"><title>G#3</title>
<ellipse fill="none" stroke="black" cx="957" cy="-198" rx="27.8358" ry="18"/>
<text text-anchor="middle" x="957" y="-192.4" font-family="Times,serif" font-size="14.00">G#3</text>
</g>
<!-- C3&#45;&#45;G#3 -->
<g id="edge34" class="edge"><title>C3&#45;&#45;G#3</title>
<path fill="none" stroke="black" d="M927.77,-270.45C933,-257.66 940.34,-239.74 946.35,-225.04"/>
<polygon fill="black" stroke="black" points="949.714,-226.061 950.26,-215.48 943.235,-223.411 949.714,-226.061"/>
<text text-anchor="middle" x="961.25" y="-237.4" font-family="Times,serif" font-size="14.00">0.0364</text>
</g>
<!-- G3 -->
<g id="node41" class="node"><title>G3</title>
<ellipse fill="none" stroke="black" cx="1030" cy="-198" rx="27" ry="18"/>
<text text-anchor="middle" x="1030" y="-192.4" font-family="Times,serif" font-size="14.00">G3</text>
</g>
<!-- C3&#45;&#45;G3 -->
<g id="edge36" class="edge"><title>C3&#45;&#45;G3</title>
<path fill="none" stroke="black" d="M942.88,-277.21C955.57,-270.98 971.47,-262.17 984,-252 994.5,-243.48 1004.5,-232.4 1012.5,-222.56"/>
<polygon fill="black" stroke="black" points="1015.28,-224.684 1018.8,-214.69 1009.82,-220.309 1015.28,-224.684"/>
<text text-anchor="middle" x="1021.2" y="-237.4" font-family="Times,serif" font-size="14.00">0.0364</text>
</g>
<!-- E4 -->
<g id="node43" class="node"><title>E4</title>
<ellipse fill="none" stroke="black" cx="812" cy="-108" rx="27" ry="18"/>
<text text-anchor="middle" x="812" y="-102.4" font-family="Times,serif" font-size="14.00">E4</text>
</g>
<!-- E&#45;4&#45;&#45;E4 -->
<g id="edge38" class="edge"><title>E&#45;4&#45;&#45;E4</title>
<path fill="none" stroke="black" d="M812,-179.61C812,-167.24 812,-150.37 812,-136.22"/>
<polygon fill="black" stroke="black" points="815.5,-136.05 812,-126.05 808.5,-136.05 815.5,-136.05"/>
<text text-anchor="middle" x="831.25" y="-147.4" font-family="Times,serif" font-size="14.00">0.0364</text>
</g>
<!-- C#4 -->
<g id="node45" class="node"><title>C#4</title>
<ellipse fill="none" stroke="black" cx="1030" cy="-108" rx="27.2698" ry="18"/>
<text text-anchor="middle" x="1030" y="-102.4" font-family="Times,serif" font-size="14.00">C#4</text>
</g>
<!-- G3&#45;&#45;C#4 -->
<g id="edge40" class="edge"><title>G3&#45;&#45;C#4</title>
<path fill="none" stroke="black" d="M1030,-179.61C1030,-167.24 1030,-150.37 1030,-136.22"/>
<polygon fill="black" stroke="black" points="1033.5,-136.05 1030,-126.05 1026.5,-136.05 1033.5,-136.05"/>
<text text-anchor="middle" x="1049.2" y="-147.4" font-family="Times,serif" font-size="14.00">0.0364</text>
</g>
<!-- C5 -->
<g id="node47" class="node"><title>C5</title>
<ellipse fill="none" stroke="black" cx="471" cy="-378" rx="27" ry="18"/>
<text text-anchor="middle" x="471" y="-372.4" font-family="Times,serif" font-size="14.00">C5</text>
</g>
<!-- C5&#45;&#45;D3 -->
<g id="edge42" class="edge"><title>C5&#45;&#45;D3</title>
<path fill="none" stroke="black" d="M471.9,-359.63C472.99,-348.95 475.35,-335.21 480.5,-324 482.47,-319.72 485.08,-315.52 487.93,-311.59"/>
<polygon fill="black" stroke="black" points="490.867,-313.522 494.39,-303.53 485.405,-309.144 490.867,-313.522"/>
<text text-anchor="middle" x="500.25" y="-327.4" font-family="Times,serif" font-size="14.00">0.0364</text>
</g>
<!-- D4 -->
<g id="node49" class="node"><title>D4</title>
<ellipse fill="none" stroke="black" cx="171" cy="-468" rx="27" ry="18"/>
<text text-anchor="middle" x="171" y="-462.4" font-family="Times,serif" font-size="14.00">D4</text>
</g>
<!-- D4&#45;&#45;B&#45;2 -->
<g id="edge44" class="edge"><title>D4&#45;&#45;B&#45;2</title>
<path fill="none" stroke="black" d="M173.48,-449.96C175.31,-439.4 178.24,-425.68 182.5,-414 183.72,-410.67 185.19,-407.26 186.77,-403.94"/>
<polygon fill="black" stroke="black" points="189.927,-405.453 191.39,-394.96 183.703,-402.251 189.927,-405.453"/>
<text text-anchor="middle" x="202.25" y="-417.4" font-family="Times,serif" font-size="14.00">0.0364</text>
</g>
<!-- F#2 -->
<g id="node51" class="node"><title>F#2</title>
<ellipse fill="none" stroke="black" cx="243" cy="-468" rx="27" ry="18"/>
<text text-anchor="middle" x="243" y="-462.4" font-family="Times,serif" font-size="14.00">F#2</text>
</g>
<!-- F#2&#45;&#45;B&#45;2 -->
<g id="edge46" class="edge"><title>F#2&#45;&#45;B&#45;2</title>
<path fill="none" stroke="black" d="M236.59,-450.05C232.46,-439.53 226.79,-425.81 221,-414 219.41,-410.76 217.65,-407.41 215.85,-404.11"/>
<polygon fill="black" stroke="black" points="218.755,-402.136 210.79,-395.15 212.66,-405.579 218.755,-402.136"/>
<text text-anchor="middle" x="248.25" y="-417.4" font-family="Times,serif" font-size="14.00">0.0364</text>
</g>
<!-- F#3 -->
<g id="node53" class="node"><title>F#3</title>
<ellipse fill="none" stroke="black" cx="866" cy="-468" rx="27" ry="18"/>
<text text-anchor="middle" x="866" y="-462.4" font-family="Times,serif" font-size="14.00">F#3</text>
</g>
<!-- C4 -->
<g id="node54" class="node"><title>C4</title>
<ellipse fill="none" stroke="black" cx="849" cy="-378" rx="27" ry="18"/>
<text text-anchor="middle" x="849" y="-372.4" font-family="Times,serif" font-size="14.00">C4</text>
</g>
<!-- F#3&#45;&#45;C4 -->
<g id="edge48" class="edge"><title>F#3&#45;&#45;C4</title>
<path fill="none" stroke="black" d="M860.29,-450.06C858.54,-444.37 856.75,-437.96 855.5,-432 853.76,-423.71 852.43,-414.58 851.45,-406.27"/>
<polygon fill="black" stroke="black" points="854.928,-405.879 850.38,-396.31 847.968,-406.627 854.928,-405.879"/>
<text text-anchor="middle" x="875.25" y="-417.4" font-family="Times,serif" font-size="14.00">0.0364</text>
</g>
<!-- G2 -->
<g id="node56" class="node"><title>G2</title>
<ellipse fill="none" stroke="black" cx="921" cy="-378" rx="27" ry="18"/>
<text text-anchor="middle" x="921" y="-372.4" font-family="Times,serif" font-size="14.00">G2</text>
</g>
<!-- F#3&#45;&#45;G2 -->
<g id="edge50" class="edge"><title>F#3&#45;&#45;G2</title>
<path fill="none" stroke="black" d="M878.97,-452.17C883.96,-446.12 889.53,-438.93 894,-432 899.51,-423.46 904.77,-413.66 909.16,-404.82"/>
<polygon fill="black" stroke="black" points="912.358,-406.246 913.56,-395.72 906.056,-403.199 912.358,-406.246"/>
<text text-anchor="middle" x="923.25" y="-417.4" font-family="Times,serif" font-size="14.00">0.0364</text>
</g>
<!-- G2&#45;&#45;C3 -->
<g id="edge52" class="edge"><title>G2&#45;&#45;C3</title>
<path fill="none" stroke="black" d="M921,-359.61C921,-347.24 921,-330.37 921,-316.22"/>
<polygon fill="black" stroke="black" points="924.5,-316.05 921,-306.05 917.5,-316.05 924.5,-316.05"/>
<text text-anchor="middle" x="940.25" y="-327.4" font-family="Times,serif" font-size="14.00">0.0182</text>
</g>
<!-- F#4 -->
<g id="node59" class="node"><title>F#4</title>
<ellipse fill="none" stroke="black" cx="993" cy="-468" rx="27" ry="18"/>
<text text-anchor="middle" x="993" y="-462.4" font-family="Times,serif" font-size="14.00">F#4</text>
</g>
<!-- G4 -->
<g id="node60" class="node"><title>G4</title>
<ellipse fill="none" stroke="black" cx="993" cy="-378" rx="27" ry="18"/>
<text text-anchor="middle" x="993" y="-372.4" font-family="Times,serif" font-size="14.00">G4</text>
</g>
<!-- F#4&#45;&#45;G4 -->
<g id="edge54" class="edge"><title>F#4&#45;&#45;G4</title>
<path fill="none" stroke="black" d="M993,-449.61C993,-437.24 993,-420.37 993,-406.22"/>
<polygon fill="black" stroke="black" points="996.5,-406.05 993,-396.05 989.5,-406.05 996.5,-406.05"/>
<text text-anchor="middle" x="1012.2" y="-417.4" font-family="Times,serif" font-size="14.00">0.0364</text>
</g>
<!-- F2 -->
<g id="node62" class="node"><title>F2</title>
<ellipse fill="none" stroke="black" cx="543" cy="-378" rx="27" ry="18"/>
<text text-anchor="middle" x="543" y="-372.4" font-family="Times,serif" font-size="14.00">F2</text>
</g>
<!-- F2&#45;&#45;D3 -->
<g id="edge56" class="edge"><title>F2&#45;&#45;D3</title>
<path fill="none" stroke="black" d="M536.6,-360.45C531.7,-347.75 524.83,-329.96 519.17,-315.32"/>
<polygon fill="black" stroke="black" points="522.352,-313.844 515.48,-305.78 515.823,-316.369 522.352,-313.844"/>
<text text-anchor="middle" x="549.25" y="-327.4" font-family="Times,serif" font-size="14.00">0.0364</text>
</g>
<!-- F5 -->
<g id="node64" class="node"><title>F5</title>
<ellipse fill="none" stroke="black" cx="99" cy="-468" rx="27" ry="18"/>
<text text-anchor="middle" x="99" y="-462.4" font-family="Times,serif" font-size="14.00">F5</text>
</g>
<!-- F5&#45;&#45;A2 -->
<g id="edge58" class="edge"><title>F5&#45;&#45;A2</title>
<path fill="none" stroke="black" d="M99,-449.61C99,-437.24 99,-420.37 99,-406.22"/>
<polygon fill="black" stroke="black" points="102.5,-406.05 99,-396.05 95.5001,-406.05 102.5,-406.05"/>
<text text-anchor="middle" x="118.25" y="-417.4" font-family="Times,serif" font-size="14.00">0.0182</text>
</g>
<!-- G#2 -->
<g id="node66" class="node"><title>G#2</title>
<ellipse fill="none" stroke="black" cx="616" cy="-378" rx="27.8358" ry="18"/>
<text text-anchor="middle" x="616" y="-372.4" font-family="Times,serif" font-size="14.00">G#2</text>
</g>
<!-- G#2&#45;&#45;D3 -->
<g id="edge60" class="edge"><title>G#2&#45;&#45;D3</title>
<path fill="none" stroke="black" d="M605.37,-361.28C597.18,-349.96 585.07,-334.84 572,-324 562.39,-316.03 550.7,-308.96 540.02,-303.29"/>
<polygon fill="black" stroke="black" points="541.461,-300.096 530.96,-298.69 538.292,-306.338 541.461,-300.096"/>
<text text-anchor="middle" x="609.25" y="-327.4" font-family="Times,serif" font-size="14.00">0.0364</text>
</g>
</g>
</svg>
