<?xml version="1.0" encoding="UTF-8" standalone="no"?>
<!DOCTYPE svg PUBLIC "-//W3C//DTD SVG 1.1//EN"
 "http://www.w3.org/Graphics/SVG/1.1/DTD/svg11.dtd">
<!-- Generated by graphviz version 2.28.0 (20121019.2215)
 -->
<!-- Title: _anonymous_0 Pages: 1 -->
<svg width="589pt" height="764pt"
 viewBox="0.00 0.00 588.50 764.00" xmlns="http://www.w3.org/2000/svg" xmlns:xlink="http://www.w3.org/1999/xlink">
<g id="graph1" class="graph" transform="scale(1 1) rotate(0) translate(4 760)">
<title>_anonymous_0</title>
<polygon fill="white" stroke="white" points="-4,5 -4,-760 585.5,-760 585.5,5 -4,5"/>
<!-- A2 -->
<g id="node1" class="node"><title>A2</title>
<ellipse fill="none" stroke="black" cx="113" cy="-648" rx="27" ry="18"/>
<text text-anchor="middle" x="113" y="-642.4" font-family="Times,serif" font-size="14.00">A2</text>
</g>
<!-- A2&#45;&#45;A2 -->
<g id="edge6" class="edge"><title>A2&#45;&#45;A2</title>
<path fill="none" stroke="black" d="M137.53,-656.12C148.51,-656.89 158,-654.19 158,-648 158,-643.84 153.72,-641.26 147.57,-640.24"/>
<polygon fill="black" stroke="black" points="147.649,-636.741 137.53,-639.88 147.398,-643.736 147.649,-636.741"/>
<text text-anchor="middle" x="177.25" y="-642.4" font-family="Times,serif" font-size="14.00">0.0102</text>
</g>
<!-- G2 -->
<g id="node2" class="node"><title>G2</title>
<ellipse fill="none" stroke="black" cx="127" cy="-198" rx="27" ry="18"/>
<text text-anchor="middle" x="127" y="-192.4" font-family="Times,serif" font-size="14.00">G2</text>
</g>
<!-- A2&#45;&#45;G2 -->
<g id="edge2" class="edge"><title>A2&#45;&#45;G2</title>
<path fill="none" stroke="black" d="M99.695,-632.33C86.109,-615.78 67,-587.44 67,-559 67,-559 67,-559 67,-332 67,-290.76 91.266,-248.18 108.93,-222.65"/>
<polygon fill="black" stroke="black" points="111.889,-224.53 114.86,-214.36 106.195,-220.457 111.889,-224.53"/>
<text text-anchor="middle" x="86.25" y="-417.4" font-family="Times,serif" font-size="14.00">0.0136</text>
</g>
<!-- D2 -->
<g id="node4" class="node"><title>D2</title>
<ellipse fill="none" stroke="black" cx="192" cy="-558" rx="27" ry="18"/>
<text text-anchor="middle" x="192" y="-552.4" font-family="Times,serif" font-size="14.00">D2</text>
</g>
<!-- A2&#45;&#45;D2 -->
<g id="edge4" class="edge"><title>A2&#45;&#45;D2</title>
<path fill="none" stroke="black" d="M126.4,-632.07C138.85,-618.21 157.55,-597.38 171.8,-581.5"/>
<polygon fill="black" stroke="black" points="174.719,-583.488 178.8,-573.71 169.513,-578.809 174.719,-583.488"/>
<text text-anchor="middle" x="179.25" y="-597.4" font-family="Times,serif" font-size="14.00">0.0068</text>
</g>
<!-- G2&#45;&#45;G2 -->
<g id="edge20" class="edge"><title>G2&#45;&#45;G2</title>
<path fill="none" stroke="black" d="M151.53,-206.12C162.51,-206.89 172,-204.19 172,-198 172,-193.84 167.72,-191.26 161.57,-190.24"/>
<polygon fill="black" stroke="black" points="161.649,-186.741 151.53,-189.88 161.398,-193.736 161.649,-186.741"/>
<text text-anchor="middle" x="191.25" y="-192.4" font-family="Times,serif" font-size="14.00">0.0237</text>
</g>
<!-- F2 -->
<g id="node9" class="node"><title>F2</title>
<ellipse fill="none" stroke="black" cx="127" cy="-108" rx="27" ry="18"/>
<text text-anchor="middle" x="127" y="-102.4" font-family="Times,serif" font-size="14.00">F2</text>
</g>
<!-- G2&#45;&#45;F2 -->
<g id="edge18" class="edge"><title>G2&#45;&#45;F2</title>
<path fill="none" stroke="black" d="M127,-179.61C127,-167.24 127,-150.37 127,-136.22"/>
<polygon fill="black" stroke="black" points="130.5,-136.05 127,-126.05 123.5,-136.05 130.5,-136.05"/>
<text text-anchor="middle" x="146.25" y="-147.4" font-family="Times,serif" font-size="14.00">0.0068</text>
</g>
<!-- E2 -->
<g id="node13" class="node"><title>E2</title>
<ellipse fill="none" stroke="black" cx="272" cy="-108" rx="27" ry="18"/>
<text text-anchor="middle" x="272" y="-102.4" font-family="Times,serif" font-size="14.00">E2</text>
</g>
<!-- G2&#45;&#45;E2 -->
<g id="edge16" class="edge"><title>G2&#45;&#45;E2</title>
<path fill="none" stroke="black" d="M146.25,-185.31C171.28,-170.13 215.17,-143.49 243.91,-126.05"/>
<polygon fill="black" stroke="black" points="245.94,-128.912 252.67,-120.73 242.306,-122.929 245.94,-128.912"/>
<text text-anchor="middle" x="232.25" y="-147.4" font-family="Times,serif" font-size="14.00">0.0034</text>
</g>
<!-- D2&#45;&#45;G2 -->
<g id="edge12" class="edge"><title>D2&#45;&#45;G2</title>
<path fill="none" stroke="black" d="M182.1,-541.13C172.38,-524 159,-495.6 159,-469 159,-469 159,-469 159,-287 159,-264.85 149.93,-241.35 141.45,-224.21"/>
<polygon fill="black" stroke="black" points="144.327,-222.158 136.6,-214.91 138.121,-225.395 144.327,-222.158"/>
<text text-anchor="middle" x="178.25" y="-372.4" font-family="Times,serif" font-size="14.00">0.0068</text>
</g>
<!-- D2&#45;&#45;D2 -->
<g id="edge14" class="edge"><title>D2&#45;&#45;D2</title>
<path fill="none" stroke="black" d="M216.53,-566.12C227.51,-566.89 237,-564.19 237,-558 237,-553.84 232.72,-551.26 226.57,-550.24"/>
<polygon fill="black" stroke="black" points="226.649,-546.741 216.53,-549.88 226.398,-553.736 226.649,-546.741"/>
<text text-anchor="middle" x="256.25" y="-552.4" font-family="Times,serif" font-size="14.00">0.0508</text>
</g>
<!-- F#3 -->
<g id="node7" class="node"><title>F#3</title>
<ellipse fill="none" stroke="black" cx="364" cy="-468" rx="27" ry="18"/>
<text text-anchor="middle" x="364" y="-462.4" font-family="Times,serif" font-size="14.00">F#3</text>
</g>
<!-- D2&#45;&#45;F#3 -->
<g id="edge8" class="edge"><title>D2&#45;&#45;F#3</title>
<path fill="none" stroke="black" d="M216.81,-550.87C238.04,-545.08 269.05,-535.29 294,-522 310.67,-513.13 327.59,-500.43 340.63,-489.69"/>
<polygon fill="black" stroke="black" points="343.207,-492.095 348.59,-482.97 338.691,-486.746 343.207,-492.095"/>
<text text-anchor="middle" x="339.99" y="-507.4" font-family="Times,serif" font-size="14.00">0.1186</text>
</g>
<!-- D2&#45;&#45;F2 -->
<g id="edge10" class="edge"><title>D2&#45;&#45;F2</title>
<path fill="none" stroke="black" d="M177.39,-542.68C171.94,-536.71 166.1,-529.43 162,-522 94.594,-399.74 99.539,-355.35 91,-216 90.021,-200.03 87.28,-195.56 91,-180 94.904,-163.67 103.21,-146.84 110.86,-133.67"/>
<polygon fill="black" stroke="black" points="114.053,-135.155 116.25,-124.79 108.069,-131.522 114.053,-135.155"/>
<text text-anchor="middle" x="119.25" y="-327.4" font-family="Times,serif" font-size="14.00">0.0136</text>
</g>
<!-- F#3&#45;&#45;F#3 -->
<g id="edge30" class="edge"><title>F#3&#45;&#45;F#3</title>
<path fill="none" stroke="black" d="M388.53,-476.12C399.51,-476.89 409,-474.19 409,-468 409,-463.84 404.72,-461.26 398.57,-460.24"/>
<polygon fill="black" stroke="black" points="398.649,-456.741 388.53,-459.88 398.398,-463.736 398.649,-456.741"/>
<text text-anchor="middle" x="428.25" y="-462.4" font-family="Times,serif" font-size="14.00">0.1593</text>
</g>
<!-- B&#45;2 -->
<g id="node21" class="node"><title>B&#45;2</title>
<ellipse fill="none" stroke="black" cx="332" cy="-378" rx="27" ry="18"/>
<text text-anchor="middle" x="332" y="-372.4" font-family="Times,serif" font-size="14.00">B&#45;2</text>
</g>
<!-- F#3&#45;&#45;B&#45;2 -->
<g id="edge28" class="edge"><title>F#3&#45;&#45;B&#45;2</title>
<path fill="none" stroke="black" d="M357.98,-450.45C353.36,-437.75 346.9,-419.96 341.57,-405.32"/>
<polygon fill="black" stroke="black" points="344.807,-403.981 338.1,-395.78 338.229,-406.374 344.807,-403.981"/>
<text text-anchor="middle" x="370.25" y="-417.4" font-family="Times,serif" font-size="14.00">0.0034</text>
</g>
<!-- F2&#45;&#45;A2 -->
<g id="edge26" class="edge"><title>F2&#45;&#45;A2</title>
<path fill="none" stroke="black" d="M101.6,-114.49C64.543,-124.17 0,-148.05 0,-197 0,-559 0,-559 0,-559 0,-599.51 45.765,-624.1 79.046,-636.62"/>
<polygon fill="black" stroke="black" points="77.8864,-639.922 88.481,-639.99 80.241,-633.33 77.8864,-639.922"/>
<text text-anchor="middle" x="19.25" y="-372.4" font-family="Times,serif" font-size="14.00">0.0034</text>
</g>
<!-- F2&#45;&#45;F2 -->
<g id="edge24" class="edge"><title>F2&#45;&#45;F2</title>
<path fill="none" stroke="black" d="M151.53,-116.12C162.51,-116.89 172,-114.19 172,-108 172,-103.84 167.72,-101.26 161.57,-100.24"/>
<polygon fill="black" stroke="black" points="161.649,-96.7407 151.53,-99.879 161.398,-103.736 161.649,-96.7407"/>
<text text-anchor="middle" x="191.25" y="-102.4" font-family="Times,serif" font-size="14.00">0.0102</text>
</g>
<!-- G#2 -->
<g id="node17" class="node"><title>G#2</title>
<ellipse fill="none" stroke="black" cx="388" cy="-18" rx="27.8358" ry="18"/>
<text text-anchor="middle" x="388" y="-12.4" font-family="Times,serif" font-size="14.00">G#2</text>
</g>
<!-- F2&#45;&#45;G#2 -->
<g id="edge22" class="edge"><title>F2&#45;&#45;G#2</title>
<path fill="none" stroke="black" d="M150.62,-99.035C197.19,-83.335 300.95,-48.351 354.54,-30.283"/>
<polygon fill="black" stroke="black" points="355.884,-33.5235 364.24,-27.01 353.646,-26.8909 355.884,-33.5235"/>
<text text-anchor="middle" x="300.25" y="-57.4" font-family="Times,serif" font-size="14.00">0.0068</text>
</g>
<!-- E2&#45;&#45;E2 -->
<g id="edge32" class="edge"><title>E2&#45;&#45;E2</title>
<path fill="none" stroke="black" d="M296.53,-116.12C307.51,-116.89 317,-114.19 317,-108 317,-103.84 312.72,-101.26 306.57,-100.24"/>
<polygon fill="black" stroke="black" points="306.649,-96.7407 296.53,-99.879 306.398,-103.736 306.649,-96.7407"/>
<text text-anchor="middle" x="336.25" y="-102.4" font-family="Times,serif" font-size="14.00">0.0034</text>
</g>
<!-- G#2&#45;&#45;G#2 -->
<g id="edge58" class="edge"><title>G#2&#45;&#45;G#2</title>
<path fill="none" stroke="black" d="M412.53,-26.121C423.51,-26.895 433,-24.188 433,-18 433,-13.843 428.72,-11.257 422.57,-10.242"/>
<polygon fill="black" stroke="black" points="422.65,-6.7427 412.53,-9.8789 422.397,-13.7381 422.65,-6.7427"/>
<text text-anchor="middle" x="452.25" y="-12.4" font-family="Times,serif" font-size="14.00">0.0441</text>
</g>
<!-- B&#45;2&#45;&#45;D2 -->
<g id="edge40" class="edge"><title>B&#45;2&#45;&#45;D2</title>
<path fill="none" stroke="black" d="M322.17,-394.99C300.58,-430.02 250.13,-511.26 240,-522 234.13,-528.22 227.02,-534.09 220.1,-539.18"/>
<polygon fill="black" stroke="black" points="217.721,-536.572 211.53,-545.17 221.731,-542.31 217.721,-536.572"/>
<text text-anchor="middle" x="306.25" y="-462.4" font-family="Times,serif" font-size="14.00">0.0034</text>
</g>
<!-- B&#45;2&#45;&#45;G#2 -->
<g id="edge34" class="edge"><title>B&#45;2&#45;&#45;G#2</title>
<path fill="none" stroke="black" d="M354.24,-367.54C398.53,-347.32 496.74,-295.18 535,-216 570.73,-142.06 469.67,-67.959 417.29,-35.725"/>
<polygon fill="black" stroke="black" points="418.792,-32.5435 408.42,-30.38 415.179,-38.5391 418.792,-32.5435"/>
<text text-anchor="middle" x="561.25" y="-192.4" font-family="Times,serif" font-size="14.00">0.0034</text>
</g>
<!-- B&#45;2&#45;&#45;B&#45;2 -->
<g id="edge38" class="edge"><title>B&#45;2&#45;&#45;B&#45;2</title>
<path fill="none" stroke="black" d="M356.53,-386.12C367.51,-386.89 377,-384.19 377,-378 377,-373.84 372.72,-371.26 366.57,-370.24"/>
<polygon fill="black" stroke="black" points="366.649,-366.741 356.53,-369.88 366.398,-373.736 366.649,-366.741"/>
<text text-anchor="middle" x="396.25" y="-372.4" font-family="Times,serif" font-size="14.00">0.0034</text>
</g>
<!-- C2 -->
<g id="node26" class="node"><title>C2</title>
<ellipse fill="none" stroke="black" cx="323" cy="-288" rx="27" ry="18"/>
<text text-anchor="middle" x="323" y="-282.4" font-family="Times,serif" font-size="14.00">C2</text>
</g>
<!-- B&#45;2&#45;&#45;C2 -->
<g id="edge36" class="edge"><title>B&#45;2&#45;&#45;C2</title>
<path fill="none" stroke="black" d="M330.26,-360.03C329,-347.69 327.27,-330.73 325.81,-316.47"/>
<polygon fill="black" stroke="black" points="329.261,-315.811 324.76,-306.22 322.297,-316.525 329.261,-315.811"/>
<text text-anchor="middle" x="348.25" y="-327.4" font-family="Times,serif" font-size="14.00">0.0034</text>
</g>
<!-- C2&#45;&#45;A2 -->
<g id="edge56" class="edge"><title>C2&#45;&#45;A2</title>
<path fill="none" stroke="black" d="M349.78,-291.57C395.33,-297.57 483,-316.92 483,-377 483,-559 483,-559 483,-559 483,-626.95 243.84,-642.52 150.08,-646.01"/>
<polygon fill="black" stroke="black" points="149.78,-642.518 139.91,-646.37 150.028,-649.514 149.78,-642.518"/>
<text text-anchor="middle" x="502.25" y="-462.4" font-family="Times,serif" font-size="14.00">0.0034</text>
</g>
<!-- C2&#45;&#45;G2 -->
<g id="edge52" class="edge"><title>C2&#45;&#45;G2</title>
<path fill="none" stroke="black" d="M296.81,-283.16C269.82,-278.47 227.06,-268.98 193.5,-252 191.07,-250.77 169.39,-233.38 151.43,-218.85"/>
<polygon fill="black" stroke="black" points="153.496,-216.019 143.52,-212.45 149.093,-221.461 153.496,-216.019"/>
<text text-anchor="middle" x="213.25" y="-237.4" font-family="Times,serif" font-size="14.00">0.0068</text>
</g>
<!-- C2&#45;&#45;D2 -->
<g id="edge54" class="edge"><title>C2&#45;&#45;D2</title>
<path fill="none" stroke="black" d="M314.24,-305.04C301.42,-328.69 276.92,-374.41 257.5,-414 237.6,-454.57 216.05,-502.45 203.31,-531.23"/>
<polygon fill="black" stroke="black" points="200.024,-530.008 199.19,-540.57 206.428,-532.833 200.024,-530.008"/>
<text text-anchor="middle" x="277.25" y="-417.4" font-family="Times,serif" font-size="14.00">0.0644</text>
</g>
<!-- C2&#45;&#45;F2 -->
<g id="edge50" class="edge"><title>C2&#45;&#45;F2</title>
<path fill="none" stroke="black" d="M307.95,-272.91C293.05,-258.81 269.74,-236.35 250.5,-216 235.89,-200.55 234.49,-194.56 219,-180 198.22,-160.46 172.34,-140.86 153.33,-127.21"/>
<polygon fill="black" stroke="black" points="155.3,-124.316 145.12,-121.38 151.247,-130.024 155.3,-124.316"/>
<text text-anchor="middle" x="270.25" y="-192.4" font-family="Times,serif" font-size="14.00">0.0068</text>
</g>
<!-- C2&#45;&#45;E2 -->
<g id="edge48" class="edge"><title>C2&#45;&#45;E2</title>
<path fill="none" stroke="black" d="M318.2,-270.25C309.32,-239.24 290.24,-172.66 279.59,-135.48"/>
<polygon fill="black" stroke="black" points="282.943,-134.476 276.82,-125.83 276.215,-136.408 282.943,-134.476"/>
<text text-anchor="middle" x="322.25" y="-192.4" font-family="Times,serif" font-size="14.00">0.0102</text>
</g>
<!-- C2&#45;&#45;G#2 -->
<g id="edge42" class="edge"><title>C2&#45;&#45;G#2</title>
<path fill="none" stroke="black" d="M328.65,-270.19C333.36,-255.88 340.07,-234.72 345,-216 360.83,-155.92 375.38,-84.459 382.81,-46.274"/>
<polygon fill="black" stroke="black" points="386.338,-46.4646 384.8,-35.982 379.465,-45.1357 386.338,-46.4646"/>
<text text-anchor="middle" x="382.25" y="-147.4" font-family="Times,serif" font-size="14.00">0.0068</text>
</g>
<!-- C2&#45;&#45;C2 -->
<g id="edge46" class="edge"><title>C2&#45;&#45;C2</title>
<path fill="none" stroke="black" d="M347.53,-296.12C358.51,-296.89 368,-294.19 368,-288 368,-283.84 363.72,-281.26 357.57,-280.24"/>
<polygon fill="black" stroke="black" points="357.649,-276.741 347.53,-279.88 357.398,-283.736 357.649,-276.741"/>
<text text-anchor="middle" x="387.25" y="-282.4" font-family="Times,serif" font-size="14.00">0.0508</text>
</g>
<!-- F#2 -->
<g id="node31" class="node"><title>F#2</title>
<ellipse fill="none" stroke="black" cx="443" cy="-198" rx="27" ry="18"/>
<text text-anchor="middle" x="443" y="-192.4" font-family="Times,serif" font-size="14.00">F#2</text>
</g>
<!-- C2&#45;&#45;F#2 -->
<g id="edge44" class="edge"><title>C2&#45;&#45;F#2</title>
<path fill="none" stroke="black" d="M347.14,-279.81C363.71,-274.08 385.59,-264.86 402,-252 411.95,-244.2 420.85,-233.46 427.79,-223.7"/>
<polygon fill="black" stroke="black" points="430.893,-225.358 433.58,-215.11 425.088,-221.446 430.893,-225.358"/>
<text text-anchor="middle" x="438.25" y="-237.4" font-family="Times,serif" font-size="14.00">0.0034</text>
</g>
<!-- F#2&#45;&#45;F#3 -->
<g id="edge62" class="edge"><title>F#2&#45;&#45;F#3</title>
<path fill="none" stroke="black" d="M453.12,-214.75C456.29,-220.57 459.39,-227.36 461,-234 462.88,-241.78 462,-244.06 461,-252 452.71,-317.56 454.31,-337.28 424,-396 414.41,-414.58 399.16,-432.54 386.43,-445.75"/>
<polygon fill="black" stroke="black" points="383.846,-443.385 379.29,-452.95 388.817,-448.314 383.846,-443.385"/>
<text text-anchor="middle" x="470.25" y="-327.4" font-family="Times,serif" font-size="14.00">0.0034</text>
</g>
<!-- F#2&#45;&#45;F#2 -->
<g id="edge60" class="edge"><title>F#2&#45;&#45;F#2</title>
<path fill="none" stroke="black" d="M467.53,-206.12C478.51,-206.89 488,-204.19 488,-198 488,-193.84 483.72,-191.26 477.57,-190.24"/>
<polygon fill="black" stroke="black" points="477.649,-186.741 467.53,-189.88 477.398,-193.736 477.649,-186.741"/>
<text text-anchor="middle" x="507.25" y="-192.4" font-family="Times,serif" font-size="14.00">0.0441</text>
</g>
<!-- B2 -->
<g id="node42" class="node"><title>B2</title>
<ellipse fill="none" stroke="black" cx="113" cy="-738" rx="27" ry="18"/>
<text text-anchor="middle" x="113" y="-732.4" font-family="Times,serif" font-size="14.00">B2</text>
</g>
<!-- B2&#45;&#45;A2 -->
<g id="edge64" class="edge"><title>B2&#45;&#45;A2</title>
<path fill="none" stroke="black" d="M113,-719.61C113,-707.24 113,-690.37 113,-676.22"/>
<polygon fill="black" stroke="black" points="116.5,-676.05 113,-666.05 109.5,-676.05 116.5,-676.05"/>
<text text-anchor="middle" x="132.25" y="-687.4" font-family="Times,serif" font-size="14.00">0.0034</text>
</g>
</g>
</svg>
