<?xml version="1.0" encoding="UTF-8" standalone="no"?>
<!DOCTYPE svg PUBLIC "-//W3C//DTD SVG 1.1//EN"
 "http://www.w3.org/Graphics/SVG/1.1/DTD/svg11.dtd">
<!-- Generated by graphviz version 2.28.0 (20121019.2215)
 -->
<!-- Title: _anonymous_0 Pages: 1 -->
<svg width="1038pt" height="584pt"
 viewBox="0.00 0.00 1038.45 584.00" xmlns="http://www.w3.org/2000/svg" xmlns:xlink="http://www.w3.org/1999/xlink">
<g id="graph1" class="graph" transform="scale(1 1) rotate(0) translate(4 580)">
<title>_anonymous_0</title>
<polygon fill="white" stroke="white" points="-4,5 -4,-580 1035.45,-580 1035.45,5 -4,5"/>
<!-- A1 -->
<g id="node1" class="node"><title>A1</title>
<ellipse fill="none" stroke="black" cx="654" cy="-558" rx="27" ry="18"/>
<text text-anchor="middle" x="654" y="-552.4" font-family="Times,serif" font-size="14.00">A1</text>
</g>
<!-- A1&#45;&#45;A1 -->
<g id="edge8" class="edge"><title>A1&#45;&#45;A1</title>
<path fill="none" stroke="black" d="M678.53,-566.12C689.51,-566.89 699,-564.19 699,-558 699,-553.84 694.72,-551.26 688.57,-550.24"/>
<polygon fill="black" stroke="black" points="688.649,-546.741 678.53,-549.88 688.398,-553.736 688.649,-546.741"/>
<text text-anchor="middle" x="718.25" y="-552.4" font-family="Times,serif" font-size="14.00">0.0233</text>
</g>
<!-- E1 -->
<g id="node2" class="node"><title>E1</title>
<ellipse fill="none" stroke="black" cx="731" cy="-468" rx="27" ry="18"/>
<text text-anchor="middle" x="731" y="-462.4" font-family="Times,serif" font-size="14.00">E1</text>
</g>
<!-- A1&#45;&#45;E1 -->
<g id="edge2" class="edge"><title>A1&#45;&#45;E1</title>
<path fill="none" stroke="black" d="M667.06,-542.07C679.12,-528.29 697.2,-507.63 711.06,-491.78"/>
<polygon fill="black" stroke="black" points="713.917,-493.83 717.87,-484 708.65,-489.219 713.917,-493.83"/>
<text text-anchor="middle" x="719.25" y="-507.4" font-family="Times,serif" font-size="14.00">0.0100</text>
</g>
<!-- E2 -->
<g id="node4" class="node"><title>E2</title>
<ellipse fill="none" stroke="black" cx="363" cy="-378" rx="27" ry="18"/>
<text text-anchor="middle" x="363" y="-372.4" font-family="Times,serif" font-size="14.00">E2</text>
</g>
<!-- A1&#45;&#45;E2 -->
<g id="edge4" class="edge"><title>A1&#45;&#45;E2</title>
<path fill="none" stroke="black" d="M627.76,-552.86C572.64,-542.74 444.33,-511.52 377,-432 370.83,-424.72 367.35,-415.01 365.39,-405.89"/>
<polygon fill="black" stroke="black" points="368.842,-405.312 363.77,-396.01 361.934,-406.445 368.842,-405.312"/>
<text text-anchor="middle" x="459.25" y="-462.4" font-family="Times,serif" font-size="14.00">0.0033</text>
</g>
<!-- B1 -->
<g id="node6" class="node"><title>B1</title>
<ellipse fill="none" stroke="black" cx="596" cy="-468" rx="27" ry="18"/>
<text text-anchor="middle" x="596" y="-462.4" font-family="Times,serif" font-size="14.00">B1</text>
</g>
<!-- A1&#45;&#45;B1 -->
<g id="edge6" class="edge"><title>A1&#45;&#45;B1</title>
<path fill="none" stroke="black" d="M643.63,-541.27C634.86,-527.96 622.15,-508.67 612.06,-493.37"/>
<polygon fill="black" stroke="black" points="614.901,-491.32 606.48,-484.89 609.053,-495.168 614.901,-491.32"/>
<text text-anchor="middle" x="650.25" y="-507.4" font-family="Times,serif" font-size="14.00">0.0067</text>
</g>
<!-- E1&#45;&#45;E1 -->
<g id="edge32" class="edge"><title>E1&#45;&#45;E1</title>
<path fill="none" stroke="black" d="M755.53,-476.12C766.51,-476.89 776,-474.19 776,-468 776,-463.84 771.72,-461.26 765.57,-460.24"/>
<polygon fill="black" stroke="black" points="765.649,-456.741 755.53,-459.88 765.398,-463.736 765.649,-456.741"/>
<text text-anchor="middle" x="795.25" y="-462.4" font-family="Times,serif" font-size="14.00">0.2233</text>
</g>
<!-- E1&#45;&#45;E2 -->
<g id="edge36" class="edge"><title>E1&#45;&#45;E2</title>
<path fill="none" stroke="black" d="M708.98,-457.29C702.34,-454.63 694.96,-451.95 688,-450 642.62,-437.27 629.66,-441.51 583.5,-432 517.28,-418.35 440.68,-399.17 397.42,-388.01"/>
<polygon fill="black" stroke="black" points="398.238,-384.606 387.68,-385.49 396.485,-391.383 398.238,-384.606"/>
<text text-anchor="middle" x="603.25" y="-417.4" font-family="Times,serif" font-size="14.00">0.0033</text>
</g>
<!-- D2 -->
<g id="node13" class="node"><title>D2</title>
<ellipse fill="none" stroke="black" cx="303" cy="-108" rx="27" ry="18"/>
<text text-anchor="middle" x="303" y="-102.4" font-family="Times,serif" font-size="14.00">D2</text>
</g>
<!-- E1&#45;&#45;D2 -->
<g id="edge34" class="edge"><title>E1&#45;&#45;D2</title>
<path fill="none" stroke="black" d="M733.95,-449.98C739.28,-414.28 747.24,-329.92 716,-270 643.72,-131.34 549.39,-150.78 395,-126 376.41,-123.02 355.79,-119.25 338.79,-116.02"/>
<polygon fill="black" stroke="black" points="339.2,-112.535 328.72,-114.09 337.882,-119.41 339.2,-112.535"/>
<text text-anchor="middle" x="749.25" y="-282.4" font-family="Times,serif" font-size="14.00">0.0033</text>
</g>
<!-- F#1 -->
<g id="node24" class="node"><title>F#1</title>
<ellipse fill="none" stroke="black" cx="914" cy="-378" rx="27" ry="18"/>
<text text-anchor="middle" x="914" y="-372.4" font-family="Times,serif" font-size="14.00">F#1</text>
</g>
<!-- E1&#45;&#45;F#1 -->
<g id="edge28" class="edge"><title>E1&#45;&#45;F#1</title>
<path fill="none" stroke="black" d="M752.71,-457C767.72,-450.06 788.11,-440.56 806,-432 832.42,-419.35 862.31,-404.66 883.93,-393.95"/>
<polygon fill="black" stroke="black" points="885.544,-397.056 892.95,-389.48 882.436,-390.784 885.544,-397.056"/>
<text text-anchor="middle" x="861.25" y="-417.4" font-family="Times,serif" font-size="14.00">0.0033</text>
</g>
<!-- F1 -->
<g id="node26" class="node"><title>F1</title>
<ellipse fill="none" stroke="black" cx="786" cy="-378" rx="27" ry="18"/>
<text text-anchor="middle" x="786" y="-372.4" font-family="Times,serif" font-size="14.00">F1</text>
</g>
<!-- E1&#45;&#45;F1 -->
<g id="edge30" class="edge"><title>E1&#45;&#45;F1</title>
<path fill="none" stroke="black" d="M741.09,-450.86C749.31,-437.71 761.05,-418.92 770.47,-403.86"/>
<polygon fill="black" stroke="black" points="773.65,-405.375 775.98,-395.04 767.713,-401.667 773.65,-405.375"/>
<text text-anchor="middle" x="783.25" y="-417.4" font-family="Times,serif" font-size="14.00">0.0067</text>
</g>
<!-- E2&#45;&#45;E2 -->
<g id="edge26" class="edge"><title>E2&#45;&#45;E2</title>
<path fill="none" stroke="black" d="M387.53,-386.12C398.51,-386.89 408,-384.19 408,-378 408,-373.84 403.72,-371.26 397.57,-370.24"/>
<polygon fill="black" stroke="black" points="397.649,-366.741 387.53,-369.88 397.398,-373.736 397.649,-366.741"/>
<text text-anchor="middle" x="427.25" y="-372.4" font-family="Times,serif" font-size="14.00">0.0967</text>
</g>
<!-- F#2 -->
<g id="node17" class="node"><title>F#2</title>
<ellipse fill="none" stroke="black" cx="166" cy="-18" rx="27" ry="18"/>
<text text-anchor="middle" x="166" y="-12.4" font-family="Times,serif" font-size="14.00">F#2</text>
</g>
<!-- E2&#45;&#45;F#2 -->
<g id="edge20" class="edge"><title>E2&#45;&#45;F#2</title>
<path fill="none" stroke="black" d="M343.04,-365.25C333.57,-359.08 322.49,-350.95 314,-342 300.93,-328.23 300.48,-322.45 291,-306 268.52,-266.99 263.19,-256.96 244.5,-216 217.12,-155.99 189.62,-83.491 175.57,-45.374"/>
<polygon fill="black" stroke="black" points="178.706,-43.7591 171.98,-35.573 172.133,-46.1667 178.706,-43.7591"/>
<text text-anchor="middle" x="264.25" y="-192.4" font-family="Times,serif" font-size="14.00">0.0067</text>
</g>
<!-- F2 -->
<g id="node19" class="node"><title>F2</title>
<ellipse fill="none" stroke="black" cx="401" cy="-288" rx="27" ry="18"/>
<text text-anchor="middle" x="401" y="-282.4" font-family="Times,serif" font-size="14.00">F2</text>
</g>
<!-- E2&#45;&#45;F2 -->
<g id="edge22" class="edge"><title>E2&#45;&#45;F2</title>
<path fill="none" stroke="black" d="M370.15,-360.45C375.67,-347.66 383.41,-329.74 389.76,-315.04"/>
<polygon fill="black" stroke="black" points="393.136,-316.049 393.88,-305.48 386.708,-313.278 393.136,-316.049"/>
<text text-anchor="middle" x="405.25" y="-327.4" font-family="Times,serif" font-size="14.00">0.0033</text>
</g>
<!-- G2 -->
<g id="node21" class="node"><title>G2</title>
<ellipse fill="none" stroke="black" cx="500" cy="-18" rx="27" ry="18"/>
<text text-anchor="middle" x="500" y="-12.4" font-family="Times,serif" font-size="14.00">G2</text>
</g>
<!-- E2&#45;&#45;G2 -->
<g id="edge24" class="edge"><title>E2&#45;&#45;G2</title>
<path fill="none" stroke="black" d="M390.17,-376.08C437.44,-373.85 531.73,-366.37 552,-342 556.59,-336.48 573.2,-359.54 523,-90 519.98,-73.786 519.07,-69.692 514,-54 513.04,-51.044 511.96,-47.981 510.83,-44.952"/>
<polygon fill="black" stroke="black" points="514.061,-43.6048 507.16,-35.566 507.542,-46.154 514.061,-43.6048"/>
<text text-anchor="middle" x="564.25" y="-192.4" font-family="Times,serif" font-size="14.00">0.0133</text>
</g>
<!-- B1&#45;&#45;E2 -->
<g id="edge16" class="edge"><title>B1&#45;&#45;E2</title>
<path fill="none" stroke="black" d="M569.13,-464.91C521.65,-460.79 425.3,-450.38 397.5,-432 387.4,-425.32 379.6,-414.57 374,-404.49"/>
<polygon fill="black" stroke="black" points="377.109,-402.881 369.46,-395.55 370.867,-406.051 377.109,-402.881"/>
<text text-anchor="middle" x="417.25" y="-417.4" font-family="Times,serif" font-size="14.00">0.0100</text>
</g>
<!-- B1&#45;&#45;B1 -->
<g id="edge18" class="edge"><title>B1&#45;&#45;B1</title>
<path fill="none" stroke="black" d="M620.53,-476.12C631.51,-476.89 641,-474.19 641,-468 641,-463.84 636.72,-461.26 630.57,-460.24"/>
<polygon fill="black" stroke="black" points="630.649,-456.741 620.53,-459.88 630.398,-463.736 630.649,-456.741"/>
<text text-anchor="middle" x="660.25" y="-462.4" font-family="Times,serif" font-size="14.00">0.0300</text>
</g>
<!-- C2 -->
<g id="node9" class="node"><title>C2</title>
<ellipse fill="none" stroke="black" cx="361" cy="-198" rx="27" ry="18"/>
<text text-anchor="middle" x="361" y="-192.4" font-family="Times,serif" font-size="14.00">C2</text>
</g>
<!-- B1&#45;&#45;C2 -->
<g id="edge10" class="edge"><title>B1&#45;&#45;C2</title>
<path fill="none" stroke="black" d="M588.8,-450.33C570.34,-408.1 520.79,-298.29 493,-270 465.1,-241.61 423.42,-221.8 394.38,-210.45"/>
<polygon fill="black" stroke="black" points="395.272,-207.046 384.68,-206.79 392.801,-213.595 395.272,-207.046"/>
<text text-anchor="middle" x="556.25" y="-327.4" font-family="Times,serif" font-size="14.00">0.0200</text>
</g>
<!-- E&#45;2 -->
<g id="node11" class="node"><title>E&#45;2</title>
<ellipse fill="none" stroke="black" cx="667" cy="-378" rx="27" ry="18"/>
<text text-anchor="middle" x="667" y="-372.4" font-family="Times,serif" font-size="14.00">E&#45;2</text>
</g>
<!-- B1&#45;&#45;E&#45;2 -->
<g id="edge12" class="edge"><title>B1&#45;&#45;E&#45;2</title>
<path fill="none" stroke="black" d="M608.37,-451.67C619.36,-438.04 635.6,-417.92 648.2,-402.3"/>
<polygon fill="black" stroke="black" points="651.219,-404.132 654.77,-394.15 645.769,-399.739 651.219,-404.132"/>
<text text-anchor="middle" x="657.25" y="-417.4" font-family="Times,serif" font-size="14.00">0.0033</text>
</g>
<!-- B1&#45;&#45;D2 -->
<g id="edge14" class="edge"><title>B1&#45;&#45;D2</title>
<path fill="none" stroke="black" d="M596.65,-449.7C598.69,-390.87 603.9,-200.96 587,-180 571.3,-160.53 411.87,-129.03 339,-115.51"/>
<polygon fill="black" stroke="black" points="339.369,-112.019 328.9,-113.65 338.101,-118.903 339.369,-112.019"/>
<text text-anchor="middle" x="618.25" y="-282.4" font-family="Times,serif" font-size="14.00">0.0100</text>
</g>
<!-- C2&#45;&#45;E2 -->
<g id="edge50" class="edge"><title>C2&#45;&#45;E2</title>
<path fill="none" stroke="black" d="M350.69,-214.86C342.31,-228.75 331.14,-249.83 326.5,-270 322.91,-285.59 322.74,-290.45 326.5,-306 330.46,-322.37 338.88,-339.19 346.64,-352.35"/>
<polygon fill="black" stroke="black" points="343.881,-354.545 352.1,-361.23 349.844,-350.878 343.881,-354.545"/>
<text text-anchor="middle" x="346.25" y="-282.4" font-family="Times,serif" font-size="14.00">0.0100</text>
</g>
<!-- C2&#45;&#45;C2 -->
<g id="edge46" class="edge"><title>C2&#45;&#45;C2</title>
<path fill="none" stroke="black" d="M385.53,-206.12C396.51,-206.89 406,-204.19 406,-198 406,-193.84 401.72,-191.26 395.57,-190.24"/>
<polygon fill="black" stroke="black" points="395.649,-186.741 385.53,-189.88 395.398,-193.736 395.649,-186.741"/>
<text text-anchor="middle" x="424.99" y="-192.4" font-family="Times,serif" font-size="14.00">0.1100</text>
</g>
<!-- C2&#45;&#45;D2 -->
<g id="edge48" class="edge"><title>C2&#45;&#45;D2</title>
<path fill="none" stroke="black" d="M350.63,-181.27C341.86,-167.96 329.15,-148.67 319.06,-133.37"/>
<polygon fill="black" stroke="black" points="321.901,-131.32 313.48,-124.89 316.053,-135.168 321.901,-131.32"/>
<text text-anchor="middle" x="357.25" y="-147.4" font-family="Times,serif" font-size="14.00">0.0133</text>
</g>
<!-- C#2 -->
<g id="node38" class="node"><title>C#2</title>
<ellipse fill="none" stroke="black" cx="680" cy="-288" rx="27.2698" ry="18"/>
<text text-anchor="middle" x="680" y="-282.4" font-family="Times,serif" font-size="14.00">C#2</text>
</g>
<!-- E&#45;2&#45;&#45;C#2 -->
<g id="edge52" class="edge"><title>E&#45;2&#45;&#45;C#2</title>
<path fill="none" stroke="black" d="M669.51,-360.03C671.33,-347.69 673.84,-330.73 675.94,-316.47"/>
<polygon fill="black" stroke="black" points="679.455,-316.625 677.46,-306.22 672.531,-315.598 679.455,-316.625"/>
<text text-anchor="middle" x="694.25" y="-327.4" font-family="Times,serif" font-size="14.00">0.0233</text>
</g>
<!-- D2&#45;&#45;E2 -->
<g id="edge44" class="edge"><title>D2&#45;&#45;E2</title>
<path fill="none" stroke="black" d="M298.41,-125.91C291.78,-152.86 281.3,-207.08 290.5,-252 299.23,-294.62 304.88,-305.79 329,-342 332.17,-346.76 336.03,-351.44 340,-355.76"/>
<polygon fill="black" stroke="black" points="337.642,-358.355 347.13,-363.07 342.653,-353.467 337.642,-358.355"/>
<text text-anchor="middle" x="310.25" y="-237.4" font-family="Times,serif" font-size="14.00">0.0333</text>
</g>
<!-- D2&#45;&#45;D2 -->
<g id="edge42" class="edge"><title>D2&#45;&#45;D2</title>
<path fill="none" stroke="black" d="M327.53,-116.12C338.51,-116.89 348,-114.19 348,-108 348,-103.84 343.72,-101.26 337.57,-100.24"/>
<polygon fill="black" stroke="black" points="337.649,-96.7407 327.53,-99.879 337.398,-103.736 337.649,-96.7407"/>
<text text-anchor="middle" x="367.25" y="-102.4" font-family="Times,serif" font-size="14.00">0.0567</text>
</g>
<!-- D2&#45;&#45;F#2 -->
<g id="edge38" class="edge"><title>D2&#45;&#45;F#2</title>
<path fill="none" stroke="black" d="M284.24,-94.948C260.8,-79.893 220.5,-54.009 193.56,-36.701"/>
<polygon fill="black" stroke="black" points="195.285,-33.6492 184.98,-31.188 191.501,-39.5383 195.285,-33.6492"/>
<text text-anchor="middle" x="266.25" y="-57.4" font-family="Times,serif" font-size="14.00">0.0033</text>
</g>
<!-- D2&#45;&#45;G2 -->
<g id="edge40" class="edge"><title>D2&#45;&#45;G2</title>
<path fill="none" stroke="black" d="M324.43,-96.829C347.37,-86.003 384.86,-68.473 417.5,-54 434.07,-46.654 452.64,-38.746 467.96,-32.309"/>
<polygon fill="black" stroke="black" points="469.636,-35.4018 477.51,-28.313 466.934,-28.9443 469.636,-35.4018"/>
<text text-anchor="middle" x="437.25" y="-57.4" font-family="Times,serif" font-size="14.00">0.0067</text>
</g>
<!-- F#2&#45;&#45;F#2 -->
<g id="edge60" class="edge"><title>F#2&#45;&#45;F#2</title>
<path fill="none" stroke="black" d="M190.53,-26.121C201.51,-26.895 211,-24.188 211,-18 211,-13.843 206.72,-11.257 200.57,-10.242"/>
<polygon fill="black" stroke="black" points="200.65,-6.7427 190.53,-9.8789 200.397,-13.7381 200.65,-6.7427"/>
<text text-anchor="middle" x="230.25" y="-12.4" font-family="Times,serif" font-size="14.00">0.0167</text>
</g>
<!-- F2&#45;&#45;C2 -->
<g id="edge64" class="edge"><title>F2&#45;&#45;C2</title>
<path fill="none" stroke="black" d="M393.48,-270.45C387.61,-257.54 379.36,-239.39 372.64,-224.61"/>
<polygon fill="black" stroke="black" points="375.814,-223.135 368.49,-215.48 369.442,-226.032 375.814,-223.135"/>
<text text-anchor="middle" x="404.25" y="-237.4" font-family="Times,serif" font-size="14.00">0.0033</text>
</g>
<!-- F2&#45;&#45;F2 -->
<g id="edge66" class="edge"><title>F2&#45;&#45;F2</title>
<path fill="none" stroke="black" d="M425.53,-296.12C436.51,-296.89 446,-294.19 446,-288 446,-283.84 441.72,-281.26 435.57,-280.24"/>
<polygon fill="black" stroke="black" points="435.649,-276.741 425.53,-279.88 435.398,-283.736 435.649,-276.741"/>
<text text-anchor="middle" x="465.25" y="-282.4" font-family="Times,serif" font-size="14.00">0.0033</text>
</g>
<!-- G2&#45;&#45;G2 -->
<g id="edge62" class="edge"><title>G2&#45;&#45;G2</title>
<path fill="none" stroke="black" d="M524.53,-26.121C535.51,-26.895 545,-24.188 545,-18 545,-13.843 540.72,-11.257 534.57,-10.242"/>
<polygon fill="black" stroke="black" points="534.65,-6.7427 524.53,-9.8789 534.397,-13.7381 534.65,-6.7427"/>
<text text-anchor="middle" x="564.25" y="-12.4" font-family="Times,serif" font-size="14.00">0.0167</text>
</g>
<!-- F#1&#45;&#45;F#1 -->
<g id="edge56" class="edge"><title>F#1&#45;&#45;F#1</title>
<path fill="none" stroke="black" d="M938.53,-386.12C949.51,-386.89 959,-384.19 959,-378 959,-373.84 954.72,-371.26 948.57,-370.24"/>
<polygon fill="black" stroke="black" points="948.649,-366.741 938.53,-369.88 948.398,-373.736 948.649,-366.741"/>
<text text-anchor="middle" x="978.25" y="-372.4" font-family="Times,serif" font-size="14.00">0.0233</text>
</g>
<!-- G1 -->
<g id="node40" class="node"><title>G1</title>
<ellipse fill="none" stroke="black" cx="914" cy="-288" rx="27" ry="18"/>
<text text-anchor="middle" x="914" y="-282.4" font-family="Times,serif" font-size="14.00">G1</text>
</g>
<!-- F#1&#45;&#45;G1 -->
<g id="edge54" class="edge"><title>F#1&#45;&#45;G1</title>
<path fill="none" stroke="black" d="M914,-359.61C914,-347.24 914,-330.37 914,-316.22"/>
<polygon fill="black" stroke="black" points="917.5,-316.05 914,-306.05 910.5,-316.05 917.5,-316.05"/>
<text text-anchor="middle" x="933.25" y="-327.4" font-family="Times,serif" font-size="14.00">0.0067</text>
</g>
<!-- F1&#45;&#45;F1 -->
<g id="edge58" class="edge"><title>F1&#45;&#45;F1</title>
<path fill="none" stroke="black" d="M810.53,-386.12C821.51,-386.89 831,-384.19 831,-378 831,-373.84 826.72,-371.26 820.57,-370.24"/>
<polygon fill="black" stroke="black" points="820.649,-366.741 810.53,-369.88 820.398,-373.736 820.649,-366.741"/>
<text text-anchor="middle" x="850.25" y="-372.4" font-family="Times,serif" font-size="14.00">0.0067</text>
</g>
<!-- G1&#45;&#45;A1 -->
<g id="edge88" class="edge"><title>G1&#45;&#45;A1</title>
<path fill="none" stroke="black" d="M935.18,-299.36C969.32,-317.52 1030.3,-356.9 1006,-396 936.12,-508.24 765.74,-543.05 690.61,-553.16"/>
<polygon fill="black" stroke="black" points="690.141,-549.691 680.66,-554.42 691.021,-556.636 690.141,-549.691"/>
<text text-anchor="middle" x="1011.2" y="-417.4" font-family="Times,serif" font-size="14.00">0.0033</text>
</g>
<!-- G1&#45;&#45;G2 -->
<g id="edge86" class="edge"><title>G1&#45;&#45;G2</title>
<path fill="none" stroke="black" d="M900.46,-272.1C874.61,-244.3 815.59,-183.72 757,-144 681.92,-93.105 583.01,-51.155 532.6,-31.329"/>
<polygon fill="black" stroke="black" points="533.769,-28.0281 523.18,-27.662 531.229,-34.5513 533.769,-28.0281"/>
<text text-anchor="middle" x="800.25" y="-147.4" font-family="Times,serif" font-size="14.00">0.0033</text>
</g>
<!-- G1&#45;&#45;G1 -->
<g id="edge84" class="edge"><title>G1&#45;&#45;G1</title>
<path fill="none" stroke="black" d="M938.53,-296.12C949.51,-296.89 959,-294.19 959,-288 959,-283.84 954.72,-281.26 948.57,-280.24"/>
<polygon fill="black" stroke="black" points="948.649,-276.741 938.53,-279.88 948.398,-283.736 948.649,-276.741"/>
<text text-anchor="middle" x="978.25" y="-282.4" font-family="Times,serif" font-size="14.00">0.0233</text>
</g>
<!-- A2 -->
<g id="node48" class="node"><title>A2</title>
<ellipse fill="none" stroke="black" cx="125" cy="-468" rx="27" ry="18"/>
<text text-anchor="middle" x="125" y="-462.4" font-family="Times,serif" font-size="14.00">A2</text>
</g>
<!-- A2&#45;&#45;E2 -->
<g id="edge76" class="edge"><title>A2&#45;&#45;E2</title>
<path fill="none" stroke="black" d="M148.25,-458.4C190.93,-442.62 281.84,-409.01 330.56,-390.99"/>
<polygon fill="black" stroke="black" points="331.834,-394.251 340,-387.5 329.407,-387.685 331.834,-394.251"/>
<text text-anchor="middle" x="285.25" y="-417.4" font-family="Times,serif" font-size="14.00">0.0067</text>
</g>
<!-- A2&#45;&#45;D2 -->
<g id="edge74" class="edge"><title>A2&#45;&#45;D2</title>
<path fill="none" stroke="black" d="M133.11,-450.69C161.37,-393.84 255.68,-204.18 290.2,-134.75"/>
<polygon fill="black" stroke="black" points="293.525,-135.923 294.84,-125.41 287.256,-132.809 293.525,-135.923"/>
<text text-anchor="middle" x="241.25" y="-282.4" font-family="Times,serif" font-size="14.00">0.0033</text>
</g>
<!-- A2&#45;&#45;F#2 -->
<g id="edge68" class="edge"><title>A2&#45;&#45;F#2</title>
<path fill="none" stroke="black" d="M99.704,-461.3C63.179,-451.4 0,-427.3 0,-379 0,-379 0,-379 0,-107 0,-48.957 80.203,-29.087 129.11,-22.366"/>
<polygon fill="black" stroke="black" points="129.841,-25.8019 139.33,-21.089 128.973,-18.856 129.841,-25.8019"/>
<text text-anchor="middle" x="19.25" y="-237.4" font-family="Times,serif" font-size="14.00">0.0067</text>
</g>
<!-- A2&#45;&#45;A2 -->
<g id="edge72" class="edge"><title>A2&#45;&#45;A2</title>
<path fill="none" stroke="black" d="M149.53,-476.12C160.51,-476.89 170,-474.19 170,-468 170,-463.84 165.72,-461.26 159.57,-460.24"/>
<polygon fill="black" stroke="black" points="159.649,-456.741 149.53,-459.88 159.398,-463.736 159.649,-456.741"/>
<text text-anchor="middle" x="189.25" y="-462.4" font-family="Times,serif" font-size="14.00">0.0100</text>
</g>
<!-- D3 -->
<g id="node50" class="node"><title>D3</title>
<ellipse fill="none" stroke="black" cx="55" cy="-378" rx="27" ry="18"/>
<text text-anchor="middle" x="55" y="-372.4" font-family="Times,serif" font-size="14.00">D3</text>
</g>
<!-- A2&#45;&#45;D3 -->
<g id="edge70" class="edge"><title>A2&#45;&#45;D3</title>
<path fill="none" stroke="black" d="M112.81,-451.67C101.97,-438.04 85.956,-417.92 73.531,-402.3"/>
<polygon fill="black" stroke="black" points="76.0153,-399.801 67.053,-394.15 70.5354,-404.156 76.0153,-399.801"/>
<text text-anchor="middle" x="116.25" y="-417.4" font-family="Times,serif" font-size="14.00">0.0033</text>
</g>
<!-- D3&#45;&#45;D3 -->
<g id="edge78" class="edge"><title>D3&#45;&#45;D3</title>
<path fill="none" stroke="black" d="M79.532,-386.12C90.508,-386.89 100,-384.19 100,-378 100,-373.84 95.715,-371.26 89.574,-370.24"/>
<polygon fill="black" stroke="black" points="89.651,-366.741 79.532,-369.88 89.4002,-373.736 89.651,-366.741"/>
<text text-anchor="middle" x="119.25" y="-372.4" font-family="Times,serif" font-size="14.00">0.0033</text>
</g>
<!-- C3 -->
<g id="node56" class="node"><title>C3</title>
<ellipse fill="none" stroke="black" cx="431" cy="-108" rx="27" ry="18"/>
<text text-anchor="middle" x="431" y="-102.4" font-family="Times,serif" font-size="14.00">C3</text>
</g>
<!-- C3&#45;&#45;G2 -->
<g id="edge82" class="edge"><title>C3&#45;&#45;G2</title>
<path fill="none" stroke="black" d="M443.02,-91.672C453.64,-78.127 469.29,-58.161 481.51,-42.583"/>
<polygon fill="black" stroke="black" points="484.473,-44.4767 487.89,-34.448 478.965,-40.1568 484.473,-44.4767"/>
<text text-anchor="middle" x="491.25" y="-57.4" font-family="Times,serif" font-size="14.00">0.0067</text>
</g>
<!-- C3&#45;&#45;C3 -->
<g id="edge80" class="edge"><title>C3&#45;&#45;C3</title>
<path fill="none" stroke="black" d="M455.53,-116.12C466.51,-116.89 476,-114.19 476,-108 476,-103.84 471.72,-101.26 465.57,-100.24"/>
<polygon fill="black" stroke="black" points="465.649,-96.7407 455.53,-99.879 465.398,-103.736 465.649,-96.7407"/>
<text text-anchor="middle" x="495.25" y="-102.4" font-family="Times,serif" font-size="14.00">0.0033</text>
</g>
</g>
</svg>
