<?xml version="1.0" encoding="UTF-8" standalone="no"?>
<!DOCTYPE svg PUBLIC "-//W3C//DTD SVG 1.1//EN"
 "http://www.w3.org/Graphics/SVG/1.1/DTD/svg11.dtd">
<!-- Generated by graphviz version 2.28.0 (20121019.2215)
 -->
<!-- Title: _anonymous_0 Pages: 1 -->
<svg width="145pt" height="314pt"
 viewBox="0.00 0.00 145.00 314.00" xmlns="http://www.w3.org/2000/svg" xmlns:xlink="http://www.w3.org/1999/xlink">
<g id="graph1" class="graph" transform="scale(1 1) rotate(0) translate(4 310)">
<title>_anonymous_0</title>
<polygon fill="white" stroke="white" points="-4,5 -4,-310 142,-310 142,5 -4,5"/>
<!-- B3 -->
<g id="node1" class="node"><title>B3</title>
<ellipse fill="none" stroke="black" cx="77" cy="-108" rx="27" ry="18"/>
<text text-anchor="middle" x="77" y="-102.4" font-family="Times,serif" font-size="14.00">B3</text>
</g>
<!-- F#4 -->
<g id="node2" class="node"><title>F#4</title>
<ellipse fill="none" stroke="black" cx="110" cy="-18" rx="27" ry="18"/>
<text text-anchor="middle" x="110" y="-12.4" font-family="Times,serif" font-size="14.00">F#4</text>
</g>
<!-- B3&#45;&#45;F#4 -->
<g id="edge2" class="edge"><title>B3&#45;&#45;F#4</title>
<path fill="none" stroke="black" d="M83.207,-90.448C87.97,-77.746 94.639,-59.962 100.13,-45.315"/>
<polygon fill="black" stroke="black" points="103.473,-46.3692 103.71,-35.777 96.9191,-43.9093 103.473,-46.3692"/>
<text text-anchor="middle" x="115.25" y="-57.4" font-family="Times,serif" font-size="14.00">0.0909</text>
</g>
<!-- C4 -->
<g id="node4" class="node"><title>C4</title>
<ellipse fill="none" stroke="black" cx="27" cy="-18" rx="27" ry="18"/>
<text text-anchor="middle" x="27" y="-12.4" font-family="Times,serif" font-size="14.00">C4</text>
</g>
<!-- B3&#45;&#45;C4 -->
<g id="edge4" class="edge"><title>B3&#45;&#45;C4</title>
<path fill="none" stroke="black" d="M63.47,-92.395C58.344,-86.377 52.73,-79.148 48.5,-72 43.576,-63.68 39.288,-54.023 35.864,-45.249"/>
<polygon fill="black" stroke="black" points="39.1329,-43.9974 32.377,-35.836 32.5688,-46.4291 39.1329,-43.9974"/>
<text text-anchor="middle" x="68.25" y="-57.4" font-family="Times,serif" font-size="14.00">0.5455</text>
</g>
<!-- D4 -->
<g id="node6" class="node"><title>D4</title>
<ellipse fill="none" stroke="black" cx="37" cy="-288" rx="27" ry="18"/>
<text text-anchor="middle" x="37" y="-282.4" font-family="Times,serif" font-size="14.00">D4</text>
</g>
<!-- D4&#45;&#45;C4 -->
<g id="edge10" class="edge"><title>D4&#45;&#45;C4</title>
<path fill="none" stroke="black" d="M36.359,-269.83C34.666,-224.45 30.062,-101.06 28.01,-46.071"/>
<polygon fill="black" stroke="black" points="31.5058,-45.8914 27.635,-36.029 24.5107,-46.1527 31.5058,-45.8914"/>
<text text-anchor="middle" x="52.25" y="-147.4" font-family="Times,serif" font-size="14.00">0.0909</text>
</g>
<!-- D4&#45;&#45;D4 -->
<g id="edge8" class="edge"><title>D4&#45;&#45;D4</title>
<path fill="none" stroke="black" d="M61.532,-296.12C72.508,-296.89 82,-294.19 82,-288 82,-283.84 77.715,-281.26 71.574,-280.24"/>
<polygon fill="black" stroke="black" points="71.651,-276.741 61.532,-279.88 71.4002,-283.736 71.651,-276.741"/>
<text text-anchor="middle" x="101.25" y="-282.4" font-family="Times,serif" font-size="14.00">0.0909</text>
</g>
<!-- G4 -->
<g id="node7" class="node"><title>G4</title>
<ellipse fill="none" stroke="black" cx="73" cy="-198" rx="27" ry="18"/>
<text text-anchor="middle" x="73" y="-192.4" font-family="Times,serif" font-size="14.00">G4</text>
</g>
<!-- D4&#45;&#45;G4 -->
<g id="edge6" class="edge"><title>D4&#45;&#45;G4</title>
<path fill="none" stroke="black" d="M43.771,-270.45C49.001,-257.66 56.335,-239.74 62.349,-225.04"/>
<polygon fill="black" stroke="black" points="65.7129,-226.061 66.259,-215.48 59.2338,-223.411 65.7129,-226.061"/>
<text text-anchor="middle" x="78.25" y="-237.4" font-family="Times,serif" font-size="14.00">0.0909</text>
</g>
<!-- G4&#45;&#45;B3 -->
<g id="edge12" class="edge"><title>G4&#45;&#45;B3</title>
<path fill="none" stroke="black" d="M73.79,-179.61C74.353,-167.24 75.12,-150.37 75.763,-136.22"/>
<polygon fill="black" stroke="black" points="79.2675,-136.199 76.225,-126.05 72.2747,-135.881 79.2675,-136.199"/>
<text text-anchor="middle" x="95.25" y="-147.4" font-family="Times,serif" font-size="14.00">0.0909</text>
</g>
</g>
</svg>
