<?xml version="1.0" encoding="UTF-8" standalone="no"?>
<!DOCTYPE svg PUBLIC "-//W3C//DTD SVG 1.1//EN"
 "http://www.w3.org/Graphics/SVG/1.1/DTD/svg11.dtd">
<!-- Generated by graphviz version 2.28.0 (20121019.2215)
 -->
<!-- Title: _anonymous_0 Pages: 1 -->
<svg width="119pt" height="134pt"
 viewBox="0.00 0.00 119.17 134.00" xmlns="http://www.w3.org/2000/svg" xmlns:xlink="http://www.w3.org/1999/xlink">
<g id="graph1" class="graph" transform="scale(1 1) rotate(0) translate(4 130)">
<title>_anonymous_0</title>
<polygon fill="white" stroke="white" points="-4,5 -4,-130 116.167,-130 116.167,5 -4,5"/>
<!-- A5 -->
<g id="node1" class="node"><title>A5</title>
<ellipse fill="none" stroke="black" cx="27.6674" cy="-108" rx="27" ry="18"/>
<text text-anchor="middle" x="27.6674" y="-102.4" font-family="Times,serif" font-size="14.00">A5</text>
</g>
<!-- A5&#45;&#45;A5 -->
<g id="edge2" class="edge"><title>A5&#45;&#45;A5</title>
<path fill="none" stroke="black" d="M52.1994,-116.12C63.1754,-116.89 72.6674,-114.19 72.6674,-108 72.6674,-103.84 68.3824,-101.26 62.2414,-100.24"/>
<polygon fill="black" stroke="black" points="62.3187,-96.7406 52.1994,-99.879 62.0672,-103.736 62.3187,-96.7406"/>
<text text-anchor="middle" x="91.9174" y="-102.4" font-family="Times,serif" font-size="14.00">0.0787</text>
</g>
<!-- G#2 -->
<g id="node3" class="node"><title>G#2</title>
<ellipse fill="none" stroke="black" cx="27.6674" cy="-18" rx="27.8358" ry="18"/>
<text text-anchor="middle" x="27.6674" y="-12.4" font-family="Times,serif" font-size="14.00">G#2</text>
</g>
<!-- A5&#45;&#45;G#2 -->
<g id="edge4" class="edge"><title>A5&#45;&#45;G#2</title>
<path fill="none" stroke="black" d="M27.6674,-89.614C27.6674,-77.24 27.6674,-60.369 27.6674,-46.22"/>
<polygon fill="black" stroke="black" points="31.1675,-46.05 27.6674,-36.05 24.1675,-46.05 31.1675,-46.05"/>
<text text-anchor="middle" x="46.9174" y="-57.4" font-family="Times,serif" font-size="14.00">0.0056</text>
</g>
<!-- G#2&#45;&#45;G#2 -->
<g id="edge6" class="edge"><title>G#2&#45;&#45;G#2</title>
<path fill="none" stroke="black" d="M52.1994,-26.121C63.1754,-26.895 72.6674,-24.188 72.6674,-18 72.6674,-13.843 68.3824,-11.257 62.2414,-10.242"/>
<polygon fill="black" stroke="black" points="62.3194,-6.74263 52.1994,-9.8789 62.0664,-13.7381 62.3194,-6.74263"/>
<text text-anchor="middle" x="91.9174" y="-12.4" font-family="Times,serif" font-size="14.00">0.9157</text>
</g>
</g>
</svg>
