<?xml version="1.0" encoding="UTF-8" standalone="no"?>
<!DOCTYPE svg PUBLIC "-//W3C//DTD SVG 1.1//EN"
 "http://www.w3.org/Graphics/SVG/1.1/DTD/svg11.dtd">
<!-- Generated by graphviz version 2.28.0 (20121019.2215)
 -->
<!-- Title: _anonymous_0 Pages: 1 -->
<svg width="280pt" height="494pt"
 viewBox="0.00 0.00 279.50 494.00" xmlns="http://www.w3.org/2000/svg" xmlns:xlink="http://www.w3.org/1999/xlink">
<g id="graph1" class="graph" transform="scale(1 1) rotate(0) translate(4 490)">
<title>_anonymous_0</title>
<polygon fill="white" stroke="white" points="-4,5 -4,-490 276.5,-490 276.5,5 -4,5"/>
<!-- A4 -->
<g id="node1" class="node"><title>A4</title>
<ellipse fill="none" stroke="black" cx="67" cy="-378" rx="27" ry="18"/>
<text text-anchor="middle" x="67" y="-372.4" font-family="Times,serif" font-size="14.00">A4</text>
</g>
<!-- F#4 -->
<g id="node2" class="node"><title>F#4</title>
<ellipse fill="none" stroke="black" cx="122" cy="-288" rx="27" ry="18"/>
<text text-anchor="middle" x="122" y="-282.4" font-family="Times,serif" font-size="14.00">F#4</text>
</g>
<!-- A4&#45;&#45;F#4 -->
<g id="edge2" class="edge"><title>A4&#45;&#45;F#4</title>
<path fill="none" stroke="black" d="M77.088,-360.86C85.306,-347.71 97.048,-328.92 106.47,-313.86"/>
<polygon fill="black" stroke="black" points="109.65,-315.375 111.98,-305.04 103.713,-311.667 109.65,-315.375"/>
<text text-anchor="middle" x="119.25" y="-327.4" font-family="Times,serif" font-size="14.00">0.0606</text>
</g>
<!-- B4 -->
<g id="node4" class="node"><title>B4</title>
<ellipse fill="none" stroke="black" cx="94" cy="-108" rx="27" ry="18"/>
<text text-anchor="middle" x="94" y="-102.4" font-family="Times,serif" font-size="14.00">B4</text>
</g>
<!-- A4&#45;&#45;B4 -->
<g id="edge4" class="edge"><title>A4&#45;&#45;B4</title>
<path fill="none" stroke="black" d="M68.73,-359.83C73.302,-314.45 85.733,-191.06 91.273,-136.07"/>
<polygon fill="black" stroke="black" points="94.7644,-136.33 92.284,-126.03 87.7996,-135.629 94.7644,-136.33"/>
<text text-anchor="middle" x="101.25" y="-237.4" font-family="Times,serif" font-size="14.00">0.0303</text>
</g>
<!-- F#4&#45;&#45;F#4 -->
<g id="edge6" class="edge"><title>F#4&#45;&#45;F#4</title>
<path fill="none" stroke="black" d="M146.53,-296.12C157.51,-296.89 167,-294.19 167,-288 167,-283.84 162.72,-281.26 156.57,-280.24"/>
<polygon fill="black" stroke="black" points="156.649,-276.741 146.53,-279.88 156.398,-283.736 156.649,-276.741"/>
<text text-anchor="middle" x="186.25" y="-282.4" font-family="Times,serif" font-size="14.00">0.0909</text>
</g>
<!-- B3 -->
<g id="node7" class="node"><title>B3</title>
<ellipse fill="none" stroke="black" cx="125" cy="-198" rx="27" ry="18"/>
<text text-anchor="middle" x="125" y="-192.4" font-family="Times,serif" font-size="14.00">B3</text>
</g>
<!-- F#4&#45;&#45;B3 -->
<g id="edge8" class="edge"><title>F#4&#45;&#45;B3</title>
<path fill="none" stroke="black" d="M122.59,-269.61C123.01,-257.24 123.59,-240.37 124.07,-226.22"/>
<polygon fill="black" stroke="black" points="127.574,-226.164 124.42,-216.05 120.578,-225.924 127.574,-226.164"/>
<text text-anchor="middle" x="143.25" y="-237.4" font-family="Times,serif" font-size="14.00">0.0303</text>
</g>
<!-- B4&#45;&#45;B4 -->
<g id="edge10" class="edge"><title>B4&#45;&#45;B4</title>
<path fill="none" stroke="black" d="M118.53,-116.12C129.51,-116.89 139,-114.19 139,-108 139,-103.84 134.72,-101.26 128.57,-100.24"/>
<polygon fill="black" stroke="black" points="128.649,-96.7407 118.53,-99.879 128.398,-103.736 128.649,-96.7407"/>
<text text-anchor="middle" x="158.25" y="-102.4" font-family="Times,serif" font-size="14.00">0.1818</text>
</g>
<!-- G#4 -->
<g id="node10" class="node"><title>G#4</title>
<ellipse fill="none" stroke="black" cx="94" cy="-18" rx="27.8358" ry="18"/>
<text text-anchor="middle" x="94" y="-12.4" font-family="Times,serif" font-size="14.00">G#4</text>
</g>
<!-- B4&#45;&#45;G#4 -->
<g id="edge12" class="edge"><title>B4&#45;&#45;G#4</title>
<path fill="none" stroke="black" d="M94,-89.614C94,-77.24 94,-60.369 94,-46.22"/>
<polygon fill="black" stroke="black" points="97.5001,-46.05 94,-36.05 90.5001,-46.05 97.5001,-46.05"/>
<text text-anchor="middle" x="113.25" y="-57.4" font-family="Times,serif" font-size="14.00">0.1212</text>
</g>
<!-- B3&#45;&#45;B4 -->
<g id="edge18" class="edge"><title>B3&#45;&#45;B4</title>
<path fill="none" stroke="black" d="M119.02,-180.03C114.53,-167.29 108.31,-149.61 103.19,-135.08"/>
<polygon fill="black" stroke="black" points="106.481,-133.887 99.854,-125.62 99.879,-136.215 106.481,-133.887"/>
<text text-anchor="middle" x="132.25" y="-147.4" font-family="Times,serif" font-size="14.00">0.0303</text>
</g>
<!-- G#4&#45;&#45;A4 -->
<g id="edge14" class="edge"><title>G#4&#45;&#45;A4</title>
<path fill="none" stroke="black" d="M71.245,-28.33C43.426,-41.428 0,-68.103 0,-107 0,-289 0,-289 0,-289 0,-317.23 22.092,-342.05 40.904,-358.08"/>
<polygon fill="black" stroke="black" points="38.7188,-360.814 48.692,-364.39 43.1255,-355.375 38.7188,-360.814"/>
<text text-anchor="middle" x="19.25" y="-192.4" font-family="Times,serif" font-size="14.00">0.0909</text>
</g>
<!-- G#4&#45;&#45;G#4 -->
<g id="edge16" class="edge"><title>G#4&#45;&#45;G#4</title>
<path fill="none" stroke="black" d="M118.53,-26.121C129.51,-26.895 139,-24.188 139,-18 139,-13.843 134.72,-11.257 128.57,-10.242"/>
<polygon fill="black" stroke="black" points="128.65,-6.7427 118.53,-9.8789 128.397,-13.7381 128.65,-6.7427"/>
<text text-anchor="middle" x="158.25" y="-12.4" font-family="Times,serif" font-size="14.00">0.0303</text>
</g>
<!-- D4 -->
<g id="node15" class="node"><title>D4</title>
<ellipse fill="none" stroke="black" cx="203" cy="-468" rx="27" ry="18"/>
<text text-anchor="middle" x="203" y="-462.4" font-family="Times,serif" font-size="14.00">D4</text>
</g>
<!-- E4 -->
<g id="node16" class="node"><title>E4</title>
<ellipse fill="none" stroke="black" cx="203" cy="-378" rx="27" ry="18"/>
<text text-anchor="middle" x="203" y="-372.4" font-family="Times,serif" font-size="14.00">E4</text>
</g>
<!-- D4&#45;&#45;E4 -->
<g id="edge20" class="edge"><title>D4&#45;&#45;E4</title>
<path fill="none" stroke="black" d="M203,-449.61C203,-437.24 203,-420.37 203,-406.22"/>
<polygon fill="black" stroke="black" points="206.5,-406.05 203,-396.05 199.5,-406.05 206.5,-406.05"/>
<text text-anchor="middle" x="222.25" y="-417.4" font-family="Times,serif" font-size="14.00">0.0303</text>
</g>
<!-- E4&#45;&#45;F#4 -->
<g id="edge22" class="edge"><title>E4&#45;&#45;F#4</title>
<path fill="none" stroke="black" d="M189.26,-362.07C176.5,-348.21 157.32,-327.38 142.71,-311.5"/>
<polygon fill="black" stroke="black" points="144.887,-308.698 135.54,-303.71 139.737,-313.438 144.887,-308.698"/>
<text text-anchor="middle" x="189.25" y="-327.4" font-family="Times,serif" font-size="14.00">0.0303</text>
</g>
<!-- E4&#45;&#45;G#4 -->
<g id="edge24" class="edge"><title>E4&#45;&#45;G#4</title>
<path fill="none" stroke="black" d="M212,-361.01C220.84,-343.79 233,-315.31 233,-289 233,-289 233,-289 233,-107 233,-58.289 171.31,-35.424 130.12,-25.587"/>
<polygon fill="black" stroke="black" points="130.662,-22.122 120.14,-23.359 129.137,-28.9538 130.662,-22.122"/>
<text text-anchor="middle" x="252.25" y="-192.4" font-family="Times,serif" font-size="14.00">0.0303</text>
</g>
</g>
</svg>
