<?xml version="1.0" encoding="UTF-8" standalone="no"?>
<!DOCTYPE svg PUBLIC "-//W3C//DTD SVG 1.1//EN"
 "http://www.w3.org/Graphics/SVG/1.1/DTD/svg11.dtd">
<!-- Generated by graphviz version 2.28.0 (20121019.2215)
 -->
<!-- Title: _anonymous_0 Pages: 1 -->
<svg width="413pt" height="494pt"
 viewBox="0.00 0.00 412.50 494.00" xmlns="http://www.w3.org/2000/svg" xmlns:xlink="http://www.w3.org/1999/xlink">
<g id="graph1" class="graph" transform="scale(1 1) rotate(0) translate(4 490)">
<title>_anonymous_0</title>
<polygon fill="white" stroke="white" points="-4,5 -4,-490 409.5,-490 409.5,5 -4,5"/>
<!-- A4 -->
<g id="node1" class="node"><title>A4</title>
<ellipse fill="none" stroke="black" cx="222" cy="-468" rx="27" ry="18"/>
<text text-anchor="middle" x="222" y="-462.4" font-family="Times,serif" font-size="14.00">A4</text>
</g>
<!-- G4 -->
<g id="node2" class="node"><title>G4</title>
<ellipse fill="none" stroke="black" cx="356" cy="-198" rx="27" ry="18"/>
<text text-anchor="middle" x="356" y="-192.4" font-family="Times,serif" font-size="14.00">G4</text>
</g>
<!-- A4&#45;&#45;G4 -->
<g id="edge2" class="edge"><title>A4&#45;&#45;G4</title>
<path fill="none" stroke="black" d="M246.47,-459.88C274.61,-450.3 319.8,-430.36 342,-396 375.82,-343.65 368.67,-266.33 361.68,-225.89"/>
<polygon fill="black" stroke="black" points="365.105,-225.164 359.84,-215.97 358.223,-226.441 365.105,-225.164"/>
<text text-anchor="middle" x="385.25" y="-327.4" font-family="Times,serif" font-size="14.00">0.0177</text>
</g>
<!-- E4 -->
<g id="node4" class="node"><title>E4</title>
<ellipse fill="none" stroke="black" cx="159" cy="-378" rx="27" ry="18"/>
<text text-anchor="middle" x="159" y="-372.4" font-family="Times,serif" font-size="14.00">E4</text>
</g>
<!-- A4&#45;&#45;E4 -->
<g id="edge4" class="edge"><title>A4&#45;&#45;E4</title>
<path fill="none" stroke="black" d="M200.01,-457.4C189.2,-451.58 176.93,-443.11 169.5,-432 164.4,-424.38 161.67,-414.85 160.24,-405.98"/>
<polygon fill="black" stroke="black" points="163.715,-405.562 159.09,-396.03 156.761,-406.366 163.715,-405.562"/>
<text text-anchor="middle" x="189.25" y="-417.4" font-family="Times,serif" font-size="14.00">0.0177</text>
</g>
<!-- B4 -->
<g id="node6" class="node"><title>B4</title>
<ellipse fill="none" stroke="black" cx="220" cy="-288" rx="27" ry="18"/>
<text text-anchor="middle" x="220" y="-282.4" font-family="Times,serif" font-size="14.00">B4</text>
</g>
<!-- E4&#45;&#45;B4 -->
<g id="edge6" class="edge"><title>E4&#45;&#45;B4</title>
<path fill="none" stroke="black" d="M159.19,-359.52C160.06,-348.54 162.61,-334.51 169.5,-324 174.54,-316.3 181.92,-309.82 189.49,-304.61"/>
<polygon fill="black" stroke="black" points="191.715,-307.346 198.33,-299.07 187.998,-301.415 191.715,-307.346"/>
<text text-anchor="middle" x="189.25" y="-327.4" font-family="Times,serif" font-size="14.00">0.0177</text>
</g>
<!-- B4&#45;&#45;A4 -->
<g id="edge18" class="edge"><title>B4&#45;&#45;A4</title>
<path fill="none" stroke="black" d="M220.19,-306.02C220.54,-336.94 221.28,-402.61 221.69,-439.81"/>
<polygon fill="black" stroke="black" points="218.192,-439.972 221.81,-449.93 225.191,-439.889 218.192,-439.972"/>
<text text-anchor="middle" x="241.25" y="-372.4" font-family="Times,serif" font-size="14.00">0.0354</text>
</g>
<!-- B4&#45;&#45;G4 -->
<g id="edge16" class="edge"><title>B4&#45;&#45;G4</title>
<path fill="none" stroke="black" d="M243.19,-278.39C258.73,-272.13 279.33,-262.87 296,-252 303.79,-246.93 319.82,-232.69 333.35,-220.24"/>
<polygon fill="black" stroke="black" points="335.986,-222.57 340.95,-213.21 331.232,-217.431 335.986,-222.57"/>
<text text-anchor="middle" x="337.25" y="-237.4" font-family="Times,serif" font-size="14.00">0.0619</text>
</g>
<!-- B4&#45;&#45;B4 -->
<g id="edge10" class="edge"><title>B4&#45;&#45;B4</title>
<path fill="none" stroke="black" d="M244.53,-296.12C255.51,-296.89 265,-294.19 265,-288 265,-283.84 260.72,-281.26 254.57,-280.24"/>
<polygon fill="black" stroke="black" points="254.649,-276.741 244.53,-279.88 254.398,-283.736 254.649,-276.741"/>
<text text-anchor="middle" x="284.25" y="-282.4" font-family="Times,serif" font-size="14.00">0.0354</text>
</g>
<!-- D5 -->
<g id="node8" class="node"><title>D5</title>
<ellipse fill="none" stroke="black" cx="27" cy="-198" rx="27" ry="18"/>
<text text-anchor="middle" x="27" y="-192.4" font-family="Times,serif" font-size="14.00">D5</text>
</g>
<!-- B4&#45;&#45;D5 -->
<g id="edge8" class="edge"><title>B4&#45;&#45;D5</title>
<path fill="none" stroke="black" d="M195.35,-280.38C173.8,-274.22 141.92,-264.16 115.5,-252 93.888,-242.05 70.875,-228.16 53.734,-217.09"/>
<polygon fill="black" stroke="black" points="55.6291,-214.147 45.345,-211.6 51.7959,-220.005 55.6291,-214.147"/>
<text text-anchor="middle" x="135.25" y="-237.4" font-family="Times,serif" font-size="14.00">0.0354</text>
</g>
<!-- E5 -->
<g id="node11" class="node"><title>E5</title>
<ellipse fill="none" stroke="black" cx="218" cy="-108" rx="27" ry="18"/>
<text text-anchor="middle" x="218" y="-102.4" font-family="Times,serif" font-size="14.00">E5</text>
</g>
<!-- B4&#45;&#45;E5 -->
<g id="edge12" class="edge"><title>B4&#45;&#45;E5</title>
<path fill="none" stroke="black" d="M219.81,-269.93C219.46,-238.97 218.72,-173.3 218.3,-136.13"/>
<polygon fill="black" stroke="black" points="221.799,-135.981 218.19,-126.02 214.799,-136.058 221.799,-135.981"/>
<text text-anchor="middle" x="239.25" y="-192.4" font-family="Times,serif" font-size="14.00">0.0885</text>
</g>
<!-- C5 -->
<g id="node13" class="node"><title>C5</title>
<ellipse fill="none" stroke="black" cx="155" cy="-198" rx="27" ry="18"/>
<text text-anchor="middle" x="155" y="-192.4" font-family="Times,serif" font-size="14.00">C5</text>
</g>
<!-- B4&#45;&#45;C5 -->
<g id="edge14" class="edge"><title>B4&#45;&#45;C5</title>
<path fill="none" stroke="black" d="M197.46,-277.73C186.17,-271.96 173.28,-263.43 165.5,-252 160.34,-244.42 157.59,-234.9 156.16,-226.03"/>
<polygon fill="black" stroke="black" points="159.635,-225.612 155.03,-216.07 152.68,-226.401 159.635,-225.612"/>
<text text-anchor="middle" x="185.25" y="-237.4" font-family="Times,serif" font-size="14.00">0.2566</text>
</g>
<!-- D5&#45;&#45;D5 -->
<g id="edge24" class="edge"><title>D5&#45;&#45;D5</title>
<path fill="none" stroke="black" d="M51.532,-206.12C62.508,-206.89 72,-204.19 72,-198 72,-193.84 67.715,-191.26 61.574,-190.24"/>
<polygon fill="black" stroke="black" points="61.651,-186.741 51.532,-189.88 61.4002,-193.736 61.651,-186.741"/>
<text text-anchor="middle" x="91.25" y="-192.4" font-family="Times,serif" font-size="14.00">0.0088</text>
</g>
<!-- D5&#45;&#45;E5 -->
<g id="edge26" class="edge"><title>D5&#45;&#45;E5</title>
<path fill="none" stroke="black" d="M48.539,-187.08C82.356,-171.5 148.05,-141.23 186.97,-123.3"/>
<polygon fill="black" stroke="black" points="188.635,-126.386 196.25,-119.02 185.703,-120.03 188.635,-126.386"/>
<text text-anchor="middle" x="159.25" y="-147.4" font-family="Times,serif" font-size="14.00">0.0531</text>
</g>
<!-- G5 -->
<g id="node19" class="node"><title>G5</title>
<ellipse fill="none" stroke="black" cx="255" cy="-18" rx="27" ry="18"/>
<text text-anchor="middle" x="255" y="-12.4" font-family="Times,serif" font-size="14.00">G5</text>
</g>
<!-- E5&#45;&#45;G5 -->
<g id="edge22" class="edge"><title>E5&#45;&#45;G5</title>
<path fill="none" stroke="black" d="M221.3,-89.837C223.68,-79.234 227.37,-65.502 232.5,-54 234.14,-50.319 236.13,-46.581 238.25,-42.985"/>
<polygon fill="black" stroke="black" points="241.257,-44.7777 243.63,-34.452 235.336,-41.0444 241.257,-44.7777"/>
<text text-anchor="middle" x="252.25" y="-57.4" font-family="Times,serif" font-size="14.00">0.0354</text>
</g>
<!-- B&#45;4 -->
<g id="node17" class="node"><title>B&#45;4</title>
<ellipse fill="none" stroke="black" cx="306" cy="-378" rx="27" ry="18"/>
<text text-anchor="middle" x="306" y="-372.4" font-family="Times,serif" font-size="14.00">B&#45;4</text>
</g>
<!-- B&#45;4&#45;&#45;B4 -->
<g id="edge20" class="edge"><title>B&#45;4&#45;&#45;B4</title>
<path fill="none" stroke="black" d="M291.8,-362.47C278.11,-348.46 257.2,-327.07 241.47,-310.97"/>
<polygon fill="black" stroke="black" points="243.712,-308.257 234.22,-303.55 238.705,-313.149 243.712,-308.257"/>
<text text-anchor="middle" x="290.25" y="-327.4" font-family="Times,serif" font-size="14.00">0.0531</text>
</g>
<!-- G5&#45;&#45;B4 -->
<g id="edge28" class="edge"><title>G5&#45;&#45;B4</title>
<path fill="none" stroke="black" d="M264.17,-35.229C266.94,-40.974 269.61,-47.602 271,-54 286.34,-124.46 283.19,-147.07 262,-216 256.8,-232.91 246.84,-250.02 237.93,-263.22"/>
<polygon fill="black" stroke="black" points="234.879,-261.474 232,-271.67 240.609,-265.495 234.879,-261.474"/>
<text text-anchor="middle" x="299.25" y="-147.4" font-family="Times,serif" font-size="14.00">0.0088</text>
</g>
</g>
</svg>
