<?xml version="1.0" encoding="UTF-8" standalone="no"?>
<!DOCTYPE svg PUBLIC "-//W3C//DTD SVG 1.1//EN"
 "http://www.w3.org/Graphics/SVG/1.1/DTD/svg11.dtd">
<!-- Generated by graphviz version 2.28.0 (20121019.2215)
 -->
<!-- Title: _anonymous_0 Pages: 1 -->
<svg width="522pt" height="134pt"
 viewBox="0.00 0.00 521.50 134.00" xmlns="http://www.w3.org/2000/svg" xmlns:xlink="http://www.w3.org/1999/xlink">
<g id="graph1" class="graph" transform="scale(1 1) rotate(0) translate(4 130)">
<title>_anonymous_0</title>
<polygon fill="white" stroke="white" points="-4,5 -4,-130 518.5,-130 518.5,5 -4,5"/>
<!-- A3 -->
<g id="node1" class="node"><title>A3</title>
<ellipse fill="none" stroke="black" cx="67" cy="-108" rx="27" ry="18"/>
<text text-anchor="middle" x="67" y="-102.4" font-family="Times,serif" font-size="14.00">A3</text>
</g>
<!-- A3&#45;&#45;A3 -->
<g id="edge4" class="edge"><title>A3&#45;&#45;A3</title>
<path fill="none" stroke="black" d="M91.532,-116.12C102.51,-116.89 112,-114.19 112,-108 112,-103.84 107.72,-101.26 101.57,-100.24"/>
<polygon fill="black" stroke="black" points="101.651,-96.7408 91.532,-99.879 101.4,-103.736 101.651,-96.7408"/>
<text text-anchor="middle" x="131.25" y="-102.4" font-family="Times,serif" font-size="14.00">0.3000</text>
</g>
<!-- B3 -->
<g id="node2" class="node"><title>B3</title>
<ellipse fill="none" stroke="black" cx="27" cy="-18" rx="27" ry="18"/>
<text text-anchor="middle" x="27" y="-12.4" font-family="Times,serif" font-size="14.00">B3</text>
</g>
<!-- A3&#45;&#45;B3 -->
<g id="edge2" class="edge"><title>A3&#45;&#45;B3</title>
<path fill="none" stroke="black" d="M52.527,-92.402C47.4,-86.497 42.034,-79.343 38.5,-72 34.668,-64.038 32.101,-54.791 30.385,-46.272"/>
<polygon fill="black" stroke="black" points="33.8278,-45.64 28.687,-36.376 26.9286,-46.8239 33.8278,-45.64"/>
<text text-anchor="middle" x="58.25" y="-57.4" font-family="Times,serif" font-size="14.00">0.1000</text>
</g>
<!-- F#3 -->
<g id="node5" class="node"><title>F#3</title>
<ellipse fill="none" stroke="black" cx="99" cy="-18" rx="27" ry="18"/>
<text text-anchor="middle" x="99" y="-12.4" font-family="Times,serif" font-size="14.00">F#3</text>
</g>
<!-- A3&#45;&#45;F#3 -->
<g id="edge6" class="edge"><title>A3&#45;&#45;F#3</title>
<path fill="none" stroke="black" d="M73.019,-90.448C77.638,-77.746 84.105,-59.962 89.431,-45.315"/>
<polygon fill="black" stroke="black" points="92.7711,-46.3711 92.899,-35.777 86.1925,-43.979 92.7711,-46.3711"/>
<text text-anchor="middle" x="105.25" y="-57.4" font-family="Times,serif" font-size="14.00">0.1000</text>
</g>
<!-- C#5 -->
<g id="node7" class="node"><title>C#5</title>
<ellipse fill="none" stroke="black" cx="203" cy="-108" rx="27.2698" ry="18"/>
<text text-anchor="middle" x="203" y="-102.4" font-family="Times,serif" font-size="14.00">C#5</text>
</g>
<!-- D5 -->
<g id="node8" class="node"><title>D5</title>
<ellipse fill="none" stroke="black" cx="203" cy="-18" rx="27" ry="18"/>
<text text-anchor="middle" x="203" y="-12.4" font-family="Times,serif" font-size="14.00">D5</text>
</g>
<!-- C#5&#45;&#45;D5 -->
<g id="edge8" class="edge"><title>C#5&#45;&#45;D5</title>
<path fill="none" stroke="black" d="M203,-89.614C203,-77.24 203,-60.369 203,-46.22"/>
<polygon fill="black" stroke="black" points="206.5,-46.05 203,-36.05 199.5,-46.05 206.5,-46.05"/>
<text text-anchor="middle" x="222.25" y="-57.4" font-family="Times,serif" font-size="14.00">0.1000</text>
</g>
<!-- C4 -->
<g id="node10" class="node"><title>C4</title>
<ellipse fill="none" stroke="black" cx="275" cy="-108" rx="27" ry="18"/>
<text text-anchor="middle" x="275" y="-102.4" font-family="Times,serif" font-size="14.00">C4</text>
</g>
<!-- D4 -->
<g id="node11" class="node"><title>D4</title>
<ellipse fill="none" stroke="black" cx="275" cy="-18" rx="27" ry="18"/>
<text text-anchor="middle" x="275" y="-12.4" font-family="Times,serif" font-size="14.00">D4</text>
</g>
<!-- C4&#45;&#45;D4 -->
<g id="edge10" class="edge"><title>C4&#45;&#45;D4</title>
<path fill="none" stroke="black" d="M275,-89.614C275,-77.24 275,-60.369 275,-46.22"/>
<polygon fill="black" stroke="black" points="278.5,-46.05 275,-36.05 271.5,-46.05 278.5,-46.05"/>
<text text-anchor="middle" x="294.25" y="-57.4" font-family="Times,serif" font-size="14.00">0.1000</text>
</g>
<!-- E4 -->
<g id="node13" class="node"><title>E4</title>
<ellipse fill="none" stroke="black" cx="347" cy="-108" rx="27" ry="18"/>
<text text-anchor="middle" x="347" y="-102.4" font-family="Times,serif" font-size="14.00">E4</text>
</g>
<!-- E4&#45;&#45;E4 -->
<g id="edge12" class="edge"><title>E4&#45;&#45;E4</title>
<path fill="none" stroke="black" d="M371.53,-116.12C382.51,-116.89 392,-114.19 392,-108 392,-103.84 387.72,-101.26 381.57,-100.24"/>
<polygon fill="black" stroke="black" points="381.649,-96.7407 371.53,-99.879 381.398,-103.736 381.649,-96.7407"/>
<text text-anchor="middle" x="411.25" y="-102.4" font-family="Times,serif" font-size="14.00">0.2000</text>
</g>
<!-- F#4 -->
<g id="node15" class="node"><title>F#4</title>
<ellipse fill="none" stroke="black" cx="475" cy="-108" rx="27" ry="18"/>
<text text-anchor="middle" x="475" y="-102.4" font-family="Times,serif" font-size="14.00">F#4</text>
</g>
<!-- G4 -->
<g id="node16" class="node"><title>G4</title>
<ellipse fill="none" stroke="black" cx="475" cy="-18" rx="27" ry="18"/>
<text text-anchor="middle" x="475" y="-12.4" font-family="Times,serif" font-size="14.00">G4</text>
</g>
<!-- F#4&#45;&#45;G4 -->
<g id="edge14" class="edge"><title>F#4&#45;&#45;G4</title>
<path fill="none" stroke="black" d="M475,-89.614C475,-77.24 475,-60.369 475,-46.22"/>
<polygon fill="black" stroke="black" points="478.5,-46.05 475,-36.05 471.5,-46.05 478.5,-46.05"/>
<text text-anchor="middle" x="494.25" y="-57.4" font-family="Times,serif" font-size="14.00">0.1000</text>
</g>
</g>
</svg>
