<?xml version="1.0" encoding="UTF-8" standalone="no"?>
<!DOCTYPE svg PUBLIC "-//W3C//DTD SVG 1.1//EN"
 "http://www.w3.org/Graphics/SVG/1.1/DTD/svg11.dtd">
<!-- Generated by graphviz version 2.28.0 (20121019.2215)
 -->
<!-- Title: _anonymous_0 Pages: 1 -->
<svg width="119pt" height="224pt"
 viewBox="0.00 0.00 118.50 224.00" xmlns="http://www.w3.org/2000/svg" xmlns:xlink="http://www.w3.org/1999/xlink">
<g id="graph1" class="graph" transform="scale(1 1) rotate(0) translate(4 220)">
<title>_anonymous_0</title>
<polygon fill="white" stroke="white" points="-4,5 -4,-220 115.5,-220 115.5,5 -4,5"/>
<!-- B3 -->
<g id="node1" class="node"><title>B3</title>
<ellipse fill="none" stroke="black" cx="27" cy="-108" rx="27" ry="18"/>
<text text-anchor="middle" x="27" y="-102.4" font-family="Times,serif" font-size="14.00">B3</text>
</g>
<!-- D4 -->
<g id="node2" class="node"><title>D4</title>
<ellipse fill="none" stroke="black" cx="27" cy="-18" rx="27" ry="18"/>
<text text-anchor="middle" x="27" y="-12.4" font-family="Times,serif" font-size="14.00">D4</text>
</g>
<!-- B3&#45;&#45;D4 -->
<g id="edge2" class="edge"><title>B3&#45;&#45;D4</title>
<path fill="none" stroke="black" d="M27,-89.614C27,-77.24 27,-60.369 27,-46.22"/>
<polygon fill="black" stroke="black" points="30.5001,-46.05 27,-36.05 23.5001,-46.05 30.5001,-46.05"/>
<text text-anchor="middle" x="46.25" y="-57.4" font-family="Times,serif" font-size="14.00">0.1000</text>
</g>
<!-- D4&#45;&#45;D4 -->
<g id="edge4" class="edge"><title>D4&#45;&#45;D4</title>
<path fill="none" stroke="black" d="M51.532,-26.121C62.508,-26.895 72,-24.188 72,-18 72,-13.843 67.715,-11.257 61.574,-10.242"/>
<polygon fill="black" stroke="black" points="61.652,-6.74263 51.532,-9.8789 61.399,-13.7381 61.652,-6.74263"/>
<text text-anchor="middle" x="91.25" y="-12.4" font-family="Times,serif" font-size="14.00">0.2000</text>
</g>
<!-- C4 -->
<g id="node5" class="node"><title>C4</title>
<ellipse fill="none" stroke="black" cx="27" cy="-198" rx="27" ry="18"/>
<text text-anchor="middle" x="27" y="-192.4" font-family="Times,serif" font-size="14.00">C4</text>
</g>
<!-- C4&#45;&#45;B3 -->
<g id="edge6" class="edge"><title>C4&#45;&#45;B3</title>
<path fill="none" stroke="black" d="M27,-179.61C27,-167.24 27,-150.37 27,-136.22"/>
<polygon fill="black" stroke="black" points="30.5001,-136.05 27,-126.05 23.5001,-136.05 30.5001,-136.05"/>
<text text-anchor="middle" x="46.25" y="-147.4" font-family="Times,serif" font-size="14.00">0.7000</text>
</g>
</g>
</svg>
