<?xml version="1.0" encoding="UTF-8" standalone="no"?>
<!DOCTYPE svg PUBLIC "-//W3C//DTD SVG 1.1//EN"
 "http://www.w3.org/Graphics/SVG/1.1/DTD/svg11.dtd">
<!-- Generated by graphviz version 2.28.0 (20121019.2215)
 -->
<!-- Title: _anonymous_0 Pages: 1 -->
<svg width="2793pt" height="2834pt"
 viewBox="0.00 0.00 2793.45 2834.00" xmlns="http://www.w3.org/2000/svg" xmlns:xlink="http://www.w3.org/1999/xlink">
<g id="graph1" class="graph" transform="scale(1 1) rotate(0) translate(4 2830)">
<title>_anonymous_0</title>
<polygon fill="white" stroke="white" points="-4,5 -4,-2830 2790.45,-2830 2790.45,5 -4,5"/>
<!-- A2 -->
<g id="node1" class="node"><title>A2</title>
<ellipse fill="none" stroke="black" cx="472" cy="-2808" rx="27" ry="18"/>
<text text-anchor="middle" x="472" y="-2802.4" font-family="Times,serif" font-size="14.00">A2</text>
</g>
<!-- C4 -->
<g id="node2" class="node"><title>C4</title>
<ellipse fill="none" stroke="black" cx="1428" cy="-1368" rx="27" ry="18"/>
<text text-anchor="middle" x="1428" y="-1362.4" font-family="Times,serif" font-size="14.00">C4</text>
</g>
<!-- A2&#45;&#45;C4 -->
<g id="edge2" class="edge"><title>A2&#45;&#45;C4</title>
<path fill="none" stroke="black" d="M499.25,-2806.5C731.79,-2801.9 2374,-2768.1 2374,-2719 2374,-2719 2374,-2719 2374,-2537 2374,-2492.1 2330.6,-2498.1 2288,-2484 2242.9,-2469.1 2115.8,-2490.4 2075,-2466 1917.5,-2371.7 1918.7,-2283.7 1872.5,-2106 1855.4,-2040.1 1853,-2022.1 1853,-1954 1853,-1954 1853,-1954 1853,-1772 1853,-1727.5 1811.7,-1618.9 1784,-1584 1695.5,-1472.4 1531.9,-1405.1 1461.6,-1380.1"/>
<polygon fill="black" stroke="black" points="1462.49,-1376.7 1451.9,-1376.7 1460.18,-1383.31 1462.49,-1376.7"/>
<text text-anchor="middle" x="1892.2" y="-2082.4" font-family="Times,serif" font-size="14.00">0.0044</text>
</g>
<!-- C3 -->
<g id="node4" class="node"><title>C3</title>
<ellipse fill="none" stroke="black" cx="472" cy="-2718" rx="27" ry="18"/>
<text text-anchor="middle" x="472" y="-2712.4" font-family="Times,serif" font-size="14.00">C3</text>
</g>
<!-- A2&#45;&#45;C3 -->
<g id="edge4" class="edge"><title>A2&#45;&#45;C3</title>
<path fill="none" stroke="black" d="M472,-2789.6C472,-2777.2 472,-2760.4 472,-2746.2"/>
<polygon fill="black" stroke="black" points="475.5,-2746.1 472,-2736.1 468.5,-2746.1 475.5,-2746.1"/>
<text text-anchor="middle" x="491.25" y="-2757.4" font-family="Times,serif" font-size="14.00">0.0044</text>
</g>
<!-- E3 -->
<g id="node6" class="node"><title>E3</title>
<ellipse fill="none" stroke="black" cx="530" cy="-2088" rx="27" ry="18"/>
<text text-anchor="middle" x="530" y="-2082.4" font-family="Times,serif" font-size="14.00">E3</text>
</g>
<!-- A2&#45;&#45;E3 -->
<g id="edge6" class="edge"><title>A2&#45;&#45;E3</title>
<path fill="none" stroke="black" d="M444.91,-2807C363.21,-2805.6 126.37,-2790.6 152,-2664 178.09,-2535.1 438.85,-2202.7 511.37,-2112.1"/>
<polygon fill="black" stroke="black" points="514.261,-2114.09 517.79,-2104.1 508.801,-2109.71 514.261,-2114.09"/>
<text text-anchor="middle" x="294.25" y="-2442.4" font-family="Times,serif" font-size="14.00">0.0044</text>
</g>
<!-- C4&#45;&#45;C4 -->
<g id="edge26" class="edge"><title>C4&#45;&#45;C4</title>
<path fill="none" stroke="black" d="M1452.5,-1376.1C1463.5,-1376.9 1473,-1374.2 1473,-1368 1473,-1363.8 1468.7,-1361.3 1462.6,-1360.2"/>
<polygon fill="black" stroke="black" points="1462.6,-1356.7 1452.5,-1359.9 1462.39,-1363.7 1462.6,-1356.7"/>
<text text-anchor="middle" x="1492.2" y="-1362.4" font-family="Times,serif" font-size="14.00">0.0044</text>
</g>
<!-- F#4 -->
<g id="node12" class="node"><title>F#4</title>
<ellipse fill="none" stroke="black" cx="279" cy="-198" rx="27" ry="18"/>
<text text-anchor="middle" x="279" y="-192.4" font-family="Times,serif" font-size="14.00">F#4</text>
</g>
<!-- C4&#45;&#45;F#4 -->
<g id="edge28" class="edge"><title>C4&#45;&#45;F#4</title>
<path fill="none" stroke="black" d="M1423.6,-1350C1412,-1305.2 1378.6,-1180.7 1342,-1080 1297.4,-957.24 1304.9,-914.06 1226,-810 1195.6,-769.96 1138,-789.25 1138,-739 1138,-739 1138,-739 1138,-602 1138,-509.01 469.76,-266.55 312.06,-210.63"/>
<polygon fill="black" stroke="black" points="313.015,-207.255 302.42,-207.21 310.674,-213.852 313.015,-207.255"/>
<text text-anchor="middle" x="1224.2" y="-777.4" font-family="Times,serif" font-size="14.00">0.0044</text>
</g>
<!-- D3 -->
<g id="node14" class="node"><title>D3</title>
<ellipse fill="none" stroke="black" cx="1034" cy="-1908" rx="27" ry="18"/>
<text text-anchor="middle" x="1034" y="-1902.4" font-family="Times,serif" font-size="14.00">D3</text>
</g>
<!-- C4&#45;&#45;D3 -->
<g id="edge30" class="edge"><title>C4&#45;&#45;D3</title>
<path fill="none" stroke="black" d="M1416.9,-1384.6C1358.2,-1467 1086.5,-1848.3 1067,-1872 1063.4,-1876.4 1059.4,-1880.8 1055.5,-1885.1"/>
<polygon fill="black" stroke="black" points="1052.93,-1882.73 1048.6,-1892.4 1058.01,-1887.54 1052.93,-1882.73"/>
<text text-anchor="middle" x="1267.2" y="-1632.4" font-family="Times,serif" font-size="14.00">0.0044</text>
</g>
<!-- D5 -->
<g id="node22" class="node"><title>D5</title>
<ellipse fill="none" stroke="black" cx="1466" cy="-1998" rx="27" ry="18"/>
<text text-anchor="middle" x="1466" y="-1992.4" font-family="Times,serif" font-size="14.00">D5</text>
</g>
<!-- C4&#45;&#45;D5 -->
<g id="edge32" class="edge"><title>C4&#45;&#45;D5</title>
<path fill="none" stroke="black" d="M1448,-1380.1C1485.7,-1402.4 1564.9,-1457.1 1581,-1530 1640.4,-1799 1596.7,-1723 1584,-1746 1562.2,-1785.5 1522.9,-1762.4 1498,-1800 1463.4,-1852.2 1461.7,-1929 1463.7,-1969.6"/>
<polygon fill="black" stroke="black" points="1460.22,-1970.02 1464.3,-1979.8 1467.21,-1969.61 1460.22,-1970.02"/>
<text text-anchor="middle" x="1630.2" y="-1677.4" font-family="Times,serif" font-size="14.00">0.0044</text>
</g>
<!-- C#4 -->
<g id="node24" class="node"><title>C#4</title>
<ellipse fill="none" stroke="black" cx="1818" cy="-1278" rx="27.2698" ry="18"/>
<text text-anchor="middle" x="1818" y="-1272.4" font-family="Times,serif" font-size="14.00">C#4</text>
</g>
<!-- C4&#45;&#45;C#4 -->
<g id="edge24" class="edge"><title>C4&#45;&#45;C#4</title>
<path fill="none" stroke="black" d="M1453.9,-1362.3C1473.4,-1358.8 1500.9,-1354 1525,-1350 1576,-1341.5 1589.5,-1343.4 1640,-1332 1691.1,-1320.4 1749,-1302.2 1784.5,-1290.4"/>
<polygon fill="black" stroke="black" points="1786.02,-1293.58 1794.4,-1287.1 1783.81,-1286.94 1786.02,-1293.58"/>
<text text-anchor="middle" x="1724.2" y="-1317.4" font-family="Times,serif" font-size="14.00">0.0044</text>
</g>
<!-- G4 -->
<g id="node30" class="node"><title>G4</title>
<ellipse fill="none" stroke="black" cx="1492" cy="-1728" rx="27" ry="18"/>
<text text-anchor="middle" x="1492" y="-1722.4" font-family="Times,serif" font-size="14.00">G4</text>
</g>
<!-- C4&#45;&#45;G4 -->
<g id="edge34" class="edge"><title>C4&#45;&#45;G4</title>
<path fill="none" stroke="black" d="M1446.3,-1381.6C1453.4,-1387.5 1460.8,-1395.2 1465,-1404 1513.1,-1504 1503.1,-1641.7 1496,-1699.6"/>
<polygon fill="black" stroke="black" points="1492.49,-1699.44 1494.7,-1709.8 1499.44,-1700.32 1492.49,-1699.44"/>
<text text-anchor="middle" x="1521.2" y="-1542.4" font-family="Times,serif" font-size="14.00">0.0044</text>
</g>
<!-- E&#45;3 -->
<g id="node8" class="node"><title>E&#45;3</title>
<ellipse fill="none" stroke="black" cx="619" cy="-2628" rx="27" ry="18"/>
<text text-anchor="middle" x="619" y="-2622.4" font-family="Times,serif" font-size="14.00">E&#45;3</text>
</g>
<!-- C3&#45;&#45;E&#45;3 -->
<g id="edge8" class="edge"><title>C3&#45;&#45;E&#45;3</title>
<path fill="none" stroke="black" d="M488.36,-2703.6C502.66,-2692.3 524.25,-2676 544.5,-2664 558.05,-2656 573.75,-2648.4 587.23,-2642.3"/>
<polygon fill="black" stroke="black" points="588.835,-2645.42 596.59,-2638.2 586.026,-2639.01 588.835,-2645.42"/>
<text text-anchor="middle" x="564.25" y="-2667.4" font-family="Times,serif" font-size="14.00">0.0044</text>
</g>
<!-- F3 -->
<g id="node10" class="node"><title>F3</title>
<ellipse fill="none" stroke="black" cx="899" cy="-1818" rx="27" ry="18"/>
<text text-anchor="middle" x="899" y="-1812.4" font-family="Times,serif" font-size="14.00">F3</text>
</g>
<!-- C3&#45;&#45;F3 -->
<g id="edge10" class="edge"><title>C3&#45;&#45;F3</title>
<path fill="none" stroke="black" d="M445.32,-2714C377.54,-2705.7 204,-2679.4 204,-2629 204,-2629 204,-2629 204,-2312 204,-2275.9 230.73,-2275.3 256.5,-2250 310.72,-2196.8 342.87,-2202.4 389,-2142 410.26,-2114.2 398.31,-2096.7 421,-2070 439.93,-2047.7 451.14,-2049.3 476,-2034 516.68,-2008.9 526.83,-2002.5 569,-1980 677.16,-1922.3 809.03,-1860.4 867.96,-1833.2"/>
<polygon fill="black" stroke="black" points="869.482,-1836.35 877.11,-1829 866.562,-1829.99 869.482,-1836.35"/>
<text text-anchor="middle" x="276.25" y="-2262.4" font-family="Times,serif" font-size="14.00">0.0044</text>
</g>
<!-- C3&#45;&#45;F#4 -->
<g id="edge12" class="edge"><title>C3&#45;&#45;F#4</title>
<path fill="none" stroke="black" d="M445.3,-2715.3C391.14,-2711.4 270.4,-2700.9 234,-2682 74.782,-2599.1 54,-2627.1 54,-2224 54,-2224 54,-2224 54,-1547 54,-1487.8 46,-1473.2 46,-1414 46,-1414 46,-1414 46,-287 46,-245.44 177.36,-216.68 242.82,-204.93"/>
<polygon fill="black" stroke="black" points="243.477,-208.368 252.72,-203.19 242.265,-201.474 243.477,-208.368"/>
<text text-anchor="middle" x="69.25" y="-1452.4" font-family="Times,serif" font-size="14.00">0.0044</text>
</g>
<!-- C3&#45;&#45;D3 -->
<g id="edge14" class="edge"><title>C3&#45;&#45;D3</title>
<path fill="none" stroke="black" d="M451.4,-2706C427.69,-2691.7 392,-2664.3 392,-2629 392,-2629 392,-2629 392,-2357 392,-2294.9 435,-2286.1 435,-2224 435,-2224 435,-2224 435,-2087 435,-2027.9 868.87,-1940.5 998.1,-1915.7"/>
<polygon fill="black" stroke="black" points="999.11,-1919.07 1008.3,-1913.8 997.828,-1912.19 999.11,-1919.07"/>
<text text-anchor="middle" x="425.25" y="-2307.4" font-family="Times,serif" font-size="14.00">0.0044</text>
</g>
<!-- E4 -->
<g id="node16" class="node"><title>E4</title>
<ellipse fill="none" stroke="black" cx="1481" cy="-2358" rx="27" ry="18"/>
<text text-anchor="middle" x="1481" y="-2352.4" font-family="Times,serif" font-size="14.00">E4</text>
</g>
<!-- E3&#45;&#45;E4 -->
<g id="edge16" class="edge"><title>E3&#45;&#45;E4</title>
<path fill="none" stroke="black" d="M551.87,-2098.9C557.99,-2101.4 564.69,-2104 571,-2106 605.31,-2116.9 615.51,-2113.7 650,-2124 802.76,-2169.8 848.22,-2169.7 986,-2250 1029.1,-2275.1 1025.9,-2303 1072,-2322 1138.8,-2349.5 1356.3,-2355.4 1444,-2356.7"/>
<polygon fill="black" stroke="black" points="1443.97,-2360.2 1454,-2356.8 1444.04,-2353.2 1443.97,-2360.2"/>
<text text-anchor="middle" x="972.25" y="-2217.4" font-family="Times,serif" font-size="14.00">0.0044</text>
</g>
<!-- B3 -->
<g id="node18" class="node"><title>B3</title>
<ellipse fill="none" stroke="black" cx="691" cy="-288" rx="27" ry="18"/>
<text text-anchor="middle" x="691" y="-282.4" font-family="Times,serif" font-size="14.00">B3</text>
</g>
<!-- E3&#45;&#45;B3 -->
<g id="edge18" class="edge"><title>E3&#45;&#45;B3</title>
<path fill="none" stroke="black" d="M509.59,-2075.8C487.74,-2063.2 452.88,-2041.2 428,-2016 332.81,-1919.7 243,-1909.4 243,-1774 243,-1774 243,-1774 243,-1637 243,-1537.6 227,-1513.4 227,-1414 227,-1414 227,-1414 227,-1232 227,-1147.9 236.16,-1127.1 249,-1044 257.98,-985.85 299,-842.84 299,-784 299,-784 299,-784 299,-602 299,-572.45 306.6,-564.58 323,-540 339.05,-515.94 393.93,-467.44 417,-450 499.65,-387.5 608.5,-330.05 660.63,-303.88"/>
<polygon fill="black" stroke="black" points="662.298,-306.959 669.68,-299.36 659.17,-300.697 662.298,-306.959"/>
<text text-anchor="middle" x="249.25" y="-1182.4" font-family="Times,serif" font-size="14.00">0.0044</text>
</g>
<!-- G#3 -->
<g id="node20" class="node"><title>G#3</title>
<ellipse fill="none" stroke="black" cx="2112" cy="-2448" rx="27.8358" ry="18"/>
<text text-anchor="middle" x="2112" y="-2442.4" font-family="Times,serif" font-size="14.00">G#3</text>
</g>
<!-- E3&#45;&#45;G#3 -->
<g id="edge20" class="edge"><title>E3&#45;&#45;G#3</title>
<path fill="none" stroke="black" d="M550.79,-2099.7C610.85,-2130.5 790.11,-2221 943.5,-2286 1271.9,-2425.2 1381.4,-2373.6 1736,-2412 1860,-2425.4 2007.5,-2438.2 2074.9,-2443.9"/>
<polygon fill="black" stroke="black" points="2074.83,-2447.41 2085.1,-2444.8 2075.45,-2440.43 2074.83,-2447.41"/>
<text text-anchor="middle" x="963.25" y="-2262.4" font-family="Times,serif" font-size="14.00">0.0044</text>
</g>
<!-- E3&#45;&#45;D5 -->
<g id="edge22" class="edge"><title>E3&#45;&#45;D5</title>
<path fill="none" stroke="black" d="M556.95,-2086.2C639.73,-2083.6 897.55,-2074.2 1110,-2052 1227.7,-2039.7 1366.2,-2016.6 1430.2,-2005.4"/>
<polygon fill="black" stroke="black" points="1430.98,-2008.82 1440.2,-2003.6 1429.74,-2001.93 1430.98,-2008.82"/>
<text text-anchor="middle" x="1267.2" y="-2037.4" font-family="Times,serif" font-size="14.00">0.0044</text>
</g>
<!-- E&#45;3&#45;&#45;A2 -->
<g id="edge36" class="edge"><title>E&#45;3&#45;&#45;A2</title>
<path fill="none" stroke="black" d="M609.2,-2645.1C591.93,-2672.7 554.1,-2730.2 514,-2772 508.96,-2777.2 503.18,-2782.5 497.55,-2787.3"/>
<polygon fill="black" stroke="black" points="495.086,-2784.79 489.51,-2793.8 499.487,-2790.23 495.086,-2784.79"/>
<text text-anchor="middle" x="591.25" y="-2712.4" font-family="Times,serif" font-size="14.00">0.0044</text>
</g>
<!-- E&#45;3&#45;&#45;E3 -->
<g id="edge46" class="edge"><title>E&#45;3&#45;&#45;E3</title>
<path fill="none" stroke="black" d="M597,-2617.1C570.64,-2603.6 530,-2576.6 530,-2539 530,-2539 530,-2539 530,-2177 530,-2156.6 530,-2133.6 530,-2116.2"/>
<polygon fill="black" stroke="black" points="533.5,-2116.2 530,-2106.2 526.5,-2116.2 533.5,-2116.2"/>
<text text-anchor="middle" x="549.25" y="-2352.4" font-family="Times,serif" font-size="14.00">0.0044</text>
</g>
<!-- E&#45;3&#45;&#45;E&#45;3 -->
<g id="edge44" class="edge"><title>E&#45;3&#45;&#45;E&#45;3</title>
<path fill="none" stroke="black" d="M643.53,-2636.1C654.51,-2636.9 664,-2634.2 664,-2628 664,-2623.8 659.72,-2621.3 653.57,-2620.2"/>
<polygon fill="black" stroke="black" points="653.63,-2616.7 643.53,-2619.9 653.421,-2623.7 653.63,-2616.7"/>
<text text-anchor="middle" x="683.25" y="-2622.4" font-family="Times,serif" font-size="14.00">0.0044</text>
</g>
<!-- C5 -->
<g id="node33" class="node"><title>C5</title>
<ellipse fill="none" stroke="black" cx="1266" cy="-2538" rx="27" ry="18"/>
<text text-anchor="middle" x="1266" y="-2532.4" font-family="Times,serif" font-size="14.00">C5</text>
</g>
<!-- E&#45;3&#45;&#45;C5 -->
<g id="edge38" class="edge"><title>E&#45;3&#45;&#45;C5</title>
<path fill="none" stroke="black" d="M645.16,-2623.4C746.38,-2609.7 1112.4,-2559.9 1229.6,-2543.9"/>
<polygon fill="black" stroke="black" points="1230.42,-2547.32 1239.9,-2542.6 1229.54,-2540.38 1230.42,-2547.32"/>
<text text-anchor="middle" x="1020.2" y="-2577.4" font-family="Times,serif" font-size="14.00">0.0044</text>
</g>
<!-- G3 -->
<g id="node35" class="node"><title>G3</title>
<ellipse fill="none" stroke="black" cx="1190" cy="-828" rx="27" ry="18"/>
<text text-anchor="middle" x="1190" y="-822.4" font-family="Times,serif" font-size="14.00">G3</text>
</g>
<!-- E&#45;3&#45;&#45;G3 -->
<g id="edge40" class="edge"><title>E&#45;3&#45;&#45;G3</title>
<path fill="none" stroke="black" d="M622.42,-2609.9C625.65,-2592.2 630,-2563.8 630,-2539 630,-2539 630,-2539 630,-2312 630,-2147.7 558.85,-2104.3 595,-1944 630.08,-1788.5 672.17,-1759.7 749,-1620 776.33,-1570.3 788.78,-1561.2 817,-1512 978.51,-1230.4 960.26,-1124.5 1154,-864 1157.7,-859.07 1162,-854.2 1166.5,-849.74"/>
<polygon fill="black" stroke="black" points="1169.06,-852.135 1173.8,-842.66 1164.18,-847.11 1169.06,-852.135"/>
<text text-anchor="middle" x="715.25" y="-1722.4" font-family="Times,serif" font-size="14.00">0.0044</text>
</g>
<!-- A3 -->
<g id="node37" class="node"><title>A3</title>
<ellipse fill="none" stroke="black" cx="1710" cy="-1908" rx="27" ry="18"/>
<text text-anchor="middle" x="1710" y="-1902.4" font-family="Times,serif" font-size="14.00">A3</text>
</g>
<!-- E&#45;3&#45;&#45;A3 -->
<g id="edge42" class="edge"><title>E&#45;3&#45;&#45;A3</title>
<path fill="none" stroke="black" d="M646.18,-2625.9C800.63,-2619.6 1561,-2586.2 1561,-2539 1561,-2539 1561,-2539 1561,-2267 1561,-2192 1614,-2004 1659,-1944 1664.7,-1936.4 1672.4,-1930 1680.2,-1924.7"/>
<polygon fill="black" stroke="black" points="1682.25,-1927.55 1688.9,-1919.3 1678.56,-1921.6 1682.25,-1927.55"/>
<text text-anchor="middle" x="1580.2" y="-2262.4" font-family="Times,serif" font-size="14.00">0.0089</text>
</g>
<!-- F3&#45;&#45;F3 -->
<g id="edge50" class="edge"><title>F3&#45;&#45;F3</title>
<path fill="none" stroke="black" d="M923.53,-1826.1C934.51,-1826.9 944,-1824.2 944,-1818 944,-1813.8 939.72,-1811.3 933.57,-1810.2"/>
<polygon fill="black" stroke="black" points="933.63,-1806.7 923.53,-1809.9 933.421,-1813.7 933.63,-1806.7"/>
<text text-anchor="middle" x="963.25" y="-1812.4" font-family="Times,serif" font-size="14.00">0.0044</text>
</g>
<!-- F3&#45;&#45;G4 -->
<g id="edge52" class="edge"><title>F3&#45;&#45;G4</title>
<path fill="none" stroke="black" d="M925.78,-1815.5C985.05,-1811.8 1131.6,-1801.4 1253,-1782 1326.5,-1770.3 1411.4,-1749.8 1457.6,-1738"/>
<polygon fill="black" stroke="black" points="1458.58,-1741.36 1467.4,-1735.5 1456.85,-1734.58 1458.58,-1741.36"/>
<text text-anchor="middle" x="1365.2" y="-1767.4" font-family="Times,serif" font-size="14.00">0.0044</text>
</g>
<!-- B&#45;3 -->
<g id="node41" class="node"><title>B&#45;3</title>
<ellipse fill="none" stroke="black" cx="628" cy="-558" rx="27" ry="18"/>
<text text-anchor="middle" x="628" y="-552.4" font-family="Times,serif" font-size="14.00">B&#45;3</text>
</g>
<!-- F3&#45;&#45;B&#45;3 -->
<g id="edge48" class="edge"><title>F3&#45;&#45;B&#45;3</title>
<path fill="none" stroke="black" d="M886.91,-1801.6C869.99,-1780.3 837.96,-1741.1 808,-1710 783.33,-1684.4 769.31,-1685.2 749,-1656 724.57,-1620.9 726.83,-1607.1 715,-1566 648.97,-1336.5 649.67,-1274.7 588,-1044 579.39,-1011.8 571.71,-1005 567,-972 546.13,-825.91 597.04,-650.95 618.76,-585.46"/>
<polygon fill="black" stroke="black" points="622.101,-586.504 621.98,-575.91 615.468,-584.268 622.101,-586.504"/>
<text text-anchor="middle" x="648.25" y="-1182.4" font-family="Times,serif" font-size="14.00">0.0044</text>
</g>
<!-- B&#45;2 -->
<g id="node45" class="node"><title>B&#45;2</title>
<ellipse fill="none" stroke="black" cx="1192" cy="-1458" rx="27" ry="18"/>
<text text-anchor="middle" x="1192" y="-1452.4" font-family="Times,serif" font-size="14.00">B&#45;2</text>
</g>
<!-- F3&#45;&#45;B&#45;2 -->
<g id="edge54" class="edge"><title>F3&#45;&#45;B&#45;2</title>
<path fill="none" stroke="black" d="M905.73,-1800.2C923.56,-1756.7 972.89,-1642.1 1006.5,-1620 1042.6,-1596.3 1160.4,-1619.3 1200,-1602 1213.7,-1596 1293.9,-1525.7 1300,-1512 1303.3,-1504.7 1304.7,-1500.5 1300,-1494 1291.3,-1482 1255.7,-1472.1 1227.7,-1465.9"/>
<polygon fill="black" stroke="black" points="1228.31,-1462.45 1217.8,-1463.8 1226.86,-1469.3 1228.31,-1462.45"/>
<text text-anchor="middle" x="1026.2" y="-1632.4" font-family="Times,serif" font-size="14.00">0.0044</text>
</g>
<!-- F#4&#45;&#45;A2 -->
<g id="edge56" class="edge"><title>F#4&#45;&#45;A2</title>
<path fill="none" stroke="black" d="M252.02,-199.94C212.14,-202.13 135.71,-209.47 76,-234 37.91,-249.65 0,-245.82 0,-287 0,-2719 0,-2719 0,-2719 0,-2763.2 324.17,-2794.6 435.21,-2804"/>
<polygon fill="black" stroke="black" points="434.998,-2807.49 445.27,-2804.9 435.622,-2800.52 434.998,-2807.49"/>
<text text-anchor="middle" x="19.25" y="-1497.4" font-family="Times,serif" font-size="14.00">0.0044</text>
</g>
<!-- F#4&#45;&#45;F3 -->
<g id="edge58" class="edge"><title>F#4&#45;&#45;F3</title>
<path fill="none" stroke="black" d="M274.01,-215.7C268.36,-236.76 260.48,-274.09 265,-306 276.67,-388.45 286.7,-408.44 317,-486 337.97,-539.69 375,-544.36 375,-602 375,-784 375,-784 375,-784 375,-888.44 669.99,-1567.8 726,-1656 765.31,-1717.9 834.02,-1771.8 871.94,-1798.7"/>
<polygon fill="black" stroke="black" points="870.252,-1801.79 880.44,-1804.7 874.289,-1796.07 870.252,-1801.79"/>
<text text-anchor="middle" x="468.25" y="-1002.4" font-family="Times,serif" font-size="14.00">0.0044</text>
</g>
<!-- F#4&#45;&#45;D5 -->
<g id="edge60" class="edge"><title>F#4&#45;&#45;D5</title>
<path fill="none" stroke="black" d="M255.21,-206.77C223.96,-218.66 173,-244.55 173,-287 173,-829 173,-829 173,-829 173,-1014.8 322.45,-1008.8 415,-1170 492.69,-1305.3 529,-1346 529,-1502 529,-1684 529,-1684 529,-1684 529,-1846.1 647.06,-1878.2 802,-1926 894.58,-1954.6 920.83,-1950.2 1017,-1962 1169.3,-1980.7 1352,-1991.3 1429,-1995.2"/>
<polygon fill="black" stroke="black" points="1428.94,-1998.7 1439.1,-1995.7 1429.29,-1991.71 1428.94,-1998.7"/>
<text text-anchor="middle" x="396.25" y="-1092.4" font-family="Times,serif" font-size="14.00">0.0044</text>
</g>
<!-- A4 -->
<g id="node50" class="node"><title>A4</title>
<ellipse fill="none" stroke="black" cx="1040" cy="-1548" rx="27" ry="18"/>
<text text-anchor="middle" x="1040" y="-1542.4" font-family="Times,serif" font-size="14.00">A4</text>
</g>
<!-- F#4&#45;&#45;A4 -->
<g id="edge62" class="edge"><title>F#4&#45;&#45;A4</title>
<path fill="none" stroke="black" d="M290.4,-214.66C301.59,-231.62 317,-259.87 317,-287 317,-424 317,-424 317,-424 317,-510.06 405.27,-487.24 484,-522 508.69,-532.9 522.78,-521.05 542,-540 685.85,-681.77 591.44,-791.98 683,-972 709.84,-1024.8 728.45,-1030.5 761,-1080 869.34,-1244.6 986.45,-1451.2 1026,-1521.9"/>
<polygon fill="black" stroke="black" points="1023.16,-1523.99 1031.1,-1531 1029.26,-1520.57 1023.16,-1523.99"/>
<text text-anchor="middle" x="669.25" y="-867.4" font-family="Times,serif" font-size="14.00">0.0044</text>
</g>
<!-- D3&#45;&#45;F3 -->
<g id="edge70" class="edge"><title>D3&#45;&#45;F3</title>
<path fill="none" stroke="black" d="M1011.7,-1897.7C997.18,-1891.3 978.15,-1882.2 962.5,-1872 948.01,-1862.6 933.12,-1850.3 921.41,-1840"/>
<polygon fill="black" stroke="black" points="923.626,-1837.29 913.85,-1833.2 918.944,-1842.49 923.626,-1837.29"/>
<text text-anchor="middle" x="982.25" y="-1857.4" font-family="Times,serif" font-size="14.00">0.0044</text>
</g>
<!-- D3&#45;&#45;G3 -->
<g id="edge66" class="edge"><title>D3&#45;&#45;G3</title>
<path fill="none" stroke="black" d="M1037.8,-1889.7C1039.6,-1879.3 1040.9,-1865.9 1039,-1854 1021.7,-1747.3 959.52,-1727.2 973,-1620 980.28,-1562.1 985.96,-1547.2 1010,-1494 1070.7,-1359.8 1120.1,-1343.1 1174,-1206 1184.3,-1179.7 1188,-1172.2 1188,-1144 1188,-1144 1188,-1144 1188,-917 1188,-896.63 1188.5,-873.6 1189.1,-856.22"/>
<polygon fill="black" stroke="black" points="1192.6,-856.3 1189.4,-846.2 1185.6,-856.091 1192.6,-856.3"/>
<text text-anchor="middle" x="1115.2" y="-1362.4" font-family="Times,serif" font-size="14.00">0.0044</text>
</g>
<!-- F2 -->
<g id="node52" class="node"><title>F2</title>
<ellipse fill="none" stroke="black" cx="810" cy="-738" rx="27" ry="18"/>
<text text-anchor="middle" x="810" y="-732.4" font-family="Times,serif" font-size="14.00">F2</text>
</g>
<!-- D3&#45;&#45;F2 -->
<g id="edge64" class="edge"><title>D3&#45;&#45;F2</title>
<path fill="none" stroke="black" d="M1007.3,-1904.6C971.22,-1900.8 905.11,-1891.7 852,-1872 724.39,-1824.8 662.58,-1789.3 635,-1656 620.4,-1585.4 614.52,-1564.6 629,-1494 680.04,-1245.1 843,-1218 843,-964 843,-964 843,-964 843,-827 843,-804.56 833.48,-780.83 824.66,-763.68"/>
<polygon fill="black" stroke="black" points="827.733,-762.004 819.9,-754.87 821.574,-765.332 827.733,-762.004"/>
<text text-anchor="middle" x="719.25" y="-1317.4" font-family="Times,serif" font-size="14.00">0.0044</text>
</g>
<!-- F#3 -->
<g id="node55" class="node"><title>F#3</title>
<ellipse fill="none" stroke="black" cx="785" cy="-1638" rx="27" ry="18"/>
<text text-anchor="middle" x="785" y="-1632.4" font-family="Times,serif" font-size="14.00">F#3</text>
</g>
<!-- D3&#45;&#45;F#3 -->
<g id="edge68" class="edge"><title>D3&#45;&#45;F#3</title>
<path fill="none" stroke="black" d="M1007.5,-1903.8C952.21,-1895.4 825.97,-1867.4 779.5,-1782 759.63,-1745.5 768.08,-1695.6 776.32,-1665.5"/>
<polygon fill="black" stroke="black" points="779.738,-1666.28 779.18,-1655.7 773.019,-1664.32 779.738,-1666.28"/>
<text text-anchor="middle" x="799.25" y="-1767.4" font-family="Times,serif" font-size="14.00">0.0044</text>
</g>
<!-- B&#45;4 -->
<g id="node58" class="node"><title>B&#45;4</title>
<ellipse fill="none" stroke="black" cx="1609" cy="-468" rx="27" ry="18"/>
<text text-anchor="middle" x="1609" y="-462.4" font-family="Times,serif" font-size="14.00">B&#45;4</text>
</g>
<!-- D3&#45;&#45;B&#45;4 -->
<g id="edge72" class="edge"><title>D3&#45;&#45;B&#45;4</title>
<path fill="none" stroke="black" d="M1058.3,-1899.8C1116.7,-1882.6 1270,-1837.4 1398,-1800 1418.7,-1794 1565.8,-1757.5 1584,-1746 1585.7,-1744.9 1631.3,-1693.9 1632,-1692 1709.1,-1489.2 1597,-1422.7 1586.5,-1206 1585.7,-1190 1586.2,-1186 1586.5,-1170 1589.1,-1018.4 1598,-980.64 1598,-829 1598,-829 1598,-829 1598,-557 1598,-536.47 1601,-513.46 1603.8,-496.11"/>
<polygon fill="black" stroke="black" points="1607.27,-496.582 1605.6,-486.12 1600.38,-495.341 1607.27,-496.582"/>
<text text-anchor="middle" x="1606.2" y="-1182.4" font-family="Times,serif" font-size="14.00">0.0044</text>
</g>
<!-- E4&#45;&#45;C5 -->
<g id="edge110" class="edge"><title>E4&#45;&#45;C5</title>
<path fill="none" stroke="black" d="M1464.7,-2372.5C1427.3,-2403.5 1334.8,-2480.1 1290.5,-2516.8"/>
<polygon fill="black" stroke="black" points="1288.05,-2514.28 1282.5,-2523.3 1292.47,-2519.71 1288.05,-2514.28"/>
<text text-anchor="middle" x="1414.2" y="-2442.4" font-family="Times,serif" font-size="14.00">0.0089</text>
</g>
<!-- G5 -->
<g id="node62" class="node"><title>G5</title>
<ellipse fill="none" stroke="black" cx="1766" cy="-2268" rx="27" ry="18"/>
<text text-anchor="middle" x="1766" y="-2262.4" font-family="Times,serif" font-size="14.00">G5</text>
</g>
<!-- E4&#45;&#45;G5 -->
<g id="edge112" class="edge"><title>E4&#45;&#45;G5</title>
<path fill="none" stroke="black" d="M1508.2,-2357.7C1552.2,-2357.7 1640.6,-2353.5 1707,-2322 1722,-2314.9 1736,-2302.7 1746.6,-2291.8"/>
<polygon fill="black" stroke="black" points="1749.4,-2293.93 1753.6,-2284.2 1744.25,-2289.18 1749.4,-2293.93"/>
<text text-anchor="middle" x="1752.2" y="-2307.4" font-family="Times,serif" font-size="14.00">0.0044</text>
</g>
<!-- F4 -->
<g id="node65" class="node"><title>F4</title>
<ellipse fill="none" stroke="black" cx="731" cy="-198" rx="27" ry="18"/>
<text text-anchor="middle" x="731" y="-192.4" font-family="Times,serif" font-size="14.00">F4</text>
</g>
<!-- E4&#45;&#45;F4 -->
<g id="edge114" class="edge"><title>E4&#45;&#45;F4</title>
<path fill="none" stroke="black" d="M1456.1,-2350.4C1324.6,-2315.1 709.77,-2145.5 566,-2016 433.36,-1896.6 340,-1862.5 340,-1684 340,-1684 340,-1684 340,-1502 340,-1222.9 337,-1153.1 337,-874 337,-874 337,-874 337,-602 337,-559.91 419.17,-478.65 450,-450 482.79,-419.53 501.19,-425.33 535,-396 574.77,-361.51 582.42,-349.55 612,-306 632.33,-276.07 623.44,-258.57 650,-234 662.91,-222.05 680.54,-213.78 696.06,-208.29"/>
<polygon fill="black" stroke="black" points="697.462,-211.514 705.88,-205.08 695.287,-204.86 697.462,-211.514"/>
<text text-anchor="middle" x="359.25" y="-1272.4" font-family="Times,serif" font-size="14.00">0.0044</text>
</g>
<!-- E&#45;5 -->
<g id="node83" class="node"><title>E&#45;5</title>
<ellipse fill="none" stroke="black" cx="2497" cy="-108" rx="27" ry="18"/>
<text text-anchor="middle" x="2497" y="-102.4" font-family="Times,serif" font-size="14.00">E&#45;5</text>
</g>
<!-- E4&#45;&#45;E&#45;5 -->
<g id="edge108" class="edge"><title>E4&#45;&#45;E&#45;5</title>
<path fill="none" stroke="black" d="M1508.4,-2356.9C1568.2,-2356 1714.6,-2350.9 1833,-2322 1979.9,-2286.2 2025.2,-2282.8 2149,-2196 2271.8,-2109.9 2531.5,-1826.4 2598,-1692 2663,-1560.7 2733.7,-1189.9 2720,-1044 2695.7,-785.03 2611,-729.11 2611,-469 2611,-469 2611,-469 2611,-197 2611,-156.15 2564.6,-131.6 2531,-119.18"/>
<polygon fill="black" stroke="black" points="2532.09,-115.855 2521.5,-115.86 2529.79,-122.463 2532.09,-115.855"/>
<text text-anchor="middle" x="2730.2" y="-1227.4" font-family="Times,serif" font-size="14.00">0.0044</text>
</g>
<!-- B3&#45;&#45;F#4 -->
<g id="edge126" class="edge"><title>B3&#45;&#45;F#4</title>
<path fill="none" stroke="black" d="M671.01,-275.64C648.27,-263.27 609.66,-243.93 574,-234 483.69,-208.84 372.89,-201.76 316.23,-199.77"/>
<polygon fill="black" stroke="black" points="316.074,-196.264 305.97,-199.45 315.856,-203.26 316.074,-196.264"/>
<text text-anchor="middle" x="640.25" y="-237.4" font-family="Times,serif" font-size="14.00">0.0044</text>
</g>
<!-- B3&#45;&#45;B3 -->
<g id="edge116" class="edge"><title>B3&#45;&#45;B3</title>
<path fill="none" stroke="black" d="M715.53,-296.12C726.51,-296.89 736,-294.19 736,-288 736,-283.84 731.72,-281.26 725.57,-280.24"/>
<polygon fill="black" stroke="black" points="725.649,-276.741 715.53,-279.88 725.398,-283.736 725.649,-276.741"/>
<text text-anchor="middle" x="755.25" y="-282.4" font-family="Times,serif" font-size="14.00">0.0044</text>
</g>
<!-- B3&#45;&#45;C5 -->
<g id="edge120" class="edge"><title>B3&#45;&#45;C5</title>
<path fill="none" stroke="black" d="M664.91,-292.65C620.05,-299.83 526.64,-318.82 459,-360 340.29,-432.26 261,-463.03 261,-602 261,-784 261,-784 261,-784 261,-880.99 215.07,-896.58 189,-990 127.16,-1211.6 113,-1272 113,-1502 113,-1639 113,-1639 113,-1639 113,-1967.2 133.08,-2122.8 394,-2322 537.15,-2431.3 662.05,-2481.8 739,-2502 831.71,-2526.4 1124.5,-2534.3 1228.7,-2536.4"/>
<polygon fill="black" stroke="black" points="1228.73,-2539.9 1238.8,-2536.6 1228.87,-2532.9 1228.73,-2539.9"/>
<text text-anchor="middle" x="134.25" y="-1407.4" font-family="Times,serif" font-size="14.00">0.0044</text>
</g>
<!-- B3&#45;&#45;F#3 -->
<g id="edge124" class="edge"><title>B3&#45;&#45;F#3</title>
<path fill="none" stroke="black" d="M687.09,-306.11C681.46,-328.27 669.55,-367.43 650,-396 602.91,-464.81 580.97,-476.65 511,-522 494.3,-532.82 480.88,-523.34 470,-540 461.25,-553.4 467.65,-560.17 470,-576 497.07,-757.97 526.35,-799.58 590.5,-972 648.47,-1127.8 695.35,-1154.4 742,-1314 754.37,-1356.3 757,-1367.9 757,-1412 757,-1549 757,-1549 757,-1549 757,-1570.7 764.84,-1594.1 772.22,-1611.3"/>
<polygon fill="black" stroke="black" points="769.124,-1612.95 776.45,-1620.6 775.496,-1610.05 769.124,-1612.95"/>
<text text-anchor="middle" x="610.25" y="-957.4" font-family="Times,serif" font-size="14.00">0.0044</text>
</g>
<!-- B3&#45;&#45;F4 -->
<g id="edge128" class="edge"><title>B3&#45;&#45;F4</title>
<path fill="none" stroke="black" d="M699.7,-270.75C702.75,-264.9 706.13,-258.2 709,-252 712.98,-243.43 717.03,-233.93 720.55,-225.37"/>
<polygon fill="black" stroke="black" points="723.892,-226.442 724.41,-215.86 717.406,-223.81 723.892,-226.442"/>
<text text-anchor="middle" x="736.25" y="-237.4" font-family="Times,serif" font-size="14.00">0.0044</text>
</g>
<!-- B4 -->
<g id="node70" class="node"><title>B4</title>
<ellipse fill="none" stroke="black" cx="2394" cy="-198" rx="27" ry="18"/>
<text text-anchor="middle" x="2394" y="-192.4" font-family="Times,serif" font-size="14.00">B4</text>
</g>
<!-- B3&#45;&#45;B4 -->
<g id="edge122" class="edge"><title>B3&#45;&#45;B4</title>
<path fill="none" stroke="black" d="M718.09,-285.6C915.27,-275.41 2128.3,-212.73 2356.9,-200.92"/>
<polygon fill="black" stroke="black" points="2357.2,-204.409 2367,-200.39 2356.83,-197.419 2357.2,-204.409"/>
<text text-anchor="middle" x="1715.2" y="-237.4" font-family="Times,serif" font-size="14.00">0.0044</text>
</g>
<!-- C#3 -->
<g id="node89" class="node"><title>C#3</title>
<ellipse fill="none" stroke="black" cx="1192" cy="-468" rx="27.2698" ry="18"/>
<text text-anchor="middle" x="1192" y="-462.4" font-family="Times,serif" font-size="14.00">C#3</text>
</g>
<!-- B3&#45;&#45;C#3 -->
<g id="edge118" class="edge"><title>B3&#45;&#45;C#3</title>
<path fill="none" stroke="black" d="M718.24,-289.1C810.51,-290 1109.3,-297.77 1177,-360 1198.5,-379.79 1199.4,-415.17 1196.8,-439.8"/>
<polygon fill="black" stroke="black" points="1193.3,-439.586 1195.5,-449.95 1200.24,-440.476 1193.3,-439.586"/>
<text text-anchor="middle" x="1215.2" y="-372.4" font-family="Times,serif" font-size="14.00">0.0044</text>
</g>
<!-- G#3&#45;&#45;E4 -->
<g id="edge130" class="edge"><title>G#3&#45;&#45;E4</title>
<path fill="none" stroke="black" d="M2085.3,-2443.3C1985.2,-2429.3 1632.3,-2380.1 1517.4,-2364.1"/>
<polygon fill="black" stroke="black" points="1517.79,-2360.62 1507.4,-2362.7 1516.82,-2367.55 1517.79,-2360.62"/>
<text text-anchor="middle" x="1873.2" y="-2397.4" font-family="Times,serif" font-size="14.00">0.0044</text>
</g>
<!-- G#3&#45;&#45;A3 -->
<g id="edge134" class="edge"><title>G#3&#45;&#45;A3</title>
<path fill="none" stroke="black" d="M2098.2,-2432.2C2086.6,-2420.4 2069,-2404.3 2051,-2394 2042.8,-2389.3 1736.6,-2292.7 1730,-2286 1709.9,-2265.3 1711,-2252.8 1711,-2224 1711,-2224 1711,-2224 1711,-1997 1711,-1976.6 1710.7,-1953.6 1710.5,-1936.2"/>
<polygon fill="black" stroke="black" points="1714,-1936.13 1710.3,-1926.2 1707,-1936.27 1714,-1936.13"/>
<text text-anchor="middle" x="1730.2" y="-2172.4" font-family="Times,serif" font-size="14.00">0.0044</text>
</g>
<!-- G#3&#45;&#45;B4 -->
<g id="edge132" class="edge"><title>G#3&#45;&#45;B4</title>
<path fill="none" stroke="black" d="M2138.8,-2444C2206.8,-2435.8 2381,-2409.6 2381,-2359 2381,-2359 2381,-2359 2381,-2132 2381,-1993.4 2505.2,-2002 2553,-1872 2577.3,-1805.8 2624.8,-1312.4 2629,-1242 2641.7,-1030.5 2497,-995.84 2497,-784 2497,-784 2497,-784 2497,-287 2497,-249.44 2456.9,-224.49 2426.8,-211.04"/>
<polygon fill="black" stroke="black" points="2427.97,-207.737 2417.4,-207.08 2425.26,-214.188 2427.97,-207.737"/>
<text text-anchor="middle" x="2642.2" y="-1317.4" font-family="Times,serif" font-size="14.00">0.0044</text>
</g>
<!-- D4 -->
<g id="node99" class="node"><title>D4</title>
<ellipse fill="none" stroke="black" cx="2146" cy="-1098" rx="27" ry="18"/>
<text text-anchor="middle" x="2146" y="-1092.4" font-family="Times,serif" font-size="14.00">D4</text>
</g>
<!-- G#3&#45;&#45;D4 -->
<g id="edge136" class="edge"><title>G#3&#45;&#45;D4</title>
<path fill="none" stroke="black" d="M2131.9,-2435.3C2135.8,-2433.3 2140,-2431.4 2144,-2430 2181.6,-2416.5 2197.7,-2432.5 2232,-2412 2249.9,-2401.3 2252.9,-2394.7 2262,-2376 2362.1,-2171.1 2295,-2092 2295,-1864 2295,-1864 2295,-1864 2295,-1187 2295,-1134.9 2226.5,-1113 2182.4,-1104.3"/>
<polygon fill="black" stroke="black" points="2182.77,-1100.81 2172.3,-1102.4 2181.48,-1107.69 2182.77,-1100.81"/>
<text text-anchor="middle" x="2314.2" y="-1767.4" font-family="Times,serif" font-size="14.00">0.0044</text>
</g>
<!-- D5&#45;&#45;D3 -->
<g id="edge84" class="edge"><title>D5&#45;&#45;D3</title>
<path fill="none" stroke="black" d="M1438.8,-1996.5C1384.6,-1995 1259.5,-1988.7 1158.5,-1962 1124.8,-1953.1 1088.4,-1936.7 1063.7,-1924.5"/>
<polygon fill="black" stroke="black" points="1065.01,-1921.24 1054.5,-1919.9 1061.88,-1927.5 1065.01,-1921.24"/>
<text text-anchor="middle" x="1178.2" y="-1947.4" font-family="Times,serif" font-size="14.00">0.0044</text>
</g>
<!-- D5&#45;&#45;E4 -->
<g id="edge74" class="edge"><title>D5&#45;&#45;E4</title>
<path fill="none" stroke="black" d="M1470.7,-2016.1C1475.1,-2033.7 1481,-2062 1481,-2087 1481,-2269 1481,-2269 1481,-2269 1481,-2289.4 1481,-2312.4 1481,-2329.8"/>
<polygon fill="black" stroke="black" points="1477.5,-2329.8 1481,-2339.8 1484.5,-2329.8 1477.5,-2329.8"/>
<text text-anchor="middle" x="1500.2" y="-2172.4" font-family="Times,serif" font-size="14.00">0.0044</text>
</g>
<!-- D5&#45;&#45;D5 -->
<g id="edge86" class="edge"><title>D5&#45;&#45;D5</title>
<path fill="none" stroke="black" d="M1490.5,-2006.1C1501.5,-2006.9 1511,-2004.2 1511,-1998 1511,-1993.8 1506.7,-1991.3 1500.6,-1990.2"/>
<polygon fill="black" stroke="black" points="1500.6,-1986.7 1490.5,-1989.9 1500.39,-1993.7 1500.6,-1986.7"/>
<text text-anchor="middle" x="1530.2" y="-1992.4" font-family="Times,serif" font-size="14.00">0.0044</text>
</g>
<!-- D5&#45;&#45;C#4 -->
<g id="edge76" class="edge"><title>D5&#45;&#45;C#4</title>
<path fill="none" stroke="black" d="M1484.3,-1984.7C1493.9,-1978.2 1505.7,-1969.9 1516,-1962 1604.8,-1893.8 1623,-1871.7 1709,-1800 1747.6,-1767.9 1861.6,-1701.4 1883,-1656 1940.7,-1533.3 1865.1,-1366.7 1832.1,-1304.1"/>
<polygon fill="black" stroke="black" points="1834.98,-1302.08 1827.1,-1295 1828.85,-1305.45 1834.98,-1302.08"/>
<text text-anchor="middle" x="1915.2" y="-1632.4" font-family="Times,serif" font-size="14.00">0.0044</text>
</g>
<!-- D5&#45;&#45;A3 -->
<g id="edge80" class="edge"><title>D5&#45;&#45;A3</title>
<path fill="none" stroke="black" d="M1487,-1986.6C1511.2,-1974.9 1552.4,-1956 1589.5,-1944 1624,-1932.8 1634.5,-1937 1669,-1926 1672.2,-1925 1675.4,-1923.8 1678.6,-1922.6"/>
<polygon fill="black" stroke="black" points="1680.05,-1925.79 1688.1,-1918.9 1677.51,-1919.27 1680.05,-1925.79"/>
<text text-anchor="middle" x="1609.2" y="-1947.4" font-family="Times,serif" font-size="14.00">0.0044</text>
</g>
<!-- D5&#45;&#45;A4 -->
<g id="edge88" class="edge"><title>D5&#45;&#45;A4</title>
<path fill="none" stroke="black" d="M1439.7,-1993.6C1374.5,-1984.6 1211,-1957 1211,-1909 1211,-1909 1211,-1909 1211,-1637 1211,-1600.4 1180,-1601.7 1148,-1584 1125.2,-1571.4 1097.2,-1562.5 1075.4,-1556.8"/>
<polygon fill="black" stroke="black" points="1076.15,-1553.38 1065.6,-1554.3 1074.42,-1560.16 1076.15,-1553.38"/>
<text text-anchor="middle" x="1230.2" y="-1767.4" font-family="Times,serif" font-size="14.00">0.0044</text>
</g>
<!-- D5&#45;&#45;G5 -->
<g id="edge78" class="edge"><title>D5&#45;&#45;G5</title>
<path fill="none" stroke="black" d="M1480,-2013.4C1485.3,-2019.4 1490.9,-2026.7 1495,-2034 1519.7,-2078.2 1498.7,-2103.4 1531.5,-2142 1585.5,-2205.7 1680.4,-2241.8 1731.3,-2257.5"/>
<polygon fill="black" stroke="black" points="1730.61,-2260.95 1741.2,-2260.5 1732.64,-2254.25 1730.61,-2260.95"/>
<text text-anchor="middle" x="1551.2" y="-2127.4" font-family="Times,serif" font-size="14.00">0.0044</text>
</g>
<!-- D5&#45;&#45;F4 -->
<g id="edge82" class="edge"><title>D5&#45;&#45;F4</title>
<path fill="none" stroke="black" d="M1439.1,-1996.1C1378.9,-1993.9 1229,-1986 1106,-1962 977.93,-1937 567,-1859.5 567,-1729 567,-1729 567,-1729 567,-1412 567,-1309.4 640.19,-1303.8 671,-1206 741.41,-982.44 680.79,-909.13 746,-684 762.94,-625.53 802,-619.88 802,-559 802,-559 802,-559 802,-287 802,-257.84 778.1,-232.89 758.03,-217.09"/>
<polygon fill="black" stroke="black" points="760.13,-214.29 750.03,-211.09 755.93,-219.89 760.13,-214.29"/>
<text text-anchor="middle" x="720.25" y="-1092.4" font-family="Times,serif" font-size="14.00">0.0044</text>
</g>
<!-- C#4&#45;&#45;D3 -->
<g id="edge106" class="edge"><title>C#4&#45;&#45;D3</title>
<path fill="none" stroke="black" d="M1816.6,-1296.3C1809.8,-1366.4 1774.3,-1630.6 1617,-1746 1563.2,-1785.5 1538.8,-1774.9 1477,-1800 1401.8,-1830.6 1387.4,-1850.7 1309,-1872 1225.8,-1894.6 1124.5,-1902.7 1071.1,-1905.5"/>
<polygon fill="black" stroke="black" points="1070.81,-1902.01 1061,-1906 1071.16,-1909 1070.81,-1902.01"/>
<text text-anchor="middle" x="1761.2" y="-1587.4" font-family="Times,serif" font-size="14.00">0.0044</text>
</g>
<!-- C#4&#45;&#45;G#3 -->
<g id="edge96" class="edge"><title>C#4&#45;&#45;G#3</title>
<path fill="none" stroke="black" d="M1831.8,-1293.7C1844.3,-1307.5 1862.8,-1329.1 1876,-1350 1923.2,-1424.8 1925.7,-1448.9 1961,-1530 1978.2,-1569.5 1981.8,-1579.7 1997,-1620 2009.5,-1653.2 2210,-2186.5 2210,-2222 2210,-2359 2210,-2359 2210,-2359 2210,-2378 2168.9,-2409.3 2139.9,-2429"/>
<polygon fill="black" stroke="black" points="2137.76,-2426.22 2131.4,-2434.7 2141.65,-2432.04 2137.76,-2426.22"/>
<text text-anchor="middle" x="2110.2" y="-1857.4" font-family="Times,serif" font-size="14.00">0.0044</text>
</g>
<!-- C#4&#45;&#45;B&#45;4 -->
<g id="edge104" class="edge"><title>C#4&#45;&#45;B&#45;4</title>
<path fill="none" stroke="black" d="M1816.2,-1259.7C1808.5,-1186 1777.6,-898.59 1757,-810 1724.4,-670.1 1735.7,-621.47 1653,-504 1648.5,-497.63 1642.6,-491.84 1636.5,-486.87"/>
<polygon fill="black" stroke="black" points="1638.3,-483.846 1628.2,-480.65 1634.1,-489.448 1638.3,-483.846"/>
<text text-anchor="middle" x="1790.2" y="-867.4" font-family="Times,serif" font-size="14.00">0.0044</text>
</g>
<!-- E5 -->
<g id="node75" class="node"><title>E5</title>
<ellipse fill="none" stroke="black" cx="2184" cy="-1188" rx="27" ry="18"/>
<text text-anchor="middle" x="2184" y="-1182.4" font-family="Times,serif" font-size="14.00">E5</text>
</g>
<!-- C#4&#45;&#45;E5 -->
<g id="edge98" class="edge"><title>C#4&#45;&#45;E5</title>
<path fill="none" stroke="black" d="M1843.2,-1271C1906.9,-1255.6 2074.8,-1215.2 2148.5,-1197.5"/>
<polygon fill="black" stroke="black" points="2149.77,-1200.8 2158.7,-1195.1 2148.16,-1193.98 2149.77,-1200.8"/>
<text text-anchor="middle" x="2053.2" y="-1227.4" font-family="Times,serif" font-size="14.00">0.0044</text>
</g>
<!-- G2 -->
<g id="node77" class="node"><title>G2</title>
<ellipse fill="none" stroke="black" cx="1922" cy="-1188" rx="27" ry="18"/>
<text text-anchor="middle" x="1922" y="-1182.4" font-family="Times,serif" font-size="14.00">G2</text>
</g>
<!-- C#4&#45;&#45;G2 -->
<g id="edge100" class="edge"><title>C#4&#45;&#45;G2</title>
<path fill="none" stroke="black" d="M1834.2,-1263.2C1851.3,-1248.8 1878.4,-1225.9 1898,-1209.3"/>
<polygon fill="black" stroke="black" points="1900.47,-1211.8 1905.9,-1202.7 1895.98,-1206.43 1900.47,-1211.8"/>
<text text-anchor="middle" x="1899.2" y="-1227.4" font-family="Times,serif" font-size="14.00">0.0044</text>
</g>
<!-- G#4 -->
<g id="node79" class="node"><title>G#4</title>
<ellipse fill="none" stroke="black" cx="1085" cy="-378" rx="27.8358" ry="18"/>
<text text-anchor="middle" x="1085" y="-372.4" font-family="Times,serif" font-size="14.00">G#4</text>
</g>
<!-- C#4&#45;&#45;G#4 -->
<g id="edge102" class="edge"><title>C#4&#45;&#45;G#4</title>
<path fill="none" stroke="black" d="M1799.1,-1264.8C1769.4,-1243.9 1715,-1198.3 1715,-1144 1715,-1144 1715,-1144 1715,-737 1715,-609.29 1793.5,-538.03 1701,-450 1615.6,-368.7 1289.7,-413.2 1173,-396 1155.7,-393.45 1136.6,-389.86 1120.7,-386.64"/>
<polygon fill="black" stroke="black" points="1121.2,-383.17 1110.7,-384.59 1119.79,-390.027 1121.2,-383.17"/>
<text text-anchor="middle" x="1734.2" y="-822.4" font-family="Times,serif" font-size="14.00">0.0044</text>
</g>
<!-- G4&#45;&#45;G4 -->
<g id="edge94" class="edge"><title>G4&#45;&#45;G4</title>
<path fill="none" stroke="black" d="M1516.5,-1736.1C1527.5,-1736.9 1537,-1734.2 1537,-1728 1537,-1723.8 1532.7,-1721.3 1526.6,-1720.2"/>
<polygon fill="black" stroke="black" points="1526.6,-1716.7 1516.5,-1719.9 1526.39,-1723.7 1526.6,-1716.7"/>
<text text-anchor="middle" x="1556.2" y="-1722.4" font-family="Times,serif" font-size="14.00">0.0044</text>
</g>
<!-- G4&#45;&#45;F#3 -->
<g id="edge92" class="edge"><title>G4&#45;&#45;F#3</title>
<path fill="none" stroke="black" d="M1465.8,-1723C1441.9,-1719.5 1405.6,-1714.2 1374,-1710 1165.1,-1682.4 913.85,-1653.5 821.41,-1643.1"/>
<polygon fill="black" stroke="black" points="821.774,-1639.62 811.45,-1642 821.005,-1646.58 821.774,-1639.62"/>
<text text-anchor="middle" x="1248.2" y="-1677.4" font-family="Times,serif" font-size="14.00">0.0044</text>
</g>
<!-- G4&#45;&#45;B4 -->
<g id="edge90" class="edge"><title>G4&#45;&#45;B4</title>
<path fill="none" stroke="black" d="M1516.5,-1720.4C1597.3,-1698 1861.2,-1620.4 2059,-1512 2273,-1394.7 2421,-1343.1 2421,-1099 2421,-1099 2421,-1099 2421,-287 2421,-265.36 2413.4,-241.99 2406.3,-224.77"/>
<polygon fill="black" stroke="black" points="2409.42,-223.165 2402.2,-215.41 2403.01,-225.974 2409.42,-223.165"/>
<text text-anchor="middle" x="2440.2" y="-957.4" font-family="Times,serif" font-size="14.00">0.0044</text>
</g>
<!-- C5&#45;&#45;G#3 -->
<g id="edge288" class="edge"><title>C5&#45;&#45;G#3</title>
<path fill="none" stroke="black" d="M1292.7,-2534.2C1416.2,-2521.4 1931.4,-2467.8 2074.8,-2452.9"/>
<polygon fill="black" stroke="black" points="2075.34,-2456.36 2084.9,-2451.8 2074.58,-2449.4 2075.34,-2456.36"/>
<text text-anchor="middle" x="1784.2" y="-2487.4" font-family="Times,serif" font-size="14.00">0.0044</text>
</g>
<!-- C5&#45;&#45;C5 -->
<g id="edge292" class="edge"><title>C5&#45;&#45;C5</title>
<path fill="none" stroke="black" d="M1290.5,-2546.1C1301.5,-2546.9 1311,-2544.2 1311,-2538 1311,-2533.8 1306.7,-2531.3 1300.6,-2530.2"/>
<polygon fill="black" stroke="black" points="1300.6,-2526.7 1290.5,-2529.9 1300.39,-2533.7 1300.6,-2526.7"/>
<text text-anchor="middle" x="1330.2" y="-2532.4" font-family="Times,serif" font-size="14.00">0.0089</text>
</g>
<!-- C5&#45;&#45;A4 -->
<g id="edge296" class="edge"><title>C5&#45;&#45;A4</title>
<path fill="none" stroke="black" d="M1238.9,-2537.6C1194.2,-2537.7 1102.9,-2533.5 1034,-2502 1001,-2486.9 972,-2485.3 972,-2449 972,-2449 972,-2449 972,-2222 972,-2010.3 1134,-1985.7 1134,-1774 1134,-1774 1134,-1774 1134,-1637 1134,-1602.2 1099.3,-1577.2 1072,-1562.9"/>
<polygon fill="black" stroke="black" points="1073.31,-1559.64 1062.8,-1558.3 1070.18,-1565.9 1073.31,-1559.64"/>
<text text-anchor="middle" x="1047.2" y="-2037.4" font-family="Times,serif" font-size="14.00">0.0044</text>
</g>
<!-- C5&#45;&#45;G#4 -->
<g id="edge290" class="edge"><title>C5&#45;&#45;G#4</title>
<path fill="none" stroke="black" d="M1239.1,-2535.9C1122.8,-2530.9 668,-2507.6 668,-2449 668,-2449 668,-2449 668,-2312 668,-2175.5 539.01,-2199.1 425,-2124 363.87,-2083.7 281,-2117.2 281,-2044 281,-2044 281,-2044 281,-1592 281,-1477.3 270.45,-1166.3 346,-1080 391.3,-1028.3 426.64,-1050.2 491,-1026 554.19,-1002.2 574.95,-1006.5 633,-972 654.14,-959.44 657.04,-952.79 675,-936 699.57,-913.04 711.81,-911.48 728,-882 771.48,-802.81 734.77,-765.38 774,-684 840.5,-546.07 863.68,-503.4 988,-414 1006.3,-400.83 1030.1,-392.14 1049.5,-386.72"/>
<polygon fill="black" stroke="black" points="1050.5,-390.075 1059.3,-384.17 1048.74,-383.301 1050.5,-390.075"/>
<text text-anchor="middle" x="300.25" y="-1452.4" font-family="Times,serif" font-size="14.00">0.0044</text>
</g>
<!-- C5&#45;&#45;D4 -->
<g id="edge300" class="edge"><title>C5&#45;&#45;D4</title>
<path fill="none" stroke="black" d="M1293,-2535.6C1372.2,-2531.6 1610.1,-2518.8 1807,-2502 1938.7,-2490.8 2300.4,-2504.3 2395,-2412 2427.1,-2380.7 2419,-2358.8 2419,-2314 2419,-2314 2419,-2314 2419,-2132 2419,-1916.8 2379,-1373.5 2309,-1170 2302.9,-1152.3 2302.1,-1145.1 2287,-1134 2256.6,-1111.7 2213.7,-1103.5 2183.2,-1100.6"/>
<polygon fill="black" stroke="black" points="2183.27,-1097.09 2173,-1099.7 2182.65,-1104.07 2183.27,-1097.09"/>
<text text-anchor="middle" x="2425.2" y="-1812.4" font-family="Times,serif" font-size="14.00">0.0044</text>
</g>
<!-- C#5 -->
<g id="node103" class="node"><title>C#5</title>
<ellipse fill="none" stroke="black" cx="1415" cy="-1458" rx="27.2698" ry="18"/>
<text text-anchor="middle" x="1415" y="-1452.4" font-family="Times,serif" font-size="14.00">C#5</text>
</g>
<!-- C5&#45;&#45;C#5 -->
<g id="edge298" class="edge"><title>C5&#45;&#45;C#5</title>
<path fill="none" stroke="black" d="M1238.8,-2537.9C1180.4,-2538.4 1048,-2530.4 1048,-2449 1048,-2449 1048,-2449 1048,-2312 1048,-2226 1124,-2220 1124,-2134 1124,-2134 1124,-2134 1124,-1997 1124,-1972.6 1121.6,-1962 1138,-1944 1200.5,-1875.4 1280.9,-1948.1 1334,-1872 1338.6,-1865.4 1335.8,-1861.8 1334,-1854 1324.6,-1812.3 1293.6,-1806.3 1300,-1764 1316.4,-1656.3 1333.4,-1631.5 1373,-1530 1379.4,-1513.5 1381,-1509.3 1390,-1494 1392.2,-1490.2 1394.7,-1486.4 1397.3,-1482.6"/>
<polygon fill="black" stroke="black" points="1400.26,-1484.48 1403.2,-1474.3 1394.55,-1480.42 1400.26,-1484.48"/>
<text text-anchor="middle" x="1143.2" y="-1992.4" font-family="Times,serif" font-size="14.00">0.0044</text>
</g>
<!-- F5 -->
<g id="node122" class="node"><title>F5</title>
<ellipse fill="none" stroke="black" cx="2207" cy="-1008" rx="27" ry="18"/>
<text text-anchor="middle" x="2207" y="-1002.4" font-family="Times,serif" font-size="14.00">F5</text>
</g>
<!-- C5&#45;&#45;F5 -->
<g id="edge294" class="edge"><title>C5&#45;&#45;F5</title>
<path fill="none" stroke="black" d="M1293.4,-2537.2C1440.4,-2538.1 2135.1,-2538.1 2335,-2466 2416.5,-2436.6 2457,-2400.6 2457,-2314 2457,-2314 2457,-2314 2457,-2132 2457,-2083.8 2548.2,-1971 2567,-1926 2576.6,-1903.1 2577.9,-1896.6 2581,-1872 2610.3,-1642.5 2447,-1600.4 2447,-1369 2447,-1369 2447,-1369 2447,-1232 2447,-1120 2305,-1048.4 2239.5,-1021.3"/>
<polygon fill="black" stroke="black" points="2240.58,-1017.96 2230,-1017.4 2237.92,-1024.44 2240.58,-1017.96"/>
<text text-anchor="middle" x="2601.2" y="-1767.4" font-family="Times,serif" font-size="14.00">0.0044</text>
</g>
<!-- G3&#45;&#45;C4 -->
<g id="edge244" class="edge"><title>G3&#45;&#45;C4</title>
<path fill="none" stroke="black" d="M1200,-844.91C1227.4,-889.77 1301,-1021.8 1301,-1142 1301,-1279 1301,-1279 1301,-1279 1301,-1323.7 1354.9,-1347.5 1392.5,-1358.7"/>
<polygon fill="black" stroke="black" points="1392.03,-1362.2 1402.6,-1361.5 1393.9,-1355.46 1392.03,-1362.2"/>
<text text-anchor="middle" x="1319.2" y="-1092.4" font-family="Times,serif" font-size="14.00">0.0089</text>
</g>
<!-- G3&#45;&#45;F2 -->
<g id="edge242" class="edge"><title>G3&#45;&#45;F2</title>
<path fill="none" stroke="black" d="M1164.8,-821.16C1098.9,-805.91 921.63,-764.85 845.51,-747.22"/>
<polygon fill="black" stroke="black" points="846.001,-743.741 835.47,-744.9 844.425,-750.562 846.001,-743.741"/>
<text text-anchor="middle" x="1054.2" y="-777.4" font-family="Times,serif" font-size="14.00">0.0044</text>
</g>
<!-- A3&#45;&#45;C3 -->
<g id="edge140" class="edge"><title>A3&#45;&#45;C3</title>
<path fill="none" stroke="black" d="M1705.8,-1925.8C1694.7,-1972.5 1665,-2107.8 1665,-2222 1665,-2629 1665,-2629 1665,-2629 1665,-2691.5 603.81,-2690.6 542,-2700 530.26,-2701.8 517.6,-2704.6 506.32,-2707.4"/>
<polygon fill="black" stroke="black" points="505.194,-2704.08 496.41,-2710 506.971,-2710.85 505.194,-2704.08"/>
<text text-anchor="middle" x="1684.2" y="-2307.4" font-family="Times,serif" font-size="14.00">0.0044</text>
</g>
<!-- A3&#45;&#45;F3 -->
<g id="edge138" class="edge"><title>A3&#45;&#45;F3</title>
<path fill="none" stroke="black" d="M1683.5,-1904.1C1563.9,-1891.1 1074.6,-1838.1 935.85,-1823"/>
<polygon fill="black" stroke="black" points="936.05,-1819.5 925.73,-1821.9 935.293,-1826.46 936.05,-1819.5"/>
<text text-anchor="middle" x="1397.2" y="-1857.4" font-family="Times,serif" font-size="14.00">0.0044</text>
</g>
<!-- A3&#45;&#45;D4 -->
<g id="edge146" class="edge"><title>A3&#45;&#45;D4</title>
<path fill="none" stroke="black" d="M1715.7,-1890.2C1720.2,-1879 1727.3,-1864.4 1737,-1854 1832.5,-1751.7 1925.2,-1805.5 2007,-1692 2088.5,-1579 2055.1,-1523.9 2075,-1386 2085.3,-1314.6 2072.4,-1294.9 2086,-1224 2093.9,-1182.7 2094.2,-1170.5 2115,-1134 2117.6,-1129.4 2120.9,-1125 2124.3,-1120.8"/>
<polygon fill="black" stroke="black" points="2126.92,-1123.12 2130.9,-1113.3 2121.67,-1118.49 2126.92,-1123.12"/>
<text text-anchor="middle" x="2086.2" y="-1497.4" font-family="Times,serif" font-size="14.00">0.0044</text>
</g>
<!-- A3&#45;&#45;C#5 -->
<g id="edge142" class="edge"><title>A3&#45;&#45;C#5</title>
<path fill="none" stroke="black" d="M1685.7,-1899.5C1631.4,-1881.6 1499,-1831.4 1423,-1746 1405.7,-1726.6 1405.6,-1717.5 1400.5,-1692 1385.8,-1618.4 1400,-1529.3 1408.9,-1485.7"/>
<polygon fill="black" stroke="black" points="1412.33,-1486.41 1411,-1475.9 1405.48,-1484.94 1412.33,-1486.41"/>
<text text-anchor="middle" x="1420.2" y="-1677.4" font-family="Times,serif" font-size="14.00">0.0044</text>
</g>
<!-- E&#45;4 -->
<g id="node105" class="node"><title>E&#45;4</title>
<ellipse fill="none" stroke="black" cx="2023" cy="-2178" rx="27" ry="18"/>
<text text-anchor="middle" x="2023" y="-2172.4" font-family="Times,serif" font-size="14.00">E&#45;4</text>
</g>
<!-- A3&#45;&#45;E&#45;4 -->
<g id="edge144" class="edge"><title>A3&#45;&#45;E&#45;4</title>
<path fill="none" stroke="black" d="M1726.1,-1922.5C1758.9,-1950.1 1835.9,-2014.9 1900,-2070 1934.7,-2099.8 1974.7,-2134.7 1999.4,-2156.3"/>
<polygon fill="black" stroke="black" points="1997.29,-2159.1 2007.1,-2163.1 2001.92,-2153.86 1997.29,-2159.1"/>
<text text-anchor="middle" x="1898.2" y="-2037.4" font-family="Times,serif" font-size="14.00">0.0044</text>
</g>
<!-- B&#45;3&#45;&#45;F#4 -->
<g id="edge218" class="edge"><title>B&#45;3&#45;&#45;F#4</title>
<path fill="none" stroke="black" d="M616.09,-541.67C577.95,-493.13 454.07,-339.75 331,-234 323.61,-227.65 315.02,-221.45 306.98,-216.09"/>
<polygon fill="black" stroke="black" points="308.844,-213.127 298.55,-210.62 305.034,-218.999 308.844,-213.127"/>
<text text-anchor="middle" x="512.25" y="-372.4" font-family="Times,serif" font-size="14.00">0.0044</text>
</g>
<!-- B&#45;3&#45;&#45;E4 -->
<g id="edge210" class="edge"><title>B&#45;3&#45;&#45;E4</title>
<path fill="none" stroke="black" d="M617.88,-574.75C614.25,-580.68 610.26,-587.55 607,-594 599.19,-609.47 598.51,-613.94 592,-630 520.95,-805.31 529.69,-861.67 436,-1026 420.94,-1052.4 403.87,-1051.2 394,-1080 380.25,-1120.1 483.34,-1795 494,-1836 504.8,-1877.5 506.06,-1889.7 529,-1926 661.17,-2135 818.8,-2033.6 1049,-2124 1210,-2187.2 1387.2,-2296.6 1453.8,-2339.3"/>
<polygon fill="black" stroke="black" points="1452.09,-2342.36 1462.4,-2344.8 1455.86,-2336.46 1452.09,-2342.36"/>
<text text-anchor="middle" x="457.25" y="-1452.4" font-family="Times,serif" font-size="14.00">0.0044</text>
</g>
<!-- B&#45;3&#45;&#45;B&#45;3 -->
<g id="edge216" class="edge"><title>B&#45;3&#45;&#45;B&#45;3</title>
<path fill="none" stroke="black" d="M652.53,-566.12C663.51,-566.89 673,-564.19 673,-558 673,-553.84 668.72,-551.26 662.57,-550.24"/>
<polygon fill="black" stroke="black" points="662.649,-546.741 652.53,-549.88 662.398,-553.736 662.649,-546.741"/>
<text text-anchor="middle" x="692.25" y="-552.4" font-family="Times,serif" font-size="14.00">0.0044</text>
</g>
<!-- B&#45;3&#45;&#45;B&#45;4 -->
<g id="edge220" class="edge"><title>B&#45;3&#45;&#45;B&#45;4</title>
<path fill="none" stroke="black" d="M654.75,-554.6C791.63,-542.32 1413.5,-486.54 1572.1,-472.31"/>
<polygon fill="black" stroke="black" points="1572.65,-475.775 1582.3,-471.4 1572.03,-468.803 1572.65,-475.775"/>
<text text-anchor="middle" x="1226.2" y="-507.4" font-family="Times,serif" font-size="14.00">0.0044</text>
</g>
<!-- B&#45;3&#45;&#45;C#3 -->
<g id="edge212" class="edge"><title>B&#45;3&#45;&#45;C#3</title>
<path fill="none" stroke="black" d="M654.07,-552.93C745.29,-538.7 1050.3,-491.12 1155.7,-474.66"/>
<polygon fill="black" stroke="black" points="1156.55,-478.07 1165.9,-473.08 1155.48,-471.152 1156.55,-478.07"/>
<text text-anchor="middle" x="980.25" y="-507.4" font-family="Times,serif" font-size="14.00">0.0044</text>
</g>
<!-- F#2 -->
<g id="node146" class="node"><title>F#2</title>
<ellipse fill="none" stroke="black" cx="486" cy="-468" rx="27" ry="18"/>
<text text-anchor="middle" x="486" y="-462.4" font-family="Times,serif" font-size="14.00">F#2</text>
</g>
<!-- B&#45;3&#45;&#45;F#2 -->
<g id="edge214" class="edge"><title>B&#45;3&#45;&#45;F#2</title>
<path fill="none" stroke="black" d="M604.38,-548.97C595.25,-545.98 584.69,-542.67 575,-540 540.91,-530.59 522.32,-547.19 497.5,-522 490.78,-515.18 487.58,-505.41 486.17,-496.11"/>
<polygon fill="black" stroke="black" points="489.641,-495.637 485.24,-486 482.671,-496.279 489.641,-495.637"/>
<text text-anchor="middle" x="517.25" y="-507.4" font-family="Times,serif" font-size="14.00">0.0044</text>
</g>
<!-- B&#45;2&#45;&#45;F#3 -->
<g id="edge222" class="edge"><title>B&#45;2&#45;&#45;F#3</title>
<path fill="none" stroke="black" d="M1187.3,-1476C1179.7,-1500 1162.6,-1543.2 1132,-1566 1082.9,-1602.5 900.35,-1625.2 821.57,-1633.4"/>
<polygon fill="black" stroke="black" points="821.165,-1629.92 811.61,-1634.5 821.934,-1636.88 821.165,-1629.92"/>
<text text-anchor="middle" x="1183.2" y="-1542.4" font-family="Times,serif" font-size="14.00">0.0044</text>
</g>
<!-- B&#45;2&#45;&#45;D4 -->
<g id="edge226" class="edge"><title>B&#45;2&#45;&#45;D4</title>
<path fill="none" stroke="black" d="M1211.2,-1445C1246.2,-1423.7 1322.8,-1378.5 1392,-1350 1469.2,-1318.1 1493.2,-1323.6 1572,-1296 1713.9,-1246.3 1744.4,-1220.5 1886,-1170 1936.4,-1152 1949.4,-1148.3 2001,-1134 2038.3,-1123.7 2081.4,-1113.5 2110.9,-1106.8"/>
<polygon fill="black" stroke="black" points="2111.71,-1110.21 2120.7,-1104.6 2110.18,-1103.38 2111.71,-1110.21"/>
<text text-anchor="middle" x="1685.2" y="-1272.4" font-family="Times,serif" font-size="14.00">0.0044</text>
</g>
<!-- E2 -->
<g id="node152" class="node"><title>E2</title>
<ellipse fill="none" stroke="black" cx="1204" cy="-1368" rx="27" ry="18"/>
<text text-anchor="middle" x="1204" y="-1362.4" font-family="Times,serif" font-size="14.00">E2</text>
</g>
<!-- B&#45;2&#45;&#45;E2 -->
<g id="edge224" class="edge"><title>B&#45;2&#45;&#45;E2</title>
<path fill="none" stroke="black" d="M1194.3,-1440C1196,-1427.7 1198.3,-1410.7 1200.3,-1396.5"/>
<polygon fill="black" stroke="black" points="1203.82,-1396.58 1201.7,-1386.2 1196.88,-1395.64 1203.82,-1396.58"/>
<text text-anchor="middle" x="1219.2" y="-1407.4" font-family="Times,serif" font-size="14.00">0.0044</text>
</g>
<!-- A4&#45;&#45;G3 -->
<g id="edge228" class="edge"><title>A4&#45;&#45;G3</title>
<path fill="none" stroke="black" d="M1045.3,-1530.2C1054.4,-1501.1 1073.3,-1439.2 1086,-1386 1103.4,-1312.9 1150,-1129.1 1150,-1054 1150,-1054 1150,-1054 1150,-917 1150,-893.78 1161.7,-869.95 1172.4,-852.95"/>
<polygon fill="black" stroke="black" points="1175.56,-854.521 1178.2,-844.26 1169.74,-850.635 1175.56,-854.521"/>
<text text-anchor="middle" x="1154.2" y="-1182.4" font-family="Times,serif" font-size="14.00">0.0044</text>
</g>
<!-- A4&#45;&#45;B&#45;3 -->
<g id="edge230" class="edge"><title>A4&#45;&#45;B&#45;3</title>
<path fill="none" stroke="black" d="M1035.9,-1530.1C1028.3,-1495.9 1013.3,-1416.4 1022,-1350 1033.9,-1259.7 1063.1,-1242.3 1075,-1152 1086.1,-1067.9 1082.3,-833.63 1022,-774 979.58,-732.07 941.5,-784.31 889,-756 846.99,-733.35 788.2,-619.72 748,-594 722.73,-577.83 689.75,-568.92 664.77,-564.14"/>
<polygon fill="black" stroke="black" points="665.047,-560.635 654.59,-562.34 663.828,-567.528 665.047,-560.635"/>
<text text-anchor="middle" x="1099.2" y="-1047.4" font-family="Times,serif" font-size="14.00">0.0044</text>
</g>
<!-- A4&#45;&#45;B&#45;2 -->
<g id="edge234" class="edge"><title>A4&#45;&#45;B&#45;2</title>
<path fill="none" stroke="black" d="M1060.5,-1536.1C1072.5,-1529.5 1087.9,-1520.7 1101,-1512 1112,-1504.7 1113.4,-1501.1 1124.5,-1494 1136.2,-1486.6 1149.6,-1479.4 1161.4,-1473.4"/>
<polygon fill="black" stroke="black" points="1163.02,-1476.5 1170.5,-1469 1159.97,-1470.2 1163.02,-1476.5"/>
<text text-anchor="middle" x="1144.2" y="-1497.4" font-family="Times,serif" font-size="14.00">0.0044</text>
</g>
<!-- A4&#45;&#45;A4 -->
<g id="edge236" class="edge"><title>A4&#45;&#45;A4</title>
<path fill="none" stroke="black" d="M1064.5,-1556.1C1075.5,-1556.9 1085,-1554.2 1085,-1548 1085,-1543.8 1080.7,-1541.3 1074.6,-1540.2"/>
<polygon fill="black" stroke="black" points="1074.6,-1536.7 1064.5,-1539.9 1074.39,-1543.7 1074.6,-1536.7"/>
<text text-anchor="middle" x="1104.2" y="-1542.4" font-family="Times,serif" font-size="14.00">0.0044</text>
</g>
<!-- A4&#45;&#45;B&#45;4 -->
<g id="edge232" class="edge"><title>A4&#45;&#45;B&#45;4</title>
<path fill="none" stroke="black" d="M1052.7,-1532C1057.6,-1525.9 1063.2,-1518.7 1068,-1512 1116.7,-1442.8 1120.5,-1420 1168,-1350 1256.1,-1220.2 1316.2,-1208.6 1372,-1062 1417.2,-943.24 1410.9,-597.48 1497,-504 1516.1,-483.28 1547.2,-474.73 1571.8,-471.25"/>
<polygon fill="black" stroke="black" points="1572.38,-474.705 1581.9,-470.05 1571.56,-467.754 1572.38,-474.705"/>
<text text-anchor="middle" x="1410.2" y="-1002.4" font-family="Times,serif" font-size="14.00">0.0044</text>
</g>
<!-- A4&#45;&#45;D4 -->
<g id="edge240" class="edge"><title>A4&#45;&#45;D4</title>
<path fill="none" stroke="black" d="M1066,-1542C1092.1,-1536.4 1133.3,-1526.3 1167,-1512 1196,-1499.7 1203.5,-1495.8 1228,-1476 1244.9,-1462.3 1241.5,-1449.6 1261,-1440 1300.8,-1420.3 1416.5,-1430.7 1460,-1422 1591.1,-1395.8 1619.9,-1373.3 1747,-1332 1794.7,-1316.5 1809.9,-1320 1854,-1296 1887.9,-1277.6 1892.7,-1267.1 1922,-1242 1975.7,-1196 1978,-1169.8 2039,-1134 2061.3,-1120.9 2089,-1112 2110.7,-1106.5"/>
<polygon fill="black" stroke="black" points="2111.62,-1109.88 2120.5,-1104.1 2109.95,-1103.08 2111.62,-1109.88"/>
<text text-anchor="middle" x="1832.2" y="-1317.4" font-family="Times,serif" font-size="14.00">0.0044</text>
</g>
<!-- A4&#45;&#45;C#5 -->
<g id="edge238" class="edge"><title>A4&#45;&#45;C#5</title>
<path fill="none" stroke="black" d="M1065.8,-1542.4C1100.1,-1536.2 1162.9,-1524.3 1216,-1512 1274.3,-1498.5 1341.5,-1480 1381,-1468.8"/>
<polygon fill="black" stroke="black" points="1381.98,-1472.16 1390.6,-1466 1380.02,-1465.44 1381.98,-1472.16"/>
<text text-anchor="middle" x="1307.2" y="-1497.4" font-family="Times,serif" font-size="14.00">0.0044</text>
</g>
<!-- F2&#45;&#45;E3 -->
<g id="edge278" class="edge"><title>F2&#45;&#45;E3</title>
<path fill="none" stroke="black" d="M808.45,-756.18C806.98,-773.91 805,-802.36 805,-827 805,-964 805,-964 805,-964 805,-1014.8 487.89,-1220.4 456,-1260 410.55,-1316.4 398.01,-1333.9 379.5,-1404 373.48,-1426.8 378,-1433.4 378,-1457 378,-1864 378,-1864 378,-1864 378,-1902.1 433.24,-1986.3 457,-2016 471.71,-2034.4 490.89,-2052.9 505.91,-2066.4"/>
<polygon fill="black" stroke="black" points="503.938,-2069.33 513.76,-2073.3 508.56,-2064.07 503.938,-2069.33"/>
<text text-anchor="middle" x="399.25" y="-1407.4" font-family="Times,serif" font-size="14.00">0.0044</text>
</g>
<!-- G#2 -->
<g id="node117" class="node"><title>G#2</title>
<ellipse fill="none" stroke="black" cx="698" cy="-648" rx="27.8358" ry="18"/>
<text text-anchor="middle" x="698" y="-642.4" font-family="Times,serif" font-size="14.00">G#2</text>
</g>
<!-- F2&#45;&#45;G#2 -->
<g id="edge276" class="edge"><title>F2&#45;&#45;G#2</title>
<path fill="none" stroke="black" d="M792.99,-723.63C774.3,-708.95 744.1,-685.22 722.78,-668.47"/>
<polygon fill="black" stroke="black" points="724.826,-665.626 714.8,-662.2 720.501,-671.13 724.826,-665.626"/>
<text text-anchor="middle" x="784.25" y="-687.4" font-family="Times,serif" font-size="14.00">0.0044</text>
</g>
<!-- F#3&#45;&#45;E&#45;3 -->
<g id="edge252" class="edge"><title>F#3&#45;&#45;E&#45;3</title>
<path fill="none" stroke="black" d="M764.2,-1649.9C740.01,-1663 699.28,-1686.1 667,-1710 487.56,-1842.8 439.64,-1908.2 382.5,-2124 355.03,-2227.8 446,-2249.7 446,-2357 446,-2539 446,-2539 446,-2539 446,-2599.5 531.17,-2618.4 581.99,-2624.3"/>
<polygon fill="black" stroke="black" points="581.647,-2627.78 591.97,-2625.4 582.414,-2620.83 581.647,-2627.78"/>
<text text-anchor="middle" x="402.25" y="-2127.4" font-family="Times,serif" font-size="14.00">0.0044</text>
</g>
<!-- F#3&#45;&#45;C#4 -->
<g id="edge248" class="edge"><title>F#3&#45;&#45;C#4</title>
<path fill="none" stroke="black" d="M811.88,-1635.2C863.74,-1631.4 981.03,-1621.3 1078,-1602 1136,-1590.5 1160.7,-1603.9 1206,-1566 1233.3,-1543.2 1220,-1522.7 1241,-1494 1295.7,-1419.1 1309,-1391.5 1392,-1350 1400.8,-1345.6 1680.7,-1300.8 1781.9,-1284.7"/>
<polygon fill="black" stroke="black" points="1782.67,-1288.12 1792,-1283.1 1781.58,-1281.21 1782.67,-1288.12"/>
<text text-anchor="middle" x="1299.2" y="-1452.4" font-family="Times,serif" font-size="14.00">0.0044</text>
</g>
<!-- F#3&#45;&#45;B&#45;3 -->
<g id="edge254" class="edge"><title>F#3&#45;&#45;B&#45;3</title>
<path fill="none" stroke="black" d="M787.39,-1619.9C797.96,-1543.2 839.08,-1230.4 821,-1134 787.49,-955.37 717.01,-930.14 665,-756 647.33,-696.82 636.37,-625.01 631.32,-586.53"/>
<polygon fill="black" stroke="black" points="634.733,-585.624 629.99,-576.15 627.789,-586.514 634.733,-585.624"/>
<text text-anchor="middle" x="837.25" y="-1092.4" font-family="Times,serif" font-size="14.00">0.0044</text>
</g>
<!-- F#3&#45;&#45;A4 -->
<g id="edge256" class="edge"><title>F#3&#45;&#45;A4</title>
<path fill="none" stroke="black" d="M808.53,-1628.9C854.17,-1613.1 954.8,-1578.4 1007.1,-1560.4"/>
<polygon fill="black" stroke="black" points="1008.22,-1563.71 1016.5,-1557.1 1005.91,-1557.11 1008.22,-1563.71"/>
<text text-anchor="middle" x="955.25" y="-1587.4" font-family="Times,serif" font-size="14.00">0.0044</text>
</g>
<!-- F#3&#45;&#45;F#3 -->
<g id="edge250" class="edge"><title>F#3&#45;&#45;F#3</title>
<path fill="none" stroke="black" d="M809.53,-1646.1C820.51,-1646.9 830,-1644.2 830,-1638 830,-1633.8 825.72,-1631.3 819.57,-1630.2"/>
<polygon fill="black" stroke="black" points="819.63,-1626.7 809.53,-1629.9 819.421,-1633.7 819.63,-1626.7"/>
<text text-anchor="middle" x="849.25" y="-1632.4" font-family="Times,serif" font-size="14.00">0.0044</text>
</g>
<!-- B&#45;4&#45;&#45;D5 -->
<g id="edge196" class="edge"><title>B&#45;4&#45;&#45;D5</title>
<path fill="none" stroke="black" d="M1618,-484.99C1626.8,-502.21 1639,-530.69 1639,-557 1639,-1234 1639,-1234 1639,-1234 1639,-1262.2 1634.4,-1274.8 1653,-1296 1668.3,-1313.4 1688.6,-1295.1 1702,-1314 1750.6,-1382.5 1730.4,-1612.6 1703,-1692 1680.4,-1757.5 1539.7,-1916.2 1486.4,-1974.8"/>
<polygon fill="black" stroke="black" points="1483.63,-1972.64 1479.5,-1982.4 1488.81,-1977.35 1483.63,-1972.64"/>
<text text-anchor="middle" x="1658.2" y="-1227.4" font-family="Times,serif" font-size="14.00">0.0044</text>
</g>
<!-- B&#45;4&#45;&#45;G4 -->
<g id="edge198" class="edge"><title>B&#45;4&#45;&#45;G4</title>
<path fill="none" stroke="black" d="M1585.8,-477.84C1556.8,-490.55 1511,-516.98 1511,-557 1511,-964 1511,-964 1511,-964 1511,-1095.6 1508.7,-1128.4 1508,-1260 1507.9,-1276 1506.3,-1280.1 1508,-1296 1510.7,-1320.4 1515.7,-1325.8 1520,-1350 1528.8,-1399.8 1552.5,-1497.9 1544,-1566 1536.8,-1623.3 1533.6,-1638.4 1512,-1692 1510.6,-1695.3 1509,-1698.8 1507.3,-1702.1"/>
<polygon fill="black" stroke="black" points="1504.1,-1700.66 1502.3,-1711.1 1510.22,-1704.06 1504.1,-1700.66"/>
<text text-anchor="middle" x="1530.2" y="-1092.4" font-family="Times,serif" font-size="14.00">0.0044</text>
</g>
<!-- B&#45;4&#45;&#45;G3 -->
<g id="edge192" class="edge"><title>B&#45;4&#45;&#45;G3</title>
<path fill="none" stroke="black" d="M1582,-469.34C1546.4,-470.89 1482.6,-477.52 1436,-504 1371.9,-540.4 1248.3,-732.94 1205.3,-802.17"/>
<polygon fill="black" stroke="black" points="1202.05,-800.769 1199.7,-811.1 1207.98,-804.487 1202.05,-800.769"/>
<text text-anchor="middle" x="1339.2" y="-642.4" font-family="Times,serif" font-size="14.00">0.0044</text>
</g>
<!-- B&#45;4&#45;&#45;B&#45;4 -->
<g id="edge194" class="edge"><title>B&#45;4&#45;&#45;B&#45;4</title>
<path fill="none" stroke="black" d="M1633.5,-476.12C1644.5,-476.89 1654,-474.19 1654,-468 1654,-463.84 1649.7,-461.26 1643.6,-460.24"/>
<polygon fill="black" stroke="black" points="1643.62,-456.739 1633.5,-459.88 1643.37,-463.734 1643.62,-456.739"/>
<text text-anchor="middle" x="1673.2" y="-462.4" font-family="Times,serif" font-size="14.00">0.0044</text>
</g>
<!-- B&#45;4&#45;&#45;E&#45;5 -->
<g id="edge190" class="edge"><title>B&#45;4&#45;&#45;E&#45;5</title>
<path fill="none" stroke="black" d="M1631,-457.47C1658,-444.15 1700,-417.24 1700,-379 1700,-379 1700,-379 1700,-197 1700,-171.14 1702.6,-158.5 1724,-144 1754.8,-123.17 2309.4,-112.21 2459.7,-109.61"/>
<polygon fill="black" stroke="black" points="2459.86,-113.108 2469.8,-109.44 2459.74,-106.109 2459.86,-113.108"/>
<text text-anchor="middle" x="1719.2" y="-282.4" font-family="Times,serif" font-size="14.00">0.0044</text>
</g>
<!-- B&#45;4&#45;&#45;E&#45;4 -->
<g id="edge200" class="edge"><title>B&#45;4&#45;&#45;E&#45;4</title>
<path fill="none" stroke="black" d="M1634.4,-474.48C1656.1,-479.87 1687.5,-489.42 1712,-504 1732.3,-516.06 1735.3,-522.39 1751,-540 1793.9,-588.07 1891.7,-717.18 1922,-774 2029.9,-976.14 2051.7,-1034.8 2094,-1260 2113.4,-1363.4 2122,-1389.1 2130,-1494 2138.6,-1606 2121.7,-1634.2 2111,-1746 2109.5,-1762 2110.6,-1766.3 2107,-1782 2099.3,-1815.1 2089.8,-1821.1 2081,-1854 2052.1,-1961.8 2033.5,-2093.8 2026.3,-2149.8"/>
<polygon fill="black" stroke="black" points="2022.79,-2149.64 2025,-2160 2029.74,-2150.52 2022.79,-2149.64"/>
<text text-anchor="middle" x="2127.2" y="-1317.4" font-family="Times,serif" font-size="14.00">0.0044</text>
</g>
<!-- G5&#45;&#45;G5 -->
<g id="edge182" class="edge"><title>G5&#45;&#45;G5</title>
<path fill="none" stroke="black" d="M1790.5,-2276.1C1801.5,-2276.9 1811,-2274.2 1811,-2268 1811,-2263.8 1806.7,-2261.3 1800.6,-2260.2"/>
<polygon fill="black" stroke="black" points="1800.6,-2256.7 1790.5,-2259.9 1800.39,-2263.7 1800.6,-2256.7"/>
<text text-anchor="middle" x="1830.2" y="-2262.4" font-family="Times,serif" font-size="14.00">0.0133</text>
</g>
<!-- G5&#45;&#45;E&#45;4 -->
<g id="edge184" class="edge"><title>G5&#45;&#45;E&#45;4</title>
<path fill="none" stroke="black" d="M1789.7,-2258.9C1835.7,-2243.1 1937.1,-2208.4 1989.8,-2190.4"/>
<polygon fill="black" stroke="black" points="1991,-2193.69 1999.3,-2187.1 1988.71,-2187.08 1991,-2193.69"/>
<text text-anchor="middle" x="1937.2" y="-2217.4" font-family="Times,serif" font-size="14.00">0.0044</text>
</g>
<!-- F4&#45;&#45;E3 -->
<g id="edge188" class="edge"><title>F4&#45;&#45;E3</title>
<path fill="none" stroke="black" d="M704.71,-203.23C639.37,-214.62 465.83,-250.14 341,-324 225.48,-392.35 223,-467.77 223,-602 223,-829 223,-829 223,-829 223,-982.59 179.49,-1016.9 167,-1170 151.39,-1361.4 152.55,-1410.6 168,-1602 173.22,-1666.6 171.58,-1684.2 191,-1746 217.62,-1830.8 223.46,-1855.9 278,-1926 316.14,-1975.1 334.42,-1979.9 385,-2016 410.31,-2034.1 417.21,-2038 445,-2052 461.89,-2060.5 481.34,-2068.6 497.37,-2074.9"/>
<polygon fill="black" stroke="black" points="496.269,-2078.23 506.86,-2078.5 498.752,-2071.68 496.269,-2078.23"/>
<text text-anchor="middle" x="190.25" y="-1137.4" font-family="Times,serif" font-size="14.00">0.0044</text>
</g>
<!-- F4&#45;&#45;F4 -->
<g id="edge186" class="edge"><title>F4&#45;&#45;F4</title>
<path fill="none" stroke="black" d="M755.53,-206.12C766.51,-206.89 776,-204.19 776,-198 776,-193.84 771.72,-191.26 765.57,-190.24"/>
<polygon fill="black" stroke="black" points="765.649,-186.741 755.53,-189.88 765.398,-193.736 765.649,-186.741"/>
<text text-anchor="middle" x="795.25" y="-192.4" font-family="Times,serif" font-size="14.00">0.0044</text>
</g>
<!-- B4&#45;&#45;C5 -->
<g id="edge310" class="edge"><title>B4&#45;&#45;C5</title>
<path fill="none" stroke="black" d="M2420.2,-203.17C2461,-211.31 2535,-233.47 2535,-287 2535,-604 2535,-604 2535,-604 2535,-893.4 2689.2,-938.08 2734,-1224 2783.3,-1539 2691.4,-1625.1 2586,-1926 2569.5,-1973.2 2495,-2082 2495,-2132 2495,-2314 2495,-2314 2495,-2314 2495,-2397.7 2458.5,-2427.9 2384,-2466 2321,-2498.2 2299.1,-2492.7 2229,-2502 2045.2,-2526.5 1457.6,-2534.8 1303.4,-2536.6"/>
<polygon fill="black" stroke="black" points="1302.97,-2533.1 1293,-2536.7 1303.03,-2540.1 1302.97,-2533.1"/>
<text text-anchor="middle" x="2766.2" y="-1362.4" font-family="Times,serif" font-size="14.00">0.0044</text>
</g>
<!-- B4&#45;&#45;B4 -->
<g id="edge312" class="edge"><title>B4&#45;&#45;B4</title>
<path fill="none" stroke="black" d="M2418.5,-206.12C2429.5,-206.89 2439,-204.19 2439,-198 2439,-193.84 2434.7,-191.26 2428.6,-190.24"/>
<polygon fill="black" stroke="black" points="2428.62,-186.739 2418.5,-189.88 2428.37,-193.734 2428.62,-186.739"/>
<text text-anchor="middle" x="2458.2" y="-192.4" font-family="Times,serif" font-size="14.00">0.0044</text>
</g>
<!-- B4&#45;&#45;E5 -->
<g id="edge306" class="edge"><title>B4&#45;&#45;E5</title>
<path fill="none" stroke="black" d="M2385.8,-215.41C2377.8,-232.75 2367,-261.11 2367,-287 2367,-1054 2367,-1054 2367,-1054 2367,-1126.5 2271.8,-1163.6 2218.8,-1178.7"/>
<polygon fill="black" stroke="black" points="2217.85,-1175.33 2209.1,-1181.3 2219.67,-1182.09 2217.85,-1175.33"/>
<text text-anchor="middle" x="2386.2" y="-687.4" font-family="Times,serif" font-size="14.00">0.0044</text>
</g>
<!-- B4&#45;&#45;E&#45;5 -->
<g id="edge308" class="edge"><title>B4&#45;&#45;E&#45;5</title>
<path fill="none" stroke="black" d="M2410.1,-183.25C2427,-168.78 2453.9,-145.86 2473.2,-129.31"/>
<polygon fill="black" stroke="black" points="2475.67,-131.805 2481,-122.65 2471.12,-126.482 2475.67,-131.805"/>
<text text-anchor="middle" x="2473.2" y="-147.4" font-family="Times,serif" font-size="14.00">0.0044</text>
</g>
<!-- B4&#45;&#45;C#3 -->
<g id="edge302" class="edge"><title>B4&#45;&#45;C#3</title>
<path fill="none" stroke="black" d="M2367,-198.69C2288.6,-198.24 2054.4,-200.05 1864,-234 1836.2,-238.96 1830.6,-245.97 1803,-252 1748.2,-263.97 1728.5,-245.55 1678,-270 1657.1,-280.13 1659.8,-293.81 1640,-306 1499.6,-392.44 1305.9,-441.94 1227.3,-459.57"/>
<polygon fill="black" stroke="black" points="1226.41,-456.183 1217.4,-461.76 1227.92,-463.017 1226.41,-456.183"/>
<text text-anchor="middle" x="1625.2" y="-327.4" font-family="Times,serif" font-size="14.00">0.0044</text>
</g>
<!-- B4&#45;&#45;E&#45;4 -->
<g id="edge314" class="edge"><title>B4&#45;&#45;E&#45;4</title>
<path fill="none" stroke="black" d="M2411.8,-211.73C2431,-227.16 2459,-255.09 2459,-287 2459,-784 2459,-784 2459,-784 2459,-983.68 2493,-1032.3 2493,-1232 2493,-1459 2493,-1459 2493,-1459 2493,-1626.1 2360.7,-1621.7 2273,-1764 2183.1,-1909.9 2179.3,-1956.8 2095,-2106 2085.8,-2122.3 2085.8,-2128.3 2073,-2142 2066.7,-2148.7 2059,-2154.8 2051.5,-2160"/>
<polygon fill="black" stroke="black" points="2049.36,-2157.22 2043,-2165.7 2053.25,-2163.04 2049.36,-2157.22"/>
<text text-anchor="middle" x="2511.2" y="-1182.4" font-family="Times,serif" font-size="14.00">0.0044</text>
</g>
<!-- B2 -->
<g id="node138" class="node"><title>B2</title>
<ellipse fill="none" stroke="black" cx="1844" cy="-918" rx="27" ry="18"/>
<text text-anchor="middle" x="1844" y="-912.4" font-family="Times,serif" font-size="14.00">B2</text>
</g>
<!-- B4&#45;&#45;B2 -->
<g id="edge304" class="edge"><title>B4&#45;&#45;B2</title>
<path fill="none" stroke="black" d="M2367.2,-200.68C2260.9,-207.68 1875,-236.56 1875,-287 1875,-514 1875,-514 1875,-514 1875,-655.62 1855.7,-824.42 1847.6,-889.52"/>
<polygon fill="black" stroke="black" points="1844.09,-889.389 1846.3,-899.75 1851.03,-890.271 1844.09,-889.389"/>
<text text-anchor="middle" x="1894.2" y="-552.4" font-family="Times,serif" font-size="14.00">0.0044</text>
</g>
<!-- E5&#45;&#45;E5 -->
<g id="edge324" class="edge"><title>E5&#45;&#45;E5</title>
<path fill="none" stroke="black" d="M2208.5,-1196.1C2219.5,-1196.9 2229,-1194.2 2229,-1188 2229,-1183.8 2224.7,-1181.3 2218.6,-1180.2"/>
<polygon fill="black" stroke="black" points="2218.6,-1176.7 2208.5,-1179.9 2218.39,-1183.7 2218.6,-1176.7"/>
<text text-anchor="middle" x="2248.2" y="-1182.4" font-family="Times,serif" font-size="14.00">0.0044</text>
</g>
<!-- E5&#45;&#45;D4 -->
<g id="edge326" class="edge"><title>E5&#45;&#45;D4</title>
<path fill="none" stroke="black" d="M2176.9,-1170.4C2171.3,-1157.7 2163.6,-1139.7 2157.2,-1125"/>
<polygon fill="black" stroke="black" points="2160.28,-1123.29 2153.1,-1115.5 2153.85,-1126.07 2160.28,-1123.29"/>
<text text-anchor="middle" x="2188.2" y="-1137.4" font-family="Times,serif" font-size="14.00">0.0044</text>
</g>
<!-- G2&#45;&#45;G#3 -->
<g id="edge328" class="edge"><title>G2&#45;&#45;G#3</title>
<path fill="none" stroke="black" d="M1934.3,-1204.1C1968.5,-1246.7 2064.9,-1372.8 2112,-1494 2171.7,-1647.4 2248,-2057.4 2248,-2222 2248,-2359 2248,-2359 2248,-2359 2248,-2415 2194.7,-2406.2 2144,-2430 2143.2,-2430.4 2142.3,-2430.8 2141.5,-2431.2"/>
<polygon fill="black" stroke="black" points="2139.88,-2428.1 2132.5,-2435.7 2143.01,-2434.36 2139.88,-2428.1"/>
<text text-anchor="middle" x="2218.2" y="-1812.4" font-family="Times,serif" font-size="14.00">0.0044</text>
</g>
<!-- G#4&#45;&#45;B3 -->
<g id="edge280" class="edge"><title>G#4&#45;&#45;B3</title>
<path fill="none" stroke="black" d="M1059.5,-371.29C991.15,-356.04 804.24,-314.29 726.08,-296.84"/>
<polygon fill="black" stroke="black" points="726.752,-293.404 716.23,-294.64 725.227,-300.236 726.752,-293.404"/>
<text text-anchor="middle" x="943.25" y="-327.4" font-family="Times,serif" font-size="14.00">0.0044</text>
</g>
<!-- G#4&#45;&#45;F#3 -->
<g id="edge286" class="edge"><title>G#4&#45;&#45;F#3</title>
<path fill="none" stroke="black" d="M1061,-386.71C1029.4,-398.51 978,-424.31 978,-467 978,-694 978,-694 978,-694 978,-730.18 968.96,-738.32 963,-774 904.43,-1124.9 902.02,-1214.5 847,-1566 844.49,-1582 850.01,-1588.5 841,-1602 835.03,-1610.9 825.92,-1618 816.78,-1623.4"/>
<polygon fill="black" stroke="black" points="814.924,-1620.42 807.73,-1628.2 818.204,-1626.61 814.924,-1620.42"/>
<text text-anchor="middle" x="948.25" y="-1002.4" font-family="Times,serif" font-size="14.00">0.0044</text>
</g>
<!-- G#4&#45;&#45;B4 -->
<g id="edge284" class="edge"><title>G#4&#45;&#45;B4</title>
<path fill="none" stroke="black" d="M1110.4,-371.05C1185.3,-353.66 1411.7,-302.14 1601.5,-270 1661.8,-259.79 1677.5,-261.37 1738,-252 1783.1,-245.02 1793.7,-239.44 1839,-234 2033.1,-210.66 2267.4,-202.34 2356.9,-199.89"/>
<polygon fill="black" stroke="black" points="2357.1,-203.386 2367,-199.62 2356.91,-196.389 2357.1,-203.386"/>
<text text-anchor="middle" x="1621.2" y="-282.4" font-family="Times,serif" font-size="14.00">0.0044</text>
</g>
<!-- G#4&#45;&#45;G#4 -->
<g id="edge282" class="edge"><title>G#4&#45;&#45;G#4</title>
<path fill="none" stroke="black" d="M1109.5,-386.12C1120.5,-386.89 1130,-384.19 1130,-378 1130,-373.84 1125.7,-371.26 1119.6,-370.24"/>
<polygon fill="black" stroke="black" points="1119.62,-366.739 1109.5,-369.88 1119.37,-373.734 1119.62,-366.739"/>
<text text-anchor="middle" x="1149.2" y="-372.4" font-family="Times,serif" font-size="14.00">0.0044</text>
</g>
<!-- E&#45;5&#45;&#45;C#4 -->
<g id="edge268" class="edge"><title>E&#45;5&#45;&#45;C#4</title>
<path fill="none" stroke="black" d="M2469.8,-109.11C2347.2,-110.24 1847,-121.75 1752,-234 1746.8,-240.11 1750.8,-244.09 1752,-252 1781.2,-450.37 1852.8,-485.63 1882,-684 1883.2,-691.91 1882,-694 1882,-702 1881.8,-822 1893.4,-852.64 1881,-972 1870.2,-1076.1 1839.7,-1197.3 1825.5,-1250.1"/>
<polygon fill="black" stroke="black" points="1822.05,-1249.43 1822.8,-1260 1828.81,-1251.27 1822.05,-1249.43"/>
<text text-anchor="middle" x="1902.2" y="-687.4" font-family="Times,serif" font-size="14.00">0.0044</text>
</g>
<!-- E&#45;5&#45;&#45;G5 -->
<g id="edge274" class="edge"><title>E&#45;5&#45;&#45;G5</title>
<path fill="none" stroke="black" d="M2517,-120.5C2539.5,-135.14 2573,-162.68 2573,-197 2573,-469 2573,-469 2573,-469 2573,-1170.4 2642.1,-1427.1 2261,-2016 2233,-2059.2 2158.7,-2168.7 2115,-2196 2100,-2205.4 1977.3,-2228.4 1960,-2232 1905.3,-2243.3 1841.5,-2254.4 1802.5,-2261"/>
<polygon fill="black" stroke="black" points="1801.4,-2257.63 1792.1,-2262.7 1802.53,-2264.54 1801.4,-2257.63"/>
<text text-anchor="middle" x="2590.2" y="-1182.4" font-family="Times,serif" font-size="14.00">0.0044</text>
</g>
<!-- E&#45;5&#45;&#45;E&#45;5 -->
<g id="edge270" class="edge"><title>E&#45;5&#45;&#45;E&#45;5</title>
<path fill="none" stroke="black" d="M2521.5,-116.12C2532.5,-116.89 2542,-114.19 2542,-108 2542,-103.84 2537.7,-101.26 2531.6,-100.24"/>
<polygon fill="black" stroke="black" points="2531.62,-96.7385 2521.5,-99.879 2531.37,-103.734 2531.62,-96.7385"/>
<text text-anchor="middle" x="2561.2" y="-102.4" font-family="Times,serif" font-size="14.00">0.0044</text>
</g>
<!-- F#5 -->
<g id="node108" class="node"><title>F#5</title>
<ellipse fill="none" stroke="black" cx="2597" cy="-18" rx="27" ry="18"/>
<text text-anchor="middle" x="2597" y="-12.4" font-family="Times,serif" font-size="14.00">F#5</text>
</g>
<!-- E&#45;5&#45;&#45;F#5 -->
<g id="edge272" class="edge"><title>E&#45;5&#45;&#45;F#5</title>
<path fill="none" stroke="black" d="M2512.6,-93.25C2529,-78.869 2554.8,-56.132 2573.6,-39.604"/>
<polygon fill="black" stroke="black" points="2575.99,-42.167 2581.2,-32.944 2571.37,-36.9024 2575.99,-42.167"/>
<text text-anchor="middle" x="2574.2" y="-57.4" font-family="Times,serif" font-size="14.00">0.0044</text>
</g>
<!-- C#3&#45;&#45;E3 -->
<g id="edge264" class="edge"><title>C#3&#45;&#45;E3</title>
<path fill="none" stroke="black" d="M1212.7,-479.81C1224,-486.14 1237.9,-494.7 1249,-504 1326.8,-568.92 1349.9,-590.5 1389,-684 1460.7,-855.55 1464.4,-903.86 1524,-1080 1556.4,-1175.9 1560.8,-1201.3 1596.5,-1296 1629.5,-1383.5 1658.6,-1400.9 1668,-1494 1678.5,-1598.5 1648.1,-1867.2 1603,-1962 1540.8,-2092.7 1434.2,-2039 1290,-2052 1013.1,-2076.9 677.74,-2084.5 567.26,-2086.4"/>
<polygon fill="black" stroke="black" points="566.91,-2082.91 556.98,-2086.6 567.046,-2089.9 566.91,-2082.91"/>
<text text-anchor="middle" x="1616.2" y="-1272.4" font-family="Times,serif" font-size="14.00">0.0089</text>
</g>
<!-- C#3&#45;&#45;F3 -->
<g id="edge262" class="edge"><title>C#3&#45;&#45;F3</title>
<path fill="none" stroke="black" d="M1169.7,-478.46C1142.5,-491.71 1100,-518.54 1100,-557 1100,-829 1100,-829 1100,-829 1100,-932.56 1119.3,-960.07 1101,-1062 1092,-1112.4 1078.7,-1122 1061,-1170 993.43,-1353.8 948.61,-1392 910,-1584 895.28,-1657.2 896.06,-1745.8 897.64,-1789.7"/>
<polygon fill="black" stroke="black" points="894.147,-1789.95 898.06,-1799.8 901.141,-1789.66 894.147,-1789.95"/>
<text text-anchor="middle" x="1096.2" y="-1137.4" font-family="Times,serif" font-size="14.00">0.0044</text>
</g>
<!-- C#3&#45;&#45;G3 -->
<g id="edge260" class="edge"><title>C#3&#45;&#45;G3</title>
<path fill="none" stroke="black" d="M1192,-486.2C1192,-503.94 1192,-532.4 1192,-557 1192,-739 1192,-739 1192,-739 1192,-759.37 1191.5,-782.4 1190.9,-799.78"/>
<polygon fill="black" stroke="black" points="1187.4,-799.7 1190.6,-809.8 1194.4,-799.909 1187.4,-799.7"/>
<text text-anchor="middle" x="1211.2" y="-642.4" font-family="Times,serif" font-size="14.00">0.0044</text>
</g>
<!-- C#3&#45;&#45;G#4 -->
<g id="edge258" class="edge"><title>C#3&#45;&#45;G#4</title>
<path fill="none" stroke="black" d="M1175.3,-453.25C1157.6,-438.72 1129.6,-415.66 1109.4,-399.09"/>
<polygon fill="black" stroke="black" points="1111.54,-396.318 1101.6,-392.65 1107.08,-401.716 1111.54,-396.318"/>
<text text-anchor="middle" x="1168.2" y="-417.4" font-family="Times,serif" font-size="14.00">0.0044</text>
</g>
<!-- D4&#45;&#45;E&#45;3 -->
<g id="edge170" class="edge"><title>D4&#45;&#45;E&#45;3</title>
<path fill="none" stroke="black" d="M2173.1,-1098.3C2207.7,-1098.8 2267.9,-1104.3 2308,-1134 2322.7,-1144.9 2321.2,-1153 2328,-1170 2489.6,-1576.2 2533,-1694.8 2533,-2132 2533,-2314 2533,-2314 2533,-2314 2533,-2386.1 2530.4,-2418.6 2476,-2466 2339.3,-2585.2 2256.6,-2524.4 2078,-2556 1954.5,-2577.9 1923.1,-2582.1 1798,-2592 1349.4,-2627.4 802.21,-2627.8 656.24,-2627.2"/>
<polygon fill="black" stroke="black" points="656.04,-2623.7 646.04,-2627.2 656.04,-2630.7 656.04,-2623.7"/>
<text text-anchor="middle" x="2544.2" y="-1857.4" font-family="Times,serif" font-size="14.00">0.0089</text>
</g>
<!-- D4&#45;&#45;B&#45;4 -->
<g id="edge174" class="edge"><title>D4&#45;&#45;B&#45;4</title>
<path fill="none" stroke="black" d="M2127,-1084.9C2095.9,-1064.3 2033,-1020.2 1990,-972 1952.2,-929.68 1952.5,-911.81 1922,-864 1870.7,-783.68 1761.6,-565.71 1689,-504 1675.8,-492.81 1658.5,-484.64 1643.4,-479.03"/>
<polygon fill="black" stroke="black" points="1644.39,-475.671 1633.8,-475.7 1642.1,-482.284 1644.39,-475.671"/>
<text text-anchor="middle" x="1899.2" y="-777.4" font-family="Times,serif" font-size="14.00">0.0044</text>
</g>
<!-- D4&#45;&#45;D4 -->
<g id="edge178" class="edge"><title>D4&#45;&#45;D4</title>
<path fill="none" stroke="black" d="M2170.5,-1106.1C2181.5,-1106.9 2191,-1104.2 2191,-1098 2191,-1093.8 2186.7,-1091.3 2180.6,-1090.2"/>
<polygon fill="black" stroke="black" points="2180.6,-1086.7 2170.5,-1089.9 2180.39,-1093.7 2180.6,-1086.7"/>
<text text-anchor="middle" x="2210.2" y="-1092.4" font-family="Times,serif" font-size="14.00">0.0044</text>
</g>
<!-- D4&#45;&#45;E&#45;4 -->
<g id="edge176" class="edge"><title>D4&#45;&#45;E&#45;4</title>
<path fill="none" stroke="black" d="M2144.5,-1116.3C2142.5,-1143.4 2140.1,-1197.3 2148,-1242 2153.9,-1275.4 2166.4,-1280.8 2173,-1314 2218.5,-1541.7 2245.7,-1609.6 2194,-1836 2182.1,-1887.9 2164.5,-1895.7 2142,-1944 2121.6,-1987.7 2078.9,-2101.3 2053,-2142 2050.3,-2146.3 2047.1,-2150.5 2043.8,-2154.6"/>
<polygon fill="black" stroke="black" points="2040.96,-2152.53 2037.1,-2162.4 2046.27,-2157.09 2040.96,-2152.53"/>
<text text-anchor="middle" x="2242.2" y="-1632.4" font-family="Times,serif" font-size="14.00">0.0044</text>
</g>
<!-- D4&#45;&#45;F5 -->
<g id="edge172" class="edge"><title>D4&#45;&#45;F5</title>
<path fill="none" stroke="black" d="M2156.9,-1081.3C2166.2,-1067.9 2179.7,-1048.4 2190.3,-1033.1"/>
<polygon fill="black" stroke="black" points="2193.37,-1034.81 2196.2,-1024.6 2187.62,-1030.82 2193.37,-1034.81"/>
<text text-anchor="middle" x="2201.2" y="-1047.4" font-family="Times,serif" font-size="14.00">0.0044</text>
</g>
<!-- C#5&#45;&#45;C4 -->
<g id="edge152" class="edge"><title>C#5&#45;&#45;C4</title>
<path fill="none" stroke="black" d="M1417.5,-1440C1419.3,-1427.7 1421.8,-1410.7 1423.9,-1396.5"/>
<polygon fill="black" stroke="black" points="1427.42,-1396.62 1425.5,-1386.2 1420.51,-1395.54 1427.42,-1396.62"/>
<text text-anchor="middle" x="1442.2" y="-1407.4" font-family="Times,serif" font-size="14.00">0.0044</text>
</g>
<!-- C#5&#45;&#45;D5 -->
<g id="edge156" class="edge"><title>C#5&#45;&#45;D5</title>
<path fill="none" stroke="black" d="M1407.6,-1475.5C1388.8,-1519.6 1342.2,-1643.4 1362.5,-1746 1379.8,-1833.2 1427.8,-1928.2 1451.9,-1972.1"/>
<polygon fill="black" stroke="black" points="1448.91,-1973.93 1456.8,-1981 1455.04,-1970.55 1448.91,-1973.93"/>
<text text-anchor="middle" x="1382.2" y="-1722.4" font-family="Times,serif" font-size="14.00">0.0044</text>
</g>
<!-- C#5&#45;&#45;G5 -->
<g id="edge150" class="edge"><title>C#5&#45;&#45;G5</title>
<path fill="none" stroke="black" d="M1417.4,-1476.1C1426.3,-1537.9 1456,-1746 1456,-1746 1498.2,-1804.3 1706.5,-1829.9 1746,-1890 1819.3,-2001.6 1788.6,-2174.2 1773,-2240.2"/>
<polygon fill="black" stroke="black" points="1769.55,-2239.56 1770.6,-2250.1 1776.36,-2241.21 1769.55,-2239.56"/>
<text text-anchor="middle" x="1747.2" y="-1857.4" font-family="Times,serif" font-size="14.00">0.0044</text>
</g>
<!-- C#5&#45;&#45;F4 -->
<g id="edge154" class="edge"><title>C#5&#45;&#45;F4</title>
<path fill="none" stroke="black" d="M1400.5,-1442.8C1378.6,-1420.8 1337.1,-1376.3 1311,-1332 1290,-1296.3 1290.8,-1283.2 1287,-1242 1280.4,-1170.3 1281.2,-1151.2 1292,-1080 1299.4,-1031.1 1309.7,-1020.6 1319,-972 1350.7,-806.25 1405,-755.18 1355,-594 1320.5,-482.95 1325.4,-436.69 1238,-360 1096.6,-235.94 859.25,-207.37 768.15,-200.88"/>
<polygon fill="black" stroke="black" points="768.239,-197.378 758.03,-200.21 767.777,-204.363 768.239,-197.378"/>
<text text-anchor="middle" x="1380.2" y="-822.4" font-family="Times,serif" font-size="14.00">0.0044</text>
</g>
<!-- C#5&#45;&#45;F#5 -->
<g id="edge148" class="edge"><title>C#5&#45;&#45;F#5</title>
<path fill="none" stroke="black" d="M1395.6,-1445.3C1385.1,-1438.8 1372.1,-1430.3 1361,-1422 1341.3,-1407.3 1337.4,-1402.3 1319,-1386 1204.3,-1284 1156.6,-1275.2 1065,-1152 988,-1048.5 877.14,-740.76 811,-630 727.91,-490.85 598,-496.08 598,-334 598,-334 598,-334 598,-107 598,-55.927 2285.8,-24.412 2559.7,-19.635"/>
<polygon fill="black" stroke="black" points="2559.96,-23.1311 2569.9,-19.458 2559.84,-16.1321 2559.96,-23.1311"/>
<text text-anchor="middle" x="892.25" y="-732.4" font-family="Times,serif" font-size="14.00">0.0089</text>
</g>
<!-- E&#45;4&#45;&#45;E3 -->
<g id="edge166" class="edge"><title>E&#45;4&#45;&#45;E3</title>
<path fill="none" stroke="black" d="M1996.8,-2173.1C1927.7,-2163.1 1735.2,-2136.2 1574,-2124 1180.9,-2094.3 702.7,-2089.8 567.3,-2089.1"/>
<polygon fill="black" stroke="black" points="567.07,-2085.6 557.07,-2089.1 567.07,-2092.6 567.07,-2085.6"/>
<text text-anchor="middle" x="1767.2" y="-2127.4" font-family="Times,serif" font-size="14.00">0.0044</text>
</g>
<!-- E&#45;4&#45;&#45;E&#45;3 -->
<g id="edge162" class="edge"><title>E&#45;4&#45;&#45;E&#45;3</title>
<path fill="none" stroke="black" d="M2049.5,-2182.5C2071.4,-2186.6 2101.9,-2195.4 2122,-2214 2204.7,-2290.4 2222.7,-2381.8 2148,-2466 1975,-2661.1 1833.7,-2559.1 1575,-2592 1392.6,-2615.2 810.47,-2624.5 656.6,-2626.5"/>
<polygon fill="black" stroke="black" points="656.2,-2623.01 646.27,-2626.7 656.336,-2630.01 656.2,-2623.01"/>
<text text-anchor="middle" x="2209.2" y="-2397.4" font-family="Times,serif" font-size="14.00">0.0044</text>
</g>
<!-- E&#45;4&#45;&#45;G#3 -->
<g id="edge158" class="edge"><title>E&#45;4&#45;&#45;G#3</title>
<path fill="none" stroke="black" d="M2049.2,-2182.9C2067.8,-2187.1 2091.7,-2195.9 2104,-2214 2126.3,-2246.7 2119.2,-2365.4 2114.6,-2419.6"/>
<polygon fill="black" stroke="black" points="2111.08,-2419.63 2113.7,-2429.9 2118.06,-2420.24 2111.08,-2419.63"/>
<text text-anchor="middle" x="2139.2" y="-2307.4" font-family="Times,serif" font-size="14.00">0.0044</text>
</g>
<!-- E&#45;4&#45;&#45;E&#45;4 -->
<g id="edge168" class="edge"><title>E&#45;4&#45;&#45;E&#45;4</title>
<path fill="none" stroke="black" d="M2047.5,-2186.1C2058.5,-2186.9 2068,-2184.2 2068,-2178 2068,-2173.8 2063.7,-2171.3 2057.6,-2170.2"/>
<polygon fill="black" stroke="black" points="2057.6,-2166.7 2047.5,-2169.9 2057.39,-2173.7 2057.6,-2166.7"/>
<text text-anchor="middle" x="2087.2" y="-2172.4" font-family="Times,serif" font-size="14.00">0.0044</text>
</g>
<!-- E&#45;4&#45;&#45;F#5 -->
<g id="edge160" class="edge"><title>E&#45;4&#45;&#45;F#5</title>
<path fill="none" stroke="black" d="M2045.6,-2167.8C2060,-2161.4 2078.8,-2152.3 2094,-2142 2163.3,-2095.1 2179.6,-2079.6 2234,-2016 2258.9,-1987 2259.2,-1975.4 2281,-1944 2388.9,-1788.8 2446.8,-1769.8 2534,-1602 2585.8,-1502.3 2698,-716.38 2698,-604 2698,-604 2698,-604 2698,-107 2698,-69.96 2658.9,-44.948 2629.4,-31.334"/>
<polygon fill="black" stroke="black" points="2630.76,-28.1108 2620.2,-27.313 2627.96,-34.525 2630.76,-28.1108"/>
<text text-anchor="middle" x="2658.2" y="-1092.4" font-family="Times,serif" font-size="14.00">0.0044</text>
</g>
<!-- E&#45;4&#45;&#45;G#2 -->
<g id="edge164" class="edge"><title>E&#45;4&#45;&#45;G#2</title>
<path fill="none" stroke="black" d="M1997.9,-2170.9C1955.3,-2160.6 1866,-2139.5 1790,-2124 1568.7,-2078.9 1513.7,-2064.8 1290,-2034 1206.8,-2022.6 1185.5,-2024.4 1102,-2016 875.22,-1993.1 799,-2057.4 592,-1962 570.87,-1952.3 566.59,-1945.6 554,-1926 493.83,-1832.6 491,-1795.1 491,-1684 491,-1684 491,-1684 491,-1502 491,-1255.3 501.77,-1188 580,-954 610.36,-863.17 631.95,-845.88 665,-756 674.92,-729.03 684.38,-697.53 690.61,-675.73"/>
<polygon fill="black" stroke="black" points="694.048,-676.435 693.4,-665.86 687.312,-674.531 694.048,-676.435"/>
<text text-anchor="middle" x="511.25" y="-1407.4" font-family="Times,serif" font-size="14.00">0.0044</text>
</g>
<!-- F#5&#45;&#45;F5 -->
<g id="edge180" class="edge"><title>F#5&#45;&#45;F5</title>
<path fill="none" stroke="black" d="M2612,-33.354C2627.4,-49.626 2649,-77.72 2649,-107 2649,-424 2649,-424 2649,-424 2649,-583.79 2601.6,-624.4 2511,-756 2497.8,-775.16 2490.5,-776.68 2473,-792 2387,-867.27 2280,-950.87 2232.1,-987.74"/>
<polygon fill="black" stroke="black" points="2229.95,-984.974 2224.2,-993.87 2234.25,-990.505 2229.95,-984.974"/>
<text text-anchor="middle" x="2662.2" y="-507.4" font-family="Times,serif" font-size="14.00">0.0044</text>
</g>
<!-- G#2&#45;&#45;B&#45;3 -->
<g id="edge206" class="edge"><title>G#2&#45;&#45;B&#45;3</title>
<path fill="none" stroke="black" d="M703.76,-629.97C706.41,-618.9 707.68,-604.61 701,-594 692.6,-580.66 677.56,-572.3 663.3,-567.1"/>
<polygon fill="black" stroke="black" points="664.231,-563.723 653.64,-563.99 662.086,-570.386 664.231,-563.723"/>
<text text-anchor="middle" x="725.25" y="-597.4" font-family="Times,serif" font-size="14.00">0.0044</text>
</g>
<!-- E&#45;2 -->
<g id="node142" class="node"><title>E&#45;2</title>
<ellipse fill="none" stroke="black" cx="506" cy="-558" rx="27" ry="18"/>
<text text-anchor="middle" x="506" y="-552.4" font-family="Times,serif" font-size="14.00">E&#45;2</text>
</g>
<!-- G#2&#45;&#45;E&#45;2 -->
<g id="edge208" class="edge"><title>G#2&#45;&#45;E&#45;2</title>
<path fill="none" stroke="black" d="M675.98,-636.91C641.83,-621.26 576.01,-591.09 537.06,-573.23"/>
<polygon fill="black" stroke="black" points="538.32,-569.957 527.77,-568.98 535.408,-576.323 538.32,-569.957"/>
<text text-anchor="middle" x="639.25" y="-597.4" font-family="Times,serif" font-size="14.00">0.0044</text>
</g>
<!-- F5&#45;&#45;F5 -->
<g id="edge204" class="edge"><title>F5&#45;&#45;F5</title>
<path fill="none" stroke="black" d="M2231.5,-1016.1C2242.5,-1016.9 2252,-1014.2 2252,-1008 2252,-1003.8 2247.7,-1001.3 2241.6,-1000.2"/>
<polygon fill="black" stroke="black" points="2241.61,-996.699 2231.5,-999.88 2241.38,-1003.7 2241.61,-996.699"/>
<text text-anchor="middle" x="2271.2" y="-1002.4" font-family="Times,serif" font-size="14.00">0.0044</text>
</g>
<!-- F5&#45;&#45;B2 -->
<g id="edge202" class="edge"><title>F5&#45;&#45;B2</title>
<path fill="none" stroke="black" d="M2182,-1001C2118.8,-985.63 1952.3,-945.25 1879.2,-927.53"/>
<polygon fill="black" stroke="black" points="1879.64,-924.036 1869.1,-925.09 1878,-930.84 1879.64,-924.036"/>
<text text-anchor="middle" x="2078.2" y="-957.4" font-family="Times,serif" font-size="14.00">0.0044</text>
</g>
<!-- B2&#45;&#45;C3 -->
<g id="edge322" class="edge"><title>B2&#45;&#45;C3</title>
<path fill="none" stroke="black" d="M1857.7,-933.71C1899.7,-980.14 2023,-1129.3 2023,-1277 2023,-1414 2023,-1414 2023,-1414 2023,-1458.7 2069.7,-1451.6 2084,-1494 2099.5,-1539.8 2081,-1554.7 2071,-1602 2037.2,-1762.2 1868.3,-2400.6 1807,-2502 1760.5,-2578.9 1745.6,-2606.1 1665,-2646 1551.4,-2702.2 1508.4,-2672.6 1382,-2682 1195.8,-2695.8 727.14,-2675.8 542,-2700 530.13,-2701.5 517.35,-2704.3 506.01,-2707.2"/>
<polygon fill="black" stroke="black" points="504.842,-2703.89 496.05,-2709.8 506.61,-2710.66 504.842,-2703.89"/>
<text text-anchor="middle" x="2043.2" y="-1812.4" font-family="Times,serif" font-size="14.00">0.0044</text>
</g>
<!-- B2&#45;&#45;E4 -->
<g id="edge316" class="edge"><title>B2&#45;&#45;E4</title>
<path fill="none" stroke="black" d="M1826.2,-931.77C1793.8,-956.19 1726.4,-1013.1 1701,-1080 1681,-1132.7 1701.7,-1151.5 1716,-1206 1744.1,-1313 1771.1,-1333.5 1801,-1440 1818.6,-1502.9 1823.5,-1519 1830,-1584 1838.3,-1667.4 1815,-1688.2 1815,-1772 1815,-1909 1815,-1909 1815,-1909 1815,-1997.1 1824.7,-2018.7 1836,-2106 1844.3,-2170.2 1853.1,-2185.4 1858,-2250 1859.2,-2266 1866.8,-2272.6 1858,-2286 1820.9,-2342.5 1605.6,-2354 1518,-2356.4"/>
<polygon fill="black" stroke="black" points="1517.93,-2352.9 1508,-2356.6 1518.07,-2359.9 1517.93,-2352.9"/>
<text text-anchor="middle" x="1851.2" y="-1632.4" font-family="Times,serif" font-size="14.00">0.0044</text>
</g>
<!-- B2&#45;&#45;G#3 -->
<g id="edge318" class="edge"><title>B2&#45;&#45;G#3</title>
<path fill="none" stroke="black" d="M1851,-935.53C1857.8,-952.97 1867,-981.42 1867,-1007 1867,-1144 1867,-1144 1867,-1144 1867,-1188.4 1871.9,-1199.9 1886,-1242 1905.6,-1300.6 1947,-1305.2 1947,-1367 1947,-1504 1947,-1504 1947,-1504 1947,-1787.6 1857,-1877.8 1960,-2142 2002.1,-2249.9 2068.7,-2371.2 2097.7,-2422.2"/>
<polygon fill="black" stroke="black" points="2094.68,-2423.97 2102.7,-2430.9 2100.75,-2420.49 2094.68,-2423.97"/>
<text text-anchor="middle" x="1955.2" y="-1677.4" font-family="Times,serif" font-size="14.00">0.0044</text>
</g>
<!-- B2&#45;&#45;G3 -->
<g id="edge320" class="edge"><title>B2&#45;&#45;G3</title>
<path fill="none" stroke="black" d="M1817.6,-913.44C1715.1,-899.66 1344.5,-849.79 1226.4,-833.9"/>
<polygon fill="black" stroke="black" points="1226.78,-830.419 1216.4,-832.55 1225.84,-837.356 1226.78,-830.419"/>
<text text-anchor="middle" x="1595.2" y="-867.4" font-family="Times,serif" font-size="14.00">0.0044</text>
</g>
<!-- E&#45;2&#45;&#45;E&#45;3 -->
<g id="edge330" class="edge"><title>E&#45;2&#45;&#45;E&#45;3</title>
<path fill="none" stroke="black" d="M498.23,-575.53C472.77,-629.71 389.63,-806.91 322,-954 277.96,-1049.8 252.5,-1068.5 224,-1170 172.01,-1355.1 186.71,-1410.1 199.5,-1602 214.53,-1827.5 218.54,-1885.3 267,-2106 302.9,-2269.5 309.59,-2313.2 378,-2466 404.72,-2525.7 400.72,-2554.1 454,-2592 491.78,-2618.9 545.96,-2625.9 581.79,-2627.3"/>
<polygon fill="black" stroke="black" points="581.74,-2630.8 591.84,-2627.6 581.949,-2623.8 581.74,-2630.8"/>
<text text-anchor="middle" x="219.25" y="-1587.4" font-family="Times,serif" font-size="14.00">0.0044</text>
</g>
<!-- F#2&#45;&#45;F#3 -->
<g id="edge266" class="edge"><title>F#2&#45;&#45;F#3</title>
<path fill="none" stroke="black" d="M466.82,-480.7C445.19,-495.52 413,-523.25 413,-557 413,-694 413,-694 413,-694 413,-781.98 440.57,-801.03 475,-882 503.32,-948.6 516.71,-962.27 551,-1026 585.59,-1090.3 600.41,-1103.3 630,-1170 660.88,-1239.6 659.02,-1260.8 686,-1332 699.62,-1368 719,-1373.5 719,-1412 719,-1549 719,-1549 719,-1549 719,-1576.8 740.38,-1601.5 758.8,-1617.6"/>
<polygon fill="black" stroke="black" points="757.018,-1620.67 766.97,-1624.3 761.457,-1615.25 757.018,-1620.67"/>
<text text-anchor="middle" x="591.25" y="-1047.4" font-family="Times,serif" font-size="14.00">0.0044</text>
</g>
<!-- E2&#45;&#45;D3 -->
<g id="edge246" class="edge"><title>E2&#45;&#45;D3</title>
<path fill="none" stroke="black" d="M1182.1,-1378.6C1138.4,-1399 1041.6,-1451.4 1004,-1530 997.09,-1544.4 998.9,-1550.8 1004,-1566 1013.6,-1594.6 1035.4,-1591.4 1045,-1620 1053.1,-1644.1 1041.3,-1812.3 1036.2,-1879.4"/>
<polygon fill="black" stroke="black" points="1032.69,-1879.36 1035.4,-1889.6 1039.67,-1879.9 1032.69,-1879.36"/>
<text text-anchor="middle" x="1067.2" y="-1632.4" font-family="Times,serif" font-size="14.00">0.0044</text>
</g>
</g>
</svg>
