<?xml version="1.0" encoding="UTF-8" standalone="no"?>
<!DOCTYPE svg PUBLIC "-//W3C//DTD SVG 1.1//EN"
 "http://www.w3.org/Graphics/SVG/1.1/DTD/svg11.dtd">
<!-- Generated by graphviz version 2.28.0 (20121019.2215)
 -->
<!-- Title: _anonymous_0 Pages: 1 -->
<svg width="363pt" height="494pt"
 viewBox="0.00 0.00 362.50 494.00" xmlns="http://www.w3.org/2000/svg" xmlns:xlink="http://www.w3.org/1999/xlink">
<g id="graph1" class="graph" transform="scale(1 1) rotate(0) translate(4 490)">
<title>_anonymous_0</title>
<polygon fill="white" stroke="white" points="-4,5 -4,-490 359.5,-490 359.5,5 -4,5"/>
<!-- A4 -->
<g id="node1" class="node"><title>A4</title>
<ellipse fill="none" stroke="black" cx="80" cy="-468" rx="27" ry="18"/>
<text text-anchor="middle" x="80" y="-462.4" font-family="Times,serif" font-size="14.00">A4</text>
</g>
<!-- A4&#45;&#45;A4 -->
<g id="edge2" class="edge"><title>A4&#45;&#45;A4</title>
<path fill="none" stroke="black" d="M104.53,-476.12C115.51,-476.89 125,-474.19 125,-468 125,-463.84 120.72,-461.26 114.57,-460.24"/>
<polygon fill="black" stroke="black" points="114.649,-456.741 104.53,-459.88 114.398,-463.736 114.649,-456.741"/>
<text text-anchor="middle" x="144.25" y="-462.4" font-family="Times,serif" font-size="14.00">0.0484</text>
</g>
<!-- G#4 -->
<g id="node3" class="node"><title>G#4</title>
<ellipse fill="none" stroke="black" cx="80" cy="-378" rx="27.8358" ry="18"/>
<text text-anchor="middle" x="80" y="-372.4" font-family="Times,serif" font-size="14.00">G#4</text>
</g>
<!-- A4&#45;&#45;G#4 -->
<g id="edge4" class="edge"><title>A4&#45;&#45;G#4</title>
<path fill="none" stroke="black" d="M80,-449.61C80,-437.24 80,-420.37 80,-406.22"/>
<polygon fill="black" stroke="black" points="83.5001,-406.05 80,-396.05 76.5001,-406.05 83.5001,-406.05"/>
<text text-anchor="middle" x="99.25" y="-417.4" font-family="Times,serif" font-size="14.00">0.0484</text>
</g>
<!-- G#4&#45;&#45;G#4 -->
<g id="edge6" class="edge"><title>G#4&#45;&#45;G#4</title>
<path fill="none" stroke="black" d="M104.53,-386.12C115.51,-386.89 125,-384.19 125,-378 125,-373.84 120.72,-371.26 114.57,-370.24"/>
<polygon fill="black" stroke="black" points="114.649,-366.741 104.53,-369.88 114.398,-373.736 114.649,-366.741"/>
<text text-anchor="middle" x="144.25" y="-372.4" font-family="Times,serif" font-size="14.00">0.0403</text>
</g>
<!-- B4 -->
<g id="node6" class="node"><title>B4</title>
<ellipse fill="none" stroke="black" cx="177" cy="-288" rx="27" ry="18"/>
<text text-anchor="middle" x="177" y="-282.4" font-family="Times,serif" font-size="14.00">B4</text>
</g>
<!-- G#4&#45;&#45;B4 -->
<g id="edge8" class="edge"><title>G#4&#45;&#45;B4</title>
<path fill="none" stroke="black" d="M97.506,-363.81C105.73,-357.43 115.55,-349.54 124,-342 134.88,-332.29 146.39,-320.93 155.89,-311.22"/>
<polygon fill="black" stroke="black" points="158.586,-313.468 163.03,-303.85 153.558,-308.597 158.586,-313.468"/>
<text text-anchor="middle" x="162.25" y="-327.4" font-family="Times,serif" font-size="14.00">0.0403</text>
</g>
<!-- B4&#45;&#45;A4 -->
<g id="edge10" class="edge"><title>B4&#45;&#45;A4</title>
<path fill="none" stroke="black" d="M181.68,-305.96C183.04,-311.65 184.33,-318.05 185,-324 188.65,-356.31 189.68,-368.71 172,-396 156.52,-419.89 130.15,-439.02 109.6,-451.37"/>
<polygon fill="black" stroke="black" points="107.804,-448.365 100.91,-456.41 111.316,-454.421 107.804,-448.365"/>
<text text-anchor="middle" x="206.25" y="-372.4" font-family="Times,serif" font-size="14.00">0.0081</text>
</g>
<!-- B4&#45;&#45;B4 -->
<g id="edge12" class="edge"><title>B4&#45;&#45;B4</title>
<path fill="none" stroke="black" d="M201.53,-296.12C212.51,-296.89 222,-294.19 222,-288 222,-283.84 217.72,-281.26 211.57,-280.24"/>
<polygon fill="black" stroke="black" points="211.649,-276.741 201.53,-279.88 211.398,-283.736 211.649,-276.741"/>
<text text-anchor="middle" x="241.25" y="-282.4" font-family="Times,serif" font-size="14.00">0.0484</text>
</g>
<!-- C#5 -->
<g id="node10" class="node"><title>C#5</title>
<ellipse fill="none" stroke="black" cx="252" cy="-198" rx="27.2698" ry="18"/>
<text text-anchor="middle" x="252" y="-192.4" font-family="Times,serif" font-size="14.00">C#5</text>
</g>
<!-- B4&#45;&#45;C#5 -->
<g id="edge14" class="edge"><title>B4&#45;&#45;C#5</title>
<path fill="none" stroke="black" d="M186.65,-271C193.54,-260.11 203.36,-245.61 213.5,-234 217.87,-229 222.9,-223.99 227.86,-219.38"/>
<polygon fill="black" stroke="black" points="230.383,-221.818 235.48,-212.53 225.703,-216.612 230.383,-221.818"/>
<text text-anchor="middle" x="233.25" y="-237.4" font-family="Times,serif" font-size="14.00">0.0081</text>
</g>
<!-- E4 -->
<g id="node12" class="node"><title>E4</title>
<ellipse fill="none" stroke="black" cx="128" cy="-108" rx="27" ry="18"/>
<text text-anchor="middle" x="128" y="-102.4" font-family="Times,serif" font-size="14.00">E4</text>
</g>
<!-- B4&#45;&#45;E4 -->
<g id="edge16" class="edge"><title>B4&#45;&#45;E4</title>
<path fill="none" stroke="black" d="M172.39,-270.25C163.85,-239.24 145.52,-172.66 135.29,-135.48"/>
<polygon fill="black" stroke="black" points="138.662,-134.54 132.63,-125.83 131.913,-136.401 138.662,-134.54"/>
<text text-anchor="middle" x="177.25" y="-192.4" font-family="Times,serif" font-size="14.00">0.0726</text>
</g>
<!-- C#5&#45;&#45;E4 -->
<g id="edge18" class="edge"><title>C#5&#45;&#45;E4</title>
<path fill="none" stroke="black" d="M234.4,-184.31C219.43,-173.54 197.35,-157.7 178,-144 170.42,-138.63 162.16,-132.83 154.59,-127.53"/>
<polygon fill="black" stroke="black" points="156.283,-124.444 146.08,-121.59 152.277,-130.184 156.283,-124.444"/>
<text text-anchor="middle" x="222.25" y="-147.4" font-family="Times,serif" font-size="14.00">0.0161</text>
</g>
<!-- E5 -->
<g id="node15" class="node"><title>E5</title>
<ellipse fill="none" stroke="black" cx="262" cy="-108" rx="27" ry="18"/>
<text text-anchor="middle" x="262" y="-102.4" font-family="Times,serif" font-size="14.00">E5</text>
</g>
<!-- C#5&#45;&#45;E5 -->
<g id="edge20" class="edge"><title>C#5&#45;&#45;E5</title>
<path fill="none" stroke="black" d="M253.93,-180.03C255.33,-167.69 257.26,-150.73 258.88,-136.47"/>
<polygon fill="black" stroke="black" points="262.393,-136.55 260.04,-126.22 255.438,-135.763 262.393,-136.55"/>
<text text-anchor="middle" x="277.25" y="-147.4" font-family="Times,serif" font-size="14.00">0.0323</text>
</g>
<!-- E4&#45;&#45;G#4 -->
<g id="edge22" class="edge"><title>E4&#45;&#45;G#4</title>
<path fill="none" stroke="black" d="M124.95,-126.03C116.85,-171.25 94.754,-294.62 84.88,-349.75"/>
<polygon fill="black" stroke="black" points="81.3925,-349.37 83.076,-359.83 88.283,-350.603 81.3925,-349.37"/>
<text text-anchor="middle" x="125.25" y="-237.4" font-family="Times,serif" font-size="14.00">0.0565</text>
</g>
<!-- E4&#45;&#45;E4 -->
<g id="edge24" class="edge"><title>E4&#45;&#45;E4</title>
<path fill="none" stroke="black" d="M152.53,-116.12C163.51,-116.89 173,-114.19 173,-108 173,-103.84 168.72,-101.26 162.57,-100.24"/>
<polygon fill="black" stroke="black" points="162.649,-96.7407 152.53,-99.879 162.398,-103.736 162.649,-96.7407"/>
<text text-anchor="middle" x="192.25" y="-102.4" font-family="Times,serif" font-size="14.00">0.1855</text>
</g>
<!-- F#4 -->
<g id="node19" class="node"><title>F#4</title>
<ellipse fill="none" stroke="black" cx="80" cy="-18" rx="27" ry="18"/>
<text text-anchor="middle" x="80" y="-12.4" font-family="Times,serif" font-size="14.00">F#4</text>
</g>
<!-- E4&#45;&#45;F#4 -->
<g id="edge26" class="edge"><title>E4&#45;&#45;F#4</title>
<path fill="none" stroke="black" d="M119.2,-90.859C112.02,-77.71 101.78,-58.922 93.557,-43.855"/>
<polygon fill="black" stroke="black" points="96.609,-42.1412 88.748,-35.038 90.4637,-45.493 96.609,-42.1412"/>
<text text-anchor="middle" x="128.25" y="-57.4" font-family="Times,serif" font-size="14.00">0.0806</text>
</g>
<!-- E5&#45;&#45;F#4 -->
<g id="edge28" class="edge"><title>E5&#45;&#45;F#4</title>
<path fill="none" stroke="black" d="M240.77,-96.733C208.66,-81.209 147.6,-51.684 110.66,-33.827"/>
<polygon fill="black" stroke="black" points="111.906,-30.5419 101.38,-29.338 108.858,-36.8434 111.906,-30.5419"/>
<text text-anchor="middle" x="207.25" y="-57.4" font-family="Times,serif" font-size="14.00">0.0161</text>
</g>
<!-- F#4&#45;&#45;A4 -->
<g id="edge30" class="edge"><title>F#4&#45;&#45;A4</title>
<path fill="none" stroke="black" d="M59.398,-29.985C35.695,-44.29 0,-71.693 0,-107 0,-379 0,-379 0,-379 0,-410.31 28.066,-435.4 50.95,-450.66"/>
<polygon fill="black" stroke="black" points="49.079,-453.618 59.398,-456.02 52.8292,-447.707 49.079,-453.618"/>
<text text-anchor="middle" x="19.25" y="-237.4" font-family="Times,serif" font-size="14.00">0.0403</text>
</g>
<!-- F#4&#45;&#45;G#4 -->
<g id="edge32" class="edge"><title>F#4&#45;&#45;G#4</title>
<path fill="none" stroke="black" d="M72.058,-35.442C64.412,-52.808 54,-81.192 54,-107 54,-289 54,-289 54,-289 54,-310.57 61.276,-333.95 68.129,-351.18"/>
<polygon fill="black" stroke="black" points="64.9662,-352.689 72.058,-360.56 71.4227,-349.984 64.9662,-352.689"/>
<text text-anchor="middle" x="73.25" y="-192.4" font-family="Times,serif" font-size="14.00">0.0968</text>
</g>
<!-- F#4&#45;&#45;F#4 -->
<g id="edge34" class="edge"><title>F#4&#45;&#45;F#4</title>
<path fill="none" stroke="black" d="M104.53,-26.121C115.51,-26.895 125,-24.188 125,-18 125,-13.843 120.72,-11.257 114.57,-10.242"/>
<polygon fill="black" stroke="black" points="114.65,-6.7427 104.53,-9.8789 114.397,-13.7381 114.65,-6.7427"/>
<text text-anchor="middle" x="144.25" y="-12.4" font-family="Times,serif" font-size="14.00">0.0161</text>
</g>
<!-- G#5 -->
<g id="node25" class="node"><title>G#5</title>
<ellipse fill="none" stroke="black" cx="311" cy="-288" rx="27.8358" ry="18"/>
<text text-anchor="middle" x="311" y="-282.4" font-family="Times,serif" font-size="14.00">G#5</text>
</g>
<!-- G#5&#45;&#45;C#5 -->
<g id="edge36" class="edge"><title>G#5&#45;&#45;C#5</title>
<path fill="none" stroke="black" d="M290.2,-276.3C280.68,-270.37 270.07,-262.15 263.5,-252 258.62,-244.47 255.78,-235.21 254.14,-226.54"/>
<polygon fill="black" stroke="black" points="257.571,-225.813 252.67,-216.42 250.644,-226.819 257.571,-225.813"/>
<text text-anchor="middle" x="283.25" y="-237.4" font-family="Times,serif" font-size="14.00">0.0161</text>
</g>
<!-- G#5&#45;&#45;E5 -->
<g id="edge38" class="edge"><title>G#5&#45;&#45;E5</title>
<path fill="none" stroke="black" d="M313.57,-269.67C316.9,-241.67 320.1,-185.45 300,-144 297.12,-138.07 292.77,-132.66 288.01,-127.96"/>
<polygon fill="black" stroke="black" points="290.18,-125.206 280.38,-121.18 285.53,-130.439 290.18,-125.206"/>
<text text-anchor="middle" x="335.25" y="-192.4" font-family="Times,serif" font-size="14.00">0.0161</text>
</g>
</g>
</svg>
