<?xml version="1.0" encoding="UTF-8" standalone="no"?>
<!DOCTYPE svg PUBLIC "-//W3C//DTD SVG 1.1//EN"
 "http://www.w3.org/Graphics/SVG/1.1/DTD/svg11.dtd">
<!-- Generated by graphviz version 2.28.0 (20121019.2215)
 -->
<!-- Title: _anonymous_0 Pages: 1 -->
<svg width="263pt" height="134pt"
 viewBox="0.00 0.00 262.50 134.00" xmlns="http://www.w3.org/2000/svg" xmlns:xlink="http://www.w3.org/1999/xlink">
<g id="graph1" class="graph" transform="scale(1 1) rotate(0) translate(4 130)">
<title>_anonymous_0</title>
<polygon fill="white" stroke="white" points="-4,5 -4,-130 259.5,-130 259.5,5 -4,5"/>
<!-- A4 -->
<g id="node1" class="node"><title>A4</title>
<ellipse fill="none" stroke="black" cx="27" cy="-108" rx="27" ry="18"/>
<text text-anchor="middle" x="27" y="-102.4" font-family="Times,serif" font-size="14.00">A4</text>
</g>
<!-- G4 -->
<g id="node2" class="node"><title>G4</title>
<ellipse fill="none" stroke="black" cx="27" cy="-18" rx="27" ry="18"/>
<text text-anchor="middle" x="27" y="-12.4" font-family="Times,serif" font-size="14.00">G4</text>
</g>
<!-- A4&#45;&#45;G4 -->
<g id="edge2" class="edge"><title>A4&#45;&#45;G4</title>
<path fill="none" stroke="black" d="M27,-89.614C27,-77.24 27,-60.369 27,-46.22"/>
<polygon fill="black" stroke="black" points="30.5001,-46.05 27,-36.05 23.5001,-46.05 30.5001,-46.05"/>
<text text-anchor="middle" x="46.25" y="-57.4" font-family="Times,serif" font-size="14.00">0.2500</text>
</g>
<!-- C5 -->
<g id="node4" class="node"><title>C5</title>
<ellipse fill="none" stroke="black" cx="99" cy="-108" rx="27" ry="18"/>
<text text-anchor="middle" x="99" y="-102.4" font-family="Times,serif" font-size="14.00">C5</text>
</g>
<!-- B4 -->
<g id="node5" class="node"><title>B4</title>
<ellipse fill="none" stroke="black" cx="99" cy="-18" rx="27" ry="18"/>
<text text-anchor="middle" x="99" y="-12.4" font-family="Times,serif" font-size="14.00">B4</text>
</g>
<!-- C5&#45;&#45;B4 -->
<g id="edge4" class="edge"><title>C5&#45;&#45;B4</title>
<path fill="none" stroke="black" d="M99,-89.614C99,-77.24 99,-60.369 99,-46.22"/>
<polygon fill="black" stroke="black" points="102.5,-46.05 99,-36.05 95.5001,-46.05 102.5,-46.05"/>
<text text-anchor="middle" x="118.25" y="-57.4" font-family="Times,serif" font-size="14.00">0.2500</text>
</g>
<!-- F#4 -->
<g id="node7" class="node"><title>F#4</title>
<ellipse fill="none" stroke="black" cx="171" cy="-108" rx="27" ry="18"/>
<text text-anchor="middle" x="171" y="-102.4" font-family="Times,serif" font-size="14.00">F#4</text>
</g>
<!-- F#4&#45;&#45;F#4 -->
<g id="edge6" class="edge"><title>F#4&#45;&#45;F#4</title>
<path fill="none" stroke="black" d="M195.53,-116.12C206.51,-116.89 216,-114.19 216,-108 216,-103.84 211.72,-101.26 205.57,-100.24"/>
<polygon fill="black" stroke="black" points="205.649,-96.7407 195.53,-99.879 205.398,-103.736 205.649,-96.7407"/>
<text text-anchor="middle" x="235.25" y="-102.4" font-family="Times,serif" font-size="14.00">0.5000</text>
</g>
</g>
</svg>
