<?xml version="1.0" encoding="UTF-8" standalone="no"?>
<!DOCTYPE svg PUBLIC "-//W3C//DTD SVG 1.1//EN"
 "http://www.w3.org/Graphics/SVG/1.1/DTD/svg11.dtd">
<!-- Generated by graphviz version 2.28.0 (20121019.2215)
 -->
<!-- Title: _anonymous_0 Pages: 1 -->
<svg width="1062pt" height="314pt"
 viewBox="0.00 0.00 1062.00 314.00" xmlns="http://www.w3.org/2000/svg" xmlns:xlink="http://www.w3.org/1999/xlink">
<g id="graph1" class="graph" transform="scale(1 1) rotate(0) translate(4 310)">
<title>_anonymous_0</title>
<polygon fill="white" stroke="white" points="-4,5 -4,-310 1059,-310 1059,5 -4,5"/>
<!-- A4 -->
<g id="node1" class="node"><title>A4</title>
<ellipse fill="none" stroke="black" cx="27" cy="-198" rx="27" ry="18"/>
<text text-anchor="middle" x="27" y="-192.4" font-family="Times,serif" font-size="14.00">A4</text>
</g>
<!-- G#4 -->
<g id="node2" class="node"><title>G#4</title>
<ellipse fill="none" stroke="black" cx="90" cy="-108" rx="27.8358" ry="18"/>
<text text-anchor="middle" x="90" y="-102.4" font-family="Times,serif" font-size="14.00">G#4</text>
</g>
<!-- A4&#45;&#45;G#4 -->
<g id="edge2" class="edge"><title>A4&#45;&#45;G#4</title>
<path fill="none" stroke="black" d="M27.086,-179.97C27.891,-168.9 30.411,-154.61 37.5,-144 42.909,-135.91 50.888,-129.22 59.002,-123.93"/>
<polygon fill="black" stroke="black" points="60.932,-126.855 67.744,-118.74 57.3584,-120.835 60.932,-126.855"/>
<text text-anchor="middle" x="57.25" y="-147.4" font-family="Times,serif" font-size="14.00">0.0244</text>
</g>
<!-- G#4&#45;&#45;G#4 -->
<g id="edge4" class="edge"><title>G#4&#45;&#45;G#4</title>
<path fill="none" stroke="black" d="M114.53,-116.12C125.51,-116.89 135,-114.19 135,-108 135,-103.84 130.72,-101.26 124.57,-100.24"/>
<polygon fill="black" stroke="black" points="124.649,-96.7407 114.53,-99.879 124.398,-103.736 124.649,-96.7407"/>
<text text-anchor="middle" x="154.25" y="-102.4" font-family="Times,serif" font-size="14.00">0.0244</text>
</g>
<!-- B2 -->
<g id="node5" class="node"><title>B2</title>
<ellipse fill="none" stroke="black" cx="826" cy="-288" rx="27" ry="18"/>
<text text-anchor="middle" x="826" y="-282.4" font-family="Times,serif" font-size="14.00">B2</text>
</g>
<!-- C#3 -->
<g id="node6" class="node"><title>C#3</title>
<ellipse fill="none" stroke="black" cx="768" cy="-198" rx="27.2698" ry="18"/>
<text text-anchor="middle" x="768" y="-192.4" font-family="Times,serif" font-size="14.00">C#3</text>
</g>
<!-- B2&#45;&#45;C#3 -->
<g id="edge6" class="edge"><title>B2&#45;&#45;C#3</title>
<path fill="none" stroke="black" d="M803.58,-277.67C792.65,-271.93 780.41,-263.44 773.5,-252 768.95,-244.46 767.02,-235.19 766.4,-226.52"/>
<polygon fill="black" stroke="black" points="769.897,-226.335 766.19,-216.41 762.899,-226.481 769.897,-226.335"/>
<text text-anchor="middle" x="793.25" y="-237.4" font-family="Times,serif" font-size="14.00">0.0244</text>
</g>
<!-- E2 -->
<g id="node8" class="node"><title>E2</title>
<ellipse fill="none" stroke="black" cx="826" cy="-18" rx="27" ry="18"/>
<text text-anchor="middle" x="826" y="-12.4" font-family="Times,serif" font-size="14.00">E2</text>
</g>
<!-- B2&#45;&#45;E2 -->
<g id="edge8" class="edge"><title>B2&#45;&#45;E2</title>
<path fill="none" stroke="black" d="M826,-269.83C826,-224.45 826,-101.06 826,-46.071"/>
<polygon fill="black" stroke="black" points="829.5,-46.029 826,-36.029 822.5,-46.029 829.5,-46.029"/>
<text text-anchor="middle" x="845.25" y="-147.4" font-family="Times,serif" font-size="14.00">0.0244</text>
</g>
<!-- G#2 -->
<g id="node10" class="node"><title>G#2</title>
<ellipse fill="none" stroke="black" cx="882" cy="-198" rx="27.8358" ry="18"/>
<text text-anchor="middle" x="882" y="-192.4" font-family="Times,serif" font-size="14.00">G#2</text>
</g>
<!-- B2&#45;&#45;G#2 -->
<g id="edge10" class="edge"><title>B2&#45;&#45;G#2</title>
<path fill="none" stroke="black" d="M836.01,-271.27C844.48,-257.96 856.75,-238.67 866.49,-223.37"/>
<polygon fill="black" stroke="black" points="869.471,-225.205 871.89,-214.89 863.566,-221.445 869.471,-225.205"/>
<text text-anchor="middle" x="879.25" y="-237.4" font-family="Times,serif" font-size="14.00">0.0244</text>
</g>
<!-- F#2 -->
<g id="node12" class="node"><title>F#2</title>
<ellipse fill="none" stroke="black" cx="715" cy="-108" rx="27" ry="18"/>
<text text-anchor="middle" x="715" y="-102.4" font-family="Times,serif" font-size="14.00">F#2</text>
</g>
<!-- C#3&#45;&#45;F#2 -->
<g id="edge12" class="edge"><title>C#3&#45;&#45;F#2</title>
<path fill="none" stroke="black" d="M758.28,-180.86C750.36,-167.71 739.04,-148.92 729.97,-133.86"/>
<polygon fill="black" stroke="black" points="732.816,-131.802 724.66,-125.04 726.819,-135.412 732.816,-131.802"/>
<text text-anchor="middle" x="766.25" y="-147.4" font-family="Times,serif" font-size="14.00">0.0244</text>
</g>
<!-- F#2&#45;&#45;E2 -->
<g id="edge14" class="edge"><title>F#2&#45;&#45;E2</title>
<path fill="none" stroke="black" d="M729.86,-92.409C741.37,-81.385 757.93,-66.132 773.5,-54 781.24,-47.967 789.99,-41.869 798.1,-36.492"/>
<polygon fill="black" stroke="black" points="800.1,-39.3666 806.57,-30.977 796.28,-33.5005 800.1,-39.3666"/>
<text text-anchor="middle" x="793.25" y="-57.4" font-family="Times,serif" font-size="14.00">0.0244</text>
</g>
<!-- F#2&#45;&#45;F#2 -->
<g id="edge16" class="edge"><title>F#2&#45;&#45;F#2</title>
<path fill="none" stroke="black" d="M739.53,-116.12C750.51,-116.89 760,-114.19 760,-108 760,-103.84 755.72,-101.26 749.57,-100.24"/>
<polygon fill="black" stroke="black" points="749.649,-96.7407 739.53,-99.879 749.398,-103.736 749.649,-96.7407"/>
<text text-anchor="middle" x="779.25" y="-102.4" font-family="Times,serif" font-size="14.00">0.0244</text>
</g>
<!-- B4 -->
<g id="node16" class="node"><title>B4</title>
<ellipse fill="none" stroke="black" cx="955" cy="-198" rx="27" ry="18"/>
<text text-anchor="middle" x="955" y="-192.4" font-family="Times,serif" font-size="14.00">B4</text>
</g>
<!-- E3 -->
<g id="node17" class="node"><title>E3</title>
<ellipse fill="none" stroke="black" cx="955" cy="-108" rx="27" ry="18"/>
<text text-anchor="middle" x="955" y="-102.4" font-family="Times,serif" font-size="14.00">E3</text>
</g>
<!-- B4&#45;&#45;E3 -->
<g id="edge18" class="edge"><title>B4&#45;&#45;E3</title>
<path fill="none" stroke="black" d="M955,-179.61C955,-167.24 955,-150.37 955,-136.22"/>
<polygon fill="black" stroke="black" points="958.5,-136.05 955,-126.05 951.5,-136.05 958.5,-136.05"/>
<text text-anchor="middle" x="974.25" y="-147.4" font-family="Times,serif" font-size="14.00">0.0244</text>
</g>
<!-- E3&#45;&#45;E2 -->
<g id="edge20" class="edge"><title>E3&#45;&#45;E2</title>
<path fill="none" stroke="black" d="M936.79,-94.578C914.8,-79.576 877.63,-54.22 852.47,-37.057"/>
<polygon fill="black" stroke="black" points="854.353,-34.1045 844.12,-31.358 850.407,-39.8862 854.353,-34.1045"/>
<text text-anchor="middle" x="921.25" y="-57.4" font-family="Times,serif" font-size="14.00">0.0244</text>
</g>
<!-- C#4 -->
<g id="node20" class="node"><title>C#4</title>
<ellipse fill="none" stroke="black" cx="500" cy="-288" rx="27.2698" ry="18"/>
<text text-anchor="middle" x="500" y="-282.4" font-family="Times,serif" font-size="14.00">C#4</text>
</g>
<!-- E5 -->
<g id="node21" class="node"><title>E5</title>
<ellipse fill="none" stroke="black" cx="500" cy="-198" rx="27" ry="18"/>
<text text-anchor="middle" x="500" y="-192.4" font-family="Times,serif" font-size="14.00">E5</text>
</g>
<!-- C#4&#45;&#45;E5 -->
<g id="edge22" class="edge"><title>C#4&#45;&#45;E5</title>
<path fill="none" stroke="black" d="M500,-269.61C500,-257.24 500,-240.37 500,-226.22"/>
<polygon fill="black" stroke="black" points="503.5,-226.05 500,-216.05 496.5,-226.05 503.5,-226.05"/>
<text text-anchor="middle" x="519.25" y="-237.4" font-family="Times,serif" font-size="14.00">0.0244</text>
</g>
<!-- E&#45;5 -->
<g id="node23" class="node"><title>E&#45;5</title>
<ellipse fill="none" stroke="black" cx="624" cy="-288" rx="27" ry="18"/>
<text text-anchor="middle" x="624" y="-282.4" font-family="Times,serif" font-size="14.00">E&#45;5</text>
</g>
<!-- E&#45;5&#45;&#45;E5 -->
<g id="edge24" class="edge"><title>E&#45;5&#45;&#45;E5</title>
<path fill="none" stroke="black" d="M606.23,-274.39C585.24,-259.49 550.13,-234.57 526.06,-217.49"/>
<polygon fill="black" stroke="black" points="527.911,-214.512 517.73,-211.58 523.861,-220.221 527.911,-214.512"/>
<text text-anchor="middle" x="593.25" y="-237.4" font-family="Times,serif" font-size="14.00">0.0244</text>
</g>
<!-- B3 -->
<g id="node25" class="node"><title>B3</title>
<ellipse fill="none" stroke="black" cx="624" cy="-198" rx="27" ry="18"/>
<text text-anchor="middle" x="624" y="-192.4" font-family="Times,serif" font-size="14.00">B3</text>
</g>
<!-- E&#45;5&#45;&#45;B3 -->
<g id="edge26" class="edge"><title>E&#45;5&#45;&#45;B3</title>
<path fill="none" stroke="black" d="M624,-269.61C624,-257.24 624,-240.37 624,-226.22"/>
<polygon fill="black" stroke="black" points="627.5,-226.05 624,-216.05 620.5,-226.05 627.5,-226.05"/>
<text text-anchor="middle" x="643.25" y="-237.4" font-family="Times,serif" font-size="14.00">0.0244</text>
</g>
<!-- C#5 -->
<g id="node27" class="node"><title>C#5</title>
<ellipse fill="none" stroke="black" cx="696" cy="-198" rx="27.2698" ry="18"/>
<text text-anchor="middle" x="696" y="-192.4" font-family="Times,serif" font-size="14.00">C#5</text>
</g>
<!-- E&#45;5&#45;&#45;C#5 -->
<g id="edge28" class="edge"><title>E&#45;5&#45;&#45;C#5</title>
<path fill="none" stroke="black" d="M642.03,-274.31C649.98,-268.16 659.07,-260.31 666,-252 672.84,-243.81 678.95,-233.84 683.84,-224.76"/>
<polygon fill="black" stroke="black" points="687.018,-226.233 688.48,-215.74 680.793,-223.031 687.018,-226.233"/>
<text text-anchor="middle" x="698.25" y="-237.4" font-family="Times,serif" font-size="14.00">0.0488</text>
</g>
<!-- E4 -->
<g id="node29" class="node"><title>E4</title>
<ellipse fill="none" stroke="black" cx="174" cy="-288" rx="27" ry="18"/>
<text text-anchor="middle" x="174" y="-282.4" font-family="Times,serif" font-size="14.00">E4</text>
</g>
<!-- E4&#45;&#45;G#4 -->
<g id="edge30" class="edge"><title>E4&#45;&#45;G#4</title>
<path fill="none" stroke="black" d="M154.99,-274.93C137.26,-262.52 111.75,-241.43 99.5,-216 87.465,-191.02 86.204,-158.97 87.263,-136.48"/>
<polygon fill="black" stroke="black" points="90.7699,-136.488 87.932,-126.28 83.7849,-136.029 90.7699,-136.488"/>
<text text-anchor="middle" x="119.25" y="-192.4" font-family="Times,serif" font-size="14.00">0.0244</text>
</g>
<!-- F#4 -->
<g id="node31" class="node"><title>F#4</title>
<ellipse fill="none" stroke="black" cx="174" cy="-198" rx="27" ry="18"/>
<text text-anchor="middle" x="174" y="-192.4" font-family="Times,serif" font-size="14.00">F#4</text>
</g>
<!-- E4&#45;&#45;F#4 -->
<g id="edge32" class="edge"><title>E4&#45;&#45;F#4</title>
<path fill="none" stroke="black" d="M174,-269.61C174,-257.24 174,-240.37 174,-226.22"/>
<polygon fill="black" stroke="black" points="177.5,-226.05 174,-216.05 170.5,-226.05 177.5,-226.05"/>
<text text-anchor="middle" x="193.25" y="-237.4" font-family="Times,serif" font-size="14.00">0.0488</text>
</g>
<!-- G#5 -->
<g id="node33" class="node"><title>G#5</title>
<ellipse fill="none" stroke="black" cx="303" cy="-198" rx="27.8358" ry="18"/>
<text text-anchor="middle" x="303" y="-192.4" font-family="Times,serif" font-size="14.00">G#5</text>
</g>
<!-- E4&#45;&#45;G#5 -->
<g id="edge34" class="edge"><title>E4&#45;&#45;G#5</title>
<path fill="none" stroke="black" d="M192.21,-274.58C214.08,-259.66 250.95,-234.51 276.1,-217.35"/>
<polygon fill="black" stroke="black" points="278.182,-220.167 284.47,-211.64 274.237,-214.384 278.182,-220.167"/>
<text text-anchor="middle" x="270.25" y="-237.4" font-family="Times,serif" font-size="14.00">0.0244</text>
</g>
<!-- F#4&#45;&#45;G#4 -->
<g id="edge36" class="edge"><title>F#4&#45;&#45;G#4</title>
<path fill="none" stroke="black" d="M160.13,-182.47C146.75,-168.46 126.33,-147.07 110.97,-130.97"/>
<polygon fill="black" stroke="black" points="113.326,-128.369 103.89,-123.55 108.261,-133.201 113.326,-128.369"/>
<text text-anchor="middle" x="159.25" y="-147.4" font-family="Times,serif" font-size="14.00">0.0732</text>
</g>
<!-- F#4&#45;&#45;F#4 -->
<g id="edge38" class="edge"><title>F#4&#45;&#45;F#4</title>
<path fill="none" stroke="black" d="M198.53,-206.12C209.51,-206.89 219,-204.19 219,-198 219,-193.84 214.72,-191.26 208.57,-190.24"/>
<polygon fill="black" stroke="black" points="208.649,-186.741 198.53,-189.88 208.398,-193.736 208.649,-186.741"/>
<text text-anchor="middle" x="238.25" y="-192.4" font-family="Times,serif" font-size="14.00">0.1220</text>
</g>
<!-- F#3 -->
<g id="node37" class="node"><title>F#3</title>
<ellipse fill="none" stroke="black" cx="1027" cy="-198" rx="27" ry="18"/>
<text text-anchor="middle" x="1027" y="-192.4" font-family="Times,serif" font-size="14.00">F#3</text>
</g>
<!-- F#3&#45;&#45;E3 -->
<g id="edge40" class="edge"><title>F#3&#45;&#45;E3</title>
<path fill="none" stroke="black" d="M1019.5,-180.26C1014.1,-169.31 1006.2,-155.04 997,-144 992.34,-138.42 986.71,-133.04 981.11,-128.25"/>
<polygon fill="black" stroke="black" points="983,-125.276 973.03,-121.69 978.587,-130.71 983,-125.276"/>
<text text-anchor="middle" x="1028.2" y="-147.4" font-family="Times,serif" font-size="14.00">0.0244</text>
</g>
<!-- F#5 -->
<g id="node39" class="node"><title>F#5</title>
<ellipse fill="none" stroke="black" cx="376" cy="-288" rx="27" ry="18"/>
<text text-anchor="middle" x="376" y="-282.4" font-family="Times,serif" font-size="14.00">F#5</text>
</g>
<!-- F#5&#45;&#45;E5 -->
<g id="edge42" class="edge"><title>F#5&#45;&#45;E5</title>
<path fill="none" stroke="black" d="M393.77,-274.39C414.76,-259.49 449.87,-234.57 473.94,-217.49"/>
<polygon fill="black" stroke="black" points="476.139,-220.221 482.27,-211.58 472.089,-214.512 476.139,-220.221"/>
<text text-anchor="middle" x="469.25" y="-237.4" font-family="Times,serif" font-size="14.00">0.0488</text>
</g>
<!-- F#5&#45;&#45;G#5 -->
<g id="edge44" class="edge"><title>F#5&#45;&#45;G#5</title>
<path fill="none" stroke="black" d="M357.77,-274.32C349.73,-268.17 340.54,-260.32 333.5,-252 326.58,-243.82 320.38,-233.85 315.4,-224.77"/>
<polygon fill="black" stroke="black" points="318.418,-222.987 310.68,-215.75 312.215,-226.233 318.418,-222.987"/>
<text text-anchor="middle" x="353.25" y="-237.4" font-family="Times,serif" font-size="14.00">0.0244</text>
</g>
<!-- E&#45;4 -->
<g id="node42" class="node"><title>E&#45;4</title>
<ellipse fill="none" stroke="black" cx="376" cy="-198" rx="27" ry="18"/>
<text text-anchor="middle" x="376" y="-192.4" font-family="Times,serif" font-size="14.00">E&#45;4</text>
</g>
<!-- F#5&#45;&#45;E&#45;4 -->
<g id="edge46" class="edge"><title>F#5&#45;&#45;E&#45;4</title>
<path fill="none" stroke="black" d="M376,-269.61C376,-257.24 376,-240.37 376,-226.22"/>
<polygon fill="black" stroke="black" points="379.5,-226.05 376,-216.05 372.5,-226.05 379.5,-226.05"/>
<text text-anchor="middle" x="395.25" y="-237.4" font-family="Times,serif" font-size="14.00">0.0244</text>
</g>
</g>
</svg>
