<?xml version="1.0" encoding="UTF-8" standalone="no"?>
<!DOCTYPE svg PUBLIC "-//W3C//DTD SVG 1.1//EN"
 "http://www.w3.org/Graphics/SVG/1.1/DTD/svg11.dtd">
<!-- Generated by graphviz version 2.28.0 (20121019.2215)
 -->
<!-- Title: _anonymous_0 Pages: 1 -->
<svg width="527pt" height="584pt"
 viewBox="0.00 0.00 526.50 584.00" xmlns="http://www.w3.org/2000/svg" xmlns:xlink="http://www.w3.org/1999/xlink">
<g id="graph1" class="graph" transform="scale(1 1) rotate(0) translate(4 580)">
<title>_anonymous_0</title>
<polygon fill="white" stroke="white" points="-4,5 -4,-580 523.5,-580 523.5,5 -4,5"/>
<!-- A1 -->
<g id="node1" class="node"><title>A1</title>
<ellipse fill="none" stroke="black" cx="27" cy="-468" rx="27" ry="18"/>
<text text-anchor="middle" x="27" y="-462.4" font-family="Times,serif" font-size="14.00">A1</text>
</g>
<!-- A1&#45;&#45;A1 -->
<g id="edge2" class="edge"><title>A1&#45;&#45;A1</title>
<path fill="none" stroke="black" d="M51.532,-476.12C62.508,-476.89 72,-474.19 72,-468 72,-463.84 67.715,-461.26 61.574,-460.24"/>
<polygon fill="black" stroke="black" points="61.651,-456.741 51.532,-459.88 61.4002,-463.736 61.651,-456.741"/>
<text text-anchor="middle" x="91.25" y="-462.4" font-family="Times,serif" font-size="14.00">0.0615</text>
</g>
<!-- B1 -->
<g id="node3" class="node"><title>B1</title>
<ellipse fill="none" stroke="black" cx="193" cy="-468" rx="27" ry="18"/>
<text text-anchor="middle" x="193" y="-462.4" font-family="Times,serif" font-size="14.00">B1</text>
</g>
<!-- B1&#45;&#45;B1 -->
<g id="edge4" class="edge"><title>B1&#45;&#45;B1</title>
<path fill="none" stroke="black" d="M217.53,-476.12C228.51,-476.89 238,-474.19 238,-468 238,-463.84 233.72,-461.26 227.57,-460.24"/>
<polygon fill="black" stroke="black" points="227.649,-456.741 217.53,-459.88 227.398,-463.736 227.649,-456.741"/>
<text text-anchor="middle" x="257.25" y="-462.4" font-family="Times,serif" font-size="14.00">0.1077</text>
</g>
<!-- B2 -->
<g id="node5" class="node"><title>B2</title>
<ellipse fill="none" stroke="black" cx="293" cy="-108" rx="27" ry="18"/>
<text text-anchor="middle" x="293" y="-102.4" font-family="Times,serif" font-size="14.00">B2</text>
</g>
<!-- G#2 -->
<g id="node6" class="node"><title>G#2</title>
<ellipse fill="none" stroke="black" cx="293" cy="-18" rx="27.8358" ry="18"/>
<text text-anchor="middle" x="293" y="-12.4" font-family="Times,serif" font-size="14.00">G#2</text>
</g>
<!-- B2&#45;&#45;G#2 -->
<g id="edge6" class="edge"><title>B2&#45;&#45;G#2</title>
<path fill="none" stroke="black" d="M293,-89.614C293,-77.24 293,-60.369 293,-46.22"/>
<polygon fill="black" stroke="black" points="296.5,-46.05 293,-36.05 289.5,-46.05 296.5,-46.05"/>
<text text-anchor="middle" x="312.25" y="-57.4" font-family="Times,serif" font-size="14.00">0.0308</text>
</g>
<!-- E3 -->
<g id="node8" class="node"><title>E3</title>
<ellipse fill="none" stroke="black" cx="289" cy="-378" rx="27" ry="18"/>
<text text-anchor="middle" x="289" y="-372.4" font-family="Times,serif" font-size="14.00">E3</text>
</g>
<!-- B2&#45;&#45;E3 -->
<g id="edge8" class="edge"><title>B2&#45;&#45;E3</title>
<path fill="none" stroke="black" d="M291.63,-126.38C289.8,-150.51 286.65,-195.54 285.5,-234 284.29,-274.28 286.02,-320.95 287.45,-349.73"/>
<polygon fill="black" stroke="black" points="283.961,-350.027 287.98,-359.83 290.951,-349.66 283.961,-350.027"/>
<text text-anchor="middle" x="305.25" y="-237.4" font-family="Times,serif" font-size="14.00">0.0231</text>
</g>
<!-- E2 -->
<g id="node10" class="node"><title>E2</title>
<ellipse fill="none" stroke="black" cx="256" cy="-558" rx="27" ry="18"/>
<text text-anchor="middle" x="256" y="-552.4" font-family="Times,serif" font-size="14.00">E2</text>
</g>
<!-- B2&#45;&#45;E2 -->
<g id="edge10" class="edge"><title>B2&#45;&#45;E2</title>
<path fill="none" stroke="black" d="M266.35,-111.96C222.04,-118.53 138,-138.67 138,-197 138,-469 138,-469 138,-469 138,-510.98 186.59,-535.32 221.41,-547.37"/>
<polygon fill="black" stroke="black" points="220.667,-550.809 231.26,-550.59 222.843,-544.156 220.667,-550.809"/>
<text text-anchor="middle" x="157.25" y="-327.4" font-family="Times,serif" font-size="14.00">0.0231</text>
</g>
<!-- C#3 -->
<g id="node12" class="node"><title>C#3</title>
<ellipse fill="none" stroke="black" cx="341" cy="-288" rx="27.2698" ry="18"/>
<text text-anchor="middle" x="341" y="-282.4" font-family="Times,serif" font-size="14.00">C#3</text>
</g>
<!-- B2&#45;&#45;C#3 -->
<g id="edge12" class="edge"><title>B2&#45;&#45;C#3</title>
<path fill="none" stroke="black" d="M297.52,-125.76C305.86,-156.7 323.75,-223.04 333.79,-260.26"/>
<polygon fill="black" stroke="black" points="330.415,-261.188 336.4,-269.93 337.173,-259.363 330.415,-261.188"/>
<text text-anchor="middle" x="341.25" y="-192.4" font-family="Times,serif" font-size="14.00">0.0231</text>
</g>
<!-- E3&#45;&#45;C#3 -->
<g id="edge14" class="edge"><title>E3&#45;&#45;C#3</title>
<path fill="none" stroke="black" d="M292.95,-359.95C295.93,-349.14 300.68,-335.14 307.5,-324 310.47,-319.16 314.2,-314.44 318.08,-310.11"/>
<polygon fill="black" stroke="black" points="320.701,-312.434 325.11,-302.8 315.656,-307.582 320.701,-312.434"/>
<text text-anchor="middle" x="327.25" y="-327.4" font-family="Times,serif" font-size="14.00">0.0231</text>
</g>
<!-- E2&#45;&#45;B1 -->
<g id="edge16" class="edge"><title>E2&#45;&#45;B1</title>
<path fill="none" stroke="black" d="M244.74,-541.27C235.15,-527.88 221.23,-508.43 210.24,-493.08"/>
<polygon fill="black" stroke="black" points="212.837,-490.694 204.17,-484.6 207.145,-494.769 212.837,-490.694"/>
<text text-anchor="middle" x="250.25" y="-507.4" font-family="Times,serif" font-size="14.00">0.1846</text>
</g>
<!-- E2&#45;&#45;E2 -->
<g id="edge18" class="edge"><title>E2&#45;&#45;E2</title>
<path fill="none" stroke="black" d="M280.53,-566.12C291.51,-566.89 301,-564.19 301,-558 301,-553.84 296.72,-551.26 290.57,-550.24"/>
<polygon fill="black" stroke="black" points="290.649,-546.741 280.53,-549.88 290.398,-553.736 290.649,-546.741"/>
<text text-anchor="middle" x="320.25" y="-552.4" font-family="Times,serif" font-size="14.00">0.0308</text>
</g>
<!-- F#3 -->
<g id="node17" class="node"><title>F#3</title>
<ellipse fill="none" stroke="black" cx="321" cy="-468" rx="27" ry="18"/>
<text text-anchor="middle" x="321" y="-462.4" font-family="Times,serif" font-size="14.00">F#3</text>
</g>
<!-- E2&#45;&#45;F#3 -->
<g id="edge20" class="edge"><title>E2&#45;&#45;F#3</title>
<path fill="none" stroke="black" d="M267.62,-541.27C277.6,-527.75 292.14,-508.07 303.53,-492.65"/>
<polygon fill="black" stroke="black" points="306.351,-494.722 309.48,-484.6 300.721,-490.561 306.351,-494.722"/>
<text text-anchor="middle" x="314.25" y="-507.4" font-family="Times,serif" font-size="14.00">0.0231</text>
</g>
<!-- F#2 -->
<g id="node19" class="node"><title>F#2</title>
<ellipse fill="none" stroke="black" cx="404" cy="-198" rx="27" ry="18"/>
<text text-anchor="middle" x="404" y="-192.4" font-family="Times,serif" font-size="14.00">F#2</text>
</g>
<!-- C#3&#45;&#45;F#2 -->
<g id="edge22" class="edge"><title>C#3&#45;&#45;F#2</title>
<path fill="none" stroke="black" d="M352.26,-271.27C361.85,-257.88 375.77,-238.43 386.76,-223.08"/>
<polygon fill="black" stroke="black" points="389.855,-224.769 392.83,-214.6 384.163,-220.694 389.855,-224.769"/>
<text text-anchor="middle" x="397.25" y="-237.4" font-family="Times,serif" font-size="14.00">0.0231</text>
</g>
<!-- F#3&#45;&#45;E3 -->
<g id="edge30" class="edge"><title>F#3&#45;&#45;E3</title>
<path fill="none" stroke="black" d="M314.98,-450.45C310.36,-437.75 303.9,-419.96 298.57,-405.32"/>
<polygon fill="black" stroke="black" points="301.807,-403.981 295.1,-395.78 295.229,-406.374 301.807,-403.981"/>
<text text-anchor="middle" x="327.25" y="-417.4" font-family="Times,serif" font-size="14.00">0.0231</text>
</g>
<!-- F#2&#45;&#45;B2 -->
<g id="edge24" class="edge"><title>F#2&#45;&#45;B2</title>
<path fill="none" stroke="black" d="M387.14,-183.63C368.62,-168.95 338.69,-145.22 317.56,-128.47"/>
<polygon fill="black" stroke="black" points="319.661,-125.669 309.65,-122.2 315.313,-131.155 319.661,-125.669"/>
<text text-anchor="middle" x="377.25" y="-147.4" font-family="Times,serif" font-size="14.00">0.0231</text>
</g>
<!-- F#2&#45;&#45;E2 -->
<g id="edge26" class="edge"><title>F#2&#45;&#45;E2</title>
<path fill="none" stroke="black" d="M423.97,-210.5C446.49,-225.14 480,-252.68 480,-287 480,-469 480,-469 480,-469 480,-508.88 355.47,-538.21 292.11,-550.55"/>
<polygon fill="black" stroke="black" points="291.294,-547.143 282.13,-552.46 292.61,-554.018 291.294,-547.143"/>
<text text-anchor="middle" x="499.25" y="-372.4" font-family="Times,serif" font-size="14.00">0.0308</text>
</g>
<!-- F#2&#45;&#45;F#2 -->
<g id="edge28" class="edge"><title>F#2&#45;&#45;F#2</title>
<path fill="none" stroke="black" d="M428.53,-206.12C439.51,-206.89 449,-204.19 449,-198 449,-193.84 444.72,-191.26 438.57,-190.24"/>
<polygon fill="black" stroke="black" points="438.649,-186.741 428.53,-189.88 438.398,-193.736 438.649,-186.741"/>
<text text-anchor="middle" x="468.25" y="-192.4" font-family="Times,serif" font-size="14.00">0.0231</text>
</g>
<!-- C#2 -->
<g id="node25" class="node"><title>C#2</title>
<ellipse fill="none" stroke="black" cx="361" cy="-378" rx="27.2698" ry="18"/>
<text text-anchor="middle" x="361" y="-372.4" font-family="Times,serif" font-size="14.00">C#2</text>
</g>
<!-- C#2&#45;&#45;C#3 -->
<g id="edge32" class="edge"><title>C#2&#45;&#45;C#3</title>
<path fill="none" stroke="black" d="M357.14,-360.03C354.29,-347.49 350.36,-330.17 347.08,-315.77"/>
<polygon fill="black" stroke="black" points="350.47,-314.895 344.84,-305.92 343.645,-316.447 350.47,-314.895"/>
<text text-anchor="middle" x="372.25" y="-327.4" font-family="Times,serif" font-size="14.00">0.0308</text>
</g>
<!-- C#2&#45;&#45;C#2 -->
<g id="edge34" class="edge"><title>C#2&#45;&#45;C#2</title>
<path fill="none" stroke="black" d="M385.53,-386.12C396.51,-386.89 406,-384.19 406,-378 406,-373.84 401.72,-371.26 395.57,-370.24"/>
<polygon fill="black" stroke="black" points="395.649,-366.741 385.53,-369.88 395.398,-373.736 395.649,-366.741"/>
<text text-anchor="middle" x="425.25" y="-372.4" font-family="Times,serif" font-size="14.00">0.0923</text>
</g>
<!-- D2 -->
<g id="node28" class="node"><title>D2</title>
<ellipse fill="none" stroke="black" cx="27" cy="-558" rx="27" ry="18"/>
<text text-anchor="middle" x="27" y="-552.4" font-family="Times,serif" font-size="14.00">D2</text>
</g>
<!-- D2&#45;&#45;A1 -->
<g id="edge36" class="edge"><title>D2&#45;&#45;A1</title>
<path fill="none" stroke="black" d="M27,-539.61C27,-527.24 27,-510.37 27,-496.22"/>
<polygon fill="black" stroke="black" points="30.5001,-496.05 27,-486.05 23.5001,-496.05 30.5001,-496.05"/>
<text text-anchor="middle" x="46.25" y="-507.4" font-family="Times,serif" font-size="14.00">0.0077</text>
</g>
<!-- D2&#45;&#45;D2 -->
<g id="edge38" class="edge"><title>D2&#45;&#45;D2</title>
<path fill="none" stroke="black" d="M51.532,-566.12C62.508,-566.89 72,-564.19 72,-558 72,-553.84 67.715,-551.26 61.574,-550.24"/>
<polygon fill="black" stroke="black" points="61.651,-546.741 51.532,-549.88 61.4002,-553.736 61.651,-546.741"/>
<text text-anchor="middle" x="91.25" y="-552.4" font-family="Times,serif" font-size="14.00">0.1231</text>
</g>
<!-- E&#45;2 -->
<g id="node31" class="node"><title>E&#45;2</title>
<ellipse fill="none" stroke="black" cx="393" cy="-468" rx="27" ry="18"/>
<text text-anchor="middle" x="393" y="-462.4" font-family="Times,serif" font-size="14.00">E&#45;2</text>
</g>
<!-- E&#45;2&#45;&#45;C#2 -->
<g id="edge40" class="edge"><title>E&#45;2&#45;&#45;C#2</title>
<path fill="none" stroke="black" d="M386.98,-450.45C382.36,-437.75 375.9,-419.96 370.57,-405.32"/>
<polygon fill="black" stroke="black" points="373.807,-403.981 367.1,-395.78 367.229,-406.374 373.807,-403.981"/>
<text text-anchor="middle" x="398.25" y="-417.4" font-family="Times,serif" font-size="14.00">0.0308</text>
</g>
<!-- G1 -->
<g id="node33" class="node"><title>G1</title>
<ellipse fill="none" stroke="black" cx="384" cy="-558" rx="27" ry="18"/>
<text text-anchor="middle" x="384" y="-552.4" font-family="Times,serif" font-size="14.00">G1</text>
</g>
<!-- G1&#45;&#45;G1 -->
<g id="edge42" class="edge"><title>G1&#45;&#45;G1</title>
<path fill="none" stroke="black" d="M408.53,-566.12C419.51,-566.89 429,-564.19 429,-558 429,-553.84 424.72,-551.26 418.57,-550.24"/>
<polygon fill="black" stroke="black" points="418.649,-546.741 408.53,-549.88 418.398,-553.736 418.649,-546.741"/>
<text text-anchor="middle" x="448.25" y="-552.4" font-family="Times,serif" font-size="14.00">0.0154</text>
</g>
</g>
</svg>
