<?xml version="1.0" encoding="UTF-8" standalone="no"?>
<!DOCTYPE svg PUBLIC "-//W3C//DTD SVG 1.1//EN"
 "http://www.w3.org/Graphics/SVG/1.1/DTD/svg11.dtd">
<!-- Generated by graphviz version 2.28.0 (20121019.2215)
 -->
<!-- Title: _anonymous_0 Pages: 1 -->
<svg width="191pt" height="134pt"
 viewBox="0.00 0.00 190.50 134.00" xmlns="http://www.w3.org/2000/svg" xmlns:xlink="http://www.w3.org/1999/xlink">
<g id="graph1" class="graph" transform="scale(1 1) rotate(0) translate(4 130)">
<title>_anonymous_0</title>
<polygon fill="white" stroke="white" points="-4,5 -4,-130 187.5,-130 187.5,5 -4,5"/>
<!-- B&#45;2 -->
<g id="node1" class="node"><title>B&#45;2</title>
<ellipse fill="none" stroke="black" cx="27" cy="-108" rx="27" ry="18"/>
<text text-anchor="middle" x="27" y="-102.4" font-family="Times,serif" font-size="14.00">B&#45;2</text>
</g>
<!-- G#2 -->
<g id="node2" class="node"><title>G#2</title>
<ellipse fill="none" stroke="black" cx="60" cy="-18" rx="27.8358" ry="18"/>
<text text-anchor="middle" x="60" y="-12.4" font-family="Times,serif" font-size="14.00">G#2</text>
</g>
<!-- B&#45;2&#45;&#45;G#2 -->
<g id="edge2" class="edge"><title>B&#45;2&#45;&#45;G#2</title>
<path fill="none" stroke="black" d="M26.863,-89.724C27.319,-79.078 28.904,-65.341 33.5,-54 35.221,-49.753 37.596,-45.57 40.222,-41.656"/>
<polygon fill="black" stroke="black" points="43.0576,-43.7081 46.216,-33.595 37.4403,-39.5312 43.0576,-43.7081"/>
<text text-anchor="middle" x="53.25" y="-57.4" font-family="Times,serif" font-size="14.00">0.0056</text>
</g>
<!-- G#2&#45;&#45;G#2 -->
<g id="edge4" class="edge"><title>G#2&#45;&#45;G#2</title>
<path fill="none" stroke="black" d="M84.532,-26.121C95.508,-26.895 105,-24.188 105,-18 105,-13.843 100.72,-11.257 94.574,-10.242"/>
<polygon fill="black" stroke="black" points="94.652,-6.74263 84.532,-9.8789 94.399,-13.7381 94.652,-6.74263"/>
<text text-anchor="middle" x="124.25" y="-12.4" font-family="Times,serif" font-size="14.00">0.0565</text>
</g>
<!-- F#2 -->
<g id="node5" class="node"><title>F#2</title>
<ellipse fill="none" stroke="black" cx="99" cy="-108" rx="27" ry="18"/>
<text text-anchor="middle" x="99" y="-102.4" font-family="Times,serif" font-size="14.00">F#2</text>
</g>
<!-- F#2&#45;&#45;G#2 -->
<g id="edge6" class="edge"><title>F#2&#45;&#45;G#2</title>
<path fill="none" stroke="black" d="M91.664,-90.448C85.999,-77.665 78.053,-59.735 71.539,-45.036"/>
<polygon fill="black" stroke="black" points="74.5547,-43.2022 67.303,-35.478 68.155,-46.0385 74.5547,-43.2022"/>
<text text-anchor="middle" x="102.25" y="-57.4" font-family="Times,serif" font-size="14.00">0.0621</text>
</g>
<!-- F#2&#45;&#45;F#2 -->
<g id="edge8" class="edge"><title>F#2&#45;&#45;F#2</title>
<path fill="none" stroke="black" d="M123.53,-116.12C134.51,-116.89 144,-114.19 144,-108 144,-103.84 139.72,-101.26 133.57,-100.24"/>
<polygon fill="black" stroke="black" points="133.649,-96.7407 123.53,-99.879 133.398,-103.736 133.649,-96.7407"/>
<text text-anchor="middle" x="163.25" y="-102.4" font-family="Times,serif" font-size="14.00">0.6554</text>
</g>
</g>
</svg>
