<?xml version="1.0" encoding="UTF-8" standalone="no"?>
<!DOCTYPE svg PUBLIC "-//W3C//DTD SVG 1.1//EN"
 "http://www.w3.org/Graphics/SVG/1.1/DTD/svg11.dtd">
<!-- Generated by graphviz version 2.28.0 (20121019.2215)
 -->
<!-- Title: _anonymous_0 Pages: 1 -->
<svg width="147pt" height="134pt"
 viewBox="0.00 0.00 146.50 134.00" xmlns="http://www.w3.org/2000/svg" xmlns:xlink="http://www.w3.org/1999/xlink">
<g id="graph1" class="graph" transform="scale(1 1) rotate(0) translate(4 130)">
<title>_anonymous_0</title>
<polygon fill="white" stroke="white" points="-4,5 -4,-130 143.5,-130 143.5,5 -4,5"/>
<!-- F#4 -->
<g id="node1" class="node"><title>F#4</title>
<ellipse fill="none" stroke="black" cx="27" cy="-108" rx="27" ry="18"/>
<text text-anchor="middle" x="27" y="-102.4" font-family="Times,serif" font-size="14.00">F#4</text>
</g>
<!-- B3 -->
<g id="node2" class="node"><title>B3</title>
<ellipse fill="none" stroke="black" cx="27" cy="-18" rx="27" ry="18"/>
<text text-anchor="middle" x="27" y="-12.4" font-family="Times,serif" font-size="14.00">B3</text>
</g>
<!-- F#4&#45;&#45;B3 -->
<g id="edge2" class="edge"><title>F#4&#45;&#45;B3</title>
<path fill="none" stroke="black" d="M27,-89.614C27,-77.24 27,-60.369 27,-46.22"/>
<polygon fill="black" stroke="black" points="30.5001,-46.05 27,-36.05 23.5001,-46.05 30.5001,-46.05"/>
<text text-anchor="middle" x="46.25" y="-57.4" font-family="Times,serif" font-size="14.00">0.5000</text>
</g>
<!-- G#4 -->
<g id="node4" class="node"><title>G#4</title>
<ellipse fill="none" stroke="black" cx="100" cy="-108" rx="27.8358" ry="18"/>
<text text-anchor="middle" x="100" y="-102.4" font-family="Times,serif" font-size="14.00">G#4</text>
</g>
<!-- E4 -->
<g id="node5" class="node"><title>E4</title>
<ellipse fill="none" stroke="black" cx="100" cy="-18" rx="27" ry="18"/>
<text text-anchor="middle" x="100" y="-12.4" font-family="Times,serif" font-size="14.00">E4</text>
</g>
<!-- G#4&#45;&#45;E4 -->
<g id="edge4" class="edge"><title>G#4&#45;&#45;E4</title>
<path fill="none" stroke="black" d="M100,-89.614C100,-77.24 100,-60.369 100,-46.22"/>
<polygon fill="black" stroke="black" points="103.5,-46.05 100,-36.05 96.5001,-46.05 103.5,-46.05"/>
<text text-anchor="middle" x="119.25" y="-57.4" font-family="Times,serif" font-size="14.00">0.5000</text>
</g>
</g>
</svg>
