<?xml version="1.0" encoding="UTF-8" standalone="no"?>
<!DOCTYPE svg PUBLIC "-//W3C//DTD SVG 1.1//EN"
 "http://www.w3.org/Graphics/SVG/1.1/DTD/svg11.dtd">
<!-- Generated by graphviz version 2.28.0 (20121019.2215)
 -->
<!-- Title: _anonymous_0 Pages: 1 -->
<svg width="119pt" height="224pt"
 viewBox="0.00 0.00 118.50 224.00" xmlns="http://www.w3.org/2000/svg" xmlns:xlink="http://www.w3.org/1999/xlink">
<g id="graph1" class="graph" transform="scale(1 1) rotate(0) translate(4 220)">
<title>_anonymous_0</title>
<polygon fill="white" stroke="white" points="-4,5 -4,-220 115.5,-220 115.5,5 -4,5"/>
<!-- A2 -->
<g id="node1" class="node"><title>A2</title>
<ellipse fill="none" stroke="black" cx="27" cy="-108" rx="27" ry="18"/>
<text text-anchor="middle" x="27" y="-102.4" font-family="Times,serif" font-size="14.00">A2</text>
</g>
<!-- A2&#45;&#45;A2 -->
<g id="edge4" class="edge"><title>A2&#45;&#45;A2</title>
<path fill="none" stroke="black" d="M51.532,-116.12C62.508,-116.89 72,-114.19 72,-108 72,-103.84 67.715,-101.26 61.574,-100.24"/>
<polygon fill="black" stroke="black" points="61.6513,-96.7406 51.532,-99.879 61.3998,-103.736 61.6513,-96.7406"/>
<text text-anchor="middle" x="91.25" y="-102.4" font-family="Times,serif" font-size="14.00">0.4000</text>
</g>
<!-- C3 -->
<g id="node2" class="node"><title>C3</title>
<ellipse fill="none" stroke="black" cx="27" cy="-18" rx="27" ry="18"/>
<text text-anchor="middle" x="27" y="-12.4" font-family="Times,serif" font-size="14.00">C3</text>
</g>
<!-- A2&#45;&#45;C3 -->
<g id="edge2" class="edge"><title>A2&#45;&#45;C3</title>
<path fill="none" stroke="black" d="M27,-89.614C27,-77.24 27,-60.369 27,-46.22"/>
<polygon fill="black" stroke="black" points="30.5001,-46.05 27,-36.05 23.5001,-46.05 30.5001,-46.05"/>
<text text-anchor="middle" x="46.25" y="-57.4" font-family="Times,serif" font-size="14.00">0.2000</text>
</g>
<!-- F2 -->
<g id="node5" class="node"><title>F2</title>
<ellipse fill="none" stroke="black" cx="27" cy="-198" rx="27" ry="18"/>
<text text-anchor="middle" x="27" y="-192.4" font-family="Times,serif" font-size="14.00">F2</text>
</g>
<!-- F2&#45;&#45;A2 -->
<g id="edge6" class="edge"><title>F2&#45;&#45;A2</title>
<path fill="none" stroke="black" d="M27,-179.61C27,-167.24 27,-150.37 27,-136.22"/>
<polygon fill="black" stroke="black" points="30.5001,-136.05 27,-126.05 23.5001,-136.05 30.5001,-136.05"/>
<text text-anchor="middle" x="46.25" y="-147.4" font-family="Times,serif" font-size="14.00">0.2000</text>
</g>
<!-- F2&#45;&#45;F2 -->
<g id="edge8" class="edge"><title>F2&#45;&#45;F2</title>
<path fill="none" stroke="black" d="M51.532,-206.12C62.508,-206.89 72,-204.19 72,-198 72,-193.84 67.715,-191.26 61.574,-190.24"/>
<polygon fill="black" stroke="black" points="61.651,-186.741 51.532,-189.88 61.4002,-193.736 61.651,-186.741"/>
<text text-anchor="middle" x="91.25" y="-192.4" font-family="Times,serif" font-size="14.00">0.2000</text>
</g>
</g>
</svg>
