<?xml version="1.0" encoding="UTF-8" standalone="no"?>
<!DOCTYPE svg PUBLIC "-//W3C//DTD SVG 1.1//EN"
 "http://www.w3.org/Graphics/SVG/1.1/DTD/svg11.dtd">
<!-- Generated by graphviz version 2.28.0 (20121019.2215)
 -->
<!-- Title: _anonymous_0 Pages: 1 -->
<svg width="393pt" height="674pt"
 viewBox="0.00 0.00 393.00 674.00" xmlns="http://www.w3.org/2000/svg" xmlns:xlink="http://www.w3.org/1999/xlink">
<g id="graph1" class="graph" transform="scale(1 1) rotate(0) translate(4 670)">
<title>_anonymous_0</title>
<polygon fill="white" stroke="white" points="-4,5 -4,-670 390,-670 390,5 -4,5"/>
<!-- A1 -->
<g id="node1" class="node"><title>A1</title>
<ellipse fill="none" stroke="black" cx="27" cy="-558" rx="27" ry="18"/>
<text text-anchor="middle" x="27" y="-552.4" font-family="Times,serif" font-size="14.00">A1</text>
</g>
<!-- A1&#45;&#45;A1 -->
<g id="edge2" class="edge"><title>A1&#45;&#45;A1</title>
<path fill="none" stroke="black" d="M51.532,-566.12C62.508,-566.89 72,-564.19 72,-558 72,-553.84 67.715,-551.26 61.574,-550.24"/>
<polygon fill="black" stroke="black" points="61.651,-546.741 51.532,-549.88 61.4002,-553.736 61.651,-546.741"/>
<text text-anchor="middle" x="91.25" y="-552.4" font-family="Times,serif" font-size="14.00">0.0323</text>
</g>
<!-- C#2 -->
<g id="node3" class="node"><title>C#2</title>
<ellipse fill="none" stroke="black" cx="49" cy="-18" rx="27.2698" ry="18"/>
<text text-anchor="middle" x="49" y="-12.4" font-family="Times,serif" font-size="14.00">C#2</text>
</g>
<!-- A1&#45;&#45;C#2 -->
<g id="edge4" class="edge"><title>A1&#45;&#45;C#2</title>
<path fill="none" stroke="black" d="M22.647,-539.93C18.537,-522.29 13,-493.91 13,-469 13,-469 13,-469 13,-107 13,-84.298 23.39,-60.59 33.007,-43.509"/>
<polygon fill="black" stroke="black" points="36.1107,-45.137 38.199,-34.75 30.089,-41.5676 36.1107,-45.137"/>
<text text-anchor="middle" x="32.25" y="-282.4" font-family="Times,serif" font-size="14.00">0.0161</text>
</g>
<!-- D3 -->
<g id="node5" class="node"><title>D3</title>
<ellipse fill="none" stroke="black" cx="146" cy="-378" rx="27" ry="18"/>
<text text-anchor="middle" x="146" y="-372.4" font-family="Times,serif" font-size="14.00">D3</text>
</g>
<!-- A1&#45;&#45;D3 -->
<g id="edge6" class="edge"><title>A1&#45;&#45;D3</title>
<path fill="none" stroke="black" d="M31.672,-539.98C38.246,-517.92 51.682,-478.86 71.5,-450 85.109,-430.18 104.99,-411.59 120.79,-398.4"/>
<polygon fill="black" stroke="black" points="123.083,-401.047 128.63,-392.02 118.665,-395.617 123.083,-401.047"/>
<text text-anchor="middle" x="91.25" y="-462.4" font-family="Times,serif" font-size="14.00">0.0081</text>
</g>
<!-- E2 -->
<g id="node7" class="node"><title>E2</title>
<ellipse fill="none" stroke="black" cx="146" cy="-468" rx="27" ry="18"/>
<text text-anchor="middle" x="146" y="-462.4" font-family="Times,serif" font-size="14.00">E2</text>
</g>
<!-- A1&#45;&#45;E2 -->
<g id="edge8" class="edge"><title>A1&#45;&#45;E2</title>
<path fill="none" stroke="black" d="M43.406,-543.66C59.776,-530.4 83.841,-511.05 93.5,-504 101.43,-498.21 110.24,-492.19 118.34,-486.81"/>
<polygon fill="black" stroke="black" points="120.355,-489.674 126.78,-481.25 116.504,-483.829 120.355,-489.674"/>
<text text-anchor="middle" x="113.25" y="-507.4" font-family="Times,serif" font-size="14.00">0.0081</text>
</g>
<!-- C#2&#45;&#45;C#2 -->
<g id="edge10" class="edge"><title>C#2&#45;&#45;C#2</title>
<path fill="none" stroke="black" d="M73.532,-26.121C84.508,-26.895 94,-24.188 94,-18 94,-13.843 89.715,-11.257 83.574,-10.242"/>
<polygon fill="black" stroke="black" points="83.652,-6.74263 73.532,-9.8789 83.399,-13.7381 83.652,-6.74263"/>
<text text-anchor="middle" x="113.25" y="-12.4" font-family="Times,serif" font-size="14.00">0.0323</text>
</g>
<!-- F#3 -->
<g id="node10" class="node"><title>F#3</title>
<ellipse fill="none" stroke="black" cx="97" cy="-288" rx="27" ry="18"/>
<text text-anchor="middle" x="97" y="-282.4" font-family="Times,serif" font-size="14.00">F#3</text>
</g>
<!-- D3&#45;&#45;F#3 -->
<g id="edge12" class="edge"><title>D3&#45;&#45;F#3</title>
<path fill="none" stroke="black" d="M124.89,-366.64C115.39,-360.8 105.07,-352.54 99.5,-342 95.398,-334.24 94.003,-324.92 93.868,-316.27"/>
<polygon fill="black" stroke="black" points="97.3684,-316.32 94.231,-306.2 90.3729,-316.067 97.3684,-316.32"/>
<text text-anchor="middle" x="119.25" y="-327.4" font-family="Times,serif" font-size="14.00">0.0242</text>
</g>
<!-- E2&#45;&#45;D3 -->
<g id="edge14" class="edge"><title>E2&#45;&#45;D3</title>
<path fill="none" stroke="black" d="M146,-449.61C146,-437.24 146,-420.37 146,-406.22"/>
<polygon fill="black" stroke="black" points="149.5,-406.05 146,-396.05 142.5,-406.05 149.5,-406.05"/>
<text text-anchor="middle" x="165.25" y="-417.4" font-family="Times,serif" font-size="14.00">0.0484</text>
</g>
<!-- E2&#45;&#45;E2 -->
<g id="edge16" class="edge"><title>E2&#45;&#45;E2</title>
<path fill="none" stroke="black" d="M170.53,-476.12C181.51,-476.89 191,-474.19 191,-468 191,-463.84 186.72,-461.26 180.57,-460.24"/>
<polygon fill="black" stroke="black" points="180.649,-456.741 170.53,-459.88 180.398,-463.736 180.649,-456.741"/>
<text text-anchor="middle" x="210.25" y="-462.4" font-family="Times,serif" font-size="14.00">0.1290</text>
</g>
<!-- C#3 -->
<g id="node14" class="node"><title>C#3</title>
<ellipse fill="none" stroke="black" cx="93" cy="-198" rx="27.2698" ry="18"/>
<text text-anchor="middle" x="93" y="-192.4" font-family="Times,serif" font-size="14.00">C#3</text>
</g>
<!-- F#3&#45;&#45;C#3 -->
<g id="edge18" class="edge"><title>F#3&#45;&#45;C#3</title>
<path fill="none" stroke="black" d="M93.779,-269.97C92.848,-264.28 91.96,-257.89 91.5,-252 90.852,-243.7 90.849,-234.66 91.116,-226.43"/>
<polygon fill="black" stroke="black" points="94.6229,-226.361 91.59,-216.21 87.6304,-226.037 94.6229,-226.361"/>
<text text-anchor="middle" x="111.25" y="-237.4" font-family="Times,serif" font-size="14.00">0.0484</text>
</g>
<!-- E3 -->
<g id="node17" class="node"><title>E3</title>
<ellipse fill="none" stroke="black" cx="126" cy="-108" rx="27" ry="18"/>
<text text-anchor="middle" x="126" y="-102.4" font-family="Times,serif" font-size="14.00">E3</text>
</g>
<!-- C#3&#45;&#45;E3 -->
<g id="edge38" class="edge"><title>C#3&#45;&#45;E3</title>
<path fill="none" stroke="black" d="M92.863,-179.72C93.319,-169.08 94.904,-155.34 99.5,-144 101.22,-139.75 103.6,-135.57 106.22,-131.66"/>
<polygon fill="black" stroke="black" points="109.062,-133.703 112.22,-123.59 103.445,-129.527 109.062,-133.703"/>
<text text-anchor="middle" x="119.25" y="-147.4" font-family="Times,serif" font-size="14.00">0.0323</text>
</g>
<!-- A3 -->
<g id="node16" class="node"><title>A3</title>
<ellipse fill="none" stroke="black" cx="207" cy="-198" rx="27" ry="18"/>
<text text-anchor="middle" x="207" y="-192.4" font-family="Times,serif" font-size="14.00">A3</text>
</g>
<!-- A3&#45;&#45;E3 -->
<g id="edge20" class="edge"><title>A3&#45;&#45;E3</title>
<path fill="none" stroke="black" d="M195.91,-181.05C188.06,-170.18 177,-155.69 166,-144 161.16,-138.85 155.63,-133.65 150.26,-128.89"/>
<polygon fill="black" stroke="black" points="152.468,-126.172 142.61,-122.29 147.895,-131.472 152.468,-126.172"/>
<text text-anchor="middle" x="200.25" y="-147.4" font-family="Times,serif" font-size="14.00">0.0081</text>
</g>
<!-- E3&#45;&#45;C#2 -->
<g id="edge22" class="edge"><title>E3&#45;&#45;C#2</title>
<path fill="none" stroke="black" d="M112.94,-92.072C100.88,-78.292 82.798,-57.626 68.936,-41.784"/>
<polygon fill="black" stroke="black" points="71.3451,-39.2221 62.126,-34.001 66.077,-43.8316 71.3451,-39.2221"/>
<text text-anchor="middle" x="114.25" y="-57.4" font-family="Times,serif" font-size="14.00">0.0161</text>
</g>
<!-- E3&#45;&#45;D3 -->
<g id="edge24" class="edge"><title>E3&#45;&#45;D3</title>
<path fill="none" stroke="black" d="M132.77,-125.47C134.83,-131.23 136.86,-137.81 138,-144 151.53,-217.39 149.72,-305.93 147.65,-349.72"/>
<polygon fill="black" stroke="black" points="144.147,-349.694 147.13,-359.86 151.138,-350.052 144.147,-349.694"/>
<text text-anchor="middle" x="168.25" y="-237.4" font-family="Times,serif" font-size="14.00">0.0323</text>
</g>
<!-- E3&#45;&#45;E3 -->
<g id="edge26" class="edge"><title>E3&#45;&#45;E3</title>
<path fill="none" stroke="black" d="M150.53,-116.12C161.51,-116.89 171,-114.19 171,-108 171,-103.84 166.72,-101.26 160.57,-100.24"/>
<polygon fill="black" stroke="black" points="160.649,-96.7407 150.53,-99.879 160.398,-103.736 160.649,-96.7407"/>
<text text-anchor="middle" x="190.25" y="-102.4" font-family="Times,serif" font-size="14.00">0.1048</text>
</g>
<!-- B1 -->
<g id="node22" class="node"><title>B1</title>
<ellipse fill="none" stroke="black" cx="146" cy="-648" rx="27" ry="18"/>
<text text-anchor="middle" x="146" y="-642.4" font-family="Times,serif" font-size="14.00">B1</text>
</g>
<!-- B1&#45;&#45;E2 -->
<g id="edge28" class="edge"><title>B1&#45;&#45;E2</title>
<path fill="none" stroke="black" d="M146,-629.93C146,-598.97 146,-533.3 146,-496.13"/>
<polygon fill="black" stroke="black" points="149.5,-496.02 146,-486.02 142.5,-496.02 149.5,-496.02"/>
<text text-anchor="middle" x="165.25" y="-552.4" font-family="Times,serif" font-size="14.00">0.0242</text>
</g>
<!-- B1&#45;&#45;B1 -->
<g id="edge30" class="edge"><title>B1&#45;&#45;B1</title>
<path fill="none" stroke="black" d="M170.53,-656.12C181.51,-656.89 191,-654.19 191,-648 191,-643.84 186.72,-641.26 180.57,-640.24"/>
<polygon fill="black" stroke="black" points="180.649,-636.741 170.53,-639.88 180.398,-643.736 180.649,-636.741"/>
<text text-anchor="middle" x="210.25" y="-642.4" font-family="Times,serif" font-size="14.00">0.0484</text>
</g>
<!-- F#2 -->
<g id="node25" class="node"><title>F#2</title>
<ellipse fill="none" stroke="black" cx="230" cy="-558" rx="27" ry="18"/>
<text text-anchor="middle" x="230" y="-552.4" font-family="Times,serif" font-size="14.00">F#2</text>
</g>
<!-- B1&#45;&#45;F#2 -->
<g id="edge32" class="edge"><title>B1&#45;&#45;F#2</title>
<path fill="none" stroke="black" d="M159.87,-632.47C173.25,-618.46 193.67,-597.07 209.03,-580.97"/>
<polygon fill="black" stroke="black" points="211.739,-583.201 216.11,-573.55 206.674,-578.369 211.739,-583.201"/>
<text text-anchor="middle" x="215.25" y="-597.4" font-family="Times,serif" font-size="14.00">0.0242</text>
</g>
<!-- F#2&#45;&#45;E2 -->
<g id="edge34" class="edge"><title>F#2&#45;&#45;E2</title>
<path fill="none" stroke="black" d="M216.13,-542.47C202.75,-528.46 182.33,-507.07 166.97,-490.97"/>
<polygon fill="black" stroke="black" points="169.326,-488.369 159.89,-483.55 164.261,-493.201 169.326,-488.369"/>
<text text-anchor="middle" x="215.25" y="-507.4" font-family="Times,serif" font-size="14.00">0.0323</text>
</g>
<!-- F#2&#45;&#45;F#2 -->
<g id="edge36" class="edge"><title>F#2&#45;&#45;F#2</title>
<path fill="none" stroke="black" d="M254.53,-566.12C265.51,-566.89 275,-564.19 275,-558 275,-553.84 270.72,-551.26 264.57,-550.24"/>
<polygon fill="black" stroke="black" points="264.649,-546.741 254.53,-549.88 264.398,-553.736 264.649,-546.741"/>
<text text-anchor="middle" x="294.25" y="-552.4" font-family="Times,serif" font-size="14.00">0.1290</text>
</g>
<!-- C#4 -->
<g id="node30" class="node"><title>C#4</title>
<ellipse fill="none" stroke="black" cx="274" cy="-648" rx="27.2698" ry="18"/>
<text text-anchor="middle" x="274" y="-642.4" font-family="Times,serif" font-size="14.00">C#4</text>
</g>
<!-- C#4&#45;&#45;F#2 -->
<g id="edge40" class="edge"><title>C#4&#45;&#45;F#2</title>
<path fill="none" stroke="black" d="M265.72,-630.45C259.23,-617.46 250.08,-599.16 242.67,-584.33"/>
<polygon fill="black" stroke="black" points="245.696,-582.556 238.09,-575.18 239.436,-585.689 245.696,-582.556"/>
<text text-anchor="middle" x="275.25" y="-597.4" font-family="Times,serif" font-size="14.00">0.0242</text>
</g>
<!-- D2 -->
<g id="node32" class="node"><title>D2</title>
<ellipse fill="none" stroke="black" cx="274" cy="-468" rx="27" ry="18"/>
<text text-anchor="middle" x="274" y="-462.4" font-family="Times,serif" font-size="14.00">D2</text>
</g>
<!-- D2&#45;&#45;D3 -->
<g id="edge42" class="edge"><title>D2&#45;&#45;D3</title>
<path fill="none" stroke="black" d="M255.93,-454.58C234.23,-439.66 197.65,-414.51 172.69,-397.35"/>
<polygon fill="black" stroke="black" points="174.612,-394.424 164.39,-391.64 170.645,-400.191 174.612,-394.424"/>
<text text-anchor="middle" x="241.25" y="-417.4" font-family="Times,serif" font-size="14.00">0.0323</text>
</g>
<!-- B&#45;1 -->
<g id="node34" class="node"><title>B&#45;1</title>
<ellipse fill="none" stroke="black" cx="274" cy="-378" rx="27" ry="18"/>
<text text-anchor="middle" x="274" y="-372.4" font-family="Times,serif" font-size="14.00">B&#45;1</text>
</g>
<!-- D2&#45;&#45;B&#45;1 -->
<g id="edge44" class="edge"><title>D2&#45;&#45;B&#45;1</title>
<path fill="none" stroke="black" d="M274,-449.61C274,-437.24 274,-420.37 274,-406.22"/>
<polygon fill="black" stroke="black" points="277.5,-406.05 274,-396.05 270.5,-406.05 277.5,-406.05"/>
<text text-anchor="middle" x="293.25" y="-417.4" font-family="Times,serif" font-size="14.00">0.0323</text>
</g>
<!-- E&#45;3 -->
<g id="node36" class="node"><title>E&#45;3</title>
<ellipse fill="none" stroke="black" cx="358" cy="-558" rx="27" ry="18"/>
<text text-anchor="middle" x="358" y="-552.4" font-family="Times,serif" font-size="14.00">E&#45;3</text>
</g>
<!-- E&#45;3&#45;&#45;E2 -->
<g id="edge46" class="edge"><title>E&#45;3&#45;&#45;E2</title>
<path fill="none" stroke="black" d="M336.74,-546.8C331.91,-544.53 326.79,-542.16 322,-540 284.96,-523.33 275.66,-519.22 238,-504 218.53,-496.13 196.56,-487.75 178.96,-481.16"/>
<polygon fill="black" stroke="black" points="179.763,-477.724 169.17,-477.51 177.317,-484.283 179.763,-477.724"/>
<text text-anchor="middle" x="300.25" y="-507.4" font-family="Times,serif" font-size="14.00">0.0081</text>
</g>
</g>
</svg>
