<?xml version="1.0" encoding="UTF-8" standalone="no"?>
<!DOCTYPE svg PUBLIC "-//W3C//DTD SVG 1.1//EN"
 "http://www.w3.org/Graphics/SVG/1.1/DTD/svg11.dtd">
<!-- Generated by graphviz version 2.28.0 (20121019.2215)
 -->
<!-- Title: _anonymous_0 Pages: 1 -->
<svg width="1303pt" height="1754pt"
 viewBox="0.00 0.00 1303.45 1754.00" xmlns="http://www.w3.org/2000/svg" xmlns:xlink="http://www.w3.org/1999/xlink">
<g id="graph1" class="graph" transform="scale(1 1) rotate(0) translate(4 1750)">
<title>_anonymous_0</title>
<polygon fill="white" stroke="white" points="-4,5 -4,-1750 1300.45,-1750 1300.45,5 -4,5"/>
<!-- A4 -->
<g id="node1" class="node"><title>A4</title>
<ellipse fill="none" stroke="black" cx="1152" cy="-1728" rx="27" ry="18"/>
<text text-anchor="middle" x="1152" y="-1722.4" font-family="Times,serif" font-size="14.00">A4</text>
</g>
<!-- A5 -->
<g id="node2" class="node"><title>A5</title>
<ellipse fill="none" stroke="black" cx="303" cy="-1638" rx="27" ry="18"/>
<text text-anchor="middle" x="303" y="-1632.4" font-family="Times,serif" font-size="14.00">A5</text>
</g>
<!-- A4&#45;&#45;A5 -->
<g id="edge2" class="edge"><title>A4&#45;&#45;A5</title>
<path fill="none" stroke="black" d="M1125.2,-1724.2C1001.2,-1711.4 483.13,-1657.7 339.86,-1642.8"/>
<polygon fill="black" stroke="black" points="340.118,-1639.31 329.82,-1641.8 339.424,-1646.27 340.118,-1639.31"/>
<text text-anchor="middle" x="823.25" y="-1677.4" font-family="Times,serif" font-size="14.00">0.0086</text>
</g>
<!-- E&#45;5 -->
<g id="node4" class="node"><title>E&#45;5</title>
<ellipse fill="none" stroke="black" cx="945" cy="-918" rx="27" ry="18"/>
<text text-anchor="middle" x="945" y="-912.4" font-family="Times,serif" font-size="14.00">E&#45;5</text>
</g>
<!-- A5&#45;&#45;E&#45;5 -->
<g id="edge4" class="edge"><title>A5&#45;&#45;E&#45;5</title>
<path fill="none" stroke="black" d="M329.79,-1634.8C453.64,-1623.2 973.31,-1556.2 1176,-1242 1202,-1201.7 1190.5,-1179.8 1176,-1134 1144.3,-1033.8 1030.3,-962.99 975.23,-933.84"/>
<polygon fill="black" stroke="black" points="976.778,-930.7 966.29,-929.2 973.553,-936.913 976.778,-930.7"/>
<text text-anchor="middle" x="1182.2" y="-1272.4" font-family="Times,serif" font-size="14.00">0.0086</text>
</g>
<!-- C#7 -->
<g id="node6" class="node"><title>C#7</title>
<ellipse fill="none" stroke="black" cx="236" cy="-1548" rx="27.2698" ry="18"/>
<text text-anchor="middle" x="236" y="-1542.4" font-family="Times,serif" font-size="14.00">C#7</text>
</g>
<!-- A5&#45;&#45;C#7 -->
<g id="edge6" class="edge"><title>A5&#45;&#45;C#7</title>
<path fill="none" stroke="black" d="M291.33,-1621.7C281.02,-1608.1 265.82,-1588.2 253.95,-1572.6"/>
<polygon fill="black" stroke="black" points="256.578,-1570.27 247.76,-1564.4 250.991,-1574.49 256.578,-1570.27"/>
<text text-anchor="middle" x="295.25" y="-1587.4" font-family="Times,serif" font-size="14.00">0.0086</text>
</g>
<!-- F#5 -->
<g id="node8" class="node"><title>F#5</title>
<ellipse fill="none" stroke="black" cx="302" cy="-1458" rx="27" ry="18"/>
<text text-anchor="middle" x="302" y="-1452.4" font-family="Times,serif" font-size="14.00">F#5</text>
</g>
<!-- A5&#45;&#45;F#5 -->
<g id="edge8" class="edge"><title>A5&#45;&#45;F#5</title>
<path fill="none" stroke="black" d="M315.12,-1621.8C334.91,-1595 369.85,-1538.1 348,-1494 344.3,-1486.5 338.17,-1480.2 331.57,-1475.1"/>
<polygon fill="black" stroke="black" points="333.337,-1472.07 323.11,-1469.3 329.379,-1477.84 333.337,-1472.07"/>
<text text-anchor="middle" x="374.25" y="-1542.4" font-family="Times,serif" font-size="14.00">0.0086</text>
</g>
<!-- F#6 -->
<g id="node10" class="node"><title>F#6</title>
<ellipse fill="none" stroke="black" cx="164" cy="-1548" rx="27" ry="18"/>
<text text-anchor="middle" x="164" y="-1542.4" font-family="Times,serif" font-size="14.00">F#6</text>
</g>
<!-- A5&#45;&#45;F#6 -->
<g id="edge10" class="edge"><title>A5&#45;&#45;F#6</title>
<path fill="none" stroke="black" d="M279.11,-1629.2C262.27,-1623.1 239.59,-1613.7 221.5,-1602 208.12,-1593.3 194.91,-1581.4 184.53,-1571.1"/>
<polygon fill="black" stroke="black" points="187.03,-1568.65 177.51,-1564 182.052,-1573.57 187.03,-1568.65"/>
<text text-anchor="middle" x="241.25" y="-1587.4" font-family="Times,serif" font-size="14.00">0.0086</text>
</g>
<!-- E&#45;5&#45;&#45;E&#45;5 -->
<g id="edge24" class="edge"><title>E&#45;5&#45;&#45;E&#45;5</title>
<path fill="none" stroke="black" d="M969.53,-926.12C980.51,-926.89 990,-924.19 990,-918 990,-913.84 985.72,-911.26 979.57,-910.24"/>
<polygon fill="black" stroke="black" points="979.649,-906.741 969.53,-909.88 979.398,-913.736 979.649,-906.741"/>
<text text-anchor="middle" x="1009.2" y="-912.4" font-family="Times,serif" font-size="14.00">0.0172</text>
</g>
<!-- B&#45;5 -->
<g id="node12" class="node"><title>B&#45;5</title>
<ellipse fill="none" stroke="black" cx="989" cy="-378" rx="27" ry="18"/>
<text text-anchor="middle" x="989" y="-372.4" font-family="Times,serif" font-size="14.00">B&#45;5</text>
</g>
<!-- E&#45;5&#45;&#45;B&#45;5 -->
<g id="edge20" class="edge"><title>E&#45;5&#45;&#45;B&#45;5</title>
<path fill="none" stroke="black" d="M952.56,-900.55C954.94,-894.79 957.37,-888.2 959,-882 990.53,-761.79 989,-728.27 989,-604 989,-604 989,-604 989,-467 989,-446.63 989,-423.61 989,-406.22"/>
<polygon fill="black" stroke="black" points="992.5,-406.2 989,-396.2 985.5,-406.2 992.5,-406.2"/>
<text text-anchor="middle" x="1008.2" y="-642.4" font-family="Times,serif" font-size="14.00">0.0086</text>
</g>
<!-- E&#45;4 -->
<g id="node21" class="node"><title>E&#45;4</title>
<ellipse fill="none" stroke="black" cx="425" cy="-828" rx="27" ry="18"/>
<text text-anchor="middle" x="425" y="-822.4" font-family="Times,serif" font-size="14.00">E&#45;4</text>
</g>
<!-- E&#45;5&#45;&#45;E&#45;4 -->
<g id="edge22" class="edge"><title>E&#45;5&#45;&#45;E&#45;4</title>
<path fill="none" stroke="black" d="M919.98,-910.84C904.05,-907.15 882.92,-902.66 864,-900 809.61,-892.34 668.84,-901.52 617.5,-882 605.2,-877.33 605.96,-869.47 594,-864 582,-858.51 506.48,-844 460.55,-835.49"/>
<polygon fill="black" stroke="black" points="461.14,-832.04 450.67,-833.66 459.865,-838.923 461.14,-832.04"/>
<text text-anchor="middle" x="637.25" y="-867.4" font-family="Times,serif" font-size="14.00">0.0086</text>
</g>
<!-- F5 -->
<g id="node24" class="node"><title>F5</title>
<ellipse fill="none" stroke="black" cx="886" cy="-1098" rx="27" ry="18"/>
<text text-anchor="middle" x="886" y="-1092.4" font-family="Times,serif" font-size="14.00">F5</text>
</g>
<!-- E&#45;5&#45;&#45;F5 -->
<g id="edge26" class="edge"><title>E&#45;5&#45;&#45;F5</title>
<path fill="none" stroke="black" d="M939.86,-935.81C931.6,-962.62 914.71,-1016.7 899,-1062 898.03,-1064.8 896.98,-1067.7 895.93,-1070.7"/>
<polygon fill="black" stroke="black" points="892.565,-1069.71 892.37,-1080.3 899.129,-1072.14 892.565,-1069.71"/>
<text text-anchor="middle" x="941.25" y="-1002.4" font-family="Times,serif" font-size="14.00">0.0259</text>
</g>
<!-- C#5 -->
<g id="node26" class="node"><title>C#5</title>
<ellipse fill="none" stroke="black" cx="986" cy="-1278" rx="27.2698" ry="18"/>
<text text-anchor="middle" x="986" y="-1272.4" font-family="Times,serif" font-size="14.00">C#5</text>
</g>
<!-- E&#45;5&#45;&#45;C#5 -->
<g id="edge28" class="edge"><title>E&#45;5&#45;&#45;C#5</title>
<path fill="none" stroke="black" d="M962.38,-932.29C969.82,-938.44 978.31,-946.12 985,-954 1015.5,-989.9 1028.1,-998.7 1041,-1044 1060.9,-1113.6 1045.7,-1136.9 1024,-1206 1018.8,-1222.5 1009.8,-1239.6 1001.8,-1252.9"/>
<polygon fill="black" stroke="black" points="998.828,-1251.05 996.56,-1261.4 1004.79,-1254.72 998.828,-1251.05"/>
<text text-anchor="middle" x="1069.2" y="-1092.4" font-family="Times,serif" font-size="14.00">0.0172</text>
</g>
<!-- B&#45;4 -->
<g id="node28" class="node"><title>B&#45;4</title>
<ellipse fill="none" stroke="black" cx="711" cy="-558" rx="27" ry="18"/>
<text text-anchor="middle" x="711" y="-552.4" font-family="Times,serif" font-size="14.00">B&#45;4</text>
</g>
<!-- E&#45;5&#45;&#45;B&#45;4 -->
<g id="edge30" class="edge"><title>E&#45;5&#45;&#45;B&#45;4</title>
<path fill="none" stroke="black" d="M940.6,-899.91C924.81,-839.69 869.36,-638.67 822,-594 802.03,-575.16 771.98,-566.46 748.18,-562.44"/>
<polygon fill="black" stroke="black" points="748.484,-558.947 738.08,-560.95 747.462,-565.872 748.484,-558.947"/>
<text text-anchor="middle" x="917.25" y="-732.4" font-family="Times,serif" font-size="14.00">0.0086</text>
</g>
<!-- G#4 -->
<g id="node30" class="node"><title>G#4</title>
<ellipse fill="none" stroke="black" cx="753" cy="-1188" rx="27.8358" ry="18"/>
<text text-anchor="middle" x="753" y="-1182.4" font-family="Times,serif" font-size="14.00">G#4</text>
</g>
<!-- E&#45;5&#45;&#45;G#4 -->
<g id="edge32" class="edge"><title>E&#45;5&#45;&#45;G#4</title>
<path fill="none" stroke="black" d="M955.35,-934.94C978.2,-972.3 1027.2,-1066.1 978,-1116 951.34,-1143.1 845.22,-1168.2 788.77,-1180"/>
<polygon fill="black" stroke="black" points="787.943,-1176.6 778.83,-1182 789.324,-1183.46 787.943,-1176.6"/>
<text text-anchor="middle" x="1018.2" y="-1047.4" font-family="Times,serif" font-size="14.00">0.0086</text>
</g>
<!-- F#5&#45;&#45;B&#45;5 -->
<g id="edge12" class="edge"><title>F#5&#45;&#45;B&#45;5</title>
<path fill="none" stroke="black" d="M295.82,-1440.1C272.34,-1374.2 190,-1128.4 190,-919 190,-919 190,-919 190,-467 190,-389.33 794.3,-380.2 951.82,-379.14"/>
<polygon fill="black" stroke="black" points="951.981,-382.639 961.96,-379.08 951.939,-375.639 951.981,-382.639"/>
<text text-anchor="middle" x="210.25" y="-912.4" font-family="Times,serif" font-size="14.00">0.0086</text>
</g>
<!-- C#6 -->
<g id="node14" class="node"><title>C#6</title>
<ellipse fill="none" stroke="black" cx="695" cy="-108" rx="27.2698" ry="18"/>
<text text-anchor="middle" x="695" y="-102.4" font-family="Times,serif" font-size="14.00">C#6</text>
</g>
<!-- F#5&#45;&#45;C#6 -->
<g id="edge14" class="edge"><title>F#5&#45;&#45;C#6</title>
<path fill="none" stroke="black" d="M274.97,-1455.7C225.17,-1451.8 124,-1435.5 124,-1369 124,-1369 124,-1369 124,-1142 124,-1002.8 136,-968.21 136,-829 136,-829 136,-829 136,-197 136,-144.02 532.9,-117.84 657.83,-110.92"/>
<polygon fill="black" stroke="black" points="658.247,-114.402 668.04,-110.36 657.863,-107.413 658.247,-114.402"/>
<text text-anchor="middle" x="155.25" y="-777.4" font-family="Times,serif" font-size="14.00">0.0172</text>
</g>
<!-- A3 -->
<g id="node16" class="node"><title>A3</title>
<ellipse fill="none" stroke="black" cx="179" cy="-1368" rx="27" ry="18"/>
<text text-anchor="middle" x="179" y="-1362.4" font-family="Times,serif" font-size="14.00">A3</text>
</g>
<!-- F#5&#45;&#45;A3 -->
<g id="edge16" class="edge"><title>F#5&#45;&#45;A3</title>
<path fill="none" stroke="black" d="M274.81,-1457.5C246.59,-1456.5 203.55,-1450 181.5,-1422 175.84,-1414.8 174.19,-1405.3 174.3,-1396.2"/>
<polygon fill="black" stroke="black" points="177.807,-1396.24 175.09,-1386 170.828,-1395.7 177.807,-1396.24"/>
<text text-anchor="middle" x="201.25" y="-1407.4" font-family="Times,serif" font-size="14.00">0.0086</text>
</g>
<!-- F#4 -->
<g id="node18" class="node"><title>F#4</title>
<ellipse fill="none" stroke="black" cx="446" cy="-1368" rx="27" ry="18"/>
<text text-anchor="middle" x="446" y="-1362.4" font-family="Times,serif" font-size="14.00">F#4</text>
</g>
<!-- F#5&#45;&#45;F#4 -->
<g id="edge18" class="edge"><title>F#5&#45;&#45;F#4</title>
<path fill="none" stroke="black" d="M321.42,-1445.1C346.22,-1430 389.32,-1403.6 417.75,-1386.3"/>
<polygon fill="black" stroke="black" points="419.719,-1389.2 426.43,-1381 416.071,-1383.22 419.719,-1389.2"/>
<text text-anchor="middle" x="406.25" y="-1407.4" font-family="Times,serif" font-size="14.00">0.0086</text>
</g>
<!-- F#6&#45;&#45;F#5 -->
<g id="edge34" class="edge"><title>F#6&#45;&#45;F#5</title>
<path fill="none" stroke="black" d="M182.9,-1534.9C206.51,-1519.9 247.1,-1494 274.24,-1476.7"/>
<polygon fill="black" stroke="black" points="276.329,-1479.52 282.89,-1471.2 272.573,-1473.61 276.329,-1479.52"/>
<text text-anchor="middle" x="265.25" y="-1497.4" font-family="Times,serif" font-size="14.00">0.0086</text>
</g>
<!-- G#5 -->
<g id="node33" class="node"><title>G#5</title>
<ellipse fill="none" stroke="black" cx="1025" cy="-288" rx="27.8358" ry="18"/>
<text text-anchor="middle" x="1025" y="-282.4" font-family="Times,serif" font-size="14.00">G#5</text>
</g>
<!-- B&#45;5&#45;&#45;G#5 -->
<g id="edge36" class="edge"><title>B&#45;5&#45;&#45;G#5</title>
<path fill="none" stroke="black" d="M995.77,-360.45C1001,-347.66 1008.3,-329.74 1014.3,-315.04"/>
<polygon fill="black" stroke="black" points="1017.67,-316.056 1018.3,-305.48 1011.21,-313.354 1017.67,-316.056"/>
<text text-anchor="middle" x="1029.2" y="-327.4" font-family="Times,serif" font-size="14.00">0.0086</text>
</g>
<!-- C6 -->
<g id="node35" class="node"><title>C6</title>
<ellipse fill="none" stroke="black" cx="952" cy="-288" rx="27" ry="18"/>
<text text-anchor="middle" x="952" y="-282.4" font-family="Times,serif" font-size="14.00">C6</text>
</g>
<!-- B&#45;5&#45;&#45;C6 -->
<g id="edge38" class="edge"><title>B&#45;5&#45;&#45;C6</title>
<path fill="none" stroke="black" d="M974.31,-362.5C969.16,-356.61 963.83,-349.44 960.5,-342 956.96,-334.11 954.87,-324.97 953.65,-316.53"/>
<polygon fill="black" stroke="black" points="957.102,-315.908 952.51,-306.36 950.146,-316.688 957.102,-315.908"/>
<text text-anchor="middle" x="979.25" y="-327.4" font-family="Times,serif" font-size="14.00">0.0172</text>
</g>
<!-- C#6&#45;&#45;A5 -->
<g id="edge96" class="edge"><title>C#6&#45;&#45;A5</title>
<path fill="none" stroke="black" d="M668,-109.7C578.41,-112.19 291.52,-121.77 202,-144 145.41,-158.05 82,-138.7 82,-197 82,-1549 82,-1549 82,-1549 82,-1588.4 204.86,-1618 267.37,-1630.5"/>
<polygon fill="black" stroke="black" points="266.738,-1633.94 277.22,-1632.4 268.064,-1627.07 266.738,-1633.94"/>
<text text-anchor="middle" x="101.25" y="-867.4" font-family="Times,serif" font-size="14.00">0.0172</text>
</g>
<!-- E&#45;6 -->
<g id="node72" class="node"><title>E&#45;6</title>
<ellipse fill="none" stroke="black" cx="695" cy="-18" rx="27" ry="18"/>
<text text-anchor="middle" x="695" y="-12.4" font-family="Times,serif" font-size="14.00">E&#45;6</text>
</g>
<!-- C#6&#45;&#45;E&#45;6 -->
<g id="edge98" class="edge"><title>C#6&#45;&#45;E&#45;6</title>
<path fill="none" stroke="black" d="M695,-89.614C695,-77.24 695,-60.369 695,-46.22"/>
<polygon fill="black" stroke="black" points="698.5,-46.05 695,-36.05 691.5,-46.05 698.5,-46.05"/>
<text text-anchor="middle" x="714.25" y="-57.4" font-family="Times,serif" font-size="14.00">0.0086</text>
</g>
<!-- E6 -->
<g id="node74" class="node"><title>E6</title>
<ellipse fill="none" stroke="black" cx="826" cy="-18" rx="27" ry="18"/>
<text text-anchor="middle" x="826" y="-12.4" font-family="Times,serif" font-size="14.00">E6</text>
</g>
<!-- C#6&#45;&#45;E6 -->
<g id="edge100" class="edge"><title>C#6&#45;&#45;E6</title>
<path fill="none" stroke="black" d="M713.38,-94.547C729.27,-83.788 752.88,-67.834 773.5,-54 781.78,-48.442 790.82,-42.41 799.02,-36.944"/>
<polygon fill="black" stroke="black" points="801.136,-39.7398 807.52,-31.284 797.257,-33.9133 801.136,-39.7398"/>
<text text-anchor="middle" x="793.25" y="-57.4" font-family="Times,serif" font-size="14.00">0.0086</text>
</g>
<!-- F#4&#45;&#45;C#5 -->
<g id="edge92" class="edge"><title>F#4&#45;&#45;C#5</title>
<path fill="none" stroke="black" d="M472.05,-1362.8C560.25,-1348.4 847.88,-1301.5 949.8,-1284.9"/>
<polygon fill="black" stroke="black" points="950.571,-1288.32 959.9,-1283.3 949.476,-1281.41 950.571,-1288.32"/>
<text text-anchor="middle" x="784.25" y="-1317.4" font-family="Times,serif" font-size="14.00">0.0086</text>
</g>
<!-- F4 -->
<g id="node45" class="node"><title>F4</title>
<ellipse fill="none" stroke="black" cx="618" cy="-1008" rx="27" ry="18"/>
<text text-anchor="middle" x="618" y="-1002.4" font-family="Times,serif" font-size="14.00">F4</text>
</g>
<!-- F#4&#45;&#45;F4 -->
<g id="edge94" class="edge"><title>F#4&#45;&#45;F4</title>
<path fill="none" stroke="black" d="M453.67,-1350.4C474.12,-1306.3 531.87,-1182.2 582,-1080 589.44,-1064.8 597.99,-1047.9 604.89,-1034.4"/>
<polygon fill="black" stroke="black" points="608.11,-1035.79 609.58,-1025.3 601.888,-1032.59 608.11,-1035.79"/>
<text text-anchor="middle" x="558.25" y="-1182.4" font-family="Times,serif" font-size="14.00">0.0086</text>
</g>
<!-- E&#45;4&#45;&#45;F#5 -->
<g id="edge84" class="edge"><title>E&#45;4&#45;&#45;F#5</title>
<path fill="none" stroke="black" d="M418.31,-845.58C416.12,-851.35 413.79,-857.91 412,-864 349.26,-1077.1 314.95,-1344.4 305.05,-1429.6"/>
<polygon fill="black" stroke="black" points="301.554,-1429.37 303.89,-1439.7 308.508,-1430.16 301.554,-1429.37"/>
<text text-anchor="middle" x="369.25" y="-1137.4" font-family="Times,serif" font-size="14.00">0.0086</text>
</g>
<!-- E&#45;4&#45;&#45;F#4 -->
<g id="edge90" class="edge"><title>E&#45;4&#45;&#45;F#4</title>
<path fill="none" stroke="black" d="M421.79,-846.11C416.13,-877.75 405,-947.6 405,-1007 405,-1279 405,-1279 405,-1279 405,-1302.3 416.98,-1326.1 427.99,-1343.1"/>
<polygon fill="black" stroke="black" points="425.396,-1345.51 433.92,-1351.8 431.18,-1341.57 425.396,-1345.51"/>
<text text-anchor="middle" x="424.25" y="-1092.4" font-family="Times,serif" font-size="14.00">0.0172</text>
</g>
<!-- E&#45;4&#45;&#45;E&#45;4 -->
<g id="edge80" class="edge"><title>E&#45;4&#45;&#45;E&#45;4</title>
<path fill="none" stroke="black" d="M449.53,-836.12C460.51,-836.89 470,-834.19 470,-828 470,-823.84 465.72,-821.26 459.57,-820.24"/>
<polygon fill="black" stroke="black" points="459.649,-816.741 449.53,-819.88 459.398,-823.736 459.649,-816.741"/>
<text text-anchor="middle" x="489.25" y="-822.4" font-family="Times,serif" font-size="14.00">0.0086</text>
</g>
<!-- E&#45;4&#45;&#45;F4 -->
<g id="edge82" class="edge"><title>E&#45;4&#45;&#45;F4</title>
<path fill="none" stroke="black" d="M427.23,-846.32C431.05,-869.42 440.86,-910.4 464.5,-936 496.27,-970.41 548.04,-989.5 582.55,-999.01"/>
<polygon fill="black" stroke="black" points="582.106,-1002.51 592.67,-1001.7 583.905,-995.748 582.106,-1002.51"/>
<text text-anchor="middle" x="484.25" y="-912.4" font-family="Times,serif" font-size="14.00">0.0172</text>
</g>
<!-- G#3 -->
<g id="node64" class="node"><title>G#3</title>
<ellipse fill="none" stroke="black" cx="476" cy="-648" rx="27.8358" ry="18"/>
<text text-anchor="middle" x="476" y="-642.4" font-family="Times,serif" font-size="14.00">G#3</text>
</g>
<!-- E&#45;4&#45;&#45;G#3 -->
<g id="edge86" class="edge"><title>E&#45;4&#45;&#45;G#3</title>
<path fill="none" stroke="black" d="M429.8,-810.25C438.68,-779.24 457.76,-712.66 468.41,-675.48"/>
<polygon fill="black" stroke="black" points="471.785,-676.408 471.18,-665.83 465.057,-674.476 471.785,-676.408"/>
<text text-anchor="middle" x="475.25" y="-732.4" font-family="Times,serif" font-size="14.00">0.0086</text>
</g>
<!-- C#4 -->
<g id="node66" class="node"><title>C#4</title>
<ellipse fill="none" stroke="black" cx="544" cy="-738" rx="27.2698" ry="18"/>
<text text-anchor="middle" x="544" y="-732.4" font-family="Times,serif" font-size="14.00">C#4</text>
</g>
<!-- E&#45;4&#45;&#45;C#4 -->
<g id="edge88" class="edge"><title>E&#45;4&#45;&#45;C#4</title>
<path fill="none" stroke="black" d="M441.41,-813.66C457.78,-800.4 481.84,-781.05 491.5,-774 499.43,-768.21 508.24,-762.19 516.34,-756.81"/>
<polygon fill="black" stroke="black" points="518.355,-759.674 524.78,-751.25 514.504,-753.829 518.355,-759.674"/>
<text text-anchor="middle" x="511.25" y="-777.4" font-family="Times,serif" font-size="14.00">0.0259</text>
</g>
<!-- F5&#45;&#45;F#5 -->
<g id="edge56" class="edge"><title>F5&#45;&#45;F#5</title>
<path fill="none" stroke="black" d="M900.06,-1113.9C919.54,-1136.2 949.8,-1178.9 926,-1206 905.75,-1229.1 816.38,-1210.1 789,-1224 729.86,-1254 741.74,-1296 686,-1332 584.3,-1397.6 544.51,-1385.9 429,-1422 398.11,-1431.7 362.57,-1441.3 336.95,-1448.1"/>
<polygon fill="black" stroke="black" points="335.765,-1444.79 326.97,-1450.7 337.529,-1451.57 335.765,-1444.79"/>
<text text-anchor="middle" x="766.25" y="-1272.4" font-family="Times,serif" font-size="14.00">0.0086</text>
</g>
<!-- F5&#45;&#45;B&#45;5 -->
<g id="edge48" class="edge"><title>F5&#45;&#45;B&#45;5</title>
<path fill="none" stroke="black" d="M904.84,-1085C949.1,-1055.1 1056,-972.82 1056,-874 1056,-874 1056,-874 1056,-467 1056,-438.77 1033.9,-413.95 1015.1,-397.92"/>
<polygon fill="black" stroke="black" points="1017.28,-395.178 1007.3,-391.61 1012.87,-400.621 1017.28,-395.178"/>
<text text-anchor="middle" x="1075.2" y="-732.4" font-family="Times,serif" font-size="14.00">0.0086</text>
</g>
<!-- F5&#45;&#45;F5 -->
<g id="edge50" class="edge"><title>F5&#45;&#45;F5</title>
<path fill="none" stroke="black" d="M910.53,-1106.1C921.51,-1106.9 931,-1104.2 931,-1098 931,-1093.8 926.72,-1091.3 920.57,-1090.2"/>
<polygon fill="black" stroke="black" points="920.63,-1086.7 910.53,-1089.9 920.421,-1093.7 920.63,-1086.7"/>
<text text-anchor="middle" x="950.25" y="-1092.4" font-family="Times,serif" font-size="14.00">0.0086</text>
</g>
<!-- F5&#45;&#45;C#5 -->
<g id="edge52" class="edge"><title>F5&#45;&#45;C#5</title>
<path fill="none" stroke="black" d="M910.53,-1105.8C925.27,-1111.1 943.2,-1120 954,-1134 980.02,-1167.7 985.7,-1218.4 986.51,-1249.5"/>
<polygon fill="black" stroke="black" points="983.011,-1249.64 986.62,-1259.6 990.011,-1249.56 983.011,-1249.64"/>
<text text-anchor="middle" x="1001.2" y="-1182.4" font-family="Times,serif" font-size="14.00">0.0172</text>
</g>
<!-- F5&#45;&#45;F4 -->
<g id="edge54" class="edge"><title>F5&#45;&#45;F4</title>
<path fill="none" stroke="black" d="M861.85,-1089.8C850.94,-1086.7 837.86,-1083 826,-1080 790.46,-1071 780.45,-1073.1 745.5,-1062 711.46,-1051.2 673.86,-1035 648.37,-1023.4"/>
<polygon fill="black" stroke="black" points="649.778,-1020.2 639.23,-1019.2 646.855,-1026.56 649.778,-1020.2"/>
<text text-anchor="middle" x="765.25" y="-1047.4" font-family="Times,serif" font-size="14.00">0.0086</text>
</g>
<!-- D5 -->
<g id="node48" class="node"><title>D5</title>
<ellipse fill="none" stroke="black" cx="830" cy="-1008" rx="27" ry="18"/>
<text text-anchor="middle" x="830" y="-1002.4" font-family="Times,serif" font-size="14.00">D5</text>
</g>
<!-- F5&#45;&#45;D5 -->
<g id="edge58" class="edge"><title>F5&#45;&#45;D5</title>
<path fill="none" stroke="black" d="M863.17,-1088.1C851.89,-1082.4 839.28,-1073.9 832.5,-1062 828.14,-1054.4 826.68,-1045.1 826.57,-1036.4"/>
<polygon fill="black" stroke="black" points="830.071,-1036.44 826.99,-1026.3 823.077,-1036.15 830.071,-1036.44"/>
<text text-anchor="middle" x="852.25" y="-1047.4" font-family="Times,serif" font-size="14.00">0.0086</text>
</g>
<!-- C#5&#45;&#45;A4 -->
<g id="edge62" class="edge"><title>C#5&#45;&#45;A4</title>
<path fill="none" stroke="black" d="M1012.7,-1281.1C1059.6,-1286.4 1152,-1304.7 1152,-1367 1152,-1639 1152,-1639 1152,-1639 1152,-1659.4 1152,-1682.4 1152,-1699.8"/>
<polygon fill="black" stroke="black" points="1148.5,-1699.8 1152,-1709.8 1155.5,-1699.8 1148.5,-1699.8"/>
<text text-anchor="middle" x="1171.2" y="-1497.4" font-family="Times,serif" font-size="14.00">0.0086</text>
</g>
<!-- C#5&#45;&#45;B&#45;5 -->
<g id="edge60" class="edge"><title>C#5&#45;&#45;B&#45;5</title>
<path fill="none" stroke="black" d="M1012,-1272.6C1051.9,-1264.1 1124,-1241.6 1124,-1189 1124,-1189 1124,-1189 1124,-467 1124,-419.52 1064.7,-396.31 1024.7,-386.07"/>
<polygon fill="black" stroke="black" points="1025.24,-382.6 1014.7,-383.68 1023.61,-389.409 1025.24,-382.6"/>
<text text-anchor="middle" x="1143.2" y="-822.4" font-family="Times,serif" font-size="14.00">0.0086</text>
</g>
<!-- C#5&#45;&#45;G#4 -->
<g id="edge66" class="edge"><title>C#5&#45;&#45;G#4</title>
<path fill="none" stroke="black" d="M959.02,-1275.1C925.24,-1271.8 866.27,-1263.4 820.5,-1242 803.67,-1234.1 787.22,-1221.4 774.77,-1210.3"/>
<polygon fill="black" stroke="black" points="776.956,-1207.56 767.21,-1203.4 772.237,-1212.73 776.956,-1207.56"/>
<text text-anchor="middle" x="840.25" y="-1227.4" font-family="Times,serif" font-size="14.00">0.0086</text>
</g>
<!-- C#5&#45;&#45;G#5 -->
<g id="edge64" class="edge"><title>C#5&#45;&#45;G#5</title>
<path fill="none" stroke="black" d="M1013.1,-1275.6C1041.2,-1272.9 1085.1,-1264.9 1115,-1242 1149.5,-1215.5 1200,-1067.5 1200,-964 1200,-964 1200,-964 1200,-377 1200,-315.92 1113.8,-297.23 1062.4,-291.51"/>
<polygon fill="black" stroke="black" points="1062.6,-288.012 1052.3,-290.51 1061.91,-294.978 1062.6,-288.012"/>
<text text-anchor="middle" x="1219.2" y="-777.4" font-family="Times,serif" font-size="14.00">0.0086</text>
</g>
<!-- B&#45;4&#45;&#45;F#4 -->
<g id="edge76" class="edge"><title>B&#45;4&#45;&#45;F#4</title>
<path fill="none" stroke="black" d="M684.19,-561.2C645.24,-564.95 571.09,-574.19 511,-594 399.91,-630.62 358.82,-664.02 319,-774 261.69,-932.28 308.07,-987.33 343,-1152 360.68,-1235.4 362.14,-1260.8 409,-1332 412.43,-1337.2 416.77,-1342.2 421.27,-1346.7"/>
<polygon fill="black" stroke="black" points="419.152,-1349.51 428.84,-1353.8 423.94,-1344.41 419.152,-1349.51"/>
<text text-anchor="middle" x="318.25" y="-957.4" font-family="Times,serif" font-size="14.00">0.0259</text>
</g>
<!-- B&#45;4&#45;&#45;F5 -->
<g id="edge68" class="edge"><title>B&#45;4&#45;&#45;F5</title>
<path fill="none" stroke="black" d="M718.52,-575.46C720.9,-581.22 723.34,-587.81 725,-594 745.93,-672.07 742.57,-693.61 751,-774 760.2,-861.71 739.09,-887.4 764,-972 777.58,-1018.1 787.08,-1031.2 824,-1062 833.3,-1069.8 844.57,-1076.7 854.93,-1082.3"/>
<polygon fill="black" stroke="black" points="853.627,-1085.57 864.11,-1087.1 856.87,-1079.36 853.627,-1085.57"/>
<text text-anchor="middle" x="773.25" y="-822.4" font-family="Times,serif" font-size="14.00">0.0086</text>
</g>
<!-- B&#45;4&#45;&#45;C#5 -->
<g id="edge70" class="edge"><title>B&#45;4&#45;&#45;C#5</title>
<path fill="none" stroke="black" d="M726.22,-573.18C731.87,-579.14 737.89,-586.44 742,-594 749.93,-608.59 747.81,-613.93 752,-630 789.23,-772.64 809.36,-807.22 823,-954 823.74,-961.97 826.89,-965.01 823,-972 815.63,-985.26 806.44,-981.31 794,-990 762.08,-1012.3 743.29,-1009.6 725,-1044 679.02,-1130.4 699.15,-1178.9 716,-1206 740.66,-1245.7 881.17,-1265.8 949.15,-1273.4"/>
<polygon fill="black" stroke="black" points="949.094,-1276.91 959.41,-1274.5 949.84,-1269.95 949.094,-1276.91"/>
<text text-anchor="middle" x="841.25" y="-912.4" font-family="Times,serif" font-size="14.00">0.0086</text>
</g>
<!-- B&#45;4&#45;&#45;G#4 -->
<g id="edge78" class="edge"><title>B&#45;4&#45;&#45;G#4</title>
<path fill="none" stroke="black" d="M699.6,-574.66C688.41,-591.62 673,-619.87 673,-647 673,-784 673,-784 673,-784 673,-908.02 663.92,-942.48 697,-1062 707.02,-1098.2 726.01,-1137.4 739.08,-1162"/>
<polygon fill="black" stroke="black" points="736.105,-1163.86 743.93,-1171 742.267,-1160.54 736.105,-1163.86"/>
<text text-anchor="middle" x="692.25" y="-867.4" font-family="Times,serif" font-size="14.00">0.0086</text>
</g>
<!-- B&#45;4&#45;&#45;F4 -->
<g id="edge72" class="edge"><title>B&#45;4&#45;&#45;F4</title>
<path fill="none" stroke="black" d="M711,-576.2C711,-593.94 711,-622.4 711,-647 711,-784 711,-784 711,-784 711,-819.69 716.44,-828.34 718,-864 718.35,-871.99 720.65,-874.45 718,-882 702.98,-924.83 666.42,-963.89 641.92,-986.56"/>
<polygon fill="black" stroke="black" points="639.509,-984.022 634.43,-993.32 644.199,-989.218 639.509,-984.022"/>
<text text-anchor="middle" x="731.25" y="-777.4" font-family="Times,serif" font-size="14.00">0.0172</text>
</g>
<!-- C5 -->
<g id="node57" class="node"><title>C5</title>
<ellipse fill="none" stroke="black" cx="711" cy="-468" rx="27" ry="18"/>
<text text-anchor="middle" x="711" y="-462.4" font-family="Times,serif" font-size="14.00">C5</text>
</g>
<!-- B&#45;4&#45;&#45;C5 -->
<g id="edge74" class="edge"><title>B&#45;4&#45;&#45;C5</title>
<path fill="none" stroke="black" d="M711,-539.61C711,-527.24 711,-510.37 711,-496.22"/>
<polygon fill="black" stroke="black" points="714.5,-496.05 711,-486.05 707.5,-496.05 714.5,-496.05"/>
<text text-anchor="middle" x="730.25" y="-507.4" font-family="Times,serif" font-size="14.00">0.0086</text>
</g>
<!-- G#4&#45;&#45;F#4 -->
<g id="edge42" class="edge"><title>G#4&#45;&#45;F#4</title>
<path fill="none" stroke="black" d="M732.02,-1199.6C718.73,-1206.4 701.24,-1215.5 686,-1224 608.12,-1267.5 518.27,-1322.3 473.84,-1349.7"/>
<polygon fill="black" stroke="black" points="471.75,-1346.88 465.07,-1355.1 475.42,-1352.84 471.75,-1346.88"/>
<text text-anchor="middle" x="639.25" y="-1272.4" font-family="Times,serif" font-size="14.00">0.0172</text>
</g>
<!-- G#4&#45;&#45;F5 -->
<g id="edge40" class="edge"><title>G#4&#45;&#45;F5</title>
<path fill="none" stroke="black" d="M774.23,-1176.4C786.92,-1169.9 803.21,-1161 817,-1152 832.47,-1141.9 848.89,-1129.4 861.84,-1119"/>
<polygon fill="black" stroke="black" points="864.2,-1121.59 869.8,-1112.6 859.813,-1116.14 864.2,-1121.59"/>
<text text-anchor="middle" x="862.25" y="-1137.4" font-family="Times,serif" font-size="14.00">0.0086</text>
</g>
<!-- G#4&#45;&#45;G#4 -->
<g id="edge44" class="edge"><title>G#4&#45;&#45;G#4</title>
<path fill="none" stroke="black" d="M777.53,-1196.1C788.51,-1196.9 798,-1194.2 798,-1188 798,-1183.8 793.72,-1181.3 787.57,-1180.2"/>
<polygon fill="black" stroke="black" points="787.63,-1176.7 777.53,-1179.9 787.421,-1183.7 787.63,-1176.7"/>
<text text-anchor="middle" x="817.25" y="-1182.4" font-family="Times,serif" font-size="14.00">0.0086</text>
</g>
<!-- B4 -->
<g id="node40" class="node"><title>B4</title>
<ellipse fill="none" stroke="black" cx="790" cy="-1098" rx="27" ry="18"/>
<text text-anchor="middle" x="790" y="-1092.4" font-family="Times,serif" font-size="14.00">B4</text>
</g>
<!-- G#4&#45;&#45;B4 -->
<g id="edge46" class="edge"><title>G#4&#45;&#45;B4</title>
<path fill="none" stroke="black" d="M759.96,-1170.4C765.33,-1157.7 772.87,-1139.7 779.05,-1125"/>
<polygon fill="black" stroke="black" points="782.396,-1126.07 783.07,-1115.5 775.95,-1123.35 782.396,-1126.07"/>
<text text-anchor="middle" x="794.25" y="-1137.4" font-family="Times,serif" font-size="14.00">0.0086</text>
</g>
<!-- G#5&#45;&#45;A4 -->
<g id="edge122" class="edge"><title>G#5&#45;&#45;A4</title>
<path fill="none" stroke="black" d="M1052.2,-290.63C1086.5,-293.57 1146.7,-301.71 1193,-324 1226.3,-340.01 1257,-340.07 1257,-377 1257,-1639 1257,-1639 1257,-1639 1257,-1677.1 1215.9,-1702 1185.1,-1715.3"/>
<polygon fill="black" stroke="black" points="1183.52,-1712.16 1175.6,-1719.2 1186.18,-1718.64 1183.52,-1712.16"/>
<text text-anchor="middle" x="1276.2" y="-1002.4" font-family="Times,serif" font-size="14.00">0.0086</text>
</g>
<!-- G#5&#45;&#45;C#6 -->
<g id="edge124" class="edge"><title>G#5&#45;&#45;C#6</title>
<path fill="none" stroke="black" d="M1003.8,-276.34C998.7,-274.04 993.22,-271.77 988,-270 885.49,-235.22 836.15,-282.19 750.5,-216 736.65,-205.3 717.2,-162.9 705.39,-134.79"/>
<polygon fill="black" stroke="black" points="708.611,-133.419 701.55,-125.52 702.144,-136.098 708.611,-133.419"/>
<text text-anchor="middle" x="770.25" y="-192.4" font-family="Times,serif" font-size="14.00">0.0172</text>
</g>
<!-- G#5&#45;&#45;G#5 -->
<g id="edge126" class="edge"><title>G#5&#45;&#45;G#5</title>
<path fill="none" stroke="black" d="M1049.5,-296.12C1060.5,-296.89 1070,-294.19 1070,-288 1070,-283.84 1065.7,-281.26 1059.6,-280.24"/>
<polygon fill="black" stroke="black" points="1059.62,-276.739 1049.5,-279.88 1059.37,-283.734 1059.62,-276.739"/>
<text text-anchor="middle" x="1089.2" y="-282.4" font-family="Times,serif" font-size="14.00">0.0086</text>
</g>
<!-- G#5&#45;&#45;E6 -->
<g id="edge130" class="edge"><title>G#5&#45;&#45;E6</title>
<path fill="none" stroke="black" d="M1025.9,-269.79C1026.7,-255.42 1027.6,-234.38 1028,-216 1028.3,-200 1031.6,-195.59 1028,-180 1018,-136.62 1016,-120.97 984,-90 949.29,-56.398 895.93,-37.009 860.99,-27.228"/>
<polygon fill="black" stroke="black" points="861.785,-23.8177 851.22,-24.607 859.972,-30.5786 861.785,-23.8177"/>
<text text-anchor="middle" x="1042.2" y="-147.4" font-family="Times,serif" font-size="14.00">0.0086</text>
</g>
<!-- G#6 -->
<g id="node91" class="node"><title>G#6</title>
<ellipse fill="none" stroke="black" cx="948" cy="-108" rx="27.8358" ry="18"/>
<text text-anchor="middle" x="948" y="-102.4" font-family="Times,serif" font-size="14.00">G#6</text>
</g>
<!-- G#5&#45;&#45;G#6 -->
<g id="edge128" class="edge"><title>G#5&#45;&#45;G#6</title>
<path fill="none" stroke="black" d="M1016.4,-270.85C1008.9,-256.59 997.98,-235.15 989.5,-216 982.92,-201.14 967.87,-161.76 957.82,-135.15"/>
<polygon fill="black" stroke="black" points="961.042,-133.773 954.24,-125.65 954.491,-136.242 961.042,-133.773"/>
<text text-anchor="middle" x="1008.2" y="-192.4" font-family="Times,serif" font-size="14.00">0.0086</text>
</g>
<!-- B5 -->
<g id="node94" class="node"><title>B5</title>
<ellipse fill="none" stroke="black" cx="912" cy="-198" rx="27" ry="18"/>
<text text-anchor="middle" x="912" y="-192.4" font-family="Times,serif" font-size="14.00">B5</text>
</g>
<!-- G#5&#45;&#45;B5 -->
<g id="edge132" class="edge"><title>G#5&#45;&#45;B5</title>
<path fill="none" stroke="black" d="M1003.7,-276.51C998.64,-274.2 993.18,-271.89 988,-270 959.63,-259.66 943.06,-274.11 922.5,-252 916.1,-245.11 913.1,-235.49 911.82,-226.33"/>
<polygon fill="black" stroke="black" points="915.309,-226.048 911.02,-216.36 908.331,-226.608 915.309,-226.048"/>
<text text-anchor="middle" x="941.25" y="-237.4" font-family="Times,serif" font-size="14.00">0.0086</text>
</g>
<!-- B4&#45;&#45;C#5 -->
<g id="edge134" class="edge"><title>B4&#45;&#45;C#5</title>
<path fill="none" stroke="black" d="M805.31,-1112.9C839.59,-1144 922.68,-1219.5 963.13,-1256.2"/>
<polygon fill="black" stroke="black" points="960.863,-1258.87 970.62,-1263 965.569,-1253.69 960.863,-1258.87"/>
<text text-anchor="middle" x="927.25" y="-1182.4" font-family="Times,serif" font-size="14.00">0.0086</text>
</g>
<!-- F4&#45;&#45;E&#45;5 -->
<g id="edge108" class="edge"><title>F4&#45;&#45;E&#45;5</title>
<path fill="none" stroke="black" d="M642.58,-1000.4C700.1,-984.91 843.63,-946.28 910.15,-928.38"/>
<polygon fill="black" stroke="black" points="911.394,-931.67 920.14,-925.69 909.574,-924.911 911.394,-931.67"/>
<text text-anchor="middle" x="830.25" y="-957.4" font-family="Times,serif" font-size="14.00">0.0086</text>
</g>
<!-- C5&#45;&#45;E&#45;5 -->
<g id="edge112" class="edge"><title>C5&#45;&#45;E&#45;5</title>
<path fill="none" stroke="black" d="M737.8,-470.39C784,-473.37 875.79,-481.95 898,-504 955.25,-560.85 943.6,-783.33 945,-864 945.14,-872.32 945.19,-881.37 945.18,-889.6"/>
<polygon fill="black" stroke="black" points="941.679,-889.8 945.15,-899.81 948.679,-889.82 941.679,-889.8"/>
<text text-anchor="middle" x="962.25" y="-687.4" font-family="Times,serif" font-size="14.00">0.0086</text>
</g>
<!-- C5&#45;&#45;F#5 -->
<g id="edge118" class="edge"><title>C5&#45;&#45;F#5</title>
<path fill="none" stroke="black" d="M683.96,-468.46C586.22,-467.21 257,-469.49 257,-557 257,-874 257,-874 257,-874 257,-909.59 254.28,-918.42 253.5,-954 253.33,-962 253.1,-964.01 253.5,-972 262.22,-1146.8 288.52,-1355.8 298.29,-1429.6"/>
<polygon fill="black" stroke="black" points="294.872,-1430.45 299.66,-1439.9 301.811,-1429.53 294.872,-1430.45"/>
<text text-anchor="middle" x="273.25" y="-957.4" font-family="Times,serif" font-size="14.00">0.0086</text>
</g>
<!-- C5&#45;&#45;B&#45;5 -->
<g id="edge110" class="edge"><title>C5&#45;&#45;B&#45;5</title>
<path fill="none" stroke="black" d="M735.18,-459.34C784.91,-443.6 898.7,-407.58 955.48,-389.61"/>
<polygon fill="black" stroke="black" points="956.589,-392.93 965.07,-386.58 954.48,-386.255 956.589,-392.93"/>
<text text-anchor="middle" x="894.25" y="-417.4" font-family="Times,serif" font-size="14.00">0.0086</text>
</g>
<!-- C5&#45;&#45;C#6 -->
<g id="edge116" class="edge"><title>C5&#45;&#45;C#6</title>
<path fill="none" stroke="black" d="M705.5,-450.34C700.21,-432.79 693,-404.26 693,-379 693,-379 693,-379 693,-197 693,-176.63 693.54,-153.6 694.06,-136.22"/>
<polygon fill="black" stroke="black" points="697.559,-136.307 694.38,-126.2 690.562,-136.083 697.559,-136.307"/>
<text text-anchor="middle" x="712.25" y="-282.4" font-family="Times,serif" font-size="14.00">0.0086</text>
</g>
<!-- C5&#45;&#45;F5 -->
<g id="edge114" class="edge"><title>C5&#45;&#45;F5</title>
<path fill="none" stroke="black" d="M728.36,-482.08C754.14,-502.64 801.66,-545.25 822,-594 858.52,-681.54 878.91,-978.11 884.44,-1069.8"/>
<polygon fill="black" stroke="black" points="880.953,-1070.13 885.04,-1079.9 887.941,-1069.71 880.953,-1070.13"/>
<text text-anchor="middle" x="880.25" y="-777.4" font-family="Times,serif" font-size="14.00">0.0086</text>
</g>
<!-- C5&#45;&#45;G#4 -->
<g id="edge120" class="edge"><title>C5&#45;&#45;G#4</title>
<path fill="none" stroke="black" d="M683.95,-468.49C631.39,-468.98 514.68,-477.57 447,-540 264.96,-707.94 310.81,-738.74 350.5,-846 405.35,-994.25 454.07,-1023.2 582,-1116 624.33,-1146.7 681.93,-1167.1 718.28,-1177.8"/>
<polygon fill="black" stroke="black" points="717.371,-1181.18 727.95,-1180.6 719.318,-1174.46 717.371,-1181.18"/>
<text text-anchor="middle" x="370.25" y="-822.4" font-family="Times,serif" font-size="14.00">0.0086</text>
</g>
<!-- C#4&#45;&#45;F4 -->
<g id="edge144" class="edge"><title>C#4&#45;&#45;F4</title>
<path fill="none" stroke="black" d="M554.46,-754.84C562.96,-768.72 574.29,-789.79 579,-810 582.63,-825.58 586.61,-831.93 579,-846 572.05,-858.85 558.45,-851.15 551.5,-864 547.7,-871.04 547.96,-874.83 551.5,-882 557.32,-893.8 567.04,-889.52 575,-900 593.38,-924.19 605.08,-957.3 611.56,-980.26"/>
<polygon fill="black" stroke="black" points="608.205,-981.264 614.17,-990.02 614.968,-979.455 608.205,-981.264"/>
<text text-anchor="middle" x="571.25" y="-867.4" font-family="Times,serif" font-size="14.00">0.0086</text>
</g>
<!-- C#4&#45;&#45;G#3 -->
<g id="edge146" class="edge"><title>C#4&#45;&#45;G#3</title>
<path fill="none" stroke="black" d="M528.31,-723.11C521.81,-716.97 514.42,-709.45 508.5,-702 501.72,-693.47 495.24,-683.43 489.87,-674.39"/>
<polygon fill="black" stroke="black" points="492.737,-672.355 484.71,-665.44 486.673,-675.851 492.737,-672.355"/>
<text text-anchor="middle" x="528.25" y="-687.4" font-family="Times,serif" font-size="14.00">0.0086</text>
</g>
<!-- C#4&#45;&#45;C#4 -->
<g id="edge148" class="edge"><title>C#4&#45;&#45;C#4</title>
<path fill="none" stroke="black" d="M568.53,-746.12C579.51,-746.89 589,-744.19 589,-738 589,-733.84 584.72,-731.26 578.57,-730.24"/>
<polygon fill="black" stroke="black" points="578.649,-726.741 568.53,-729.88 578.398,-733.736 578.649,-726.741"/>
<text text-anchor="middle" x="608.25" y="-732.4" font-family="Times,serif" font-size="14.00">0.0086</text>
</g>
<!-- B&#45;3 -->
<g id="node76" class="node"><title>B&#45;3</title>
<ellipse fill="none" stroke="black" cx="559" cy="-648" rx="27" ry="18"/>
<text text-anchor="middle" x="559" y="-642.4" font-family="Times,serif" font-size="14.00">B&#45;3</text>
</g>
<!-- C#4&#45;&#45;B&#45;3 -->
<g id="edge142" class="edge"><title>C#4&#45;&#45;B&#45;3</title>
<path fill="none" stroke="black" d="M546.89,-720.03C549.01,-707.62 551.92,-690.51 554.36,-676.19"/>
<polygon fill="black" stroke="black" points="557.881,-676.368 556.12,-665.92 550.981,-675.185 557.881,-676.368"/>
<text text-anchor="middle" x="572.25" y="-687.4" font-family="Times,serif" font-size="14.00">0.0345</text>
</g>
<!-- E&#45;6&#45;&#45;E&#45;6 -->
<g id="edge140" class="edge"><title>E&#45;6&#45;&#45;E&#45;6</title>
<path fill="none" stroke="black" d="M719.53,-26.121C730.51,-26.895 740,-24.188 740,-18 740,-13.843 735.72,-11.257 729.57,-10.242"/>
<polygon fill="black" stroke="black" points="729.65,-6.7427 719.53,-9.8789 729.397,-13.7381 729.65,-6.7427"/>
<text text-anchor="middle" x="759.25" y="-12.4" font-family="Times,serif" font-size="14.00">0.0086</text>
</g>
<!-- B&#45;3&#45;&#45;B&#45;4 -->
<g id="edge104" class="edge"><title>B&#45;3&#45;&#45;B&#45;4</title>
<path fill="none" stroke="black" d="M573.05,-632.39C584.85,-620.77 602.61,-604.73 620.5,-594 638.01,-583.5 659.23,-575.1 676.72,-569.16"/>
<polygon fill="black" stroke="black" points="678.114,-572.386 686.53,-565.95 675.937,-565.734 678.114,-572.386"/>
<text text-anchor="middle" x="640.25" y="-597.4" font-family="Times,serif" font-size="14.00">0.0086</text>
</g>
<!-- C4 -->
<g id="node77" class="node"><title>C4</title>
<ellipse fill="none" stroke="black" cx="483" cy="-558" rx="27" ry="18"/>
<text text-anchor="middle" x="483" y="-552.4" font-family="Times,serif" font-size="14.00">C4</text>
</g>
<!-- B&#45;3&#45;&#45;C4 -->
<g id="edge102" class="edge"><title>B&#45;3&#45;&#45;C4</title>
<path fill="none" stroke="black" d="M546.11,-632.07C534.21,-618.29 516.36,-597.63 502.68,-581.78"/>
<polygon fill="black" stroke="black" points="505.145,-579.28 495.96,-574 499.848,-583.856 505.145,-579.28"/>
<text text-anchor="middle" x="547.25" y="-597.4" font-family="Times,serif" font-size="14.00">0.0172</text>
</g>
<!-- C4&#45;&#45;E&#45;4 -->
<g id="edge106" class="edge"><title>C4&#45;&#45;E&#45;4</title>
<path fill="none" stroke="black" d="M471.26,-574.47C455.06,-597.07 427.01,-641.08 419.5,-684 412.55,-723.71 416.62,-770.54 420.53,-799.5"/>
<polygon fill="black" stroke="black" points="417.105,-800.274 422,-809.67 424.033,-799.272 417.105,-800.274"/>
<text text-anchor="middle" x="439.25" y="-687.4" font-family="Times,serif" font-size="14.00">0.0172</text>
</g>
<!-- B5&#45;&#45;C#6 -->
<g id="edge136" class="edge"><title>B5&#45;&#45;C#6</title>
<path fill="none" stroke="black" d="M893.14,-184.93C874.22,-173.23 843.96,-155.59 816,-144 788.07,-132.42 755.02,-123.14 730.52,-117.05"/>
<polygon fill="black" stroke="black" points="731.133,-113.597 720.59,-114.64 729.482,-120.4 731.133,-113.597"/>
<text text-anchor="middle" x="871.25" y="-147.4" font-family="Times,serif" font-size="14.00">0.0086</text>
</g>
<!-- B5&#45;&#45;G#6 -->
<g id="edge138" class="edge"><title>B5&#45;&#45;G#6</title>
<path fill="none" stroke="black" d="M913.51,-179.73C914.9,-169.08 917.53,-155.34 922.5,-144 924.23,-140.05 926.46,-136.11 928.89,-132.38"/>
<polygon fill="black" stroke="black" points="931.814,-134.307 934.76,-124.13 926.111,-130.249 931.814,-134.307"/>
<text text-anchor="middle" x="941.25" y="-147.4" font-family="Times,serif" font-size="14.00">0.0086</text>
</g>
<!-- E5 -->
<g id="node104" class="node"><title>E5</title>
<ellipse fill="none" stroke="black" cx="825" cy="-198" rx="27" ry="18"/>
<text text-anchor="middle" x="825" y="-192.4" font-family="Times,serif" font-size="14.00">E5</text>
</g>
<!-- E5&#45;&#45;C#6 -->
<g id="edge150" class="edge"><title>E5&#45;&#45;C#6</title>
<path fill="none" stroke="black" d="M806.23,-184.62C796.39,-178.03 784.19,-169.72 773.5,-162 762.83,-154.3 760.78,-151.54 750,-144 741.39,-137.98 731.8,-131.73 723.07,-126.2"/>
<polygon fill="black" stroke="black" points="724.694,-123.087 714.36,-120.75 720.981,-129.021 724.694,-123.087"/>
<text text-anchor="middle" x="793.25" y="-147.4" font-family="Times,serif" font-size="14.00">0.0086</text>
</g>
<!-- E5&#45;&#45;E6 -->
<g id="edge152" class="edge"><title>E5&#45;&#45;E6</title>
<path fill="none" stroke="black" d="M825.1,-179.93C825.27,-148.97 825.64,-83.299 825.85,-46.129"/>
<polygon fill="black" stroke="black" points="829.35,-46.0332 825.9,-36.016 822.351,-45.9985 829.35,-46.0332"/>
<text text-anchor="middle" x="845.25" y="-102.4" font-family="Times,serif" font-size="14.00">0.0086</text>
</g>
<!-- E7 -->
<g id="node107" class="node"><title>E7</title>
<ellipse fill="none" stroke="black" cx="27" cy="-198" rx="27" ry="18"/>
<text text-anchor="middle" x="27" y="-192.4" font-family="Times,serif" font-size="14.00">E7</text>
</g>
<!-- E7&#45;&#45;C#6 -->
<g id="edge154" class="edge"><title>E7&#45;&#45;C#6</title>
<path fill="none" stroke="black" d="M22.473,-179.85C20.511,-168.14 20.406,-153.14 29.5,-144 51.79,-121.59 521.08,-111.93 657.88,-109.59"/>
<polygon fill="black" stroke="black" points="657.941,-113.09 667.88,-109.42 657.822,-106.091 657.941,-113.09"/>
<text text-anchor="middle" x="49.25" y="-147.4" font-family="Times,serif" font-size="14.00">0.0086</text>
</g>
<!-- F#3 -->
<g id="node109" class="node"><title>F#3</title>
<ellipse fill="none" stroke="black" cx="539" cy="-918" rx="27" ry="18"/>
<text text-anchor="middle" x="539" y="-912.4" font-family="Times,serif" font-size="14.00">F#3</text>
</g>
<!-- F#3&#45;&#45;E&#45;4 -->
<g id="edge156" class="edge"><title>F#3&#45;&#45;E&#45;4</title>
<path fill="none" stroke="black" d="M515.99,-908.5C501.47,-902.46 482.83,-893.4 468.5,-882 458.27,-873.86 448.81,-862.95 441.35,-853.14"/>
<polygon fill="black" stroke="black" points="444.059,-850.915 435.33,-844.91 438.409,-855.048 444.059,-850.915"/>
<text text-anchor="middle" x="488.25" y="-867.4" font-family="Times,serif" font-size="14.00">0.0086</text>
</g>
<!-- F#3&#45;&#45;C#4 -->
<g id="edge158" class="edge"><title>F#3&#45;&#45;C#4</title>
<path fill="none" stroke="black" d="M536.66,-899.94C535.98,-894.25 535.33,-887.86 535,-882 532.7,-841.7 536.94,-795.03 540.34,-766.26"/>
<polygon fill="black" stroke="black" points="543.834,-766.524 541.59,-756.17 536.887,-765.664 543.834,-766.524"/>
<text text-anchor="middle" x="556.25" y="-822.4" font-family="Times,serif" font-size="14.00">0.0086</text>
</g>
<!-- F6 -->
<g id="node112" class="node"><title>F6</title>
<ellipse fill="none" stroke="black" cx="308" cy="-1548" rx="27" ry="18"/>
<text text-anchor="middle" x="308" y="-1542.4" font-family="Times,serif" font-size="14.00">F6</text>
</g>
<!-- F6&#45;&#45;F#5 -->
<g id="edge160" class="edge"><title>F6&#45;&#45;F#5</title>
<path fill="none" stroke="black" d="M306.81,-1529.6C305.97,-1517.2 304.82,-1500.4 303.86,-1486.2"/>
<polygon fill="black" stroke="black" points="307.343,-1485.83 303.16,-1476.1 300.36,-1486.32 307.343,-1485.83"/>
<text text-anchor="middle" x="325.25" y="-1497.4" font-family="Times,serif" font-size="14.00">0.0086</text>
</g>
<!-- G5 -->
<g id="node114" class="node"><title>G5</title>
<ellipse fill="none" stroke="black" cx="618" cy="-1098" rx="27" ry="18"/>
<text text-anchor="middle" x="618" y="-1092.4" font-family="Times,serif" font-size="14.00">G5</text>
</g>
<!-- G5&#45;&#45;F4 -->
<g id="edge162" class="edge"><title>G5&#45;&#45;F4</title>
<path fill="none" stroke="black" d="M618,-1079.6C618,-1067.2 618,-1050.4 618,-1036.2"/>
<polygon fill="black" stroke="black" points="621.5,-1036.1 618,-1026.1 614.5,-1036.1 621.5,-1036.1"/>
<text text-anchor="middle" x="637.25" y="-1047.4" font-family="Times,serif" font-size="14.00">0.0086</text>
</g>
</g>
</svg>
