<?xml version="1.0" encoding="UTF-8" standalone="no"?>
<!DOCTYPE svg PUBLIC "-//W3C//DTD SVG 1.1//EN"
 "http://www.w3.org/Graphics/SVG/1.1/DTD/svg11.dtd">
<!-- Generated by graphviz version 2.28.0 (20121019.2215)
 -->
<!-- Title: _anonymous_0 Pages: 1 -->
<svg width="2257pt" height="2042pt"
 viewBox="0.00 0.00 2257.45 2042.00" xmlns="http://www.w3.org/2000/svg" xmlns:xlink="http://www.w3.org/1999/xlink">
<g id="graph1" class="graph" transform="scale(1 1) rotate(0) translate(4 2038)">
<title>_anonymous_0</title>
<polygon fill="white" stroke="white" points="-4,5 -4,-2038 2254.45,-2038 2254.45,5 -4,5"/>
<!-- A3 -->
<g id="node1" class="node"><title>A3</title>
<ellipse fill="none" stroke="black" cx="1834" cy="-198" rx="27" ry="18"/>
<text text-anchor="middle" x="1834" y="-192.4" font-family="Times,serif" font-size="14.00">A3</text>
</g>
<!-- F#2 -->
<g id="node2" class="node"><title>F#2</title>
<ellipse fill="none" stroke="black" cx="2098" cy="-108" rx="27" ry="18"/>
<text text-anchor="middle" x="2098" y="-102.4" font-family="Times,serif" font-size="14.00">F#2</text>
</g>
<!-- A3&#45;&#45;F#2 -->
<g id="edge2" class="edge"><title>A3&#45;&#45;F#2</title>
<path fill="none" stroke="black" d="M1857.9,-189.04C1905.1,-173.3 2010.5,-138.17 2064.6,-120.15"/>
<polygon fill="black" stroke="black" points="2066.02,-123.365 2074.4,-116.88 2063.81,-116.725 2066.02,-123.365"/>
<text text-anchor="middle" x="2008.2" y="-147.4" font-family="Times,serif" font-size="14.00">0.0036</text>
</g>
<!-- A4 -->
<g id="node4" class="node"><title>A4</title>
<ellipse fill="none" stroke="black" cx="115" cy="-108" rx="27" ry="18"/>
<text text-anchor="middle" x="115" y="-102.4" font-family="Times,serif" font-size="14.00">A4</text>
</g>
<!-- C#5 -->
<g id="node5" class="node"><title>C#5</title>
<ellipse fill="none" stroke="black" cx="400" cy="-1296" rx="27.2698" ry="18"/>
<text text-anchor="middle" x="400" y="-1290.4" font-family="Times,serif" font-size="14.00">C#5</text>
</g>
<!-- A4&#45;&#45;C#5 -->
<g id="edge4" class="edge"><title>A4&#45;&#45;C#5</title>
<path fill="none" stroke="black" d="M110.11,-125.82C102.98,-152.63 91.377,-206.67 99,-252 119.28,-372.59 189,-389.72 189,-512 189,-649 189,-649 189,-649 189,-672.56 187.35,-678.65 190.5,-702 193.8,-726.48 288.3,-1110.5 296,-1134 315.28,-1192.8 316.01,-1212 355,-1260 359.98,-1266.1 366.22,-1271.8 372.46,-1276.8"/>
<polygon fill="black" stroke="black" points="370.719,-1279.87 380.84,-1283 374.883,-1274.24 370.719,-1279.87"/>
<text text-anchor="middle" x="210.25" y="-687.4" font-family="Times,serif" font-size="14.00">0.0143</text>
</g>
<!-- F#4 -->
<g id="node7" class="node"><title>F#4</title>
<ellipse fill="none" stroke="black" cx="229" cy="-1566" rx="27" ry="18"/>
<text text-anchor="middle" x="229" y="-1560.4" font-family="Times,serif" font-size="14.00">F#4</text>
</g>
<!-- A4&#45;&#45;F#4 -->
<g id="edge6" class="edge"><title>A4&#45;&#45;F#4</title>
<path fill="none" stroke="black" d="M90.33,-115.79C56.539,-126.77 0,-151.87 0,-197 0,-1477 0,-1477 0,-1477 0,-1517.8 128.57,-1546.9 193.04,-1558.9"/>
<polygon fill="black" stroke="black" points="192.722,-1562.4 203.18,-1560.7 193.946,-1555.51 192.722,-1562.4"/>
<text text-anchor="middle" x="19.25" y="-822.4" font-family="Times,serif" font-size="14.00">0.0036</text>
</g>
<!-- E&#45;5 -->
<g id="node9" class="node"><title>E&#45;5</title>
<ellipse fill="none" stroke="black" cx="607" cy="-1206" rx="27" ry="18"/>
<text text-anchor="middle" x="607" y="-1200.4" font-family="Times,serif" font-size="14.00">E&#45;5</text>
</g>
<!-- C#5&#45;&#45;E&#45;5 -->
<g id="edge8" class="edge"><title>C#5&#45;&#45;E&#45;5</title>
<path fill="none" stroke="black" d="M417.31,-1282.1C433.84,-1270.3 459.83,-1253 484.5,-1242 512.73,-1229.4 546.65,-1220.1 571.62,-1214.3"/>
<polygon fill="black" stroke="black" points="572.412,-1217.71 581.4,-1212.1 570.876,-1210.88 572.412,-1217.71"/>
<text text-anchor="middle" x="504.25" y="-1245.4" font-family="Times,serif" font-size="14.00">0.0107</text>
</g>
<!-- E5 -->
<g id="node11" class="node"><title>E5</title>
<ellipse fill="none" stroke="black" cx="822" cy="-1206" rx="27" ry="18"/>
<text text-anchor="middle" x="822" y="-1200.4" font-family="Times,serif" font-size="14.00">E5</text>
</g>
<!-- C#5&#45;&#45;E5 -->
<g id="edge10" class="edge"><title>C#5&#45;&#45;E5</title>
<path fill="none" stroke="black" d="M425.41,-1289.2C450.59,-1283.1 490.06,-1272.7 523,-1260 539.88,-1253.5 542.2,-1247.3 559.5,-1242 600.87,-1229.4 723.19,-1216.4 785.14,-1210.4"/>
<polygon fill="black" stroke="black" points="785.609,-1213.87 795.26,-1209.5 784.989,-1206.9 785.609,-1213.87"/>
<text text-anchor="middle" x="579.25" y="-1245.4" font-family="Times,serif" font-size="14.00">0.0036</text>
</g>
<!-- E4 -->
<g id="node13" class="node"><title>E4</title>
<ellipse fill="none" stroke="black" cx="201" cy="-198" rx="27" ry="18"/>
<text text-anchor="middle" x="201" y="-192.4" font-family="Times,serif" font-size="14.00">E4</text>
</g>
<!-- C#5&#45;&#45;E4 -->
<g id="edge12" class="edge"><title>C#5&#45;&#45;E4</title>
<path fill="none" stroke="black" d="M381.91,-1282.4C374.95,-1276.5 367.78,-1268.8 364,-1260 346.84,-1220 363,-1205.6 363,-1162 363,-1162 363,-1162 363,-962 363,-717.76 251,-668.24 251,-424 251,-424 251,-424 251,-287 251,-262.31 235.94,-238.21 222.35,-221.5"/>
<polygon fill="black" stroke="black" points="224.625,-218.776 215.46,-213.46 219.31,-223.331 224.625,-218.776"/>
<text text-anchor="middle" x="349.25" y="-732.4" font-family="Times,serif" font-size="14.00">0.0036</text>
</g>
<!-- F3 -->
<g id="node15" class="node"><title>F3</title>
<ellipse fill="none" stroke="black" cx="1118" cy="-18" rx="27" ry="18"/>
<text text-anchor="middle" x="1118" y="-12.4" font-family="Times,serif" font-size="14.00">F3</text>
</g>
<!-- C#5&#45;&#45;F3 -->
<g id="edge14" class="edge"><title>C#5&#45;&#45;F3</title>
<path fill="none" stroke="black" d="M400.21,-1277.8C400.51,-1252.4 401,-1203.6 401,-1162 401,-1162 401,-1162 401,-872 401,-511.43 343.15,-324.56 617,-90 646.92,-64.372 659.84,-63.773 698,-54 770.03,-35.555 992.41,-24.337 1081,-20.497"/>
<polygon fill="black" stroke="black" points="1081.26,-23.9892 1091.1,-20.065 1080.96,-16.9956 1081.26,-23.9892"/>
<text text-anchor="middle" x="416.25" y="-642.4" font-family="Times,serif" font-size="14.00">0.0107</text>
</g>
<!-- F5 -->
<g id="node17" class="node"><title>F5</title>
<ellipse fill="none" stroke="black" cx="948" cy="-1206" rx="27" ry="18"/>
<text text-anchor="middle" x="948" y="-1200.4" font-family="Times,serif" font-size="14.00">F5</text>
</g>
<!-- C#5&#45;&#45;F5 -->
<g id="edge16" class="edge"><title>C#5&#45;&#45;F5</title>
<path fill="none" stroke="black" d="M426.76,-1293C480.76,-1288.7 606.51,-1277.5 711,-1260 783.68,-1247.8 867.59,-1227.6 913.52,-1215.9"/>
<polygon fill="black" stroke="black" points="914.388,-1219.29 923.26,-1213.5 912.713,-1212.49 914.388,-1219.29"/>
<text text-anchor="middle" x="822.25" y="-1245.4" font-family="Times,serif" font-size="14.00">0.0071</text>
</g>
<!-- F#4&#45;&#45;A3 -->
<g id="edge18" class="edge"><title>F#4&#45;&#45;A3</title>
<path fill="none" stroke="black" d="M254.92,-1560.9C280.73,-1557 321.51,-1551.3 357,-1548 432.84,-1541 1726,-1553.2 1726,-1477 1726,-1477 1726,-1477 1726,-1160 1726,-1107.9 1730.8,-1094.7 1743,-1044 1760.8,-970.08 1774.4,-954.28 1798,-882 1850.1,-722.59 1885.6,-687.76 1911,-522 1918.3,-474.55 1919.2,-461.29 1911,-414 1898.6,-342.7 1864.7,-263.77 1846.3,-224.34"/>
<polygon fill="black" stroke="black" points="1849.42,-222.759 1842,-215.2 1843.09,-225.739 1849.42,-222.759"/>
<text text-anchor="middle" x="1823.2" y="-867.4" font-family="Times,serif" font-size="14.00">0.0036</text>
</g>
<!-- G#4 -->
<g id="node20" class="node"><title>G#4</title>
<ellipse fill="none" stroke="black" cx="755" cy="-1476" rx="27.8358" ry="18"/>
<text text-anchor="middle" x="755" y="-1470.4" font-family="Times,serif" font-size="14.00">G#4</text>
</g>
<!-- F#4&#45;&#45;G#4 -->
<g id="edge20" class="edge"><title>F#4&#45;&#45;G#4</title>
<path fill="none" stroke="black" d="M255.08,-1560.6C341.58,-1546.2 619.09,-1499.7 718.85,-1483"/>
<polygon fill="black" stroke="black" points="719.446,-1486.45 728.76,-1481.4 718.33,-1479.54 719.446,-1486.45"/>
<text text-anchor="middle" x="559.25" y="-1515.4" font-family="Times,serif" font-size="14.00">0.0036</text>
</g>
<!-- C3 -->
<g id="node30" class="node"><title>C3</title>
<ellipse fill="none" stroke="black" cx="1118" cy="-108" rx="27" ry="18"/>
<text text-anchor="middle" x="1118" y="-102.4" font-family="Times,serif" font-size="14.00">C3</text>
</g>
<!-- E&#45;5&#45;&#45;C3 -->
<g id="edge30" class="edge"><title>E&#45;5&#45;&#45;C3</title>
<path fill="none" stroke="black" d="M602.59,-1188.2C599.75,-1177.7 595.88,-1164 592,-1152 558.08,-1047.1 507,-1029.2 507,-919 507,-919 507,-919 507,-647 507,-461.04 420.18,-338.49 574,-234 738.02,-122.58 987.37,-109.42 1080.9,-108.62"/>
<polygon fill="black" stroke="black" points="1081.01,-112.12 1091,-108.58 1080.99,-105.12 1081.01,-112.12"/>
<text text-anchor="middle" x="526.25" y="-642.4" font-family="Times,serif" font-size="14.00">0.0036</text>
</g>
<!-- F#5 -->
<g id="node32" class="node"><title>F#5</title>
<ellipse fill="none" stroke="black" cx="693" cy="-1116" rx="27" ry="18"/>
<text text-anchor="middle" x="693" y="-1110.4" font-family="Times,serif" font-size="14.00">F#5</text>
</g>
<!-- E&#45;5&#45;&#45;F#5 -->
<g id="edge32" class="edge"><title>E&#45;5&#45;&#45;F#5</title>
<path fill="none" stroke="black" d="M615.1,-1188.5C621.09,-1177.3 630.01,-1162.8 640.5,-1152 647.35,-1145 655.84,-1138.6 663.98,-1133.2"/>
<polygon fill="black" stroke="black" points="665.903,-1136.13 672.58,-1127.9 662.231,-1130.17 665.903,-1136.13"/>
<text text-anchor="middle" x="660.25" y="-1155.4" font-family="Times,serif" font-size="14.00">0.0143</text>
</g>
<!-- E5&#45;&#45;G#4 -->
<g id="edge40" class="edge"><title>E5&#45;&#45;G#4</title>
<path fill="none" stroke="black" d="M820.12,-1224.2C818.98,-1234.6 817.45,-1248 816,-1260 806.11,-1341.5 806.3,-1364.2 775,-1440 773.62,-1443.3 771.99,-1446.7 770.26,-1450.1"/>
<polygon fill="black" stroke="black" points="767.057,-1448.66 765.26,-1459.1 773.176,-1452.06 767.057,-1448.66"/>
<text text-anchor="middle" x="826.25" y="-1335.4" font-family="Times,serif" font-size="14.00">0.0036</text>
</g>
<!-- G#3 -->
<g id="node22" class="node"><title>G#3</title>
<ellipse fill="none" stroke="black" cx="1461" cy="-1746" rx="27.8358" ry="18"/>
<text text-anchor="middle" x="1461" y="-1740.4" font-family="Times,serif" font-size="14.00">G#3</text>
</g>
<!-- E5&#45;&#45;G#3 -->
<g id="edge34" class="edge"><title>E5&#45;&#45;G#3</title>
<path fill="none" stroke="black" d="M847.01,-1213.2C863.63,-1218.4 884.9,-1227.4 899,-1242 911.06,-1254.5 909.98,-1261.1 914,-1278 918.42,-1296.5 928.3,-1604.2 939,-1620 990.59,-1696 1036.7,-1684.9 1125,-1710 1180.3,-1725.7 1348.1,-1737.9 1423.5,-1742.7"/>
<polygon fill="black" stroke="black" points="1423.79,-1746.23 1434,-1743.4 1424.25,-1739.24 1423.79,-1746.23"/>
<text text-anchor="middle" x="946.25" y="-1470.4" font-family="Times,serif" font-size="14.00">0.0036</text>
</g>
<!-- E5&#45;&#45;F#5 -->
<g id="edge42" class="edge"><title>E5&#45;&#45;F#5</title>
<path fill="none" stroke="black" d="M803.79,-1192.6C781.8,-1177.6 744.63,-1152.2 719.47,-1135.1"/>
<polygon fill="black" stroke="black" points="721.352,-1132.15 711.12,-1129.4 717.406,-1137.93 721.352,-1132.15"/>
<text text-anchor="middle" x="789.25" y="-1155.4" font-family="Times,serif" font-size="14.00">0.0036</text>
</g>
<!-- G#2 -->
<g id="node35" class="node"><title>G#2</title>
<ellipse fill="none" stroke="black" cx="1899" cy="-1926" rx="27.8358" ry="18"/>
<text text-anchor="middle" x="1899" y="-1920.4" font-family="Times,serif" font-size="14.00">G#2</text>
</g>
<!-- E5&#45;&#45;G#2 -->
<g id="edge36" class="edge"><title>E5&#45;&#45;G#2</title>
<path fill="none" stroke="black" d="M797.81,-1214.4C780.17,-1220.4 756.1,-1229.8 737,-1242 677.35,-1280.1 677.93,-1309.3 620,-1350 570.62,-1384.7 379,-1414.7 379,-1475 379,-1837 379,-1837 379,-1837 379,-1913.7 1628,-1923.7 1861.6,-1924.8"/>
<polygon fill="black" stroke="black" points="1861.57,-1928.3 1871.6,-1924.9 1861.64,-1921.3 1861.57,-1928.3"/>
<text text-anchor="middle" x="398.25" y="-1560.4" font-family="Times,serif" font-size="14.00">0.0036</text>
</g>
<!-- B3 -->
<g id="node37" class="node"><title>B3</title>
<ellipse fill="none" stroke="black" cx="988" cy="-468" rx="27" ry="18"/>
<text text-anchor="middle" x="988" y="-462.4" font-family="Times,serif" font-size="14.00">B3</text>
</g>
<!-- E5&#45;&#45;B3 -->
<g id="edge38" class="edge"><title>E5&#45;&#45;B3</title>
<path fill="none" stroke="black" d="M829.94,-1188.6C837.59,-1171.2 848,-1142.8 848,-1117 848,-1117 848,-1117 848,-962 848,-898.69 899,-892.31 899,-829 899,-829 899,-829 899,-557 899,-523.52 931.24,-498.46 956.91,-483.82"/>
<polygon fill="black" stroke="black" points="958.872,-486.738 966,-478.9 955.54,-480.582 958.872,-486.738"/>
<text text-anchor="middle" x="918.25" y="-822.4" font-family="Times,serif" font-size="14.00">0.0036</text>
</g>
<!-- E4&#45;&#45;A4 -->
<g id="edge44" class="edge"><title>E4&#45;&#45;A4</title>
<path fill="none" stroke="black" d="M186.8,-182.47C173.11,-168.46 152.2,-147.07 136.47,-130.97"/>
<polygon fill="black" stroke="black" points="138.712,-128.257 129.22,-123.55 133.705,-133.149 138.712,-128.257"/>
<text text-anchor="middle" x="185.25" y="-147.4" font-family="Times,serif" font-size="14.00">0.0036</text>
</g>
<!-- E4&#45;&#45;F#4 -->
<g id="edge46" class="edge"><title>E4&#45;&#45;F#4</title>
<path fill="none" stroke="black" d="M182.48,-211.2C174.04,-217.37 164.32,-225.36 157,-234 98.068,-303.55 75,-330.84 75,-422 75,-604 75,-604 75,-604 75,-919.69 6.4064,-1011.3 96,-1314 121,-1398.5 138.31,-1415.9 179,-1494 187.55,-1510.4 189.39,-1514.8 200,-1530 202.85,-1534.1 206.04,-1538.3 209.25,-1542.3"/>
<polygon fill="black" stroke="black" points="206.648,-1544.64 215.73,-1550.1 212.032,-1540.17 206.648,-1544.64"/>
<text text-anchor="middle" x="80.25" y="-867.4" font-family="Times,serif" font-size="14.00">0.0107</text>
</g>
<!-- E4&#45;&#45;G#4 -->
<g id="edge48" class="edge"><title>E4&#45;&#45;G#4</title>
<path fill="none" stroke="black" d="M186.54,-213.46C171.77,-229.83 151,-258.01 151,-287 151,-784 151,-784 151,-784 151,-955.56 107.39,-1003.6 149,-1170 159.99,-1214 167.23,-1225.8 197,-1260 286.44,-1362.7 318.03,-1390.7 445,-1440 493.87,-1459 646.06,-1469.3 717.4,-1473.2"/>
<polygon fill="black" stroke="black" points="717.562,-1476.71 727.72,-1473.7 717.901,-1469.72 717.562,-1476.71"/>
<text text-anchor="middle" x="170.25" y="-822.4" font-family="Times,serif" font-size="14.00">0.0143</text>
</g>
<!-- F3&#45;&#45;G#3 -->
<g id="edge50" class="edge"><title>F3&#45;&#45;G#3</title>
<path fill="none" stroke="black" d="M1145.3,-19.147C1283.6,-20.244 1899,-29.48 1899,-107 1899,-244 1899,-244 1899,-244 1899,-661.77 1688,-742.23 1688,-1160 1688,-1657 1688,-1657 1688,-1657 1688,-1697.3 1561.8,-1726.4 1497.6,-1738.6"/>
<polygon fill="black" stroke="black" points="1496.68,-1735.21 1487.5,-1740.5 1497.97,-1742.09 1496.68,-1735.21"/>
<text text-anchor="middle" x="1751.2" y="-867.4" font-family="Times,serif" font-size="14.00">0.0071</text>
</g>
<!-- F4 -->
<g id="node45" class="node"><title>F4</title>
<ellipse fill="none" stroke="black" cx="768" cy="-828" rx="27" ry="18"/>
<text text-anchor="middle" x="768" y="-822.4" font-family="Times,serif" font-size="14.00">F4</text>
</g>
<!-- F3&#45;&#45;F4 -->
<g id="edge52" class="edge"><title>F3&#45;&#45;F4</title>
<path fill="none" stroke="black" d="M1091.1,-20.981C989.03,-28.86 631,-59.853 631,-107 631,-334 631,-334 631,-334 631,-423.46 725,-422.54 725,-512 725,-739 725,-739 725,-739 725,-762.75 737.8,-786.77 749.43,-803.71"/>
<polygon fill="black" stroke="black" points="746.638,-805.822 755.33,-811.88 752.313,-801.724 746.638,-805.822"/>
<text text-anchor="middle" x="707.25" y="-417.4" font-family="Times,serif" font-size="14.00">0.0036</text>
</g>
<!-- F5&#45;&#45;G#3 -->
<g id="edge22" class="edge"><title>F5&#45;&#45;G#3</title>
<path fill="none" stroke="black" d="M955.09,-1223.6C957.44,-1229.4 959.97,-1235.9 962,-1242 985.67,-1312.8 983.83,-1332.8 1006,-1404 1021.1,-1452.6 1027.6,-1463.8 1044,-1512 1068.4,-1583.7 1041.6,-1622.3 1097,-1674 1144.2,-1718.1 1341.1,-1736.7 1424,-1742.7"/>
<polygon fill="black" stroke="black" points="1423.68,-1746.19 1433.9,-1743.4 1424.17,-1739.2 1423.68,-1746.19"/>
<text text-anchor="middle" x="1057.2" y="-1470.4" font-family="Times,serif" font-size="14.00">0.0036</text>
</g>
<!-- A5 -->
<g id="node24" class="node"><title>A5</title>
<ellipse fill="none" stroke="black" cx="800" cy="-1062" rx="27" ry="18"/>
<text text-anchor="middle" x="800" y="-1056.4" font-family="Times,serif" font-size="14.00">A5</text>
</g>
<!-- F5&#45;&#45;A5 -->
<g id="edge24" class="edge"><title>F5&#45;&#45;A5</title>
<path fill="none" stroke="black" d="M930.67,-1191.8C922.54,-1185.5 912.82,-1177.6 904.5,-1170 873.86,-1142.2 840.85,-1107.5 820.31,-1085.3"/>
<polygon fill="black" stroke="black" points="822.679,-1082.7 813.34,-1077.7 817.52,-1087.44 822.679,-1082.7"/>
<text text-anchor="middle" x="924.25" y="-1155.4" font-family="Times,serif" font-size="14.00">0.0036</text>
</g>
<!-- C#3 -->
<g id="node26" class="node"><title>C#3</title>
<ellipse fill="none" stroke="black" cx="2028" cy="-1008" rx="27.2698" ry="18"/>
<text text-anchor="middle" x="2028" y="-1002.4" font-family="Times,serif" font-size="14.00">C#3</text>
</g>
<!-- F5&#45;&#45;C#3 -->
<g id="edge26" class="edge"><title>F5&#45;&#45;C#3</title>
<path fill="none" stroke="black" d="M975.25,-1205.2C1087,-1206 1510.2,-1206.2 1638,-1170 1718,-1147.3 1738.7,-1133.9 1802,-1080 1817.4,-1066.9 1812.6,-1054.5 1830,-1044 1856.6,-1028 1941.8,-1017.3 1991.3,-1012.3"/>
<polygon fill="black" stroke="black" points="1991.7,-1015.78 2001.3,-1011.3 1991,-1008.81 1991.7,-1015.78"/>
<text text-anchor="middle" x="1800.2" y="-1110.4" font-family="Times,serif" font-size="14.00">0.0036</text>
</g>
<!-- G#5 -->
<g id="node28" class="node"><title>G#5</title>
<ellipse fill="none" stroke="black" cx="945" cy="-1116" rx="27.8358" ry="18"/>
<text text-anchor="middle" x="945" y="-1110.4" font-family="Times,serif" font-size="14.00">G#5</text>
</g>
<!-- F5&#45;&#45;G#5 -->
<g id="edge28" class="edge"><title>F5&#45;&#45;G#5</title>
<path fill="none" stroke="black" d="M947.41,-1187.6C946.99,-1175.2 946.41,-1158.4 945.93,-1144.2"/>
<polygon fill="black" stroke="black" points="949.424,-1143.97 945.58,-1134.1 942.429,-1144.22 949.424,-1143.97"/>
<text text-anchor="middle" x="966.25" y="-1155.4" font-family="Times,serif" font-size="14.00">0.0036</text>
</g>
<!-- G#4&#45;&#45;C#5 -->
<g id="edge54" class="edge"><title>G#4&#45;&#45;C#5</title>
<path fill="none" stroke="black" d="M727.76,-1473.8C666.14,-1470.6 517.91,-1461 473,-1440 428.61,-1419.2 410.76,-1359.5 403.94,-1324.2"/>
<polygon fill="black" stroke="black" points="407.341,-1323.34 402.15,-1314.1 400.449,-1324.56 407.341,-1323.34"/>
<text text-anchor="middle" x="453.25" y="-1380.4" font-family="Times,serif" font-size="14.00">0.0036</text>
</g>
<!-- B&#45;4 -->
<g id="node48" class="node"><title>B&#45;4</title>
<ellipse fill="none" stroke="black" cx="573" cy="-918" rx="27" ry="18"/>
<text text-anchor="middle" x="573" y="-912.4" font-family="Times,serif" font-size="14.00">B&#45;4</text>
</g>
<!-- G#4&#45;&#45;B&#45;4 -->
<g id="edge56" class="edge"><title>G#4&#45;&#45;B&#45;4</title>
<path fill="none" stroke="black" d="M727.51,-1475.2C669.93,-1475.1 539.63,-1471.2 511,-1440 473.12,-1398.7 492.05,-1243.6 499.5,-1188 511.73,-1096.8 546.31,-992.75 563.32,-945.2"/>
<polygon fill="black" stroke="black" points="566.657,-946.264 566.76,-935.67 560.073,-943.888 566.657,-946.264"/>
<text text-anchor="middle" x="519.25" y="-1200.4" font-family="Times,serif" font-size="14.00">0.0071</text>
</g>
<!-- B4 -->
<g id="node50" class="node"><title>B4</title>
<ellipse fill="none" stroke="black" cx="701" cy="-1386" rx="27" ry="18"/>
<text text-anchor="middle" x="701" y="-1380.4" font-family="Times,serif" font-size="14.00">B4</text>
</g>
<!-- G#4&#45;&#45;B4 -->
<g id="edge58" class="edge"><title>G#4&#45;&#45;B4</title>
<path fill="none" stroke="black" d="M745.1,-1458.9C737.03,-1445.7 725.5,-1426.9 716.25,-1411.9"/>
<polygon fill="black" stroke="black" points="719.025,-1409.73 710.84,-1403 713.044,-1413.36 719.025,-1409.73"/>
<text text-anchor="middle" x="752.25" y="-1425.4" font-family="Times,serif" font-size="14.00">0.0143</text>
</g>
<!-- C5 -->
<g id="node52" class="node"><title>C5</title>
<ellipse fill="none" stroke="black" cx="878" cy="-1296" rx="27" ry="18"/>
<text text-anchor="middle" x="878" y="-1290.4" font-family="Times,serif" font-size="14.00">C5</text>
</g>
<!-- G#4&#45;&#45;C5 -->
<g id="edge60" class="edge"><title>G#4&#45;&#45;C5</title>
<path fill="none" stroke="black" d="M775.77,-1463.7C785.53,-1457.6 796.79,-1449.4 805,-1440 835.74,-1404.7 857.57,-1354.1 868.95,-1323.5"/>
<polygon fill="black" stroke="black" points="872.276,-1324.59 872.41,-1314 865.699,-1322.2 872.276,-1324.59"/>
<text text-anchor="middle" x="869.25" y="-1380.4" font-family="Times,serif" font-size="14.00">0.0143</text>
</g>
<!-- C#2 -->
<g id="node58" class="node"><title>C#2</title>
<ellipse fill="none" stroke="black" cx="1314" cy="-2016" rx="27.2698" ry="18"/>
<text text-anchor="middle" x="1314" y="-2010.4" font-family="Times,serif" font-size="14.00">C#2</text>
</g>
<!-- G#3&#45;&#45;C#2 -->
<g id="edge112" class="edge"><title>G#3&#45;&#45;C#2</title>
<path fill="none" stroke="black" d="M1452.1,-1763.1C1427.5,-1808.1 1357.8,-1935.1 1327.9,-1989.6"/>
<polygon fill="black" stroke="black" points="1324.71,-1988.14 1323,-1998.6 1330.86,-1991.49 1324.71,-1988.14"/>
<text text-anchor="middle" x="1410.2" y="-1875.4" font-family="Times,serif" font-size="14.00">0.0036</text>
</g>
<!-- C4 -->
<g id="node89" class="node"><title>C4</title>
<ellipse fill="none" stroke="black" cx="1133" cy="-1656" rx="27" ry="18"/>
<text text-anchor="middle" x="1133" y="-1650.4" font-family="Times,serif" font-size="14.00">C4</text>
</g>
<!-- G#3&#45;&#45;C4 -->
<g id="edge114" class="edge"><title>G#3&#45;&#45;C4</title>
<path fill="none" stroke="black" d="M1435.2,-1739.9C1403.9,-1733.7 1349.5,-1722.2 1303.5,-1710 1255.4,-1697.2 1200.7,-1679.6 1166.5,-1668.3"/>
<polygon fill="black" stroke="black" points="1167.09,-1664.81 1156.5,-1665 1164.9,-1671.46 1167.09,-1664.81"/>
<text text-anchor="middle" x="1323.2" y="-1695.4" font-family="Times,serif" font-size="14.00">0.0179</text>
</g>
<!-- A5&#45;&#45;F4 -->
<g id="edge62" class="edge"><title>A5&#45;&#45;F4</title>
<path fill="none" stroke="black" d="M797.65,-1043.9C792.15,-1004.1 778.4,-904.43 771.74,-856.12"/>
<polygon fill="black" stroke="black" points="775.189,-855.51 770.36,-846.08 768.254,-856.463 775.189,-855.51"/>
<text text-anchor="middle" x="807.25" y="-957.4" font-family="Times,serif" font-size="14.00">0.0036</text>
</g>
<!-- C#3&#45;&#45;F#2 -->
<g id="edge208" class="edge"><title>C#3&#45;&#45;F#2</title>
<path fill="none" stroke="black" d="M2046.8,-994.85C2067.5,-979.78 2098,-951.99 2098,-919 2098,-919 2098,-919 2098,-197 2098,-176.63 2098,-153.61 2098,-136.22"/>
<polygon fill="black" stroke="black" points="2101.5,-136.2 2098,-126.2 2094.5,-136.2 2101.5,-136.2"/>
<text text-anchor="middle" x="2117.2" y="-552.4" font-family="Times,serif" font-size="14.00">0.0071</text>
</g>
<!-- C#3&#45;&#45;F3 -->
<g id="edge214" class="edge"><title>C#3&#45;&#45;F3</title>
<path fill="none" stroke="black" d="M2022.8,-990.31C2017.8,-972.75 2011,-944.21 2011,-919 2011,-919 2011,-919 2011,-107 2011,-57.483 1960.7,-67.202 1913,-54 1839.6,-33.697 1302.9,-22.404 1155.4,-19.662"/>
<polygon fill="black" stroke="black" points="1155.16,-16.1571 1145.1,-19.472 1155.03,-23.1559 1155.16,-16.1571"/>
<text text-anchor="middle" x="2030.2" y="-507.4" font-family="Times,serif" font-size="14.00">0.0143</text>
</g>
<!-- C#3&#45;&#45;G#3 -->
<g id="edge210" class="edge"><title>C#3&#45;&#45;G#3</title>
<path fill="none" stroke="black" d="M2005.9,-1018.8C1965.6,-1038.1 1880.5,-1084.7 1840,-1152 1775.4,-1259.3 1794,-1304.8 1794,-1430 1794,-1657 1794,-1657 1794,-1657 1794,-1717.6 1585.5,-1737.4 1498.5,-1743"/>
<polygon fill="black" stroke="black" points="1498.08,-1739.52 1488.3,-1743.6 1498.49,-1746.51 1498.08,-1739.52"/>
<text text-anchor="middle" x="1813.2" y="-1380.4" font-family="Times,serif" font-size="14.00">0.0036</text>
</g>
<!-- C#3&#45;&#45;G#2 -->
<g id="edge212" class="edge"><title>C#3&#45;&#45;G#2</title>
<path fill="none" stroke="black" d="M2050.9,-1017.8C2084.7,-1032.4 2144,-1065.1 2144,-1115 2144,-1837 2144,-1837 2144,-1837 2144,-1878.2 2105.8,-1873.7 2068,-1890 2025,-1908.5 1971.5,-1917.5 1936.3,-1921.6"/>
<polygon fill="black" stroke="black" points="1935.62,-1918.16 1926.1,-1922.8 1936.44,-1925.11 1935.62,-1918.16"/>
<text text-anchor="middle" x="2163.2" y="-1470.4" font-family="Times,serif" font-size="14.00">0.0071</text>
</g>
<!-- E3 -->
<g id="node70" class="node"><title>E3</title>
<ellipse fill="none" stroke="black" cx="2050" cy="-1836" rx="27" ry="18"/>
<text text-anchor="middle" x="2050" y="-1830.4" font-family="Times,serif" font-size="14.00">E3</text>
</g>
<!-- C#3&#45;&#45;E3 -->
<g id="edge216" class="edge"><title>C#3&#45;&#45;E3</title>
<path fill="none" stroke="black" d="M2043,-1023.2C2061.4,-1042.3 2090,-1077.9 2090,-1115 2090,-1747 2090,-1747 2090,-1747 2090,-1770.2 2078.3,-1794.1 2067.6,-1811"/>
<polygon fill="black" stroke="black" points="2064.43,-1809.44 2061.8,-1819.7 2070.26,-1813.32 2064.43,-1809.44"/>
<text text-anchor="middle" x="2109.2" y="-1425.4" font-family="Times,serif" font-size="14.00">0.0036</text>
</g>
<!-- G#5&#45;&#45;C#3 -->
<g id="edge226" class="edge"><title>G#5&#45;&#45;C#3</title>
<path fill="none" stroke="black" d="M972.02,-1113.1C1021.4,-1109.7 1129.7,-1102.6 1221,-1098 1325.6,-1092.8 1590.6,-1106.1 1692,-1080 1726.5,-1071.1 1729.5,-1054.5 1763.5,-1044 1842,-1019.8 1938.6,-1012.3 1990.6,-1010"/>
<polygon fill="black" stroke="black" points="1990.85,-1013.49 2000.7,-1009.6 1990.57,-1006.5 1990.85,-1013.49"/>
<text text-anchor="middle" x="1783.2" y="-1056.4" font-family="Times,serif" font-size="14.00">0.0071</text>
</g>
<!-- G#5&#45;&#45;F4 -->
<g id="edge224" class="edge"><title>G#5&#45;&#45;F4</title>
<path fill="none" stroke="black" d="M934.98,-1098.8C905.47,-1051.1 818.75,-911 783.33,-853.77"/>
<polygon fill="black" stroke="black" points="786.151,-851.678 777.91,-845.02 780.201,-855.364 786.151,-851.678"/>
<text text-anchor="middle" x="876.25" y="-957.4" font-family="Times,serif" font-size="14.00">0.0036</text>
</g>
<!-- C#6 -->
<g id="node152" class="node"><title>C#6</title>
<ellipse fill="none" stroke="black" cx="944" cy="-1008" rx="27.2698" ry="18"/>
<text text-anchor="middle" x="944" y="-1002.4" font-family="Times,serif" font-size="14.00">C#6</text>
</g>
<!-- G#5&#45;&#45;C#6 -->
<g id="edge228" class="edge"><title>G#5&#45;&#45;C#6</title>
<path fill="none" stroke="black" d="M944.84,-1098C944.68,-1081.4 944.44,-1055.9 944.26,-1036.4"/>
<polygon fill="black" stroke="black" points="947.759,-1036.26 944.16,-1026.3 940.759,-1036.33 947.759,-1036.26"/>
<text text-anchor="middle" x="964.25" y="-1056.4" font-family="Times,serif" font-size="14.00">0.0036</text>
</g>
<!-- C3&#45;&#45;F3 -->
<g id="edge170" class="edge"><title>C3&#45;&#45;F3</title>
<path fill="none" stroke="black" d="M1118,-89.614C1118,-77.24 1118,-60.369 1118,-46.22"/>
<polygon fill="black" stroke="black" points="1121.5,-46.05 1118,-36.05 1114.5,-46.05 1121.5,-46.05"/>
<text text-anchor="middle" x="1137.2" y="-57.4" font-family="Times,serif" font-size="14.00">0.0071</text>
</g>
<!-- B&#45;5 -->
<g id="node128" class="node"><title>B&#45;5</title>
<ellipse fill="none" stroke="black" cx="607" cy="-1008" rx="27" ry="18"/>
<text text-anchor="middle" x="607" y="-1002.4" font-family="Times,serif" font-size="14.00">B&#45;5</text>
</g>
<!-- F#5&#45;&#45;B&#45;5 -->
<g id="edge202" class="edge"><title>F#5&#45;&#45;B&#45;5</title>
<path fill="none" stroke="black" d="M678.56,-1100.7C672.48,-1094.5 665.46,-1087.1 659.5,-1080 646.74,-1064.9 633.49,-1046.9 623.49,-1032.9"/>
<polygon fill="black" stroke="black" points="626.337,-1030.86 617.72,-1024.7 620.612,-1034.89 626.337,-1030.86"/>
<text text-anchor="middle" x="679.25" y="-1056.4" font-family="Times,serif" font-size="14.00">0.0143</text>
</g>
<!-- E&#45;6 -->
<g id="node138" class="node"><title>E&#45;6</title>
<ellipse fill="none" stroke="black" cx="717" cy="-1008" rx="27" ry="18"/>
<text text-anchor="middle" x="717" y="-1002.4" font-family="Times,serif" font-size="14.00">E&#45;6</text>
</g>
<!-- F#5&#45;&#45;E&#45;6 -->
<g id="edge204" class="edge"><title>F#5&#45;&#45;E&#45;6</title>
<path fill="none" stroke="black" d="M696.86,-1098C700.65,-1081.2 706.51,-1055.3 710.93,-1035.8"/>
<polygon fill="black" stroke="black" points="714.354,-1036.53 713.15,-1026 707.527,-1034.98 714.354,-1036.53"/>
<text text-anchor="middle" x="728.25" y="-1056.4" font-family="Times,serif" font-size="14.00">0.0036</text>
</g>
<!-- G#2&#45;&#45;E3 -->
<g id="edge86" class="edge"><title>G#2&#45;&#45;E3</title>
<path fill="none" stroke="black" d="M1925.3,-1920.8C1948.4,-1916.2 1982.1,-1907.1 2007,-1890 2017.9,-1882.5 2027.4,-1871.5 2034.8,-1861.5"/>
<polygon fill="black" stroke="black" points="2037.85,-1863.23 2040.6,-1853 2032.07,-1859.29 2037.85,-1863.23"/>
<text text-anchor="middle" x="2045.2" y="-1875.4" font-family="Times,serif" font-size="14.00">0.0071</text>
</g>
<!-- B3&#45;&#45;E4 -->
<g id="edge192" class="edge"><title>B3&#45;&#45;E4</title>
<path fill="none" stroke="black" d="M966.86,-456.51C962.03,-454.25 956.87,-451.96 952,-450 680.74,-341.07 341.96,-239.92 234.99,-208.79"/>
<polygon fill="black" stroke="black" points="235.95,-205.424 225.37,-205.99 233.993,-212.145 235.95,-205.424"/>
<text text-anchor="middle" x="673.25" y="-327.4" font-family="Times,serif" font-size="14.00">0.0107</text>
</g>
<!-- B3&#45;&#45;G#3 -->
<g id="edge190" class="edge"><title>B3&#45;&#45;G#3</title>
<path fill="none" stroke="black" d="M999.59,-484.42C1015.4,-505.37 1044.9,-543.92 1071,-576 1190.6,-722.89 1273.6,-725.76 1348,-900 1393.4,-1006.3 1356,-1044.4 1356,-1160 1356,-1657 1356,-1657 1356,-1657 1356,-1695 1396.9,-1719.8 1427.6,-1733.1"/>
<polygon fill="black" stroke="black" points="1426.62,-1736.48 1437.2,-1737.1 1429.32,-1730.02 1426.62,-1736.48"/>
<text text-anchor="middle" x="1379.2" y="-1110.4" font-family="Times,serif" font-size="14.00">0.0107</text>
</g>
<!-- E&#45;4 -->
<g id="node72" class="node"><title>E&#45;4</title>
<ellipse fill="none" stroke="black" cx="955" cy="-378" rx="27" ry="18"/>
<text text-anchor="middle" x="955" y="-372.4" font-family="Times,serif" font-size="14.00">E&#45;4</text>
</g>
<!-- B3&#45;&#45;E&#45;4 -->
<g id="edge188" class="edge"><title>B3&#45;&#45;E&#45;4</title>
<path fill="none" stroke="black" d="M976.36,-451.66C972.39,-445.78 968.26,-438.83 965.5,-432 962.24,-423.93 959.97,-414.74 958.39,-406.31"/>
<polygon fill="black" stroke="black" points="961.802,-405.487 956.74,-396.18 954.893,-406.613 961.802,-405.487"/>
<text text-anchor="middle" x="985.25" y="-417.4" font-family="Times,serif" font-size="14.00">0.0036</text>
</g>
<!-- C#4 -->
<g id="node84" class="node"><title>C#4</title>
<ellipse fill="none" stroke="black" cx="1118" cy="-288" rx="27.2698" ry="18"/>
<text text-anchor="middle" x="1118" y="-282.4" font-family="Times,serif" font-size="14.00">C#4</text>
</g>
<!-- B3&#45;&#45;C#4 -->
<g id="edge194" class="edge"><title>B3&#45;&#45;C#4</title>
<path fill="none" stroke="black" d="M995.67,-450.7C998.37,-444.83 1001.4,-438.15 1004,-432 1017.5,-400.34 1013.1,-388.44 1032.5,-360 1047.5,-337.97 1071.2,-319.05 1089.9,-306.29"/>
<polygon fill="black" stroke="black" points="1091.91,-309.154 1098.3,-300.7 1088.04,-303.326 1091.91,-309.154"/>
<text text-anchor="middle" x="1052.2" y="-372.4" font-family="Times,serif" font-size="14.00">0.0036</text>
</g>
<!-- F4&#45;&#45;A4 -->
<g id="edge64" class="edge"><title>F4&#45;&#45;A4</title>
<path fill="none" stroke="black" d="M747.19,-816.26C735.92,-809.96 722.07,-801.39 711,-792 670.64,-757.75 664.75,-744.35 633,-702 604.46,-663.92 593.26,-655.94 575,-612 524.71,-491.01 581.32,-435.19 512,-324 428.76,-190.48 231.96,-134.16 150.88,-116.07"/>
<polygon fill="black" stroke="black" points="151.184,-112.555 140.67,-113.86 149.703,-119.396 151.184,-112.555"/>
<text text-anchor="middle" x="570.25" y="-462.4" font-family="Times,serif" font-size="14.00">0.0036</text>
</g>
<!-- F4&#45;&#45;G#4 -->
<g id="edge72" class="edge"><title>F4&#45;&#45;G#4</title>
<path fill="none" stroke="black" d="M765.85,-846.03C762.46,-868.11 754.38,-907.18 737,-936 719.14,-965.61 705.44,-965.54 681,-990 657.45,-1013.6 648.29,-1016.8 629,-1044 577.11,-1117.1 583.17,-1146.6 538,-1224 533.16,-1232.3 528.79,-1232.8 526,-1242 511.99,-1288.3 511.91,-1310 539,-1350 582.52,-1414.3 670.99,-1449.9 720.13,-1465.4"/>
<polygon fill="black" stroke="black" points="719.404,-1468.84 729.99,-1468.4 721.442,-1462.14 719.404,-1468.84"/>
<text text-anchor="middle" x="593.25" y="-1155.4" font-family="Times,serif" font-size="14.00">0.0286</text>
</g>
<!-- F4&#45;&#45;G#2 -->
<g id="edge70" class="edge"><title>F4&#45;&#45;G#2</title>
<path fill="none" stroke="black" d="M788.86,-839.6C830.79,-861.9 925.89,-917.64 980,-990 1163.5,-1235.4 920.42,-1404.4 1066,-1674 1093.5,-1724.9 1116.9,-1725.4 1160,-1764 1178.6,-1780.6 1180.4,-1789.4 1203,-1800 1436,-1908.9 1753.8,-1923.3 1861.5,-1924.9"/>
<polygon fill="black" stroke="black" points="1861.57,-1928.4 1871.6,-1925 1861.64,-1921.4 1861.57,-1928.4"/>
<text text-anchor="middle" x="1048.2" y="-1380.4" font-family="Times,serif" font-size="14.00">0.0036</text>
</g>
<!-- F4&#45;&#45;F4 -->
<g id="edge74" class="edge"><title>F4&#45;&#45;F4</title>
<path fill="none" stroke="black" d="M792.53,-836.12C803.51,-836.89 813,-834.19 813,-828 813,-823.84 808.72,-821.26 802.57,-820.24"/>
<polygon fill="black" stroke="black" points="802.649,-816.741 792.53,-819.88 802.398,-823.736 802.649,-816.741"/>
<text text-anchor="middle" x="832.25" y="-822.4" font-family="Times,serif" font-size="14.00">0.0036</text>
</g>
<!-- E&#45;2 -->
<g id="node56" class="node"><title>E&#45;2</title>
<ellipse fill="none" stroke="black" cx="1413" cy="-738" rx="27" ry="18"/>
<text text-anchor="middle" x="1413" y="-732.4" font-family="Times,serif" font-size="14.00">E&#45;2</text>
</g>
<!-- F4&#45;&#45;E&#45;2 -->
<g id="edge66" class="edge"><title>F4&#45;&#45;E&#45;2</title>
<path fill="none" stroke="black" d="M793.96,-822.78C816.03,-819.23 848.57,-814.1 877,-810 1064.7,-782.93 1290.1,-754.36 1376.7,-743.52"/>
<polygon fill="black" stroke="black" points="1377.31,-746.971 1386.8,-742.26 1376.44,-740.025 1377.31,-746.971"/>
<text text-anchor="middle" x="1146.2" y="-777.4" font-family="Times,serif" font-size="14.00">0.0036</text>
</g>
<!-- F4&#45;&#45;C#2 -->
<g id="edge68" class="edge"><title>F4&#45;&#45;C#2</title>
<path fill="none" stroke="black" d="M741.29,-831.16C645.51,-839.65 325,-874.57 325,-962 325,-1927 325,-1927 325,-1927 325,-1975.7 1097.4,-2007.1 1277,-2013.7"/>
<polygon fill="black" stroke="black" points="1276.87,-2017.2 1287,-2014.1 1277.15,-2010.2 1276.87,-2017.2"/>
<text text-anchor="middle" x="344.25" y="-1425.4" font-family="Times,serif" font-size="14.00">0.0036</text>
</g>
<!-- B&#45;4&#45;&#45;C#5 -->
<g id="edge174" class="edge"><title>B&#45;4&#45;&#45;C#5</title>
<path fill="none" stroke="black" d="M551.44,-929.15C540.38,-935.18 527.32,-943.66 518,-954 506.02,-967.28 507.02,-973.54 500,-990 457.38,-1090 421.67,-1214.6 407.07,-1268.3"/>
<polygon fill="black" stroke="black" points="403.652,-1267.53 404.43,-1278.1 410.411,-1269.35 403.652,-1267.53"/>
<text text-anchor="middle" x="478.25" y="-1110.4" font-family="Times,serif" font-size="14.00">0.0107</text>
</g>
<!-- B&#45;4&#45;&#45;F#4 -->
<g id="edge182" class="edge"><title>B&#45;4&#45;&#45;F#4</title>
<path fill="none" stroke="black" d="M550.12,-927.69C498.53,-948.52 372.84,-1006.5 311,-1098 304.71,-1107.3 249,-1310.3 249,-1340 249,-1477 249,-1477 249,-1477 249,-1498 243.51,-1521.2 238.28,-1538.5"/>
<polygon fill="black" stroke="black" points="234.826,-1537.81 235.11,-1548.4 241.493,-1539.94 234.826,-1537.81"/>
<text text-anchor="middle" x="289.25" y="-1245.4" font-family="Times,serif" font-size="14.00">0.0179</text>
</g>
<!-- B&#45;4&#45;&#45;F4 -->
<g id="edge184" class="edge"><title>B&#45;4&#45;&#45;F4</title>
<path fill="none" stroke="black" d="M590.22,-903.97C606.39,-892.23 631.59,-875.15 655.5,-864 680.42,-852.38 710.18,-843.31 732.84,-837.32"/>
<polygon fill="black" stroke="black" points="733.884,-840.666 742.7,-834.79 732.144,-833.885 733.884,-840.666"/>
<text text-anchor="middle" x="675.25" y="-867.4" font-family="Times,serif" font-size="14.00">0.0036</text>
</g>
<!-- B&#45;4&#45;&#45;B&#45;4 -->
<g id="edge180" class="edge"><title>B&#45;4&#45;&#45;B&#45;4</title>
<path fill="none" stroke="black" d="M597.53,-926.12C608.51,-926.89 618,-924.19 618,-918 618,-913.84 613.72,-911.26 607.57,-910.24"/>
<polygon fill="black" stroke="black" points="607.649,-906.741 597.53,-909.88 607.398,-913.736 607.649,-906.741"/>
<text text-anchor="middle" x="637.25" y="-912.4" font-family="Times,serif" font-size="14.00">0.0071</text>
</g>
<!-- B&#45;4&#45;&#45;E&#45;4 -->
<g id="edge176" class="edge"><title>B&#45;4&#45;&#45;E&#45;4</title>
<path fill="none" stroke="black" d="M580.45,-900.38C582.95,-894.6 585.69,-888.05 588,-882 645.54,-731.06 617.95,-672.04 711,-540 758.47,-472.65 775.92,-455.68 847,-414 869.46,-400.83 897.49,-391.93 919.37,-386.41"/>
<polygon fill="black" stroke="black" points="920.348,-389.775 929.25,-384.03 918.708,-382.969 920.348,-389.775"/>
<text text-anchor="middle" x="679.25" y="-642.4" font-family="Times,serif" font-size="14.00">0.0036</text>
</g>
<!-- B&#45;4&#45;&#45;C#4 -->
<g id="edge178" class="edge"><title>B&#45;4&#45;&#45;C#4</title>
<path fill="none" stroke="black" d="M573.31,-899.8C573.6,-882.06 574,-853.6 574,-829 574,-829 574,-829 574,-692 574,-628.8 590.73,-460.06 634,-414 696.13,-347.87 979.67,-306.38 1081.5,-293.39"/>
<polygon fill="black" stroke="black" points="1082.11,-296.84 1091.6,-292.12 1081.24,-289.895 1082.11,-296.84"/>
<text text-anchor="middle" x="600.25" y="-597.4" font-family="Times,serif" font-size="14.00">0.0036</text>
</g>
<!-- B4&#45;&#45;C#5 -->
<g id="edge196" class="edge"><title>B4&#45;&#45;C#5</title>
<path fill="none" stroke="black" d="M676.62,-1377.9C623.19,-1362.3 495.66,-1325 434.23,-1307"/>
<polygon fill="black" stroke="black" points="435.18,-1303.63 424.6,-1304.2 433.225,-1310.35 435.18,-1303.63"/>
<text text-anchor="middle" x="597.25" y="-1335.4" font-family="Times,serif" font-size="14.00">0.0036</text>
</g>
<!-- B4&#45;&#45;E5 -->
<g id="edge198" class="edge"><title>B4&#45;&#45;E5</title>
<path fill="none" stroke="black" d="M709,-1368.8C720.5,-1346.6 743.32,-1306.3 770.5,-1278 780.12,-1268 787,-1270.6 796,-1260 802.64,-1252.2 808.06,-1242.4 812.2,-1233.4"/>
<polygon fill="black" stroke="black" points="815.504,-1234.57 816.18,-1224 809.058,-1231.84 815.504,-1234.57"/>
<text text-anchor="middle" x="790.25" y="-1290.4" font-family="Times,serif" font-size="14.00">0.0036</text>
</g>
<!-- B4&#45;&#45;F#5 -->
<g id="edge200" class="edge"><title>B4&#45;&#45;F#5</title>
<path fill="none" stroke="black" d="M695.2,-1368.3C687.3,-1344.6 673.56,-1299.6 668.5,-1260 667.49,-1252.1 667.73,-1250 668.5,-1242 671.83,-1207.7 680.18,-1168.9 686.2,-1143.7"/>
<polygon fill="black" stroke="black" points="689.645,-1144.35 688.62,-1133.8 682.845,-1142.68 689.645,-1144.35"/>
<text text-anchor="middle" x="688.25" y="-1245.4" font-family="Times,serif" font-size="14.00">0.0036</text>
</g>
<!-- C5&#45;&#45;E&#45;5 -->
<g id="edge218" class="edge"><title>C5&#45;&#45;E&#45;5</title>
<path fill="none" stroke="black" d="M852.91,-1288.9C837.22,-1285.3 816.53,-1280.8 798,-1278 777.09,-1274.8 622.95,-1275.4 608.5,-1260 602.1,-1253.2 600.55,-1243.4 601.01,-1234.1"/>
<polygon fill="black" stroke="black" points="604.506,-1234.35 602.22,-1224 597.555,-1233.51 604.506,-1234.35"/>
<text text-anchor="middle" x="628.25" y="-1245.4" font-family="Times,serif" font-size="14.00">0.0036</text>
</g>
<!-- C5&#45;&#45;E5 -->
<g id="edge220" class="edge"><title>C5&#45;&#45;E5</title>
<path fill="none" stroke="black" d="M868.72,-1279.1C862.45,-1268.5 853.91,-1254.3 846,-1242 843.67,-1238.4 841.15,-1234.6 838.65,-1230.9"/>
<polygon fill="black" stroke="black" points="841.496,-1228.86 832.95,-1222.6 835.726,-1232.82 841.496,-1228.86"/>
<text text-anchor="middle" x="876.25" y="-1245.4" font-family="Times,serif" font-size="14.00">0.0036</text>
</g>
<!-- C5&#45;&#45;F5 -->
<g id="edge222" class="edge"><title>C5&#45;&#45;F5</title>
<path fill="none" stroke="black" d="M890.19,-1279.7C901.03,-1266 917.04,-1245.9 929.47,-1230.3"/>
<polygon fill="black" stroke="black" points="932.436,-1232.2 935.95,-1222.2 926.97,-1227.82 932.436,-1232.2"/>
<text text-anchor="middle" x="939.25" y="-1245.4" font-family="Times,serif" font-size="14.00">0.0107</text>
</g>
<!-- E&#45;2&#45;&#45;G#2 -->
<g id="edge76" class="edge"><title>E&#45;2&#45;&#45;G#2</title>
<path fill="none" stroke="black" d="M1438.9,-743.82C1497.9,-755.78 1644.6,-791.24 1744,-864 1826.2,-924.19 1846,-950.26 1886,-1044 1922,-1128.4 1899,-1158.3 1899,-1250 1899,-1837 1899,-1837 1899,-1837 1899,-1857.4 1899,-1880.4 1899,-1897.8"/>
<polygon fill="black" stroke="black" points="1895.5,-1897.8 1899,-1907.8 1902.5,-1897.8 1895.5,-1897.8"/>
<text text-anchor="middle" x="1918.2" y="-1335.4" font-family="Times,serif" font-size="14.00">0.0107</text>
</g>
<!-- B&#45;2 -->
<g id="node64" class="node"><title>B&#45;2</title>
<ellipse fill="none" stroke="black" cx="1366" cy="-648" rx="27" ry="18"/>
<text text-anchor="middle" x="1366" y="-642.4" font-family="Times,serif" font-size="14.00">B&#45;2</text>
</g>
<!-- E&#45;2&#45;&#45;B&#45;2 -->
<g id="edge78" class="edge"><title>E&#45;2&#45;&#45;B&#45;2</title>
<path fill="none" stroke="black" d="M1395.5,-724.1C1388.5,-718.12 1381.1,-710.47 1376.5,-702 1372.2,-694.16 1369.7,-684.82 1368.1,-676.17"/>
<polygon fill="black" stroke="black" points="1371.56,-675.598 1366.8,-666.13 1364.61,-676.497 1371.56,-675.598"/>
<text text-anchor="middle" x="1396.2" y="-687.4" font-family="Times,serif" font-size="14.00">0.0071</text>
</g>
<!-- E&#45;3 -->
<g id="node66" class="node"><title>E&#45;3</title>
<ellipse fill="none" stroke="black" cx="1496" cy="-558" rx="27" ry="18"/>
<text text-anchor="middle" x="1496" y="-552.4" font-family="Times,serif" font-size="14.00">E&#45;3</text>
</g>
<!-- E&#45;2&#45;&#45;E&#45;3 -->
<g id="edge80" class="edge"><title>E&#45;2&#45;&#45;E&#45;3</title>
<path fill="none" stroke="black" d="M1415.9,-720.01C1420,-698.31 1428.7,-659.99 1443.5,-630 1452.1,-612.46 1465.2,-594.77 1476.1,-581.44"/>
<polygon fill="black" stroke="black" points="1478.82,-583.639 1482.6,-573.74 1473.47,-579.124 1478.82,-583.639"/>
<text text-anchor="middle" x="1463.2" y="-642.4" font-family="Times,serif" font-size="14.00">0.0036</text>
</g>
<!-- C#2&#45;&#45;F#2 -->
<g id="edge82" class="edge"><title>C#2&#45;&#45;F#2</title>
<path fill="none" stroke="black" d="M1341.3,-2015.3C1491.7,-2016.3 2211,-2016.7 2211,-1927 2211,-1927 2211,-1927 2211,-197 2211,-156.49 2165.2,-131.9 2132,-119.38"/>
<polygon fill="black" stroke="black" points="2133.09,-116.055 2122.5,-116.01 2130.75,-122.652 2133.09,-116.055"/>
<text text-anchor="middle" x="2230.2" y="-1056.4" font-family="Times,serif" font-size="14.00">0.0036</text>
</g>
<!-- C#2&#45;&#45;G#2 -->
<g id="edge84" class="edge"><title>C#2&#45;&#45;G#2</title>
<path fill="none" stroke="black" d="M1340.3,-2011C1434.2,-1996.9 1753.5,-1948.9 1862.3,-1932.5"/>
<polygon fill="black" stroke="black" points="1863.12,-1935.92 1872.5,-1931 1862.1,-1928.99 1863.12,-1935.92"/>
<text text-anchor="middle" x="1678.2" y="-1965.4" font-family="Times,serif" font-size="14.00">0.0179</text>
</g>
<!-- B&#45;2&#45;&#45;E&#45;3 -->
<g id="edge90" class="edge"><title>B&#45;2&#45;&#45;E&#45;3</title>
<path fill="none" stroke="black" d="M1365.1,-629.69C1365.4,-618.21 1367.8,-603.55 1376.5,-594 1397.4,-571.18 1432.2,-562.94 1458.9,-560.1"/>
<polygon fill="black" stroke="black" points="1459.43,-563.568 1469.1,-559.24 1458.84,-556.593 1459.43,-563.568"/>
<text text-anchor="middle" x="1396.2" y="-597.4" font-family="Times,serif" font-size="14.00">0.0071</text>
</g>
<!-- B&#45;2&#45;&#45;E&#45;4 -->
<g id="edge88" class="edge"><title>B&#45;2&#45;&#45;E&#45;4</title>
<path fill="none" stroke="black" d="M1357.6,-630.67C1345.5,-607.03 1322.9,-561.75 1306.5,-522 1293.5,-490.63 1301.1,-477.35 1281,-450 1277.1,-444.63 1239.2,-416.36 1233,-414 1140.9,-379.06 1108.9,-414.18 1012,-396 1004.2,-394.53 995.88,-392.4 988.12,-390.14"/>
<polygon fill="black" stroke="black" points="988.886,-386.715 978.3,-387.15 986.847,-393.411 988.886,-386.715"/>
<text text-anchor="middle" x="1326.2" y="-507.4" font-family="Times,serif" font-size="14.00">0.0071</text>
</g>
<!-- E&#45;3&#45;&#45;G#4 -->
<g id="edge100" class="edge"><title>E&#45;3&#45;&#45;G#4</title>
<path fill="none" stroke="black" d="M1494.9,-576.27C1493.3,-597.6 1489.6,-634.89 1482,-666 1471.8,-707.38 1468.7,-718.24 1449,-756 1412.8,-825.28 1380.8,-829.06 1348,-900 1317.1,-966.72 1310,-987.48 1310,-1061 1310,-1387 1310,-1387 1310,-1387 1310,-1474.9 1008.4,-1449.3 921,-1458 876.65,-1462.4 825.65,-1467.6 792.01,-1471.1"/>
<polygon fill="black" stroke="black" points="791.301,-1467.66 781.73,-1472.2 792.046,-1474.62 791.301,-1467.66"/>
<text text-anchor="middle" x="1334.2" y="-1002.4" font-family="Times,serif" font-size="14.00">0.0036</text>
</g>
<!-- E&#45;3&#45;&#45;G#3 -->
<g id="edge94" class="edge"><title>E&#45;3&#45;&#45;G#3</title>
<path fill="none" stroke="black" d="M1502.4,-575.84C1504.3,-581.52 1506.1,-587.96 1507,-594 1508.2,-601.91 1507,-604 1507,-612 1506.1,-796.01 1506.6,-842.03 1503,-1026 1501.8,-1085.6 1499,-1100.4 1499,-1160 1499,-1657 1499,-1657 1499,-1657 1499,-1679.9 1488,-1703.6 1477.9,-1720.6"/>
<polygon fill="black" stroke="black" points="1474.79,-1718.98 1472.4,-1729.3 1480.7,-1722.72 1474.79,-1718.98"/>
<text text-anchor="middle" x="1518.2" y="-1155.4" font-family="Times,serif" font-size="14.00">0.0286</text>
</g>
<!-- E&#45;3&#45;&#45;G#2 -->
<g id="edge98" class="edge"><title>E&#45;3&#45;&#45;G#2</title>
<path fill="none" stroke="black" d="M1515.8,-570.26C1566.4,-599.54 1702.7,-682.17 1797,-774 1832.9,-808.97 1843.7,-818.6 1865,-864 1899.9,-938.39 1888.8,-963.9 1907,-1044 1912.5,-1068 1914.9,-1073.8 1919,-1098 1924.4,-1129.7 1953,-1352.9 1953,-1385 1953,-1837 1953,-1837 1953,-1837 1953,-1862.6 1936.2,-1887 1921.4,-1903.6"/>
<polygon fill="black" stroke="black" points="1918.63,-1901.43 1914.3,-1911.1 1923.72,-1906.24 1918.63,-1901.43"/>
<text text-anchor="middle" x="1959.2" y="-1245.4" font-family="Times,serif" font-size="14.00">0.0071</text>
</g>
<!-- G3 -->
<g id="node75" class="node"><title>G3</title>
<ellipse fill="none" stroke="black" cx="1525" cy="-468" rx="27" ry="18"/>
<text text-anchor="middle" x="1525" y="-462.4" font-family="Times,serif" font-size="14.00">G3</text>
</g>
<!-- E&#45;3&#45;&#45;G3 -->
<g id="edge92" class="edge"><title>E&#45;3&#45;&#45;G3</title>
<path fill="none" stroke="black" d="M1486.8,-540.67C1481.9,-529.89 1478.1,-515.66 1483.5,-504 1486.5,-497.45 1491.5,-491.69 1496.9,-486.83"/>
<polygon fill="black" stroke="black" points="1499.36,-489.342 1505,-480.37 1495,-483.869 1499.36,-489.342"/>
<text text-anchor="middle" x="1503.2" y="-507.4" font-family="Times,serif" font-size="14.00">0.0071</text>
</g>
<!-- F#3 -->
<g id="node78" class="node"><title>F#3</title>
<ellipse fill="none" stroke="black" cx="1736" cy="-468" rx="27" ry="18"/>
<text text-anchor="middle" x="1736" y="-462.4" font-family="Times,serif" font-size="14.00">F#3</text>
</g>
<!-- E&#45;3&#45;&#45;F#3 -->
<g id="edge96" class="edge"><title>E&#45;3&#45;&#45;F#3</title>
<path fill="none" stroke="black" d="M1515.2,-544.97C1534.7,-533.13 1566.3,-515.23 1595.5,-504 1630,-490.75 1671.2,-481.18 1700,-475.43"/>
<polygon fill="black" stroke="black" points="1700.85,-478.829 1710,-473.48 1699.51,-471.959 1700.85,-478.829"/>
<text text-anchor="middle" x="1615.2" y="-507.4" font-family="Times,serif" font-size="14.00">0.0036</text>
</g>
<!-- E3&#45;&#45;G#3 -->
<g id="edge172" class="edge"><title>E3&#45;&#45;G#3</title>
<path fill="none" stroke="black" d="M2023.9,-1831.1C1929.8,-1817 1607.1,-1768.8 1497.6,-1752.5"/>
<polygon fill="black" stroke="black" points="1497.82,-1748.99 1487.4,-1750.9 1496.74,-1755.91 1497.82,-1748.99"/>
<text text-anchor="middle" x="1828.2" y="-1785.4" font-family="Times,serif" font-size="14.00">0.0036</text>
</g>
<!-- E&#45;4&#45;&#45;F#4 -->
<g id="edge108" class="edge"><title>E&#45;4&#45;&#45;F#4</title>
<path fill="none" stroke="black" d="M929.19,-383.39C900.46,-388.74 852.94,-398.96 814,-414 703.82,-456.56 675.71,-470.78 580,-540 532.87,-574.08 521.33,-584.58 485,-630 444.29,-680.89 445.27,-701.2 410,-756 352.01,-846.09 314.81,-855.57 272.5,-954 219.44,-1077.4 211,-1115.6 211,-1250 211,-1477 211,-1477 211,-1477 211,-1497.9 215.94,-1521.1 220.65,-1538.4"/>
<polygon fill="black" stroke="black" points="217.37,-1539.66 223.5,-1548.3 224.097,-1537.72 217.37,-1539.66"/>
<text text-anchor="middle" x="292.25" y="-957.4" font-family="Times,serif" font-size="14.00">0.0214</text>
</g>
<!-- E&#45;4&#45;&#45;G#4 -->
<g id="edge110" class="edge"><title>E&#45;4&#45;&#45;G#4</title>
<path fill="none" stroke="black" d="M937.24,-391.91C928.96,-398.23 919.16,-406.15 911,-414 895.78,-428.64 887.35,-430.21 880,-450 874.43,-465 878.44,-470.08 880,-486 912.39,-815.65 1076.3,-905.88 984,-1224 958.96,-1310.3 954.67,-1339.6 892,-1404 863.21,-1433.6 819.44,-1453.3 789.16,-1464.3"/>
<polygon fill="black" stroke="black" points="787.731,-1461.09 779.45,-1467.7 790.045,-1467.7 787.731,-1461.09"/>
<text text-anchor="middle" x="1019.2" y="-912.4" font-family="Times,serif" font-size="14.00">0.0036</text>
</g>
<!-- E&#45;4&#45;&#45;G#3 -->
<g id="edge102" class="edge"><title>E&#45;4&#45;&#45;G#3</title>
<path fill="none" stroke="black" d="M978.31,-387.09C988.53,-390.34 1000.7,-393.83 1012,-396 1097.9,-412.58 1129.1,-376.3 1208,-414 1228.1,-423.62 1232.1,-430.5 1243,-450 1291.1,-536.45 1270.4,-570.68 1297,-666 1332.8,-794.56 1353.4,-823.65 1382,-954 1384.5,-965.4 1423,-1148.3 1423,-1160 1423,-1657 1423,-1657 1423,-1657 1423,-1679.9 1434,-1703.6 1444.1,-1720.6"/>
<polygon fill="black" stroke="black" points="1441.3,-1722.72 1449.6,-1729.3 1447.21,-1718.98 1441.3,-1722.72"/>
<text text-anchor="middle" x="1427.2" y="-1056.4" font-family="Times,serif" font-size="14.00">0.0036</text>
</g>
<!-- E&#45;4&#45;&#45;G#2 -->
<g id="edge104" class="edge"><title>E&#45;4&#45;&#45;G#2</title>
<path fill="none" stroke="black" d="M927.95,-380.67C876.36,-384.2 760.52,-393.83 665,-414 522.8,-444.03 472.01,-472.67 392,-594 349.9,-657.84 369,-688 334,-756 298.34,-825.28 266.26,-829.07 234,-900 162.25,-1057.7 62.129,-1518.7 139,-1674 222.96,-1843.6 318.77,-1862.3 506,-1890 778.31,-1930.2 1667.3,-1926.6 1861.4,-1925.3"/>
<polygon fill="black" stroke="black" points="1861.63,-1928.8 1871.6,-1925.2 1861.57,-1921.8 1861.63,-1928.8"/>
<text text-anchor="middle" x="176.25" y="-1155.4" font-family="Times,serif" font-size="14.00">0.0036</text>
</g>
<!-- E&#45;4&#45;&#45;C#4 -->
<g id="edge106" class="edge"><title>E&#45;4&#45;&#45;C#4</title>
<path fill="none" stroke="black" d="M953.88,-359.77C954.1,-348.18 956.42,-333.36 965.5,-324 981.3,-307.72 1041.4,-297.78 1081.3,-292.84"/>
<polygon fill="black" stroke="black" points="1081.98,-296.285 1091.5,-291.64 1081.16,-289.332 1081.98,-296.285"/>
<text text-anchor="middle" x="985.25" y="-327.4" font-family="Times,serif" font-size="14.00">0.0036</text>
</g>
<!-- F#3&#45;&#45;A3 -->
<g id="edge116" class="edge"><title>F#3&#45;&#45;A3</title>
<path fill="none" stroke="black" d="M1742.8,-450.31C1745.1,-444.53 1747.7,-438 1750,-432 1778.4,-357.39 1809.8,-268.48 1824.9,-225.23"/>
<polygon fill="black" stroke="black" points="1828.22,-226.335 1828.2,-215.74 1821.61,-224.036 1828.22,-226.335"/>
<text text-anchor="middle" x="1809.2" y="-327.4" font-family="Times,serif" font-size="14.00">0.0036</text>
</g>
<!-- F#3&#45;&#45;G#3 -->
<g id="edge120" class="edge"><title>F#3&#45;&#45;G#3</title>
<path fill="none" stroke="black" d="M1724.4,-484.39C1696.5,-522.14 1626.2,-623.31 1596,-720 1582.3,-763.94 1553,-1061.9 1553,-1205 1553,-1657 1553,-1657 1553,-1657 1553,-1691.4 1519,-1716.5 1492.3,-1730.9"/>
<polygon fill="black" stroke="black" points="1490.61,-1727.83 1483.3,-1735.5 1493.8,-1734.07 1490.61,-1727.83"/>
<text text-anchor="middle" x="1576.2" y="-1110.4" font-family="Times,serif" font-size="14.00">0.0071</text>
</g>
<!-- F#3&#45;&#45;C3 -->
<g id="edge130" class="edge"><title>F#3&#45;&#45;C3</title>
<path fill="none" stroke="black" d="M1736,-449.8C1736,-432.06 1736,-403.6 1736,-379 1736,-379 1736,-379 1736,-197 1736,-137.98 1288.5,-115.68 1155.1,-110.35"/>
<polygon fill="black" stroke="black" points="1155.13,-106.849 1145,-109.95 1154.85,-113.843 1155.13,-106.849"/>
<text text-anchor="middle" x="1755.2" y="-282.4" font-family="Times,serif" font-size="14.00">0.0036</text>
</g>
<!-- F#3&#45;&#45;G#2 -->
<g id="edge124" class="edge"><title>F#3&#45;&#45;G#2</title>
<path fill="none" stroke="black" d="M1756.3,-480.18C1765.7,-486.22 1776.5,-494.41 1784,-504 1821.2,-551.63 1813.8,-573.42 1835,-630 1941.5,-914.51 1993,-991.22 1993,-1295 1993,-1837 1993,-1837 1993,-1837 1993,-1871.8 1958.3,-1896.8 1931,-1911.1"/>
<polygon fill="black" stroke="black" points="1929.18,-1908.1 1921.8,-1915.7 1932.31,-1914.36 1929.18,-1908.1"/>
<text text-anchor="middle" x="2010.2" y="-1200.4" font-family="Times,serif" font-size="14.00">0.0036</text>
</g>
<!-- F#3&#45;&#45;E3 -->
<g id="edge128" class="edge"><title>F#3&#45;&#45;E3</title>
<path fill="none" stroke="black" d="M1763,-470.82C1789.6,-473.88 1830.4,-482.06 1858,-504 1908.2,-543.86 1907,-569.47 1928,-630 1986.4,-798.45 1945.2,-853.97 1992,-1026 1994.3,-1034.3 1996.4,-1035.8 1999,-1044 2013.5,-1089 2052,-1202.7 2052,-1250 2052,-1747 2052,-1747 2052,-1747 2052,-1767.4 2051.5,-1790.4 2050.9,-1807.8"/>
<polygon fill="black" stroke="black" points="2047.4,-1807.7 2050.6,-1817.8 2054.4,-1807.91 2047.4,-1807.7"/>
<text text-anchor="middle" x="2056.2" y="-1155.4" font-family="Times,serif" font-size="14.00">0.0036</text>
</g>
<!-- F#3&#45;&#45;E&#45;4 -->
<g id="edge118" class="edge"><title>F#3&#45;&#45;E&#45;4</title>
<path fill="none" stroke="black" d="M1709.8,-463.67C1638,-454.65 1432.5,-429.38 1261,-414 1143.4,-403.45 1110.9,-422.96 996,-396 992.6,-395.2 989.11,-394.15 985.68,-392.97"/>
<polygon fill="black" stroke="black" points="986.86,-389.674 976.27,-389.35 984.347,-396.207 986.86,-389.674"/>
<text text-anchor="middle" x="1451.2" y="-417.4" font-family="Times,serif" font-size="14.00">0.0036</text>
</g>
<!-- F#3&#45;&#45;F#3 -->
<g id="edge122" class="edge"><title>F#3&#45;&#45;F#3</title>
<path fill="none" stroke="black" d="M1760.5,-476.12C1771.5,-476.89 1781,-474.19 1781,-468 1781,-463.84 1776.7,-461.26 1770.6,-460.24"/>
<polygon fill="black" stroke="black" points="1770.62,-456.739 1760.5,-459.88 1770.37,-463.734 1770.62,-456.739"/>
<text text-anchor="middle" x="1800.2" y="-462.4" font-family="Times,serif" font-size="14.00">0.0036</text>
</g>
<!-- F#3&#45;&#45;C#4 -->
<g id="edge126" class="edge"><title>F#3&#45;&#45;C#4</title>
<path fill="none" stroke="black" d="M1724.2,-451.69C1713.4,-437.45 1697,-415.54 1683.5,-396 1661.8,-364.67 1669.8,-343.33 1637,-324 1595.8,-299.72 1267.2,-291.65 1155.2,-289.6"/>
<polygon fill="black" stroke="black" points="1155.16,-286.099 1145.1,-289.42 1155.04,-293.098 1155.16,-286.099"/>
<text text-anchor="middle" x="1703.2" y="-372.4" font-family="Times,serif" font-size="14.00">0.0036</text>
</g>
<!-- C#4&#45;&#45;A3 -->
<g id="edge132" class="edge"><title>C#4&#45;&#45;A3</title>
<path fill="none" stroke="black" d="M1144.3,-283.76C1253.5,-270.34 1671,-219.04 1797.5,-203.49"/>
<polygon fill="black" stroke="black" points="1797.9,-206.967 1807.4,-202.27 1797.05,-200.019 1797.9,-206.967"/>
<text text-anchor="middle" x="1560.2" y="-237.4" font-family="Times,serif" font-size="14.00">0.0036</text>
</g>
<!-- C#4&#45;&#45;F#4 -->
<g id="edge140" class="edge"><title>C#4&#45;&#45;F#4</title>
<path fill="none" stroke="black" d="M1090.8,-289.59C998.52,-291.8 697.62,-300.64 604,-324 509.03,-347.69 479.25,-352.63 403,-414 325.51,-476.37 317.65,-506.69 270,-594 245.4,-639.07 254.02,-657.17 229,-702 199.5,-754.86 178.91,-759.19 146,-810 121.3,-848.14 108.79,-855.99 97.5,-900 90.651,-926.69 97,-934.44 97,-962 97,-1252 97,-1252 97,-1252 97,-1308.5 127.34,-1315.8 149,-1368 178.56,-1439.2 179.55,-1459.6 211,-1530 212.44,-1533.2 214.03,-1536.6 215.65,-1539.8"/>
<polygon fill="black" stroke="black" points="212.565,-1541.45 220.2,-1548.8 218.812,-1538.3 212.565,-1541.45"/>
<text text-anchor="middle" x="117.25" y="-912.4" font-family="Times,serif" font-size="14.00">0.0036</text>
</g>
<!-- C#4&#45;&#45;E4 -->
<g id="edge136" class="edge"><title>C#4&#45;&#45;E4</title>
<path fill="none" stroke="black" d="M1091.1,-284.41C959.89,-271.83 388.48,-216.99 237.63,-202.52"/>
<polygon fill="black" stroke="black" points="237.801,-199.02 227.51,-201.54 237.126,-205.988 237.801,-199.02"/>
<text text-anchor="middle" x="761.25" y="-237.4" font-family="Times,serif" font-size="14.00">0.0036</text>
</g>
<!-- C#4&#45;&#45;G#4 -->
<g id="edge142" class="edge"><title>C#4&#45;&#45;G#4</title>
<path fill="none" stroke="black" d="M1128.2,-304.83C1138.2,-321.93 1152,-350.3 1152,-377 1152,-514 1152,-514 1152,-514 1152,-633.22 1102.2,-655.88 1086,-774 1081.2,-808.69 1093.2,-1376.9 1071,-1404 1035.9,-1446.8 867.71,-1465.8 792.04,-1472.2"/>
<polygon fill="black" stroke="black" points="791.648,-1468.72 782,-1473.1 792.273,-1475.69 791.648,-1468.72"/>
<text text-anchor="middle" x="1104.2" y="-867.4" font-family="Times,serif" font-size="14.00">0.0036</text>
</g>
<!-- C#4&#45;&#45;G#3 -->
<g id="edge134" class="edge"><title>C#4&#45;&#45;G#3</title>
<path fill="none" stroke="black" d="M1143.7,-294.22C1193.1,-305.82 1300.6,-338.86 1345,-414 1402.1,-510.59 1312.1,-555.24 1330,-666 1359.5,-848.59 1461,-876.04 1461,-1061 1461,-1657 1461,-1657 1461,-1657 1461,-1677.4 1461,-1700.4 1461,-1717.8"/>
<polygon fill="black" stroke="black" points="1457.5,-1717.8 1461,-1727.8 1464.5,-1717.8 1457.5,-1717.8"/>
<text text-anchor="middle" x="1479.2" y="-1002.4" font-family="Times,serif" font-size="14.00">0.0286</text>
</g>
<!-- C#4&#45;&#45;F4 -->
<g id="edge144" class="edge"><title>C#4&#45;&#45;F4</title>
<path fill="none" stroke="black" d="M1108.1,-304.87C1098.4,-322 1085,-350.4 1085,-377 1085,-514 1085,-514 1085,-514 1085,-672.91 880.81,-778.36 800.18,-813.8"/>
<polygon fill="black" stroke="black" points="798.335,-810.784 790.54,-817.96 801.108,-817.211 798.335,-810.784"/>
<text text-anchor="middle" x="1102.2" y="-552.4" font-family="Times,serif" font-size="14.00">0.0036</text>
</g>
<!-- C#4&#45;&#45;C4 -->
<g id="edge146" class="edge"><title>C#4&#45;&#45;C4</title>
<path fill="none" stroke="black" d="M1136.1,-301.48C1143.6,-307.48 1151.7,-315.27 1157,-324 1165.5,-338.13 1163.5,-343.69 1166,-360 1198.6,-575.53 1209,-1122 1209,-1340 1209,-1567 1209,-1567 1209,-1567 1209,-1597.3 1182.9,-1622.3 1161.3,-1637.8"/>
<polygon fill="black" stroke="black" points="1159.26,-1634.95 1153,-1643.5 1163.22,-1640.72 1159.26,-1634.95"/>
<text text-anchor="middle" x="1223.2" y="-957.4" font-family="Times,serif" font-size="14.00">0.0036</text>
</g>
<!-- F2 -->
<g id="node102" class="node"><title>F2</title>
<ellipse fill="none" stroke="black" cx="1118" cy="-198" rx="27" ry="18"/>
<text text-anchor="middle" x="1118" y="-192.4" font-family="Times,serif" font-size="14.00">F2</text>
</g>
<!-- C#4&#45;&#45;F2 -->
<g id="edge138" class="edge"><title>C#4&#45;&#45;F2</title>
<path fill="none" stroke="black" d="M1118,-269.61C1118,-257.24 1118,-240.37 1118,-226.22"/>
<polygon fill="black" stroke="black" points="1121.5,-226.05 1118,-216.05 1114.5,-226.05 1121.5,-226.05"/>
<text text-anchor="middle" x="1137.2" y="-237.4" font-family="Times,serif" font-size="14.00">0.0107</text>
</g>
<!-- C4&#45;&#45;F#4 -->
<g id="edge162" class="edge"><title>C4&#45;&#45;F#4</title>
<path fill="none" stroke="black" d="M1106.2,-1652.9C1006.7,-1645.2 650.09,-1616.9 357,-1584 326.06,-1580.5 291.03,-1575.8 265.44,-1572.2"/>
<polygon fill="black" stroke="black" points="265.829,-1568.72 255.44,-1570.8 264.858,-1575.65 265.829,-1568.72"/>
<text text-anchor="middle" x="717.25" y="-1605.4" font-family="Times,serif" font-size="14.00">0.0071</text>
</g>
<!-- C4&#45;&#45;G#4 -->
<g id="edge164" class="edge"><title>C4&#45;&#45;G#4</title>
<path fill="none" stroke="black" d="M1111.6,-1644.9C1048.1,-1615 860.43,-1526.6 785.96,-1491.6"/>
<polygon fill="black" stroke="black" points="787.177,-1488.3 776.64,-1487.2 784.189,-1494.63 787.177,-1488.3"/>
<text text-anchor="middle" x="1001.2" y="-1560.4" font-family="Times,serif" font-size="14.00">0.0036</text>
</g>
<!-- C4&#45;&#45;F4 -->
<g id="edge166" class="edge"><title>C4&#45;&#45;F4</title>
<path fill="none" stroke="black" d="M1133,-1637.8C1133,-1620.1 1133,-1591.6 1133,-1567 1133,-1567 1133,-1567 1133,-1430 1133,-1408.4 1098.9,-1064.1 1091,-1044 1066.6,-981.66 1030.8,-985.76 986,-936 960.27,-907.41 969.89,-885.49 938,-864 916.65,-849.61 848.03,-838.84 804.78,-833.26"/>
<polygon fill="black" stroke="black" points="804.997,-829.76 794.64,-831.99 804.127,-836.706 804.997,-829.76"/>
<text text-anchor="middle" x="1137.2" y="-1245.4" font-family="Times,serif" font-size="14.00">0.0107</text>
</g>
<!-- C4&#45;&#45;E&#45;4 -->
<g id="edge160" class="edge"><title>C4&#45;&#45;E&#45;4</title>
<path fill="none" stroke="black" d="M1144.4,-1639.3C1155.6,-1622.4 1171,-1594.1 1171,-1567 1171,-1567 1171,-1567 1171,-1295 1171,-1191.8 1159,-1166.2 1159,-1063 1159,-1063 1159,-1063 1159,-827 1159,-802.64 1152.4,-797.22 1145,-774 1116.5,-684.47 1103.9,-664.01 1071,-576 1050.1,-520.01 1046.6,-505.33 1024,-450 1017.4,-433.79 1019.3,-427.36 1008,-414 1001.6,-406.46 993.21,-399.91 984.98,-394.58"/>
<polygon fill="black" stroke="black" points="986.59,-391.463 976.22,-389.29 982.971,-397.456 986.59,-391.463"/>
<text text-anchor="middle" x="1178.2" y="-1002.4" font-family="Times,serif" font-size="14.00">0.0036</text>
</g>
<!-- F2&#45;&#45;C3 -->
<g id="edge168" class="edge"><title>F2&#45;&#45;C3</title>
<path fill="none" stroke="black" d="M1118,-179.61C1118,-167.24 1118,-150.37 1118,-136.22"/>
<polygon fill="black" stroke="black" points="1121.5,-136.05 1118,-126.05 1114.5,-136.05 1121.5,-136.05"/>
<text text-anchor="middle" x="1137.2" y="-147.4" font-family="Times,serif" font-size="14.00">0.0143</text>
</g>
<!-- B&#45;3 -->
<g id="node108" class="node"><title>B&#45;3</title>
<ellipse fill="none" stroke="black" cx="1549" cy="-1836" rx="27" ry="18"/>
<text text-anchor="middle" x="1549" y="-1830.4" font-family="Times,serif" font-size="14.00">B&#45;3</text>
</g>
<!-- B&#45;3&#45;&#45;G#3 -->
<g id="edge152" class="edge"><title>B&#45;3&#45;&#45;G#3</title>
<path fill="none" stroke="black" d="M1534.5,-1820.5C1520.5,-1806.5 1499.1,-1785.1 1483,-1769"/>
<polygon fill="black" stroke="black" points="1485.15,-1766.2 1475.6,-1761.6 1480.2,-1771.15 1485.15,-1766.2"/>
<text text-anchor="middle" x="1532.2" y="-1785.4" font-family="Times,serif" font-size="14.00">0.0036</text>
</g>
<!-- B&#45;3&#45;&#45;E&#45;4 -->
<g id="edge148" class="edge"><title>B&#45;3&#45;&#45;E&#45;4</title>
<path fill="none" stroke="black" d="M1522.2,-1833C1448.3,-1826.6 1247,-1804.1 1247,-1747 1247,-1747 1247,-1747 1247,-1295 1247,-958.79 1341.3,-845.07 1200,-540 1159.8,-453.3 1046.8,-407.18 989.41,-388.75"/>
<polygon fill="black" stroke="black" points="990.289,-385.358 979.7,-385.72 988.203,-392.04 990.289,-385.358"/>
<text text-anchor="middle" x="1277.2" y="-1110.4" font-family="Times,serif" font-size="14.00">0.0036</text>
</g>
<!-- B&#45;3&#45;&#45;G3 -->
<g id="edge150" class="edge"><title>B&#45;3&#45;&#45;G3</title>
<path fill="none" stroke="black" d="M1562.6,-1820.4C1576.5,-1803.9 1596,-1775.6 1596,-1747 1596,-1747 1596,-1747 1596,-1205 1596,-1181.4 1595.3,-1175.5 1597.5,-1152 1601.3,-1112.1 1612,-1103.1 1612,-1063 1612,-1063 1612,-1063 1612,-917 1612,-733.02 1680.4,-660.7 1584,-504 1577.9,-494.14 1568,-486.72 1557.9,-481.31"/>
<polygon fill="black" stroke="black" points="1559.32,-478.111 1548.8,-476.89 1556.27,-484.407 1559.32,-478.111"/>
<text text-anchor="middle" x="1617.2" y="-1155.4" font-family="Times,serif" font-size="14.00">0.0036</text>
</g>
<!-- B&#45;3&#45;&#45;F#3 -->
<g id="edge154" class="edge"><title>B&#45;3&#45;&#45;F#3</title>
<path fill="none" stroke="black" d="M1576.4,-1835.6C1642.3,-1836.4 1807,-1834.7 1847,-1800 1865.4,-1784 1861,-1771.4 1861,-1747 1861,-1747 1861,-1747 1861,-1205 1861,-1053.9 1783,-1025.1 1783,-874 1783,-874 1783,-874 1783,-557 1783,-532.66 1768.8,-508.53 1756.1,-491.71"/>
<polygon fill="black" stroke="black" points="1758.59,-489.223 1749.6,-483.62 1753.13,-493.608 1758.59,-489.223"/>
<text text-anchor="middle" x="1879.2" y="-1155.4" font-family="Times,serif" font-size="14.00">0.0214</text>
</g>
<!-- B&#45;3&#45;&#45;C#4 -->
<g id="edge156" class="edge"><title>B&#45;3&#45;&#45;C#4</title>
<path fill="none" stroke="black" d="M1572.2,-1826.7C1602,-1814.3 1650,-1788 1650,-1747 1650,-1747 1650,-1747 1650,-1115 1650,-1083.4 1649.1,-1075.5 1651.5,-1044 1660.4,-927.77 1686,-900.57 1686,-784 1686,-784 1686,-784 1686,-602 1686,-358.85 1281.8,-303.19 1155.3,-291.73"/>
<polygon fill="black" stroke="black" points="1155.26,-288.214 1145,-290.84 1154.66,-295.188 1155.26,-288.214"/>
<text text-anchor="middle" x="1671.2" y="-1056.4" font-family="Times,serif" font-size="14.00">0.0071</text>
</g>
<!-- B&#45;3&#45;&#45;C4 -->
<g id="edge158" class="edge"><title>B&#45;3&#45;&#45;C4</title>
<path fill="none" stroke="black" d="M1522,-1834.2C1455.3,-1831.8 1284.3,-1823.6 1233,-1800 1184.4,-1777.6 1155.3,-1718.1 1141.9,-1683.3"/>
<polygon fill="black" stroke="black" points="1145.14,-1681.97 1138.4,-1673.8 1138.57,-1684.39 1145.14,-1681.97"/>
<text text-anchor="middle" x="1206.2" y="-1740.4" font-family="Times,serif" font-size="14.00">0.0071</text>
</g>
<!-- B&#45;5&#45;&#45;B&#45;4 -->
<g id="edge186" class="edge"><title>B&#45;5&#45;&#45;B&#45;4</title>
<path fill="none" stroke="black" d="M600.6,-990.45C595.7,-977.75 588.83,-959.96 583.17,-945.32"/>
<polygon fill="black" stroke="black" points="586.352,-943.844 579.48,-935.78 579.823,-946.369 586.352,-943.844"/>
<text text-anchor="middle" x="613.25" y="-957.4" font-family="Times,serif" font-size="14.00">0.0036</text>
</g>
<!-- B5 -->
<g id="node140" class="node"><title>B5</title>
<ellipse fill="none" stroke="black" cx="247" cy="-1656" rx="27" ry="18"/>
<text text-anchor="middle" x="247" y="-1650.4" font-family="Times,serif" font-size="14.00">B5</text>
</g>
<!-- B5&#45;&#45;F#4 -->
<g id="edge206" class="edge"><title>B5&#45;&#45;F#4</title>
<path fill="none" stroke="black" d="M243.53,-1638C240.96,-1625.5 237.42,-1608.2 234.48,-1593.8"/>
<polygon fill="black" stroke="black" points="237.889,-1593 232.46,-1583.9 231.03,-1594.4 237.889,-1593"/>
<text text-anchor="middle" x="259.25" y="-1605.4" font-family="Times,serif" font-size="14.00">0.0036</text>
</g>
<!-- C6 -->
<g id="node154" class="node"><title>C6</title>
<ellipse fill="none" stroke="black" cx="701" cy="-918" rx="27" ry="18"/>
<text text-anchor="middle" x="701" y="-912.4" font-family="Times,serif" font-size="14.00">C6</text>
</g>
<!-- C6&#45;&#45;F4 -->
<g id="edge230" class="edge"><title>C6&#45;&#45;F4</title>
<path fill="none" stroke="black" d="M697.74,-899.98C696.55,-888.91 696.84,-874.61 703.5,-864 710.55,-852.76 722.54,-844.87 734.29,-839.47"/>
<polygon fill="black" stroke="black" points="735.64,-842.699 743.55,-835.65 732.971,-836.228 735.64,-842.699"/>
<text text-anchor="middle" x="723.25" y="-867.4" font-family="Times,serif" font-size="14.00">0.0036</text>
</g>
<!-- D4 -->
<g id="node156" class="node"><title>D4</title>
<ellipse fill="none" stroke="black" cx="175" cy="-1656" rx="27" ry="18"/>
<text text-anchor="middle" x="175" y="-1650.4" font-family="Times,serif" font-size="14.00">D4</text>
</g>
<!-- D4&#45;&#45;F#4 -->
<g id="edge232" class="edge"><title>D4&#45;&#45;F#4</title>
<path fill="none" stroke="black" d="M179.27,-1637.9C182.45,-1627.1 187.46,-1613.1 194.5,-1602 197.59,-1597.1 201.44,-1592.4 205.45,-1588.1"/>
<polygon fill="black" stroke="black" points="208.133,-1590.36 212.69,-1580.8 203.163,-1585.44 208.133,-1590.36"/>
<text text-anchor="middle" x="214.25" y="-1605.4" font-family="Times,serif" font-size="14.00">0.0071</text>
</g>
<!-- G4 -->
<g id="node158" class="node"><title>G4</title>
<ellipse fill="none" stroke="black" cx="916" cy="-468" rx="27" ry="18"/>
<text text-anchor="middle" x="916" y="-462.4" font-family="Times,serif" font-size="14.00">G4</text>
</g>
<!-- G4&#45;&#45;E&#45;4 -->
<g id="edge234" class="edge"><title>G4&#45;&#45;E&#45;4</title>
<path fill="none" stroke="black" d="M913.68,-450.02C912.95,-439.23 913.39,-425.24 918.5,-414 921.06,-408.37 924.98,-403.18 929.31,-398.63"/>
<polygon fill="black" stroke="black" points="931.922,-400.979 936.83,-391.59 927.138,-395.869 931.922,-400.979"/>
<text text-anchor="middle" x="938.25" y="-417.4" font-family="Times,serif" font-size="14.00">0.0036</text>
</g>
</g>
</svg>
