<?xml version="1.0" encoding="UTF-8" standalone="no"?>
<!DOCTYPE svg PUBLIC "-//W3C//DTD SVG 1.1//EN"
 "http://www.w3.org/Graphics/SVG/1.1/DTD/svg11.dtd">
<!-- Generated by graphviz version 2.28.0 (20121019.2215)
 -->
<!-- Title: _anonymous_0 Pages: 1 -->
<svg width="1415pt" height="1304pt"
 viewBox="0.00 0.00 1415.45 1304.00" xmlns="http://www.w3.org/2000/svg" xmlns:xlink="http://www.w3.org/1999/xlink">
<g id="graph1" class="graph" transform="scale(1 1) rotate(0) translate(4 1300)">
<title>_anonymous_0</title>
<polygon fill="white" stroke="white" points="-4,5 -4,-1300 1412.45,-1300 1412.45,5 -4,5"/>
<!-- A3 -->
<g id="node1" class="node"><title>A3</title>
<ellipse fill="none" stroke="black" cx="1089" cy="-1278" rx="27" ry="18"/>
<text text-anchor="middle" x="1089" y="-1272.4" font-family="Times,serif" font-size="14.00">A3</text>
</g>
<!-- F#3 -->
<g id="node2" class="node"><title>F#3</title>
<ellipse fill="none" stroke="black" cx="1115" cy="-1188" rx="27" ry="18"/>
<text text-anchor="middle" x="1115" y="-1182.4" font-family="Times,serif" font-size="14.00">F#3</text>
</g>
<!-- A3&#45;&#45;F#3 -->
<g id="edge2" class="edge"><title>A3&#45;&#45;F#3</title>
<path fill="none" stroke="black" d="M1087,-1259.9C1086.4,-1249.3 1086.7,-1235.5 1090.5,-1224 1091.8,-1220.1 1093.7,-1216.2 1095.9,-1212.5"/>
<polygon fill="black" stroke="black" points="1098.94,-1214.25 1101.6,-1204 1093.12,-1210.36 1098.94,-1214.25"/>
<text text-anchor="middle" x="1110.2" y="-1227.4" font-family="Times,serif" font-size="14.00">0.0086</text>
</g>
<!-- A4 -->
<g id="node4" class="node"><title>A4</title>
<ellipse fill="none" stroke="black" cx="130" cy="-918" rx="27" ry="18"/>
<text text-anchor="middle" x="130" y="-912.4" font-family="Times,serif" font-size="14.00">A4</text>
</g>
<!-- F#4 -->
<g id="node5" class="node"><title>F#4</title>
<ellipse fill="none" stroke="black" cx="888" cy="-1098" rx="27" ry="18"/>
<text text-anchor="middle" x="888" y="-1092.4" font-family="Times,serif" font-size="14.00">F#4</text>
</g>
<!-- A4&#45;&#45;F#4 -->
<g id="edge4" class="edge"><title>A4&#45;&#45;F#4</title>
<path fill="none" stroke="black" d="M124.41,-935.93C121.76,-946.45 119.8,-960.17 123,-972 130.25,-998.82 131.1,-1011 154.5,-1026 213.56,-1063.8 709.64,-1088.9 850.71,-1095.4"/>
<polygon fill="black" stroke="black" points="850.872,-1098.91 861,-1095.8 851.144,-1091.91 850.872,-1098.91"/>
<text text-anchor="middle" x="174.25" y="-1002.4" font-family="Times,serif" font-size="14.00">0.0086</text>
</g>
<!-- F5 -->
<g id="node7" class="node"><title>F5</title>
<ellipse fill="none" stroke="black" cx="391" cy="-288" rx="27" ry="18"/>
<text text-anchor="middle" x="391" y="-282.4" font-family="Times,serif" font-size="14.00">F5</text>
</g>
<!-- A4&#45;&#45;F5 -->
<g id="edge6" class="edge"><title>A4&#45;&#45;F5</title>
<path fill="none" stroke="black" d="M130,-899.8C130,-882.06 130,-853.6 130,-829 130,-829 130,-829 130,-647 130,-623.44 129.63,-617.49 131.5,-594 134.34,-558.25 142,-549.86 142,-514 142,-514 142,-514 142,-377 142,-332.41 285.76,-304.77 354.81,-294.07"/>
<polygon fill="black" stroke="black" points="355.454,-297.513 364.82,-292.56 354.41,-290.591 355.454,-297.513"/>
<text text-anchor="middle" x="151.25" y="-597.4" font-family="Times,serif" font-size="14.00">0.0086</text>
</g>
<!-- F4 -->
<g id="node9" class="node"><title>F4</title>
<ellipse fill="none" stroke="black" cx="962" cy="-108" rx="27" ry="18"/>
<text text-anchor="middle" x="962" y="-102.4" font-family="Times,serif" font-size="14.00">F4</text>
</g>
<!-- F#4&#45;&#45;F4 -->
<g id="edge14" class="edge"><title>F#4&#45;&#45;F4</title>
<path fill="none" stroke="black" d="M909.45,-1086.6C961.82,-1059.5 1092,-981.3 1092,-874 1092,-874 1092,-874 1092,-692 1092,-648.42 1086.9,-637.56 1088.5,-594 1089.1,-578.41 1091,-574.6 1091,-559 1091,-559 1091,-559 1091,-197 1091,-185 1029.3,-147.53 991.27,-125.54"/>
<polygon fill="black" stroke="black" points="992.575,-122.253 982.16,-120.31 989.09,-128.324 992.575,-122.253"/>
<text text-anchor="middle" x="1108.2" y="-597.4" font-family="Times,serif" font-size="14.00">0.0086</text>
</g>
<!-- C#5 -->
<g id="node13" class="node"><title>C#5</title>
<ellipse fill="none" stroke="black" cx="785" cy="-1008" rx="27.2698" ry="18"/>
<text text-anchor="middle" x="785" y="-1002.4" font-family="Times,serif" font-size="14.00">C#5</text>
</g>
<!-- F#4&#45;&#45;C#5 -->
<g id="edge18" class="edge"><title>F#4&#45;&#45;C#5</title>
<path fill="none" stroke="black" d="M871.91,-1083.2C854.97,-1068.8 828.15,-1045.9 808.78,-1029.3"/>
<polygon fill="black" stroke="black" points="810.875,-1026.49 800.98,-1022.7 806.353,-1031.83 810.875,-1026.49"/>
<text text-anchor="middle" x="865.25" y="-1047.4" font-family="Times,serif" font-size="14.00">0.0086</text>
</g>
<!-- G#4 -->
<g id="node16" class="node"><title>G#4</title>
<ellipse fill="none" stroke="black" cx="869" cy="-18" rx="27.8358" ry="18"/>
<text text-anchor="middle" x="869" y="-12.4" font-family="Times,serif" font-size="14.00">G#4</text>
</g>
<!-- F#4&#45;&#45;G#4 -->
<g id="edge16" class="edge"><title>F#4&#45;&#45;G#4</title>
<path fill="none" stroke="black" d="M860.94,-1097.2C712.12,-1098.1 0,-1097.8 0,-1009 0,-1009 0,-1009 0,-107 0,-22.144 664.35,-18.401 831.29,-18.8"/>
<polygon fill="black" stroke="black" points="831.549,-22.3007 841.56,-18.831 831.571,-15.3007 831.549,-22.3007"/>
<text text-anchor="middle" x="19.25" y="-552.4" font-family="Times,serif" font-size="14.00">0.0172</text>
</g>
<!-- F5&#45;&#45;F4 -->
<g id="edge8" class="edge"><title>F5&#45;&#45;F4</title>
<path fill="none" stroke="black" d="M417.74,-284.87C501.88,-277.84 759.98,-253.66 834,-216 876.86,-194.19 917.97,-155.67 941.57,-131.28"/>
<polygon fill="black" stroke="black" points="944.234,-133.558 948.59,-123.9 939.162,-128.733 944.234,-133.558"/>
<text text-anchor="middle" x="906.25" y="-192.4" font-family="Times,serif" font-size="14.00">0.0172</text>
</g>
<!-- B&#45;4 -->
<g id="node11" class="node"><title>B&#45;4</title>
<ellipse fill="none" stroke="black" cx="798" cy="-198" rx="27" ry="18"/>
<text text-anchor="middle" x="798" y="-192.4" font-family="Times,serif" font-size="14.00">B&#45;4</text>
</g>
<!-- F5&#45;&#45;B&#45;4 -->
<g id="edge10" class="edge"><title>F5&#45;&#45;B&#45;4</title>
<path fill="none" stroke="black" d="M415.01,-279.7C451.85,-268.69 524.66,-247.66 587.5,-234 648.07,-220.83 719.39,-209.92 761.53,-203.95"/>
<polygon fill="black" stroke="black" points="762.173,-207.394 771.59,-202.54 761.201,-200.462 762.173,-207.394"/>
<text text-anchor="middle" x="607.25" y="-237.4" font-family="Times,serif" font-size="14.00">0.0086</text>
</g>
<!-- F5&#45;&#45;C#5 -->
<g id="edge12" class="edge"><title>F5&#45;&#45;C#5</title>
<path fill="none" stroke="black" d="M373.18,-301.85C333.19,-331.88 236.75,-411.19 198,-504 157.51,-600.98 180.72,-910.59 266,-972 304.83,-999.96 635.01,-1005.6 747.58,-1006.7"/>
<polygon fill="black" stroke="black" points="747.746,-1010.2 757.78,-1006.8 747.815,-1003.2 747.746,-1010.2"/>
<text text-anchor="middle" x="198.25" y="-642.4" font-family="Times,serif" font-size="14.00">0.0172</text>
</g>
<!-- F4&#45;&#45;G#4 -->
<g id="edge20" class="edge"><title>F4&#45;&#45;G#4</title>
<path fill="none" stroke="black" d="M951.7,-91.071C944.04,-79.937 932.89,-65.13 921,-54 914.07,-47.516 905.83,-41.389 897.98,-36.128"/>
<polygon fill="black" stroke="black" points="899.664,-33.0495 889.36,-30.583 895.877,-38.9367 899.664,-33.0495"/>
<text text-anchor="middle" x="957.25" y="-57.4" font-family="Times,serif" font-size="14.00">0.0086</text>
</g>
<!-- B&#45;4&#45;&#45;F#4 -->
<g id="edge38" class="edge"><title>B&#45;4&#45;&#45;F#4</title>
<path fill="none" stroke="black" d="M817.57,-210.51C821.59,-212.55 825.86,-214.5 830,-216 912.81,-245.98 1015,-198.93 1015,-287 1015,-559 1015,-559 1015,-559 1015,-744.42 1014.3,-796 956,-972 943.66,-1009.2 920.48,-1048.3 904.65,-1072.7"/>
<polygon fill="black" stroke="black" points="901.562,-1071.02 898.98,-1081.3 907.406,-1074.88 901.562,-1071.02"/>
<text text-anchor="middle" x="1034.2" y="-642.4" font-family="Times,serif" font-size="14.00">0.0259</text>
</g>
<!-- B&#45;4&#45;&#45;F4 -->
<g id="edge32" class="edge"><title>B&#45;4&#45;&#45;F4</title>
<path fill="none" stroke="black" d="M818.44,-186.03C847.12,-170.64 899.48,-142.55 932.42,-124.87"/>
<polygon fill="black" stroke="black" points="934.4,-127.78 941.56,-119.97 931.093,-121.61 934.4,-127.78"/>
<text text-anchor="middle" x="914.25" y="-147.4" font-family="Times,serif" font-size="14.00">0.0086</text>
</g>
<!-- B&#45;4&#45;&#45;C#5 -->
<g id="edge40" class="edge"><title>B&#45;4&#45;&#45;C#5</title>
<path fill="none" stroke="black" d="M823.3,-204.7C859.82,-214.6 923,-238.7 923,-287 923,-424 923,-424 923,-424 923,-465.13 893,-752.1 883,-792 864.8,-864.63 822.73,-942.99 800.08,-981.99"/>
<polygon fill="black" stroke="black" points="796.822,-980.626 794.77,-991.02 802.856,-984.174 796.822,-980.626"/>
<text text-anchor="middle" x="928.25" y="-597.4" font-family="Times,serif" font-size="14.00">0.0086</text>
</g>
<!-- B&#45;4&#45;&#45;G#4 -->
<g id="edge34" class="edge"><title>B&#45;4&#45;&#45;G#4</title>
<path fill="none" stroke="black" d="M798.55,-179.63C799.78,-157.87 803.75,-119.82 816.5,-90 824.18,-72.023 837.24,-54.337 848.41,-41.113"/>
<polygon fill="black" stroke="black" points="851.121,-43.3294 855.06,-33.494 845.847,-38.7264 851.121,-43.3294"/>
<text text-anchor="middle" x="836.25" y="-102.4" font-family="Times,serif" font-size="14.00">0.0086</text>
</g>
<!-- C5 -->
<g id="node30" class="node"><title>C5</title>
<ellipse fill="none" stroke="black" cx="533" cy="-108" rx="27" ry="18"/>
<text text-anchor="middle" x="533" y="-102.4" font-family="Times,serif" font-size="14.00">C5</text>
</g>
<!-- B&#45;4&#45;&#45;C5 -->
<g id="edge36" class="edge"><title>B&#45;4&#45;&#45;C5</title>
<path fill="none" stroke="black" d="M775.65,-187.44C748.92,-176.21 702.67,-157.4 662,-144 630.48,-133.61 593.92,-123.91 567.78,-117.37"/>
<polygon fill="black" stroke="black" points="568.509,-113.945 557.96,-114.93 566.821,-120.738 568.509,-113.945"/>
<text text-anchor="middle" x="731.25" y="-147.4" font-family="Times,serif" font-size="14.00">0.0086</text>
</g>
<!-- C#5&#45;&#45;A4 -->
<g id="edge30" class="edge"><title>C#5&#45;&#45;A4</title>
<path fill="none" stroke="black" d="M757.71,-1006.5C637.15,-1004.3 157.21,-994.02 134.5,-972 127.71,-965.41 125.63,-955.61 125.58,-946.22"/>
<polygon fill="black" stroke="black" points="129.089,-946.197 126.25,-935.99 122.104,-945.74 129.089,-946.197"/>
<text text-anchor="middle" x="154.25" y="-957.4" font-family="Times,serif" font-size="14.00">0.0086</text>
</g>
<!-- C#5&#45;&#45;G#4 -->
<g id="edge26" class="edge"><title>C#5&#45;&#45;G#4</title>
<path fill="none" stroke="black" d="M802.26,-993.61C809.68,-987.44 818.19,-979.77 825,-972 837.68,-957.54 839.89,-952.93 849,-936 931.84,-782.08 961,-733.79 961,-559 961,-559 961,-559 961,-332 961,-277.47 936.14,-268.39 921,-216 900.47,-144.95 905.24,-124.53 883,-54 882.07,-51.037 881,-47.97 879.87,-44.938"/>
<polygon fill="black" stroke="black" points="883.103,-43.5957 876.21,-35.55 876.581,-46.1383 883.103,-43.5957"/>
<text text-anchor="middle" x="980.25" y="-507.4" font-family="Times,serif" font-size="14.00">0.0172</text>
</g>
<!-- G#3 -->
<g id="node20" class="node"><title>G#3</title>
<ellipse fill="none" stroke="black" cx="1036" cy="-918" rx="27.8358" ry="18"/>
<text text-anchor="middle" x="1036" y="-912.4" font-family="Times,serif" font-size="14.00">G#3</text>
</g>
<!-- C#5&#45;&#45;G#3 -->
<g id="edge22" class="edge"><title>C#5&#45;&#45;G#3</title>
<path fill="none" stroke="black" d="M811.7,-1004.7C846.16,-1001.1 907.44,-992.16 956,-972 975.94,-963.72 996.19,-950.25 1011.3,-938.96"/>
<polygon fill="black" stroke="black" points="1013.78,-941.472 1019.6,-932.62 1009.53,-935.909 1013.78,-941.472"/>
<text text-anchor="middle" x="1008.2" y="-957.4" font-family="Times,serif" font-size="14.00">0.0086</text>
</g>
<!-- E&#45;5 -->
<g id="node22" class="node"><title>E&#45;5</title>
<ellipse fill="none" stroke="black" cx="756" cy="-828" rx="27" ry="18"/>
<text text-anchor="middle" x="756" y="-822.4" font-family="Times,serif" font-size="14.00">E&#45;5</text>
</g>
<!-- C#5&#45;&#45;E&#45;5 -->
<g id="edge24" class="edge"><title>C#5&#45;&#45;E&#45;5</title>
<path fill="none" stroke="black" d="M785.01,-989.98C784.65,-962.88 782.41,-908.46 771,-864 770.22,-860.96 769.21,-857.84 768.09,-854.79"/>
<polygon fill="black" stroke="black" points="771.266,-853.309 764.25,-845.37 764.784,-855.951 771.266,-853.309"/>
<text text-anchor="middle" x="802.25" y="-912.4" font-family="Times,serif" font-size="14.00">0.0086</text>
</g>
<!-- B&#45;5 -->
<g id="node25" class="node"><title>B&#45;5</title>
<ellipse fill="none" stroke="black" cx="327" cy="-918" rx="27" ry="18"/>
<text text-anchor="middle" x="327" y="-912.4" font-family="Times,serif" font-size="14.00">B&#45;5</text>
</g>
<!-- C#5&#45;&#45;B&#45;5 -->
<g id="edge28" class="edge"><title>C#5&#45;&#45;B&#45;5</title>
<path fill="none" stroke="black" d="M757.75,-1005.7C704.61,-1002.8 583.68,-994.21 484.5,-972 440.04,-962.05 390.5,-944.21 359.07,-932"/>
<polygon fill="black" stroke="black" points="360.117,-928.651 349.53,-928.25 357.556,-935.166 360.117,-928.651"/>
<text text-anchor="middle" x="504.25" y="-957.4" font-family="Times,serif" font-size="14.00">0.0086</text>
</g>
<!-- B&#45;3 -->
<g id="node52" class="node"><title>B&#45;3</title>
<ellipse fill="none" stroke="black" cx="1206" cy="-828" rx="27" ry="18"/>
<text text-anchor="middle" x="1206" y="-822.4" font-family="Times,serif" font-size="14.00">B&#45;3</text>
</g>
<!-- G#3&#45;&#45;B&#45;3 -->
<g id="edge94" class="edge"><title>G#3&#45;&#45;B&#45;3</title>
<path fill="none" stroke="black" d="M1056.8,-906.21C1086.8,-890.73 1142,-862.14 1176.2,-844.43"/>
<polygon fill="black" stroke="black" points="1178.01,-847.432 1185.3,-839.74 1174.81,-841.21 1178.01,-847.432"/>
<text text-anchor="middle" x="1156.2" y="-867.4" font-family="Times,serif" font-size="14.00">0.0172</text>
</g>
<!-- E&#45;5&#45;&#45;F5 -->
<g id="edge106" class="edge"><title>E&#45;5&#45;&#45;F5</title>
<path fill="none" stroke="black" d="M731.09,-820.82C647.37,-798.4 377.95,-712.48 317,-522 302.35,-476.21 358.45,-476.35 377,-432 392.86,-394.08 394.1,-345.74 392.98,-316.09"/>
<polygon fill="black" stroke="black" points="396.474,-315.883 392.48,-306.07 389.483,-316.232 396.474,-315.883"/>
<text text-anchor="middle" x="361.25" y="-552.4" font-family="Times,serif" font-size="14.00">0.0517</text>
</g>
<!-- E&#45;5&#45;&#45;B&#45;4 -->
<g id="edge104" class="edge"><title>E&#45;5&#45;&#45;B&#45;4</title>
<path fill="none" stroke="black" d="M770.96,-812.87C776.46,-806.92 782.25,-799.61 786,-792 822.18,-718.68 815.51,-693.32 824,-612 839.16,-466.81 813.88,-291.92 802.8,-225.94"/>
<polygon fill="black" stroke="black" points="806.229,-225.225 801.09,-215.96 799.329,-226.407 806.229,-225.225"/>
<text text-anchor="middle" x="848.25" y="-507.4" font-family="Times,serif" font-size="14.00">0.0172</text>
</g>
<!-- E&#45;5&#45;&#45;G#4 -->
<g id="edge100" class="edge"><title>E&#45;5&#45;&#45;G#4</title>
<path fill="none" stroke="black" d="M776.47,-815.71C786.06,-809.64 797.09,-801.47 805,-792 816.34,-778.42 816.37,-772.77 822,-756 858.3,-647.83 871.91,-618.09 871,-504 870.56,-448.44 869,-434.56 869,-379 869,-379 869,-379 869,-107 869,-86.63 869,-63.609 869,-46.222"/>
<polygon fill="black" stroke="black" points="872.5,-46.199 869,-36.199 865.5,-46.199 872.5,-46.199"/>
<text text-anchor="middle" x="889.25" y="-417.4" font-family="Times,serif" font-size="14.00">0.0172</text>
</g>
<!-- F#5 -->
<g id="node37" class="node"><title>F#5</title>
<ellipse fill="none" stroke="black" cx="696" cy="-378" rx="27" ry="18"/>
<text text-anchor="middle" x="696" y="-372.4" font-family="Times,serif" font-size="14.00">F#5</text>
</g>
<!-- E&#45;5&#45;&#45;F#5 -->
<g id="edge102" class="edge"><title>E&#45;5&#45;&#45;F#5</title>
<path fill="none" stroke="black" d="M763.82,-810.61C766.22,-804.86 768.6,-798.26 770,-792 776.99,-760.72 791.45,-535.58 786,-504 778.78,-462.16 780.85,-446.88 754,-414 746.9,-405.3 737.02,-398.22 727.44,-392.77"/>
<polygon fill="black" stroke="black" points="728.91,-389.588 718.43,-388.03 725.65,-395.783 728.91,-389.588"/>
<text text-anchor="middle" x="805.25" y="-597.4" font-family="Times,serif" font-size="14.00">0.0086</text>
</g>
<!-- G5 -->
<g id="node69" class="node"><title>G5</title>
<ellipse fill="none" stroke="black" cx="657" cy="-738" rx="27" ry="18"/>
<text text-anchor="middle" x="657" y="-732.4" font-family="Times,serif" font-size="14.00">G5</text>
</g>
<!-- E&#45;5&#45;&#45;G5 -->
<g id="edge96" class="edge"><title>E&#45;5&#45;&#45;G5</title>
<path fill="none" stroke="black" d="M732.19,-819.41C717.36,-813.73 698.66,-804.74 685.5,-792 677.81,-784.56 671.71,-774.59 667.16,-765.3"/>
<polygon fill="black" stroke="black" points="670.275,-763.693 662.98,-756.01 663.892,-766.566 670.275,-763.693"/>
<text text-anchor="middle" x="705.25" y="-777.4" font-family="Times,serif" font-size="14.00">0.0086</text>
</g>
<!-- E&#45;6 -->
<g id="node71" class="node"><title>E&#45;6</title>
<ellipse fill="none" stroke="black" cx="729" cy="-738" rx="27" ry="18"/>
<text text-anchor="middle" x="729" y="-732.4" font-family="Times,serif" font-size="14.00">E&#45;6</text>
</g>
<!-- E&#45;5&#45;&#45;E&#45;6 -->
<g id="edge98" class="edge"><title>E&#45;5&#45;&#45;E&#45;6</title>
<path fill="none" stroke="black" d="M742.72,-812.01C738.33,-806.17 733.94,-799.16 731.5,-792 728.74,-783.91 727.65,-774.72 727.39,-766.29"/>
<polygon fill="black" stroke="black" points="730.89,-766.174 727.43,-756.16 723.89,-766.146 730.89,-766.174"/>
<text text-anchor="middle" x="751.25" y="-777.4" font-family="Times,serif" font-size="14.00">0.0086</text>
</g>
<!-- B&#45;5&#45;&#45;F5 -->
<g id="edge68" class="edge"><title>B&#45;5&#45;&#45;F5</title>
<path fill="none" stroke="black" d="M313.69,-902.33C300.11,-885.78 281,-857.44 281,-829 281,-829 281,-829 281,-692 281,-610.22 236.73,-390.02 285,-324 300.64,-302.61 329.83,-294.08 353.62,-290.78"/>
<polygon fill="black" stroke="black" points="354.214,-294.235 363.76,-289.64 353.432,-287.279 354.214,-294.235"/>
<text text-anchor="middle" x="294.25" y="-597.4" font-family="Times,serif" font-size="14.00">0.0086</text>
</g>
<!-- B&#45;5&#45;&#45;E&#45;5 -->
<g id="edge62" class="edge"><title>B&#45;5&#45;&#45;E&#45;5</title>
<path fill="none" stroke="black" d="M352.55,-911.76C425.8,-896.73 636.63,-853.49 720.74,-836.23"/>
<polygon fill="black" stroke="black" points="721.488,-839.649 730.58,-834.21 720.08,-832.792 721.488,-839.649"/>
<text text-anchor="middle" x="599.25" y="-867.4" font-family="Times,serif" font-size="14.00">0.0086</text>
</g>
<!-- B&#45;5&#45;&#45;C5 -->
<g id="edge66" class="edge"><title>B&#45;5&#45;&#45;C5</title>
<path fill="none" stroke="black" d="M305.8,-906.53C280.92,-892.56 243,-865.33 243,-829 243,-829 243,-829 243,-692 243,-615.95 228.42,-597.89 223.5,-522 220.68,-478.53 222,-467.56 222,-424 222,-424 222,-424 222,-197 222,-140.62 413.61,-118.53 496.03,-111.64"/>
<polygon fill="black" stroke="black" points="496.533,-115.111 506.22,-110.82 495.971,-108.133 496.533,-115.111"/>
<text text-anchor="middle" x="243.25" y="-507.4" font-family="Times,serif" font-size="14.00">0.0086</text>
</g>
<!-- G#5 -->
<g id="node48" class="node"><title>G#5</title>
<ellipse fill="none" stroke="black" cx="431" cy="-558" rx="27.8358" ry="18"/>
<text text-anchor="middle" x="431" y="-552.4" font-family="Times,serif" font-size="14.00">G#5</text>
</g>
<!-- B&#45;5&#45;&#45;G#5 -->
<g id="edge64" class="edge"><title>B&#45;5&#45;&#45;G#5</title>
<path fill="none" stroke="black" d="M350.56,-909.16C381.52,-897.2 432,-871.22 432,-829 432,-829 432,-829 432,-647 432,-626.63 431.73,-603.61 431.47,-586.22"/>
<polygon fill="black" stroke="black" points="434.969,-586.143 431.31,-576.2 427.97,-586.255 434.969,-586.143"/>
<text text-anchor="middle" x="451.25" y="-732.4" font-family="Times,serif" font-size="14.00">0.0172</text>
</g>
<!-- C5&#45;&#45;F5 -->
<g id="edge60" class="edge"><title>C5&#45;&#45;F5</title>
<path fill="none" stroke="black" d="M520.92,-124.14C496.11,-155.24 439.26,-226.51 409.67,-263.6"/>
<polygon fill="black" stroke="black" points="406.612,-261.821 403.11,-271.82 412.083,-266.187 406.612,-261.821"/>
<text text-anchor="middle" x="496.25" y="-192.4" font-family="Times,serif" font-size="14.00">0.0086</text>
</g>
<!-- C5&#45;&#45;G#4 -->
<g id="edge58" class="edge"><title>C5&#45;&#45;G#4</title>
<path fill="none" stroke="black" d="M557.47,-100.25C594.61,-90.043 667.44,-70.154 729.5,-54 765.01,-44.757 805.72,-34.593 833.96,-27.61"/>
<polygon fill="black" stroke="black" points="834.891,-30.9852 843.76,-25.189 833.212,-24.1895 834.891,-30.9852"/>
<text text-anchor="middle" x="749.25" y="-57.4" font-family="Times,serif" font-size="14.00">0.0086</text>
</g>
<!-- A5 -->
<g id="node34" class="node"><title>A5</title>
<ellipse fill="none" stroke="black" cx="651" cy="-558" rx="27" ry="18"/>
<text text-anchor="middle" x="651" y="-552.4" font-family="Times,serif" font-size="14.00">A5</text>
</g>
<!-- A5&#45;&#45;A5 -->
<g id="edge46" class="edge"><title>A5&#45;&#45;A5</title>
<path fill="none" stroke="black" d="M675.53,-566.12C686.51,-566.89 696,-564.19 696,-558 696,-553.84 691.72,-551.26 685.57,-550.24"/>
<polygon fill="black" stroke="black" points="685.649,-546.741 675.53,-549.88 685.398,-553.736 685.649,-546.741"/>
<text text-anchor="middle" x="715.25" y="-552.4" font-family="Times,serif" font-size="14.00">0.0086</text>
</g>
<!-- F#6 -->
<g id="node35" class="node"><title>F#6</title>
<ellipse fill="none" stroke="black" cx="696" cy="-468" rx="27" ry="18"/>
<text text-anchor="middle" x="696" y="-462.4" font-family="Times,serif" font-size="14.00">F#6</text>
</g>
<!-- A5&#45;&#45;F#6 -->
<g id="edge42" class="edge"><title>A5&#45;&#45;F#6</title>
<path fill="none" stroke="black" d="M659.25,-540.86C665.87,-527.92 675.29,-509.51 682.93,-494.56"/>
<polygon fill="black" stroke="black" points="686.209,-495.836 687.65,-485.34 679.978,-492.646 686.209,-495.836"/>
<text text-anchor="middle" x="697.25" y="-507.4" font-family="Times,serif" font-size="14.00">0.0086</text>
</g>
<!-- A5&#45;&#45;F#5 -->
<g id="edge44" class="edge"><title>A5&#45;&#45;F#5</title>
<path fill="none" stroke="black" d="M648.54,-540.05C646.5,-529.28 642.94,-515.28 637,-504 632.08,-494.66 625.17,-495.9 621.5,-486 615.93,-471 615.2,-464.71 621.5,-450 630.97,-427.9 651.06,-409.42 668,-396.86"/>
<polygon fill="black" stroke="black" points="670.357,-399.479 676.49,-390.84 666.308,-393.769 670.357,-399.479"/>
<text text-anchor="middle" x="641.25" y="-462.4" font-family="Times,serif" font-size="14.00">0.0086</text>
</g>
<!-- F#6&#45;&#45;F#5 -->
<g id="edge56" class="edge"><title>F#6&#45;&#45;F#5</title>
<path fill="none" stroke="black" d="M696,-449.61C696,-437.24 696,-420.37 696,-406.22"/>
<polygon fill="black" stroke="black" points="699.5,-406.05 696,-396.05 692.5,-406.05 699.5,-406.05"/>
<text text-anchor="middle" x="715.25" y="-417.4" font-family="Times,serif" font-size="14.00">0.0086</text>
</g>
<!-- F#5&#45;&#45;F5 -->
<g id="edge54" class="edge"><title>F#5&#45;&#45;F5</title>
<path fill="none" stroke="black" d="M671.56,-369.95C617.46,-354.34 487.49,-316.84 425.29,-298.89"/>
<polygon fill="black" stroke="black" points="426.138,-295.492 415.56,-296.09 424.202,-302.219 426.138,-295.492"/>
<text text-anchor="middle" x="590.25" y="-327.4" font-family="Times,serif" font-size="14.00">0.0086</text>
</g>
<!-- F#5&#45;&#45;B&#45;4 -->
<g id="edge50" class="edge"><title>F#5&#45;&#45;B&#45;4</title>
<path fill="none" stroke="black" d="M705.23,-360.89C723.13,-329.65 762.67,-260.66 783.89,-223.63"/>
<polygon fill="black" stroke="black" points="786.928,-225.367 788.86,-214.95 780.854,-221.889 786.928,-225.367"/>
<text text-anchor="middle" x="777.25" y="-282.4" font-family="Times,serif" font-size="14.00">0.0086</text>
</g>
<!-- F#5&#45;&#45;B&#45;5 -->
<g id="edge52" class="edge"><title>F#5&#45;&#45;B&#45;5</title>
<path fill="none" stroke="black" d="M669.13,-381.14C618.81,-386.18 508.36,-402.24 430,-450 402.33,-466.87 396.65,-475.62 381,-504 364.96,-533.08 370.12,-544.06 361,-576 346.25,-627.66 327,-638.28 327,-692 327,-829 327,-829 327,-829 327,-849.37 327,-872.39 327,-889.78"/>
<polygon fill="black" stroke="black" points="323.5,-889.8 327,-899.8 330.5,-889.8 323.5,-889.8"/>
<text text-anchor="middle" x="359.25" y="-642.4" font-family="Times,serif" font-size="14.00">0.0086</text>
</g>
<!-- F#5&#45;&#45;C5 -->
<g id="edge48" class="edge"><title>F#5&#45;&#45;C5</title>
<path fill="none" stroke="black" d="M688.98,-360.18C677.32,-332.9 652.62,-277.66 626,-234 603.2,-196.61 572.04,-156.51 552.22,-132.09"/>
<polygon fill="black" stroke="black" points="554.754,-129.66 545.71,-124.14 549.338,-134.094 554.754,-129.66"/>
<text text-anchor="middle" x="656.25" y="-237.4" font-family="Times,serif" font-size="14.00">0.0086</text>
</g>
<!-- G#5&#45;&#45;F5 -->
<g id="edge112" class="edge"><title>G#5&#45;&#45;F5</title>
<path fill="none" stroke="black" d="M408.74,-547.35C398.36,-541.6 387,-533.21 381,-522 343.26,-451.44 377.89,-422.01 377,-342 376.91,-334 375.49,-331.86 377,-324 377.59,-320.95 378.44,-317.83 379.43,-314.76"/>
<polygon fill="black" stroke="black" points="382.728,-315.932 382.97,-305.34 376.176,-313.47 382.728,-315.932"/>
<text text-anchor="middle" x="388.25" y="-417.4" font-family="Times,serif" font-size="14.00">0.0086</text>
</g>
<!-- E5 -->
<g id="node77" class="node"><title>E5</title>
<ellipse fill="none" stroke="black" cx="466" cy="-468" rx="27" ry="18"/>
<text text-anchor="middle" x="466" y="-462.4" font-family="Times,serif" font-size="14.00">E5</text>
</g>
<!-- G#5&#45;&#45;E5 -->
<g id="edge108" class="edge"><title>G#5&#45;&#45;E5</title>
<path fill="none" stroke="black" d="M410.73,-545.58C395.06,-535.22 377.58,-519.28 387.5,-504 392.86,-495.74 413.56,-486.69 432.36,-479.87"/>
<polygon fill="black" stroke="black" points="433.64,-483.13 441.92,-476.52 431.325,-476.524 433.64,-483.13"/>
<text text-anchor="middle" x="407.25" y="-507.4" font-family="Times,serif" font-size="14.00">0.0086</text>
</g>
<!-- B5 -->
<g id="node79" class="node"><title>B5</title>
<ellipse fill="none" stroke="black" cx="549" cy="-468" rx="27" ry="18"/>
<text text-anchor="middle" x="549" y="-462.4" font-family="Times,serif" font-size="14.00">B5</text>
</g>
<!-- G#5&#45;&#45;B5 -->
<g id="edge110" class="edge"><title>G#5&#45;&#45;B5</title>
<path fill="none" stroke="black" d="M431.59,-539.65C432.88,-528.16 436.39,-513.5 445.5,-504 463.75,-484.98 477.05,-494.48 502,-486 506.59,-484.44 511.4,-482.75 516.14,-481.07"/>
<polygon fill="black" stroke="black" points="517.409,-484.333 525.63,-477.65 515.036,-477.748 517.409,-484.333"/>
<text text-anchor="middle" x="465.25" y="-507.4" font-family="Times,serif" font-size="14.00">0.0086</text>
</g>
<!-- C4 -->
<g id="node53" class="node"><title>C4</title>
<ellipse fill="none" stroke="black" cx="1213" cy="-1278" rx="27" ry="18"/>
<text text-anchor="middle" x="1213" y="-1272.4" font-family="Times,serif" font-size="14.00">C4</text>
</g>
<!-- B&#45;3&#45;&#45;C4 -->
<g id="edge70" class="edge"><title>B&#45;3&#45;&#45;C4</title>
<path fill="none" stroke="black" d="M1221.9,-842.93C1252,-870.81 1314,-936.88 1314,-1007 1314,-1189 1314,-1189 1314,-1189 1314,-1226 1274.9,-1251.1 1245.4,-1264.7"/>
<polygon fill="black" stroke="black" points="1243.98,-1261.5 1236.2,-1268.7 1246.77,-1267.92 1243.98,-1261.5"/>
<text text-anchor="middle" x="1333.2" y="-1047.4" font-family="Times,serif" font-size="14.00">0.0172</text>
</g>
<!-- C#4 -->
<g id="node55" class="node"><title>C#4</title>
<ellipse fill="none" stroke="black" cx="1200" cy="-738" rx="27.2698" ry="18"/>
<text text-anchor="middle" x="1200" y="-732.4" font-family="Times,serif" font-size="14.00">C#4</text>
</g>
<!-- B&#45;3&#45;&#45;C#4 -->
<g id="edge72" class="edge"><title>B&#45;3&#45;&#45;C#4</title>
<path fill="none" stroke="black" d="M1204.8,-809.61C1204,-797.24 1202.8,-780.37 1201.9,-766.22"/>
<polygon fill="black" stroke="black" points="1205.38,-765.786 1201.2,-756.05 1198.4,-766.267 1205.38,-765.786"/>
<text text-anchor="middle" x="1223.2" y="-777.4" font-family="Times,serif" font-size="14.00">0.0086</text>
</g>
<!-- C4&#45;&#45;F#3 -->
<g id="edge82" class="edge"><title>C4&#45;&#45;F#3</title>
<path fill="none" stroke="black" d="M1194,-1264.9C1184.4,-1258.6 1173,-1250.4 1163.5,-1242 1153.1,-1232.8 1142.6,-1221.7 1134.1,-1212"/>
<polygon fill="black" stroke="black" points="1136.57,-1209.51 1127.4,-1204.2 1131.26,-1214.07 1136.57,-1209.51"/>
<text text-anchor="middle" x="1183.2" y="-1227.4" font-family="Times,serif" font-size="14.00">0.0086</text>
</g>
<!-- E&#45;4 -->
<g id="node58" class="node"><title>E&#45;4</title>
<ellipse fill="none" stroke="black" cx="1200" cy="-1188" rx="27" ry="18"/>
<text text-anchor="middle" x="1200" y="-1182.4" font-family="Times,serif" font-size="14.00">E&#45;4</text>
</g>
<!-- C4&#45;&#45;E&#45;4 -->
<g id="edge80" class="edge"><title>C4&#45;&#45;E&#45;4</title>
<path fill="none" stroke="black" d="M1210.5,-1260C1208.7,-1247.7 1206.2,-1230.7 1204.1,-1216.5"/>
<polygon fill="black" stroke="black" points="1207.49,-1215.54 1202.5,-1206.2 1200.58,-1216.62 1207.49,-1215.54"/>
<text text-anchor="middle" x="1227.2" y="-1227.4" font-family="Times,serif" font-size="14.00">0.0086</text>
</g>
<!-- C#4&#45;&#45;F4 -->
<g id="edge74" class="edge"><title>C#4&#45;&#45;F4</title>
<path fill="none" stroke="black" d="M1197.5,-719.84C1195.2,-702.14 1192,-673.7 1192,-649 1192,-649 1192,-649 1192,-197 1192,-105.18 1085.6,-153.48 998,-126 996.07,-125.39 994.11,-124.71 992.16,-123.96"/>
<polygon fill="black" stroke="black" points="993.123,-120.567 982.55,-119.89 990.393,-127.013 993.123,-120.567"/>
<text text-anchor="middle" x="1211.2" y="-417.4" font-family="Times,serif" font-size="14.00">0.0086</text>
</g>
<!-- C#4&#45;&#45;C#4 -->
<g id="edge78" class="edge"><title>C#4&#45;&#45;C#4</title>
<path fill="none" stroke="black" d="M1224.5,-746.12C1235.5,-746.89 1245,-744.19 1245,-738 1245,-733.84 1240.7,-731.26 1234.6,-730.24"/>
<polygon fill="black" stroke="black" points="1234.62,-726.739 1224.5,-729.88 1234.37,-733.734 1234.62,-726.739"/>
<text text-anchor="middle" x="1264.2" y="-732.4" font-family="Times,serif" font-size="14.00">0.0086</text>
</g>
<!-- C#4&#45;&#45;E&#45;4 -->
<g id="edge76" class="edge"><title>C#4&#45;&#45;E&#45;4</title>
<path fill="none" stroke="black" d="M1221.1,-749.3C1230.6,-755.13 1240.7,-763.39 1246,-774 1283.2,-848.99 1235,-878.3 1235,-962 1235,-1099 1235,-1099 1235,-1099 1235,-1121.6 1224.9,-1145.3 1215.5,-1162.4"/>
<polygon fill="black" stroke="black" points="1212.4,-1160.78 1210.5,-1171.2 1218.48,-1164.23 1212.4,-1160.78"/>
<text text-anchor="middle" x="1254.2" y="-957.4" font-family="Times,serif" font-size="14.00">0.0345</text>
</g>
<!-- E&#45;4&#45;&#45;F#4 -->
<g id="edge92" class="edge"><title>E&#45;4&#45;&#45;F#4</title>
<path fill="none" stroke="black" d="M1176.7,-1178.4C1168.6,-1175.6 1159.5,-1172.5 1151,-1170 1118.7,-1160.5 1110,-1160.5 1077.5,-1152 1023.1,-1137.7 960.37,-1119.9 922.47,-1109"/>
<polygon fill="black" stroke="black" points="923.039,-1105.52 912.46,-1106.1 921.091,-1112.24 923.039,-1105.52"/>
<text text-anchor="middle" x="1097.2" y="-1137.4" font-family="Times,serif" font-size="14.00">0.0172</text>
</g>
<!-- E&#45;4&#45;&#45;F4 -->
<g id="edge84" class="edge"><title>E&#45;4&#45;&#45;F4</title>
<path fill="none" stroke="black" d="M1218,-1174.5C1225.5,-1168.4 1233.6,-1160.7 1239,-1152 1247.8,-1137.9 1244.7,-1132 1249,-1116 1277.6,-1008.7 1311,-985.03 1311,-874 1311,-874 1311,-874 1311,-197 1311,-120.17 1028.3,-134.33 998,-126 996.05,-125.46 994.08,-124.83 992.11,-124.12"/>
<polygon fill="black" stroke="black" points="993.05,-120.722 982.47,-120.16 990.39,-127.197 993.05,-120.722"/>
<text text-anchor="middle" x="1330.2" y="-642.4" font-family="Times,serif" font-size="14.00">0.0172</text>
</g>
<!-- E&#45;4&#45;&#45;E&#45;5 -->
<g id="edge86" class="edge"><title>E&#45;4&#45;&#45;E&#45;5</title>
<path fill="none" stroke="black" d="M1181.2,-1174.8C1160.5,-1159.8 1130,-1132 1130,-1099 1130,-1099 1130,-1099 1130,-962 1130,-906.61 1101.3,-891.09 1053,-864 1009.3,-839.48 862.55,-832.04 793.07,-829.86"/>
<polygon fill="black" stroke="black" points="793.107,-826.36 783.01,-829.57 792.905,-833.357 793.107,-826.36"/>
<text text-anchor="middle" x="1149.2" y="-1002.4" font-family="Times,serif" font-size="14.00">0.0086</text>
</g>
<!-- E&#45;4&#45;&#45;F#5 -->
<g id="edge90" class="edge"><title>E&#45;4&#45;&#45;F#5</title>
<path fill="none" stroke="black" d="M1198.4,-1169.8C1189.3,-1075 1145.2,-620.07 1131,-594 1070.7,-483.39 1026.8,-465.87 912,-414 853.35,-387.5 777.73,-380.75 733.28,-379.21"/>
<polygon fill="black" stroke="black" points="733.314,-375.71 723.22,-378.93 733.119,-382.707 733.314,-375.71"/>
<text text-anchor="middle" x="1179.2" y="-777.4" font-family="Times,serif" font-size="14.00">0.0086</text>
</g>
<!-- E&#45;4&#45;&#45;E&#45;4 -->
<g id="edge88" class="edge"><title>E&#45;4&#45;&#45;E&#45;4</title>
<path fill="none" stroke="black" d="M1224.5,-1196.1C1235.5,-1196.9 1245,-1194.2 1245,-1188 1245,-1183.8 1240.7,-1181.3 1234.6,-1180.2"/>
<polygon fill="black" stroke="black" points="1234.6,-1176.7 1224.5,-1179.9 1234.39,-1183.7 1234.6,-1176.7"/>
<text text-anchor="middle" x="1264.2" y="-1182.4" font-family="Times,serif" font-size="14.00">0.0086</text>
</g>
<!-- F6 -->
<g id="node82" class="node"><title>F6</title>
<ellipse fill="none" stroke="black" cx="729" cy="-648" rx="27" ry="18"/>
<text text-anchor="middle" x="729" y="-642.4" font-family="Times,serif" font-size="14.00">F6</text>
</g>
<!-- E&#45;6&#45;&#45;F6 -->
<g id="edge114" class="edge"><title>E&#45;6&#45;&#45;F6</title>
<path fill="none" stroke="black" d="M729,-719.61C729,-707.24 729,-690.37 729,-676.22"/>
<polygon fill="black" stroke="black" points="732.5,-676.05 729,-666.05 725.5,-676.05 732.5,-676.05"/>
<text text-anchor="middle" x="748.25" y="-687.4" font-family="Times,serif" font-size="14.00">0.0086</text>
</g>
<!-- C#6 -->
<g id="node84" class="node"><title>C#6</title>
<ellipse fill="none" stroke="black" cx="603" cy="-648" rx="27.2698" ry="18"/>
<text text-anchor="middle" x="603" y="-642.4" font-family="Times,serif" font-size="14.00">C#6</text>
</g>
<!-- E&#45;6&#45;&#45;C#6 -->
<g id="edge116" class="edge"><title>E&#45;6&#45;&#45;C#6</title>
<path fill="none" stroke="black" d="M710.95,-724.39C689.61,-709.49 653.93,-684.57 629.48,-667.49"/>
<polygon fill="black" stroke="black" points="631.222,-664.438 621.02,-661.58 627.213,-670.176 631.222,-664.438"/>
<text text-anchor="middle" x="697.25" y="-687.4" font-family="Times,serif" font-size="14.00">0.0086</text>
</g>
<!-- B5&#45;&#45;C#6 -->
<g id="edge118" class="edge"><title>B5&#45;&#45;C#6</title>
<path fill="none" stroke="black" d="M567.62,-481.45C574.78,-487.35 582.15,-495.07 586,-504 589.16,-511.35 587.92,-514.23 586,-522 583.83,-530.78 578.67,-531.22 576.5,-540 572.65,-555.53 573.66,-560.25 576.5,-576 579.29,-591.48 585.26,-607.98 590.82,-621.18"/>
<polygon fill="black" stroke="black" points="587.711,-622.805 594.94,-630.55 594.119,-619.987 587.711,-622.805"/>
<text text-anchor="middle" x="596.25" y="-552.4" font-family="Times,serif" font-size="14.00">0.0086</text>
</g>
<!-- C#6&#45;&#45;C#5 -->
<g id="edge128" class="edge"><title>C#6&#45;&#45;C#5</title>
<path fill="none" stroke="black" d="M584.97,-661.67C565.42,-677.04 537,-704.92 537,-737 537,-919 537,-919 537,-919 537,-963.32 679.48,-991.01 748.45,-1001.8"/>
<polygon fill="black" stroke="black" points="748.033,-1005.28 758.46,-1003.4 749.138,-998.365 748.033,-1005.28"/>
<text text-anchor="middle" x="556.25" y="-822.4" font-family="Times,serif" font-size="14.00">0.0086</text>
</g>
<!-- C#6&#45;&#45;A5 -->
<g id="edge126" class="edge"><title>C#6&#45;&#45;A5</title>
<path fill="none" stroke="black" d="M611.8,-630.86C618.98,-617.71 629.22,-598.92 637.44,-583.86"/>
<polygon fill="black" stroke="black" points="640.535,-585.495 642.25,-575.04 634.389,-582.144 640.535,-585.495"/>
<text text-anchor="middle" x="651.25" y="-597.4" font-family="Times,serif" font-size="14.00">0.0259</text>
</g>
<!-- C#6&#45;&#45;F#5 -->
<g id="edge124" class="edge"><title>C#6&#45;&#45;F#5</title>
<path fill="none" stroke="black" d="M628.75,-642.42C661.93,-634.99 718.28,-616.78 743,-576 746.84,-569.67 748.26,-436.97 737,-414 733.84,-407.56 728.91,-401.85 723.54,-396.99"/>
<polygon fill="black" stroke="black" points="725.493,-394.069 715.51,-390.52 721.101,-399.52 725.493,-394.069"/>
<text text-anchor="middle" x="765.25" y="-507.4" font-family="Times,serif" font-size="14.00">0.0172</text>
</g>
<!-- C#6&#45;&#45;G#5 -->
<g id="edge122" class="edge"><title>C#6&#45;&#45;G#5</title>
<path fill="none" stroke="black" d="M580.52,-637.94C565.39,-631.48 545.23,-622.17 528.5,-612 517.26,-605.16 516.23,-600.85 505,-594 500.89,-591.49 480.43,-581.85 462.06,-573.32"/>
<polygon fill="black" stroke="black" points="463.285,-570.03 452.74,-569 460.341,-576.381 463.285,-570.03"/>
<text text-anchor="middle" x="548.25" y="-597.4" font-family="Times,serif" font-size="14.00">0.0259</text>
</g>
<!-- B4 -->
<g id="node87" class="node"><title>B4</title>
<ellipse fill="none" stroke="black" cx="1034" cy="-108" rx="27" ry="18"/>
<text text-anchor="middle" x="1034" y="-102.4" font-family="Times,serif" font-size="14.00">B4</text>
</g>
<!-- B4&#45;&#45;G#4 -->
<g id="edge120" class="edge"><title>B4&#45;&#45;G#4</title>
<path fill="none" stroke="black" d="M1021.8,-91.521C1011.7,-79.723 996.44,-63.873 980,-54 956.87,-40.109 927.66,-31.186 905.01,-25.828"/>
<polygon fill="black" stroke="black" points="905.643,-22.3832 895.12,-23.612 904.113,-29.2138 905.643,-22.3832"/>
<text text-anchor="middle" x="1022.2" y="-57.4" font-family="Times,serif" font-size="14.00">0.0086</text>
</g>
<!-- C#7 -->
<g id="node93" class="node"><title>C#7</title>
<ellipse fill="none" stroke="black" cx="1369" cy="-1278" rx="27.2698" ry="18"/>
<text text-anchor="middle" x="1369" y="-1272.4" font-family="Times,serif" font-size="14.00">C#7</text>
</g>
<!-- E7 -->
<g id="node94" class="node"><title>E7</title>
<ellipse fill="none" stroke="black" cx="1369" cy="-1188" rx="27" ry="18"/>
<text text-anchor="middle" x="1369" y="-1182.4" font-family="Times,serif" font-size="14.00">E7</text>
</g>
<!-- C#7&#45;&#45;E7 -->
<g id="edge130" class="edge"><title>C#7&#45;&#45;E7</title>
<path fill="none" stroke="black" d="M1369,-1259.6C1369,-1247.2 1369,-1230.4 1369,-1216.2"/>
<polygon fill="black" stroke="black" points="1372.5,-1216.1 1369,-1206.1 1365.5,-1216.1 1372.5,-1216.1"/>
<text text-anchor="middle" x="1388.2" y="-1227.4" font-family="Times,serif" font-size="14.00">0.0086</text>
</g>
<!-- C6 -->
<g id="node96" class="node"><title>C6</title>
<ellipse fill="none" stroke="black" cx="229" cy="-1008" rx="27" ry="18"/>
<text text-anchor="middle" x="229" y="-1002.4" font-family="Times,serif" font-size="14.00">C6</text>
</g>
<!-- C6&#45;&#45;B&#45;5 -->
<g id="edge134" class="edge"><title>C6&#45;&#45;B&#45;5</title>
<path fill="none" stroke="black" d="M244.75,-992.86C260.7,-978.54 285.56,-956.22 303.77,-939.86"/>
<polygon fill="black" stroke="black" points="306.519,-942.096 311.62,-932.81 301.841,-936.888 306.519,-942.096"/>
<text text-anchor="middle" x="306.25" y="-957.4" font-family="Times,serif" font-size="14.00">0.0086</text>
</g>
<!-- C6&#45;&#45;C5 -->
<g id="edge132" class="edge"><title>C6&#45;&#45;C5</title>
<path fill="none" stroke="black" d="M209.39,-995.6C205.37,-993.55 201.12,-991.57 197,-990 138.36,-967.7 75,-981.74 75,-919 75,-919 75,-919 75,-197 75,-111.59 386.06,-107.19 495.48,-108.28"/>
<polygon fill="black" stroke="black" points="495.676,-111.783 505.72,-108.41 495.765,-104.783 495.676,-111.783"/>
<text text-anchor="middle" x="94.25" y="-552.4" font-family="Times,serif" font-size="14.00">0.0086</text>
</g>
<!-- D5 -->
<g id="node99" class="node"><title>D5</title>
<ellipse fill="none" stroke="black" cx="722" cy="-918" rx="27" ry="18"/>
<text text-anchor="middle" x="722" y="-912.4" font-family="Times,serif" font-size="14.00">D5</text>
</g>
<!-- D5&#45;&#45;E&#45;5 -->
<g id="edge136" class="edge"><title>D5&#45;&#45;E&#45;5</title>
<path fill="none" stroke="black" d="M723.66,-899.79C725.11,-889.17 727.75,-875.44 732.5,-864 734.07,-860.23 736.06,-856.44 738.23,-852.82"/>
<polygon fill="black" stroke="black" points="741.279,-854.553 743.83,-844.27 735.423,-850.718 741.279,-854.553"/>
<text text-anchor="middle" x="752.25" y="-867.4" font-family="Times,serif" font-size="14.00">0.0086</text>
</g>
<!-- E6 -->
<g id="node101" class="node"><title>E6</title>
<ellipse fill="none" stroke="black" cx="504" cy="-558" rx="27" ry="18"/>
<text text-anchor="middle" x="504" y="-552.4" font-family="Times,serif" font-size="14.00">E6</text>
</g>
<!-- E6&#45;&#45;E5 -->
<g id="edge138" class="edge"><title>E6&#45;&#45;E5</title>
<path fill="none" stroke="black" d="M500.07,-539.87C497.35,-529.28 493.26,-515.55 488,-504 486.34,-500.36 484.36,-496.64 482.28,-493.05"/>
<polygon fill="black" stroke="black" points="485.247,-491.193 477.01,-484.53 479.294,-494.876 485.247,-491.193"/>
<text text-anchor="middle" x="514.25" y="-507.4" font-family="Times,serif" font-size="14.00">0.0086</text>
</g>
<!-- E6&#45;&#45;B5 -->
<g id="edge140" class="edge"><title>E6&#45;&#45;B5</title>
<path fill="none" stroke="black" d="M520.08,-543.41C526.22,-537.43 532.76,-529.96 537,-522 541.22,-514.07 543.97,-504.7 545.74,-496.06"/>
<polygon fill="black" stroke="black" points="549.218,-496.49 547.47,-486.04 542.32,-495.299 549.218,-496.49"/>
<text text-anchor="middle" x="563.25" y="-507.4" font-family="Times,serif" font-size="14.00">0.0086</text>
</g>
<!-- G#6 -->
<g id="node104" class="node"><title>G#6</title>
<ellipse fill="none" stroke="black" cx="488" cy="-648" rx="27.8358" ry="18"/>
<text text-anchor="middle" x="488" y="-642.4" font-family="Times,serif" font-size="14.00">G#6</text>
</g>
<!-- G#6&#45;&#45;G#5 -->
<g id="edge142" class="edge"><title>G#6&#45;&#45;G#5</title>
<path fill="none" stroke="black" d="M477.81,-631.27C469.19,-617.96 456.7,-598.67 446.78,-583.37"/>
<polygon fill="black" stroke="black" points="449.663,-581.382 441.29,-574.89 443.787,-585.187 449.663,-581.382"/>
<text text-anchor="middle" x="484.25" y="-597.4" font-family="Times,serif" font-size="14.00">0.0172</text>
</g>
</g>
</svg>
