<?xml version="1.0" encoding="UTF-8" standalone="no"?>
<!DOCTYPE svg PUBLIC "-//W3C//DTD SVG 1.1//EN"
 "http://www.w3.org/Graphics/SVG/1.1/DTD/svg11.dtd">
<!-- Generated by graphviz version 2.28.0 (20121019.2215)
 -->
<!-- Title: _anonymous_0 Pages: 1 -->
<svg width="2338pt" height="2132pt"
 viewBox="0.00 0.00 2338.45 2132.00" xmlns="http://www.w3.org/2000/svg" xmlns:xlink="http://www.w3.org/1999/xlink">
<g id="graph1" class="graph" transform="scale(1 1) rotate(0) translate(4 2128)">
<title>_anonymous_0</title>
<polygon fill="white" stroke="white" points="-4,5 -4,-2128 2335.45,-2128 2335.45,5 -4,5"/>
<!-- A3 -->
<g id="node1" class="node"><title>A3</title>
<ellipse fill="none" stroke="black" cx="1836" cy="-2016" rx="27" ry="18"/>
<text text-anchor="middle" x="1836" y="-2010.4" font-family="Times,serif" font-size="14.00">A3</text>
</g>
<!-- F#3 -->
<g id="node2" class="node"><title>F#3</title>
<ellipse fill="none" stroke="black" cx="1699" cy="-1926" rx="27" ry="18"/>
<text text-anchor="middle" x="1699" y="-1920.4" font-family="Times,serif" font-size="14.00">F#3</text>
</g>
<!-- A3&#45;&#45;F#3 -->
<g id="edge2" class="edge"><title>A3&#45;&#45;F#3</title>
<path fill="none" stroke="black" d="M1817.2,-2002.9C1793.8,-1987.9 1753.5,-1962 1726.6,-1944.7"/>
<polygon fill="black" stroke="black" points="1728.31,-1941.64 1718,-1939.2 1724.54,-1947.54 1728.31,-1941.64"/>
<text text-anchor="middle" x="1799.2" y="-1965.4" font-family="Times,serif" font-size="14.00">0.0036</text>
</g>
<!-- C#4 -->
<g id="node4" class="node"><title>C#4</title>
<ellipse fill="none" stroke="black" cx="1733" cy="-468" rx="27.2698" ry="18"/>
<text text-anchor="middle" x="1733" y="-462.4" font-family="Times,serif" font-size="14.00">C#4</text>
</g>
<!-- A3&#45;&#45;C#4 -->
<g id="edge4" class="edge"><title>A3&#45;&#45;C#4</title>
<path fill="none" stroke="black" d="M1861.4,-2009.8C1883.9,-2004.4 1917,-1994.8 1943,-1980 2040,-1924.5 2110,-1903.8 2110,-1792 2110,-1792 2110,-1792 2110,-1610 2110,-1532.5 2136.5,-1516.5 2149,-1440 2165.5,-1339.1 2194,-1084.3 2194,-982 2194,-982 2194,-982 2194,-800 2194,-761.16 2040.7,-524.9 2008,-504 1969.4,-479.35 1836.1,-472 1770.3,-469.86"/>
<polygon fill="black" stroke="black" points="1770.1,-466.353 1760,-469.55 1769.89,-473.349 1770.1,-466.353"/>
<text text-anchor="middle" x="2194.2" y="-1245.4" font-family="Times,serif" font-size="14.00">0.0036</text>
</g>
<!-- F#3&#45;&#45;F#3 -->
<g id="edge8" class="edge"><title>F#3&#45;&#45;F#3</title>
<path fill="none" stroke="black" d="M1723.5,-1934.1C1734.5,-1934.9 1744,-1932.2 1744,-1926 1744,-1921.8 1739.7,-1919.3 1733.6,-1918.2"/>
<polygon fill="black" stroke="black" points="1733.6,-1914.7 1723.5,-1917.9 1733.39,-1921.7 1733.6,-1914.7"/>
<text text-anchor="middle" x="1763.2" y="-1920.4" font-family="Times,serif" font-size="14.00">0.0036</text>
</g>
<!-- E&#45;4 -->
<g id="node6" class="node"><title>E&#45;4</title>
<ellipse fill="none" stroke="black" cx="1717" cy="-1656" rx="27" ry="18"/>
<text text-anchor="middle" x="1717" y="-1650.4" font-family="Times,serif" font-size="14.00">E&#45;4</text>
</g>
<!-- F#3&#45;&#45;E&#45;4 -->
<g id="edge6" class="edge"><title>F#3&#45;&#45;E&#45;4</title>
<path fill="none" stroke="black" d="M1707,-1908.6C1709.4,-1902.9 1711.7,-1896.3 1713,-1890 1727.7,-1816.9 1723.3,-1728.2 1719.7,-1684.3"/>
<polygon fill="black" stroke="black" points="1723.17,-1683.85 1718.8,-1674.2 1716.2,-1684.47 1723.17,-1683.85"/>
<text text-anchor="middle" x="1743.2" y="-1785.4" font-family="Times,serif" font-size="14.00">0.0036</text>
</g>
<!-- G#3 -->
<g id="node9" class="node"><title>G#3</title>
<ellipse fill="none" stroke="black" cx="1396" cy="-1836" rx="27.8358" ry="18"/>
<text text-anchor="middle" x="1396" y="-1830.4" font-family="Times,serif" font-size="14.00">G#3</text>
</g>
<!-- F#3&#45;&#45;G#3 -->
<g id="edge10" class="edge"><title>F#3&#45;&#45;G#3</title>
<path fill="none" stroke="black" d="M1674.7,-1917.9C1621.1,-1902.4 1492.5,-1865 1430.5,-1847"/>
<polygon fill="black" stroke="black" points="1431.38,-1843.61 1420.8,-1844.2 1429.44,-1850.34 1431.38,-1843.61"/>
<text text-anchor="middle" x="1594.2" y="-1875.4" font-family="Times,serif" font-size="14.00">0.0036</text>
</g>
<!-- C#4&#45;&#45;F#3 -->
<g id="edge16" class="edge"><title>C#4&#45;&#45;F#3</title>
<path fill="none" stroke="black" d="M1760.2,-470.28C1815.2,-473.31 1937.8,-482.34 1973,-504 2005.9,-524.21 2023,-536.4 2023,-575 2023,-1207 2023,-1207 2023,-1207 2023,-1346.1 2030,-1380.9 2030,-1520 2030,-1747 2030,-1747 2030,-1747 2030,-1775.5 2016,-1781.9 1994,-1800 1913.7,-1865.9 1793.5,-1902.2 1734.4,-1917"/>
<polygon fill="black" stroke="black" points="1733.39,-1913.64 1724.5,-1919.4 1735.04,-1920.45 1733.39,-1913.64"/>
<text text-anchor="middle" x="2043.2" y="-1200.4" font-family="Times,serif" font-size="14.00">0.0036</text>
</g>
<!-- C#4&#45;&#45;E&#45;4 -->
<g id="edge14" class="edge"><title>C#4&#45;&#45;E&#45;4</title>
<path fill="none" stroke="black" d="M1737.5,-486.12C1742.5,-506.97 1750,-543.32 1750,-575 1750,-847 1750,-847 1750,-847 1750,-950.57 1741.7,-976.49 1745.5,-1080 1748.3,-1155.7 1758,-1174.2 1758,-1250 1758,-1432 1758,-1432 1758,-1432 1758,-1515.6 1793,-1544.1 1758,-1620 1755,-1626.5 1750.1,-1632.3 1744.8,-1637.1"/>
<polygon fill="black" stroke="black" points="1742.31,-1634.61 1736.7,-1643.6 1746.69,-1640.07 1742.31,-1634.61"/>
<text text-anchor="middle" x="1765.2" y="-1065.4" font-family="Times,serif" font-size="14.00">0.0036</text>
</g>
<!-- C#4&#45;&#45;G#3 -->
<g id="edge24" class="edge"><title>C#4&#45;&#45;G#3</title>
<path fill="none" stroke="black" d="M1760.4,-468.36C1825.8,-468.4 1985,-478.41 1985,-575 1985,-1072 1985,-1072 1985,-1072 1985,-1108.1 1975.9,-1116.3 1970.5,-1152 1958,-1235.2 1948,-1255.8 1948,-1340 1948,-1612 1948,-1612 1948,-1612 1948,-1777.3 1786.5,-1756.3 1627,-1800 1560,-1818.3 1479.4,-1827.8 1433.2,-1832.1"/>
<polygon fill="black" stroke="black" points="1432.75,-1828.63 1423.1,-1833 1433.37,-1835.6 1432.75,-1828.63"/>
<text text-anchor="middle" x="1990.2" y="-1155.4" font-family="Times,serif" font-size="14.00">0.0107</text>
</g>
<!-- B&#45;2 -->
<g id="node11" class="node"><title>B&#45;2</title>
<ellipse fill="none" stroke="black" cx="1733" cy="-378" rx="27" ry="18"/>
<text text-anchor="middle" x="1733" y="-372.4" font-family="Times,serif" font-size="14.00">B&#45;2</text>
</g>
<!-- C#4&#45;&#45;B&#45;2 -->
<g id="edge12" class="edge"><title>C#4&#45;&#45;B&#45;2</title>
<path fill="none" stroke="black" d="M1733,-449.61C1733,-437.24 1733,-420.37 1733,-406.22"/>
<polygon fill="black" stroke="black" points="1736.5,-406.05 1733,-396.05 1729.5,-406.05 1736.5,-406.05"/>
<text text-anchor="middle" x="1752.2" y="-417.4" font-family="Times,serif" font-size="14.00">0.0036</text>
</g>
<!-- F2 -->
<g id="node15" class="node"><title>F2</title>
<ellipse fill="none" stroke="black" cx="1216" cy="-1476" rx="27" ry="18"/>
<text text-anchor="middle" x="1216" y="-1470.4" font-family="Times,serif" font-size="14.00">F2</text>
</g>
<!-- C#4&#45;&#45;F2 -->
<g id="edge18" class="edge"><title>C#4&#45;&#45;F2</title>
<path fill="none" stroke="black" d="M1721.1,-484.18C1706.9,-503.93 1685,-540.05 1685,-575 1685,-712 1685,-712 1685,-712 1685,-783.84 1667.1,-802.5 1630,-864 1596.4,-919.61 1561.4,-914.3 1531.5,-972 1497.6,-1037.5 1511.9,-1062 1496,-1134 1487.2,-1174 1490,-1185.5 1476,-1224 1454.5,-1283.2 1453.4,-1303.4 1411,-1350 1363.4,-1402.3 1289.2,-1441.7 1247.4,-1461.3"/>
<polygon fill="black" stroke="black" points="1245.91,-1458.13 1238.3,-1465.5 1248.85,-1464.49 1245.91,-1458.13"/>
<text text-anchor="middle" x="1551.2" y="-975.4" font-family="Times,serif" font-size="14.00">0.0071</text>
</g>
<!-- E4 -->
<g id="node17" class="node"><title>E4</title>
<ellipse fill="none" stroke="black" cx="1078" cy="-1116" rx="27" ry="18"/>
<text text-anchor="middle" x="1078" y="-1110.4" font-family="Times,serif" font-size="14.00">E4</text>
</g>
<!-- C#4&#45;&#45;E4 -->
<g id="edge20" class="edge"><title>C#4&#45;&#45;E4</title>
<path fill="none" stroke="black" d="M1707.5,-474.77C1686.5,-480.25 1656.4,-489.77 1633,-504 1593.1,-528.24 1503.4,-607.57 1480,-648 1463.6,-676.47 1476.6,-690.07 1463,-720 1400.7,-856.91 1361.4,-879.87 1259,-990 1218.5,-1033.5 1210.7,-1048.9 1160,-1080 1144.7,-1089.4 1126.5,-1097.4 1111.2,-1103.4"/>
<polygon fill="black" stroke="black" points="1109.6,-1100.27 1101.5,-1107.1 1112.09,-1106.81 1109.6,-1100.27"/>
<text text-anchor="middle" x="1446.2" y="-795.4" font-family="Times,serif" font-size="14.00">0.0036</text>
</g>
<!-- C4 -->
<g id="node19" class="node"><title>C4</title>
<ellipse fill="none" stroke="black" cx="1440" cy="-1206" rx="27" ry="18"/>
<text text-anchor="middle" x="1440" y="-1200.4" font-family="Times,serif" font-size="14.00">C4</text>
</g>
<!-- C#4&#45;&#45;C4 -->
<g id="edge22" class="edge"><title>C#4&#45;&#45;C4</title>
<path fill="none" stroke="black" d="M1709.6,-477.36C1696.6,-483.06 1681.1,-491.81 1671,-504 1649.8,-529.66 1647,-541.69 1647,-575 1647,-712 1647,-712 1647,-712 1647,-851.88 1482,-840.12 1482,-980 1482,-1117 1482,-1117 1482,-1117 1482,-1140.6 1469.5,-1164.7 1458.1,-1181.6"/>
<polygon fill="black" stroke="black" points="1455.23,-1179.59 1452.4,-1189.8 1460.98,-1183.59 1455.23,-1179.59"/>
<text text-anchor="middle" x="1607.2" y="-840.4" font-family="Times,serif" font-size="14.00">0.0036</text>
</g>
<!-- F4 -->
<g id="node22" class="node"><title>F4</title>
<ellipse fill="none" stroke="black" cx="1312" cy="-1746" rx="27" ry="18"/>
<text text-anchor="middle" x="1312" y="-1740.4" font-family="Times,serif" font-size="14.00">F4</text>
</g>
<!-- C#4&#45;&#45;F4 -->
<g id="edge26" class="edge"><title>C#4&#45;&#45;F4</title>
<path fill="none" stroke="black" d="M1760.1,-470.15C1817.7,-474.21 1947,-492.49 1947,-575 1947,-892 1947,-892 1947,-892 1947,-1091.8 1910,-1140.2 1910,-1340 1910,-1612 1910,-1612 1910,-1612 1910,-1727.3 1480.7,-1742.7 1349.6,-1744.7"/>
<polygon fill="black" stroke="black" points="1349.13,-1741.21 1339.2,-1744.9 1349.27,-1748.21 1349.13,-1741.21"/>
<text text-anchor="middle" x="1951.2" y="-1110.4" font-family="Times,serif" font-size="14.00">0.0214</text>
</g>
<!-- F#4 -->
<g id="node26" class="node"><title>F#4</title>
<ellipse fill="none" stroke="black" cx="1216" cy="-1566" rx="27" ry="18"/>
<text text-anchor="middle" x="1216" y="-1560.4" font-family="Times,serif" font-size="14.00">F#4</text>
</g>
<!-- E&#45;4&#45;&#45;F#4 -->
<g id="edge72" class="edge"><title>E&#45;4&#45;&#45;F#4</title>
<path fill="none" stroke="black" d="M1691.1,-1650.5C1608,-1635.8 1347.5,-1590.1 1251.8,-1573.3"/>
<polygon fill="black" stroke="black" points="1252.16,-1569.81 1241.7,-1571.5 1250.93,-1576.7 1252.16,-1569.81"/>
<text text-anchor="middle" x="1531.2" y="-1605.4" font-family="Times,serif" font-size="14.00">0.0107</text>
</g>
<!-- G4 -->
<g id="node55" class="node"><title>G4</title>
<ellipse fill="none" stroke="black" cx="1717" cy="-1566" rx="27" ry="18"/>
<text text-anchor="middle" x="1717" y="-1560.4" font-family="Times,serif" font-size="14.00">G4</text>
</g>
<!-- E&#45;4&#45;&#45;G4 -->
<g id="edge74" class="edge"><title>E&#45;4&#45;&#45;G4</title>
<path fill="none" stroke="black" d="M1717,-1637.6C1717,-1625.2 1717,-1608.4 1717,-1594.2"/>
<polygon fill="black" stroke="black" points="1720.5,-1594.1 1717,-1584.1 1713.5,-1594.1 1720.5,-1594.1"/>
<text text-anchor="middle" x="1736.2" y="-1605.4" font-family="Times,serif" font-size="14.00">0.0036</text>
</g>
<!-- G#3&#45;&#45;E&#45;4 -->
<g id="edge36" class="edge"><title>G#3&#45;&#45;E&#45;4</title>
<path fill="none" stroke="black" d="M1423,-1832.7C1471.4,-1828.3 1570.3,-1817.3 1600,-1800 1648.4,-1771.8 1685.3,-1715.5 1703.8,-1682.5"/>
<polygon fill="black" stroke="black" points="1706.99,-1683.96 1708.7,-1673.5 1700.84,-1680.61 1706.99,-1683.96"/>
<text text-anchor="middle" x="1693.2" y="-1740.4" font-family="Times,serif" font-size="14.00">0.0142</text>
</g>
<!-- G#3&#45;&#45;C4 -->
<g id="edge42" class="edge"><title>G#3&#45;&#45;C4</title>
<path fill="none" stroke="black" d="M1416.2,-1823.7C1424.5,-1817.8 1433.4,-1809.8 1438,-1800 1462,-1749.4 1438.6,-1730 1439,-1674 1440.4,-1490 1441.3,-1444 1442,-1260 1442,-1252 1442.2,-1250 1442,-1242 1441.9,-1239.4 1441.8,-1236.8 1441.7,-1234.1"/>
<polygon fill="black" stroke="black" points="1445.2,-1233.91 1441.2,-1224.1 1438.2,-1234.26 1445.2,-1233.91"/>
<text text-anchor="middle" x="1460.2" y="-1515.4" font-family="Times,serif" font-size="14.00">0.0107</text>
</g>
<!-- G#3&#45;&#45;F4 -->
<g id="edge44" class="edge"><title>G#3&#45;&#45;F4</title>
<path fill="none" stroke="black" d="M1382.1,-1820.5C1368.8,-1806.5 1348.3,-1785.1 1333,-1769"/>
<polygon fill="black" stroke="black" points="1335.35,-1766.39 1325.9,-1761.6 1330.3,-1771.24 1335.35,-1766.39"/>
<text text-anchor="middle" x="1381.2" y="-1785.4" font-family="Times,serif" font-size="14.00">0.0036</text>
</g>
<!-- E&#45;3 -->
<g id="node32" class="node"><title>E&#45;3</title>
<ellipse fill="none" stroke="black" cx="2118" cy="-198" rx="27" ry="18"/>
<text text-anchor="middle" x="2118" y="-192.4" font-family="Times,serif" font-size="14.00">E&#45;3</text>
</g>
<!-- G#3&#45;&#45;E&#45;3 -->
<g id="edge38" class="edge"><title>G#3&#45;&#45;E&#45;3</title>
<path fill="none" stroke="black" d="M1423.6,-1834.8C1540.8,-1833.4 1992,-1820.1 1992,-1702 1992,-1702 1992,-1702 1992,-1520 1992,-1384.4 2042.7,-1357.6 2066,-1224 2119.9,-915.52 2137,-836.15 2137,-523 2137,-523 2137,-523 2137,-287 2137,-266.03 2131.8,-242.87 2126.8,-225.58"/>
<polygon fill="black" stroke="black" points="2130.04,-224.202 2123.8,-215.64 2123.34,-226.225 2130.04,-224.202"/>
<text text-anchor="middle" x="2123.2" y="-1020.4" font-family="Times,serif" font-size="14.00">0.0285</text>
</g>
<!-- B3 -->
<g id="node34" class="node"><title>B3</title>
<ellipse fill="none" stroke="black" cx="1020" cy="-576" rx="27" ry="18"/>
<text text-anchor="middle" x="1020" y="-570.4" font-family="Times,serif" font-size="14.00">B3</text>
</g>
<!-- G#3&#45;&#45;B3 -->
<g id="edge40" class="edge"><title>G#3&#45;&#45;B3</title>
<path fill="none" stroke="black" d="M1368.5,-1835.2C1260.4,-1836 865.13,-1836 746,-1800 715.87,-1790.9 703.04,-1789.8 685,-1764 574.91,-1606.6 616.88,-1506.6 697,-1332 719.57,-1282.8 738.79,-1278.2 779,-1242 792.79,-1229.6 1038.3,-1059.8 1048,-1044 1119.4,-926.71 1119.3,-872.39 1091,-738 1080.3,-687.07 1052.4,-632.62 1034.9,-601.89"/>
<polygon fill="black" stroke="black" points="1037.9,-600.092 1029.9,-593.15 1031.83,-603.568 1037.9,-600.092"/>
<text text-anchor="middle" x="873.25" y="-1200.4" font-family="Times,serif" font-size="14.00">0.0107</text>
</g>
<!-- B&#45;2&#45;&#45;E&#45;4 -->
<g id="edge58" class="edge"><title>B&#45;2&#45;&#45;E&#45;4</title>
<path fill="none" stroke="black" d="M1756.9,-386.38C1789,-397.93 1842,-423.59 1842,-467 1842,-757 1842,-757 1842,-757 1842,-856.17 1834,-880.83 1834,-980 1834,-1567 1834,-1567 1834,-1567 1834,-1608.6 1786.1,-1633 1751.6,-1645.2"/>
<polygon fill="black" stroke="black" points="1750.22,-1641.97 1741.8,-1648.4 1752.39,-1648.62 1750.22,-1641.97"/>
<text text-anchor="middle" x="1853.2" y="-1020.4" font-family="Times,serif" font-size="14.00">0.0036</text>
</g>
<!-- B&#45;2&#45;&#45;E&#45;3 -->
<g id="edge62" class="edge"><title>B&#45;2&#45;&#45;E&#45;3</title>
<path fill="none" stroke="black" d="M1754.5,-367.05C1819.1,-337.2 2011.3,-248.33 2086.9,-213.36"/>
<polygon fill="black" stroke="black" points="2088.78,-216.349 2096.4,-208.99 2085.85,-209.989 2088.78,-216.349"/>
<text text-anchor="middle" x="1983.2" y="-282.4" font-family="Times,serif" font-size="14.00">0.0071</text>
</g>
<!-- G#2 -->
<g id="node43" class="node"><title>G#2</title>
<ellipse fill="none" stroke="black" cx="811" cy="-288" rx="27.8358" ry="18"/>
<text text-anchor="middle" x="811" y="-282.4" font-family="Times,serif" font-size="14.00">G#2</text>
</g>
<!-- B&#45;2&#45;&#45;G#2 -->
<g id="edge60" class="edge"><title>B&#45;2&#45;&#45;G#2</title>
<path fill="none" stroke="black" d="M1706.1,-375.93C1577.1,-370.64 1021.4,-345.87 853,-306 849.53,-305.18 845.97,-304.11 842.46,-302.92"/>
<polygon fill="black" stroke="black" points="843.412,-299.539 832.82,-299.29 840.945,-306.09 843.412,-299.539"/>
<text text-anchor="middle" x="1147.2" y="-327.4" font-family="Times,serif" font-size="14.00">0.0036</text>
</g>
<!-- E&#45;2 -->
<g id="node49" class="node"><title>E&#45;2</title>
<ellipse fill="none" stroke="black" cx="1123" cy="-198" rx="27" ry="18"/>
<text text-anchor="middle" x="1123" y="-192.4" font-family="Times,serif" font-size="14.00">E&#45;2</text>
</g>
<!-- B&#45;2&#45;&#45;E&#45;2 -->
<g id="edge64" class="edge"><title>B&#45;2&#45;&#45;E&#45;2</title>
<path fill="none" stroke="black" d="M1708.7,-369.91C1613.7,-342.2 1267.3,-241.11 1157,-208.92"/>
<polygon fill="black" stroke="black" points="1157.98,-205.56 1147.4,-206.11 1156.01,-212.278 1157.98,-205.56"/>
<text text-anchor="middle" x="1508.2" y="-282.4" font-family="Times,serif" font-size="14.00">0.0036</text>
</g>
<!-- F2&#45;&#45;E&#45;2 -->
<g id="edge76" class="edge"><title>F2&#45;&#45;E&#45;2</title>
<path fill="none" stroke="black" d="M1221.5,-1458.1C1223.2,-1452.4 1224.9,-1446 1226,-1440 1234.3,-1397 1236,-1385.8 1236,-1342 1236,-1342 1236,-1342 1236,-1160 1236,-1052.4 1256.9,-1022.9 1233,-918 1219.4,-858.63 1123,-727.9 1123,-667 1123,-667 1123,-667 1123,-287 1123,-266.63 1123,-243.61 1123,-226.22"/>
<polygon fill="black" stroke="black" points="1126.5,-226.2 1123,-216.2 1119.5,-226.2 1126.5,-226.2"/>
<text text-anchor="middle" x="1230.2" y="-840.4" font-family="Times,serif" font-size="14.00">0.0036</text>
</g>
<!-- C3 -->
<g id="node58" class="node"><title>C3</title>
<ellipse fill="none" stroke="black" cx="1181" cy="-1386" rx="27" ry="18"/>
<text text-anchor="middle" x="1181" y="-1380.4" font-family="Times,serif" font-size="14.00">C3</text>
</g>
<!-- F2&#45;&#45;C3 -->
<g id="edge78" class="edge"><title>F2&#45;&#45;C3</title>
<path fill="none" stroke="black" d="M1201.2,-1460.6C1196,-1454.7 1190.7,-1447.5 1187.5,-1440 1184.1,-1432.1 1182.3,-1422.9 1181.4,-1414.5"/>
<polygon fill="black" stroke="black" points="1184.88,-1414.04 1180.7,-1404.3 1177.89,-1414.52 1184.88,-1414.04"/>
<text text-anchor="middle" x="1207.2" y="-1425.4" font-family="Times,serif" font-size="14.00">0.0071</text>
</g>
<!-- E4&#45;&#45;G#3 -->
<g id="edge32" class="edge"><title>E4&#45;&#45;G#3</title>
<path fill="none" stroke="black" d="M1063.2,-1131.2C992.17,-1199.5 689,-1492.5 689,-1520 689,-1747 689,-1747 689,-1747 689,-1815.1 1212.3,-1831.2 1358.5,-1834.3"/>
<polygon fill="black" stroke="black" points="1358.63,-1837.8 1368.7,-1834.5 1358.77,-1830.8 1358.63,-1837.8"/>
<text text-anchor="middle" x="755.25" y="-1470.4" font-family="Times,serif" font-size="14.00">0.0036</text>
</g>
<!-- G#4 -->
<g id="node24" class="node"><title>G#4</title>
<ellipse fill="none" stroke="black" cx="455" cy="-666" rx="27.8358" ry="18"/>
<text text-anchor="middle" x="455" y="-660.4" font-family="Times,serif" font-size="14.00">G#4</text>
</g>
<!-- E4&#45;&#45;G#4 -->
<g id="edge28" class="edge"><title>E4&#45;&#45;G#4</title>
<path fill="none" stroke="black" d="M1057.7,-1103.9C972.75,-1057.5 649.37,-880.55 631,-864 601.86,-837.76 603.7,-823.24 580,-792 548.88,-750.96 545,-736.76 507,-702 500,-695.6 491.74,-689.49 483.88,-684.23"/>
<polygon fill="black" stroke="black" points="485.58,-681.162 475.28,-678.68 481.784,-687.043 485.58,-681.162"/>
<text text-anchor="middle" x="709.25" y="-885.4" font-family="Times,serif" font-size="14.00">0.0107</text>
</g>
<!-- E4&#45;&#45;F#4 -->
<g id="edge30" class="edge"><title>E4&#45;&#45;F#4</title>
<path fill="none" stroke="black" d="M1067.2,-1132.9C1047.8,-1163.1 1009,-1231.4 1009,-1295 1009,-1477 1009,-1477 1009,-1477 1009,-1513.8 1121.4,-1544.2 1180.6,-1557.6"/>
<polygon fill="black" stroke="black" points="1180.08,-1561.07 1190.6,-1559.8 1181.59,-1554.23 1180.08,-1561.07"/>
<text text-anchor="middle" x="1028.2" y="-1335.4" font-family="Times,serif" font-size="14.00">0.0071</text>
</g>
<!-- B4 -->
<g id="node29" class="node"><title>B4</title>
<ellipse fill="none" stroke="black" cx="1012" cy="-1026" rx="27" ry="18"/>
<text text-anchor="middle" x="1012" y="-1020.4" font-family="Times,serif" font-size="14.00">B4</text>
</g>
<!-- E4&#45;&#45;B4 -->
<g id="edge34" class="edge"><title>E4&#45;&#45;B4</title>
<path fill="none" stroke="black" d="M1066.5,-1099.7C1056.3,-1086.1 1041.4,-1066.2 1029.7,-1050.6"/>
<polygon fill="black" stroke="black" points="1032.38,-1048.33 1023.6,-1042.4 1026.76,-1052.51 1032.38,-1048.33"/>
<text text-anchor="middle" x="1070.2" y="-1065.4" font-family="Times,serif" font-size="14.00">0.0036</text>
</g>
<!-- C4&#45;&#45;E&#45;4 -->
<g id="edge66" class="edge"><title>C4&#45;&#45;E&#45;4</title>
<path fill="none" stroke="black" d="M1455.4,-1221.3C1461.5,-1227.4 1468.5,-1234.7 1474,-1242 1527.7,-1312.4 1660.1,-1551.3 1703.2,-1629.8"/>
<polygon fill="black" stroke="black" points="1700.35,-1631.89 1708.2,-1639 1706.5,-1628.54 1700.35,-1631.89"/>
<text text-anchor="middle" x="1615.2" y="-1425.4" font-family="Times,serif" font-size="14.00">0.0071</text>
</g>
<!-- C4&#45;&#45;E4 -->
<g id="edge68" class="edge"><title>C4&#45;&#45;E4</title>
<path fill="none" stroke="black" d="M1415.1,-1199C1352.1,-1183.6 1186,-1143.2 1113.1,-1125.5"/>
<polygon fill="black" stroke="black" points="1113.64,-1122.03 1103.1,-1123.1 1112.01,-1128.84 1113.64,-1122.03"/>
<text text-anchor="middle" x="1311.2" y="-1155.4" font-family="Times,serif" font-size="14.00">0.0036</text>
</g>
<!-- C4&#45;&#45;F4 -->
<g id="edge70" class="edge"><title>C4&#45;&#45;F4</title>
<path fill="none" stroke="black" d="M1435.1,-1224C1423.5,-1264.3 1393.7,-1369.4 1372.5,-1458 1349.7,-1553.2 1327,-1667.4 1317.1,-1718.2"/>
<polygon fill="black" stroke="black" points="1313.65,-1717.62 1315.2,-1728.1 1320.52,-1718.94 1313.65,-1717.62"/>
<text text-anchor="middle" x="1392.2" y="-1470.4" font-family="Times,serif" font-size="14.00">0.0142</text>
</g>
<!-- F4&#45;&#45;E&#45;4 -->
<g id="edge52" class="edge"><title>F4&#45;&#45;E&#45;4</title>
<path fill="none" stroke="black" d="M1337.7,-1740.1C1372,-1733.6 1434.7,-1721.5 1488,-1710 1557,-1695.2 1637.4,-1676.2 1682.2,-1665.4"/>
<polygon fill="black" stroke="black" points="1683.06,-1668.79 1692,-1663.1 1681.46,-1661.98 1683.06,-1668.79"/>
<text text-anchor="middle" x="1583.2" y="-1695.4" font-family="Times,serif" font-size="14.00">0.0036</text>
</g>
<!-- F4&#45;&#45;F4 -->
<g id="edge56" class="edge"><title>F4&#45;&#45;F4</title>
<path fill="none" stroke="black" d="M1336.5,-1754.1C1347.5,-1754.9 1357,-1752.2 1357,-1746 1357,-1741.8 1352.7,-1739.3 1346.6,-1738.2"/>
<polygon fill="black" stroke="black" points="1346.6,-1734.7 1336.5,-1737.9 1346.39,-1741.7 1346.6,-1734.7"/>
<text text-anchor="middle" x="1376.2" y="-1740.4" font-family="Times,serif" font-size="14.00">0.0036</text>
</g>
<!-- F4&#45;&#45;G#4 -->
<g id="edge48" class="edge"><title>F4&#45;&#45;G#4</title>
<path fill="none" stroke="black" d="M1284.8,-1744.6C1174.6,-1742.7 765.38,-1734 713,-1710 642.15,-1677.5 638.09,-1646.1 591,-1584 535.05,-1510.2 522.13,-1489.3 486,-1404 430.36,-1272.7 375.22,-916.16 364,-774 362.74,-758.05 358.55,-753.04 364,-738 371.09,-718.42 378.05,-715.39 394,-702 403.09,-694.37 414.08,-687.48 424.21,-681.88"/>
<polygon fill="black" stroke="black" points="426,-684.892 433.19,-677.11 422.717,-678.71 426,-684.892"/>
<text text-anchor="middle" x="454.25" y="-1200.4" font-family="Times,serif" font-size="14.00">0.0036</text>
</g>
<!-- F4&#45;&#45;F#4 -->
<g id="edge50" class="edge"><title>F4&#45;&#45;F#4</title>
<path fill="none" stroke="black" d="M1299.1,-1730C1287.7,-1716.1 1271.1,-1694.6 1259.5,-1674 1244.8,-1647.9 1232.5,-1615.8 1224.7,-1593.6"/>
<polygon fill="black" stroke="black" points="1227.93,-1592.24 1221.4,-1583.9 1221.31,-1594.49 1227.93,-1592.24"/>
<text text-anchor="middle" x="1279.2" y="-1650.4" font-family="Times,serif" font-size="14.00">0.0036</text>
</g>
<!-- C5 -->
<g id="node38" class="node"><title>C5</title>
<ellipse fill="none" stroke="black" cx="633" cy="-468" rx="27" ry="18"/>
<text text-anchor="middle" x="633" y="-462.4" font-family="Times,serif" font-size="14.00">C5</text>
</g>
<!-- F4&#45;&#45;C5 -->
<g id="edge46" class="edge"><title>F4&#45;&#45;C5</title>
<path fill="none" stroke="black" d="M1285.1,-1742.5C1156,-1729.9 605,-1667.4 605,-1522 605,-1522 605,-1522 605,-1160 605,-971.13 532.27,-925.5 555,-738 566.12,-646.26 603.72,-542.47 622.35,-495.09"/>
<polygon fill="black" stroke="black" points="625.681,-496.185 626.13,-485.6 619.178,-493.595 625.681,-496.185"/>
<text text-anchor="middle" x="624.25" y="-1110.4" font-family="Times,serif" font-size="14.00">0.0036</text>
</g>
<!-- F4&#45;&#45;G#2 -->
<g id="edge54" class="edge"><title>F4&#45;&#45;G#2</title>
<path fill="none" stroke="black" d="M1284.8,-1744.4C1170.9,-1741.6 735.03,-1729.9 677,-1710 521.44,-1656.7 526.35,-1558.1 469,-1404 408,-1240.1 216.46,-819.66 250,-648 265.34,-569.48 333.61,-355.86 407,-324 472.25,-295.67 686.21,-290.26 773.46,-289.23"/>
<polygon fill="black" stroke="black" points="773.725,-292.728 783.69,-289.13 773.656,-285.728 773.725,-292.728"/>
<text text-anchor="middle" x="349.25" y="-1020.4" font-family="Times,serif" font-size="14.00">0.0071</text>
</g>
<!-- G#4&#45;&#45;F#3 -->
<g id="edge136" class="edge"><title>G#4&#45;&#45;F#3</title>
<path fill="none" stroke="black" d="M428.97,-671.82C406.86,-676.8 374.99,-686.13 351,-702 260.64,-761.77 266.13,-813.37 238,-918 181.61,-1127.7 240.2,-1193.2 188,-1404 164.27,-1499.8 105,-1511.3 105,-1610 105,-1837 105,-1837 105,-1837 105,-1941.5 230.37,-1876.8 334,-1890 601.44,-1924 1471.2,-1925.2 1661.8,-1925.1"/>
<polygon fill="black" stroke="black" points="1661.9,-1928.6 1671.9,-1925.1 1661.9,-1921.6 1661.9,-1928.6"/>
<text text-anchor="middle" x="229.25" y="-1290.4" font-family="Times,serif" font-size="14.00">0.0036</text>
</g>
<!-- G#4&#45;&#45;G#3 -->
<g id="edge144" class="edge"><title>G#4&#45;&#45;G#3</title>
<path fill="none" stroke="black" d="M429.04,-671.69C410.27,-676.35 385.57,-685.32 370,-702 275.25,-803.5 325.09,-870.33 307,-1008 292.37,-1119.3 260.84,-1151.5 289.5,-1260 311.68,-1344 386,-1343.1 386,-1430 386,-1747 386,-1747 386,-1747 386,-1800.5 442.16,-1786.9 494,-1800 578.57,-1821.4 1198.2,-1832 1358.3,-1834.5"/>
<polygon fill="black" stroke="black" points="1358.57,-1838 1368.6,-1834.6 1358.63,-1831 1358.57,-1838"/>
<text text-anchor="middle" x="309.25" y="-1245.4" font-family="Times,serif" font-size="14.00">0.0036</text>
</g>
<!-- G#4&#45;&#45;F2 -->
<g id="edge140" class="edge"><title>G#4&#45;&#45;F2</title>
<path fill="none" stroke="black" d="M465.91,-682.54C489.58,-716.11 547.63,-797.69 599,-864 681.39,-970.34 722.8,-982.04 791,-1098 830.25,-1164.7 799.69,-1205.8 855,-1260 920.71,-1324.3 969.73,-1285.4 1049,-1332 1079.9,-1350.2 1155.6,-1418.9 1193.5,-1454"/>
<polygon fill="black" stroke="black" points="1191.3,-1456.74 1201,-1461 1196.08,-1451.62 1191.3,-1456.74"/>
<text text-anchor="middle" x="799.25" y="-1065.4" font-family="Times,serif" font-size="14.00">0.0036</text>
</g>
<!-- G#4&#45;&#45;C5 -->
<g id="edge132" class="edge"><title>G#4&#45;&#45;C5</title>
<path fill="none" stroke="black" d="M451.63,-647.79C450.29,-637.17 449.9,-623.43 454,-612 475.01,-553.46 492.6,-540.45 543,-504 559.47,-492.09 580.51,-483.61 598.12,-477.99"/>
<polygon fill="black" stroke="black" points="599.459,-481.242 608.02,-475 597.435,-474.541 599.459,-481.242"/>
<text text-anchor="middle" x="500.25" y="-570.4" font-family="Times,serif" font-size="14.00">0.0107</text>
</g>
<!-- G#4&#45;&#45;G#2 -->
<g id="edge138" class="edge"><title>G#4&#45;&#45;G#2</title>
<path fill="none" stroke="black" d="M435.17,-653.11C413.25,-638.28 381,-610.73 381,-577 381,-577 381,-577 381,-377 381,-297.25 668.46,-289.08 773.31,-288.76"/>
<polygon fill="black" stroke="black" points="773.453,-292.26 783.45,-288.75 773.447,-285.26 773.453,-292.26"/>
<text text-anchor="middle" x="400.25" y="-462.4" font-family="Times,serif" font-size="14.00">0.0036</text>
</g>
<!-- A4 -->
<g id="node60" class="node"><title>A4</title>
<ellipse fill="none" stroke="black" cx="688" cy="-576" rx="27" ry="18"/>
<text text-anchor="middle" x="688" y="-570.4" font-family="Times,serif" font-size="14.00">A4</text>
</g>
<!-- G#4&#45;&#45;A4 -->
<g id="edge142" class="edge"><title>G#4&#45;&#45;A4</title>
<path fill="none" stroke="black" d="M473.02,-652.15C490.53,-640.21 518.24,-622.7 544.5,-612 563.84,-604.12 616.69,-592.09 652.55,-584.39"/>
<polygon fill="black" stroke="black" points="653.58,-587.749 662.63,-582.24 652.12,-580.903 653.58,-587.749"/>
<text text-anchor="middle" x="564.25" y="-615.4" font-family="Times,serif" font-size="14.00">0.0036</text>
</g>
<!-- C#5 -->
<g id="node62" class="node"><title>C#5</title>
<ellipse fill="none" stroke="black" cx="914" cy="-936" rx="27.2698" ry="18"/>
<text text-anchor="middle" x="914" y="-930.4" font-family="Times,serif" font-size="14.00">C#5</text>
</g>
<!-- G#4&#45;&#45;C#5 -->
<g id="edge134" class="edge"><title>G#4&#45;&#45;C#5</title>
<path fill="none" stroke="black" d="M482.45,-668.64C534.95,-672.19 647.31,-681.96 680,-702 738.9,-738.1 731.34,-771.44 771,-828 793.22,-859.69 789.54,-876.12 820,-900 837.08,-913.39 859.8,-922.03 878.63,-927.38"/>
<polygon fill="black" stroke="black" points="877.787,-930.777 888.35,-929.96 879.583,-924.012 877.787,-930.777"/>
<text text-anchor="middle" x="778.25" y="-795.4" font-family="Times,serif" font-size="14.00">0.0142</text>
</g>
<!-- C#2 -->
<g id="node76" class="node"><title>C#2</title>
<ellipse fill="none" stroke="black" cx="848" cy="-522" rx="27.2698" ry="18"/>
<text text-anchor="middle" x="848" y="-516.4" font-family="Times,serif" font-size="14.00">C#2</text>
</g>
<!-- G#4&#45;&#45;C#2 -->
<g id="edge148" class="edge"><title>G#4&#45;&#45;C#2</title>
<path fill="none" stroke="black" d="M454.43,-647.66C454.99,-636.16 457.64,-621.5 466.5,-612 525.07,-549.21 568.39,-577.58 652,-558 707.3,-545.05 772.36,-534.31 811.87,-528.27"/>
<polygon fill="black" stroke="black" points="812.454,-531.722 821.82,-526.77 811.41,-524.8 812.454,-531.722"/>
<text text-anchor="middle" x="486.25" y="-615.4" font-family="Times,serif" font-size="14.00">0.0071</text>
</g>
<!-- C#3 -->
<g id="node105" class="node"><title>C#3</title>
<ellipse fill="none" stroke="black" cx="230" cy="-108" rx="27.2698" ry="18"/>
<text text-anchor="middle" x="230" y="-102.4" font-family="Times,serif" font-size="14.00">C#3</text>
</g>
<!-- G#4&#45;&#45;C#3 -->
<g id="edge146" class="edge"><title>G#4&#45;&#45;C#3</title>
<path fill="none" stroke="black" d="M431.42,-656.86C417.81,-651.14 401.23,-642.31 390,-630 295,-525.84 276,-474.98 276,-334 276,-334 276,-334 276,-197 276,-172.92 262.31,-148.93 249.87,-132.09"/>
<polygon fill="black" stroke="black" points="252.454,-129.712 243.55,-123.97 246.93,-134.011 252.454,-129.712"/>
<text text-anchor="middle" x="297.25" y="-372.4" font-family="Times,serif" font-size="14.00">0.0036</text>
</g>
<!-- F#4&#45;&#45;F2 -->
<g id="edge106" class="edge"><title>F#4&#45;&#45;F2</title>
<path fill="none" stroke="black" d="M1216,-1547.6C1216,-1535.2 1216,-1518.4 1216,-1504.2"/>
<polygon fill="black" stroke="black" points="1219.5,-1504.1 1216,-1494.1 1212.5,-1504.1 1219.5,-1504.1"/>
<text text-anchor="middle" x="1235.2" y="-1515.4" font-family="Times,serif" font-size="14.00">0.0036</text>
</g>
<!-- F#4&#45;&#45;G#4 -->
<g id="edge104" class="edge"><title>F#4&#45;&#45;G#4</title>
<path fill="none" stroke="black" d="M1190.9,-1559.1C1173.9,-1555.3 1150.7,-1550.6 1130,-1548 1091.4,-1543.2 812.82,-1551 780,-1530 749.5,-1510.5 760.27,-1489.2 742,-1458 656.84,-1312.4 603.51,-1292 544.5,-1134 501.3,-1018.3 501.06,-985.49 479,-864 468.1,-803.99 460.8,-732.77 457.33,-694.54"/>
<polygon fill="black" stroke="black" points="460.786,-693.884 456.42,-684.23 453.813,-694.499 460.786,-693.884"/>
<text text-anchor="middle" x="564.25" y="-1110.4" font-family="Times,serif" font-size="14.00">0.0036</text>
</g>
<!-- F#4&#45;&#45;A4 -->
<g id="edge108" class="edge"><title>F#4&#45;&#45;A4</title>
<path fill="none" stroke="black" d="M1190.9,-1559.3C1173.8,-1555.6 1150.6,-1551 1130,-1548 1041.7,-1535.3 1013.6,-1561.2 930,-1530 743.32,-1460.4 674,-1361.2 674,-1162 674,-1162 674,-1162 674,-980 674,-896.37 661.74,-875.52 666,-792 669.47,-724.06 679.06,-644.52 684.36,-603.88"/>
<polygon fill="black" stroke="black" points="687.831,-604.332 685.67,-593.96 680.891,-603.416 687.831,-604.332"/>
<text text-anchor="middle" x="693.25" y="-1065.4" font-family="Times,serif" font-size="14.00">0.0071</text>
</g>
<!-- B&#45;4 -->
<g id="node83" class="node"><title>B&#45;4</title>
<ellipse fill="none" stroke="black" cx="1293" cy="-576" rx="27" ry="18"/>
<text text-anchor="middle" x="1293" y="-570.4" font-family="Times,serif" font-size="14.00">B&#45;4</text>
</g>
<!-- F#4&#45;&#45;B&#45;4 -->
<g id="edge110" class="edge"><title>F#4&#45;&#45;B&#45;4</title>
<path fill="none" stroke="black" d="M1239.4,-1557C1252.5,-1551.3 1268.2,-1542.6 1278,-1530 1288.2,-1516.9 1283.8,-1510.1 1288,-1494 1329.6,-1334.6 1339.1,-1294.5 1376,-1134 1383.3,-1102.1 1381.6,-1093.2 1391.5,-1062 1446.6,-888.01 1515.6,-862.85 1552,-684 1555.2,-668.32 1561.7,-660.72 1552,-648 1525,-612.62 1394.3,-590.53 1329.5,-581.58"/>
<polygon fill="black" stroke="black" points="1329.68,-578.072 1319.3,-580.21 1328.75,-585.01 1329.68,-578.072"/>
<text text-anchor="middle" x="1411.2" y="-1065.4" font-family="Times,serif" font-size="14.00">0.0285</text>
</g>
<!-- F#2 -->
<g id="node85" class="node"><title>F#2</title>
<ellipse fill="none" stroke="black" cx="875" cy="-18" rx="27" ry="18"/>
<text text-anchor="middle" x="875" y="-12.4" font-family="Times,serif" font-size="14.00">F#2</text>
</g>
<!-- F#4&#45;&#45;F#2 -->
<g id="edge112" class="edge"><title>F#4&#45;&#45;F#2</title>
<path fill="none" stroke="black" d="M1242.8,-1563.8C1356.9,-1558.4 1796,-1533.7 1796,-1477 1796,-1477 1796,-1477 1796,-1160 1796,-1080.8 1788,-1061.2 1788,-982 1788,-982 1788,-982 1788,-377 1788,-315.88 1753,-305.12 1753,-244 1753,-244 1753,-244 1753,-107 1753,-21.138 1079.6,-18.173 912.3,-18.761"/>
<polygon fill="black" stroke="black" points="912.225,-15.2612 902.24,-18.803 912.255,-22.2611 912.225,-15.2612"/>
<text text-anchor="middle" x="1807.2" y="-795.4" font-family="Times,serif" font-size="14.00">0.0071</text>
</g>
<!-- B4&#45;&#45;G#4 -->
<g id="edge210" class="edge"><title>B4&#45;&#45;G#4</title>
<path fill="none" stroke="black" d="M990.92,-1014.3C964.36,-1000.7 917.42,-976.29 878,-954 810.49,-915.83 787.66,-914.15 728.5,-864 655.36,-801.99 668.72,-750.5 586,-702 556.83,-684.9 519.15,-675.97 491.69,-671.42"/>
<polygon fill="black" stroke="black" points="492.125,-667.946 481.71,-669.89 491.064,-674.865 492.125,-667.946"/>
<text text-anchor="middle" x="748.25" y="-840.4" font-family="Times,serif" font-size="14.00">0.0071</text>
</g>
<!-- B4&#45;&#45;C#5 -->
<g id="edge214" class="edge"><title>B4&#45;&#45;C#5</title>
<path fill="none" stroke="black" d="M996.25,-1010.9C980.3,-996.54 955.44,-974.22 937.23,-957.86"/>
<polygon fill="black" stroke="black" points="939.159,-954.888 929.38,-950.81 934.481,-960.096 939.159,-954.888"/>
<text text-anchor="middle" x="991.25" y="-975.4" font-family="Times,serif" font-size="14.00">0.0036</text>
</g>
<!-- E5 -->
<g id="node71" class="node"><title>E5</title>
<ellipse fill="none" stroke="black" cx="992" cy="-666" rx="27" ry="18"/>
<text text-anchor="middle" x="992" y="-660.4" font-family="Times,serif" font-size="14.00">E5</text>
</g>
<!-- B4&#45;&#45;E5 -->
<g id="edge212" class="edge"><title>B4&#45;&#45;E5</title>
<path fill="none" stroke="black" d="M1013.3,-1007.8C1013.9,-997.44 1014.4,-983.96 1014,-972 1010.3,-869.26 999.61,-747.42 994.62,-694.17"/>
<polygon fill="black" stroke="black" points="998.1,-693.794 993.67,-684.17 991.132,-694.456 998.1,-693.794"/>
<text text-anchor="middle" x="1028.2" y="-840.4" font-family="Times,serif" font-size="14.00">0.0071</text>
</g>
<!-- E&#45;3&#45;&#45;F#3 -->
<g id="edge160" class="edge"><title>E&#45;3&#45;&#45;F#3</title>
<path fill="none" stroke="black" d="M2134.2,-212.78C2151,-228.75 2175,-256.78 2175,-287 2175,-523 2175,-523 2175,-523 2175,-646.4 2156,-676.6 2156,-800 2156,-982 2156,-982 2156,-982 2156,-1017.2 2072,-1574.8 2072,-1610 2072,-1792 2072,-1792 2072,-1792 2072,-1848.1 2013,-1830.6 1962,-1854 1885,-1889.3 1786.9,-1910 1735,-1919.2"/>
<polygon fill="black" stroke="black" points="1734.27,-1915.77 1725,-1920.9 1735.45,-1922.67 1734.27,-1915.77"/>
<text text-anchor="middle" x="2166.2" y="-1065.4" font-family="Times,serif" font-size="14.00">0.0036</text>
</g>
<!-- E&#45;3&#45;&#45;E&#45;4 -->
<g id="edge158" class="edge"><title>E&#45;3&#45;&#45;E&#45;4</title>
<path fill="none" stroke="black" d="M2112.2,-215.64C2106.6,-233.17 2099,-261.68 2099,-287 2099,-469 2099,-469 2099,-469 2099,-577.5 1978.5,-549.52 1933,-648 1909,-700 1872,-1102.7 1872,-1160 1872,-1567 1872,-1567 1872,-1567 1872,-1621.2 1799.4,-1642.5 1753.5,-1650.4"/>
<polygon fill="black" stroke="black" points="1752.91,-1646.95 1743.6,-1652 1754.03,-1653.86 1752.91,-1646.95"/>
<text text-anchor="middle" x="1911.2" y="-930.4" font-family="Times,serif" font-size="14.00">0.0036</text>
</g>
<!-- B3&#45;&#45;C#4 -->
<g id="edge162" class="edge"><title>B3&#45;&#45;C#4</title>
<path fill="none" stroke="black" d="M1046.6,-572.64C1101,-567.69 1228.5,-555.39 1335,-540 1469.5,-520.56 1628.1,-489.93 1697.5,-476.14"/>
<polygon fill="black" stroke="black" points="1698.38,-479.535 1707.5,-474.15 1697.01,-472.669 1698.38,-479.535"/>
<text text-anchor="middle" x="1561.2" y="-516.4" font-family="Times,serif" font-size="14.00">0.0036</text>
</g>
<!-- B3&#45;&#45;E4 -->
<g id="edge164" class="edge"><title>B3&#45;&#45;E4</title>
<path fill="none" stroke="black" d="M1037.9,-589.49C1045.8,-595.6 1054.6,-603.47 1061,-612 1092.7,-654.12 1087.3,-672.42 1110,-720 1113.8,-728.07 1116.9,-729.29 1119,-738 1150.3,-870.67 1112.7,-908.47 1098,-1044 1096.3,-1060.1 1097.3,-1064.4 1093,-1080 1092.2,-1083 1091.1,-1086.1 1090,-1089.2"/>
<polygon fill="black" stroke="black" points="1086.7,-1088.02 1086.1,-1098.6 1093.17,-1090.7 1086.7,-1088.02"/>
<text text-anchor="middle" x="1151.2" y="-840.4" font-family="Times,serif" font-size="14.00">0.0107</text>
</g>
<!-- F5 -->
<g id="node65" class="node"><title>F5</title>
<ellipse fill="none" stroke="black" cx="781" cy="-756" rx="27" ry="18"/>
<text text-anchor="middle" x="781" y="-750.4" font-family="Times,serif" font-size="14.00">F5</text>
</g>
<!-- C5&#45;&#45;F5 -->
<g id="edge86" class="edge"><title>C5&#45;&#45;F5</title>
<path fill="none" stroke="black" d="M632.84,-486.35C633.23,-511.24 636.24,-558.01 652,-594 672.55,-640.92 683.1,-653.15 724,-684 740.54,-696.48 753.4,-686.37 767,-702 773.27,-709.2 776.77,-718.89 778.72,-728.01"/>
<polygon fill="black" stroke="black" points="775.269,-728.597 780.32,-737.91 782.18,-727.48 775.269,-728.597"/>
<text text-anchor="middle" x="689.25" y="-615.4" font-family="Times,serif" font-size="14.00">0.0107</text>
</g>
<!-- E&#45;5 -->
<g id="node67" class="node"><title>E&#45;5</title>
<ellipse fill="none" stroke="black" cx="889" cy="-846" rx="27" ry="18"/>
<text text-anchor="middle" x="889" y="-840.4" font-family="Times,serif" font-size="14.00">E&#45;5</text>
</g>
<!-- C5&#45;&#45;E&#45;5 -->
<g id="edge88" class="edge"><title>C5&#45;&#45;E&#45;5</title>
<path fill="none" stroke="black" d="M656.54,-477.26C672.58,-483.42 693.91,-492.71 711,-504 789.74,-555.99 815.8,-568.74 867,-648 889.88,-683.42 890.25,-696.38 897,-738 899.56,-753.79 900.32,-758.35 897,-774 895.18,-782.56 890.82,-783.44 889,-792 887.27,-800.14 886.77,-809.13 886.83,-817.37"/>
<polygon fill="black" stroke="black" points="883.341,-817.753 887.2,-827.62 890.337,-817.5 883.341,-817.753"/>
<text text-anchor="middle" x="905.25" y="-660.4" font-family="Times,serif" font-size="14.00">0.0036</text>
</g>
<!-- G#2&#45;&#45;E&#45;3 -->
<g id="edge150" class="edge"><title>G#2&#45;&#45;E&#45;3</title>
<path fill="none" stroke="black" d="M832.8,-276.6C839.17,-273.99 846.24,-271.51 853,-270 975.51,-242.56 1885.6,-207.6 2081.1,-200.35"/>
<polygon fill="black" stroke="black" points="2081.24,-203.847 2091.1,-199.98 2080.98,-196.852 2081.24,-203.847"/>
<text text-anchor="middle" x="1307.2" y="-237.4" font-family="Times,serif" font-size="14.00">0.0854</text>
</g>
<!-- G#2&#45;&#45;B3 -->
<g id="edge156" class="edge"><title>G#2&#45;&#45;B3</title>
<path fill="none" stroke="black" d="M825.96,-303.56C853.32,-330.7 912.37,-391.55 953,-450 975.55,-482.45 996.16,-523.34 1008.4,-549.34"/>
<polygon fill="black" stroke="black" points="1005.29,-550.949 1012.7,-558.52 1011.63,-547.98 1005.29,-550.949"/>
<text text-anchor="middle" x="959.25" y="-417.4" font-family="Times,serif" font-size="14.00">0.0036</text>
</g>
<!-- G#2&#45;&#45;E&#45;2 -->
<g id="edge152" class="edge"><title>G#2&#45;&#45;E&#45;2</title>
<path fill="none" stroke="black" d="M831.62,-275.82C854.62,-263.8 893.23,-244.94 928.5,-234 982.19,-217.34 1046.8,-207.67 1086.4,-202.86"/>
<polygon fill="black" stroke="black" points="1086.87,-206.328 1096.4,-201.69 1086.06,-199.376 1086.87,-206.328"/>
<text text-anchor="middle" x="948.25" y="-237.4" font-family="Times,serif" font-size="14.00">0.0142</text>
</g>
<!-- E3 -->
<g id="node110" class="node"><title>E3</title>
<ellipse fill="none" stroke="black" cx="167" cy="-198" rx="27" ry="18"/>
<text text-anchor="middle" x="167" y="-192.4" font-family="Times,serif" font-size="14.00">E3</text>
</g>
<!-- G#2&#45;&#45;E3 -->
<g id="edge154" class="edge"><title>G#2&#45;&#45;E3</title>
<path fill="none" stroke="black" d="M784.55,-283.39C683.33,-269.56 320.37,-219.96 203.52,-203.99"/>
<polygon fill="black" stroke="black" points="203.691,-200.481 193.31,-202.6 202.746,-207.417 203.691,-200.481"/>
<text text-anchor="middle" x="566.25" y="-237.4" font-family="Times,serif" font-size="14.00">0.0036</text>
</g>
<!-- C3&#45;&#45;F#3 -->
<g id="edge234" class="edge"><title>C3&#45;&#45;F#3</title>
<path fill="none" stroke="black" d="M1177.1,-1404C1172.9,-1425.7 1168.3,-1464.1 1180,-1494 1187.8,-1513.9 1194.7,-1517.3 1212,-1530 1227.7,-1541.5 1234.7,-1539 1252,-1548 1293.3,-1569.6 1303.4,-1575.8 1342,-1602 1407.7,-1646.5 1410.1,-1681.3 1484,-1710 1525.8,-1726.2 1653.6,-1696 1685,-1728 1707.9,-1751.4 1704.4,-1849.6 1701.2,-1897.9"/>
<polygon fill="black" stroke="black" points="1697.7,-1897.78 1700.5,-1908 1704.68,-1898.27 1697.7,-1897.78"/>
<text text-anchor="middle" x="1442.2" y="-1650.4" font-family="Times,serif" font-size="14.00">0.0036</text>
</g>
<!-- F3 -->
<g id="node73" class="node"><title>F3</title>
<ellipse fill="none" stroke="black" cx="1112" cy="-1296" rx="27" ry="18"/>
<text text-anchor="middle" x="1112" y="-1290.4" font-family="Times,serif" font-size="14.00">F3</text>
</g>
<!-- C3&#45;&#45;F3 -->
<g id="edge232" class="edge"><title>C3&#45;&#45;F3</title>
<path fill="none" stroke="black" d="M1169,-1369.7C1158.4,-1356.1 1142.7,-1336.2 1130.5,-1320.6"/>
<polygon fill="black" stroke="black" points="1133.01,-1318.13 1124.1,-1312.4 1127.49,-1322.44 1133.01,-1318.13"/>
<text text-anchor="middle" x="1172.2" y="-1335.4" font-family="Times,serif" font-size="14.00">0.0142</text>
</g>
<!-- A4&#45;&#45;F#3 -->
<g id="edge84" class="edge"><title>A4&#45;&#45;F#3</title>
<path fill="none" stroke="black" d="M673.17,-591.41C667.58,-597.4 661.49,-604.66 657,-612 558.38,-773.23 559.09,-827.83 502,-1008 472.14,-1102.2 482.73,-1131.1 449,-1224 414.2,-1319.8 348,-1328 348,-1430 348,-1837 348,-1837 348,-1837 348,-1904.8 1444.3,-1921.8 1661.8,-1924.6"/>
<polygon fill="black" stroke="black" points="1661.97,-1928.1 1672,-1924.7 1662.03,-1921.1 1661.97,-1928.1"/>
<text text-anchor="middle" x="461.25" y="-1245.4" font-family="Times,serif" font-size="14.00">0.0036</text>
</g>
<!-- A4&#45;&#45;C5 -->
<g id="edge80" class="edge"><title>A4&#45;&#45;C5</title>
<path fill="none" stroke="black" d="M679.41,-558.44C670.53,-541.32 656.55,-514.39 646.25,-494.54"/>
<polygon fill="black" stroke="black" points="649.245,-492.712 641.53,-485.45 643.032,-495.938 649.245,-492.712"/>
<text text-anchor="middle" x="688.25" y="-516.4" font-family="Times,serif" font-size="14.00">0.0036</text>
</g>
<!-- A4&#45;&#45;C#5 -->
<g id="edge82" class="edge"><title>A4&#45;&#45;C#5</title>
<path fill="none" stroke="black" d="M708.82,-587.49C731.13,-598.58 767.71,-616.33 800,-630 820.98,-638.88 834.81,-629.42 848,-648 875.8,-687.14 835.8,-819.18 853,-864 860.54,-883.66 876.08,-901.61 889.58,-914.54"/>
<polygon fill="black" stroke="black" points="887.485,-917.368 897.22,-921.55 892.218,-912.21 887.485,-917.368"/>
<text text-anchor="middle" x="875.25" y="-750.4" font-family="Times,serif" font-size="14.00">0.0036</text>
</g>
<!-- C#5&#45;&#45;F#4 -->
<g id="edge92" class="edge"><title>C#5&#45;&#45;F#4</title>
<path fill="none" stroke="black" d="M895.12,-949.21C866.56,-968.93 813.42,-1010.8 792,-1062 752.55,-1156.3 784.43,-1249.6 788.5,-1260 930.12,-1621.6 964.72,-1489.1 1040,-1530 1040.4,-1530.2 1129.1,-1547.8 1180.5,-1558"/>
<polygon fill="black" stroke="black" points="1180.02,-1561.47 1190.5,-1559.9 1181.33,-1554.59 1180.02,-1561.47"/>
<text text-anchor="middle" x="808.25" y="-1245.4" font-family="Times,serif" font-size="14.00">0.0036</text>
</g>
<!-- C#5&#45;&#45;E&#45;5 -->
<g id="edge90" class="edge"><title>C#5&#45;&#45;E&#45;5</title>
<path fill="none" stroke="black" d="M901.8,-919.86C897.77,-914 893.74,-907.02 891.5,-900 888.9,-891.86 887.85,-882.65 887.58,-874.22"/>
<polygon fill="black" stroke="black" points="891.08,-874.113 887.59,-864.11 884.08,-874.106 891.08,-874.113"/>
<text text-anchor="middle" x="911.25" y="-885.4" font-family="Times,serif" font-size="14.00">0.0142</text>
</g>
<!-- C#5&#45;&#45;E5 -->
<g id="edge94" class="edge"><title>C#5&#45;&#45;E5</title>
<path fill="none" stroke="black" d="M922.31,-918.53C925.01,-912.77 927.86,-906.19 930,-900 959.62,-814.43 950.45,-788.26 978,-702 978.95,-699.04 980.02,-695.98 981.15,-692.95"/>
<polygon fill="black" stroke="black" points="984.439,-694.148 984.81,-683.56 977.917,-691.606 984.439,-694.148"/>
<text text-anchor="middle" x="976.25" y="-795.4" font-family="Times,serif" font-size="14.00">0.0071</text>
</g>
<!-- C#5&#45;&#45;F3 -->
<g id="edge96" class="edge"><title>C#5&#45;&#45;F3</title>
<path fill="none" stroke="black" d="M920.42,-953.54C934.03,-987.98 967.48,-1069.6 1003.5,-1134 1031.9,-1184.9 1071.5,-1240.5 1094.1,-1271.2"/>
<polygon fill="black" stroke="black" points="1091.55,-1273.63 1100.3,-1279.6 1097.18,-1269.48 1091.55,-1273.63"/>
<text text-anchor="middle" x="1023.2" y="-1110.4" font-family="Times,serif" font-size="14.00">0.0036</text>
</g>
<!-- F5&#45;&#45;G#3 -->
<g id="edge126" class="edge"><title>F5&#45;&#45;G#3</title>
<path fill="none" stroke="black" d="M772.66,-773.3C766,-784.9 755.69,-800.13 743,-810 725.67,-823.48 712.32,-812.27 697,-828 673.26,-852.37 693.23,-874.25 671,-900 604.73,-976.77 522.04,-920.96 470,-1008 404.19,-1118.1 500,-1166.7 500,-1295 500,-1432 500,-1432 500,-1432 500,-1511.2 491,-1530.8 491,-1610 491,-1747 491,-1747 491,-1747 491,-1772.9 493.55,-1785.6 515,-1800 550.45,-1823.9 1194.6,-1832.7 1358.4,-1834.6"/>
<polygon fill="black" stroke="black" points="1358.47,-1838.1 1368.5,-1834.7 1358.54,-1831.1 1358.47,-1838.1"/>
<text text-anchor="middle" x="519.25" y="-1290.4" font-family="Times,serif" font-size="14.00">0.0036</text>
</g>
<!-- F5&#45;&#45;G#4 -->
<g id="edge122" class="edge"><title>F5&#45;&#45;G#4</title>
<path fill="none" stroke="black" d="M762.33,-742.98C752.21,-736.36 739.55,-727.9 728.5,-720 717.8,-712.35 717.14,-707.08 705,-702 685.76,-693.95 556.85,-678.51 492.04,-671.13"/>
<polygon fill="black" stroke="black" points="492.179,-667.624 481.85,-669.98 491.394,-674.579 492.179,-667.624"/>
<text text-anchor="middle" x="748.25" y="-705.4" font-family="Times,serif" font-size="14.00">0.0036</text>
</g>
<!-- F5&#45;&#45;B3 -->
<g id="edge124" class="edge"><title>F5&#45;&#45;B3</title>
<path fill="none" stroke="black" d="M793.9,-740.13C798.88,-734.07 804.46,-726.89 809,-720 828.97,-689.7 820.73,-672.5 847.5,-648 852.99,-642.98 939.55,-608.55 987.91,-589.55"/>
<polygon fill="black" stroke="black" points="989.302,-592.764 997.33,-585.85 986.743,-586.248 989.302,-592.764"/>
<text text-anchor="middle" x="867.25" y="-660.4" font-family="Times,serif" font-size="14.00">0.0036</text>
</g>
<!-- G#5 -->
<g id="node78" class="node"><title>G#5</title>
<ellipse fill="none" stroke="black" cx="917" cy="-576" rx="27.8358" ry="18"/>
<text text-anchor="middle" x="917" y="-570.4" font-family="Times,serif" font-size="14.00">G#5</text>
</g>
<!-- F5&#45;&#45;G#5 -->
<g id="edge128" class="edge"><title>F5&#45;&#45;G#5</title>
<path fill="none" stroke="black" d="M790.53,-738.75C795.77,-727.46 799.79,-712.6 792,-702 776.14,-680.42 750.36,-705.58 734.5,-684 725.03,-671.11 725.47,-661.21 734.5,-648 767.04,-600.43 836.51,-584.73 879.73,-579.55"/>
<polygon fill="black" stroke="black" points="880.278,-583.011 889.85,-578.47 879.535,-576.051 880.278,-583.011"/>
<text text-anchor="middle" x="754.25" y="-660.4" font-family="Times,serif" font-size="14.00">0.0071</text>
</g>
<!-- E&#45;5&#45;&#45;F5 -->
<g id="edge118" class="edge"><title>E&#45;5&#45;&#45;F5</title>
<path fill="none" stroke="black" d="M865.27,-837.23C850.13,-831.43 830.75,-822.37 816.5,-810 807.63,-802.3 800.01,-791.87 794.14,-782.31"/>
<polygon fill="black" stroke="black" points="797.09,-780.42 789.05,-773.52 791.032,-783.928 797.09,-780.42"/>
<text text-anchor="middle" x="836.25" y="-795.4" font-family="Times,serif" font-size="14.00">0.0036</text>
</g>
<!-- F#5 -->
<g id="node90" class="node"><title>F#5</title>
<ellipse fill="none" stroke="black" cx="1274" cy="-756" rx="27" ry="18"/>
<text text-anchor="middle" x="1274" y="-750.4" font-family="Times,serif" font-size="14.00">F#5</text>
</g>
<!-- E&#45;5&#45;&#45;F#5 -->
<g id="edge120" class="edge"><title>E&#45;5&#45;&#45;F#5</title>
<path fill="none" stroke="black" d="M888.92,-827.76C889.85,-815.85 893.2,-800.65 903.5,-792 906.68,-789.33 1144.2,-768.33 1237.2,-760.2"/>
<polygon fill="black" stroke="black" points="1237.64,-763.675 1247.3,-759.32 1237.03,-756.701 1237.64,-763.675"/>
<text text-anchor="middle" x="923.25" y="-795.4" font-family="Times,serif" font-size="14.00">0.0107</text>
</g>
<!-- E5&#45;&#45;B3 -->
<g id="edge98" class="edge"><title>E5&#45;&#45;B3</title>
<path fill="none" stroke="black" d="M990.35,-647.81C989.92,-637.2 990.46,-623.47 994.5,-612 995.93,-607.93 998,-603.93 1000.4,-600.17"/>
<polygon fill="black" stroke="black" points="1003.32,-602.105 1006.2,-591.91 997.589,-598.083 1003.32,-602.105"/>
<text text-anchor="middle" x="1014.2" y="-615.4" font-family="Times,serif" font-size="14.00">0.0036</text>
</g>
<!-- E5&#45;&#45;C#2 -->
<g id="edge100" class="edge"><title>E5&#45;&#45;C#2</title>
<path fill="none" stroke="black" d="M969.45,-655.51C963.19,-652.97 956.36,-650.3 950,-648 925.21,-639.05 912.99,-647.74 893.5,-630 870.36,-608.93 858.56,-574.13 852.85,-549.96"/>
<polygon fill="black" stroke="black" points="856.233,-549.045 850.7,-540.01 849.391,-550.524 856.233,-549.045"/>
<text text-anchor="middle" x="913.25" y="-615.4" font-family="Times,serif" font-size="14.00">0.0036</text>
</g>
<!-- E5&#45;&#45;G#5 -->
<g id="edge102" class="edge"><title>E5&#45;&#45;G#5</title>
<path fill="none" stroke="black" d="M973.81,-652.67C965.49,-646.47 955.87,-638.49 948.5,-630 941.24,-621.63 934.7,-611.37 929.49,-602.11"/>
<polygon fill="black" stroke="black" points="932.563,-600.435 924.74,-593.29 926.4,-603.754 932.563,-600.435"/>
<text text-anchor="middle" x="968.25" y="-615.4" font-family="Times,serif" font-size="14.00">0.0071</text>
</g>
<!-- F3&#45;&#45;G#3 -->
<g id="edge116" class="edge"><title>F3&#45;&#45;G#3</title>
<path fill="none" stroke="black" d="M1104.7,-1313.5C1097.6,-1330.9 1088,-1359.3 1088,-1385 1088,-1747 1088,-1747 1088,-1747 1088,-1802.7 1276.9,-1825.1 1358.8,-1832.2"/>
<polygon fill="black" stroke="black" points="1358.63,-1835.7 1368.9,-1833.1 1359.25,-1828.73 1358.63,-1835.7"/>
<text text-anchor="middle" x="1107.2" y="-1560.4" font-family="Times,serif" font-size="14.00">0.0320</text>
</g>
<!-- F3&#45;&#45;C4 -->
<g id="edge114" class="edge"><title>F3&#45;&#45;C4</title>
<path fill="none" stroke="black" d="M1136.7,-1288.4C1194.4,-1272.9 1338.3,-1234.3 1405,-1216.4"/>
<polygon fill="black" stroke="black" points="1406.34,-1219.66 1415.1,-1213.7 1404.54,-1212.9 1406.34,-1219.66"/>
<text text-anchor="middle" x="1325.2" y="-1245.4" font-family="Times,serif" font-size="14.00">0.0036</text>
</g>
<!-- C#2&#45;&#45;G#2 -->
<g id="edge216" class="edge"><title>C#2&#45;&#45;G#2</title>
<path fill="none" stroke="black" d="M841.25,-504.26C834.46,-486.61 824.33,-457.84 819.5,-432 812.09,-392.33 810.66,-345.49 810.6,-316.52"/>
<polygon fill="black" stroke="black" points="814.101,-316.354 810.64,-306.34 807.101,-316.326 814.101,-316.354"/>
<text text-anchor="middle" x="839.25" y="-417.4" font-family="Times,serif" font-size="14.00">0.0071</text>
</g>
<!-- C#2&#45;&#45;F#2 -->
<g id="edge218" class="edge"><title>C#2&#45;&#45;F#2</title>
<path fill="none" stroke="black" d="M851.36,-503.91C858.6,-465.6 875,-369.9 875,-289 875,-289 875,-289 875,-107 875,-86.63 875,-63.609 875,-46.222"/>
<polygon fill="black" stroke="black" points="878.5,-46.199 875,-36.199 871.5,-46.199 878.5,-46.199"/>
<text text-anchor="middle" x="894.25" y="-282.4" font-family="Times,serif" font-size="14.00">0.0036</text>
</g>
<!-- C6 -->
<g id="node148" class="node"><title>C6</title>
<ellipse fill="none" stroke="black" cx="917" cy="-468" rx="27" ry="18"/>
<text text-anchor="middle" x="917" y="-462.4" font-family="Times,serif" font-size="14.00">C6</text>
</g>
<!-- G#5&#45;&#45;C6 -->
<g id="edge220" class="edge"><title>G#5&#45;&#45;C6</title>
<path fill="none" stroke="black" d="M917,-557.97C917,-541.38 917,-515.88 917,-496.43"/>
<polygon fill="black" stroke="black" points="920.5,-496.34 917,-486.34 913.5,-496.34 920.5,-496.34"/>
<text text-anchor="middle" x="936.25" y="-516.4" font-family="Times,serif" font-size="14.00">0.0036</text>
</g>
<!-- B&#45;4&#45;&#45;G#3 -->
<g id="edge186" class="edge"><title>B&#45;4&#45;&#45;G#3</title>
<path fill="none" stroke="black" d="M1320.2,-577.17C1363.7,-578.31 1451.2,-584.23 1519,-612 1544.3,-622.38 1556.2,-623.8 1569,-648 1614,-732.86 1563.2,-768.69 1575,-864 1583.1,-929.06 1598.6,-942.97 1607,-1008 1620.7,-1114.8 1616,-1142.4 1616,-1250 1616,-1387 1616,-1387 1616,-1387 1616,-1487 1586,-1510 1586,-1610 1586,-1747 1586,-1747 1586,-1747 1586,-1813.4 1489.2,-1829.9 1433.8,-1833.8"/>
<polygon fill="black" stroke="black" points="1433.38,-1830.32 1423.6,-1834.4 1433.79,-1837.31 1433.38,-1830.32"/>
<text text-anchor="middle" x="1636.2" y="-1200.4" font-family="Times,serif" font-size="14.00">0.0036</text>
</g>
<!-- B&#45;4&#45;&#45;C#5 -->
<g id="edge182" class="edge"><title>B&#45;4&#45;&#45;C#5</title>
<path fill="none" stroke="black" d="M1266.8,-581.28C1243.7,-585.98 1210,-595.21 1185,-612 1080.5,-682.07 1080.9,-729.98 1002,-828 976.75,-859.37 973.07,-869.31 947,-900 943.35,-904.3 939.33,-908.76 935.39,-913"/>
<polygon fill="black" stroke="black" points="932.799,-910.646 928.48,-920.32 937.89,-915.451 932.799,-910.646"/>
<text text-anchor="middle" x="1084.2" y="-750.4" font-family="Times,serif" font-size="14.00">0.0142</text>
</g>
<!-- B&#45;4&#45;&#45;F3 -->
<g id="edge184" class="edge"><title>B&#45;4&#45;&#45;F3</title>
<path fill="none" stroke="black" d="M1273.1,-588.48C1242.5,-607.51 1184.8,-648.82 1162,-702 1139.9,-753.72 1168.1,-772.05 1174,-828 1185.3,-935.49 1198,-961.92 1198,-1070 1198,-1207 1198,-1207 1198,-1207 1198,-1239.9 1166.8,-1265.1 1142,-1279.9"/>
<polygon fill="black" stroke="black" points="1140.23,-1276.88 1133.3,-1284.9 1143.71,-1282.95 1140.23,-1276.88"/>
<text text-anchor="middle" x="1210.2" y="-930.4" font-family="Times,serif" font-size="14.00">0.0036</text>
</g>
<!-- B&#45;4&#45;&#45;F#5 -->
<g id="edge188" class="edge"><title>B&#45;4&#45;&#45;F#5</title>
<path fill="none" stroke="black" d="M1281.7,-592.4C1272.3,-606.18 1259.7,-627.34 1254.5,-648 1247.6,-675.33 1255.4,-707.19 1263.1,-728.99"/>
<polygon fill="black" stroke="black" points="1259.87,-730.355 1266.6,-738.54 1266.45,-727.946 1259.87,-730.355"/>
<text text-anchor="middle" x="1274.2" y="-660.4" font-family="Times,serif" font-size="14.00">0.0071</text>
</g>
<!-- D4 -->
<g id="node130" class="node"><title>D4</title>
<ellipse fill="none" stroke="black" cx="1293" cy="-468" rx="27" ry="18"/>
<text text-anchor="middle" x="1293" y="-462.4" font-family="Times,serif" font-size="14.00">D4</text>
</g>
<!-- B&#45;4&#45;&#45;D4 -->
<g id="edge190" class="edge"><title>B&#45;4&#45;&#45;D4</title>
<path fill="none" stroke="black" d="M1293,-557.97C1293,-541.38 1293,-515.88 1293,-496.43"/>
<polygon fill="black" stroke="black" points="1296.5,-496.34 1293,-486.34 1289.5,-496.34 1296.5,-496.34"/>
<text text-anchor="middle" x="1312.2" y="-516.4" font-family="Times,serif" font-size="14.00">0.0071</text>
</g>
<!-- F#5&#45;&#45;E&#45;4 -->
<g id="edge196" class="edge"><title>F#5&#45;&#45;E&#45;4</title>
<path fill="none" stroke="black" d="M1295,-767.55C1347.6,-794.88 1486.7,-872.77 1571,-972 1749.9,-1182.7 1657.7,-1308.6 1681,-1584 1682.4,-1600 1678.4,-1605.3 1685,-1620 1687.2,-1624.8 1690.3,-1629.5 1693.8,-1633.7"/>
<polygon fill="black" stroke="black" points="1691.29,-1636.14 1700.6,-1641.2 1696.48,-1631.44 1691.29,-1636.14"/>
<text text-anchor="middle" x="1702.2" y="-1200.4" font-family="Times,serif" font-size="14.00">0.0036</text>
</g>
<!-- F#5&#45;&#45;E5 -->
<g id="edge194" class="edge"><title>F#5&#45;&#45;E5</title>
<path fill="none" stroke="black" d="M1250,-747.5C1199.7,-731.81 1083.4,-695.52 1025.7,-677.52"/>
<polygon fill="black" stroke="black" points="1026.59,-674.131 1016,-674.48 1024.5,-680.81 1026.59,-674.131"/>
<text text-anchor="middle" x="1178.2" y="-705.4" font-family="Times,serif" font-size="14.00">0.0071</text>
</g>
<!-- A5 -->
<g id="node96" class="node"><title>A5</title>
<ellipse fill="none" stroke="black" cx="1516" cy="-666" rx="27" ry="18"/>
<text text-anchor="middle" x="1516" y="-660.4" font-family="Times,serif" font-size="14.00">A5</text>
</g>
<!-- F#5&#45;&#45;A5 -->
<g id="edge192" class="edge"><title>F#5&#45;&#45;A5</title>
<path fill="none" stroke="black" d="M1297.5,-746.93C1317.8,-739.92 1347.9,-729.44 1374,-720 1411.6,-706.39 1454.7,-690.25 1483.4,-679.39"/>
<polygon fill="black" stroke="black" points="1484.8,-682.604 1492.9,-675.78 1482.31,-676.06 1484.8,-682.604"/>
<text text-anchor="middle" x="1440.2" y="-705.4" font-family="Times,serif" font-size="14.00">0.0036</text>
</g>
<!-- B&#45;5 -->
<g id="node135" class="node"><title>B&#45;5</title>
<ellipse fill="none" stroke="black" cx="1401" cy="-666" rx="27" ry="18"/>
<text text-anchor="middle" x="1401" y="-660.4" font-family="Times,serif" font-size="14.00">B&#45;5</text>
</g>
<!-- F#5&#45;&#45;B&#45;5 -->
<g id="edge198" class="edge"><title>F#5&#45;&#45;B&#45;5</title>
<path fill="none" stroke="black" d="M1287.7,-740.3C1298.8,-728.94 1315.2,-713.28 1331.5,-702 1338.4,-697.22 1355,-688.84 1370.2,-681.48"/>
<polygon fill="black" stroke="black" points="1371.9,-684.549 1379.4,-677.07 1368.87,-678.236 1371.9,-684.549"/>
<text text-anchor="middle" x="1351.2" y="-705.4" font-family="Times,serif" font-size="14.00">0.0036</text>
</g>
<!-- B5 -->
<g id="node137" class="node"><title>B5</title>
<ellipse fill="none" stroke="black" cx="1329" cy="-666" rx="27" ry="18"/>
<text text-anchor="middle" x="1329" y="-660.4" font-family="Times,serif" font-size="14.00">B5</text>
</g>
<!-- F#5&#45;&#45;B5 -->
<g id="edge200" class="edge"><title>F#5&#45;&#45;B5</title>
<path fill="none" stroke="black" d="M1267.9,-738.17C1264.9,-727.18 1263.3,-712.9 1269.5,-702 1275.3,-691.8 1285.4,-684.29 1295.6,-678.89"/>
<polygon fill="black" stroke="black" points="1297.41,-681.906 1305,-674.51 1294.46,-675.561 1297.41,-681.906"/>
<text text-anchor="middle" x="1289.2" y="-705.4" font-family="Times,serif" font-size="14.00">0.0036</text>
</g>
<!-- A5&#45;&#45;F4 -->
<g id="edge130" class="edge"><title>A5&#45;&#45;F4</title>
<path fill="none" stroke="black" d="M1530.9,-681.22C1557,-707.34 1610.3,-765.99 1630,-828 1634.9,-843.25 1631.8,-848.1 1630,-864 1613.3,-1010.8 1585.6,-1043.3 1555.5,-1188 1510.8,-1403.1 1599.7,-1500.5 1465,-1674 1436.2,-1711.2 1383.3,-1729.6 1347.9,-1738.3"/>
<polygon fill="black" stroke="black" points="1346.91,-1734.93 1337.9,-1740.5 1348.42,-1741.77 1346.91,-1734.93"/>
<text text-anchor="middle" x="1575.2" y="-1200.4" font-family="Times,serif" font-size="14.00">0.0036</text>
</g>
<!-- C#3&#45;&#45;F#3 -->
<g id="edge224" class="edge"><title>C#3&#45;&#45;F#3</title>
<path fill="none" stroke="black" d="M204.06,-113.25C143.91,-123.84 0,-153.71 0,-197 0,-1837 0,-1837 0,-1837 0,-1878.9 38.075,-1877.2 78,-1890 155.86,-1914.9 1427.2,-1923.4 1661.9,-1924.8"/>
<polygon fill="black" stroke="black" points="1661.97,-1928.3 1672,-1924.9 1662.04,-1921.3 1661.97,-1928.3"/>
<text text-anchor="middle" x="19.25" y="-1020.4" font-family="Times,serif" font-size="14.00">0.0071</text>
</g>
<!-- C#3&#45;&#45;G#3 -->
<g id="edge228" class="edge"><title>C#3&#45;&#45;G#3</title>
<path fill="none" stroke="black" d="M204.7,-114.7C168.18,-124.6 105,-148.7 105,-197 105,-892 105,-892 105,-892 105,-1071.3 123,-1115.7 123,-1295 123,-1432 123,-1432 123,-1432 123,-1511.6 143,-1530.4 143,-1610 143,-1747 143,-1747 143,-1747 143,-1777.3 158.81,-1786.6 186,-1800 239.76,-1826.6 1159.9,-1833.6 1358.5,-1834.8"/>
<polygon fill="black" stroke="black" points="1358.67,-1838.3 1368.7,-1834.9 1358.73,-1831.3 1358.67,-1838.3"/>
<text text-anchor="middle" x="127.25" y="-975.4" font-family="Times,serif" font-size="14.00">0.0107</text>
</g>
<!-- C#3&#45;&#45;G#2 -->
<g id="edge226" class="edge"><title>C#3&#45;&#45;G#2</title>
<path fill="none" stroke="black" d="M254.01,-116.35C345.28,-144.32 670.92,-244.08 777.19,-276.64"/>
<polygon fill="black" stroke="black" points="776.183,-279.992 786.77,-279.58 778.237,-273.3 776.183,-279.992"/>
<text text-anchor="middle" x="598.25" y="-192.4" font-family="Times,serif" font-size="14.00">0.0178</text>
</g>
<!-- C#3&#45;&#45;F3 -->
<g id="edge222" class="edge"><title>C#3&#45;&#45;F3</title>
<path fill="none" stroke="black" d="M230,-126.2C230,-143.94 230,-172.4 230,-197 230,-469 230,-469 230,-469 230,-631.51 254.9,-687.77 362,-810 515.62,-985.34 628.17,-932.5 822,-1062 849.82,-1080.6 1022.6,-1221.7 1087.4,-1274.9"/>
<polygon fill="black" stroke="black" points="1085.54,-1277.9 1095.5,-1281.5 1089.96,-1272.47 1085.54,-1277.9"/>
<text text-anchor="middle" x="310.25" y="-705.4" font-family="Times,serif" font-size="14.00">0.0036</text>
</g>
<!-- C#3&#45;&#45;F#2 -->
<g id="edge230" class="edge"><title>C#3&#45;&#45;F#2</title>
<path fill="none" stroke="black" d="M256.49,-103.39C357.86,-89.555 721.39,-39.957 838.42,-23.99"/>
<polygon fill="black" stroke="black" points="839.215,-27.4141 848.65,-22.595 838.269,-20.4783 839.215,-27.4141"/>
<text text-anchor="middle" x="630.25" y="-57.4" font-family="Times,serif" font-size="14.00">0.0178</text>
</g>
<!-- E3&#45;&#45;F#3 -->
<g id="edge166" class="edge"><title>E3&#45;&#45;F#3</title>
<path fill="none" stroke="black" d="M148.66,-211.34C119.79,-232.4 67,-278.27 67,-332 67,-1837 67,-1837 67,-1837 67,-1867.6 83.432,-1876.7 111,-1890 182.99,-1924.8 1428.1,-1925.3 1661.5,-1925.1"/>
<polygon fill="black" stroke="black" points="1661.83,-1928.6 1671.8,-1925 1661.77,-1921.6 1661.83,-1928.6"/>
<text text-anchor="middle" x="86.25" y="-1065.4" font-family="Times,serif" font-size="14.00">0.0036</text>
</g>
<!-- E3&#45;&#45;G#3 -->
<g id="edge168" class="edge"><title>E3&#45;&#45;G#3</title>
<path fill="none" stroke="black" d="M163.27,-216.11C159.75,-233.77 155,-262.18 155,-287 155,-847 155,-847 155,-847 155,-1166.3 181,-1245.7 181,-1565 181,-1747 181,-1747 181,-1747 181,-1848 301.92,-1786.4 402,-1800 592.04,-1825.9 1200.7,-1833.2 1358.4,-1834.7"/>
<polygon fill="black" stroke="black" points="1358.57,-1838.2 1368.6,-1834.8 1358.63,-1831.2 1358.57,-1838.2"/>
<text text-anchor="middle" x="178.25" y="-1020.4" font-family="Times,serif" font-size="14.00">0.0071</text>
</g>
<!-- E3&#45;&#45;C#3 -->
<g id="edge170" class="edge"><title>E3&#45;&#45;C#3</title>
<path fill="none" stroke="black" d="M167.09,-179.97C167.89,-168.9 170.41,-154.61 177.5,-144 182.95,-135.84 191.02,-129.11 199.2,-123.8"/>
<polygon fill="black" stroke="black" points="201.177,-126.697 208.01,-118.6 197.619,-120.669 201.177,-126.697"/>
<text text-anchor="middle" x="197.25" y="-147.4" font-family="Times,serif" font-size="14.00">0.0036</text>
</g>
<!-- B&#45;3 -->
<g id="node120" class="node"><title>B&#45;3</title>
<ellipse fill="none" stroke="black" cx="2089" cy="-2016" rx="27" ry="18"/>
<text text-anchor="middle" x="2089" y="-2010.4" font-family="Times,serif" font-size="14.00">B&#45;3</text>
</g>
<!-- B&#45;3&#45;&#45;F#3 -->
<g id="edge174" class="edge"><title>B&#45;3&#45;&#45;F#3</title>
<path fill="none" stroke="black" d="M2063.6,-2009.5C2032.1,-2002.7 1976.8,-1990.6 1929.5,-1980 1860.2,-1964.4 1779.3,-1945.7 1734.1,-1935.2"/>
<polygon fill="black" stroke="black" points="1734.73,-1931.75 1724.2,-1932.9 1733.15,-1938.57 1734.73,-1931.75"/>
<text text-anchor="middle" x="1949.2" y="-1965.4" font-family="Times,serif" font-size="14.00">0.0036</text>
</g>
<!-- B&#45;3&#45;&#45;C#4 -->
<g id="edge176" class="edge"><title>B&#45;3&#45;&#45;C#4</title>
<path fill="none" stroke="black" d="M2115.3,-2011.6C2158.1,-2004.4 2238,-1983.3 2238,-1927 2238,-1927 2238,-1927 2238,-1295 2238,-1155.9 2232,-1121.1 2232,-982 2232,-982 2232,-982 2232,-800 2232,-642.71 2175.6,-580.28 2038,-504 1992.9,-478.99 1841.6,-471.79 1770.5,-469.77"/>
<polygon fill="black" stroke="black" points="1770.29,-466.263 1760.2,-469.49 1770.1,-473.261 1770.29,-466.263"/>
<text text-anchor="middle" x="2257.2" y="-1245.4" font-family="Times,serif" font-size="14.00">0.0071</text>
</g>
<!-- B&#45;3&#45;&#45;E&#45;4 -->
<g id="edge172" class="edge"><title>B&#45;3&#45;&#45;E&#45;4</title>
<path fill="none" stroke="black" d="M2074,-2000.5C2016.1,-1944.8 1807.8,-1744.4 1739.1,-1678.3"/>
<polygon fill="black" stroke="black" points="1741.44,-1675.69 1731.8,-1671.3 1736.6,-1680.75 1741.44,-1675.69"/>
<text text-anchor="middle" x="1939.2" y="-1830.4" font-family="Times,serif" font-size="14.00">0.0036</text>
</g>
<!-- B&#45;3&#45;&#45;G#3 -->
<g id="edge180" class="edge"><title>B&#45;3&#45;&#45;G#3</title>
<path fill="none" stroke="black" d="M2067.5,-2004.6C2043.5,-1993.4 2003.5,-1975.1 1968,-1962 1817,-1906.1 1775.4,-1900.9 1617,-1872 1552.3,-1860.2 1476.4,-1848.7 1432.5,-1842.2"/>
<polygon fill="black" stroke="black" points="1432.99,-1838.73 1422.6,-1840.8 1432.01,-1845.67 1432.99,-1838.73"/>
<text text-anchor="middle" x="1937.2" y="-1920.4" font-family="Times,serif" font-size="14.00">0.0107</text>
</g>
<!-- B&#45;3&#45;&#45;C4 -->
<g id="edge178" class="edge"><title>B&#45;3&#45;&#45;C4</title>
<path fill="none" stroke="black" d="M2105.4,-2001.6C2122.9,-1985.8 2148,-1957.7 2148,-1927 2148,-1927 2148,-1927 2148,-1610 2148,-1513.9 2106.1,-1492.7 2041,-1422 2012.2,-1390.7 2000.3,-1386.5 1962,-1368 1871.9,-1324.5 1575.7,-1243.3 1474.4,-1216.1"/>
<polygon fill="black" stroke="black" points="1475.16,-1212.68 1464.6,-1213.5 1473.37,-1219.45 1475.16,-1212.68"/>
<text text-anchor="middle" x="2167.2" y="-1605.4" font-family="Times,serif" font-size="14.00">0.0107</text>
</g>
<!-- B&#45;5&#45;&#45;G#3 -->
<g id="edge206" class="edge"><title>B&#45;5&#45;&#45;G#3</title>
<path fill="none" stroke="black" d="M1425.4,-674C1439,-679.31 1454.9,-688.12 1463,-702 1467,-708.91 1463.4,-712.01 1463,-720 1455.7,-880.5 1456.2,-921.48 1430,-1080 1421.9,-1128.7 1411.9,-1139.3 1404,-1188 1398.9,-1219.7 1398.6,-1228 1399.5,-1260 1402.1,-1348.1 1408.4,-1369.9 1411,-1458 1415.4,-1610 1425.2,-1649.5 1404,-1800 1403.6,-1802.7 1403.1,-1805.5 1402.6,-1808.2"/>
<polygon fill="black" stroke="black" points="1399.17,-1807.49 1400.5,-1818 1406.02,-1808.96 1399.17,-1807.49"/>
<text text-anchor="middle" x="1419.2" y="-1245.4" font-family="Times,serif" font-size="14.00">0.0036</text>
</g>
<!-- B&#45;5&#45;&#45;E4 -->
<g id="edge204" class="edge"><title>B&#45;5&#45;&#45;E4</title>
<path fill="none" stroke="black" d="M1394.1,-683.75C1368.5,-744.38 1273.1,-955.32 1136,-1080 1127.7,-1087.6 1117.5,-1094.3 1108,-1099.9"/>
<polygon fill="black" stroke="black" points="1106.23,-1096.88 1099.2,-1104.8 1109.64,-1102.99 1106.23,-1096.88"/>
<text text-anchor="middle" x="1311.2" y="-885.4" font-family="Times,serif" font-size="14.00">0.0036</text>
</g>
<!-- B&#45;5&#45;&#45;F#4 -->
<g id="edge202" class="edge"><title>B&#45;5&#45;&#45;F#4</title>
<path fill="none" stroke="black" d="M1406.1,-683.77C1413.5,-710.51 1425.8,-764.46 1419,-810 1412.8,-851.37 1324.1,-1131 1309,-1170 1296.2,-1203 1282.9,-1207.5 1275,-1242 1265.3,-1284.5 1274,-1296.4 1274,-1340 1274,-1477 1274,-1477 1274,-1477 1274,-1501.6 1271.6,-1509.5 1258,-1530 1254,-1536.1 1248.6,-1541.6 1243.1,-1546.5"/>
<polygon fill="black" stroke="black" points="1240.56,-1544.05 1234.9,-1553 1244.91,-1549.53 1240.56,-1544.05"/>
<text text-anchor="middle" x="1353.2" y="-1110.4" font-family="Times,serif" font-size="14.00">0.0036</text>
</g>
<!-- B&#45;5&#45;&#45;B&#45;4 -->
<g id="edge208" class="edge"><title>B&#45;5&#45;&#45;B&#45;4</title>
<path fill="none" stroke="black" d="M1384.6,-651.63C1366.8,-637.1 1338,-613.7 1317.5,-596.98"/>
<polygon fill="black" stroke="black" points="1319.55,-594.133 1309.6,-590.49 1315.11,-599.542 1319.55,-594.133"/>
<text text-anchor="middle" x="1376.2" y="-615.4" font-family="Times,serif" font-size="14.00">0.0036</text>
</g>
<!-- C#6 -->
<g id="node157" class="node"><title>C#6</title>
<ellipse fill="none" stroke="black" cx="400" cy="-756" rx="27.2698" ry="18"/>
<text text-anchor="middle" x="400" y="-750.4" font-family="Times,serif" font-size="14.00">C#6</text>
</g>
<!-- C#6&#45;&#45;G#4 -->
<g id="edge236" class="edge"><title>C#6&#45;&#45;G#4</title>
<path fill="none" stroke="black" d="M397.02,-737.68C396.02,-726.76 396.42,-712.74 402.5,-702 407.33,-693.46 415.21,-686.61 423.42,-681.31"/>
<polygon fill="black" stroke="black" points="425.411,-684.202 432.32,-676.17 421.91,-678.14 425.411,-684.202"/>
<text text-anchor="middle" x="422.25" y="-705.4" font-family="Times,serif" font-size="14.00">0.0036</text>
</g>
<!-- E&#45;6 -->
<g id="node159" class="node"><title>E&#45;6</title>
<ellipse fill="none" stroke="black" cx="1033" cy="-1656" rx="27" ry="18"/>
<text text-anchor="middle" x="1033" y="-1650.4" font-family="Times,serif" font-size="14.00">E&#45;6</text>
</g>
<!-- E&#45;6&#45;&#45;F#4 -->
<g id="edge238" class="edge"><title>E&#45;6&#45;&#45;F#4</title>
<path fill="none" stroke="black" d="M1054.4,-1644.7C1086.7,-1629.2 1148.4,-1599.5 1185.5,-1581.7"/>
<polygon fill="black" stroke="black" points="1187.32,-1584.71 1194.8,-1577.2 1184.27,-1578.41 1187.32,-1584.71"/>
<text text-anchor="middle" x="1160.2" y="-1605.4" font-family="Times,serif" font-size="14.00">0.0036</text>
</g>
<!-- G3 -->
<g id="node161" class="node"><title>G3</title>
<ellipse fill="none" stroke="black" cx="2229" cy="-2106" rx="27" ry="18"/>
<text text-anchor="middle" x="2229" y="-2100.4" font-family="Times,serif" font-size="14.00">G3</text>
</g>
<!-- G3&#45;&#45;E&#45;3 -->
<g id="edge240" class="edge"><title>G3&#45;&#45;E&#45;3</title>
<path fill="none" stroke="black" d="M2246.5,-2091.9C2265.2,-2076.3 2292,-2048.4 2292,-2017 2292,-2017 2292,-2017 2292,-287 2292,-226.04 2205.9,-207.3 2154.8,-201.54"/>
<polygon fill="black" stroke="black" points="2155.1,-198.053 2144.8,-200.53 2154.4,-205.017 2155.1,-198.053"/>
<text text-anchor="middle" x="2311.2" y="-1155.4" font-family="Times,serif" font-size="14.00">0.0071</text>
</g>
<!-- G3&#45;&#45;B&#45;3 -->
<g id="edge242" class="edge"><title>G3&#45;&#45;B&#45;3</title>
<path fill="none" stroke="black" d="M2210.1,-2093.1C2186.1,-2078 2144.5,-2051.9 2116.8,-2034.5"/>
<polygon fill="black" stroke="black" points="2118.34,-2031.33 2108,-2029 2114.62,-2037.27 2118.34,-2031.33"/>
<text text-anchor="middle" x="2191.2" y="-2055.4" font-family="Times,serif" font-size="14.00">0.0036</text>
</g>
</g>
</svg>
