<?xml version="1.0" encoding="UTF-8" standalone="no"?>
<!DOCTYPE svg PUBLIC "-//W3C//DTD SVG 1.1//EN"
 "http://www.w3.org/Graphics/SVG/1.1/DTD/svg11.dtd">
<!-- Generated by graphviz version 2.28.0 (20121019.2215)
 -->
<!-- Title: _anonymous_0 Pages: 1 -->
<svg width="119pt" height="134pt"
 viewBox="0.00 0.00 118.63 134.00" xmlns="http://www.w3.org/2000/svg" xmlns:xlink="http://www.w3.org/1999/xlink">
<g id="graph1" class="graph" transform="scale(1 1) rotate(0) translate(4 130)">
<title>_anonymous_0</title>
<polygon fill="white" stroke="white" points="-4,5 -4,-130 115.635,-130 115.635,5 -4,5"/>
<!-- C#2 -->
<g id="node1" class="node"><title>C#2</title>
<ellipse fill="none" stroke="black" cx="27.1346" cy="-18" rx="27.2698" ry="18"/>
<text text-anchor="middle" x="27.1346" y="-12.4" font-family="Times,serif" font-size="14.00">C#2</text>
</g>
<!-- C#2&#45;&#45;C#2 -->
<g id="edge2" class="edge"><title>C#2&#45;&#45;C#2</title>
<path fill="none" stroke="black" d="M51.6666,-26.121C62.6426,-26.895 72.1346,-24.188 72.1346,-18 72.1346,-13.843 67.8496,-11.257 61.7086,-10.242"/>
<polygon fill="black" stroke="black" points="61.7865,-6.74263 51.6666,-9.8789 61.5335,-13.7381 61.7865,-6.74263"/>
<text text-anchor="middle" x="91.3846" y="-12.4" font-family="Times,serif" font-size="14.00">0.9643</text>
</g>
<!-- D2 -->
<g id="node3" class="node"><title>D2</title>
<ellipse fill="none" stroke="black" cx="27.1346" cy="-108" rx="27" ry="18"/>
<text text-anchor="middle" x="27.1346" y="-102.4" font-family="Times,serif" font-size="14.00">D2</text>
</g>
<!-- D2&#45;&#45;C#2 -->
<g id="edge4" class="edge"><title>D2&#45;&#45;C#2</title>
<path fill="none" stroke="black" d="M27.1346,-89.614C27.1346,-77.24 27.1346,-60.369 27.1346,-46.22"/>
<polygon fill="black" stroke="black" points="30.6347,-46.05 27.1346,-36.05 23.6347,-46.05 30.6347,-46.05"/>
<text text-anchor="middle" x="46.3846" y="-57.4" font-family="Times,serif" font-size="14.00">0.0357</text>
</g>
</g>
</svg>
