<?xml version="1.0" encoding="UTF-8" standalone="no"?>
<!DOCTYPE svg PUBLIC "-//W3C//DTD SVG 1.1//EN"
 "http://www.w3.org/Graphics/SVG/1.1/DTD/svg11.dtd">
<!-- Generated by graphviz version 2.28.0 (20121019.2215)
 -->
<!-- Title: _anonymous_0 Pages: 1 -->
<svg width="439pt" height="674pt"
 viewBox="0.00 0.00 439.17 674.00" xmlns="http://www.w3.org/2000/svg" xmlns:xlink="http://www.w3.org/1999/xlink">
<g id="graph1" class="graph" transform="scale(1 1) rotate(0) translate(4 670)">
<title>_anonymous_0</title>
<polygon fill="white" stroke="white" points="-4,5 -4,-670 436.167,-670 436.167,5 -4,5"/>
<!-- B&#45;4 -->
<g id="node1" class="node"><title>B&#45;4</title>
<ellipse fill="none" stroke="black" cx="360.667" cy="-648" rx="27" ry="18"/>
<text text-anchor="middle" x="360.667" y="-642.4" font-family="Times,serif" font-size="14.00">B&#45;4</text>
</g>
<!-- G#4 -->
<g id="node2" class="node"><title>G#4</title>
<ellipse fill="none" stroke="black" cx="367.667" cy="-378" rx="27.8358" ry="18"/>
<text text-anchor="middle" x="367.667" y="-372.4" font-family="Times,serif" font-size="14.00">G#4</text>
</g>
<!-- B&#45;4&#45;&#45;G#4 -->
<g id="edge2" class="edge"><title>B&#45;4&#45;&#45;G#4</title>
<path fill="none" stroke="black" d="M366.367,-630.18C377.187,-596.21 398.907,-516.96 390.667,-450 388.777,-434.63 383.637,-418.13 378.697,-404.91"/>
<polygon fill="black" stroke="black" points="381.922,-403.547 375.007,-395.52 375.407,-406.107 381.922,-403.547"/>
<text text-anchor="middle" x="411.917" y="-507.4" font-family="Times,serif" font-size="14.00">0.0439</text>
</g>
<!-- C5 -->
<g id="node4" class="node"><title>C5</title>
<ellipse fill="none" stroke="black" cx="214.667" cy="-558" rx="27" ry="18"/>
<text text-anchor="middle" x="214.667" y="-552.4" font-family="Times,serif" font-size="14.00">C5</text>
</g>
<!-- B&#45;4&#45;&#45;C5 -->
<g id="edge4" class="edge"><title>B&#45;4&#45;&#45;C5</title>
<path fill="none" stroke="black" d="M341.277,-635.31C316.077,-620.13 271.887,-593.49 242.947,-576.05"/>
<polygon fill="black" stroke="black" points="244.507,-572.903 234.137,-570.73 240.888,-578.895 244.507,-572.903"/>
<text text-anchor="middle" x="320.917" y="-597.4" font-family="Times,serif" font-size="14.00">0.0263</text>
</g>
<!-- C5&#45;&#45;C5 -->
<g id="edge14" class="edge"><title>C5&#45;&#45;C5</title>
<path fill="none" stroke="black" d="M239.197,-566.12C250.177,-566.89 259.667,-564.19 259.667,-558 259.667,-553.84 255.387,-551.26 249.237,-550.24"/>
<polygon fill="black" stroke="black" points="249.316,-546.741 239.197,-549.88 249.066,-553.736 249.316,-546.741"/>
<text text-anchor="middle" x="278.917" y="-552.4" font-family="Times,serif" font-size="14.00">0.1404</text>
</g>
<!-- F5 -->
<g id="node6" class="node"><title>F5</title>
<ellipse fill="none" stroke="black" cx="103.667" cy="-198" rx="27" ry="18"/>
<text text-anchor="middle" x="103.667" y="-192.4" font-family="Times,serif" font-size="14.00">F5</text>
</g>
<!-- C5&#45;&#45;F5 -->
<g id="edge6" class="edge"><title>C5&#45;&#45;F5</title>
<path fill="none" stroke="black" d="M188.197,-553.98C144.167,-547.32 60.6674,-527.05 60.6674,-469 60.6674,-469 60.6674,-469 60.6674,-287 60.6674,-263.25 73.4644,-239.23 85.0964,-222.29"/>
<polygon fill="black" stroke="black" points="87.9796,-224.276 90.9984,-214.12 82.3054,-220.177 87.9796,-224.276"/>
<text text-anchor="middle" x="79.9174" y="-372.4" font-family="Times,serif" font-size="14.00">0.0351</text>
</g>
<!-- F4 -->
<g id="node8" class="node"><title>F4</title>
<ellipse fill="none" stroke="black" cx="298.667" cy="-468" rx="27" ry="18"/>
<text text-anchor="middle" x="298.667" y="-462.4" font-family="Times,serif" font-size="14.00">F4</text>
</g>
<!-- C5&#45;&#45;F4 -->
<g id="edge8" class="edge"><title>C5&#45;&#45;F4</title>
<path fill="none" stroke="black" d="M228.537,-542.47C241.917,-528.46 262.337,-507.07 277.697,-490.97"/>
<polygon fill="black" stroke="black" points="280.406,-493.201 284.777,-483.55 275.342,-488.369 280.406,-493.201"/>
<text text-anchor="middle" x="283.917" y="-507.4" font-family="Times,serif" font-size="14.00">0.0263</text>
</g>
<!-- D5 -->
<g id="node10" class="node"><title>D5</title>
<ellipse fill="none" stroke="black" cx="214.667" cy="-378" rx="27" ry="18"/>
<text text-anchor="middle" x="214.667" y="-372.4" font-family="Times,serif" font-size="14.00">D5</text>
</g>
<!-- C5&#45;&#45;D5 -->
<g id="edge10" class="edge"><title>C5&#45;&#45;D5</title>
<path fill="none" stroke="black" d="M214.667,-539.93C214.667,-508.97 214.667,-443.3 214.667,-406.13"/>
<polygon fill="black" stroke="black" points="218.167,-406.02 214.667,-396.02 211.167,-406.02 218.167,-406.02"/>
<text text-anchor="middle" x="233.917" y="-462.4" font-family="Times,serif" font-size="14.00">0.0088</text>
</g>
<!-- E&#45;5 -->
<g id="node12" class="node"><title>E&#45;5</title>
<ellipse fill="none" stroke="black" cx="151.667" cy="-468" rx="27" ry="18"/>
<text text-anchor="middle" x="151.667" y="-462.4" font-family="Times,serif" font-size="14.00">E&#45;5</text>
</g>
<!-- C5&#45;&#45;E&#45;5 -->
<g id="edge12" class="edge"><title>C5&#45;&#45;E&#45;5</title>
<path fill="none" stroke="black" d="M192.677,-547.4C181.867,-541.58 169.597,-533.11 162.167,-522 157.067,-514.38 154.337,-504.85 152.907,-495.98"/>
<polygon fill="black" stroke="black" points="156.382,-495.562 151.757,-486.03 149.429,-496.366 156.382,-495.562"/>
<text text-anchor="middle" x="181.917" y="-507.4" font-family="Times,serif" font-size="14.00">0.0439</text>
</g>
<!-- F5&#45;&#45;F5 -->
<g id="edge28" class="edge"><title>F5&#45;&#45;F5</title>
<path fill="none" stroke="black" d="M128.197,-206.12C139.177,-206.89 148.667,-204.19 148.667,-198 148.667,-193.84 144.387,-191.26 138.237,-190.24"/>
<polygon fill="black" stroke="black" points="138.316,-186.741 128.197,-189.88 138.066,-193.736 138.316,-186.741"/>
<text text-anchor="middle" x="167.917" y="-192.4" font-family="Times,serif" font-size="14.00">0.0526</text>
</g>
<!-- G#5 -->
<g id="node21" class="node"><title>G#5</title>
<ellipse fill="none" stroke="black" cx="27.6674" cy="-108" rx="27.8358" ry="18"/>
<text text-anchor="middle" x="27.6674" y="-102.4" font-family="Times,serif" font-size="14.00">G#5</text>
</g>
<!-- F5&#45;&#45;G#5 -->
<g id="edge26" class="edge"><title>F5&#45;&#45;G#5</title>
<path fill="none" stroke="black" d="M90.7754,-182.07C78.8744,-168.29 61.0264,-147.63 47.3444,-131.78"/>
<polygon fill="black" stroke="black" points="49.8093,-129.279 40.6234,-124 44.5121,-133.855 49.8093,-129.279"/>
<text text-anchor="middle" x="91.9174" y="-147.4" font-family="Times,serif" font-size="14.00">0.0088</text>
</g>
<!-- F4&#45;&#45;G#4 -->
<g id="edge22" class="edge"><title>F4&#45;&#45;G#4</title>
<path fill="none" stroke="black" d="M310.687,-451.67C321.307,-438.13 336.957,-418.16 349.177,-402.58"/>
<polygon fill="black" stroke="black" points="352.137,-404.478 355.557,-394.45 346.63,-400.156 352.137,-404.478"/>
<text text-anchor="middle" x="358.917" y="-417.4" font-family="Times,serif" font-size="14.00">0.0175</text>
</g>
<!-- F4&#45;&#45;F4 -->
<g id="edge24" class="edge"><title>F4&#45;&#45;F4</title>
<path fill="none" stroke="black" d="M323.197,-476.12C334.177,-476.89 343.667,-474.19 343.667,-468 343.667,-463.84 339.387,-461.26 333.237,-460.24"/>
<polygon fill="black" stroke="black" points="333.316,-456.741 323.197,-459.88 333.066,-463.736 333.316,-456.741"/>
<text text-anchor="middle" x="362.917" y="-462.4" font-family="Times,serif" font-size="14.00">0.0088</text>
</g>
<!-- E5 -->
<g id="node17" class="node"><title>E5</title>
<ellipse fill="none" stroke="black" cx="213.667" cy="-288" rx="27" ry="18"/>
<text text-anchor="middle" x="213.667" y="-282.4" font-family="Times,serif" font-size="14.00">E5</text>
</g>
<!-- D5&#45;&#45;E5 -->
<g id="edge20" class="edge"><title>D5&#45;&#45;E5</title>
<path fill="none" stroke="black" d="M214.467,-359.61C214.327,-347.24 214.137,-330.37 213.977,-316.22"/>
<polygon fill="black" stroke="black" points="217.475,-316.008 213.857,-306.05 210.476,-316.091 217.475,-316.008"/>
<text text-anchor="middle" x="233.917" y="-327.4" font-family="Times,serif" font-size="14.00">0.0175</text>
</g>
<!-- E&#45;5&#45;&#45;F5 -->
<g id="edge16" class="edge"><title>E&#45;5&#45;&#45;F5</title>
<path fill="none" stroke="black" d="M148.587,-449.83C140.467,-404.45 118.367,-281.06 108.517,-226.07"/>
<polygon fill="black" stroke="black" points="111.927,-225.255 106.717,-216.03 105.037,-226.491 111.927,-225.255"/>
<text text-anchor="middle" x="148.917" y="-327.4" font-family="Times,serif" font-size="14.00">0.0175</text>
</g>
<!-- E&#45;5&#45;&#45;D5 -->
<g id="edge18" class="edge"><title>E&#45;5&#45;&#45;D5</title>
<path fill="none" stroke="black" d="M151.757,-449.97C152.557,-438.9 155.077,-424.61 162.167,-414 167.617,-405.84 175.687,-399.11 183.867,-393.8"/>
<polygon fill="black" stroke="black" points="185.845,-396.697 192.677,-388.6 182.287,-390.669 185.845,-396.697"/>
<text text-anchor="middle" x="181.917" y="-417.4" font-family="Times,serif" font-size="14.00">0.0263</text>
</g>
<!-- E5&#45;&#45;F5 -->
<g id="edge30" class="edge"><title>E5&#45;&#45;F5</title>
<path fill="none" stroke="black" d="M194.627,-274.97C184.717,-268.48 172.537,-260.15 162.167,-252 149.687,-242.18 136.517,-230.39 125.847,-220.43"/>
<polygon fill="black" stroke="black" points="128.232,-217.868 118.557,-213.55 123.428,-222.959 128.232,-217.868"/>
<text text-anchor="middle" x="181.917" y="-237.4" font-family="Times,serif" font-size="14.00">0.0351</text>
</g>
<!-- G#5&#45;&#45;G#5 -->
<g id="edge32" class="edge"><title>G#5&#45;&#45;G#5</title>
<path fill="none" stroke="black" d="M52.1994,-116.12C63.1754,-116.89 72.6674,-114.19 72.6674,-108 72.6674,-103.84 68.3824,-101.26 62.2414,-100.24"/>
<polygon fill="black" stroke="black" points="62.3187,-96.7406 52.1994,-99.879 62.0672,-103.736 62.3187,-96.7406"/>
<text text-anchor="middle" x="91.9174" y="-102.4" font-family="Times,serif" font-size="14.00">0.0088</text>
</g>
<!-- G5 -->
<g id="node26" class="node"><title>G5</title>
<ellipse fill="none" stroke="black" cx="180.667" cy="-18" rx="27" ry="18"/>
<text text-anchor="middle" x="180.667" y="-12.4" font-family="Times,serif" font-size="14.00">G5</text>
</g>
<!-- G#5&#45;&#45;G5 -->
<g id="edge34" class="edge"><title>G#5&#45;&#45;G5</title>
<path fill="none" stroke="black" d="M43.1304,-92.816C56.2624,-81.289 75.9804,-65.167 95.1674,-54 111.587,-44.446 131.107,-36.241 147.347,-30.182"/>
<polygon fill="black" stroke="black" points="148.775,-33.3876 156.987,-26.694 146.393,-26.8053 148.775,-33.3876"/>
<text text-anchor="middle" x="114.917" y="-57.4" font-family="Times,serif" font-size="14.00">0.0088</text>
</g>
<!-- G5&#45;&#45;F5 -->
<g id="edge36" class="edge"><title>G5&#45;&#45;F5</title>
<path fill="none" stroke="black" d="M173.577,-35.387C160.187,-66.352 131.057,-133.68 114.947,-170.92"/>
<polygon fill="black" stroke="black" points="111.531,-170.002 110.777,-180.57 117.957,-172.779 111.531,-170.002"/>
<text text-anchor="middle" x="169.917" y="-102.4" font-family="Times,serif" font-size="14.00">0.0088</text>
</g>
<!-- G5&#45;&#45;D5 -->
<g id="edge42" class="edge"><title>G5&#45;&#45;D5</title>
<path fill="none" stroke="black" d="M202.417,-28.965C228.477,-42.575 268.667,-69.622 268.667,-107 268.667,-289 268.667,-289 268.667,-289 268.667,-313.36 267.507,-321.29 254.667,-342 251.097,-347.76 246.277,-353.1 241.217,-357.79"/>
<polygon fill="black" stroke="black" points="238.588,-355.431 233.227,-364.57 243.117,-360.769 238.588,-355.431"/>
<text text-anchor="middle" x="287.917" y="-192.4" font-family="Times,serif" font-size="14.00">0.0088</text>
</g>
<!-- G5&#45;&#45;E5 -->
<g id="edge38" class="edge"><title>G5&#45;&#45;E5</title>
<path fill="none" stroke="black" d="M183.817,-35.883C186.427,-50.24 190.107,-71.423 192.667,-90 200.967,-150.32 207.837,-221.42 211.277,-259.54"/>
<polygon fill="black" stroke="black" points="207.821,-260.181 212.197,-269.83 214.793,-259.558 207.821,-260.181"/>
<text text-anchor="middle" x="220.917" y="-147.4" font-family="Times,serif" font-size="14.00">0.0351</text>
</g>
<!-- G5&#45;&#45;G5 -->
<g id="edge40" class="edge"><title>G5&#45;&#45;G5</title>
<path fill="none" stroke="black" d="M205.197,-26.121C216.177,-26.895 225.667,-24.188 225.667,-18 225.667,-13.843 221.387,-11.257 215.237,-10.242"/>
<polygon fill="black" stroke="black" points="215.317,-6.7427 205.197,-9.8789 215.064,-13.7381 215.317,-6.7427"/>
<text text-anchor="middle" x="244.917" y="-12.4" font-family="Times,serif" font-size="14.00">0.1842</text>
</g>
</g>
</svg>
