<?xml version="1.0" encoding="UTF-8" standalone="no"?>
<!DOCTYPE svg PUBLIC "-//W3C//DTD SVG 1.1//EN"
 "http://www.w3.org/Graphics/SVG/1.1/DTD/svg11.dtd">
<!-- Generated by graphviz version 2.28.0 (20121019.2215)
 -->
<!-- Title: _anonymous_0 Pages: 1 -->
<svg width="487pt" height="674pt"
 viewBox="0.00 0.00 486.50 674.00" xmlns="http://www.w3.org/2000/svg" xmlns:xlink="http://www.w3.org/1999/xlink">
<g id="graph1" class="graph" transform="scale(1 1) rotate(0) translate(4 670)">
<title>_anonymous_0</title>
<polygon fill="white" stroke="white" points="-4,5 -4,-670 483.5,-670 483.5,5 -4,5"/>
<!-- A4 -->
<g id="node1" class="node"><title>A4</title>
<ellipse fill="none" stroke="black" cx="63" cy="-558" rx="27" ry="18"/>
<text text-anchor="middle" x="63" y="-552.4" font-family="Times,serif" font-size="14.00">A4</text>
</g>
<!-- B&#45;4 -->
<g id="node2" class="node"><title>B&#45;4</title>
<ellipse fill="none" stroke="black" cx="63" cy="-468" rx="27" ry="18"/>
<text text-anchor="middle" x="63" y="-462.4" font-family="Times,serif" font-size="14.00">B&#45;4</text>
</g>
<!-- A4&#45;&#45;B&#45;4 -->
<g id="edge2" class="edge"><title>A4&#45;&#45;B&#45;4</title>
<path fill="none" stroke="black" d="M63,-539.61C63,-527.24 63,-510.37 63,-496.22"/>
<polygon fill="black" stroke="black" points="66.5001,-496.05 63,-486.05 59.5001,-496.05 66.5001,-496.05"/>
<text text-anchor="middle" x="82.25" y="-507.4" font-family="Times,serif" font-size="14.00">0.0244</text>
</g>
<!-- C5 -->
<g id="node4" class="node"><title>C5</title>
<ellipse fill="none" stroke="black" cx="66" cy="-378" rx="27" ry="18"/>
<text text-anchor="middle" x="66" y="-372.4" font-family="Times,serif" font-size="14.00">C5</text>
</g>
<!-- B&#45;4&#45;&#45;C5 -->
<g id="edge4" class="edge"><title>B&#45;4&#45;&#45;C5</title>
<path fill="none" stroke="black" d="M63.593,-449.61C64.015,-437.24 64.59,-420.37 65.072,-406.22"/>
<polygon fill="black" stroke="black" points="68.5759,-406.164 65.419,-396.05 61.5799,-405.925 68.5759,-406.164"/>
<text text-anchor="middle" x="84.25" y="-417.4" font-family="Times,serif" font-size="14.00">0.0244</text>
</g>
<!-- D5 -->
<g id="node6" class="node"><title>D5</title>
<ellipse fill="none" stroke="black" cx="66" cy="-288" rx="27" ry="18"/>
<text text-anchor="middle" x="66" y="-282.4" font-family="Times,serif" font-size="14.00">D5</text>
</g>
<!-- C5&#45;&#45;D5 -->
<g id="edge6" class="edge"><title>C5&#45;&#45;D5</title>
<path fill="none" stroke="black" d="M66,-359.61C66,-347.24 66,-330.37 66,-316.22"/>
<polygon fill="black" stroke="black" points="69.5001,-316.05 66,-306.05 62.5001,-316.05 69.5001,-316.05"/>
<text text-anchor="middle" x="85.25" y="-327.4" font-family="Times,serif" font-size="14.00">0.0244</text>
</g>
<!-- B&#45;2 -->
<g id="node8" class="node"><title>B&#45;2</title>
<ellipse fill="none" stroke="black" cx="367" cy="-648" rx="27" ry="18"/>
<text text-anchor="middle" x="367" y="-642.4" font-family="Times,serif" font-size="14.00">B&#45;2</text>
</g>
<!-- G#2 -->
<g id="node9" class="node"><title>G#2</title>
<ellipse fill="none" stroke="black" cx="367" cy="-558" rx="27.8358" ry="18"/>
<text text-anchor="middle" x="367" y="-552.4" font-family="Times,serif" font-size="14.00">G#2</text>
</g>
<!-- B&#45;2&#45;&#45;G#2 -->
<g id="edge8" class="edge"><title>B&#45;2&#45;&#45;G#2</title>
<path fill="none" stroke="black" d="M367,-629.61C367,-617.24 367,-600.37 367,-586.22"/>
<polygon fill="black" stroke="black" points="370.5,-586.05 367,-576.05 363.5,-586.05 370.5,-586.05"/>
<text text-anchor="middle" x="386.25" y="-597.4" font-family="Times,serif" font-size="14.00">0.0244</text>
</g>
<!-- B3 -->
<g id="node11" class="node"><title>B3</title>
<ellipse fill="none" stroke="black" cx="135" cy="-468" rx="27" ry="18"/>
<text text-anchor="middle" x="135" y="-462.4" font-family="Times,serif" font-size="14.00">B3</text>
</g>
<!-- D4 -->
<g id="node12" class="node"><title>D4</title>
<ellipse fill="none" stroke="black" cx="138" cy="-378" rx="27" ry="18"/>
<text text-anchor="middle" x="138" y="-372.4" font-family="Times,serif" font-size="14.00">D4</text>
</g>
<!-- B3&#45;&#45;D4 -->
<g id="edge10" class="edge"><title>B3&#45;&#45;D4</title>
<path fill="none" stroke="black" d="M135.59,-449.61C136.01,-437.24 136.59,-420.37 137.07,-406.22"/>
<polygon fill="black" stroke="black" points="140.574,-406.164 137.42,-396.05 133.578,-405.924 140.574,-406.164"/>
<text text-anchor="middle" x="156.25" y="-417.4" font-family="Times,serif" font-size="14.00">0.0732</text>
</g>
<!-- C4 -->
<g id="node14" class="node"><title>C4</title>
<ellipse fill="none" stroke="black" cx="138" cy="-288" rx="27" ry="18"/>
<text text-anchor="middle" x="138" y="-282.4" font-family="Times,serif" font-size="14.00">C4</text>
</g>
<!-- D4&#45;&#45;C4 -->
<g id="edge12" class="edge"><title>D4&#45;&#45;C4</title>
<path fill="none" stroke="black" d="M138,-359.61C138,-347.24 138,-330.37 138,-316.22"/>
<polygon fill="black" stroke="black" points="141.5,-316.05 138,-306.05 134.5,-316.05 141.5,-316.05"/>
<text text-anchor="middle" x="157.25" y="-327.4" font-family="Times,serif" font-size="14.00">0.0732</text>
</g>
<!-- E4 -->
<g id="node16" class="node"><title>E4</title>
<ellipse fill="none" stroke="black" cx="27" cy="-198" rx="27" ry="18"/>
<text text-anchor="middle" x="27" y="-192.4" font-family="Times,serif" font-size="14.00">E4</text>
</g>
<!-- C4&#45;&#45;E4 -->
<g id="edge14" class="edge"><title>C4&#45;&#45;E4</title>
<path fill="none" stroke="black" d="M119.36,-274.45C109.95,-267.95 98.451,-259.78 88.5,-252 75.453,-241.8 61.428,-229.8 50.071,-219.8"/>
<polygon fill="black" stroke="black" points="52.1289,-216.947 42.325,-212.93 47.4841,-222.184 52.1289,-216.947"/>
<text text-anchor="middle" x="108.25" y="-237.4" font-family="Times,serif" font-size="14.00">0.0976</text>
</g>
<!-- G#3 -->
<g id="node18" class="node"><title>G#3</title>
<ellipse fill="none" stroke="black" cx="198" cy="-198" rx="27.8358" ry="18"/>
<text text-anchor="middle" x="198" y="-192.4" font-family="Times,serif" font-size="14.00">G#3</text>
</g>
<!-- C4&#45;&#45;G#3 -->
<g id="edge16" class="edge"><title>C4&#45;&#45;G#3</title>
<path fill="none" stroke="black" d="M153.86,-273.38C160.33,-267.28 167.56,-259.73 173,-252 178.85,-243.69 183.94,-233.8 187.97,-224.82"/>
<polygon fill="black" stroke="black" points="191.216,-226.131 191.92,-215.56 184.777,-223.385 191.216,-226.131"/>
<text text-anchor="middle" x="203.25" y="-237.4" font-family="Times,serif" font-size="14.00">0.0244</text>
</g>
<!-- F4 -->
<g id="node20" class="node"><title>F4</title>
<ellipse fill="none" stroke="black" cx="125" cy="-198" rx="27" ry="18"/>
<text text-anchor="middle" x="125" y="-192.4" font-family="Times,serif" font-size="14.00">F4</text>
</g>
<!-- C4&#45;&#45;F4 -->
<g id="edge18" class="edge"><title>C4&#45;&#45;F4</title>
<path fill="none" stroke="black" d="M135.49,-270.03C133.67,-257.69 131.16,-240.73 129.06,-226.47"/>
<polygon fill="black" stroke="black" points="132.469,-225.598 127.54,-216.22 125.545,-226.625 132.469,-225.598"/>
<text text-anchor="middle" x="152.25" y="-237.4" font-family="Times,serif" font-size="14.00">0.0488</text>
</g>
<!-- G4 -->
<g id="node22" class="node"><title>G4</title>
<ellipse fill="none" stroke="black" cx="63" cy="-648" rx="27" ry="18"/>
<text text-anchor="middle" x="63" y="-642.4" font-family="Times,serif" font-size="14.00">G4</text>
</g>
<!-- E4&#45;&#45;G4 -->
<g id="edge20" class="edge"><title>E4&#45;&#45;G4</title>
<path fill="none" stroke="black" d="M19.974,-215.53C13.21,-232.97 4,-261.42 4,-287 4,-559 4,-559 4,-559 4,-585.64 22.881,-610.3 39.281,-626.7"/>
<polygon fill="black" stroke="black" points="36.9075,-629.273 46.565,-633.63 41.7325,-624.201 36.9075,-629.273"/>
<text text-anchor="middle" x="23.25" y="-417.4" font-family="Times,serif" font-size="14.00">0.0976</text>
</g>
<!-- G#4 -->
<g id="node24" class="node"><title>G#4</title>
<ellipse fill="none" stroke="black" cx="267" cy="-108" rx="27.8358" ry="18"/>
<text text-anchor="middle" x="267" y="-102.4" font-family="Times,serif" font-size="14.00">G#4</text>
</g>
<!-- F4&#45;&#45;G#4 -->
<g id="edge22" class="edge"><title>F4&#45;&#45;G#4</title>
<path fill="none" stroke="black" d="M144.15,-185.13C168.61,-169.98 211.11,-143.64 239.14,-126.26"/>
<polygon fill="black" stroke="black" points="241.04,-129.2 247.7,-120.96 237.355,-123.248 241.04,-129.2"/>
<text text-anchor="middle" x="228.25" y="-147.4" font-family="Times,serif" font-size="14.00">0.0244</text>
</g>
<!-- G4&#45;&#45;A4 -->
<g id="edge26" class="edge"><title>G4&#45;&#45;A4</title>
<path fill="none" stroke="black" d="M63,-629.61C63,-617.24 63,-600.37 63,-586.22"/>
<polygon fill="black" stroke="black" points="66.5001,-586.05 63,-576.05 59.5001,-586.05 66.5001,-586.05"/>
<text text-anchor="middle" x="82.25" y="-597.4" font-family="Times,serif" font-size="14.00">0.0244</text>
</g>
<!-- G3 -->
<g id="node26" class="node"><title>G3</title>
<ellipse fill="none" stroke="black" cx="135" cy="-558" rx="27" ry="18"/>
<text text-anchor="middle" x="135" y="-552.4" font-family="Times,serif" font-size="14.00">G3</text>
</g>
<!-- G4&#45;&#45;G3 -->
<g id="edge24" class="edge"><title>G4&#45;&#45;G3</title>
<path fill="none" stroke="black" d="M81.031,-634.31C88.979,-628.16 98.066,-620.31 105,-612 111.84,-603.81 117.95,-593.84 122.84,-584.76"/>
<polygon fill="black" stroke="black" points="126.018,-586.233 127.48,-575.74 119.793,-583.031 126.018,-586.233"/>
<text text-anchor="middle" x="137.25" y="-597.4" font-family="Times,serif" font-size="14.00">0.0732</text>
</g>
<!-- E&#45;3 -->
<g id="node29" class="node"><title>E&#45;3</title>
<ellipse fill="none" stroke="black" cx="300" cy="-18" rx="27" ry="18"/>
<text text-anchor="middle" x="300" y="-12.4" font-family="Times,serif" font-size="14.00">E&#45;3</text>
</g>
<!-- G#4&#45;&#45;E&#45;3 -->
<g id="edge28" class="edge"><title>G#4&#45;&#45;E&#45;3</title>
<path fill="none" stroke="black" d="M268.27,-89.793C269.49,-79.173 271.87,-65.439 276.5,-54 278.03,-50.215 280.01,-46.418 282.17,-42.794"/>
<polygon fill="black" stroke="black" points="285.217,-44.53 287.76,-34.245 279.358,-40.6991 285.217,-44.53"/>
<text text-anchor="middle" x="296.25" y="-57.4" font-family="Times,serif" font-size="14.00">0.0244</text>
</g>
<!-- G3&#45;&#45;B3 -->
<g id="edge38" class="edge"><title>G3&#45;&#45;B3</title>
<path fill="none" stroke="black" d="M135,-539.61C135,-527.24 135,-510.37 135,-496.22"/>
<polygon fill="black" stroke="black" points="138.5,-496.05 135,-486.05 131.5,-496.05 138.5,-496.05"/>
<text text-anchor="middle" x="154.25" y="-507.4" font-family="Times,serif" font-size="14.00">0.0732</text>
</g>
<!-- D2 -->
<g id="node31" class="node"><title>D2</title>
<ellipse fill="none" stroke="black" cx="228" cy="-378" rx="27" ry="18"/>
<text text-anchor="middle" x="228" y="-372.4" font-family="Times,serif" font-size="14.00">D2</text>
</g>
<!-- D2&#45;&#45;C4 -->
<g id="edge30" class="edge"><title>D2&#45;&#45;C4</title>
<path fill="none" stroke="black" d="M215.09,-361.63C205.72,-350.76 192.54,-336.03 180,-324 174.54,-318.76 168.4,-313.39 162.55,-308.47"/>
<polygon fill="black" stroke="black" points="164.766,-305.761 154.82,-302.11 160.318,-311.166 164.766,-305.761"/>
<text text-anchor="middle" x="216.25" y="-327.4" font-family="Times,serif" font-size="14.00">0.0244</text>
</g>
<!-- D3 -->
<g id="node33" class="node"><title>D3</title>
<ellipse fill="none" stroke="black" cx="440" cy="-648" rx="27" ry="18"/>
<text text-anchor="middle" x="440" y="-642.4" font-family="Times,serif" font-size="14.00">D3</text>
</g>
<!-- C3 -->
<g id="node34" class="node"><title>C3</title>
<ellipse fill="none" stroke="black" cx="440" cy="-558" rx="27" ry="18"/>
<text text-anchor="middle" x="440" y="-552.4" font-family="Times,serif" font-size="14.00">C3</text>
</g>
<!-- D3&#45;&#45;C3 -->
<g id="edge32" class="edge"><title>D3&#45;&#45;C3</title>
<path fill="none" stroke="black" d="M440,-629.61C440,-617.24 440,-600.37 440,-586.22"/>
<polygon fill="black" stroke="black" points="443.5,-586.05 440,-576.05 436.5,-586.05 443.5,-586.05"/>
<text text-anchor="middle" x="459.25" y="-597.4" font-family="Times,serif" font-size="14.00">0.0244</text>
</g>
<!-- E&#45;4 -->
<g id="node36" class="node"><title>E&#45;4</title>
<ellipse fill="none" stroke="black" cx="271" cy="-198" rx="27" ry="18"/>
<text text-anchor="middle" x="271" y="-192.4" font-family="Times,serif" font-size="14.00">E&#45;4</text>
</g>
<!-- E&#45;4&#45;&#45;G#4 -->
<g id="edge34" class="edge"><title>E&#45;4&#45;&#45;G#4</title>
<path fill="none" stroke="black" d="M269.63,-179.92C269.22,-174.22 268.79,-167.84 268.5,-162 268.09,-153.69 267.78,-144.64 267.55,-136.41"/>
<polygon fill="black" stroke="black" points="271.044,-136.101 267.3,-126.19 264.046,-136.273 271.044,-136.101"/>
<text text-anchor="middle" x="288.25" y="-147.4" font-family="Times,serif" font-size="14.00">0.0244</text>
</g>
<!-- E2 -->
<g id="node38" class="node"><title>E2</title>
<ellipse fill="none" stroke="black" cx="279" cy="-468" rx="27" ry="18"/>
<text text-anchor="middle" x="279" y="-462.4" font-family="Times,serif" font-size="14.00">E2</text>
</g>
<!-- E2&#45;&#45;D2 -->
<g id="edge36" class="edge"><title>E2&#45;&#45;D2</title>
<path fill="none" stroke="black" d="M269.65,-450.86C262.03,-437.71 251.14,-418.92 242.4,-403.86"/>
<polygon fill="black" stroke="black" points="245.332,-401.938 237.29,-395.04 239.275,-405.447 245.332,-401.938"/>
<text text-anchor="middle" x="278.25" y="-417.4" font-family="Times,serif" font-size="14.00">0.0244</text>
</g>
<!-- F2 -->
<g id="node41" class="node"><title>F2</title>
<ellipse fill="none" stroke="black" cx="238" cy="-558" rx="27" ry="18"/>
<text text-anchor="middle" x="238" y="-552.4" font-family="Times,serif" font-size="14.00">F2</text>
</g>
<!-- F2&#45;&#45;E2 -->
<g id="edge40" class="edge"><title>F2&#45;&#45;E2</title>
<path fill="none" stroke="black" d="M245.71,-540.45C251.72,-527.54 260.18,-509.39 267.07,-494.61"/>
<polygon fill="black" stroke="black" points="270.273,-496.023 271.32,-485.48 263.927,-493.069 270.273,-496.023"/>
<text text-anchor="middle" x="282.25" y="-507.4" font-family="Times,serif" font-size="14.00">0.0244</text>
</g>
<!-- F2&#45;&#45;F2 -->
<g id="edge44" class="edge"><title>F2&#45;&#45;F2</title>
<path fill="none" stroke="black" d="M262.53,-566.12C273.51,-566.89 283,-564.19 283,-558 283,-553.84 278.72,-551.26 272.57,-550.24"/>
<polygon fill="black" stroke="black" points="272.649,-546.741 262.53,-549.88 272.398,-553.736 272.649,-546.741"/>
<text text-anchor="middle" x="302.25" y="-552.4" font-family="Times,serif" font-size="14.00">0.0244</text>
</g>
<!-- E&#45;2 -->
<g id="node43" class="node"><title>E&#45;2</title>
<ellipse fill="none" stroke="black" cx="207" cy="-468" rx="27" ry="18"/>
<text text-anchor="middle" x="207" y="-462.4" font-family="Times,serif" font-size="14.00">E&#45;2</text>
</g>
<!-- F2&#45;&#45;E&#45;2 -->
<g id="edge42" class="edge"><title>F2&#45;&#45;E&#45;2</title>
<path fill="none" stroke="black" d="M225.01,-541.91C220.65,-536.05 216.21,-529.06 213.5,-522 210.42,-513.97 208.72,-504.79 207.8,-496.36"/>
<polygon fill="black" stroke="black" points="211.276,-495.918 207.01,-486.22 204.297,-496.462 211.276,-495.918"/>
<text text-anchor="middle" x="233.25" y="-507.4" font-family="Times,serif" font-size="14.00">0.0244</text>
</g>
<!-- F3 -->
<g id="node46" class="node"><title>F3</title>
<ellipse fill="none" stroke="black" cx="296" cy="-288" rx="27" ry="18"/>
<text text-anchor="middle" x="296" y="-282.4" font-family="Times,serif" font-size="14.00">F3</text>
</g>
<!-- F3&#45;&#45;G#3 -->
<g id="edge48" class="edge"><title>F3&#45;&#45;G#3</title>
<path fill="none" stroke="black" d="M280.25,-272.86C264.4,-258.62 239.74,-236.48 221.55,-220.15"/>
<polygon fill="black" stroke="black" points="223.486,-217.184 213.71,-213.1 218.806,-222.389 223.486,-217.184"/>
<text text-anchor="middle" x="275.25" y="-237.4" font-family="Times,serif" font-size="14.00">0.0488</text>
</g>
<!-- F3&#45;&#45;E&#45;3 -->
<g id="edge46" class="edge"><title>F3&#45;&#45;E&#45;3</title>
<path fill="none" stroke="black" d="M299.14,-269.85C301.65,-255.5 305.06,-234.48 307,-216 313.69,-152.25 313.22,-136.07 315,-72 315.22,-64.003 316.61,-61.837 315,-54 314.37,-50.926 313.46,-47.789 312.39,-44.717"/>
<polygon fill="black" stroke="black" points="315.577,-43.2604 308.6,-35.287 309.082,-45.8709 315.577,-43.2604"/>
<text text-anchor="middle" x="332.25" y="-147.4" font-family="Times,serif" font-size="14.00">0.0244</text>
</g>
</g>
</svg>
