<?xml version="1.0" encoding="UTF-8" standalone="no"?>
<!DOCTYPE svg PUBLIC "-//W3C//DTD SVG 1.1//EN"
 "http://www.w3.org/Graphics/SVG/1.1/DTD/svg11.dtd">
<!-- Generated by graphviz version 2.28.0 (20121019.2215)
 -->
<!-- Title: _anonymous_0 Pages: 1 -->
<svg width="319pt" height="224pt"
 viewBox="0.00 0.00 318.50 224.00" xmlns="http://www.w3.org/2000/svg" xmlns:xlink="http://www.w3.org/1999/xlink">
<g id="graph1" class="graph" transform="scale(1 1) rotate(0) translate(4 220)">
<title>_anonymous_0</title>
<polygon fill="white" stroke="white" points="-4,5 -4,-220 315.5,-220 315.5,5 -4,5"/>
<!-- A2 -->
<g id="node1" class="node"><title>A2</title>
<ellipse fill="none" stroke="black" cx="99" cy="-108" rx="27" ry="18"/>
<text text-anchor="middle" x="99" y="-102.4" font-family="Times,serif" font-size="14.00">A2</text>
</g>
<!-- A2&#45;&#45;A2 -->
<g id="edge2" class="edge"><title>A2&#45;&#45;A2</title>
<path fill="none" stroke="black" d="M123.53,-116.12C134.51,-116.89 144,-114.19 144,-108 144,-103.84 139.72,-101.26 133.57,-100.24"/>
<polygon fill="black" stroke="black" points="133.649,-96.7407 123.53,-99.879 133.398,-103.736 133.649,-96.7407"/>
<text text-anchor="middle" x="163.25" y="-102.4" font-family="Times,serif" font-size="14.00">0.5556</text>
</g>
<!-- B2 -->
<g id="node3" class="node"><title>B2</title>
<ellipse fill="none" stroke="black" cx="27" cy="-18" rx="27" ry="18"/>
<text text-anchor="middle" x="27" y="-12.4" font-family="Times,serif" font-size="14.00">B2</text>
</g>
<!-- A2&#45;&#45;B2 -->
<g id="edge4" class="edge"><title>A2&#45;&#45;B2</title>
<path fill="none" stroke="black" d="M80.718,-94.366C72.668,-88.226 63.477,-80.37 56.5,-72 49.694,-63.835 43.669,-53.87 38.867,-44.792"/>
<polygon fill="black" stroke="black" points="41.9466,-43.1255 34.324,-35.767 35.6941,-46.2729 41.9466,-43.1255"/>
<text text-anchor="middle" x="76.25" y="-57.4" font-family="Times,serif" font-size="14.00">0.0222</text>
</g>
<!-- F2 -->
<g id="node5" class="node"><title>F2</title>
<ellipse fill="none" stroke="black" cx="99" cy="-18" rx="27" ry="18"/>
<text text-anchor="middle" x="99" y="-12.4" font-family="Times,serif" font-size="14.00">F2</text>
</g>
<!-- A2&#45;&#45;F2 -->
<g id="edge6" class="edge"><title>A2&#45;&#45;F2</title>
<path fill="none" stroke="black" d="M99,-89.614C99,-77.24 99,-60.369 99,-46.22"/>
<polygon fill="black" stroke="black" points="102.5,-46.05 99,-36.05 95.5001,-46.05 102.5,-46.05"/>
<text text-anchor="middle" x="118.25" y="-57.4" font-family="Times,serif" font-size="14.00">0.0222</text>
</g>
<!-- G2 -->
<g id="node7" class="node"><title>G2</title>
<ellipse fill="none" stroke="black" cx="227" cy="-18" rx="27" ry="18"/>
<text text-anchor="middle" x="227" y="-12.4" font-family="Times,serif" font-size="14.00">G2</text>
</g>
<!-- A2&#45;&#45;G2 -->
<g id="edge8" class="edge"><title>A2&#45;&#45;G2</title>
<path fill="none" stroke="black" d="M117.07,-94.578C138.77,-79.66 175.35,-54.507 200.31,-37.349"/>
<polygon fill="black" stroke="black" points="202.352,-40.1924 208.61,-31.643 198.387,-34.424 202.352,-40.1924"/>
<text text-anchor="middle" x="194.25" y="-57.4" font-family="Times,serif" font-size="14.00">0.0222</text>
</g>
<!-- F2&#45;&#45;F2 -->
<g id="edge10" class="edge"><title>F2&#45;&#45;F2</title>
<path fill="none" stroke="black" d="M123.53,-26.121C134.51,-26.895 144,-24.188 144,-18 144,-13.843 139.72,-11.257 133.57,-10.242"/>
<polygon fill="black" stroke="black" points="133.65,-6.7427 123.53,-9.8789 133.397,-13.7381 133.65,-6.7427"/>
<text text-anchor="middle" x="163.25" y="-12.4" font-family="Times,serif" font-size="14.00">0.0444</text>
</g>
<!-- G2&#45;&#45;G2 -->
<g id="edge12" class="edge"><title>G2&#45;&#45;G2</title>
<path fill="none" stroke="black" d="M251.53,-26.121C262.51,-26.895 272,-24.188 272,-18 272,-13.843 267.72,-11.257 261.57,-10.242"/>
<polygon fill="black" stroke="black" points="261.65,-6.7427 251.53,-9.8789 261.397,-13.7381 261.65,-6.7427"/>
<text text-anchor="middle" x="291.25" y="-12.4" font-family="Times,serif" font-size="14.00">0.2667</text>
</g>
<!-- C3 -->
<g id="node11" class="node"><title>C3</title>
<ellipse fill="none" stroke="black" cx="99" cy="-198" rx="27" ry="18"/>
<text text-anchor="middle" x="99" y="-192.4" font-family="Times,serif" font-size="14.00">C3</text>
</g>
<!-- C3&#45;&#45;A2 -->
<g id="edge14" class="edge"><title>C3&#45;&#45;A2</title>
<path fill="none" stroke="black" d="M99,-179.61C99,-167.24 99,-150.37 99,-136.22"/>
<polygon fill="black" stroke="black" points="102.5,-136.05 99,-126.05 95.5001,-136.05 102.5,-136.05"/>
<text text-anchor="middle" x="118.25" y="-147.4" font-family="Times,serif" font-size="14.00">0.0222</text>
</g>
<!-- C3&#45;&#45;C3 -->
<g id="edge16" class="edge"><title>C3&#45;&#45;C3</title>
<path fill="none" stroke="black" d="M123.53,-206.12C134.51,-206.89 144,-204.19 144,-198 144,-193.84 139.72,-191.26 133.57,-190.24"/>
<polygon fill="black" stroke="black" points="133.649,-186.741 123.53,-189.88 133.398,-193.736 133.649,-186.741"/>
<text text-anchor="middle" x="163.25" y="-192.4" font-family="Times,serif" font-size="14.00">0.0222</text>
</g>
</g>
</svg>
