<?xml version="1.0" encoding="UTF-8" standalone="no"?>
<!DOCTYPE svg PUBLIC "-//W3C//DTD SVG 1.1//EN"
 "http://www.w3.org/Graphics/SVG/1.1/DTD/svg11.dtd">
<!-- Generated by graphviz version 2.28.0 (20121019.2215)
 -->
<!-- Title: _anonymous_0 Pages: 1 -->
<svg width="434pt" height="764pt"
 viewBox="0.00 0.00 433.50 764.00" xmlns="http://www.w3.org/2000/svg" xmlns:xlink="http://www.w3.org/1999/xlink">
<g id="graph1" class="graph" transform="scale(1 1) rotate(0) translate(4 760)">
<title>_anonymous_0</title>
<polygon fill="white" stroke="white" points="-4,5 -4,-760 430.5,-760 430.5,5 -4,5"/>
<!-- B2 -->
<g id="node1" class="node"><title>B2</title>
<ellipse fill="none" stroke="black" cx="341" cy="-738" rx="27" ry="18"/>
<text text-anchor="middle" x="341" y="-732.4" font-family="Times,serif" font-size="14.00">B2</text>
</g>
<!-- D3 -->
<g id="node2" class="node"><title>D3</title>
<ellipse fill="none" stroke="black" cx="204" cy="-648" rx="27" ry="18"/>
<text text-anchor="middle" x="204" y="-642.4" font-family="Times,serif" font-size="14.00">D3</text>
</g>
<!-- B2&#45;&#45;D3 -->
<g id="edge2" class="edge"><title>B2&#45;&#45;D3</title>
<path fill="none" stroke="black" d="M322.24,-724.95C298.8,-709.89 258.5,-684.01 231.56,-666.7"/>
<polygon fill="black" stroke="black" points="233.286,-663.649 222.98,-661.19 229.503,-669.539 233.286,-663.649"/>
<text text-anchor="middle" x="304.25" y="-687.4" font-family="Times,serif" font-size="14.00">0.0286</text>
</g>
<!-- E&#45;3 -->
<g id="node4" class="node"><title>E&#45;3</title>
<ellipse fill="none" stroke="black" cx="204" cy="-558" rx="27" ry="18"/>
<text text-anchor="middle" x="204" y="-552.4" font-family="Times,serif" font-size="14.00">E&#45;3</text>
</g>
<!-- D3&#45;&#45;E&#45;3 -->
<g id="edge4" class="edge"><title>D3&#45;&#45;E&#45;3</title>
<path fill="none" stroke="black" d="M204,-629.61C204,-617.24 204,-600.37 204,-586.22"/>
<polygon fill="black" stroke="black" points="207.5,-586.05 204,-576.05 200.5,-586.05 207.5,-586.05"/>
<text text-anchor="middle" x="223.25" y="-597.4" font-family="Times,serif" font-size="14.00">0.0095</text>
</g>
<!-- E3 -->
<g id="node6" class="node"><title>E3</title>
<ellipse fill="none" stroke="black" cx="204" cy="-468" rx="27" ry="18"/>
<text text-anchor="middle" x="204" y="-462.4" font-family="Times,serif" font-size="14.00">E3</text>
</g>
<!-- E&#45;3&#45;&#45;E3 -->
<g id="edge6" class="edge"><title>E&#45;3&#45;&#45;E3</title>
<path fill="none" stroke="black" d="M204,-539.61C204,-527.24 204,-510.37 204,-496.22"/>
<polygon fill="black" stroke="black" points="207.5,-496.05 204,-486.05 200.5,-496.05 207.5,-496.05"/>
<text text-anchor="middle" x="223.25" y="-507.4" font-family="Times,serif" font-size="14.00">0.0095</text>
</g>
<!-- F2 -->
<g id="node9" class="node"><title>F2</title>
<ellipse fill="none" stroke="black" cx="204" cy="-378" rx="27" ry="18"/>
<text text-anchor="middle" x="204" y="-372.4" font-family="Times,serif" font-size="14.00">F2</text>
</g>
<!-- E3&#45;&#45;F2 -->
<g id="edge32" class="edge"><title>E3&#45;&#45;F2</title>
<path fill="none" stroke="black" d="M204,-449.61C204,-437.24 204,-420.37 204,-406.22"/>
<polygon fill="black" stroke="black" points="207.5,-406.05 204,-396.05 200.5,-406.05 207.5,-406.05"/>
<text text-anchor="middle" x="223.25" y="-417.4" font-family="Times,serif" font-size="14.00">0.0095</text>
</g>
<!-- G3 -->
<g id="node28" class="node"><title>G3</title>
<ellipse fill="none" stroke="black" cx="332" cy="-378" rx="27" ry="18"/>
<text text-anchor="middle" x="332" y="-372.4" font-family="Times,serif" font-size="14.00">G3</text>
</g>
<!-- E3&#45;&#45;G3 -->
<g id="edge34" class="edge"><title>E3&#45;&#45;G3</title>
<path fill="none" stroke="black" d="M222.07,-454.58C243.77,-439.66 280.35,-414.51 305.31,-397.35"/>
<polygon fill="black" stroke="black" points="307.355,-400.191 313.61,-391.64 303.388,-394.424 307.355,-400.191"/>
<text text-anchor="middle" x="299.25" y="-417.4" font-family="Times,serif" font-size="14.00">0.0286</text>
</g>
<!-- C2 -->
<g id="node8" class="node"><title>C2</title>
<ellipse fill="none" stroke="black" cx="181" cy="-198" rx="27" ry="18"/>
<text text-anchor="middle" x="181" y="-192.4" font-family="Times,serif" font-size="14.00">C2</text>
</g>
<!-- C2&#45;&#45;C2 -->
<g id="edge10" class="edge"><title>C2&#45;&#45;C2</title>
<path fill="none" stroke="black" d="M205.53,-206.12C216.51,-206.89 226,-204.19 226,-198 226,-193.84 221.72,-191.26 215.57,-190.24"/>
<polygon fill="black" stroke="black" points="215.649,-186.741 205.53,-189.88 215.398,-193.736 215.649,-186.741"/>
<text text-anchor="middle" x="245.25" y="-192.4" font-family="Times,serif" font-size="14.00">0.0095</text>
</g>
<!-- C2&#45;&#45;F2 -->
<g id="edge8" class="edge"><title>C2&#45;&#45;F2</title>
<path fill="none" stroke="black" d="M199.62,-211.45C206.78,-217.35 214.15,-225.07 218,-234 236.98,-278.09 227.08,-294.87 218,-342 217.41,-345.05 216.56,-348.17 215.57,-351.24"/>
<polygon fill="black" stroke="black" points="212.272,-350.068 212.03,-360.66 218.824,-352.53 212.272,-350.068"/>
<text text-anchor="middle" x="248.25" y="-282.4" font-family="Times,serif" font-size="14.00">0.1714</text>
</g>
<!-- D2 -->
<g id="node12" class="node"><title>D2</title>
<ellipse fill="none" stroke="black" cx="181" cy="-108" rx="27" ry="18"/>
<text text-anchor="middle" x="181" y="-102.4" font-family="Times,serif" font-size="14.00">D2</text>
</g>
<!-- C2&#45;&#45;D2 -->
<g id="edge12" class="edge"><title>C2&#45;&#45;D2</title>
<path fill="none" stroke="black" d="M181,-179.61C181,-167.24 181,-150.37 181,-136.22"/>
<polygon fill="black" stroke="black" points="184.5,-136.05 181,-126.05 177.5,-136.05 184.5,-136.05"/>
<text text-anchor="middle" x="200.25" y="-147.4" font-family="Times,serif" font-size="14.00">0.0286</text>
</g>
<!-- F2&#45;&#45;F2 -->
<g id="edge18" class="edge"><title>F2&#45;&#45;F2</title>
<path fill="none" stroke="black" d="M228.53,-386.12C239.51,-386.89 249,-384.19 249,-378 249,-373.84 244.72,-371.26 238.57,-370.24"/>
<polygon fill="black" stroke="black" points="238.649,-366.741 228.53,-369.88 238.398,-373.736 238.649,-366.741"/>
<text text-anchor="middle" x="268.25" y="-372.4" font-family="Times,serif" font-size="14.00">0.0571</text>
</g>
<!-- G#2 -->
<g id="node19" class="node"><title>G#2</title>
<ellipse fill="none" stroke="black" cx="168" cy="-288" rx="27.8358" ry="18"/>
<text text-anchor="middle" x="168" y="-282.4" font-family="Times,serif" font-size="14.00">G#2</text>
</g>
<!-- F2&#45;&#45;G#2 -->
<g id="edge20" class="edge"><title>F2&#45;&#45;G#2</title>
<path fill="none" stroke="black" d="M191.36,-361.77C187.04,-355.9 182.53,-348.93 179.5,-342 175.96,-333.9 173.47,-324.62 171.74,-316.11"/>
<polygon fill="black" stroke="black" points="175.181,-315.47 169.98,-306.24 168.29,-316.699 175.181,-315.47"/>
<text text-anchor="middle" x="199.25" y="-327.4" font-family="Times,serif" font-size="14.00">0.0381</text>
</g>
<!-- C3 -->
<g id="node14" class="node"><title>C3</title>
<ellipse fill="none" stroke="black" cx="54" cy="-18" rx="27" ry="18"/>
<text text-anchor="middle" x="54" y="-12.4" font-family="Times,serif" font-size="14.00">C3</text>
</g>
<!-- D2&#45;&#45;C3 -->
<g id="edge14" class="edge"><title>D2&#45;&#45;C3</title>
<path fill="none" stroke="black" d="M162.8,-94.392C141.3,-79.493 105.34,-54.573 80.686,-37.491"/>
<polygon fill="black" stroke="black" points="82.3751,-34.4033 72.162,-31.585 78.3884,-40.1572 82.3751,-34.4033"/>
<text text-anchor="middle" x="148.25" y="-57.4" font-family="Times,serif" font-size="14.00">0.0095</text>
</g>
<!-- E2 -->
<g id="node16" class="node"><title>E2</title>
<ellipse fill="none" stroke="black" cx="256" cy="-18" rx="27" ry="18"/>
<text text-anchor="middle" x="256" y="-12.4" font-family="Times,serif" font-size="14.00">E2</text>
</g>
<!-- D2&#45;&#45;E2 -->
<g id="edge16" class="edge"><title>D2&#45;&#45;E2</title>
<path fill="none" stroke="black" d="M193.72,-92.072C205.47,-78.292 223.08,-57.626 236.58,-41.784"/>
<polygon fill="black" stroke="black" points="239.39,-43.8831 243.21,-34.001 234.061,-39.3438 239.39,-43.8831"/>
<text text-anchor="middle" x="245.25" y="-57.4" font-family="Times,serif" font-size="14.00">0.0095</text>
</g>
<!-- C3&#45;&#45;D3 -->
<g id="edge22" class="edge"><title>C3&#45;&#45;D3</title>
<path fill="none" stroke="black" d="M38.67,-32.949C22.705,-49.077 0,-77.245 0,-107 0,-559 0,-559 0,-559 0,-630.86 108.05,-644.74 166.88,-646.96"/>
<polygon fill="black" stroke="black" points="166.813,-650.459 176.91,-647.25 167.015,-643.462 166.813,-650.459"/>
<text text-anchor="middle" x="19.25" y="-327.4" font-family="Times,serif" font-size="14.00">0.0286</text>
</g>
<!-- C3&#45;&#45;E3 -->
<g id="edge24" class="edge"><title>C3&#45;&#45;E3</title>
<path fill="none" stroke="black" d="M54,-36.199C54,-53.938 54,-82.403 54,-107 54,-379 54,-379 54,-379 54,-431.52 123.26,-453.3 167.65,-461.86"/>
<polygon fill="black" stroke="black" points="167.069,-465.312 177.53,-463.63 168.304,-458.421 167.069,-465.312"/>
<text text-anchor="middle" x="73.25" y="-237.4" font-family="Times,serif" font-size="14.00">0.0286</text>
</g>
<!-- E2&#45;&#45;F2 -->
<g id="edge26" class="edge"><title>E2&#45;&#45;F2</title>
<path fill="none" stroke="black" d="M268.96,-34.073C281.94,-50.75 300,-78.987 300,-107 300,-289 300,-289 300,-289 300,-324.55 263.79,-349.62 235.85,-363.68"/>
<polygon fill="black" stroke="black" points="234.263,-360.559 226.75,-368.03 237.282,-366.875 234.263,-360.559"/>
<text text-anchor="middle" x="319.25" y="-192.4" font-family="Times,serif" font-size="14.00">0.0095</text>
</g>
<!-- G#2&#45;&#45;C2 -->
<g id="edge30" class="edge"><title>G#2&#45;&#45;C2</title>
<path fill="none" stroke="black" d="M170.51,-270.03C172.33,-257.69 174.84,-240.73 176.94,-226.47"/>
<polygon fill="black" stroke="black" points="180.455,-226.625 178.46,-216.22 173.531,-225.598 180.455,-226.625"/>
<text text-anchor="middle" x="195.25" y="-237.4" font-family="Times,serif" font-size="14.00">0.0667</text>
</g>
<!-- F1 -->
<g id="node24" class="node"><title>F1</title>
<ellipse fill="none" stroke="black" cx="109" cy="-198" rx="27" ry="18"/>
<text text-anchor="middle" x="109" y="-192.4" font-family="Times,serif" font-size="14.00">F1</text>
</g>
<!-- G#2&#45;&#45;F1 -->
<g id="edge28" class="edge"><title>G#2&#45;&#45;F1</title>
<path fill="none" stroke="black" d="M151.28,-273.59C144.49,-267.53 136.98,-259.95 131.5,-252 125.97,-243.99 121.4,-234.41 117.85,-225.6"/>
<polygon fill="black" stroke="black" points="121.083,-224.253 114.28,-216.13 114.533,-226.722 121.083,-224.253"/>
<text text-anchor="middle" x="151.25" y="-237.4" font-family="Times,serif" font-size="14.00">0.0095</text>
</g>
<!-- G2 -->
<g id="node30" class="node"><title>G2</title>
<ellipse fill="none" stroke="black" cx="371" cy="-288" rx="27" ry="18"/>
<text text-anchor="middle" x="371" y="-282.4" font-family="Times,serif" font-size="14.00">G2</text>
</g>
<!-- G3&#45;&#45;G2 -->
<g id="edge36" class="edge"><title>G3&#45;&#45;G2</title>
<path fill="none" stroke="black" d="M329.68,-360.02C328.95,-349.23 329.39,-335.24 334.5,-324 337.06,-318.37 340.98,-313.18 345.31,-308.63"/>
<polygon fill="black" stroke="black" points="347.922,-310.979 352.83,-301.59 343.138,-305.869 347.922,-310.979"/>
<text text-anchor="middle" x="354.25" y="-327.4" font-family="Times,serif" font-size="14.00">0.0286</text>
</g>
<!-- G2&#45;&#45;B2 -->
<g id="edge38" class="edge"><title>G2&#45;&#45;B2</title>
<path fill="none" stroke="black" d="M375.89,-305.71C380.59,-323.29 387,-351.84 387,-377 387,-649 387,-649 387,-649 387,-673.22 373.14,-697.37 360.64,-714.22"/>
<polygon fill="black" stroke="black" points="357.704,-712.293 354.31,-722.33 363.222,-716.6 357.704,-712.293"/>
<text text-anchor="middle" x="406.25" y="-507.4" font-family="Times,serif" font-size="14.00">0.0286</text>
</g>
</g>
</svg>
