<?xml version="1.0" encoding="UTF-8" standalone="no"?>
<!DOCTYPE svg PUBLIC "-//W3C//DTD SVG 1.1//EN"
 "http://www.w3.org/Graphics/SVG/1.1/DTD/svg11.dtd">
<!-- Generated by graphviz version 2.28.0 (20121019.2215)
 -->
<!-- Title: _anonymous_0 Pages: 1 -->
<svg width="208pt" height="224pt"
 viewBox="0.00 0.00 207.50 224.00" xmlns="http://www.w3.org/2000/svg" xmlns:xlink="http://www.w3.org/1999/xlink">
<g id="graph1" class="graph" transform="scale(1 1) rotate(0) translate(4 220)">
<title>_anonymous_0</title>
<polygon fill="white" stroke="white" points="-4,5 -4,-220 204.5,-220 204.5,5 -4,5"/>
<!-- B&#45;2 -->
<g id="node1" class="node"><title>B&#45;2</title>
<ellipse fill="none" stroke="black" cx="116" cy="-198" rx="27" ry="18"/>
<text text-anchor="middle" x="116" y="-192.4" font-family="Times,serif" font-size="14.00">B&#45;2</text>
</g>
<!-- B&#45;2&#45;&#45;B&#45;2 -->
<g id="edge4" class="edge"><title>B&#45;2&#45;&#45;B&#45;2</title>
<path fill="none" stroke="black" d="M140.53,-206.12C151.51,-206.89 161,-204.19 161,-198 161,-193.84 156.72,-191.26 150.57,-190.24"/>
<polygon fill="black" stroke="black" points="150.649,-186.741 140.53,-189.88 150.398,-193.736 150.649,-186.741"/>
<text text-anchor="middle" x="180.25" y="-192.4" font-family="Times,serif" font-size="14.00">0.0208</text>
</g>
<!-- G#2 -->
<g id="node2" class="node"><title>G#2</title>
<ellipse fill="none" stroke="black" cx="103" cy="-18" rx="27.8358" ry="18"/>
<text text-anchor="middle" x="103" y="-12.4" font-family="Times,serif" font-size="14.00">G#2</text>
</g>
<!-- B&#45;2&#45;&#45;G#2 -->
<g id="edge2" class="edge"><title>B&#45;2&#45;&#45;G#2</title>
<path fill="none" stroke="black" d="M119.51,-179.98C120.53,-174.29 121.5,-167.9 122,-162 126.08,-114.04 124.56,-100.96 114,-54 113.39,-51.297 112.67,-48.502 111.9,-45.724"/>
<polygon fill="black" stroke="black" points="115.187,-44.4998 108.95,-35.935 108.484,-46.5196 115.187,-44.4998"/>
<text text-anchor="middle" x="144.25" y="-102.4" font-family="Times,serif" font-size="14.00">0.0417</text>
</g>
<!-- F#2 -->
<g id="node5" class="node"><title>F#2</title>
<ellipse fill="none" stroke="black" cx="27" cy="-108" rx="27" ry="18"/>
<text text-anchor="middle" x="27" y="-102.4" font-family="Times,serif" font-size="14.00">F#2</text>
</g>
<!-- B&#45;2&#45;&#45;F#2 -->
<g id="edge6" class="edge"><title>B&#45;2&#45;&#45;F#2</title>
<path fill="none" stroke="black" d="M101.3,-182.47C87.047,-168.37 65.238,-146.81 48.93,-130.68"/>
<polygon fill="black" stroke="black" points="50.9956,-127.8 41.423,-123.26 46.0748,-132.779 50.9956,-127.8"/>
<text text-anchor="middle" x="99.25" y="-147.4" font-family="Times,serif" font-size="14.00">0.0903</text>
</g>
<!-- G#2&#45;&#45;G#2 -->
<g id="edge12" class="edge"><title>G#2&#45;&#45;G#2</title>
<path fill="none" stroke="black" d="M127.53,-26.121C138.51,-26.895 148,-24.188 148,-18 148,-13.843 143.72,-11.257 137.57,-10.242"/>
<polygon fill="black" stroke="black" points="137.65,-6.7427 127.53,-9.8789 137.397,-13.7381 137.65,-6.7427"/>
<text text-anchor="middle" x="167.25" y="-12.4" font-family="Times,serif" font-size="14.00">0.1389</text>
</g>
<!-- F#2&#45;&#45;G#2 -->
<g id="edge8" class="edge"><title>F#2&#45;&#45;G#2</title>
<path fill="none" stroke="black" d="M39.892,-92.072C51.793,-78.292 69.641,-57.626 83.323,-41.784"/>
<polygon fill="black" stroke="black" points="86.1572,-43.8571 90.044,-34.001 80.8591,-39.282 86.1572,-43.8571"/>
<text text-anchor="middle" x="91.25" y="-57.4" font-family="Times,serif" font-size="14.00">0.0347</text>
</g>
<!-- F#2&#45;&#45;F#2 -->
<g id="edge10" class="edge"><title>F#2&#45;&#45;F#2</title>
<path fill="none" stroke="black" d="M51.532,-116.12C62.508,-116.89 72,-114.19 72,-108 72,-103.84 67.715,-101.26 61.574,-100.24"/>
<polygon fill="black" stroke="black" points="61.6513,-96.7406 51.532,-99.879 61.3998,-103.736 61.6513,-96.7406"/>
<text text-anchor="middle" x="91.25" y="-102.4" font-family="Times,serif" font-size="14.00">0.4167</text>
</g>
</g>
</svg>
