<?xml version="1.0" encoding="UTF-8" standalone="no"?>
<!DOCTYPE svg PUBLIC "-//W3C//DTD SVG 1.1//EN"
 "http://www.w3.org/Graphics/SVG/1.1/DTD/svg11.dtd">
<!-- Generated by graphviz version 2.28.0 (20121019.2215)
 -->
<!-- Title: _anonymous_0 Pages: 1 -->
<svg width="1623pt" height="1142pt"
 viewBox="0.00 0.00 1623.45 1142.00" xmlns="http://www.w3.org/2000/svg" xmlns:xlink="http://www.w3.org/1999/xlink">
<g id="graph1" class="graph" transform="scale(1 1) rotate(0) translate(4 1138)">
<title>_anonymous_0</title>
<polygon fill="white" stroke="white" points="-4,5 -4,-1138 1620.45,-1138 1620.45,5 -4,5"/>
<!-- B&#45;2 -->
<g id="node1" class="node"><title>B&#45;2</title>
<ellipse fill="none" stroke="black" cx="835" cy="-1116" rx="27" ry="18"/>
<text text-anchor="middle" x="835" y="-1110.4" font-family="Times,serif" font-size="14.00">B&#45;2</text>
</g>
<!-- E&#45;3 -->
<g id="node2" class="node"><title>E&#45;3</title>
<ellipse fill="none" stroke="black" cx="585" cy="-1026" rx="27" ry="18"/>
<text text-anchor="middle" x="585" y="-1020.4" font-family="Times,serif" font-size="14.00">E&#45;3</text>
</g>
<!-- B&#45;2&#45;&#45;E&#45;3 -->
<g id="edge2" class="edge"><title>B&#45;2&#45;&#45;E&#45;3</title>
<path fill="none" stroke="black" d="M811.48,-1106.7C766.7,-1091 669.09,-1056.6 617.87,-1038.6"/>
<polygon fill="black" stroke="black" points="618.865,-1035.24 608.27,-1035.2 616.528,-1041.84 618.865,-1035.24"/>
<text text-anchor="middle" x="752.25" y="-1065.4" font-family="Times,serif" font-size="14.00">0.0016</text>
</g>
<!-- E&#45;3&#45;&#45;E&#45;3 -->
<g id="edge4" class="edge"><title>E&#45;3&#45;&#45;E&#45;3</title>
<path fill="none" stroke="black" d="M609.53,-1034.1C620.51,-1034.9 630,-1032.2 630,-1026 630,-1021.8 625.72,-1019.3 619.57,-1018.2"/>
<polygon fill="black" stroke="black" points="619.63,-1014.7 609.53,-1017.9 619.421,-1021.7 619.63,-1014.7"/>
<text text-anchor="middle" x="649.25" y="-1020.4" font-family="Times,serif" font-size="14.00">0.0016</text>
</g>
<!-- G#4 -->
<g id="node5" class="node"><title>G#4</title>
<ellipse fill="none" stroke="black" cx="476" cy="-936" rx="27.8358" ry="18"/>
<text text-anchor="middle" x="476" y="-930.4" font-family="Times,serif" font-size="14.00">G#4</text>
</g>
<!-- E&#45;3&#45;&#45;G#4 -->
<g id="edge6" class="edge"><title>E&#45;3&#45;&#45;G#4</title>
<path fill="none" stroke="black" d="M561.76,-1016.8C547.15,-1010.9 528.49,-1001.8 514.5,-990 505.19,-982.13 496.93,-971.56 490.47,-961.93"/>
<polygon fill="black" stroke="black" points="493.389,-959.998 485.06,-953.45 487.488,-963.763 493.389,-959.998"/>
<text text-anchor="middle" x="534.25" y="-975.4" font-family="Times,serif" font-size="14.00">0.0032</text>
</g>
<!-- F#4 -->
<g id="node7" class="node"><title>F#4</title>
<ellipse fill="none" stroke="black" cx="172" cy="-378" rx="27" ry="18"/>
<text text-anchor="middle" x="172" y="-372.4" font-family="Times,serif" font-size="14.00">F#4</text>
</g>
<!-- E&#45;3&#45;&#45;F#4 -->
<g id="edge8" class="edge"><title>E&#45;3&#45;&#45;F#4</title>
<path fill="none" stroke="black" d="M558,-1024.2C466.8,-1021.2 173.91,-1010.2 137,-990 111.12,-975.82 97,-966.51 97,-937 97,-937 97,-937 97,-755 97,-695.8 129.28,-687.59 143,-630 162.01,-550.2 168.72,-453.05 170.96,-406.48"/>
<polygon fill="black" stroke="black" points="174.465,-406.435 171.41,-396.29 167.472,-406.126 174.465,-406.435"/>
<text text-anchor="middle" x="129.25" y="-705.4" font-family="Times,serif" font-size="14.00">0.0016</text>
</g>
<!-- F#3 -->
<g id="node9" class="node"><title>F#3</title>
<ellipse fill="none" stroke="black" cx="816" cy="-378" rx="27" ry="18"/>
<text text-anchor="middle" x="816" y="-372.4" font-family="Times,serif" font-size="14.00">F#3</text>
</g>
<!-- E&#45;3&#45;&#45;F#3 -->
<g id="edge10" class="edge"><title>E&#45;3&#45;&#45;F#3</title>
<path fill="none" stroke="black" d="M611.61,-1022.8C683.98,-1016 879,-992.54 879,-937 879,-937 879,-937 879,-755 879,-622.36 840.39,-466.96 823.62,-405.73"/>
<polygon fill="black" stroke="black" points="826.986,-404.77 820.94,-396.07 820.241,-406.642 826.986,-404.77"/>
<text text-anchor="middle" x="898.25" y="-705.4" font-family="Times,serif" font-size="14.00">0.0016</text>
</g>
<!-- C#5 -->
<g id="node11" class="node"><title>C#5</title>
<ellipse fill="none" stroke="black" cx="729" cy="-288" rx="27.2698" ry="18"/>
<text text-anchor="middle" x="729" y="-282.4" font-family="Times,serif" font-size="14.00">C#5</text>
</g>
<!-- E&#45;3&#45;&#45;C#5 -->
<g id="edge12" class="edge"><title>E&#45;3&#45;&#45;C#5</title>
<path fill="none" stroke="black" d="M607.64,-1015.8C619.56,-1009.9 633.61,-1001.3 643,-990 648.12,-983.84 742.53,-727.87 744,-720 756.45,-653.15 751.86,-481.83 747,-414 744.56,-379.94 738.43,-341.05 734,-315.82"/>
<polygon fill="black" stroke="black" points="737.431,-315.125 732.22,-305.9 730.541,-316.361 737.431,-315.125"/>
<text text-anchor="middle" x="770.25" y="-660.4" font-family="Times,serif" font-size="14.00">0.0016</text>
</g>
<!-- G#3 -->
<g id="node13" class="node"><title>G#3</title>
<ellipse fill="none" stroke="black" cx="677" cy="-558" rx="27.8358" ry="18"/>
<text text-anchor="middle" x="677" y="-552.4" font-family="Times,serif" font-size="14.00">G#3</text>
</g>
<!-- E&#45;3&#45;&#45;G#3 -->
<g id="edge14" class="edge"><title>E&#45;3&#45;&#45;G#3</title>
<path fill="none" stroke="black" d="M604.68,-1013.4C612.96,-1007.5 621.85,-999.52 627,-990 631.85,-981.04 664.24,-679.17 674.13,-586.07"/>
<polygon fill="black" stroke="black" points="677.622,-586.334 675.2,-576.02 670.661,-585.593 677.622,-586.334"/>
<text text-anchor="middle" x="671.25" y="-795.4" font-family="Times,serif" font-size="14.00">0.1786</text>
</g>
<!-- G#2 -->
<g id="node15" class="node"><title>G#2</title>
<ellipse fill="none" stroke="black" cx="816" cy="-18" rx="27.8358" ry="18"/>
<text text-anchor="middle" x="816" y="-12.4" font-family="Times,serif" font-size="14.00">G#2</text>
</g>
<!-- E&#45;3&#45;&#45;G#2 -->
<g id="edge16" class="edge"><title>E&#45;3&#45;&#45;G#2</title>
<path fill="none" stroke="black" d="M558,-1025.4C464.21,-1026.5 153.22,-1027.2 62,-990 28.43,-976.32 0,-973.25 0,-937 0,-937 0,-937 0,-107 0,-27.693 617.16,-19.771 778.03,-19.053"/>
<polygon fill="black" stroke="black" points="778.393,-22.5518 788.38,-19.014 778.367,-15.5518 778.393,-22.5518"/>
<text text-anchor="middle" x="19.25" y="-507.4" font-family="Times,serif" font-size="14.00">0.0130</text>
</g>
<!-- E&#45;4 -->
<g id="node17" class="node"><title>E&#45;4</title>
<ellipse fill="none" stroke="black" cx="979" cy="-846" rx="27" ry="18"/>
<text text-anchor="middle" x="979" y="-840.4" font-family="Times,serif" font-size="14.00">E&#45;4</text>
</g>
<!-- E&#45;3&#45;&#45;E&#45;4 -->
<g id="edge18" class="edge"><title>E&#45;3&#45;&#45;E&#45;4</title>
<path fill="none" stroke="black" d="M612.25,-1024.9C678.66,-1024.3 846.82,-1019.7 893,-990 898.68,-986.35 941.75,-912.09 964.7,-872.06"/>
<polygon fill="black" stroke="black" points="967.87,-873.568 969.8,-863.15 961.795,-870.09 967.87,-873.568"/>
<text text-anchor="middle" x="957.25" y="-930.4" font-family="Times,serif" font-size="14.00">0.0260</text>
</g>
<!-- B&#45;4 -->
<g id="node19" class="node"><title>B&#45;4</title>
<ellipse fill="none" stroke="black" cx="558" cy="-936" rx="27" ry="18"/>
<text text-anchor="middle" x="558" y="-930.4" font-family="Times,serif" font-size="14.00">B&#45;4</text>
</g>
<!-- E&#45;3&#45;&#45;B&#45;4 -->
<g id="edge20" class="edge"><title>E&#45;3&#45;&#45;B&#45;4</title>
<path fill="none" stroke="black" d="M571.72,-1010C567.33,-1004.2 562.94,-997.16 560.5,-990 557.74,-981.91 556.65,-972.72 556.39,-964.29"/>
<polygon fill="black" stroke="black" points="559.89,-964.174 556.43,-954.16 552.89,-964.146 559.89,-964.174"/>
<text text-anchor="middle" x="580.25" y="-975.4" font-family="Times,serif" font-size="14.00">0.0032</text>
</g>
<!-- E&#45;5 -->
<g id="node21" class="node"><title>E&#45;5</title>
<ellipse fill="none" stroke="black" cx="341" cy="-198" rx="27" ry="18"/>
<text text-anchor="middle" x="341" y="-192.4" font-family="Times,serif" font-size="14.00">E&#45;5</text>
</g>
<!-- E&#45;3&#45;&#45;E&#45;5 -->
<g id="edge22" class="edge"><title>E&#45;3&#45;&#45;E&#45;5</title>
<path fill="none" stroke="black" d="M557.85,-1025.3C462.84,-1025.6 151,-1020.4 151,-937 151,-937 151,-937 151,-755 151,-579.32 65.101,-520.74 136,-360 169.49,-284.08 260.18,-234.32 308.94,-212.19"/>
<polygon fill="black" stroke="black" points="310.661,-215.256 318.39,-208.01 307.829,-208.854 310.661,-215.256"/>
<text text-anchor="middle" x="155.25" y="-606.4" font-family="Times,serif" font-size="14.00">0.0016</text>
</g>
<!-- G#4&#45;&#45;F#4 -->
<g id="edge24" class="edge"><title>G#4&#45;&#45;F#4</title>
<path fill="none" stroke="black" d="M449,-932.54C377.56,-925.3 189,-901.07 189,-847 189,-847 189,-847 189,-467 189,-446.12 184.33,-422.96 179.89,-405.64"/>
<polygon fill="black" stroke="black" points="183.187,-404.424 177.19,-395.69 176.431,-406.258 183.187,-404.424"/>
<text text-anchor="middle" x="208.25" y="-660.4" font-family="Times,serif" font-size="14.00">0.0016</text>
</g>
<!-- G#4&#45;&#45;E&#45;4 -->
<g id="edge26" class="edge"><title>G#4&#45;&#45;E&#45;4</title>
<path fill="none" stroke="black" d="M498.64,-925.61C505.99,-922.84 514.25,-920.01 522,-918 675.27,-878.2 863.62,-857.58 942.03,-850.22"/>
<polygon fill="black" stroke="black" points="942.717,-853.671 952.35,-849.26 942.069,-846.701 942.717,-853.671"/>
<text text-anchor="middle" x="703.25" y="-885.4" font-family="Times,serif" font-size="14.00">0.0049</text>
</g>
<!-- B4 -->
<g id="node25" class="node"><title>B4</title>
<ellipse fill="none" stroke="black" cx="349" cy="-666" rx="27" ry="18"/>
<text text-anchor="middle" x="349" y="-660.4" font-family="Times,serif" font-size="14.00">B4</text>
</g>
<!-- G#4&#45;&#45;B4 -->
<g id="edge28" class="edge"><title>G#4&#45;&#45;B4</title>
<path fill="none" stroke="black" d="M449.58,-930.96C415.97,-924.11 360.41,-906.57 345,-864 324.14,-806.37 334.43,-732.92 342.5,-694.02"/>
<polygon fill="black" stroke="black" points="345.974,-694.516 344.68,-684 339.134,-693.027 345.974,-694.516"/>
<text text-anchor="middle" x="353.25" y="-795.4" font-family="Times,serif" font-size="14.00">0.0016</text>
</g>
<!-- F3 -->
<g id="node27" class="node"><title>F3</title>
<ellipse fill="none" stroke="black" cx="988" cy="-666" rx="27" ry="18"/>
<text text-anchor="middle" x="988" y="-660.4" font-family="Times,serif" font-size="14.00">F3</text>
</g>
<!-- G#4&#45;&#45;F3 -->
<g id="edge30" class="edge"><title>G#4&#45;&#45;F3</title>
<path fill="none" stroke="black" d="M496.28,-923.85C534.96,-902.47 621.76,-853.92 693,-810 767.29,-764.2 777.37,-737.72 857,-702 887.72,-688.22 925,-678.91 951.92,-673.38"/>
<polygon fill="black" stroke="black" points="952.926,-676.749 962.06,-671.38 951.572,-669.881 952.926,-676.749"/>
<text text-anchor="middle" x="740.25" y="-795.4" font-family="Times,serif" font-size="14.00">0.0016</text>
</g>
<!-- G#5 -->
<g id="node29" class="node"><title>G#5</title>
<ellipse fill="none" stroke="black" cx="382" cy="-846" rx="27.8358" ry="18"/>
<text text-anchor="middle" x="382" y="-840.4" font-family="Times,serif" font-size="14.00">G#5</text>
</g>
<!-- G#4&#45;&#45;G#5 -->
<g id="edge32" class="edge"><title>G#4&#45;&#45;G#5</title>
<path fill="none" stroke="black" d="M449.15,-932.29C428.21,-928.65 400.27,-920.09 385.5,-900 380.16,-892.74 378.39,-883.29 378.24,-874.39"/>
<polygon fill="black" stroke="black" points="381.738,-874.507 378.69,-864.36 374.745,-874.193 381.738,-874.507"/>
<text text-anchor="middle" x="405.25" y="-885.4" font-family="Times,serif" font-size="14.00">0.0016</text>
</g>
<!-- F#3&#45;&#45;C#5 -->
<g id="edge34" class="edge"><title>F#3&#45;&#45;C#5</title>
<path fill="none" stroke="black" d="M805.5,-361.28C797.74,-350.25 786.56,-335.47 775,-324 769.09,-318.14 762.18,-312.4 755.54,-307.32"/>
<polygon fill="black" stroke="black" points="757.484,-304.404 747.36,-301.28 753.326,-310.036 757.484,-304.404"/>
<text text-anchor="middle" x="810.25" y="-327.4" font-family="Times,serif" font-size="14.00">0.0016</text>
</g>
<!-- F#3&#45;&#45;G#3 -->
<g id="edge36" class="edge"><title>F#3&#45;&#45;G#3</title>
<path fill="none" stroke="black" d="M807.99,-395.32C793.74,-423.33 761.88,-481.44 724,-522 718.24,-528.17 711.28,-534.02 704.49,-539.1"/>
<polygon fill="black" stroke="black" points="702.203,-536.433 696.11,-545.1 706.278,-542.124 702.203,-536.433"/>
<text text-anchor="middle" x="796.25" y="-462.4" font-family="Times,serif" font-size="14.00">0.0016</text>
</g>
<!-- C#3 -->
<g id="node33" class="node"><title>C#3</title>
<ellipse fill="none" stroke="black" cx="1136" cy="-756" rx="27.2698" ry="18"/>
<text text-anchor="middle" x="1136" y="-750.4" font-family="Times,serif" font-size="14.00">C#3</text>
</g>
<!-- F#3&#45;&#45;C#3 -->
<g id="edge38" class="edge"><title>F#3&#45;&#45;C#3</title>
<path fill="none" stroke="black" d="M837.84,-388.96C850.28,-395.2 865.78,-403.95 878,-414 959.3,-480.9 971.13,-508.09 1032,-594 1069.4,-646.81 1067.1,-667.51 1105,-720 1108.1,-724.33 1111.7,-728.75 1115.3,-732.92"/>
<polygon fill="black" stroke="black" points="1112.78,-735.349 1122,-740.56 1118.04,-730.734 1112.78,-735.349"/>
<text text-anchor="middle" x="1038.2" y="-552.4" font-family="Times,serif" font-size="14.00">0.0016</text>
</g>
<!-- C#5&#45;&#45;G#4 -->
<g id="edge40" class="edge"><title>C#5&#45;&#45;G#4</title>
<path fill="none" stroke="black" d="M702.25,-290.8C630.9,-296.17 438.75,-314.64 398,-360 276.37,-495.39 349.64,-548.32 373.5,-630 376.16,-639.11 380.98,-639.4 385,-648 386.44,-651.07 445.25,-837.46 467.55,-908.18"/>
<polygon fill="black" stroke="black" points="464.338,-909.633 470.68,-918.12 471.015,-907.53 464.338,-909.633"/>
<text text-anchor="middle" x="393.25" y="-606.4" font-family="Times,serif" font-size="14.00">0.0032</text>
</g>
<!-- C#5&#45;&#45;C#5 -->
<g id="edge42" class="edge"><title>C#5&#45;&#45;C#5</title>
<path fill="none" stroke="black" d="M753.53,-296.12C764.51,-296.89 774,-294.19 774,-288 774,-283.84 769.72,-281.26 763.57,-280.24"/>
<polygon fill="black" stroke="black" points="763.649,-276.741 753.53,-279.88 763.398,-283.736 763.649,-276.741"/>
<text text-anchor="middle" x="793.25" y="-282.4" font-family="Times,serif" font-size="14.00">0.0292</text>
</g>
<!-- C#5&#45;&#45;G#3 -->
<g id="edge44" class="edge"><title>C#5&#45;&#45;G#3</title>
<path fill="none" stroke="black" d="M725.75,-306.01C720.51,-329.14 708.15,-370.54 683,-396 669.16,-410.01 653.23,-397.48 642.5,-414 618.54,-450.87 642.42,-502.84 660.62,-532.91"/>
<polygon fill="black" stroke="black" points="657.739,-534.904 666.03,-541.5 663.662,-531.173 657.739,-534.904"/>
<text text-anchor="middle" x="662.25" y="-417.4" font-family="Times,serif" font-size="14.00">0.0065</text>
</g>
<!-- C#5&#45;&#45;E&#45;4 -->
<g id="edge46" class="edge"><title>C#5&#45;&#45;E&#45;4</title>
<path fill="none" stroke="black" d="M755.63,-292.35C778.42,-296.42 810.94,-305.24 833,-324 935.88,-411.52 933,-475.92 933,-611 933,-757 933,-757 933,-757 933,-781.22 946.86,-805.37 959.36,-822.22"/>
<polygon fill="black" stroke="black" points="956.778,-824.6 965.69,-830.33 962.296,-820.293 956.778,-824.6"/>
<text text-anchor="middle" x="952.25" y="-552.4" font-family="Times,serif" font-size="14.00">0.0049</text>
</g>
<!-- C#5&#45;&#45;E&#45;5 -->
<g id="edge48" class="edge"><title>C#5&#45;&#45;E&#45;5</title>
<path fill="none" stroke="black" d="M703.87,-280.72C662.92,-270.55 579.22,-250 508,-234 462.69,-223.82 410.24,-212.98 376.39,-206.11"/>
<polygon fill="black" stroke="black" points="377.006,-202.664 366.51,-204.11 375.617,-209.525 377.006,-202.664"/>
<text text-anchor="middle" x="601.25" y="-237.4" font-family="Times,serif" font-size="14.00">0.0227</text>
</g>
<!-- C#5&#45;&#45;C#3 -->
<g id="edge52" class="edge"><title>C#5&#45;&#45;C#3</title>
<path fill="none" stroke="black" d="M755.18,-293.2C787.51,-298.71 844,-309.43 891,-324 1012.9,-361.78 1083.2,-340.68 1149,-450 1171.7,-487.75 1139.9,-603.97 1138,-648 1136.8,-675.15 1136.3,-706.21 1136.1,-727.85"/>
<polygon fill="black" stroke="black" points="1132.6,-727.94 1136.1,-737.94 1139.6,-727.94 1132.6,-727.94"/>
<text text-anchor="middle" x="1176.2" y="-507.4" font-family="Times,serif" font-size="14.00">0.0016</text>
</g>
<!-- B3 -->
<g id="node40" class="node"><title>B3</title>
<ellipse fill="none" stroke="black" cx="632" cy="-108" rx="27" ry="18"/>
<text text-anchor="middle" x="632" y="-102.4" font-family="Times,serif" font-size="14.00">B3</text>
</g>
<!-- C#5&#45;&#45;B3 -->
<g id="edge50" class="edge"><title>C#5&#45;&#45;B3</title>
<path fill="none" stroke="black" d="M720.22,-270.89C703.31,-239.86 666.11,-171.59 645.83,-134.38"/>
<polygon fill="black" stroke="black" points="648.687,-132.308 640.83,-125.2 642.54,-135.656 648.687,-132.308"/>
<text text-anchor="middle" x="710.25" y="-192.4" font-family="Times,serif" font-size="14.00">0.0016</text>
</g>
<!-- G#3&#45;&#45;G#4 -->
<g id="edge54" class="edge"><title>G#3&#45;&#45;G#4</title>
<path fill="none" stroke="black" d="M666.66,-574.87C662.89,-580.81 658.65,-587.66 655,-594 620.43,-654.06 524.47,-840.46 489.21,-909.2"/>
<polygon fill="black" stroke="black" points="485.911,-907.964 484.47,-918.46 492.142,-911.153 485.911,-907.964"/>
<text text-anchor="middle" x="596.25" y="-750.4" font-family="Times,serif" font-size="14.00">0.0032</text>
</g>
<!-- G#3&#45;&#45;G#2 -->
<g id="edge56" class="edge"><title>G#3&#45;&#45;G#2</title>
<path fill="none" stroke="black" d="M702.08,-550.66C733.55,-541.48 787.23,-521.55 819,-486 847.39,-454.23 840.95,-437.15 852,-396 881.44,-286.41 923.93,-253.18 893,-144 881.86,-104.69 854.48,-65.591 835.56,-41.859"/>
<polygon fill="black" stroke="black" points="838.052,-39.3765 829.02,-33.838 832.627,-43.8001 838.052,-39.3765"/>
<text text-anchor="middle" x="914.25" y="-282.4" font-family="Times,serif" font-size="14.00">0.0032</text>
</g>
<!-- B&#45;3 -->
<g id="node45" class="node"><title>B&#45;3</title>
<ellipse fill="none" stroke="black" cx="552" cy="-468" rx="27" ry="18"/>
<text text-anchor="middle" x="552" y="-462.4" font-family="Times,serif" font-size="14.00">B&#45;3</text>
</g>
<!-- G#3&#45;&#45;B&#45;3 -->
<g id="edge58" class="edge"><title>G#3&#45;&#45;B&#45;3</title>
<path fill="none" stroke="black" d="M650.02,-554.15C627.04,-550.41 594.48,-541.77 573.5,-522 566.07,-515 561.14,-505.07 557.9,-495.7"/>
<polygon fill="black" stroke="black" points="561.198,-494.51 555.01,-485.91 554.484,-496.492 561.198,-494.51"/>
<text text-anchor="middle" x="593.25" y="-507.4" font-family="Times,serif" font-size="14.00">0.0065</text>
</g>
<!-- F#2 -->
<g id="node47" class="node"><title>F#2</title>
<ellipse fill="none" stroke="black" cx="700" cy="-468" rx="27" ry="18"/>
<text text-anchor="middle" x="700" y="-462.4" font-family="Times,serif" font-size="14.00">F#2</text>
</g>
<!-- G#3&#45;&#45;F#2 -->
<g id="edge60" class="edge"><title>G#3&#45;&#45;F#2</title>
<path fill="none" stroke="black" d="M678.75,-539.59C680.06,-529.14 682.2,-515.66 685.5,-504 686.35,-501 687.38,-497.9 688.5,-494.86"/>
<polygon fill="black" stroke="black" points="691.799,-496.035 692.25,-485.45 685.297,-493.444 691.799,-496.035"/>
<text text-anchor="middle" x="705.25" y="-507.4" font-family="Times,serif" font-size="14.00">0.0032</text>
</g>
<!-- E&#45;4&#45;&#45;B&#45;2 -->
<g id="edge62" class="edge"><title>E&#45;4&#45;&#45;B&#45;2</title>
<path fill="none" stroke="black" d="M982.4,-863.99C985.95,-885.69 989.56,-924.01 978,-954 954.27,-1015.6 895.26,-1068.8 860.92,-1095.9"/>
<polygon fill="black" stroke="black" points="858.537,-1093.32 852.76,-1102.2 862.814,-1098.86 858.537,-1093.32"/>
<text text-anchor="middle" x="989.25" y="-975.4" font-family="Times,serif" font-size="14.00">0.0016</text>
</g>
<!-- E&#45;4&#45;&#45;G#3 -->
<g id="edge64" class="edge"><title>E&#45;4&#45;&#45;G#3</title>
<path fill="none" stroke="black" d="M956.23,-835.83C908.25,-815.44 795.85,-761.93 731,-684 706.7,-654.8 691.63,-613.02 683.78,-585.95"/>
<polygon fill="black" stroke="black" points="687.07,-584.715 681.03,-576.01 680.323,-586.581 687.07,-584.715"/>
<text text-anchor="middle" x="785.25" y="-705.4" font-family="Times,serif" font-size="14.00">0.0179</text>
</g>
<!-- E&#45;4&#45;&#45;G#2 -->
<g id="edge66" class="edge"><title>E&#45;4&#45;&#45;G#2</title>
<path fill="none" stroke="black" d="M1006.1,-845.31C1075.1,-844.42 1257.1,-831.19 1330,-720 1340.5,-703.96 1344.6,-349.63 1332,-324 1289.7,-237.68 1081.2,-94.432 994,-54 948.49,-32.902 890.71,-24.509 853.54,-21.178"/>
<polygon fill="black" stroke="black" points="853.421,-17.6568 843.17,-20.333 852.853,-24.6337 853.421,-17.6568"/>
<text text-anchor="middle" x="1359.2" y="-417.4" font-family="Times,serif" font-size="14.00">0.0016</text>
</g>
<!-- E&#45;4&#45;&#45;E&#45;4 -->
<g id="edge68" class="edge"><title>E&#45;4&#45;&#45;E&#45;4</title>
<path fill="none" stroke="black" d="M1003.5,-854.12C1014.5,-854.89 1024,-852.19 1024,-846 1024,-841.84 1019.7,-839.26 1013.6,-838.24"/>
<polygon fill="black" stroke="black" points="1013.62,-834.739 1003.5,-837.88 1013.37,-841.734 1013.62,-834.739"/>
<text text-anchor="middle" x="1043.2" y="-840.4" font-family="Times,serif" font-size="14.00">0.0032</text>
</g>
<!-- E&#45;4&#45;&#45;C#3 -->
<g id="edge74" class="edge"><title>E&#45;4&#45;&#45;C#3</title>
<path fill="none" stroke="black" d="M1005.4,-841.74C1030.3,-837.64 1067.8,-828.72 1095,-810 1105.7,-802.66 1114.8,-791.67 1121.7,-781.6"/>
<polygon fill="black" stroke="black" points="1124.71,-783.397 1127.2,-773.1 1118.83,-779.594 1124.71,-783.397"/>
<text text-anchor="middle" x="1133.2" y="-795.4" font-family="Times,serif" font-size="14.00">0.0032</text>
</g>
<!-- E&#45;4&#45;&#45;B3 -->
<g id="edge72" class="edge"><title>E&#45;4&#45;&#45;B3</title>
<path fill="none" stroke="black" d="M991.09,-829.64C1001.6,-815.72 1016.8,-794.33 1027,-774 1038.4,-751.28 1039.4,-744.58 1046,-720 1092.1,-547.31 1177.9,-491.66 1116,-324 1079.5,-225.24 1055.2,-193.03 962,-144 912.01,-117.69 744.96,-111.15 669.53,-109.53"/>
<polygon fill="black" stroke="black" points="669.155,-106.022 659.09,-109.33 669.021,-113.021 669.155,-106.022"/>
<text text-anchor="middle" x="1156.2" y="-462.4" font-family="Times,serif" font-size="14.00">0.0146</text>
</g>
<!-- E&#45;4&#45;&#45;B&#45;3 -->
<g id="edge70" class="edge"><title>E&#45;4&#45;&#45;B&#45;3</title>
<path fill="none" stroke="black" d="M954.46,-838.34C931.37,-831.85 895.97,-821.33 866,-810 767.56,-772.77 737.82,-760.46 665.5,-684 606.12,-621.22 587.57,-603.19 558,-522 555.06,-513.92 553.46,-504.74 552.62,-496.31"/>
<polygon fill="black" stroke="black" points="556.1,-495.901 551.91,-486.17 549.117,-496.39 556.1,-495.901"/>
<text text-anchor="middle" x="685.25" y="-660.4" font-family="Times,serif" font-size="14.00">0.0016</text>
</g>
<!-- E&#45;5&#45;&#45;G#4 -->
<g id="edge76" class="edge"><title>E&#45;5&#45;&#45;G#4</title>
<path fill="none" stroke="black" d="M321.03,-210.5C298.51,-225.14 265,-252.68 265,-287 265,-424 265,-424 265,-424 265,-621.88 270.85,-676.14 333,-864 338.68,-881.18 337.93,-888.62 352,-900 376.64,-919.93 411.99,-928.52 438.65,-932.22"/>
<polygon fill="black" stroke="black" points="438.41,-935.717 448.76,-933.45 439.256,-928.768 438.41,-935.717"/>
<text text-anchor="middle" x="287.99" y="-552.4" font-family="Times,serif" font-size="14.00">0.0211</text>
</g>
<!-- E&#45;5&#45;&#45;G#3 -->
<g id="edge78" class="edge"><title>E&#45;5&#45;&#45;G#3</title>
<path fill="none" stroke="black" d="M367.46,-201.85C411.97,-208.27 497,-228.23 497,-287 497,-424 497,-424 497,-424 497,-475.3 512.91,-497.52 558,-522 584,-536.11 616.36,-545.16 640.77,-550.51"/>
<polygon fill="black" stroke="black" points="640.206,-553.968 650.71,-552.58 641.634,-547.115 640.206,-553.968"/>
<text text-anchor="middle" x="516.25" y="-372.4" font-family="Times,serif" font-size="14.00">0.0016</text>
</g>
<!-- E&#45;5&#45;&#45;G#2 -->
<g id="edge80" class="edge"><title>E&#45;5&#45;&#45;G#2</title>
<path fill="none" stroke="black" d="M360.72,-185.65C398.1,-164.5 482.26,-118.62 557.5,-90 635.02,-60.506 729.89,-37.667 780.38,-26.512"/>
<polygon fill="black" stroke="black" points="781.147,-29.9271 790.17,-24.374 779.653,-23.0882 781.147,-29.9271"/>
<text text-anchor="middle" x="577.25" y="-102.4" font-family="Times,serif" font-size="14.00">0.0016</text>
</g>
<!-- E&#45;5&#45;&#45;E&#45;4 -->
<g id="edge82" class="edge"><title>E&#45;5&#45;&#45;E&#45;4</title>
<path fill="none" stroke="black" d="M341,-216.2C341,-233.94 341,-262.4 341,-287 341,-424 341,-424 341,-424 341,-529.96 387.55,-553.63 461,-630 486.83,-656.86 709.09,-796.97 744,-810 810.83,-834.94 894.6,-842.16 941.93,-844.21"/>
<polygon fill="black" stroke="black" points="941.892,-847.711 952.02,-844.6 942.163,-840.716 941.892,-847.711"/>
<text text-anchor="middle" x="382.25" y="-507.4" font-family="Times,serif" font-size="14.00">0.0016</text>
</g>
<!-- E&#45;5&#45;&#45;B3 -->
<g id="edge84" class="edge"><title>E&#45;5&#45;&#45;B3</title>
<path fill="none" stroke="black" d="M365.31,-189.65C417.22,-173.95 538.99,-137.13 598.32,-119.19"/>
<polygon fill="black" stroke="black" points="599.404,-122.519 607.96,-116.27 597.375,-115.819 599.404,-122.519"/>
<text text-anchor="middle" x="532.25" y="-147.4" font-family="Times,serif" font-size="14.00">0.0016</text>
</g>
<!-- B4&#45;&#45;G#3 -->
<g id="edge120" class="edge"><title>B4&#45;&#45;G#3</title>
<path fill="none" stroke="black" d="M372.85,-657.29C430.34,-638.71 576.71,-591.41 643.21,-569.92"/>
<polygon fill="black" stroke="black" points="644.353,-573.229 652.79,-566.82 642.198,-566.569 644.353,-573.229"/>
<text text-anchor="middle" x="581.25" y="-606.4" font-family="Times,serif" font-size="14.00">0.0032</text>
</g>
<!-- E3 -->
<g id="node72" class="node"><title>E3</title>
<ellipse fill="none" stroke="black" cx="207" cy="-18" rx="27" ry="18"/>
<text text-anchor="middle" x="207" y="-12.4" font-family="Times,serif" font-size="14.00">E3</text>
</g>
<!-- B4&#45;&#45;E3 -->
<g id="edge122" class="edge"><title>B4&#45;&#45;E3</title>
<path fill="none" stroke="black" d="M339.55,-648.92C313.15,-602.99 238.83,-466.48 212.5,-342 189.76,-234.49 198.61,-102.34 204.01,-46.242"/>
<polygon fill="black" stroke="black" points="207.515,-46.3697 205.04,-36.068 200.55,-45.6646 207.515,-46.3697"/>
<text text-anchor="middle" x="232.25" y="-327.4" font-family="Times,serif" font-size="14.00">0.0016</text>
</g>
<!-- F3&#45;&#45;G#3 -->
<g id="edge124" class="edge"><title>F3&#45;&#45;G#3</title>
<path fill="none" stroke="black" d="M968.35,-653.52C940.92,-637.94 889.18,-610.2 842,-594 798.96,-579.22 747.36,-569.48 713.46,-564.12"/>
<polygon fill="black" stroke="black" points="713.957,-560.655 703.54,-562.59 712.89,-567.573 713.957,-560.655"/>
<text text-anchor="middle" x="942.25" y="-606.4" font-family="Times,serif" font-size="14.00">0.0081</text>
</g>
<!-- F3&#45;&#45;E&#45;4 -->
<g id="edge126" class="edge"><title>F3&#45;&#45;E&#45;4</title>
<path fill="none" stroke="black" d="M987.14,-684.02C985.58,-714.94 982.26,-780.61 980.37,-817.81"/>
<polygon fill="black" stroke="black" points="976.868,-817.766 979.86,-827.93 983.859,-818.119 976.868,-817.766"/>
<text text-anchor="middle" x="1004.2" y="-750.4" font-family="Times,serif" font-size="14.00">0.0049</text>
</g>
<!-- C#4 -->
<g id="node74" class="node"><title>C#4</title>
<ellipse fill="none" stroke="black" cx="1218" cy="-18" rx="27.2698" ry="18"/>
<text text-anchor="middle" x="1218" y="-12.4" font-family="Times,serif" font-size="14.00">C#4</text>
</g>
<!-- F3&#45;&#45;C#4 -->
<g id="edge128" class="edge"><title>F3&#45;&#45;C#4</title>
<path fill="none" stroke="black" d="M991.09,-647.91C995.56,-623.75 1004.4,-578.26 1014,-540 1038.4,-442.9 1042.8,-417.74 1078,-324 1118,-217.42 1178.5,-95.841 1204.9,-44.26"/>
<polygon fill="black" stroke="black" points="1208.11,-45.6707 1209.6,-35.181 1201.89,-42.4525 1208.11,-45.6707"/>
<text text-anchor="middle" x="1098" y="-327.4" font-family="Times,serif" font-size="14.00">0.0114</text>
</g>
<!-- C#3&#45;&#45;G#3 -->
<g id="edge110" class="edge"><title>C#3&#45;&#45;G#3</title>
<path fill="none" stroke="black" d="M1110.1,-750.6C1088,-746.95 1055.5,-741.75 1027,-738 989.99,-733.12 893.25,-736.97 860,-720 821.6,-700.4 826.8,-677.11 795,-648 765.84,-621.3 729.04,-594.5 704.35,-577.39"/>
<polygon fill="black" stroke="black" points="706.066,-574.323 695.84,-571.55 702.105,-580.094 706.066,-574.323"/>
<text text-anchor="middle" x="842.25" y="-660.4" font-family="Times,serif" font-size="14.00">0.0032</text>
</g>
<!-- C#3&#45;&#45;G#2 -->
<g id="edge112" class="edge"><title>C#3&#45;&#45;G#2</title>
<path fill="none" stroke="black" d="M1160,-747.6C1173.9,-742.11 1190.7,-733.25 1201,-720 1211.1,-706.98 1208,-700.37 1210,-684 1222.4,-583.42 1186,-322.13 1136,-234 1118.9,-203.93 1108,-200.29 1080,-180 1066.2,-169.97 1060.8,-170.52 1046,-162 971.4,-119.13 885.94,-64.486 843.25,-36.801"/>
<polygon fill="black" stroke="black" points="845.102,-33.8307 834.81,-31.317 841.288,-39.7004 845.102,-33.8307"/>
<text text-anchor="middle" x="1206.2" y="-372.4" font-family="Times,serif" font-size="14.00">0.0016</text>
</g>
<!-- C#3&#45;&#45;F3 -->
<g id="edge114" class="edge"><title>C#3&#45;&#45;F3</title>
<path fill="none" stroke="black" d="M1108.9,-755.28C1079.1,-754.09 1031.8,-747.56 1003.5,-720 996.51,-713.2 992.63,-703.43 990.49,-694.13"/>
<polygon fill="black" stroke="black" points="993.894,-693.276 988.74,-684.02 986.997,-694.47 993.894,-693.276"/>
<text text-anchor="middle" x="1023.2" y="-705.4" font-family="Times,serif" font-size="14.00">0.0032</text>
</g>
<!-- F2 -->
<g id="node79" class="node"><title>F2</title>
<ellipse fill="none" stroke="black" cx="1305" cy="-612" rx="27" ry="18"/>
<text text-anchor="middle" x="1305" y="-606.4" font-family="Times,serif" font-size="14.00">F2</text>
</g>
<!-- C#3&#45;&#45;F2 -->
<g id="edge116" class="edge"><title>C#3&#45;&#45;F2</title>
<path fill="none" stroke="black" d="M1163.1,-755.78C1194.2,-755.16 1245,-749.25 1275,-720 1296.3,-699.23 1302.8,-664.6 1304.7,-640.38"/>
<polygon fill="black" stroke="black" points="1308.21,-640.228 1305.2,-630.07 1301.22,-639.889 1308.21,-640.228"/>
<text text-anchor="middle" x="1307.2" y="-705.4" font-family="Times,serif" font-size="14.00">0.0016</text>
</g>
<!-- C#2 -->
<g id="node81" class="node"><title>C#2</title>
<ellipse fill="none" stroke="black" cx="1174" cy="-666" rx="27.2698" ry="18"/>
<text text-anchor="middle" x="1174" y="-660.4" font-family="Times,serif" font-size="14.00">C#2</text>
</g>
<!-- C#3&#45;&#45;C#2 -->
<g id="edge118" class="edge"><title>C#3&#45;&#45;C#2</title>
<path fill="none" stroke="black" d="M1143.1,-738.45C1148.7,-725.66 1156.4,-707.74 1162.8,-693.04"/>
<polygon fill="black" stroke="black" points="1166.18,-694.05 1166.9,-683.48 1159.74,-691.291 1166.18,-694.05"/>
<text text-anchor="middle" x="1178.2" y="-705.4" font-family="Times,serif" font-size="14.00">0.0016</text>
</g>
<!-- B3&#45;&#45;E&#45;3 -->
<g id="edge100" class="edge"><title>B3&#45;&#45;E&#45;3</title>
<path fill="none" stroke="black" d="M612.52,-120.78C608.49,-122.8 604.2,-124.67 600,-126 538.93,-145.34 520.03,-132.6 457,-144 319.52,-168.86 263.89,-167.45 169,-270 59.575,-388.25 46,-449.89 46,-611 46,-937 46,-937 46,-937 46,-972.91 73.84,-976.21 107,-990 186.5,-1023.1 449.86,-1025.5 547.85,-1025.3"/>
<polygon fill="black" stroke="black" points="547.915,-1028.8 557.88,-1025.2 547.846,-1021.8 547.915,-1028.8"/>
<text text-anchor="middle" x="67.25" y="-552.4" font-family="Times,serif" font-size="14.00">0.0471</text>
</g>
<!-- B3&#45;&#45;G#3 -->
<g id="edge102" class="edge"><title>B3&#45;&#45;G#3</title>
<path fill="none" stroke="black" d="M618.12,-123.57C603.94,-140.03 584,-168.29 584,-197 584,-334 584,-334 584,-334 584,-421.31 616.39,-481.69 642,-522 645.11,-526.9 649.01,-531.64 653.08,-535.98"/>
<polygon fill="black" stroke="black" points="650.865,-538.713 660.42,-543.29 655.804,-533.753 650.865,-538.713"/>
<text text-anchor="middle" x="604.25" y="-327.4" font-family="Times,serif" font-size="14.00">0.0032</text>
</g>
<!-- B3&#45;&#45;G#2 -->
<g id="edge104" class="edge"><title>B3&#45;&#45;G#2</title>
<path fill="none" stroke="black" d="M653.47,-96.733C685.93,-81.209 747.66,-51.684 785,-33.827"/>
<polygon fill="black" stroke="black" points="786.878,-36.8089 794.39,-29.338 783.858,-30.4934 786.878,-36.8089"/>
<text text-anchor="middle" x="760.25" y="-57.4" font-family="Times,serif" font-size="14.00">0.0016</text>
</g>
<!-- B3&#45;&#45;E3 -->
<g id="edge106" class="edge"><title>B3&#45;&#45;E3</title>
<path fill="none" stroke="black" d="M606.37,-101.69C533.66,-86.637 325.93,-43.625 242.41,-26.331"/>
<polygon fill="black" stroke="black" points="242.892,-22.8566 232.39,-24.258 241.474,-29.7115 242.892,-22.8566"/>
<text text-anchor="middle" x="477.25" y="-57.4" font-family="Times,serif" font-size="14.00">0.0032</text>
</g>
<!-- B3&#45;&#45;C#4 -->
<g id="edge108" class="edge"><title>B3&#45;&#45;C#4</title>
<path fill="none" stroke="black" d="M658.22,-102.97C716.28,-94.056 860.06,-72.033 980.5,-54 1051.8,-43.328 1135.1,-31.104 1181.7,-24.294"/>
<polygon fill="black" stroke="black" points="1182.21,-27.7564 1191.6,-22.845 1181.2,-20.8302 1182.21,-27.7564"/>
<text text-anchor="middle" x="1000.2" y="-57.4" font-family="Times,serif" font-size="14.00">0.0162</text>
</g>
<!-- B&#45;3&#45;&#45;E&#45;3 -->
<g id="edge86" class="edge"><title>B&#45;3&#45;&#45;E&#45;3</title>
<path fill="none" stroke="black" d="M549.2,-486.17C539.49,-546.5 508.32,-746.59 517.5,-774 536.6,-831.02 579.9,-824.98 599,-882 614.25,-927.51 608.08,-942.87 599,-990 598.41,-993.05 597.56,-996.17 596.57,-999.24"/>
<polygon fill="black" stroke="black" points="593.257,-998.108 593.03,-1008.7 599.813,-1000.56 593.257,-998.108"/>
<text text-anchor="middle" x="537.25" y="-750.4" font-family="Times,serif" font-size="14.00">0.0016</text>
</g>
<!-- B&#45;3&#45;&#45;G#4 -->
<g id="edge88" class="edge"><title>B&#45;3&#45;&#45;G#4</title>
<path fill="none" stroke="black" d="M526.75,-474.4C510.25,-479.29 489.65,-488.23 478,-504 430.72,-568 460.62,-823.13 472.09,-907.65"/>
<polygon fill="black" stroke="black" points="468.649,-908.321 473.48,-917.75 475.584,-907.366 468.649,-908.321"/>
<text text-anchor="middle" x="473.25" y="-705.4" font-family="Times,serif" font-size="14.00">0.0016</text>
</g>
<!-- B&#45;3&#45;&#45;F#4 -->
<g id="edge90" class="edge"><title>B&#45;3&#45;&#45;F#4</title>
<path fill="none" stroke="black" d="M526.77,-461.16C460.91,-445.91 283.63,-404.85 207.51,-387.22"/>
<polygon fill="black" stroke="black" points="208.001,-383.741 197.47,-384.9 206.425,-390.562 208.001,-383.741"/>
<text text-anchor="middle" x="416.25" y="-417.4" font-family="Times,serif" font-size="14.00">0.0016</text>
</g>
<!-- B&#45;3&#45;&#45;F#3 -->
<g id="edge92" class="edge"><title>B&#45;3&#45;&#45;F#3</title>
<path fill="none" stroke="black" d="M577.28,-461.36C604.25,-455.11 648.07,-444.28 685,-432 719.68,-420.47 758.36,-404.41 784.64,-393"/>
<polygon fill="black" stroke="black" points="786.314,-396.088 794.07,-388.87 783.506,-389.676 786.314,-396.088"/>
<text text-anchor="middle" x="752.25" y="-417.4" font-family="Times,serif" font-size="14.00">0.0016</text>
</g>
<!-- B&#45;3&#45;&#45;C#5 -->
<g id="edge94" class="edge"><title>B&#45;3&#45;&#45;C#5</title>
<path fill="none" stroke="black" d="M563.89,-451.62C585.64,-424.05 634.12,-365.27 683,-324 689.36,-318.63 696.43,-313.06 703.08,-307.99"/>
<polygon fill="black" stroke="black" points="705.307,-310.695 711.2,-301.89 701.102,-305.098 705.307,-310.695"/>
<text text-anchor="middle" x="664.25" y="-372.4" font-family="Times,serif" font-size="14.00">0.0016</text>
</g>
<!-- E&#45;2 -->
<g id="node66" class="node"><title>E&#45;2</title>
<ellipse fill="none" stroke="black" cx="434" cy="-378" rx="27" ry="18"/>
<text text-anchor="middle" x="434" y="-372.4" font-family="Times,serif" font-size="14.00">E&#45;2</text>
</g>
<!-- B&#45;3&#45;&#45;E&#45;2 -->
<g id="edge96" class="edge"><title>B&#45;3&#45;&#45;E&#45;2</title>
<path fill="none" stroke="black" d="M534.59,-454.02C514.81,-439.26 482.33,-415.04 459.65,-398.13"/>
<polygon fill="black" stroke="black" points="461.589,-395.21 451.48,-392.04 457.406,-400.823 461.589,-395.21"/>
<text text-anchor="middle" x="523.25" y="-417.4" font-family="Times,serif" font-size="14.00">0.0016</text>
</g>
<!-- E&#45;2&#45;&#45;E&#45;3 -->
<g id="edge98" class="edge"><title>E&#45;2&#45;&#45;E&#45;3</title>
<path fill="none" stroke="black" d="M439.17,-395.69C441.61,-406.37 443.17,-420.34 439,-432 423.3,-475.85 332.79,-555.9 306,-594 273.84,-639.73 257.13,-648.32 241.5,-702 234.91,-724.63 240,-731.44 240,-755 240,-937 240,-937 240,-937 240,-999.96 458.47,-1018.4 547.71,-1023.4"/>
<polygon fill="black" stroke="black" points="547.771,-1026.91 557.93,-1023.9 548.113,-1019.92 547.771,-1026.91"/>
<text text-anchor="middle" x="261.25" y="-705.4" font-family="Times,serif" font-size="14.00">0.0016</text>
</g>
<!-- C#4&#45;&#45;E&#45;3 -->
<g id="edge130" class="edge"><title>C#4&#45;&#45;E&#45;3</title>
<path fill="none" stroke="black" d="M1245,-19.83C1328.5,-23.121 1577,-38.657 1577,-107 1577,-937 1577,-937 1577,-937 1577,-985.9 802.21,-1017.1 622.09,-1023.7"/>
<polygon fill="black" stroke="black" points="621.903,-1020.2 612.05,-1024.1 622.181,-1027.2 621.903,-1020.2"/>
<text text-anchor="middle" x="1596.2" y="-507.4" font-family="Times,serif" font-size="14.00">0.0925</text>
</g>
<!-- C#4&#45;&#45;G#4 -->
<g id="edge132" class="edge"><title>C#4&#45;&#45;G#4</title>
<path fill="none" stroke="black" d="M1244.9,-19.852C1281,-21.961 1345.9,-29.211 1395,-54 1426.2,-69.746 1453,-72.081 1453,-107 1453,-379 1453,-379 1453,-379 1453,-423.24 1429.2,-738.37 1403,-774 1312.3,-897.24 878.32,-885.33 726,-900 635.4,-908.72 610.81,-898.05 522,-918 517.49,-919.01 512.82,-920.36 508.26,-921.86"/>
<polygon fill="black" stroke="black" points="506.823,-918.656 498.57,-925.3 509.165,-925.253 506.823,-918.656"/>
<text text-anchor="middle" x="1469.2" y="-462.4" font-family="Times,serif" font-size="14.00">0.0016</text>
</g>
<!-- C#4&#45;&#45;C#5 -->
<g id="edge134" class="edge"><title>C#4&#45;&#45;C#5</title>
<path fill="none" stroke="black" d="M1191.1,-20.926C1156.5,-24.195 1095.1,-32.7 1047,-54 1030.6,-61.277 827.18,-213.35 754.56,-267.81"/>
<polygon fill="black" stroke="black" points="752.272,-265.151 746.37,-273.95 756.471,-270.752 752.272,-265.151"/>
<text text-anchor="middle" x="939.25" y="-147.4" font-family="Times,serif" font-size="14.00">0.0016</text>
</g>
<!-- C#4&#45;&#45;G#3 -->
<g id="edge136" class="edge"><title>C#4&#45;&#45;G#3</title>
<path fill="none" stroke="black" d="M1191.3,-21.591C1167.3,-25.194 1132.2,-33.755 1109,-54 1035.4,-118.14 1064,-168.17 1014,-252 948.15,-362.4 931.72,-392.03 844,-486 826.99,-504.22 823.04,-510.36 801,-522 773.36,-536.6 738.95,-545.69 713.39,-550.94"/>
<polygon fill="black" stroke="black" points="712.517,-547.544 703.37,-552.89 713.854,-554.415 712.517,-547.544"/>
<text text-anchor="middle" x="1022.2" y="-282.4" font-family="Times,serif" font-size="14.00">0.0049</text>
</g>
<!-- C#4&#45;&#45;E&#45;4 -->
<g id="edge138" class="edge"><title>C#4&#45;&#45;E&#45;4</title>
<path fill="none" stroke="black" d="M1245.2,-20.031C1296,-23.563 1400,-39.087 1400,-107 1400,-379 1400,-379 1400,-379 1400,-438.31 1389,-452.69 1389,-512 1389,-757 1389,-757 1389,-757 1389,-825.61 1310.6,-793.63 1244,-810 1164.1,-829.63 1067.8,-838.85 1016.1,-842.67"/>
<polygon fill="black" stroke="black" points="1015.82,-839.181 1006.1,-843.39 1016.33,-846.163 1015.82,-839.181"/>
<text text-anchor="middle" x="1418" y="-417.4" font-family="Times,serif" font-size="14.00">0.0114</text>
</g>
<!-- C#4&#45;&#45;C#3 -->
<g id="edge142" class="edge"><title>C#4&#45;&#45;C#3</title>
<path fill="none" stroke="black" d="M1218,-36.199C1218,-53.938 1218,-82.403 1218,-107 1218,-244 1218,-244 1218,-244 1218,-349.92 1305.2,-634.24 1243,-720 1227.1,-741.88 1197.2,-750.33 1173,-753.48"/>
<polygon fill="black" stroke="black" points="1172.68,-749.995 1163.1,-754.53 1173.41,-756.956 1172.68,-749.995"/>
<text text-anchor="middle" x="1258.2" y="-372.4" font-family="Times,serif" font-size="14.00">0.0162</text>
</g>
<!-- C#4&#45;&#45;B&#45;3 -->
<g id="edge140" class="edge"><title>C#4&#45;&#45;B&#45;3</title>
<path fill="none" stroke="black" d="M1191,-19.058C1159.3,-20.461 1106.9,-27.097 1072,-54 1000.1,-109.44 1012.7,-151.21 975.5,-234 961.52,-265.1 967.91,-277.62 949,-306 916.39,-354.94 900.78,-363.15 852,-396 820.66,-417.1 811.13,-420.96 775,-432 770.56,-433.36 650.46,-451.89 588.39,-461.42"/>
<polygon fill="black" stroke="black" points="587.592,-458.001 578.24,-462.98 588.656,-464.92 587.592,-458.001"/>
<text text-anchor="middle" x="995.25" y="-237.4" font-family="Times,serif" font-size="14.00">0.0049</text>
</g>
<!-- C#4&#45;&#45;C#4 -->
<g id="edge144" class="edge"><title>C#4&#45;&#45;C#4</title>
<path fill="none" stroke="black" d="M1242.5,-26.121C1253.5,-26.895 1263,-24.188 1263,-18 1263,-13.843 1258.7,-11.257 1252.6,-10.242"/>
<polygon fill="black" stroke="black" points="1252.62,-6.74053 1242.5,-9.8789 1252.37,-13.736 1252.62,-6.74053"/>
<text text-anchor="middle" x="1282" y="-12.4" font-family="Times,serif" font-size="14.00">0.0211</text>
</g>
<!-- F2&#45;&#45;C#4 -->
<g id="edge146" class="edge"><title>F2&#45;&#45;C#4</title>
<path fill="none" stroke="black" d="M1304.1,-593.81C1301.5,-541.37 1294,-378.82 1294,-244 1294,-244 1294,-244 1294,-107 1294,-76.704 1267.9,-51.686 1246.3,-36.169"/>
<polygon fill="black" stroke="black" points="1248.23,-33.2503 1238,-30.502 1244.29,-39.0313 1248.23,-33.2503"/>
<text text-anchor="middle" x="1315.2" y="-327.4" font-family="Times,serif" font-size="14.00">0.0016</text>
</g>
<!-- E2 -->
<g id="node97" class="node"><title>E2</title>
<ellipse fill="none" stroke="black" cx="585" cy="-1116" rx="27" ry="18"/>
<text text-anchor="middle" x="585" y="-1110.4" font-family="Times,serif" font-size="14.00">E2</text>
</g>
<!-- E2&#45;&#45;E&#45;3 -->
<g id="edge148" class="edge"><title>E2&#45;&#45;E&#45;3</title>
<path fill="none" stroke="black" d="M585,-1097.6C585,-1085.2 585,-1068.4 585,-1054.2"/>
<polygon fill="black" stroke="black" points="588.5,-1054.1 585,-1044.1 581.5,-1054.1 588.5,-1054.1"/>
<text text-anchor="middle" x="604.25" y="-1065.4" font-family="Times,serif" font-size="14.00">0.0032</text>
</g>
<!-- F4 -->
<g id="node99" class="node"><title>F4</title>
<ellipse fill="none" stroke="black" cx="1276" cy="-936" rx="27" ry="18"/>
<text text-anchor="middle" x="1276" y="-930.4" font-family="Times,serif" font-size="14.00">F4</text>
</g>
<!-- F4&#45;&#45;E&#45;4 -->
<g id="edge150" class="edge"><title>F4&#45;&#45;E&#45;4</title>
<path fill="none" stroke="black" d="M1251.7,-927.8C1198.9,-912.16 1073.7,-875.06 1013.1,-857.1"/>
<polygon fill="black" stroke="black" points="1013.78,-853.652 1003.2,-854.18 1011.8,-860.366 1013.78,-853.652"/>
<text text-anchor="middle" x="1174.2" y="-885.4" font-family="Times,serif" font-size="14.00">0.0016</text>
</g>
<!-- F4&#45;&#45;C#4 -->
<g id="edge152" class="edge"><title>F4&#45;&#45;C#4</title>
<path fill="none" stroke="black" d="M1301.9,-930.91C1362.9,-920.58 1510,-891.05 1510,-847 1510,-847 1510,-847 1510,-107 1510,-76.667 1493.4,-68.925 1467,-54 1431.6,-33.991 1315.8,-24.568 1255.4,-20.92"/>
<polygon fill="black" stroke="black" points="1255.39,-17.4134 1245.2,-20.325 1254.98,-24.4015 1255.39,-17.4134"/>
<text text-anchor="middle" x="1529.2" y="-462.4" font-family="Times,serif" font-size="14.00">0.0016</text>
</g>
</g>
</svg>
