<?xml version="1.0" encoding="UTF-8" standalone="no"?>
<!DOCTYPE svg PUBLIC "-//W3C//DTD SVG 1.1//EN"
 "http://www.w3.org/Graphics/SVG/1.1/DTD/svg11.dtd">
<!-- Generated by graphviz version 2.28.0 (20121019.2215)
 -->
<!-- Title: _anonymous_0 Pages: 1 -->
<svg width="1830pt" height="1214pt"
 viewBox="0.00 0.00 1829.50 1214.00" xmlns="http://www.w3.org/2000/svg" xmlns:xlink="http://www.w3.org/1999/xlink">
<g id="graph1" class="graph" transform="scale(1 1) rotate(0) translate(4 1210)">
<title>_anonymous_0</title>
<polygon fill="white" stroke="white" points="-4,5 -4,-1210 1826.5,-1210 1826.5,5 -4,5"/>
<!-- B&#45;2 -->
<g id="node1" class="node"><title>B&#45;2</title>
<ellipse fill="none" stroke="black" cx="768" cy="-1188" rx="27" ry="18"/>
<text text-anchor="middle" x="768" y="-1182.4" font-family="Times,serif" font-size="14.00">B&#45;2</text>
</g>
<!-- E&#45;3 -->
<g id="node2" class="node"><title>E&#45;3</title>
<ellipse fill="none" stroke="black" cx="1437" cy="-1098" rx="27" ry="18"/>
<text text-anchor="middle" x="1437" y="-1092.4" font-family="Times,serif" font-size="14.00">E&#45;3</text>
</g>
<!-- B&#45;2&#45;&#45;E&#45;3 -->
<g id="edge2" class="edge"><title>B&#45;2&#45;&#45;E&#45;3</title>
<path fill="none" stroke="black" d="M794.23,-1183.6C897.99,-1169.9 1280,-1119.6 1400.4,-1103.8"/>
<polygon fill="black" stroke="black" points="1401.12,-1107.24 1410.6,-1102.5 1400.24,-1100.29 1401.12,-1107.24"/>
<text text-anchor="middle" x="1182.2" y="-1137.4" font-family="Times,serif" font-size="14.00">0.0016</text>
</g>
<!-- E&#45;3&#45;&#45;E&#45;3 -->
<g id="edge4" class="edge"><title>E&#45;3&#45;&#45;E&#45;3</title>
<path fill="none" stroke="black" d="M1461.5,-1106.1C1472.5,-1106.9 1482,-1104.2 1482,-1098 1482,-1093.8 1477.7,-1091.3 1471.6,-1090.2"/>
<polygon fill="black" stroke="black" points="1471.6,-1086.7 1461.5,-1089.9 1471.39,-1093.7 1471.6,-1086.7"/>
<text text-anchor="middle" x="1501.2" y="-1092.4" font-family="Times,serif" font-size="14.00">0.0016</text>
</g>
<!-- G#3 -->
<g id="node5" class="node"><title>G#3</title>
<ellipse fill="none" stroke="black" cx="812" cy="-1008" rx="27.8358" ry="18"/>
<text text-anchor="middle" x="812" y="-1002.4" font-family="Times,serif" font-size="14.00">G#3</text>
</g>
<!-- E&#45;3&#45;&#45;G#3 -->
<g id="edge6" class="edge"><title>E&#45;3&#45;&#45;G#3</title>
<path fill="none" stroke="black" d="M1410.5,-1093.3C1311.5,-1079.3 962.62,-1030.2 848.45,-1014.1"/>
<polygon fill="black" stroke="black" points="848.849,-1010.62 838.46,-1012.7 847.877,-1017.55 848.849,-1010.62"/>
<text text-anchor="middle" x="1200.2" y="-1047.4" font-family="Times,serif" font-size="14.00">0.1786</text>
</g>
<!-- G#2 -->
<g id="node7" class="node"><title>G#2</title>
<ellipse fill="none" stroke="black" cx="484" cy="-18" rx="27.8358" ry="18"/>
<text text-anchor="middle" x="484" y="-12.4" font-family="Times,serif" font-size="14.00">G#2</text>
</g>
<!-- E&#45;3&#45;&#45;G#2 -->
<g id="edge8" class="edge"><title>E&#45;3&#45;&#45;G#2</title>
<path fill="none" stroke="black" d="M1463.9,-1095.8C1521,-1092.8 1652.5,-1083.7 1691,-1062 1717.4,-1047.1 1734,-1039.3 1734,-1009 1734,-1009 1734,-1009 1734,-647 1734,-438.68 1821.5,-344.76 1694,-180 1664.6,-141.98 1638,-157.94 1592,-144 1436.6,-96.937 1398.6,-77.886 1238,-54 1097.4,-33.091 653.89,-22.49 521.6,-19.737"/>
<polygon fill="black" stroke="black" points="521.62,-16.2368 511.55,-19.531 521.476,-23.2353 521.62,-16.2368"/>
<text text-anchor="middle" x="1761.2" y="-552.4" font-family="Times,serif" font-size="14.00">0.0130</text>
</g>
<!-- E&#45;5 -->
<g id="node9" class="node"><title>E&#45;5</title>
<ellipse fill="none" stroke="black" cx="235" cy="-198" rx="27" ry="18"/>
<text text-anchor="middle" x="235" y="-192.4" font-family="Times,serif" font-size="14.00">E&#45;5</text>
</g>
<!-- E&#45;3&#45;&#45;E&#45;5 -->
<g id="edge10" class="edge"><title>E&#45;3&#45;&#45;E&#45;5</title>
<path fill="none" stroke="black" d="M1410,-1097C1255.8,-1096.8 484.88,-1094.3 250,-1062 153.36,-1048.7 37,-1106.6 37,-1009 37,-1009 37,-1009 37,-782 37,-651.13 159,-644.87 159,-514 159,-514 159,-514 159,-287 159,-256.7 185.12,-231.69 206.73,-216.17"/>
<polygon fill="black" stroke="black" points="208.747,-219.031 215.03,-210.5 204.798,-213.251 208.747,-219.031"/>
<text text-anchor="middle" x="133.25" y="-642.4" font-family="Times,serif" font-size="14.00">0.0016</text>
</g>
<!-- C#5 -->
<g id="node11" class="node"><title>C#5</title>
<ellipse fill="none" stroke="black" cx="613" cy="-288" rx="27.2698" ry="18"/>
<text text-anchor="middle" x="613" y="-282.4" font-family="Times,serif" font-size="14.00">C#5</text>
</g>
<!-- E&#45;3&#45;&#45;C#5 -->
<g id="edge12" class="edge"><title>E&#45;3&#45;&#45;C#5</title>
<path fill="none" stroke="black" d="M1410.1,-1096.5C1231.6,-1093.2 225.43,-1072.5 182,-1026 172.71,-1016.1 178.77,-960.37 190,-900 209.02,-797.73 276.78,-545.08 319,-450 338.12,-406.94 340.26,-391.83 375,-360 431.51,-308.22 524.29,-294.12 575.73,-290.33"/>
<polygon fill="black" stroke="black" points="575.984,-293.821 585.74,-289.69 575.537,-286.835 575.984,-293.821"/>
<text text-anchor="middle" x="262.25" y="-687.4" font-family="Times,serif" font-size="14.00">0.0016</text>
</g>
<!-- B&#45;4 -->
<g id="node13" class="node"><title>B&#45;4</title>
<ellipse fill="none" stroke="black" cx="1603" cy="-1008" rx="27" ry="18"/>
<text text-anchor="middle" x="1603" y="-1002.4" font-family="Times,serif" font-size="14.00">B&#45;4</text>
</g>
<!-- E&#45;3&#45;&#45;B&#45;4 -->
<g id="edge14" class="edge"><title>E&#45;3&#45;&#45;B&#45;4</title>
<path fill="none" stroke="black" d="M1463.9,-1094.4C1490.7,-1090.8 1532.1,-1082.1 1562,-1062 1572.7,-1054.8 1581.9,-1043.8 1588.8,-1033.7"/>
<polygon fill="black" stroke="black" points="1591.81,-1035.5 1594.3,-1025.2 1585.93,-1031.69 1591.81,-1035.5"/>
<text text-anchor="middle" x="1600.2" y="-1047.4" font-family="Times,serif" font-size="14.00">0.0032</text>
</g>
<!-- F#4 -->
<g id="node15" class="node"><title>F#4</title>
<ellipse fill="none" stroke="black" cx="1390" cy="-378" rx="27" ry="18"/>
<text text-anchor="middle" x="1390" y="-372.4" font-family="Times,serif" font-size="14.00">F#4</text>
</g>
<!-- E&#45;3&#45;&#45;F#4 -->
<g id="edge16" class="edge"><title>E&#45;3&#45;&#45;F#4</title>
<path fill="none" stroke="black" d="M1459.6,-1088C1471.5,-1082.2 1485.3,-1073.6 1494,-1062 1504,-1048.7 1499.7,-1042 1504,-1026 1533.3,-916.22 1553.4,-887.44 1547,-774 1545,-738.28 1538,-729.78 1538,-694 1538,-694 1538,-694 1538,-557 1538,-483.08 1461.6,-423.5 1418.6,-395.81"/>
<polygon fill="black" stroke="black" points="1420.33,-392.761 1410,-390.39 1416.59,-398.683 1420.33,-392.761"/>
<text text-anchor="middle" x="1565.2" y="-732.4" font-family="Times,serif" font-size="14.00">0.0016</text>
</g>
<!-- F#3 -->
<g id="node17" class="node"><title>F#3</title>
<ellipse fill="none" stroke="black" cx="498" cy="-378" rx="27" ry="18"/>
<text text-anchor="middle" x="498" y="-372.4" font-family="Times,serif" font-size="14.00">F#3</text>
</g>
<!-- E&#45;3&#45;&#45;F#3 -->
<g id="edge18" class="edge"><title>E&#45;3&#45;&#45;F#3</title>
<path fill="none" stroke="black" d="M1409.8,-1097C1262.9,-1096.3 565.66,-1085 428,-936 326.76,-826.38 378,-753.22 378,-604 378,-604 378,-604 378,-467 378,-424.26 428.12,-400.01 463.58,-388.2"/>
<polygon fill="black" stroke="black" points="464.653,-391.532 473.14,-385.19 462.55,-384.855 464.653,-391.532"/>
<text text-anchor="middle" x="389.25" y="-732.4" font-family="Times,serif" font-size="14.00">0.0016</text>
</g>
<!-- G#4 -->
<g id="node19" class="node"><title>G#4</title>
<ellipse fill="none" stroke="black" cx="1203" cy="-918" rx="27.8358" ry="18"/>
<text text-anchor="middle" x="1203" y="-912.4" font-family="Times,serif" font-size="14.00">G#4</text>
</g>
<!-- E&#45;3&#45;&#45;G#4 -->
<g id="edge20" class="edge"><title>E&#45;3&#45;&#45;G#4</title>
<path fill="none" stroke="black" d="M1419.8,-1083.9C1379,-1052.9 1276.1,-974.61 1228.2,-938.2"/>
<polygon fill="black" stroke="black" points="1230.28,-935.382 1220.2,-932.11 1226.04,-940.952 1230.28,-935.382"/>
<text text-anchor="middle" x="1363.2" y="-1002.4" font-family="Times,serif" font-size="14.00">0.0032</text>
</g>
<!-- E&#45;4 -->
<g id="node21" class="node"><title>E&#45;4</title>
<ellipse fill="none" stroke="black" cx="636" cy="-828" rx="27" ry="18"/>
<text text-anchor="middle" x="636" y="-822.4" font-family="Times,serif" font-size="14.00">E&#45;4</text>
</g>
<!-- E&#45;3&#45;&#45;E&#45;4 -->
<g id="edge22" class="edge"><title>E&#45;3&#45;&#45;E&#45;4</title>
<path fill="none" stroke="black" d="M1410.1,-1095.7C1301.5,-1090 896.1,-1066.6 775,-1026 729.5,-1010.7 715.33,-1006 681.5,-972 668.52,-958.94 669.05,-952.56 661,-936 649.67,-912.69 644.7,-907.28 639,-882 637.17,-873.87 636.26,-864.88 635.84,-856.64"/>
<polygon fill="black" stroke="black" points="639.331,-856.277 635.55,-846.38 632.334,-856.475 639.331,-856.277"/>
<text text-anchor="middle" x="701.25" y="-957.4" font-family="Times,serif" font-size="14.00">0.0260</text>
</g>
<!-- G#3&#45;&#45;G#2 -->
<g id="edge24" class="edge"><title>G#3&#45;&#45;G#2</title>
<path fill="none" stroke="black" d="M784.97,-1004.9C688.05,-997.58 363.53,-972.86 361,-972 240.55,-930.94 0,-618.58 0,-604 0,-604 0,-604 0,-107 0,-64.35 39.731,-68.053 80,-54 147.08,-30.591 359.51,-22.338 446.4,-19.894"/>
<polygon fill="black" stroke="black" points="446.699,-23.3873 456.6,-19.617 446.509,-16.3899 446.699,-23.3873"/>
<text text-anchor="middle" x="19.25" y="-507.4" font-family="Times,serif" font-size="14.00">0.0032</text>
</g>
<!-- G#3&#45;&#45;G#4 -->
<g id="edge26" class="edge"><title>G#3&#45;&#45;G#4</title>
<path fill="none" stroke="black" d="M839.36,-1005.3C886.19,-1001.9 984.49,-992.74 1065,-972 1102.6,-962.31 1144,-945.54 1171.6,-933.46"/>
<polygon fill="black" stroke="black" points="1173.31,-936.529 1181,-929.24 1170.44,-930.143 1173.31,-936.529"/>
<text text-anchor="middle" x="1139.2" y="-957.4" font-family="Times,serif" font-size="14.00">0.0032</text>
</g>
<!-- B&#45;3 -->
<g id="node25" class="node"><title>B&#45;3</title>
<ellipse fill="none" stroke="black" cx="1208" cy="-468" rx="27" ry="18"/>
<text text-anchor="middle" x="1208" y="-462.4" font-family="Times,serif" font-size="14.00">B&#45;3</text>
</g>
<!-- G#3&#45;&#45;B&#45;3 -->
<g id="edge28" class="edge"><title>G#3&#45;&#45;B&#45;3</title>
<path fill="none" stroke="black" d="M839.14,-1005.5C873.06,-1002.8 932.12,-994.85 977,-972 998.31,-961.15 1001.4,-954.15 1017,-936 1079.3,-863.4 1096.5,-843.55 1135,-756 1174.9,-665.28 1196.1,-548.44 1204.1,-496.26"/>
<polygon fill="black" stroke="black" points="1207.6,-496.564 1205.7,-486.14 1200.68,-495.471 1207.6,-496.564"/>
<text text-anchor="middle" x="1169.2" y="-732.4" font-family="Times,serif" font-size="14.00">0.0065</text>
</g>
<!-- F#2 -->
<g id="node27" class="node"><title>F#2</title>
<ellipse fill="none" stroke="black" cx="886" cy="-918" rx="27" ry="18"/>
<text text-anchor="middle" x="886" y="-912.4" font-family="Times,serif" font-size="14.00">F#2</text>
</g>
<!-- G#3&#45;&#45;F#2 -->
<g id="edge30" class="edge"><title>G#3&#45;&#45;F#2</title>
<path fill="none" stroke="black" d="M826.46,-992.31C832.35,-986.16 839.14,-978.86 845,-972 852.99,-962.66 861.36,-952 868.45,-942.7"/>
<polygon fill="black" stroke="black" points="871.318,-944.71 874.55,-934.62 865.731,-940.492 871.318,-944.71"/>
<text text-anchor="middle" x="878.25" y="-957.4" font-family="Times,serif" font-size="14.00">0.0032</text>
</g>
<!-- E&#45;5&#45;&#45;G#3 -->
<g id="edge32" class="edge"><title>E&#45;5&#45;&#45;G#3</title>
<path fill="none" stroke="black" d="M223.6,-214.66C212.41,-231.62 197,-259.87 197,-287 197,-514 197,-514 197,-514 197,-549.86 188.84,-558.22 186.5,-594 185.98,-601.98 184.69,-604.21 186.5,-612 208.27,-705.97 341.38,-931.67 429,-972 444.57,-979.17 681.57,-997.35 774.76,-1004.3"/>
<polygon fill="black" stroke="black" points="774.662,-1007.8 784.88,-1005 775.145,-1000.82 774.662,-1007.8"/>
<text text-anchor="middle" x="206.25" y="-597.4" font-family="Times,serif" font-size="14.00">0.0016</text>
</g>
<!-- E&#45;5&#45;&#45;G#2 -->
<g id="edge34" class="edge"><title>E&#45;5&#45;&#45;G#2</title>
<path fill="none" stroke="black" d="M252.91,-184.2C296.23,-153.23 406.87,-74.134 457.72,-37.786"/>
<polygon fill="black" stroke="black" points="459.82,-40.5869 465.92,-31.924 455.749,-34.8923 459.82,-40.5869"/>
<text text-anchor="middle" x="404.25" y="-102.4" font-family="Times,serif" font-size="14.00">0.0016</text>
</g>
<!-- E&#45;5&#45;&#45;G#4 -->
<g id="edge36" class="edge"><title>E&#45;5&#45;&#45;G#4</title>
<path fill="none" stroke="black" d="M261.38,-202.11C309.09,-207.81 412.85,-220.6 500,-234 591.43,-248.06 614.41,-251.28 705,-270 738.84,-276.99 1288.5,-386.95 1310,-414 1359.8,-476.64 1310.8,-514 1311,-594 1311,-602 1312.4,-604.13 1311,-612 1289.8,-729.64 1253.2,-750.07 1217,-864 1214.3,-872.51 1211.7,-881.91 1209.5,-890.39"/>
<polygon fill="black" stroke="black" points="1206.09,-889.615 1207,-900.17 1212.87,-891.348 1206.09,-889.615"/>
<text text-anchor="middle" x="1337" y="-552.4" font-family="Times,serif" font-size="14.00">0.0211</text>
</g>
<!-- E&#45;5&#45;&#45;E&#45;4 -->
<g id="edge38" class="edge"><title>E&#45;5&#45;&#45;E&#45;4</title>
<path fill="none" stroke="black" d="M235,-216.2C235,-233.94 235,-262.4 235,-287 235,-469 235,-469 235,-469 235,-520.81 215.66,-657.99 243,-702 281.7,-764.3 510.19,-806.95 599.89,-821.49"/>
<polygon fill="black" stroke="black" points="599.442,-824.963 609.87,-823.09 600.55,-818.051 599.442,-824.963"/>
<text text-anchor="middle" x="253.25" y="-507.4" font-family="Times,serif" font-size="14.00">0.0016</text>
</g>
<!-- B3 -->
<g id="node33" class="node"><title>B3</title>
<ellipse fill="none" stroke="black" cx="997" cy="-108" rx="27" ry="18"/>
<text text-anchor="middle" x="997" y="-102.4" font-family="Times,serif" font-size="14.00">B3</text>
</g>
<!-- E&#45;5&#45;&#45;B3 -->
<g id="edge40" class="edge"><title>E&#45;5&#45;&#45;B3</title>
<path fill="none" stroke="black" d="M261.67,-193.92C376.44,-180.67 828.38,-128.47 960.52,-113.21"/>
<polygon fill="black" stroke="black" points="961.004,-116.677 970.54,-112.06 960.206,-109.723 961.004,-116.677"/>
<text text-anchor="middle" x="704.25" y="-147.4" font-family="Times,serif" font-size="14.00">0.0016</text>
</g>
<!-- C#5&#45;&#45;G#3 -->
<g id="edge42" class="edge"><title>C#5&#45;&#45;G#3</title>
<path fill="none" stroke="black" d="M586.84,-293.6C534.58,-304.3 417.66,-336.13 364,-414 268.61,-552.43 293.26,-633.75 350,-792 384.92,-889.39 416.12,-950.12 455,-972 508.89,-1002.3 693.99,-1006.7 774.31,-1007.1"/>
<polygon fill="black" stroke="black" points="774.48,-1010.6 784.48,-1007.1 774.48,-1003.6 774.48,-1010.6"/>
<text text-anchor="middle" x="329.25" y="-642.4" font-family="Times,serif" font-size="14.00">0.0065</text>
</g>
<!-- C#5&#45;&#45;E&#45;5 -->
<g id="edge44" class="edge"><title>C#5&#45;&#45;E&#45;5</title>
<path fill="none" stroke="black" d="M587.91,-281.16C522.39,-265.91 346.04,-224.85 270.33,-207.22"/>
<polygon fill="black" stroke="black" points="270.862,-203.751 260.33,-204.9 269.28,-210.57 270.862,-203.751"/>
<text text-anchor="middle" x="477.25" y="-237.4" font-family="Times,serif" font-size="14.00">0.0227</text>
</g>
<!-- C#5&#45;&#45;C#5 -->
<g id="edge46" class="edge"><title>C#5&#45;&#45;C#5</title>
<path fill="none" stroke="black" d="M637.53,-296.12C648.51,-296.89 658,-294.19 658,-288 658,-283.84 653.72,-281.26 647.57,-280.24"/>
<polygon fill="black" stroke="black" points="647.649,-276.741 637.53,-279.88 647.398,-283.736 647.649,-276.741"/>
<text text-anchor="middle" x="677.25" y="-282.4" font-family="Times,serif" font-size="14.00">0.0292</text>
</g>
<!-- C#5&#45;&#45;G#4 -->
<g id="edge48" class="edge"><title>C#5&#45;&#45;G#4</title>
<path fill="none" stroke="black" d="M639.9,-291.5C686.48,-296.09 785.06,-307 867,-324 925.28,-336.09 940.23,-339.18 996,-360 1031,-373.07 1037.2,-382.37 1072,-396 1081.3,-399.65 1237.9,-442.03 1244,-450 1302.2,-526.55 1244.2,-789.73 1217,-882 1216.1,-884.98 1215.1,-888.06 1214,-891.1"/>
<polygon fill="black" stroke="black" points="1210.71,-889.903 1210.3,-900.49 1217.22,-892.469 1210.71,-889.903"/>
<text text-anchor="middle" x="1288.2" y="-597.4" font-family="Times,serif" font-size="14.00">0.0032</text>
</g>
<!-- C#5&#45;&#45;E&#45;4 -->
<g id="edge50" class="edge"><title>C#5&#45;&#45;E&#45;4</title>
<path fill="none" stroke="black" d="M612.8,-306.1C611.54,-352.6 603.28,-484.05 551,-576 533.59,-606.62 507.06,-597.71 493,-630 486.61,-644.67 492.56,-650.01 493,-666 494.14,-706.96 488.72,-722.99 513,-756 535.09,-786.03 573.98,-805.35 602.13,-816.14"/>
<polygon fill="black" stroke="black" points="600.996,-819.452 611.59,-819.6 603.401,-812.878 600.996,-819.452"/>
<text text-anchor="middle" x="588.25" y="-552.4" font-family="Times,serif" font-size="14.00">0.0049</text>
</g>
<!-- C#5&#45;&#45;B3 -->
<g id="edge52" class="edge"><title>C#5&#45;&#45;B3</title>
<path fill="none" stroke="black" d="M634.75,-276.92C699.43,-246.94 890.79,-158.23 966.08,-123.33"/>
<polygon fill="black" stroke="black" points="967.888,-126.35 975.49,-118.97 964.945,-119.998 967.888,-126.35"/>
<text text-anchor="middle" x="863.25" y="-192.4" font-family="Times,serif" font-size="14.00">0.0016</text>
</g>
<!-- C#3 -->
<g id="node41" class="node"><title>C#3</title>
<ellipse fill="none" stroke="black" cx="674" cy="-738" rx="27.2698" ry="18"/>
<text text-anchor="middle" x="674" y="-732.4" font-family="Times,serif" font-size="14.00">C#3</text>
</g>
<!-- C#5&#45;&#45;C#3 -->
<g id="edge54" class="edge"><title>C#5&#45;&#45;C#3</title>
<path fill="none" stroke="black" d="M621.25,-305.41C629.19,-322.75 640,-351.11 640,-377 640,-604 640,-604 640,-604 640,-642.08 653.25,-684.44 663.2,-710.9"/>
<polygon fill="black" stroke="black" points="660.068,-712.503 666.96,-720.55 666.591,-709.962 660.068,-712.503"/>
<text text-anchor="middle" x="659.25" y="-507.4" font-family="Times,serif" font-size="14.00">0.0016</text>
</g>
<!-- F#3&#45;&#45;G#3 -->
<g id="edge56" class="edge"><title>F#3&#45;&#45;G#3</title>
<path fill="none" stroke="black" d="M477.31,-389.6C453.02,-403.7 416,-431.08 416,-467 416,-649 416,-649 416,-649 416,-708.54 432,-722.46 432,-782 432,-919 432,-919 432,-919 432,-988.84 678.7,-1003.3 774.55,-1006.2"/>
<polygon fill="black" stroke="black" points="774.571,-1009.7 784.67,-1006.5 774.778,-1002.71 774.571,-1009.7"/>
<text text-anchor="middle" x="440.25" y="-687.4" font-family="Times,serif" font-size="14.00">0.0016</text>
</g>
<!-- F#3&#45;&#45;C#5 -->
<g id="edge58" class="edge"><title>F#3&#45;&#45;C#5</title>
<path fill="none" stroke="black" d="M505.6,-360.33C511.55,-348.85 520.76,-333.92 532.5,-324 545.86,-312.7 563.44,-304.49 578.76,-298.88"/>
<polygon fill="black" stroke="black" points="580.108,-302.118 588.43,-295.56 577.835,-295.497 580.108,-302.118"/>
<text text-anchor="middle" x="552.25" y="-327.4" font-family="Times,serif" font-size="14.00">0.0016</text>
</g>
<!-- F#3&#45;&#45;C#3 -->
<g id="edge60" class="edge"><title>F#3&#45;&#45;C#3</title>
<path fill="none" stroke="black" d="M494.84,-396.1C489.11,-431.94 480.39,-516.56 512.5,-576 531.26,-610.73 555.88,-601.32 583,-630 609.59,-658.13 605.99,-673.33 632,-702 636.88,-707.38 642.61,-712.68 648.23,-717.46"/>
<polygon fill="black" stroke="black" points="646.322,-720.421 656.28,-724.04 650.752,-715.001 646.322,-720.421"/>
<text text-anchor="middle" x="532.25" y="-552.4" font-family="Times,serif" font-size="14.00">0.0016</text>
</g>
<!-- G#4&#45;&#45;F#4 -->
<g id="edge62" class="edge"><title>G#4&#45;&#45;F#4</title>
<path fill="none" stroke="black" d="M1229.8,-913.89C1253.5,-909.94 1288.1,-901.17 1312,-882 1326.4,-870.4 1326.3,-863.28 1333,-846 1393.8,-688.34 1393.6,-480.52 1391.2,-406.57"/>
<polygon fill="black" stroke="black" points="1394.69,-406.154 1390.9,-396.26 1387.69,-406.358 1394.69,-406.154"/>
<text text-anchor="middle" x="1402.2" y="-642.4" font-family="Times,serif" font-size="14.00">0.0016</text>
</g>
<!-- G#4&#45;&#45;E&#45;4 -->
<g id="edge64" class="edge"><title>G#4&#45;&#45;E&#45;4</title>
<path fill="none" stroke="black" d="M1176,-914.69C1136.1,-911.32 1059.3,-904.91 994,-900 935.91,-895.64 786.99,-902.58 732.5,-882 720.19,-877.35 720.21,-870.88 709,-864 695.89,-855.96 680.65,-848.39 667.49,-842.37"/>
<polygon fill="black" stroke="black" points="668.897,-839.165 658.34,-838.27 666.035,-845.553 668.897,-839.165"/>
<text text-anchor="middle" x="752.25" y="-867.4" font-family="Times,serif" font-size="14.00">0.0049</text>
</g>
<!-- F3 -->
<g id="node48" class="node"><title>F3</title>
<ellipse fill="none" stroke="black" cx="955" cy="-648" rx="27" ry="18"/>
<text text-anchor="middle" x="955" y="-642.4" font-family="Times,serif" font-size="14.00">F3</text>
</g>
<!-- G#4&#45;&#45;F3 -->
<g id="edge66" class="edge"><title>G#4&#45;&#45;F3</title>
<path fill="none" stroke="black" d="M1178.5,-909.7C1131.9,-894.7 1029.5,-856.31 967.5,-792 954.72,-778.75 951.71,-773.8 947,-756 939.95,-729.38 943.71,-697.83 948.15,-675.92"/>
<polygon fill="black" stroke="black" points="951.602,-676.518 950.33,-666 944.765,-675.016 951.602,-676.518"/>
<text text-anchor="middle" x="987.25" y="-777.4" font-family="Times,serif" font-size="14.00">0.0016</text>
</g>
<!-- B4 -->
<g id="node50" class="node"><title>B4</title>
<ellipse fill="none" stroke="black" cx="1408" cy="-828" rx="27" ry="18"/>
<text text-anchor="middle" x="1408" y="-822.4" font-family="Times,serif" font-size="14.00">B4</text>
</g>
<!-- G#4&#45;&#45;B4 -->
<g id="edge68" class="edge"><title>G#4&#45;&#45;B4</title>
<path fill="none" stroke="black" d="M1229.7,-913.39C1257.9,-908.84 1303.3,-899.41 1339,-882 1339.3,-881.84 1363.4,-863.34 1383,-848.24"/>
<polygon fill="black" stroke="black" points="1385.29,-850.897 1391.1,-842.04 1381.03,-845.339 1385.29,-850.897"/>
<text text-anchor="middle" x="1381.2" y="-867.4" font-family="Times,serif" font-size="14.00">0.0016</text>
</g>
<!-- G#5 -->
<g id="node52" class="node"><title>G#5</title>
<ellipse fill="none" stroke="black" cx="1297" cy="-828" rx="27.8358" ry="18"/>
<text text-anchor="middle" x="1297" y="-822.4" font-family="Times,serif" font-size="14.00">G#5</text>
</g>
<!-- G#4&#45;&#45;G#5 -->
<g id="edge70" class="edge"><title>G#4&#45;&#45;G#5</title>
<path fill="none" stroke="black" d="M1222.4,-904.73C1231.8,-898.44 1242.9,-890.35 1252,-882 1261.6,-873.15 1271.2,-862.31 1279,-852.74"/>
<polygon fill="black" stroke="black" points="1281.86,-854.762 1285.3,-844.74 1276.36,-850.431 1281.86,-854.762"/>
<text text-anchor="middle" x="1289.2" y="-867.4" font-family="Times,serif" font-size="14.00">0.0016</text>
</g>
<!-- E&#45;4&#45;&#45;B&#45;2 -->
<g id="edge76" class="edge"><title>E&#45;4&#45;&#45;B&#45;2</title>
<path fill="none" stroke="black" d="M608.98,-828.72C514.4,-828.47 204,-833.95 204,-917 204,-1099 204,-1099 204,-1099 204,-1152.5 605.36,-1178.4 730.92,-1185.1"/>
<polygon fill="black" stroke="black" points="730.993,-1188.61 741.18,-1185.7 731.401,-1181.62 730.993,-1188.61"/>
<text text-anchor="middle" x="223.25" y="-1002.4" font-family="Times,serif" font-size="14.00">0.0016</text>
</g>
<!-- E&#45;4&#45;&#45;G#3 -->
<g id="edge72" class="edge"><title>E&#45;4&#45;&#45;G#3</title>
<path fill="none" stroke="black" d="M637.7,-846.4C639.44,-857.35 642.95,-871.37 650,-882 683.63,-932.67 744.73,-971.47 781.52,-991.62"/>
<polygon fill="black" stroke="black" points="780.292,-994.933 790.76,-996.57 783.598,-988.763 780.292,-994.933"/>
<text text-anchor="middle" x="717.25" y="-912.4" font-family="Times,serif" font-size="14.00">0.0179</text>
</g>
<!-- E&#45;4&#45;&#45;G#2 -->
<g id="edge74" class="edge"><title>E&#45;4&#45;&#45;G#2</title>
<path fill="none" stroke="black" d="M609.13,-825.93C545.46,-822.56 381.41,-808.99 257,-756 183,-724.48 150.95,-728.23 100,-666 43.045,-596.43 54,-558.91 54,-469 54,-469 54,-469 54,-107 54,-27.252 341.46,-19.083 446.31,-18.756"/>
<polygon fill="black" stroke="black" points="446.453,-22.256 456.45,-18.747 446.447,-15.256 446.453,-22.256"/>
<text text-anchor="middle" x="73.25" y="-417.4" font-family="Times,serif" font-size="14.00">0.0016</text>
</g>
<!-- E&#45;4&#45;&#45;E&#45;4 -->
<g id="edge78" class="edge"><title>E&#45;4&#45;&#45;E&#45;4</title>
<path fill="none" stroke="black" d="M660.53,-836.12C671.51,-836.89 681,-834.19 681,-828 681,-823.84 676.72,-821.26 670.57,-820.24"/>
<polygon fill="black" stroke="black" points="670.649,-816.741 660.53,-819.88 670.398,-823.736 670.649,-816.741"/>
<text text-anchor="middle" x="700.25" y="-822.4" font-family="Times,serif" font-size="14.00">0.0032</text>
</g>
<!-- E&#45;4&#45;&#45;B&#45;3 -->
<g id="edge80" class="edge"><title>E&#45;4&#45;&#45;B&#45;3</title>
<path fill="none" stroke="black" d="M658.16,-817.31C671.26,-811.05 687.81,-802.18 701,-792 735.59,-765.28 730.59,-742.62 768,-720 794.02,-704.27 811.41,-722.35 834,-702 872.27,-667.54 842.08,-632.75 876,-594 908.76,-556.58 928.82,-560.79 974,-540 1015.4,-520.95 1026.1,-516.24 1070,-504 1111.8,-492.34 1124.3,-498.2 1166,-486 1169.4,-485 1173,-483.81 1176.4,-482.55"/>
<polygon fill="black" stroke="black" points="1178.01,-485.681 1186.1,-478.84 1175.51,-479.143 1178.01,-485.681"/>
<text text-anchor="middle" x="878.25" y="-642.4" font-family="Times,serif" font-size="14.00">0.0016</text>
</g>
<!-- E&#45;4&#45;&#45;B3 -->
<g id="edge82" class="edge"><title>E&#45;4&#45;&#45;B3</title>
<path fill="none" stroke="black" d="M661.68,-821.96C689.02,-816.21 733.31,-805.79 770,-792 811.69,-776.33 1124,-648.54 1124,-604 1124,-604 1124,-604 1124,-197 1124,-152.25 1070.1,-128.46 1032.5,-117.31"/>
<polygon fill="black" stroke="black" points="1032.97,-113.808 1022.4,-114.49 1031.09,-120.55 1032.97,-113.808"/>
<text text-anchor="middle" x="1143.2" y="-462.4" font-family="Times,serif" font-size="14.00">0.0146</text>
</g>
<!-- E&#45;4&#45;&#45;C#3 -->
<g id="edge84" class="edge"><title>E&#45;4&#45;&#45;C#3</title>
<path fill="none" stroke="black" d="M643.15,-810.45C648.67,-797.66 656.41,-779.74 662.76,-765.04"/>
<polygon fill="black" stroke="black" points="666.136,-766.049 666.88,-755.48 659.708,-763.278 666.136,-766.049"/>
<text text-anchor="middle" x="678.25" y="-777.4" font-family="Times,serif" font-size="14.00">0.0032</text>
</g>
<!-- B&#45;3&#45;&#45;E&#45;3 -->
<g id="edge86" class="edge"><title>B&#45;3&#45;&#45;E&#45;3</title>
<path fill="none" stroke="black" d="M1232.7,-475.49C1265.7,-485.15 1324.9,-505.93 1365,-540 1469,-628.28 1480.8,-676.95 1511,-810 1532.4,-904.3 1503.7,-931.12 1485,-1026 1481.8,-1042.2 1484.5,-1047.9 1476,-1062 1472.5,-1067.7 1467.9,-1073.1 1462.9,-1077.7"/>
<polygon fill="black" stroke="black" points="1460.34,-1075.29 1455.1,-1084.5 1464.94,-1080.57 1460.34,-1075.29"/>
<text text-anchor="middle" x="1526.2" y="-777.4" font-family="Times,serif" font-size="14.00">0.0016</text>
</g>
<!-- B&#45;3&#45;&#45;C#5 -->
<g id="edge88" class="edge"><title>B&#45;3&#45;&#45;C#5</title>
<path fill="none" stroke="black" d="M1186.1,-457.15C1179.7,-454.55 1172.6,-451.94 1166,-450 1123.9,-437.71 1111.5,-442.76 1069,-432 1018.5,-419.22 1003.7,-420.07 957.5,-396 934.01,-383.76 932.84,-373.42 910,-360 875.68,-339.84 866.17,-335.29 828,-324 767.02,-305.97 693.4,-296.52 650.05,-292.17"/>
<polygon fill="black" stroke="black" points="650.252,-288.673 639.96,-291.19 649.575,-295.64 650.252,-288.673"/>
<text text-anchor="middle" x="977.25" y="-372.4" font-family="Times,serif" font-size="14.00">0.0016</text>
</g>
<!-- B&#45;3&#45;&#45;F#4 -->
<g id="edge90" class="edge"><title>B&#45;3&#45;&#45;F#4</title>
<path fill="none" stroke="black" d="M1203.4,-449.77C1201.5,-438.33 1201.3,-423.68 1209.5,-414 1227.6,-392.68 1305.5,-384.15 1352.9,-380.89"/>
<polygon fill="black" stroke="black" points="1353.25,-384.375 1363,-380.23 1352.79,-377.39 1353.25,-384.375"/>
<text text-anchor="middle" x="1229.2" y="-417.4" font-family="Times,serif" font-size="14.00">0.0016</text>
</g>
<!-- B&#45;3&#45;&#45;F#3 -->
<g id="edge92" class="edge"><title>B&#45;3&#45;&#45;F#3</title>
<path fill="none" stroke="black" d="M1186.6,-456.72C1180.2,-454.05 1172.9,-451.5 1166,-450 986.68,-411.01 935.6,-454.71 753.5,-432 673.55,-422.03 581.37,-400.33 532.54,-388.01"/>
<polygon fill="black" stroke="black" points="533.354,-384.606 522.8,-385.54 531.633,-391.391 533.354,-384.606"/>
<text text-anchor="middle" x="773.25" y="-417.4" font-family="Times,serif" font-size="14.00">0.0016</text>
</g>
<!-- B&#45;3&#45;&#45;G#4 -->
<g id="edge94" class="edge"><title>B&#45;3&#45;&#45;G#4</title>
<path fill="none" stroke="black" d="M1209.1,-486.38C1210.6,-510.52 1213.1,-555.56 1214,-594 1215.7,-666.29 1209.3,-684.43 1199,-756 1195.5,-780.16 1191.2,-785.69 1189,-810 1186.1,-841.87 1182.9,-850.58 1189,-882 1189.6,-885.05 1190.4,-888.17 1191.4,-891.24"/>
<polygon fill="black" stroke="black" points="1188.16,-892.568 1195,-900.66 1194.7,-890.069 1188.16,-892.568"/>
<text text-anchor="middle" x="1229.2" y="-687.4" font-family="Times,serif" font-size="14.00">0.0016</text>
</g>
<!-- E&#45;2 -->
<g id="node66" class="node"><title>E&#45;2</title>
<ellipse fill="none" stroke="black" cx="1517" cy="-378" rx="27" ry="18"/>
<text text-anchor="middle" x="1517" y="-372.4" font-family="Times,serif" font-size="14.00">E&#45;2</text>
</g>
<!-- B&#45;3&#45;&#45;E&#45;2 -->
<g id="edge96" class="edge"><title>B&#45;3&#45;&#45;E&#45;2</title>
<path fill="none" stroke="black" d="M1232.5,-460.02C1287.3,-444.43 1419.7,-406.71 1482.6,-388.78"/>
<polygon fill="black" stroke="black" points="1483.83,-392.069 1492.5,-385.98 1481.92,-385.334 1483.83,-392.069"/>
<text text-anchor="middle" x="1410.2" y="-417.4" font-family="Times,serif" font-size="14.00">0.0016</text>
</g>
<!-- B3&#45;&#45;E&#45;3 -->
<g id="edge100" class="edge"><title>B3&#45;&#45;E&#45;3</title>
<path fill="none" stroke="black" d="M1024.2,-109.59C1151.2,-112.7 1680,-129.67 1680,-197 1680,-694 1680,-694 1680,-694 1680,-992.61 1660.5,-1032.3 1623,-1062 1600.4,-1079.9 1521.6,-1089.7 1474.1,-1094.1"/>
<polygon fill="black" stroke="black" points="1473.55,-1090.63 1463.9,-1095 1474.17,-1097.61 1473.55,-1090.63"/>
<text text-anchor="middle" x="1699.2" y="-597.4" font-family="Times,serif" font-size="14.00">0.0471</text>
</g>
<!-- B3&#45;&#45;G#3 -->
<g id="edge102" class="edge"><title>B3&#45;&#45;G#3</title>
<path fill="none" stroke="black" d="M969.72,-108.91C846.25,-108.88 339.79,-112.91 199,-180 168.36,-194.6 159.92,-203.52 145,-234 106.47,-312.7 64.159,-572.88 100,-666 107.26,-684.87 328.69,-922.79 344,-936 365.84,-954.84 370.77,-962.48 398,-972 406.85,-975.09 674.43,-996.25 774.62,-1004.1"/>
<polygon fill="black" stroke="black" points="774.638,-1007.61 784.88,-1004.9 775.182,-1000.63 774.638,-1007.61"/>
<text text-anchor="middle" x="106.25" y="-552.4" font-family="Times,serif" font-size="14.00">0.0032</text>
</g>
<!-- B3&#45;&#45;G#2 -->
<g id="edge104" class="edge"><title>B3&#45;&#45;G#2</title>
<path fill="none" stroke="black" d="M977.43,-95.43C955.15,-82.876 917.27,-63.374 882,-54 814.51,-36.062 606.97,-24.689 521.44,-20.652"/>
<polygon fill="black" stroke="black" points="521.542,-17.153 511.39,-20.185 521.217,-24.1455 521.542,-17.153"/>
<text text-anchor="middle" x="950.25" y="-57.4" font-family="Times,serif" font-size="14.00">0.0016</text>
</g>
<!-- C#4 -->
<g id="node72" class="node"><title>C#4</title>
<ellipse fill="none" stroke="black" cx="1010" cy="-558" rx="27.2698" ry="18"/>
<text text-anchor="middle" x="1010" y="-552.4" font-family="Times,serif" font-size="14.00">C#4</text>
</g>
<!-- B3&#45;&#45;C#4 -->
<g id="edge106" class="edge"><title>B3&#45;&#45;C#4</title>
<path fill="none" stroke="black" d="M1005.4,-125.43C1016.8,-148.82 1036.6,-193.4 1044,-234 1063.8,-342.93 1033.2,-474.77 1017.9,-530.3"/>
<polygon fill="black" stroke="black" points="1014.49,-529.483 1015.1,-540.06 1021.22,-531.413 1014.49,-529.483"/>
<text text-anchor="middle" x="1070.2" y="-327.4" font-family="Times,serif" font-size="14.00">0.0162</text>
</g>
<!-- E3 -->
<g id="node74" class="node"><title>E3</title>
<ellipse fill="none" stroke="black" cx="1333" cy="-18" rx="27" ry="18"/>
<text text-anchor="middle" x="1333" y="-12.4" font-family="Times,serif" font-size="14.00">E3</text>
</g>
<!-- B3&#45;&#45;E3 -->
<g id="edge108" class="edge"><title>B3&#45;&#45;E3</title>
<path fill="none" stroke="black" d="M1021.7,-100.53C1080.8,-85.05 1230.5,-45.851 1298.5,-28.047"/>
<polygon fill="black" stroke="black" points="1299.51,-31.3998 1308.3,-25.48 1297.74,-24.6282 1299.51,-31.3998"/>
<text text-anchor="middle" x="1215.2" y="-57.4" font-family="Times,serif" font-size="14.00">0.0032</text>
</g>
<!-- C#3&#45;&#45;G#3 -->
<g id="edge110" class="edge"><title>C#3&#45;&#45;G#3</title>
<path fill="none" stroke="black" d="M688.31,-753.48C709.33,-775.53 748.5,-819.66 771,-864 790.26,-901.95 801.71,-950.28 807.43,-979.92"/>
<polygon fill="black" stroke="black" points="804.021,-980.733 809.28,-989.93 810.904,-979.46 804.021,-980.733"/>
<text text-anchor="middle" x="798.25" y="-867.4" font-family="Times,serif" font-size="14.00">0.0032</text>
</g>
<!-- C#3&#45;&#45;G#2 -->
<g id="edge112" class="edge"><title>C#3&#45;&#45;G#2</title>
<path fill="none" stroke="black" d="M675.89,-719.94C678.8,-698.18 685.62,-659.78 700,-630 758.3,-509.22 867.5,-513.11 867.5,-379 867.5,-379 867.5,-379 868,-107 868,-36.379 618.12,-22.431 521.51,-19.677"/>
<polygon fill="black" stroke="black" points="521.398,-16.173 511.31,-19.412 521.216,-23.1706 521.398,-16.173"/>
<text text-anchor="middle" x="887.25" y="-372.4" font-family="Times,serif" font-size="14.00">0.0016</text>
</g>
<!-- C#3&#45;&#45;F3 -->
<g id="edge114" class="edge"><title>C#3&#45;&#45;F3</title>
<path fill="none" stroke="black" d="M697.39,-728.74C717.27,-721.69 746.54,-711.27 772,-702 793.6,-694.13 798.36,-690.22 820.5,-684 860.82,-672.68 872.85,-677.91 913,-666 916.42,-664.98 919.95,-663.8 923.44,-662.53"/>
<polygon fill="black" stroke="black" points="924.988,-665.684 933.05,-658.81 922.461,-659.156 924.988,-665.684"/>
<text text-anchor="middle" x="840.25" y="-687.4" font-family="Times,serif" font-size="14.00">0.0032</text>
</g>
<!-- C#2 -->
<g id="node79" class="node"><title>C#2</title>
<ellipse fill="none" stroke="black" cx="547" cy="-648" rx="27.2698" ry="18"/>
<text text-anchor="middle" x="547" y="-642.4" font-family="Times,serif" font-size="14.00">C#2</text>
</g>
<!-- C#3&#45;&#45;C#2 -->
<g id="edge116" class="edge"><title>C#3&#45;&#45;C#2</title>
<path fill="none" stroke="black" d="M646.91,-734.96C622.59,-731.74 587.45,-723.43 565.5,-702 558.51,-695.17 554.16,-685.56 551.45,-676.4"/>
<polygon fill="black" stroke="black" points="554.786,-675.305 549.03,-666.41 547.983,-676.953 554.786,-675.305"/>
<text text-anchor="middle" x="585.25" y="-687.4" font-family="Times,serif" font-size="14.00">0.0016</text>
</g>
<!-- F2 -->
<g id="node81" class="node"><title>F2</title>
<ellipse fill="none" stroke="black" cx="808" cy="-648" rx="27" ry="18"/>
<text text-anchor="middle" x="808" y="-642.4" font-family="Times,serif" font-size="14.00">F2</text>
</g>
<!-- C#3&#45;&#45;F2 -->
<g id="edge118" class="edge"><title>C#3&#45;&#45;F2</title>
<path fill="none" stroke="black" d="M688.18,-722.22C699.66,-710.8 716.64,-695.13 733.5,-684 746.55,-675.38 762.06,-667.74 775.54,-661.81"/>
<polygon fill="black" stroke="black" points="777.108,-664.946 784.93,-657.8 774.359,-658.509 777.108,-664.946"/>
<text text-anchor="middle" x="753.25" y="-687.4" font-family="Times,serif" font-size="14.00">0.0016</text>
</g>
<!-- F3&#45;&#45;G#3 -->
<g id="edge120" class="edge"><title>F3&#45;&#45;G#3</title>
<path fill="none" stroke="black" d="M947.68,-665.61C930.11,-705.66 884.48,-810.78 850,-900 839.45,-927.3 828.35,-958.93 820.9,-980.68"/>
<polygon fill="black" stroke="black" points="817.562,-979.625 817.64,-990.22 824.186,-981.889 817.562,-979.625"/>
<text text-anchor="middle" x="906.25" y="-822.4" font-family="Times,serif" font-size="14.00">0.0081</text>
</g>
<!-- F3&#45;&#45;E&#45;4 -->
<g id="edge122" class="edge"><title>F3&#45;&#45;E&#45;4</title>
<path fill="none" stroke="black" d="M933.58,-659.36C920.05,-666.07 902.3,-675.17 887,-684 874.19,-691.39 872.5,-695.94 859,-702 831.85,-714.18 818.46,-702.35 794.5,-720 763.83,-742.59 778.32,-768.94 748,-792 725.96,-808.76 695.76,-817.59 672.28,-822.18"/>
<polygon fill="black" stroke="black" points="671.566,-818.752 662.34,-823.96 672.8,-825.642 671.566,-818.752"/>
<text text-anchor="middle" x="814.25" y="-732.4" font-family="Times,serif" font-size="14.00">0.0049</text>
</g>
<!-- F3&#45;&#45;C#4 -->
<g id="edge124" class="edge"><title>F3&#45;&#45;C#4</title>
<path fill="none" stroke="black" d="M952.24,-629.67C951.36,-618.75 951.9,-604.73 958.01,-594 962.84,-585.53 970.65,-578.7 978.77,-573.4"/>
<polygon fill="black" stroke="black" points="980.713,-576.318 987.58,-568.25 977.18,-570.275 980.713,-576.318"/>
<text text-anchor="middle" x="977.99" y="-597.4" font-family="Times,serif" font-size="14.00">0.0114</text>
</g>
<!-- B4&#45;&#45;G#3 -->
<g id="edge126" class="edge"><title>B4&#45;&#45;G#3</title>
<path fill="none" stroke="black" d="M1410,-846.01C1410.4,-857.35 1409,-871.97 1401,-882 1330.4,-970.9 1272.5,-946.13 1162,-972 1050.5,-998.1 914.5,-1004.7 849.76,-1006.4"/>
<polygon fill="black" stroke="black" points="849.522,-1002.91 839.63,-1006.7 849.729,-1009.9 849.522,-1002.91"/>
<text text-anchor="middle" x="1404.2" y="-912.4" font-family="Times,serif" font-size="14.00">0.0032</text>
</g>
<!-- B4&#45;&#45;E3 -->
<g id="edge128" class="edge"><title>B4&#45;&#45;E3</title>
<path fill="none" stroke="black" d="M1417.1,-810.53C1458.3,-735.48 1626,-427.55 1626,-379 1626,-379 1626,-379 1626,-107 1626,-54.073 1448.4,-30.219 1369.8,-22.249"/>
<polygon fill="black" stroke="black" points="1370.09,-18.7611 1359.8,-21.27 1369.41,-25.7278 1370.09,-18.7611"/>
<text text-anchor="middle" x="1636.2" y="-417.4" font-family="Times,serif" font-size="14.00">0.0016</text>
</g>
<!-- E&#45;2&#45;&#45;E&#45;3 -->
<g id="edge98" class="edge"><title>E&#45;2&#45;&#45;E&#45;3</title>
<path fill="none" stroke="black" d="M1535.1,-391.86C1562.9,-413.32 1613,-459.32 1613,-512 1613,-694 1613,-694 1613,-694 1613,-828.14 1658.8,-856.51 1672,-990 1675.1,-1021.8 1692.9,-1037.8 1672,-1062 1646.9,-1091.1 1533.9,-1096.4 1474.2,-1097.1"/>
<polygon fill="black" stroke="black" points="1473.97,-1093.6 1464,-1097.2 1474.03,-1100.6 1473.97,-1093.6"/>
<text text-anchor="middle" x="1636.2" y="-732.4" font-family="Times,serif" font-size="14.00">0.0016</text>
</g>
<!-- C#4&#45;&#45;E&#45;3 -->
<g id="edge130" class="edge"><title>C#4&#45;&#45;E&#45;3</title>
<path fill="none" stroke="black" d="M1032.4,-568.31C1047,-574.74 1066.2,-583.92 1082,-594 1146.2,-634.91 1150.5,-661.47 1215,-702 1310.3,-761.9 1365.6,-729.25 1444,-810 1464.9,-831.57 1471,-841.94 1471,-872 1471,-1009 1471,-1009 1471,-1009 1471,-1031.5 1461.2,-1055.2 1452.1,-1072.4"/>
<polygon fill="black" stroke="black" points="1449.01,-1070.76 1447.2,-1081.2 1455.12,-1074.17 1449.01,-1070.76"/>
<text text-anchor="middle" x="1488.2" y="-822.4" font-family="Times,serif" font-size="14.00">0.0925</text>
</g>
<!-- C#4&#45;&#45;G#3 -->
<g id="edge132" class="edge"><title>C#4&#45;&#45;G#3</title>
<path fill="none" stroke="black" d="M1014,-576C1015.1,-581.69 1016.3,-588.09 1017,-594 1026,-669.64 1041.7,-876.61 994,-936 958.37,-980.37 891.27,-997.08 849.25,-1003.3"/>
<polygon fill="black" stroke="black" points="848.565,-999.861 839.14,-1004.7 849.526,-1006.8 848.565,-999.861"/>
<text text-anchor="middle" x="1046.2" y="-777.4" font-family="Times,serif" font-size="14.00">0.0049</text>
</g>
<!-- C#4&#45;&#45;C#5 -->
<g id="edge134" class="edge"><title>C#4&#45;&#45;C#5</title>
<path fill="none" stroke="black" d="M991.65,-544.61C927.9,-501.58 715.86,-358.44 640.15,-307.33"/>
<polygon fill="black" stroke="black" points="641.866,-304.266 631.62,-301.57 637.949,-310.067 641.866,-304.266"/>
<text text-anchor="middle" x="840.25" y="-417.4" font-family="Times,serif" font-size="14.00">0.0016</text>
</g>
<!-- C#4&#45;&#45;G#4 -->
<g id="edge136" class="edge"><title>C#4&#45;&#45;G#4</title>
<path fill="none" stroke="black" d="M1032,-568.83C1042.6,-574.67 1054.6,-583.09 1062,-594 1103.2,-655 1074.1,-685.87 1096.5,-756 1115.1,-814.12 1112,-835.07 1151,-882 1157.2,-889.44 1165.3,-895.93 1173.3,-901.23"/>
<polygon fill="black" stroke="black" points="1171.55,-904.262 1181.9,-906.52 1175.22,-898.299 1171.55,-904.262"/>
<text text-anchor="middle" x="1116.2" y="-732.4" font-family="Times,serif" font-size="14.00">0.0016</text>
</g>
<!-- C#4&#45;&#45;E&#45;4 -->
<g id="edge138" class="edge"><title>C#4&#45;&#45;E&#45;4</title>
<path fill="none" stroke="black" d="M982.78,-558.44C887.74,-557.11 573.03,-558.27 511,-630 459.4,-689.66 558.63,-772.55 609.08,-808.8"/>
<polygon fill="black" stroke="black" points="607.122,-811.702 617.31,-814.61 611.159,-805.983 607.122,-811.702"/>
<text text-anchor="middle" x="523.99" y="-687.4" font-family="Times,serif" font-size="14.00">0.0114</text>
</g>
<!-- C#4&#45;&#45;B&#45;3 -->
<g id="edge140" class="edge"><title>C#4&#45;&#45;B&#45;3</title>
<path fill="none" stroke="black" d="M1029.3,-545.36C1049,-533.83 1080.6,-516.16 1109.5,-504 1133.8,-493.76 1141.2,-494.95 1166,-486 1169.3,-484.82 1172.7,-483.53 1176.1,-482.22"/>
<polygon fill="black" stroke="black" points="1177.5,-485.432 1185.5,-478.49 1174.91,-478.925 1177.5,-485.432"/>
<text text-anchor="middle" x="1129.2" y="-507.4" font-family="Times,serif" font-size="14.00">0.0049</text>
</g>
<!-- C#4&#45;&#45;C#3 -->
<g id="edge142" class="edge"><title>C#4&#45;&#45;C#3</title>
<path fill="none" stroke="black" d="M982.97,-559.08C929.68,-560.6 809.62,-570.85 733.5,-630 707.21,-650.43 690.82,-685.91 682.05,-710.38"/>
<polygon fill="black" stroke="black" points="678.644,-709.526 678.76,-720.12 685.276,-711.766 678.644,-709.526"/>
<text text-anchor="middle" x="753.25" y="-642.4" font-family="Times,serif" font-size="14.00">0.0162</text>
</g>
<!-- C#4&#45;&#45;C#4 -->
<g id="edge144" class="edge"><title>C#4&#45;&#45;C#4</title>
<path fill="none" stroke="black" d="M1034.5,-566.12C1045.5,-566.89 1055,-564.19 1055,-558 1055,-553.84 1050.7,-551.26 1044.6,-550.24"/>
<polygon fill="black" stroke="black" points="1044.62,-546.739 1034.5,-549.88 1044.37,-553.734 1044.62,-546.739"/>
<text text-anchor="middle" x="1074" y="-552.4" font-family="Times,serif" font-size="14.00">0.0211</text>
</g>
<!-- F2&#45;&#45;C#4 -->
<g id="edge146" class="edge"><title>F2&#45;&#45;C#4</title>
<path fill="none" stroke="black" d="M828.02,-635.59C848.39,-624.24 881.07,-606.71 910.5,-594 931.97,-584.73 956.79,-575.99 976.27,-569.57"/>
<polygon fill="black" stroke="black" points="977.494,-572.853 985.92,-566.43 975.328,-566.196 977.494,-572.853"/>
<text text-anchor="middle" x="930.25" y="-597.4" font-family="Times,serif" font-size="14.00">0.0016</text>
</g>
<!-- E2 -->
<g id="node97" class="node"><title>E2</title>
<ellipse fill="none" stroke="black" cx="1437" cy="-1188" rx="27" ry="18"/>
<text text-anchor="middle" x="1437" y="-1182.4" font-family="Times,serif" font-size="14.00">E2</text>
</g>
<!-- E2&#45;&#45;E&#45;3 -->
<g id="edge148" class="edge"><title>E2&#45;&#45;E&#45;3</title>
<path fill="none" stroke="black" d="M1437,-1169.6C1437,-1157.2 1437,-1140.4 1437,-1126.2"/>
<polygon fill="black" stroke="black" points="1440.5,-1126.1 1437,-1116.1 1433.5,-1126.1 1440.5,-1126.1"/>
<text text-anchor="middle" x="1456.2" y="-1137.4" font-family="Times,serif" font-size="14.00">0.0032</text>
</g>
<!-- F4 -->
<g id="node99" class="node"><title>F4</title>
<ellipse fill="none" stroke="black" cx="958" cy="-918" rx="27" ry="18"/>
<text text-anchor="middle" x="958" y="-912.4" font-family="Times,serif" font-size="14.00">F4</text>
</g>
<!-- F4&#45;&#45;E&#45;4 -->
<g id="edge150" class="edge"><title>F4&#45;&#45;E&#45;4</title>
<path fill="none" stroke="black" d="M937.93,-905.93C932.87,-903.59 927.35,-901.4 922,-900 867.8,-885.79 718.77,-910.45 670.5,-882 660,-875.81 652.12,-865.02 646.56,-854.79"/>
<polygon fill="black" stroke="black" points="649.644,-853.129 642.1,-845.69 643.358,-856.21 649.644,-853.129"/>
<text text-anchor="middle" x="690.25" y="-867.4" font-family="Times,serif" font-size="14.00">0.0016</text>
</g>
<!-- F4&#45;&#45;C#4 -->
<g id="edge152" class="edge"><title>F4&#45;&#45;C#4</title>
<path fill="none" stroke="black" d="M960.02,-899.84C964.09,-865.6 973.75,-786.36 983.5,-720 990.46,-672.66 999.77,-617.7 1005.3,-585.79"/>
<polygon fill="black" stroke="black" points="1008.76,-586.338 1007,-575.89 1001.86,-585.153 1008.76,-586.338"/>
<text text-anchor="middle" x="1003.2" y="-732.4" font-family="Times,serif" font-size="14.00">0.0016</text>
</g>
</g>
</svg>
