<?xml version="1.0" encoding="UTF-8" standalone="no"?>
<!DOCTYPE svg PUBLIC "-//W3C//DTD SVG 1.1//EN"
 "http://www.w3.org/Graphics/SVG/1.1/DTD/svg11.dtd">
<!-- Generated by graphviz version 2.28.0 (20121019.2215)
 -->
<!-- Title: _anonymous_0 Pages: 1 -->
<svg width="500pt" height="404pt"
 viewBox="0.00 0.00 499.63 404.00" xmlns="http://www.w3.org/2000/svg" xmlns:xlink="http://www.w3.org/1999/xlink">
<g id="graph1" class="graph" transform="scale(1 1) rotate(0) translate(4 400)">
<title>_anonymous_0</title>
<polygon fill="white" stroke="white" points="-4,5 -4,-400 496.635,-400 496.635,5 -4,5"/>
<!-- B&#45;4 -->
<g id="node1" class="node"><title>B&#45;4</title>
<ellipse fill="none" stroke="black" cx="223.135" cy="-108" rx="27" ry="18"/>
<text text-anchor="middle" x="223.135" y="-102.4" font-family="Times,serif" font-size="14.00">B&#45;4</text>
</g>
<!-- C#3 -->
<g id="node2" class="node"><title>C#3</title>
<ellipse fill="none" stroke="black" cx="223.135" cy="-18" rx="27.2698" ry="18"/>
<text text-anchor="middle" x="223.135" y="-12.4" font-family="Times,serif" font-size="14.00">C#3</text>
</g>
<!-- B&#45;4&#45;&#45;C#3 -->
<g id="edge2" class="edge"><title>B&#45;4&#45;&#45;C#3</title>
<path fill="none" stroke="black" d="M223.135,-89.614C223.135,-77.24 223.135,-60.369 223.135,-46.22"/>
<polygon fill="black" stroke="black" points="226.635,-46.05 223.135,-36.05 219.635,-46.05 226.635,-46.05"/>
<text text-anchor="middle" x="242.385" y="-57.4" font-family="Times,serif" font-size="14.00">0.0182</text>
</g>
<!-- B4 -->
<g id="node4" class="node"><title>B4</title>
<ellipse fill="none" stroke="black" cx="223.135" cy="-198" rx="27" ry="18"/>
<text text-anchor="middle" x="223.135" y="-192.4" font-family="Times,serif" font-size="14.00">B4</text>
</g>
<!-- B4&#45;&#45;B&#45;4 -->
<g id="edge4" class="edge"><title>B4&#45;&#45;B&#45;4</title>
<path fill="none" stroke="black" d="M223.135,-179.61C223.135,-167.24 223.135,-150.37 223.135,-136.22"/>
<polygon fill="black" stroke="black" points="226.635,-136.05 223.135,-126.05 219.635,-136.05 226.635,-136.05"/>
<text text-anchor="middle" x="242.385" y="-147.4" font-family="Times,serif" font-size="14.00">0.0182</text>
</g>
<!-- C#5 -->
<g id="node6" class="node"><title>C#5</title>
<ellipse fill="none" stroke="black" cx="27.1346" cy="-288" rx="27.2698" ry="18"/>
<text text-anchor="middle" x="27.1346" y="-282.4" font-family="Times,serif" font-size="14.00">C#5</text>
</g>
<!-- E3 -->
<g id="node7" class="node"><title>E3</title>
<ellipse fill="none" stroke="black" cx="53.1346" cy="-198" rx="27" ry="18"/>
<text text-anchor="middle" x="53.1346" y="-192.4" font-family="Times,serif" font-size="14.00">E3</text>
</g>
<!-- C#5&#45;&#45;E3 -->
<g id="edge6" class="edge"><title>C#5&#45;&#45;E3</title>
<path fill="none" stroke="black" d="M25.1636,-269.86C24.5386,-259.27 24.8176,-245.54 28.6346,-234 29.9346,-230.07 31.8306,-226.19 34.0026,-222.53"/>
<polygon fill="black" stroke="black" points="37.0928,-224.207 39.7836,-213.96 31.2897,-220.293 37.0928,-224.207"/>
<text text-anchor="middle" x="48.3846" y="-237.4" font-family="Times,serif" font-size="14.00">0.0182</text>
</g>
<!-- E&#45;3 -->
<g id="node9" class="node"><title>E&#45;3</title>
<ellipse fill="none" stroke="black" cx="435.135" cy="-288" rx="27" ry="18"/>
<text text-anchor="middle" x="435.135" y="-282.4" font-family="Times,serif" font-size="14.00">E&#45;3</text>
</g>
<!-- F#4 -->
<g id="node10" class="node"><title>F#4</title>
<ellipse fill="none" stroke="black" cx="464.135" cy="-198" rx="27" ry="18"/>
<text text-anchor="middle" x="464.135" y="-192.4" font-family="Times,serif" font-size="14.00">F#4</text>
</g>
<!-- E&#45;3&#45;&#45;F#4 -->
<g id="edge8" class="edge"><title>E&#45;3&#45;&#45;F#4</title>
<path fill="none" stroke="black" d="M440.725,-270.03C444.855,-257.49 450.565,-240.17 455.315,-225.77"/>
<polygon fill="black" stroke="black" points="458.755,-226.513 458.565,-215.92 452.107,-224.32 458.755,-226.513"/>
<text text-anchor="middle" x="472.385" y="-237.4" font-family="Times,serif" font-size="14.00">0.0182</text>
</g>
<!-- G#2 -->
<g id="node12" class="node"><title>G#2</title>
<ellipse fill="none" stroke="black" cx="335.135" cy="-198" rx="27.8358" ry="18"/>
<text text-anchor="middle" x="335.135" y="-192.4" font-family="Times,serif" font-size="14.00">G#2</text>
</g>
<!-- E&#45;3&#45;&#45;G#2 -->
<g id="edge10" class="edge"><title>E&#45;3&#45;&#45;G#2</title>
<path fill="none" stroke="black" d="M420.715,-272.7C409.595,-261.83 393.695,-246.64 379.135,-234 373.255,-228.9 366.775,-223.58 360.625,-218.67"/>
<polygon fill="black" stroke="black" points="362.562,-215.74 352.545,-212.29 358.224,-221.234 362.562,-215.74"/>
<text text-anchor="middle" x="417.385" y="-237.4" font-family="Times,serif" font-size="14.00">0.0727</text>
</g>
<!-- G#2&#45;&#45;G#2 -->
<g id="edge12" class="edge"><title>G#2&#45;&#45;G#2</title>
<path fill="none" stroke="black" d="M359.665,-206.12C370.645,-206.89 380.135,-204.19 380.135,-198 380.135,-193.84 375.855,-191.26 369.705,-190.24"/>
<polygon fill="black" stroke="black" points="369.784,-186.741 359.665,-189.88 369.533,-193.736 369.784,-186.741"/>
<text text-anchor="middle" x="399.385" y="-192.4" font-family="Times,serif" font-size="14.00">0.5818</text>
</g>
<!-- G#3 -->
<g id="node15" class="node"><title>G#3</title>
<ellipse fill="none" stroke="black" cx="335.135" cy="-108" rx="27.8358" ry="18"/>
<text text-anchor="middle" x="335.135" y="-102.4" font-family="Times,serif" font-size="14.00">G#3</text>
</g>
<!-- G#2&#45;&#45;G#3 -->
<g id="edge14" class="edge"><title>G#2&#45;&#45;G#3</title>
<path fill="none" stroke="black" d="M335.135,-179.61C335.135,-167.24 335.135,-150.37 335.135,-136.22"/>
<polygon fill="black" stroke="black" points="338.635,-136.05 335.135,-126.05 331.635,-136.05 338.635,-136.05"/>
<text text-anchor="middle" x="354.385" y="-147.4" font-family="Times,serif" font-size="14.00">0.1091</text>
</g>
<!-- E4 -->
<g id="node17" class="node"><title>E4</title>
<ellipse fill="none" stroke="black" cx="337.135" cy="-288" rx="27" ry="18"/>
<text text-anchor="middle" x="337.135" y="-282.4" font-family="Times,serif" font-size="14.00">E4</text>
</g>
<!-- E4&#45;&#45;G#2 -->
<g id="edge16" class="edge"><title>E4&#45;&#45;G#2</title>
<path fill="none" stroke="black" d="M336.735,-269.61C336.455,-257.24 336.075,-240.37 335.755,-226.22"/>
<polygon fill="black" stroke="black" points="339.25,-225.968 335.525,-216.05 332.252,-226.127 339.25,-225.968"/>
<text text-anchor="middle" x="356.385" y="-237.4" font-family="Times,serif" font-size="14.00">0.0364</text>
</g>
<!-- F#3 -->
<g id="node19" class="node"><title>F#3</title>
<ellipse fill="none" stroke="black" cx="182.135" cy="-378" rx="27" ry="18"/>
<text text-anchor="middle" x="182.135" y="-372.4" font-family="Times,serif" font-size="14.00">F#3</text>
</g>
<!-- G#4 -->
<g id="node20" class="node"><title>G#4</title>
<ellipse fill="none" stroke="black" cx="182.135" cy="-288" rx="27.8358" ry="18"/>
<text text-anchor="middle" x="182.135" y="-282.4" font-family="Times,serif" font-size="14.00">G#4</text>
</g>
<!-- F#3&#45;&#45;G#4 -->
<g id="edge18" class="edge"><title>F#3&#45;&#45;G#4</title>
<path fill="none" stroke="black" d="M182.135,-359.61C182.135,-347.24 182.135,-330.37 182.135,-316.22"/>
<polygon fill="black" stroke="black" points="185.635,-316.05 182.135,-306.05 178.635,-316.05 185.635,-316.05"/>
<text text-anchor="middle" x="201.385" y="-327.4" font-family="Times,serif" font-size="14.00">0.0182</text>
</g>
<!-- G#4&#45;&#45;B4 -->
<g id="edge24" class="edge"><title>G#4&#45;&#45;B4</title>
<path fill="none" stroke="black" d="M189.845,-270.45C195.855,-257.54 204.315,-239.39 211.205,-224.61"/>
<polygon fill="black" stroke="black" points="214.407,-226.023 215.455,-215.48 208.061,-223.069 214.407,-226.023"/>
<text text-anchor="middle" x="226.385" y="-237.4" font-family="Times,serif" font-size="14.00">0.0364</text>
</g>
<!-- G#4&#45;&#45;E3 -->
<g id="edge26" class="edge"><title>G#4&#45;&#45;E3</title>
<path fill="none" stroke="black" d="M158.555,-278.53C143.065,-272.39 122.765,-263.21 106.635,-252 94.3156,-243.44 82.2906,-231.9 72.7716,-221.78"/>
<polygon fill="black" stroke="black" points="75.3474,-219.41 66.0176,-214.39 70.1803,-224.133 75.3474,-219.41"/>
<text text-anchor="middle" x="126.385" y="-237.4" font-family="Times,serif" font-size="14.00">0.0182</text>
</g>
<!-- G#4&#45;&#45;G#2 -->
<g id="edge20" class="edge"><title>G#4&#45;&#45;G#2</title>
<path fill="none" stroke="black" d="M203.165,-276.5C216.465,-269.73 233.965,-260.62 249.135,-252 268.945,-240.74 290.805,-227.26 307.525,-216.71"/>
<polygon fill="black" stroke="black" points="309.668,-219.495 316.235,-211.18 305.916,-213.585 309.668,-219.495"/>
<text text-anchor="middle" x="297.385" y="-237.4" font-family="Times,serif" font-size="14.00">0.0182</text>
</g>
<!-- E&#45;5 -->
<g id="node23" class="node"><title>E&#45;5</title>
<ellipse fill="none" stroke="black" cx="151.135" cy="-198" rx="27" ry="18"/>
<text text-anchor="middle" x="151.135" y="-192.4" font-family="Times,serif" font-size="14.00">E&#45;5</text>
</g>
<!-- G#4&#45;&#45;E&#45;5 -->
<g id="edge22" class="edge"><title>G#4&#45;&#45;E&#45;5</title>
<path fill="none" stroke="black" d="M166.715,-273.14C161.205,-267.22 155.635,-259.87 152.635,-252 149.595,-244.02 148.555,-234.86 148.475,-226.42"/>
<polygon fill="black" stroke="black" points="151.978,-226.378 148.805,-216.27 144.981,-226.151 151.978,-226.378"/>
<text text-anchor="middle" x="172.385" y="-237.4" font-family="Times,serif" font-size="14.00">0.0182</text>
</g>
<!-- G#1 -->
<g id="node27" class="node"><title>G#1</title>
<ellipse fill="none" stroke="black" cx="337.135" cy="-378" rx="27.8358" ry="18"/>
<text text-anchor="middle" x="337.135" y="-372.4" font-family="Times,serif" font-size="14.00">G#1</text>
</g>
<!-- G#1&#45;&#45;E4 -->
<g id="edge28" class="edge"><title>G#1&#45;&#45;E4</title>
<path fill="none" stroke="black" d="M337.135,-359.61C337.135,-347.24 337.135,-330.37 337.135,-316.22"/>
<polygon fill="black" stroke="black" points="340.635,-316.05 337.135,-306.05 333.635,-316.05 340.635,-316.05"/>
<text text-anchor="middle" x="356.385" y="-327.4" font-family="Times,serif" font-size="14.00">0.0182</text>
</g>
</g>
</svg>
