<?xml version="1.0" encoding="UTF-8" standalone="no"?>
<!DOCTYPE svg PUBLIC "-//W3C//DTD SVG 1.1//EN"
 "http://www.w3.org/Graphics/SVG/1.1/DTD/svg11.dtd">
<!-- Generated by graphviz version 2.28.0 (20121019.2215)
 -->
<!-- Title: _anonymous_0 Pages: 1 -->
<svg width="535pt" height="674pt"
 viewBox="0.00 0.00 535.45 674.00" xmlns="http://www.w3.org/2000/svg" xmlns:xlink="http://www.w3.org/1999/xlink">
<g id="graph1" class="graph" transform="scale(1 1) rotate(0) translate(4 670)">
<title>_anonymous_0</title>
<polygon fill="white" stroke="white" points="-4,5 -4,-670 532.454,-670 532.454,5 -4,5"/>
<!-- B&#45;3 -->
<g id="node1" class="node"><title>B&#45;3</title>
<ellipse fill="none" stroke="black" cx="77.9547" cy="-648" rx="27" ry="18"/>
<text text-anchor="middle" x="77.9547" y="-642.4" font-family="Times,serif" font-size="14.00">B&#45;3</text>
</g>
<!-- F#3 -->
<g id="node2" class="node"><title>F#3</title>
<ellipse fill="none" stroke="black" cx="77.9547" cy="-558" rx="27" ry="18"/>
<text text-anchor="middle" x="77.9547" y="-552.4" font-family="Times,serif" font-size="14.00">F#3</text>
</g>
<!-- B&#45;3&#45;&#45;F#3 -->
<g id="edge2" class="edge"><title>B&#45;3&#45;&#45;F#3</title>
<path fill="none" stroke="black" d="M77.9547,-629.61C77.9547,-617.24 77.9547,-600.37 77.9547,-586.22"/>
<polygon fill="black" stroke="black" points="81.4548,-586.05 77.9547,-576.05 74.4548,-586.05 81.4548,-586.05"/>
<text text-anchor="middle" x="97.2047" y="-597.4" font-family="Times,serif" font-size="14.00">0.0556</text>
</g>
<!-- B&#45;4 -->
<g id="node4" class="node"><title>B&#45;4</title>
<ellipse fill="none" stroke="black" cx="160.954" cy="-288" rx="27" ry="18"/>
<text text-anchor="middle" x="160.954" y="-282.4" font-family="Times,serif" font-size="14.00">B&#45;4</text>
</g>
<!-- E&#45;4 -->
<g id="node5" class="node"><title>E&#45;4</title>
<ellipse fill="none" stroke="black" cx="160.954" cy="-198" rx="27" ry="18"/>
<text text-anchor="middle" x="160.954" y="-192.4" font-family="Times,serif" font-size="14.00">E&#45;4</text>
</g>
<!-- B&#45;4&#45;&#45;E&#45;4 -->
<g id="edge4" class="edge"><title>B&#45;4&#45;&#45;E&#45;4</title>
<path fill="none" stroke="black" d="M160.954,-269.61C160.954,-257.24 160.954,-240.37 160.954,-226.22"/>
<polygon fill="black" stroke="black" points="164.454,-226.05 160.954,-216.05 157.454,-226.05 164.454,-226.05"/>
<text text-anchor="middle" x="180.204" y="-237.4" font-family="Times,serif" font-size="14.00">0.0278</text>
</g>
<!-- G#3 -->
<g id="node7" class="node"><title>G#3</title>
<ellipse fill="none" stroke="black" cx="160.954" cy="-108" rx="27.8358" ry="18"/>
<text text-anchor="middle" x="160.954" y="-102.4" font-family="Times,serif" font-size="14.00">G#3</text>
</g>
<!-- E&#45;4&#45;&#45;G#3 -->
<g id="edge6" class="edge"><title>E&#45;4&#45;&#45;G#3</title>
<path fill="none" stroke="black" d="M160.954,-179.61C160.954,-167.24 160.954,-150.37 160.954,-136.22"/>
<polygon fill="black" stroke="black" points="164.454,-136.05 160.954,-126.05 157.454,-136.05 164.454,-136.05"/>
<text text-anchor="middle" x="180.204" y="-147.4" font-family="Times,serif" font-size="14.00">0.0833</text>
</g>
<!-- G#2 -->
<g id="node9" class="node"><title>G#2</title>
<ellipse fill="none" stroke="black" cx="242.954" cy="-18" rx="27.8358" ry="18"/>
<text text-anchor="middle" x="242.954" y="-12.4" font-family="Times,serif" font-size="14.00">G#2</text>
</g>
<!-- G#3&#45;&#45;G#2 -->
<g id="edge8" class="edge"><title>G#3&#45;&#45;G#2</title>
<path fill="none" stroke="black" d="M174.864,-92.072C187.904,-78.081 207.554,-56.992 222.394,-41.061"/>
<polygon fill="black" stroke="black" points="224.991,-43.4076 229.254,-33.708 219.873,-38.6324 224.991,-43.4076"/>
<text text-anchor="middle" x="229.204" y="-57.4" font-family="Times,serif" font-size="14.00">0.1944</text>
</g>
<!-- B3 -->
<g id="node11" class="node"><title>B3</title>
<ellipse fill="none" stroke="black" cx="87.9547" cy="-18" rx="27" ry="18"/>
<text text-anchor="middle" x="87.9547" y="-12.4" font-family="Times,serif" font-size="14.00">B3</text>
</g>
<!-- G#3&#45;&#45;B3 -->
<g id="edge10" class="edge"><title>G#3&#45;&#45;B3</title>
<path fill="none" stroke="black" d="M152.564,-90.864C146.474,-79.909 137.644,-65.398 127.954,-54 123.564,-48.832 118.394,-43.747 113.264,-39.122"/>
<polygon fill="black" stroke="black" points="115.193,-36.164 105.332,-32.289 110.624,-41.4675 115.193,-36.164"/>
<text text-anchor="middle" x="161.204" y="-57.4" font-family="Times,serif" font-size="14.00">0.0278</text>
</g>
<!-- B4 -->
<g id="node13" class="node"><title>B4</title>
<ellipse fill="none" stroke="black" cx="269.954" cy="-558" rx="27" ry="18"/>
<text text-anchor="middle" x="269.954" y="-552.4" font-family="Times,serif" font-size="14.00">B4</text>
</g>
<!-- E4 -->
<g id="node14" class="node"><title>E4</title>
<ellipse fill="none" stroke="black" cx="216.954" cy="-468" rx="27" ry="18"/>
<text text-anchor="middle" x="216.954" y="-462.4" font-family="Times,serif" font-size="14.00">E4</text>
</g>
<!-- B4&#45;&#45;E4 -->
<g id="edge12" class="edge"><title>B4&#45;&#45;E4</title>
<path fill="none" stroke="black" d="M253.384,-543.72C246.734,-537.69 239.474,-530.09 234.454,-522 229.534,-514.07 225.834,-504.61 223.144,-495.88"/>
<polygon fill="black" stroke="black" points="226.48,-494.813 220.424,-486.12 219.737,-496.693 226.48,-494.813"/>
<text text-anchor="middle" x="254.204" y="-507.4" font-family="Times,serif" font-size="14.00">0.0278</text>
</g>
<!-- C#5 -->
<g id="node16" class="node"><title>C#5</title>
<ellipse fill="none" stroke="black" cx="288.954" cy="-468" rx="27.2698" ry="18"/>
<text text-anchor="middle" x="288.954" y="-462.4" font-family="Times,serif" font-size="14.00">C#5</text>
</g>
<!-- B4&#45;&#45;C#5 -->
<g id="edge14" class="edge"><title>B4&#45;&#45;C#5</title>
<path fill="none" stroke="black" d="M273.174,-539.78C275.164,-529.39 277.834,-515.91 280.454,-504 281.044,-501.34 281.674,-498.58 282.314,-495.82"/>
<polygon fill="black" stroke="black" points="285.726,-496.6 284.654,-486.06 278.919,-494.968 285.726,-496.6"/>
<text text-anchor="middle" x="300.204" y="-507.4" font-family="Times,serif" font-size="14.00">0.0278</text>
</g>
<!-- F#4 -->
<g id="node18" class="node"><title>F#4</title>
<ellipse fill="none" stroke="black" cx="212.954" cy="-378" rx="27" ry="18"/>
<text text-anchor="middle" x="212.954" y="-372.4" font-family="Times,serif" font-size="14.00">F#4</text>
</g>
<!-- C#5&#45;&#45;F#4 -->
<g id="edge16" class="edge"><title>C#5&#45;&#45;F#4</title>
<path fill="none" stroke="black" d="M276.064,-452.07C264.164,-438.29 246.314,-417.63 232.634,-401.78"/>
<polygon fill="black" stroke="black" points="235.099,-399.28 225.914,-394 229.802,-403.856 235.099,-399.28"/>
<text text-anchor="middle" x="277.204" y="-417.4" font-family="Times,serif" font-size="14.00">0.0278</text>
</g>
<!-- F#4&#45;&#45;B&#45;4 -->
<g id="edge18" class="edge"><title>F#4&#45;&#45;B&#45;4</title>
<path fill="none" stroke="black" d="M203.414,-360.86C195.644,-347.71 184.544,-328.92 175.644,-313.86"/>
<polygon fill="black" stroke="black" points="178.533,-311.87 170.434,-305.04 172.506,-315.43 178.533,-311.87"/>
<text text-anchor="middle" x="211.204" y="-327.4" font-family="Times,serif" font-size="14.00">0.0278</text>
</g>
<!-- C#4 -->
<g id="node21" class="node"><title>C#4</title>
<ellipse fill="none" stroke="black" cx="45.9547" cy="-198" rx="27.2698" ry="18"/>
<text text-anchor="middle" x="45.9547" y="-192.4" font-family="Times,serif" font-size="14.00">C#4</text>
</g>
<!-- C#4&#45;&#45;G#3 -->
<g id="edge22" class="edge"><title>C#4&#45;&#45;G#3</title>
<path fill="none" stroke="black" d="M63.4207,-183.63C82.6137,-168.95 113.624,-145.22 135.514,-128.47"/>
<polygon fill="black" stroke="black" points="137.891,-131.058 143.704,-122.2 133.636,-125.5 137.891,-131.058"/>
<text text-anchor="middle" x="133.204" y="-147.4" font-family="Times,serif" font-size="14.00">0.0278</text>
</g>
<!-- C#4&#45;&#45;B3 -->
<g id="edge20" class="edge"><title>C#4&#45;&#45;B3</title>
<path fill="none" stroke="black" d="M34.4747,-181.38C20.4067,-160.2 0,-121.41 13.4547,-90 22.9207,-67.903 43.0157,-49.421 59.9517,-36.858"/>
<polygon fill="black" stroke="black" points="62.3105,-39.4763 68.4477,-30.84 58.2644,-33.7641 62.3105,-39.4763"/>
<text text-anchor="middle" x="33.2047" y="-102.4" font-family="Times,serif" font-size="14.00">0.0278</text>
</g>
<!-- F#2 -->
<g id="node24" class="node"><title>F#2</title>
<ellipse fill="none" stroke="black" cx="488.954" cy="-648" rx="27" ry="18"/>
<text text-anchor="middle" x="488.954" y="-642.4" font-family="Times,serif" font-size="14.00">F#2</text>
</g>
<!-- E&#45;3 -->
<g id="node25" class="node"><title>E&#45;3</title>
<ellipse fill="none" stroke="black" cx="488.954" cy="-558" rx="27" ry="18"/>
<text text-anchor="middle" x="488.954" y="-552.4" font-family="Times,serif" font-size="14.00">E&#45;3</text>
</g>
<!-- F#2&#45;&#45;E&#45;3 -->
<g id="edge24" class="edge"><title>F#2&#45;&#45;E&#45;3</title>
<path fill="none" stroke="black" d="M488.954,-629.61C488.954,-617.24 488.954,-600.37 488.954,-586.22"/>
<polygon fill="black" stroke="black" points="492.454,-586.05 488.954,-576.05 485.454,-586.05 492.454,-586.05"/>
<text text-anchor="middle" x="508.204" y="-597.4" font-family="Times,serif" font-size="14.00">0.0278</text>
</g>
<!-- F3 -->
<g id="node27" class="node"><title>F3</title>
<ellipse fill="none" stroke="black" cx="87.9547" cy="-108" rx="27" ry="18"/>
<text text-anchor="middle" x="87.9547" y="-102.4" font-family="Times,serif" font-size="14.00">F3</text>
</g>
<!-- F3&#45;&#45;B3 -->
<g id="edge26" class="edge"><title>F3&#45;&#45;B3</title>
<path fill="none" stroke="black" d="M87.9547,-89.614C87.9547,-77.24 87.9547,-60.369 87.9547,-46.22"/>
<polygon fill="black" stroke="black" points="91.4548,-46.05 87.9547,-36.05 84.4548,-46.05 91.4548,-46.05"/>
<text text-anchor="middle" x="107.205" y="-57.4" font-family="Times,serif" font-size="14.00">0.0278</text>
</g>
<!-- G#4 -->
<g id="node29" class="node"><title>G#4</title>
<ellipse fill="none" stroke="black" cx="304.954" cy="-648" rx="27.8358" ry="18"/>
<text text-anchor="middle" x="304.954" y="-642.4" font-family="Times,serif" font-size="14.00">G#4</text>
</g>
<!-- G#4&#45;&#45;B&#45;4 -->
<g id="edge34" class="edge"><title>G#4&#45;&#45;B&#45;4</title>
<path fill="none" stroke="black" d="M277.704,-645.29C229.204,-640.61 132.954,-623.23 132.954,-559 132.954,-559 132.954,-559 132.954,-377 132.954,-355.29 140.794,-331.92 148.174,-314.73"/>
<polygon fill="black" stroke="black" points="151.471,-315.934 152.404,-305.38 145.093,-313.048 151.471,-315.934"/>
<text text-anchor="middle" x="152.204" y="-462.4" font-family="Times,serif" font-size="14.00">0.0278</text>
</g>
<!-- G#4&#45;&#45;B4 -->
<g id="edge32" class="edge"><title>G#4&#45;&#45;B4</title>
<path fill="none" stroke="black" d="M292.244,-631.8C287.914,-625.93 283.424,-618.96 280.454,-612 277.044,-603.99 274.724,-594.82 273.154,-586.39"/>
<polygon fill="black" stroke="black" points="276.567,-585.568 271.544,-576.24 269.654,-586.665 276.567,-585.568"/>
<text text-anchor="middle" x="300.204" y="-597.4" font-family="Times,serif" font-size="14.00">0.0278</text>
</g>
<!-- G#4&#45;&#45;C#5 -->
<g id="edge30" class="edge"><title>G#4&#45;&#45;C#5</title>
<path fill="none" stroke="black" d="M312.984,-630.66C315.404,-624.9 317.744,-618.3 318.954,-612 328.034,-564.87 335.604,-549.02 318.954,-504 317.204,-499.28 314.504,-494.76 311.424,-490.63"/>
<polygon fill="black" stroke="black" points="313.893,-488.13 304.754,-482.77 308.555,-492.659 313.893,-488.13"/>
<text text-anchor="middle" x="348.204" y="-552.4" font-family="Times,serif" font-size="14.00">0.0278</text>
</g>
<!-- E&#45;5 -->
<g id="node30" class="node"><title>E&#45;5</title>
<ellipse fill="none" stroke="black" cx="416.954" cy="-558" rx="27" ry="18"/>
<text text-anchor="middle" x="416.954" y="-552.4" font-family="Times,serif" font-size="14.00">E&#45;5</text>
</g>
<!-- G#4&#45;&#45;E&#45;5 -->
<g id="edge28" class="edge"><title>G#4&#45;&#45;E&#45;5</title>
<path fill="none" stroke="black" d="M321.964,-633.63C340.654,-618.95 370.854,-595.22 392.174,-578.47"/>
<polygon fill="black" stroke="black" points="394.453,-581.13 400.154,-572.2 390.128,-575.626 394.453,-581.13"/>
<text text-anchor="middle" x="391.204" y="-597.4" font-family="Times,serif" font-size="14.00">0.0556</text>
</g>
<!-- G#5 -->
<g id="node35" class="node"><title>G#5</title>
<ellipse fill="none" stroke="black" cx="273.954" cy="-108" rx="27.8358" ry="18"/>
<text text-anchor="middle" x="273.954" y="-102.4" font-family="Times,serif" font-size="14.00">G#5</text>
</g>
<!-- G#5&#45;&#45;G#2 -->
<g id="edge36" class="edge"><title>G#5&#45;&#45;G#2</title>
<path fill="none" stroke="black" d="M267.974,-90.033C263.494,-77.291 257.264,-59.61 252.144,-45.076"/>
<polygon fill="black" stroke="black" points="255.434,-43.8811 248.804,-35.617 248.833,-46.2118 255.434,-43.8811"/>
<text text-anchor="middle" x="281.204" y="-57.4" font-family="Times,serif" font-size="14.00">0.0278</text>
</g>
</g>
</svg>
